G04*
G04 #@! TF.GenerationSoftware,Altium Limited,Altium Designer,22.7.1 (60)*
G04*
G04 Layer_Color=255*
%FSLAX44Y44*%
%MOMM*%
G71*
G04*
G04 #@! TF.SameCoordinates,9AA6D23D-87E4-4A34-83E0-739B1A9BDA5E*
G04*
G04*
G04 #@! TF.FilePolarity,Positive*
G04*
G01*
G75*
%ADD14R,1.4082X1.0065*%
%ADD15R,1.5082X1.2065*%
G04:AMPARAMS|DCode=16|XSize=0.9mm|YSize=1.75mm|CornerRadius=0.0495mm|HoleSize=0mm|Usage=FLASHONLY|Rotation=90.000|XOffset=0mm|YOffset=0mm|HoleType=Round|Shape=RoundedRectangle|*
%AMROUNDEDRECTD16*
21,1,0.9000,1.6510,0,0,90.0*
21,1,0.8010,1.7500,0,0,90.0*
1,1,0.0990,0.8255,0.4005*
1,1,0.0990,0.8255,-0.4005*
1,1,0.0990,-0.8255,-0.4005*
1,1,0.0990,-0.8255,0.4005*
%
%ADD16ROUNDEDRECTD16*%
G04:AMPARAMS|DCode=17|XSize=3.2mm|YSize=1.75mm|CornerRadius=0.0525mm|HoleSize=0mm|Usage=FLASHONLY|Rotation=90.000|XOffset=0mm|YOffset=0mm|HoleType=Round|Shape=RoundedRectangle|*
%AMROUNDEDRECTD17*
21,1,3.2000,1.6450,0,0,90.0*
21,1,3.0950,1.7500,0,0,90.0*
1,1,0.1050,0.8225,1.5475*
1,1,0.1050,0.8225,-1.5475*
1,1,0.1050,-0.8225,-1.5475*
1,1,0.1050,-0.8225,1.5475*
%
%ADD17ROUNDEDRECTD17*%
%ADD18R,0.9500X1.4500*%
%ADD19R,0.7500X0.9000*%
%ADD20R,1.4000X1.8000*%
%ADD21R,0.8300X0.6300*%
%ADD22R,1.4500X0.9500*%
%ADD23R,1.2065X1.5082*%
%ADD24R,0.9000X0.8000*%
%ADD25R,1.0046X1.2621*%
%ADD26R,0.9000X2.0000*%
%ADD27R,2.0000X0.9000*%
%ADD28R,1.3300X1.3300*%
%ADD29R,0.9000X0.7500*%
%ADD30R,1.2621X1.0046*%
%ADD31R,0.8000X0.9000*%
%ADD32R,0.8000X0.9000*%
G04:AMPARAMS|DCode=33|XSize=3.15mm|YSize=1.45mm|CornerRadius=0.0508mm|HoleSize=0mm|Usage=FLASHONLY|Rotation=90.000|XOffset=0mm|YOffset=0mm|HoleType=Round|Shape=RoundedRectangle|*
%AMROUNDEDRECTD33*
21,1,3.1500,1.3485,0,0,90.0*
21,1,3.0485,1.4500,0,0,90.0*
1,1,0.1015,0.6743,1.5243*
1,1,0.1015,0.6743,-1.5243*
1,1,0.1015,-0.6743,-1.5243*
1,1,0.1015,-0.6743,1.5243*
%
%ADD33ROUNDEDRECTD33*%
G04:AMPARAMS|DCode=34|XSize=0.9mm|YSize=1.45mm|CornerRadius=0.0495mm|HoleSize=0mm|Usage=FLASHONLY|Rotation=90.000|XOffset=0mm|YOffset=0mm|HoleType=Round|Shape=RoundedRectangle|*
%AMROUNDEDRECTD34*
21,1,0.9000,1.3510,0,0,90.0*
21,1,0.8010,1.4500,0,0,90.0*
1,1,0.0990,0.6755,0.4005*
1,1,0.0990,0.6755,-0.4005*
1,1,0.0990,-0.6755,-0.4005*
1,1,0.0990,-0.6755,0.4005*
%
%ADD34ROUNDEDRECTD34*%
%ADD35R,2.0000X3.0000*%
%ADD36R,1.1500X1.1500*%
%ADD37R,2.3300X1.9900*%
%ADD38R,0.8065X1.3082*%
%ADD39R,0.7000X1.1000*%
%ADD40R,0.8600X2.8000*%
%ADD41R,0.7000X3.3000*%
%ADD42R,1.1400X1.8300*%
%ADD43R,0.8000X0.8000*%
%ADD44R,1.7145X2.1844*%
%ADD45R,1.9900X2.3300*%
%ADD46R,0.9000X0.9300*%
%ADD47R,1.0500X0.7800*%
%ADD48R,0.6300X0.8300*%
%ADD63R,2.5000X2.5000*%
%ADD64C,2.5000*%
%ADD65C,1.5406*%
%ADD66R,1.5406X1.5406*%
%ADD67C,1.2000*%
%ADD68R,1.2000X1.2000*%
%ADD69R,1.7500X1.7500*%
%ADD70C,1.7500*%
%ADD71C,1.8400*%
%ADD72R,1.8400X1.8400*%
%ADD76R,2.0000X2.0000*%
%ADD77C,2.0000*%
%ADD78R,2.0000X2.0000*%
%ADD89C,1.7000*%
%ADD90R,1.7000X1.7000*%
%ADD91R,1.7000X1.7000*%
%ADD92C,4.0000*%
D14*
X995680Y529478D02*
D03*
Y510461D02*
D03*
D15*
X972820Y529939D02*
D03*
Y508921D02*
D03*
X1075690Y270161D02*
D03*
Y291179D02*
D03*
X1049020Y270161D02*
D03*
Y291179D02*
D03*
X1022350D02*
D03*
Y270161D02*
D03*
X995680Y291179D02*
D03*
Y270161D02*
D03*
X969010Y291179D02*
D03*
Y270161D02*
D03*
X1102360Y550259D02*
D03*
Y529241D02*
D03*
X392430Y638461D02*
D03*
Y659479D02*
D03*
X364490Y154591D02*
D03*
Y175609D02*
D03*
X325120Y341281D02*
D03*
Y362299D02*
D03*
X306070Y302609D02*
D03*
Y281591D02*
D03*
X1021080Y529939D02*
D03*
Y508921D02*
D03*
D16*
X697730Y254140D02*
D03*
Y231140D02*
D03*
Y208140D02*
D03*
D17*
X760230Y231140D02*
D03*
D18*
X880520Y342900D02*
D03*
X900020D02*
D03*
X880520Y304800D02*
D03*
X900020D02*
D03*
X880520Y323850D02*
D03*
X900020D02*
D03*
X620620Y525780D02*
D03*
X601120D02*
D03*
X620620Y553720D02*
D03*
X601120D02*
D03*
X973230Y643890D02*
D03*
X992730D02*
D03*
D19*
X1100170Y505460D02*
D03*
X1112170D02*
D03*
X576230Y154940D02*
D03*
X564230D02*
D03*
X301910Y166370D02*
D03*
X289910D02*
D03*
D20*
X1146510Y199390D02*
D03*
X1172510D02*
D03*
X1162350Y598170D02*
D03*
X1136350D02*
D03*
D21*
X568960Y204190D02*
D03*
Y181890D02*
D03*
X276860Y456210D02*
D03*
Y478510D02*
D03*
X267970Y235230D02*
D03*
Y257530D02*
D03*
X275590Y335560D02*
D03*
Y357860D02*
D03*
D22*
X1098550Y272190D02*
D03*
Y291690D02*
D03*
X887730Y154530D02*
D03*
Y135030D02*
D03*
X862330Y154530D02*
D03*
Y135030D02*
D03*
X836930Y154530D02*
D03*
Y135030D02*
D03*
D23*
X1150969Y172720D02*
D03*
X1129951D02*
D03*
X641350Y525780D02*
D03*
X662367D02*
D03*
X641001Y553720D02*
D03*
X662019D02*
D03*
X317849Y441960D02*
D03*
X296831D02*
D03*
X306419Y218440D02*
D03*
X285401D02*
D03*
X1031589Y643890D02*
D03*
X298101Y534670D02*
D03*
X319119D02*
D03*
X1010571Y643890D02*
D03*
D24*
X369410Y626770D02*
D03*
X349410Y636270D02*
D03*
X369410Y645770D02*
D03*
X321470Y166370D02*
D03*
X341470Y175870D02*
D03*
Y156870D02*
D03*
D25*
X384922Y613410D02*
D03*
X399938D02*
D03*
X303418Y193040D02*
D03*
X288402D02*
D03*
X301214Y468630D02*
D03*
X316230D02*
D03*
D26*
X1112600Y485000D02*
D03*
X1099900D02*
D03*
X1087200D02*
D03*
X1074500D02*
D03*
X1061800D02*
D03*
X1049100D02*
D03*
X1036400D02*
D03*
X1023700D02*
D03*
X1011000D02*
D03*
X998300D02*
D03*
X985600D02*
D03*
X972900D02*
D03*
X960200D02*
D03*
X947500D02*
D03*
Y315000D02*
D03*
X960200D02*
D03*
X972900D02*
D03*
X985600D02*
D03*
X998300D02*
D03*
X1011000D02*
D03*
X1023700D02*
D03*
X1036400D02*
D03*
X1049100D02*
D03*
X1061800D02*
D03*
X1074500D02*
D03*
X1087200D02*
D03*
X1099900D02*
D03*
X1112600D02*
D03*
D27*
X937500Y457150D02*
D03*
Y444450D02*
D03*
Y431750D02*
D03*
Y419050D02*
D03*
Y406350D02*
D03*
Y393650D02*
D03*
Y380950D02*
D03*
Y368250D02*
D03*
Y355550D02*
D03*
Y342850D02*
D03*
D28*
X1055950Y428350D02*
D03*
Y410000D02*
D03*
Y391650D02*
D03*
X1037600Y428350D02*
D03*
Y410000D02*
D03*
Y391650D02*
D03*
X1019250Y428350D02*
D03*
Y410000D02*
D03*
Y391650D02*
D03*
D29*
X386080Y157830D02*
D03*
Y169830D02*
D03*
X676910Y253650D02*
D03*
Y241650D02*
D03*
X589280Y214280D02*
D03*
Y202280D02*
D03*
X339090Y468980D02*
D03*
Y480980D02*
D03*
X370840Y527970D02*
D03*
Y515970D02*
D03*
D30*
X410210Y156322D02*
D03*
Y171338D02*
D03*
X941070Y645048D02*
D03*
Y630032D02*
D03*
X342900Y530860D02*
D03*
Y515844D02*
D03*
D31*
X283210Y396400D02*
D03*
X292710Y416400D02*
D03*
X273710D02*
D03*
X286410Y236380D02*
D03*
X305410D02*
D03*
X295910Y256380D02*
D03*
D32*
X318110Y512920D02*
D03*
X308610Y492920D02*
D03*
X299110Y512920D02*
D03*
D33*
X675910Y194310D02*
D03*
D34*
X614410D02*
D03*
Y171310D02*
D03*
Y217310D02*
D03*
D35*
X675160Y130810D02*
D03*
X615160D02*
D03*
X761520Y167640D02*
D03*
X701520D02*
D03*
D36*
X299720Y363540D02*
D03*
Y340041D02*
D03*
X279400Y280350D02*
D03*
Y303850D02*
D03*
D37*
X359410Y215010D02*
D03*
Y275210D02*
D03*
D38*
X401701Y219710D02*
D03*
X418719D02*
D03*
D39*
X758835Y762000D02*
D03*
X703835D02*
D03*
X714835D02*
D03*
X725835D02*
D03*
X736835D02*
D03*
X747835D02*
D03*
X769835D02*
D03*
X780835D02*
D03*
D40*
X791635Y757000D02*
D03*
D41*
X792435Y649200D02*
D03*
X662835D02*
D03*
D42*
X665035Y761850D02*
D03*
D43*
X967740Y570350D02*
D03*
Y585350D02*
D03*
D44*
X496888Y191770D02*
D03*
X458153D02*
D03*
D45*
X540640Y544830D02*
D03*
X480440D02*
D03*
D46*
X685935Y637350D02*
D03*
D47*
X728585Y636600D02*
D03*
D48*
X653770Y243066D02*
D03*
X631470D02*
D03*
D63*
X450000Y361900D02*
D03*
X750000D02*
D03*
D64*
X450000Y438100D02*
D03*
X750000D02*
D03*
D65*
X1124981Y550000D02*
D03*
X1122441Y250000D02*
D03*
D66*
X1175019Y550000D02*
D03*
X1172479Y250000D02*
D03*
D67*
X309830Y610870D02*
D03*
Y636270D02*
D03*
D68*
Y661670D02*
D03*
D69*
X140000Y585000D02*
D03*
D70*
Y735000D02*
D03*
D71*
X1122830Y753110D02*
D03*
X1097430D02*
D03*
X1072030D02*
D03*
X1046630D02*
D03*
X1021230D02*
D03*
X995830D02*
D03*
X970430D02*
D03*
X945030D02*
D03*
X919630D02*
D03*
X894230D02*
D03*
X868830D02*
D03*
X938530Y46990D02*
D03*
X836930D02*
D03*
X862330D02*
D03*
X887730D02*
D03*
X989330D02*
D03*
X1014730D02*
D03*
X1040130D02*
D03*
X1065530D02*
D03*
X1090930D02*
D03*
X963930D02*
D03*
X913130D02*
D03*
D72*
X843430Y753110D02*
D03*
X1116330Y46990D02*
D03*
D76*
X239780Y434340D02*
D03*
Y310515D02*
D03*
Y186690D02*
D03*
X374320Y43580D02*
D03*
D77*
X239780Y459740D02*
D03*
Y485140D02*
D03*
Y335915D02*
D03*
Y361315D02*
D03*
Y212090D02*
D03*
Y237490D02*
D03*
X447040Y252980D02*
D03*
X472440D02*
D03*
X174320Y93580D02*
D03*
Y43580D02*
D03*
X374320Y93580D02*
D03*
D78*
X421640Y252980D02*
D03*
D89*
X116840Y478790D02*
D03*
Y231140D02*
D03*
X501650Y74830D02*
D03*
X798830Y46990D02*
D03*
X514350Y618490D02*
D03*
X450850D02*
D03*
X947420Y185420D02*
D03*
X1010920D02*
D03*
X542290Y754380D02*
D03*
X567690D02*
D03*
X593090D02*
D03*
X422910D02*
D03*
X448310D02*
D03*
X473710D02*
D03*
X116840Y354965D02*
D03*
D90*
Y440690D02*
D03*
Y193040D02*
D03*
Y316865D02*
D03*
D91*
X539750Y74830D02*
D03*
X773430Y46990D02*
D03*
X539750Y618490D02*
D03*
X476250D02*
D03*
X922020Y185420D02*
D03*
X985520D02*
D03*
X516890Y754380D02*
D03*
X397510D02*
D03*
D92*
X1170000Y770000D02*
D03*
X30000D02*
D03*
Y30480D02*
D03*
X600000Y400000D02*
D03*
X1170000Y30000D02*
D03*
M02*
