G04*
G04 #@! TF.GenerationSoftware,Altium Limited,Altium Designer,22.7.1 (60)*
G04*
G04 Layer_Color=0*
%FSLAX44Y44*%
%MOMM*%
G71*
G04*
G04 #@! TF.SameCoordinates,0E519C92-87A3-47E9-A83B-F09A3FC6FE1E*
G04*
G04*
G04 #@! TF.FilePolarity,Positive*
G04*
G01*
G75*
%ADD92C,0.1000*%
D92*
X96600Y622300D02*
X106600D01*
X101600Y617300D02*
Y627300D01*
X1038870Y661670D02*
X1048870D01*
X1043870Y656670D02*
Y666670D01*
X787400Y122792D02*
Y132792D01*
X782400Y127792D02*
X792400D01*
X661750Y206810D02*
X671750D01*
X666750Y201810D02*
Y211810D01*
X1122680Y204550D02*
Y214550D01*
X1117680Y209550D02*
X1127680D01*
X626444Y289052D02*
X636444D01*
X631444Y284052D02*
Y294052D01*
X666750Y45600D02*
Y55600D01*
X661750Y50600D02*
X671750D01*
X945802Y134206D02*
Y144206D01*
X940802Y139206D02*
X950802D01*
X813562Y461090D02*
Y471090D01*
X808562Y466090D02*
X818562D01*
X821770Y433070D02*
X831770D01*
X826770Y428070D02*
Y438070D01*
X811356Y397510D02*
X821356D01*
X816356Y392510D02*
Y402510D01*
X670814Y537544D02*
Y547544D01*
X665814Y542544D02*
X675814D01*
X649050Y289052D02*
X659050D01*
X654050Y284052D02*
Y294052D01*
X855472Y578438D02*
Y588438D01*
X850472Y583438D02*
X860472D01*
X198962Y331978D02*
X208962D01*
X203962Y326978D02*
Y336978D01*
X136906Y380064D02*
Y390064D01*
X131906Y385064D02*
X141906D01*
X843534Y609172D02*
Y619172D01*
X838534Y614172D02*
X848534D01*
X486236Y480314D02*
X496236D01*
X491236Y475314D02*
Y485314D01*
X574120Y560832D02*
X584120D01*
X579120Y555832D02*
Y565832D01*
X554562Y480060D02*
X564562D01*
X559562Y475060D02*
Y485060D01*
X465328Y460836D02*
Y470836D01*
X460328Y465836D02*
X470328D01*
X554562Y503682D02*
X564562D01*
X559562Y498682D02*
Y508682D01*
X525272Y463884D02*
Y473884D01*
X520272Y468884D02*
X530272D01*
X604679Y488522D02*
Y498522D01*
X599680Y493522D02*
X609680D01*
X592408Y527558D02*
X602408D01*
X597408Y522558D02*
Y532558D01*
X754206Y604774D02*
X764206D01*
X759206Y599774D02*
Y609774D01*
X1117680Y111506D02*
X1127680D01*
X1122680Y106506D02*
Y116506D01*
X237490Y490300D02*
Y500300D01*
X232490Y495300D02*
X242490D01*
X622126Y145796D02*
X632126D01*
X627126Y140796D02*
Y150796D01*
X836248Y285750D02*
X846248D01*
X841248Y280750D02*
Y290750D01*
X748030Y284560D02*
Y294560D01*
X743030Y289560D02*
X753030D01*
X552450Y281258D02*
Y291258D01*
X547450Y286258D02*
X557450D01*
X527050Y281258D02*
Y291258D01*
X522050Y286258D02*
X532050D01*
X840740Y702042D02*
Y712042D01*
X835740Y707041D02*
X845740D01*
X324790Y730420D02*
Y740420D01*
X319790Y735420D02*
X329790D01*
X792480Y729900D02*
Y739900D01*
X787480Y734900D02*
X797480D01*
X889050Y722710D02*
Y732710D01*
X884050Y727710D02*
X894050D01*
X360760Y523240D02*
X370760D01*
X365760Y518240D02*
Y528240D01*
X807466Y530492D02*
Y540492D01*
X802466Y535492D02*
X812466D01*
X773510Y539750D02*
X783510D01*
X778510Y534750D02*
Y544750D01*
X486156Y544910D02*
Y554910D01*
X481156Y549910D02*
X491156D01*
X485902Y586312D02*
Y596312D01*
X480902Y591312D02*
X490902D01*
X800434Y430784D02*
X810434D01*
X805434Y425784D02*
Y435784D01*
X584200Y140796D02*
Y150796D01*
X579200Y145796D02*
X589200D01*
X130890Y313690D02*
X140890D01*
X135890Y308690D02*
Y318690D01*
X696040Y530098D02*
X706040D01*
X701040Y525098D02*
Y535098D01*
X533734Y547878D02*
X543734D01*
X538734Y542878D02*
Y552878D01*
X778510Y631016D02*
Y641016D01*
X773510Y636016D02*
X783510D01*
X831422Y538273D02*
X841422D01*
X836422Y533273D02*
Y543273D01*
X726012Y582422D02*
X736012D01*
X731012Y577422D02*
Y587422D01*
X808482Y565738D02*
Y575738D01*
X803482Y570738D02*
X813482D01*
X600663Y145796D02*
X610663D01*
X605663Y140796D02*
Y150796D01*
X685800Y633810D02*
Y643810D01*
X680800Y638810D02*
X690800D01*
X566420Y633810D02*
Y643810D01*
X561420Y638810D02*
X571420D01*
X792814Y604012D02*
X802814D01*
X797814Y599012D02*
Y609012D01*
X96600Y570230D02*
X106600D01*
X101600Y565230D02*
Y575230D01*
X359490Y132080D02*
X369490D01*
X364490Y127080D02*
Y137080D01*
X133430Y132080D02*
X143430D01*
X138430Y127080D02*
Y137080D01*
X246380Y457280D02*
Y467280D01*
X241380Y462280D02*
X251380D01*
X389890Y476330D02*
Y486330D01*
X384890Y481330D02*
X394890D01*
X96600Y529590D02*
X106600D01*
X101600Y524590D02*
Y534590D01*
M02*
