G04*
G04 #@! TF.GenerationSoftware,Altium Limited,Altium Designer,22.7.1 (60)*
G04*
G04 Layer_Physical_Order=1*
G04 Layer_Color=255*
%FSLAX44Y44*%
%MOMM*%
G71*
G04*
G04 #@! TF.SameCoordinates,85DCC90D-1427-409F-9E8A-CED84819FF45*
G04*
G04*
G04 #@! TF.FilePolarity,Positive*
G04*
G01*
G75*
%ADD14C,0.2540*%
%ADD15R,1.3000X1.5500*%
%ADD16R,0.9000X0.8000*%
%ADD17R,1.4000X1.8000*%
%ADD18R,1.2065X1.5082*%
%ADD19R,0.7000X1.1000*%
%ADD20R,1.0500X0.7800*%
%ADD21R,0.9000X0.9300*%
%ADD22R,1.1400X1.8300*%
%ADD23R,0.7000X3.3000*%
%ADD24R,0.8600X2.8000*%
%ADD25R,0.9000X0.7500*%
%ADD26R,1.2621X1.0046*%
%ADD27R,0.8300X0.6300*%
%ADD28R,1.5082X1.2065*%
%ADD29R,1.7145X2.1844*%
%ADD30R,0.6300X0.8300*%
%ADD31R,1.0046X1.2621*%
%ADD32R,1.9900X2.3300*%
%ADD33R,0.9500X1.4500*%
%ADD34R,1.4082X1.0065*%
G04:AMPARAMS|DCode=35|XSize=0.9mm|YSize=1.75mm|CornerRadius=0.0495mm|HoleSize=0mm|Usage=FLASHONLY|Rotation=90.000|XOffset=0mm|YOffset=0mm|HoleType=Round|Shape=RoundedRectangle|*
%AMROUNDEDRECTD35*
21,1,0.9000,1.6510,0,0,90.0*
21,1,0.8010,1.7500,0,0,90.0*
1,1,0.0990,0.8255,0.4005*
1,1,0.0990,0.8255,-0.4005*
1,1,0.0990,-0.8255,-0.4005*
1,1,0.0990,-0.8255,0.4005*
%
%ADD35ROUNDEDRECTD35*%
G04:AMPARAMS|DCode=36|XSize=3.2mm|YSize=1.75mm|CornerRadius=0.0525mm|HoleSize=0mm|Usage=FLASHONLY|Rotation=90.000|XOffset=0mm|YOffset=0mm|HoleType=Round|Shape=RoundedRectangle|*
%AMROUNDEDRECTD36*
21,1,3.2000,1.6450,0,0,90.0*
21,1,3.0950,1.7500,0,0,90.0*
1,1,0.1050,0.8225,1.5475*
1,1,0.1050,0.8225,-1.5475*
1,1,0.1050,-0.8225,-1.5475*
1,1,0.1050,-0.8225,1.5475*
%
%ADD36ROUNDEDRECTD36*%
%ADD37R,0.7500X0.9000*%
%ADD38R,1.4500X0.9500*%
%ADD39R,0.9000X2.0000*%
%ADD40R,2.0000X0.9000*%
%ADD41R,1.3300X1.3300*%
%ADD42R,0.8000X0.9000*%
%ADD43R,0.8000X0.9000*%
G04:AMPARAMS|DCode=44|XSize=3.15mm|YSize=1.45mm|CornerRadius=0.0508mm|HoleSize=0mm|Usage=FLASHONLY|Rotation=90.000|XOffset=0mm|YOffset=0mm|HoleType=Round|Shape=RoundedRectangle|*
%AMROUNDEDRECTD44*
21,1,3.1500,1.3485,0,0,90.0*
21,1,3.0485,1.4500,0,0,90.0*
1,1,0.1015,0.6743,1.5243*
1,1,0.1015,0.6743,-1.5243*
1,1,0.1015,-0.6743,-1.5243*
1,1,0.1015,-0.6743,1.5243*
%
%ADD44ROUNDEDRECTD44*%
G04:AMPARAMS|DCode=45|XSize=0.9mm|YSize=1.45mm|CornerRadius=0.0495mm|HoleSize=0mm|Usage=FLASHONLY|Rotation=90.000|XOffset=0mm|YOffset=0mm|HoleType=Round|Shape=RoundedRectangle|*
%AMROUNDEDRECTD45*
21,1,0.9000,1.3510,0,0,90.0*
21,1,0.8010,1.4500,0,0,90.0*
1,1,0.0990,0.6755,0.4005*
1,1,0.0990,0.6755,-0.4005*
1,1,0.0990,-0.6755,-0.4005*
1,1,0.0990,-0.6755,0.4005*
%
%ADD45ROUNDEDRECTD45*%
%ADD46R,2.0000X3.0000*%
%ADD47R,1.1500X1.1500*%
%ADD48R,2.3300X1.9900*%
%ADD49R,0.8065X1.3082*%
%ADD50R,0.8000X0.8000*%
%ADD65R,1.7500X1.7500*%
%ADD66C,1.7500*%
%ADD67C,1.8400*%
%ADD68R,1.8400X1.8400*%
%ADD69R,2.3000X2.3000*%
%ADD70C,2.3000*%
%ADD73R,1.2000X1.2000*%
%ADD74C,1.2000*%
%ADD75R,2.5000X2.5000*%
%ADD76C,2.5000*%
%ADD80R,2.0000X2.0000*%
%ADD81C,2.0000*%
%ADD82R,2.0000X2.0000*%
%ADD87C,0.2032*%
%ADD88C,0.9000*%
%ADD89C,2.5000*%
%ADD90C,0.8000*%
%ADD91R,1.7500X1.7500*%
%ADD92C,1.7000*%
%ADD93R,1.7000X1.7000*%
%ADD94R,1.7000X1.7000*%
%ADD95C,4.0000*%
%ADD96C,0.7000*%
%ADD97C,1.3000*%
D14*
X30000Y30480D02*
X52540D01*
X30000D02*
Y53020D01*
X227240Y237490D02*
X239780D01*
X252320D01*
X239780D02*
Y250030D01*
X334430Y175870D02*
X341470D01*
X348510D01*
X341470Y169330D02*
Y175870D01*
Y182410D01*
X267970Y251840D02*
Y257530D01*
X261280D02*
X267970D01*
X227240Y361315D02*
X239780D01*
Y373855D01*
Y361315D02*
X252320D01*
X306070Y273019D02*
Y281591D01*
X316151D01*
X295989D02*
X306070D01*
Y290164D01*
X275590Y352170D02*
Y357860D01*
X268900D02*
X275590D01*
X325120Y353726D02*
Y362299D01*
X315039D02*
X325120D01*
Y370871D01*
Y362299D02*
X335201D01*
X501650Y63790D02*
Y74830D01*
X490610D02*
X501650D01*
Y85870D01*
Y74830D02*
X512690D01*
X354409Y175609D02*
X364490D01*
Y167036D02*
Y175609D01*
Y184181D01*
X485775Y191770D02*
X496888D01*
X508000D01*
X602620Y130810D02*
X615160D01*
Y113270D02*
Y130810D01*
Y148350D01*
Y130810D02*
X627700D01*
X557940Y154940D02*
X564230D01*
Y147900D02*
Y154940D01*
Y161980D01*
X359410Y202520D02*
Y215010D01*
X373600D01*
X345220D02*
X359410D01*
Y227500D01*
X496888Y191770D02*
Y205232D01*
X589280Y214280D02*
X596320D01*
X582240D02*
X589280D01*
Y220570D01*
X614410Y210270D02*
Y217310D01*
Y224350D01*
X604620Y217310D02*
X614410D01*
X472440Y252980D02*
Y265520D01*
Y252980D02*
X484980D01*
X472440Y240440D02*
Y252980D01*
X600000Y377460D02*
Y400000D01*
X669870Y253650D02*
X676910D01*
Y259940D01*
Y253650D02*
X683950D01*
X239780Y485140D02*
Y497680D01*
X227240Y485140D02*
X239780D01*
X252320D01*
X276860Y472820D02*
Y478510D01*
X270170D02*
X276860D01*
Y484200D01*
Y478510D02*
X283550D01*
X292570Y512920D02*
X299110D01*
Y519960D01*
Y505880D02*
Y512920D01*
X305650D01*
X30000Y770000D02*
X52540D01*
X30000Y747460D02*
Y770000D01*
X298101Y524589D02*
Y534670D01*
X306674D01*
X289529D02*
X298101D01*
Y544751D01*
X369410Y639230D02*
Y645770D01*
X362370D02*
X369410D01*
Y652310D01*
Y645770D02*
X376450D01*
X382349Y659479D02*
X392430D01*
Y650906D02*
Y659479D01*
Y668051D01*
Y659479D02*
X402511D01*
X386470Y754380D02*
X397510D01*
Y743340D02*
Y754380D01*
Y765420D01*
X540640Y530640D02*
Y544830D01*
X528150D02*
X540640D01*
X553130D01*
X540640D02*
Y559020D01*
X577460Y400000D02*
X600000D01*
X622540D01*
X600000D02*
Y422540D01*
X653795Y525780D02*
X662367D01*
Y515699D02*
Y525780D01*
X670940D01*
X662019Y553720D02*
X670591D01*
X653446D02*
X662019D01*
Y563801D01*
X476250Y607450D02*
Y618490D01*
X487290D01*
X465210D02*
X476250D01*
Y629530D01*
X397510Y754380D02*
X408550D01*
X448310Y743340D02*
Y754380D01*
X437270D02*
X448310D01*
X459350D01*
X516890Y743340D02*
Y754380D01*
X527930D01*
X505850D02*
X516890D01*
X539750Y607450D02*
Y618490D01*
X550790D01*
X528710D02*
X539750D01*
Y629530D01*
X567690Y743340D02*
Y754380D01*
X655200Y645200D02*
Y664240D01*
Y645200D02*
X661240D01*
X655200Y626160D02*
Y645200D01*
X649160D02*
X655200D01*
X567690Y754380D02*
X578730D01*
X556650D02*
X567690D01*
X657400Y746160D02*
Y757850D01*
X665640D01*
X649160D02*
X657400D01*
X773430Y35950D02*
Y46990D01*
X762390D02*
X773430D01*
Y58030D01*
Y46990D02*
X784470D01*
X688980Y167640D02*
X701520D01*
X714060D01*
X701520Y150100D02*
Y167640D01*
Y185180D01*
X919630Y35250D02*
Y46990D01*
X907890D02*
X919630D01*
X970430Y35250D02*
Y46990D01*
X919630D02*
X931370D01*
X958690D02*
X970430D01*
X919630D02*
Y58730D01*
X970430Y46990D02*
Y58730D01*
X922020Y174380D02*
Y185420D01*
X910980D02*
X922020D01*
X933060D01*
X686440Y254140D02*
X697730D01*
Y247100D02*
Y254140D01*
X709020D01*
X697730D02*
Y261180D01*
X969010Y261589D02*
Y270161D01*
X979091D01*
X958929D02*
X969010D01*
Y278734D01*
X970430Y46990D02*
X982170D01*
X985520Y185420D02*
X996560D01*
X974480D02*
X985520D01*
Y196460D01*
X1122830Y35250D02*
Y46990D01*
X1111090D02*
X1122830D01*
Y58730D01*
Y46990D02*
X1134570D01*
X1147460Y30000D02*
X1170000D01*
Y52540D01*
X1120140Y170744D02*
Y176784D01*
X1114100D02*
X1120140D01*
Y182824D01*
Y176784D02*
X1126180D01*
X1142954Y167784D02*
Y179324D01*
X1152494D01*
X1133414D02*
X1142954D01*
X1123400Y190422D02*
Y200712D01*
X1114360D02*
X1123400D01*
Y211002D01*
Y200712D02*
X1132440D01*
X1142954Y179324D02*
Y190864D01*
X985599Y270161D02*
X995680D01*
Y278734D01*
Y261589D02*
Y270161D01*
X1022350Y261589D02*
Y270161D01*
X995680D02*
X1005761D01*
X1012269D02*
X1022350D01*
Y278734D01*
Y270161D02*
X1032431D01*
X1123400Y269922D02*
Y280212D01*
X1114360D02*
X1123400D01*
X1132440D01*
X1123400D02*
Y290502D01*
X1112600Y302460D02*
Y315000D01*
Y327540D01*
Y315000D02*
X1119640D01*
X924960Y457150D02*
X937500D01*
Y464190D01*
Y457150D02*
X950040D01*
X962739Y529939D02*
X972820D01*
Y521366D02*
Y529939D01*
Y538511D01*
X961200Y570350D02*
X967740D01*
X974280D01*
X967740Y563810D02*
Y570350D01*
X751200Y758000D02*
Y766040D01*
Y749960D02*
Y758000D01*
X784000Y753000D02*
X790840D01*
X843430Y753110D02*
Y764850D01*
Y753110D02*
X855170D01*
X843430Y741370D02*
Y753110D01*
X831690D02*
X843430D01*
X1010060Y391650D02*
X1019250D01*
X1010060Y428350D02*
X1019250D01*
X1010060Y410000D02*
X1019250D01*
Y428350D02*
Y437540D01*
Y382460D02*
Y391650D01*
X1037600Y382460D02*
Y391650D01*
Y428350D02*
Y437540D01*
X972820Y529939D02*
X982901D01*
X1010999D02*
X1021080D01*
Y538511D01*
Y521366D02*
Y529939D01*
X1055950Y382460D02*
Y391650D01*
X1065140D01*
X1055950Y428350D02*
X1065140D01*
X1055950D02*
Y437540D01*
Y410000D02*
X1065140D01*
X1112600Y472460D02*
Y485000D01*
X1119640D01*
X1112170Y505460D02*
Y512500D01*
Y505460D02*
X1118460D01*
X1123400Y523240D02*
X1132440D01*
X1114360D02*
X1123400D01*
Y512950D02*
Y523240D01*
Y533530D01*
X1139444Y497896D02*
Y503936D01*
X1133404D02*
X1139444D01*
Y509976D01*
Y503936D02*
X1145484D01*
X1031589Y633809D02*
Y643890D01*
X1040161D01*
X1031589D02*
Y653971D01*
X1023016Y643890D02*
X1031589D01*
X1123400Y592450D02*
Y602740D01*
X1132440D01*
X1114360D02*
X1123400D01*
Y613030D01*
X1139698Y654360D02*
Y660400D01*
Y666440D01*
Y660400D02*
X1145738D01*
X1133658D02*
X1139698D01*
X1164240Y624840D02*
X1173780D01*
X1183320D01*
X1173780D02*
Y636380D01*
X1170000Y747460D02*
Y770000D01*
X1147460D02*
X1170000D01*
X301760Y425450D02*
X316361D01*
X317849Y426938D02*
Y467011D01*
X316361Y425450D02*
X317849Y426938D01*
X292710Y416900D02*
X295440Y419630D01*
X295940D01*
X292710Y416400D02*
Y416900D01*
X295940Y419630D02*
X301760Y425450D01*
X276440Y419130D02*
Y420060D01*
X273710Y416400D02*
X276440Y419130D01*
X296831Y440451D02*
Y441960D01*
X276440Y420060D02*
X296831Y440451D01*
X302371Y469787D02*
Y477263D01*
X301214Y468630D02*
X302371Y469787D01*
Y477263D02*
X308610Y483502D01*
X260350Y459740D02*
X263906Y456184D01*
X239780Y459740D02*
X260350D01*
X263932Y456210D02*
X276860D01*
X263906Y456184D02*
X263932Y456210D01*
X784800Y645200D02*
X787030Y642970D01*
Y638302D02*
Y642970D01*
X790622Y638302D02*
X792734Y636190D01*
X787030Y638302D02*
X790622D01*
X792734Y625820D02*
Y636190D01*
X672780Y624332D02*
X791246D01*
X792734Y625820D01*
X667142Y629970D02*
X672780Y624332D01*
X657430Y629970D02*
X667142D01*
X655200Y632200D02*
X657430Y629970D01*
X655200Y632200D02*
Y645200D01*
X657400Y753200D02*
X658600D01*
X656200D02*
X657400D01*
Y757850D01*
Y719688D02*
Y753200D01*
X655200Y645200D02*
Y658200D01*
X662510Y665510D01*
Y714578D01*
X657400Y719688D02*
X662510Y714578D01*
X668990Y742810D02*
X741540D01*
X749300Y750570D01*
Y754100D01*
X751200Y756000D01*
X753110Y750316D02*
X760616Y742810D01*
X753110Y750316D02*
Y754090D01*
X760616Y742810D02*
X775090D01*
X751200Y756000D02*
X753110Y754090D01*
X775090Y742810D02*
X784000Y751720D01*
Y753000D01*
X658600Y753200D02*
X668990Y742810D01*
X687598Y747890D02*
X727570D01*
X751200Y756000D02*
Y758000D01*
X727570Y747890D02*
X729200Y749520D01*
X660678Y774810D02*
X687598Y747890D01*
X813054Y786384D02*
X822960Y776478D01*
Y562610D02*
Y776478D01*
X660997Y782231D02*
X669590Y773638D01*
X697276D01*
X656336Y782828D02*
X656933Y782231D01*
X660997D01*
X613520Y774810D02*
X660678D01*
X593090Y754380D02*
X613520Y774810D01*
X705612Y759588D02*
X707200Y758000D01*
X705612Y759588D02*
Y765302D01*
X697276Y773638D02*
X705612Y765302D01*
X805641Y781050D02*
X817880Y768811D01*
X801433Y770890D02*
X807720Y764603D01*
X803537Y775970D02*
X812800Y766707D01*
X736600Y781050D02*
X805641D01*
X817880Y557352D02*
Y768811D01*
X753364Y775970D02*
X803537D01*
X771398Y770890D02*
X801433D01*
X812800Y552272D02*
Y766707D01*
X807720Y547370D02*
Y764603D01*
X719582Y764032D02*
X736600Y781050D01*
X741680Y759480D02*
Y764286D01*
X719582Y759382D02*
Y764032D01*
X741680Y764286D02*
X753364Y775970D01*
X740200Y758000D02*
X741680Y759480D01*
X718200Y758000D02*
X719582Y759382D01*
X764430Y763922D02*
X771398Y770890D01*
X762200Y758000D02*
X764430Y760230D01*
Y763922D01*
X729200Y749520D02*
Y758000D01*
X567690Y495300D02*
X663019D01*
X699770Y532051D01*
X785375D01*
X1031589Y643890D02*
Y645399D01*
X1021746Y655241D02*
X1031589Y645399D01*
X986693Y655241D02*
X1021746D01*
X981790Y650338D02*
X986693Y655241D01*
X981790Y584400D02*
Y650338D01*
X967740Y570350D02*
X981790Y584400D01*
X1019571Y529939D02*
X1021080D01*
X1010269Y520636D02*
X1019571Y529939D01*
X983631Y520636D02*
X1010269D01*
X974329Y529939D02*
X983631Y520636D01*
X972820Y529939D02*
X974329D01*
X998220Y467360D02*
Y484920D01*
X907420Y453390D02*
X939030Y485000D01*
X879153Y453390D02*
X907420D01*
X939030Y485000D02*
X947500D01*
X790332Y542211D02*
X879153Y453390D01*
X270562Y346710D02*
X277128D01*
X288290Y335548D01*
Y330200D02*
Y335548D01*
X257685Y359588D02*
X273862D01*
X257685D02*
X270562Y346710D01*
X241507Y359588D02*
X257685D01*
X295910Y322580D02*
X336471D01*
X288290Y330200D02*
X295910Y322580D01*
X957002Y335280D02*
X1009432D01*
X1020470Y318230D02*
Y331426D01*
X1010920Y315080D02*
Y333792D01*
X1011536Y340360D02*
X1020470Y331426D01*
X1009432Y335280D02*
X1010920Y333792D01*
X954898Y340360D02*
X1011536D01*
X949078Y334540D02*
X954898Y340360D01*
X951182Y329460D02*
X957002Y335280D01*
X939968Y334540D02*
X949078D01*
X942072Y329460D02*
X951182D01*
X929278Y323850D02*
X939968Y334540D01*
X939190Y326578D02*
X942072Y329460D01*
X822960Y562610D02*
X867321Y518249D01*
X812800Y552272D02*
X867143Y497929D01*
X867232Y508000D02*
X867410D01*
X817880Y557352D02*
X867232Y508000D01*
X867143Y497929D02*
X867499D01*
X807720Y547370D02*
X867410Y487680D01*
X831326Y479314D02*
Y486100D01*
Y479314D02*
X831850Y478790D01*
X785375Y532051D02*
X831326Y486100D01*
X876930Y447680D02*
X934270D01*
X787479Y537131D02*
X876930Y447680D01*
X651192Y537131D02*
X787479D01*
X651002Y542211D02*
X790332D01*
X934270Y447680D02*
X937500Y444450D01*
X641350Y527289D02*
X651192Y537131D01*
X641001Y552211D02*
X651002Y542211D01*
X652446Y514350D02*
X662367Y524271D01*
X541020Y514350D02*
X652446D01*
X370840Y527970D02*
X385160D01*
X392430Y520700D01*
X411480Y582993D02*
X414020Y585533D01*
X255687Y576997D02*
X422057Y576997D01*
X253147Y582930D02*
X411480Y582930D01*
X201077Y530860D02*
X253147Y582930D01*
X411480Y582930D02*
Y582993D01*
X414020Y585533D02*
Y586740D01*
X422057Y576997D02*
X422910Y577850D01*
X203200Y524510D02*
X255687Y576997D01*
X998220Y484920D02*
X998300Y485000D01*
X997189Y291179D02*
X1007770Y301760D01*
X995680Y291179D02*
X997189D01*
X1007770Y311770D02*
X1011000Y315000D01*
X1007770Y301760D02*
Y311770D01*
X915670Y323850D02*
X929278D01*
X900020D02*
X915670D01*
X1022350Y291179D02*
X1023700Y292528D01*
Y315000D01*
X1020470Y318230D02*
X1023700Y315000D01*
X915670Y304800D02*
X921698D01*
X900020D02*
X915670D01*
X921698D02*
X939190Y322292D01*
Y326578D01*
X1010920Y315080D02*
X1011000Y315000D01*
X960120Y315080D02*
Y317500D01*
X573623Y575727D02*
X591820Y557530D01*
Y537580D02*
Y557530D01*
X601120Y553720D02*
Y556220D01*
X540195Y591820D02*
X540845Y592470D01*
X572180Y585160D02*
X601120Y556220D01*
X540845Y592470D02*
X624777D01*
X571083Y575727D02*
X573623D01*
X624777Y592470D02*
X662019Y555229D01*
X563880Y585160D02*
X572180D01*
X591820Y537580D02*
X601120Y528280D01*
X570230Y576580D02*
X571083Y575727D01*
X273710Y416400D02*
Y416900D01*
X306419Y219949D02*
Y235371D01*
X960120Y315080D02*
X960200Y315000D01*
X27940Y524510D02*
X203200D01*
X26670Y530860D02*
X201077D01*
X13970Y467907D02*
Y510540D01*
X13890Y467827D02*
X13970Y467907D01*
Y510540D02*
X27940Y524510D01*
X8890Y470011D02*
Y513080D01*
X26670Y530860D01*
X8810Y469931D02*
X8890Y470011D01*
X15378Y354965D02*
X116840D01*
X8810Y232628D02*
X10298Y231140D01*
X13890Y356453D02*
Y467827D01*
Y356453D02*
X15378Y354965D01*
X10298Y231140D02*
X116840D01*
X8810Y232628D02*
Y469931D01*
X662019Y553720D02*
Y555229D01*
X662367Y524271D02*
Y525780D01*
X641001Y552211D02*
Y553720D01*
X641350Y525780D02*
Y527289D01*
X620620Y525780D02*
X641350D01*
X620620Y553720D02*
X641001D01*
X601120Y525780D02*
Y528280D01*
X299110Y512920D02*
Y533661D01*
X277860Y478510D02*
X299110Y499760D01*
Y512920D01*
X276860Y478510D02*
X277860D01*
X251135D02*
X276860D01*
X299720Y340041D02*
X300961Y341281D01*
X325120D01*
X239780Y297760D02*
Y310515D01*
Y297760D02*
X257531Y280009D01*
X258179D01*
X275930Y262258D01*
Y230502D02*
Y262258D01*
X275559Y230131D02*
X275930Y230502D01*
X275559Y222469D02*
Y230131D01*
X239780Y186690D02*
X275559Y222469D01*
X239780Y361315D02*
X241507Y359588D01*
X367200Y530860D02*
X370090Y527970D01*
X342900Y530860D02*
X367200D01*
X370090Y527970D02*
X370840D01*
X336471Y322580D02*
Y352456D01*
Y310484D02*
Y322580D01*
X239780Y310515D02*
X246446Y303850D01*
X279400D01*
X239958Y335737D02*
X275413D01*
X307579Y281591D02*
X336471Y310484D01*
X239780Y335915D02*
X239958Y335737D01*
X244505Y485140D02*
X251135Y478510D01*
X239780Y485140D02*
X244505D01*
X408702Y157830D02*
X410210Y156322D01*
X386080Y157830D02*
X408702D01*
X385330D02*
X386080D01*
X364490Y154591D02*
X382091D01*
X385330Y157830D01*
X307171Y180169D02*
Y189287D01*
X320970Y166370D02*
X321470D01*
X303418Y193040D02*
X307171Y189287D01*
Y180169D02*
X320970Y166370D01*
X301910Y191532D02*
X303418Y193040D01*
X301910Y166370D02*
Y191532D01*
X285401Y196041D02*
Y218440D01*
Y196041D02*
X288402Y193040D01*
X289910Y166370D02*
Y191532D01*
X288402Y193040D02*
X289910Y191532D01*
X285401Y218440D02*
X286410Y219449D01*
Y236380D01*
X305410D02*
X306419Y235371D01*
X283880Y268910D02*
Y275870D01*
Y268910D02*
X295910Y256880D01*
Y256380D02*
Y256880D01*
X279400Y280350D02*
X283880Y275870D01*
X280641Y302609D02*
X306070D01*
X279400Y303850D02*
X280641Y302609D01*
X273862Y359588D02*
X275590Y357860D01*
X275413Y335737D02*
X275590Y335560D01*
X239780Y237490D02*
X259820Y257530D01*
X267970D01*
X266970Y235230D02*
X267970D01*
X243830Y212090D02*
X266970Y235230D01*
X239780Y212090D02*
X243830D01*
X326629Y362299D02*
X336471Y352456D01*
X325120Y362299D02*
X326629D01*
X299720Y363540D02*
Y379390D01*
X283210Y395900D02*
Y396400D01*
Y395900D02*
X299720Y379390D01*
X316230Y468630D02*
X317849Y467011D01*
X316230Y468630D02*
X316580Y468980D01*
X339090D01*
X308610Y483502D02*
Y492920D01*
X326400D02*
X338340Y480980D01*
X308610Y492920D02*
X326400D01*
X338340Y480980D02*
X339090D01*
X298101Y534670D02*
X299110Y533661D01*
X339976Y512920D02*
X342900Y515844D01*
X318110Y512920D02*
X339976D01*
X332682Y519598D02*
X339147D01*
X342900Y515844D01*
X319119Y533161D02*
X332682Y519598D01*
X319119Y533161D02*
Y534670D01*
X343026Y515970D02*
X370840D01*
X342900Y515844D02*
X343026Y515970D01*
D15*
X1123400Y523240D02*
D03*
Y602740D02*
D03*
X1168400Y523240D02*
D03*
Y602740D02*
D03*
X1123400Y200712D02*
D03*
Y280212D02*
D03*
X1168400Y200712D02*
D03*
Y280212D02*
D03*
D16*
X341470Y156870D02*
D03*
Y175870D02*
D03*
X321470Y166370D02*
D03*
X369410Y645770D02*
D03*
X349410Y636270D02*
D03*
X369410Y626770D02*
D03*
D17*
X1142954Y179324D02*
D03*
X1168954D02*
D03*
X1147780Y624840D02*
D03*
X1173780D02*
D03*
D18*
X1125633Y154432D02*
D03*
X1146651D02*
D03*
X319119Y534670D02*
D03*
X298101D02*
D03*
X1010571Y643890D02*
D03*
X1031589D02*
D03*
X641350Y525780D02*
D03*
X662367D02*
D03*
X641001Y553720D02*
D03*
X662019D02*
D03*
X317849Y441960D02*
D03*
X296831D02*
D03*
X306419Y218440D02*
D03*
X285401D02*
D03*
D19*
X773200Y758000D02*
D03*
X762200D02*
D03*
X740200D02*
D03*
X729200D02*
D03*
X718200D02*
D03*
X707200D02*
D03*
X696200D02*
D03*
X751200D02*
D03*
D20*
X720950Y632600D02*
D03*
D21*
X678300Y633350D02*
D03*
D22*
X657400Y757850D02*
D03*
D23*
X655200Y645200D02*
D03*
X784800D02*
D03*
D24*
X784000Y753000D02*
D03*
D25*
X370840Y515970D02*
D03*
Y527970D02*
D03*
X339090Y480980D02*
D03*
Y468980D02*
D03*
X386080Y157830D02*
D03*
Y169830D02*
D03*
X676910Y253650D02*
D03*
Y241650D02*
D03*
X589280Y214280D02*
D03*
Y202280D02*
D03*
D26*
X342900Y515844D02*
D03*
Y530860D02*
D03*
X941070Y630032D02*
D03*
Y645048D02*
D03*
X410210Y156322D02*
D03*
Y171338D02*
D03*
D27*
X275590Y357860D02*
D03*
Y335560D02*
D03*
X568960Y181890D02*
D03*
Y204190D02*
D03*
X276860Y456210D02*
D03*
Y478510D02*
D03*
X267970Y235230D02*
D03*
Y257530D02*
D03*
D28*
X1021080Y508921D02*
D03*
Y529939D02*
D03*
X392430Y659479D02*
D03*
Y638461D02*
D03*
X972820Y529939D02*
D03*
Y508921D02*
D03*
X1075690Y270161D02*
D03*
Y291179D02*
D03*
X1049020Y270161D02*
D03*
Y291179D02*
D03*
X1022350D02*
D03*
Y270161D02*
D03*
X995680Y291179D02*
D03*
Y270161D02*
D03*
X969010Y291179D02*
D03*
Y270161D02*
D03*
X1098550Y550259D02*
D03*
Y529241D02*
D03*
X364490Y154591D02*
D03*
Y175609D02*
D03*
X325120Y341281D02*
D03*
Y362299D02*
D03*
X306070Y302609D02*
D03*
Y281591D02*
D03*
D29*
X458153Y191770D02*
D03*
X496888D02*
D03*
D30*
X631470Y243066D02*
D03*
X653770D02*
D03*
D31*
X399938Y613410D02*
D03*
X384922D02*
D03*
X303418Y193040D02*
D03*
X288402D02*
D03*
X301214Y468630D02*
D03*
X316230D02*
D03*
D32*
X480440Y544830D02*
D03*
X540640D02*
D03*
D33*
X992730Y643890D02*
D03*
X973230D02*
D03*
X880520Y342900D02*
D03*
X900020D02*
D03*
X880520Y304800D02*
D03*
X900020D02*
D03*
X880520Y323850D02*
D03*
X900020D02*
D03*
X620620Y525780D02*
D03*
X601120D02*
D03*
X620620Y553720D02*
D03*
X601120D02*
D03*
D34*
X995680Y529478D02*
D03*
Y510461D02*
D03*
D35*
X697730Y254140D02*
D03*
Y231140D02*
D03*
Y208140D02*
D03*
D36*
X760230Y231140D02*
D03*
D37*
X1100170Y505460D02*
D03*
X1112170D02*
D03*
X576230Y154940D02*
D03*
X564230D02*
D03*
X301910Y166370D02*
D03*
X289910D02*
D03*
D38*
X1098550Y272190D02*
D03*
Y291690D02*
D03*
X887730Y154530D02*
D03*
Y135030D02*
D03*
X862330Y154530D02*
D03*
Y135030D02*
D03*
X836930Y154530D02*
D03*
Y135030D02*
D03*
D39*
X1112600Y485000D02*
D03*
X1099900D02*
D03*
X1087200D02*
D03*
X1074500D02*
D03*
X1061800D02*
D03*
X1049100D02*
D03*
X1036400D02*
D03*
X1023700D02*
D03*
X1011000D02*
D03*
X998300D02*
D03*
X985600D02*
D03*
X972900D02*
D03*
X960200D02*
D03*
X947500D02*
D03*
Y315000D02*
D03*
X960200D02*
D03*
X972900D02*
D03*
X985600D02*
D03*
X998300D02*
D03*
X1011000D02*
D03*
X1023700D02*
D03*
X1036400D02*
D03*
X1049100D02*
D03*
X1061800D02*
D03*
X1074500D02*
D03*
X1087200D02*
D03*
X1099900D02*
D03*
X1112600D02*
D03*
D40*
X937500Y457150D02*
D03*
Y444450D02*
D03*
Y431750D02*
D03*
Y419050D02*
D03*
Y406350D02*
D03*
Y393650D02*
D03*
Y380950D02*
D03*
Y368250D02*
D03*
Y355550D02*
D03*
Y342850D02*
D03*
D41*
X1055950Y428350D02*
D03*
Y410000D02*
D03*
Y391650D02*
D03*
X1037600Y428350D02*
D03*
Y410000D02*
D03*
Y391650D02*
D03*
X1019250Y428350D02*
D03*
Y410000D02*
D03*
Y391650D02*
D03*
D42*
X283210Y396400D02*
D03*
X292710Y416400D02*
D03*
X273710D02*
D03*
X286410Y236380D02*
D03*
X305410D02*
D03*
X295910Y256380D02*
D03*
D43*
X318110Y512920D02*
D03*
X308610Y492920D02*
D03*
X299110Y512920D02*
D03*
D44*
X675910Y194310D02*
D03*
D45*
X614410D02*
D03*
Y171310D02*
D03*
Y217310D02*
D03*
D46*
X675160Y130810D02*
D03*
X615160D02*
D03*
X761520Y167640D02*
D03*
X701520D02*
D03*
D47*
X299720Y363540D02*
D03*
Y340041D02*
D03*
X279400Y280350D02*
D03*
Y303850D02*
D03*
D48*
X359410Y215010D02*
D03*
Y275210D02*
D03*
D49*
X401701Y219710D02*
D03*
X418719D02*
D03*
D50*
X967740Y570350D02*
D03*
Y585350D02*
D03*
D65*
X140000Y585000D02*
D03*
D66*
Y735000D02*
D03*
Y698000D02*
D03*
D67*
X1122830Y753110D02*
D03*
X1097430D02*
D03*
X1072030D02*
D03*
X1046630D02*
D03*
X1021230D02*
D03*
X995830D02*
D03*
X970430D02*
D03*
X945030D02*
D03*
X919630D02*
D03*
X894230D02*
D03*
X868830D02*
D03*
X945030Y46990D02*
D03*
X843430D02*
D03*
X868830D02*
D03*
X894230D02*
D03*
X995830D02*
D03*
X1021230D02*
D03*
X1046630D02*
D03*
X1072030D02*
D03*
X1097430D02*
D03*
X970430D02*
D03*
X919630D02*
D03*
D68*
X843430Y753110D02*
D03*
X1122830Y46990D02*
D03*
D69*
X400020Y63500D02*
D03*
D70*
X174020D02*
D03*
D73*
X309830Y661670D02*
D03*
D74*
Y636270D02*
D03*
Y610870D02*
D03*
D75*
X450000Y361900D02*
D03*
X750000D02*
D03*
D76*
X450000Y438100D02*
D03*
X750000D02*
D03*
D80*
X239780Y434340D02*
D03*
Y310515D02*
D03*
Y186690D02*
D03*
D81*
Y459740D02*
D03*
Y485140D02*
D03*
Y335915D02*
D03*
Y361315D02*
D03*
Y212090D02*
D03*
Y237490D02*
D03*
X447040Y252980D02*
D03*
X472440D02*
D03*
X990600Y572770D02*
D03*
X414020Y544830D02*
D03*
D82*
X421640Y252980D02*
D03*
D87*
X38615Y8556D02*
X40944Y9621D01*
X43144Y10932D01*
X45188Y12474D01*
X47053Y14229D01*
X48716Y16176D01*
X50158Y18292D01*
X51362Y20552D01*
X52313Y22930D01*
X53001Y25396D01*
X53417Y27923D01*
X53556Y30480D01*
Y30480D02*
X53417Y33033D01*
X53003Y35556D01*
X52317Y38019D01*
X51368Y40394D01*
X50168Y42651D01*
X48730Y44765D01*
X47071Y46711D01*
X45212Y48466D01*
X43173Y50009D01*
X40979Y51321D01*
X38655Y52388D01*
X36230Y53197D01*
X33731Y53739D01*
X31188Y54006D01*
X28631Y53996D01*
X26090Y53709D01*
X23596Y53149D01*
X21177Y52321D01*
X18861Y51236D01*
X16677Y49907D01*
X14650Y48348D01*
X12804Y46579D01*
X11161Y44621D01*
X9739Y42496D01*
X8556Y40229D01*
X104784Y203644D02*
X103246Y201584D01*
X102056Y199304D01*
X101246Y196864D01*
X100836Y194326D01*
Y191754D01*
X101246Y189216D01*
X102056Y186776D01*
X103246Y184496D01*
X104784Y182436D01*
X105487Y181687D01*
X158264Y66589D02*
X157973Y64050D01*
X158090Y61496D01*
X158609Y58994D01*
X159520Y56605D01*
X160798Y54392D01*
X162410Y52409D01*
X164318Y50707D01*
X166471Y49330D01*
X168815Y48311D01*
X171291Y47678D01*
X173837Y47445D01*
X176387Y47619D01*
X178877Y48196D01*
X181244Y49161D01*
X183428Y50489D01*
X185373Y52147D01*
X185673Y52447D02*
X187310Y54363D01*
X188626Y56511D01*
X189590Y58838D01*
X190178Y61288D01*
X190376Y63800D01*
X185673Y52447D02*
X187310Y54363D01*
X188626Y56511D01*
X189590Y58838D01*
X190178Y61288D01*
X190376Y63800D01*
X128193Y204393D02*
X127444Y205096D01*
X106236D02*
X104784Y203644D01*
X127444Y205096D02*
X125384Y206634D01*
X123104Y207824D01*
X120664Y208634D01*
X118126Y209044D01*
X115554D01*
X113016Y208634D01*
X110576Y207824D01*
X108296Y206634D01*
X106236Y205096D01*
X8556Y226639D02*
X10298Y226314D01*
X8556Y226639D02*
X10298Y226314D01*
X105792D02*
X107041Y224117D01*
X108720Y222229D01*
X110756Y220732D01*
X113059Y219692D01*
X115528Y219156D01*
X118055Y219145D01*
X120528Y219662D01*
X122840Y220683D01*
X124888Y222163D01*
X126582Y224038D01*
X127848Y226224D01*
X128631Y228627D01*
X128896Y231140D01*
Y231140D02*
X128631Y233653D01*
X127848Y236056D01*
X126582Y238242D01*
X124888Y240117D01*
X122840Y241597D01*
X120528Y242618D01*
X118055Y243135D01*
X115528Y243124D01*
X113059Y242588D01*
X110756Y241548D01*
X108720Y240051D01*
X107041Y238163D01*
X105792Y235966D01*
X235039Y224790D02*
X232730Y223668D01*
X230673Y222131D01*
X228943Y220234D01*
X227602Y218044D01*
X226697Y215641D01*
X226262Y213111D01*
X226313Y210544D01*
X226846Y208032D01*
X227843Y205666D01*
X229268Y203530D01*
X231071Y201702D01*
X233186Y200246D01*
X244521Y224790D02*
X246975Y226001D01*
X249137Y227681D01*
X250916Y229760D01*
X252242Y232155D01*
X253060Y234767D01*
X253336Y237490D01*
Y237490D02*
X253094Y240042D01*
X252376Y242502D01*
X251207Y244783D01*
X249630Y246803D01*
X247701Y248491D01*
X245489Y249785D01*
X243072Y250640D01*
X240538Y251025D01*
X237977Y250926D01*
X235481Y250346D01*
X233138Y249307D01*
X231032Y247846D01*
X229239Y246014D01*
X227823Y243878D01*
X226835Y241513D01*
X226309Y239004D01*
X226265Y236442D01*
X226703Y233917D01*
X227610Y231519D01*
X228951Y229335D01*
X230680Y227443D01*
X232733Y225909D01*
X235039Y224790D01*
X247877Y222962D02*
X246264Y223995D01*
X244521Y224790D01*
X316007Y217674D02*
X318022Y219144D01*
X316007Y217674D02*
X318022Y219144D01*
X329547Y230667D02*
X331293Y233281D01*
X331906Y236364D01*
X329547Y230667D02*
X331293Y233281D01*
X331906Y236364D01*
Y238760D02*
X331542Y241154D01*
X330484Y243331D01*
X328826Y245096D01*
X326719Y246288D01*
X324353Y246800D01*
X321941Y246587D01*
X319702Y245666D01*
X317837Y244122D01*
X316516Y242093D01*
X315857Y239764D01*
X104784Y306261D02*
X105487Y305512D01*
X104784Y327469D02*
X103246Y325409D01*
X102056Y323129D01*
X101246Y320689D01*
X100836Y318151D01*
Y315579D01*
X101246Y313041D01*
X102056Y310601D01*
X103246Y308321D01*
X104784Y306261D01*
X106236Y328921D02*
X104784Y327469D01*
X235021Y296959D02*
X236375Y294340D01*
X235021Y296959D02*
X236367Y294347D01*
X235039Y348615D02*
X232730Y347493D01*
X230673Y345956D01*
X228943Y344059D01*
X227602Y341869D01*
X226697Y339466D01*
X226262Y336936D01*
X226313Y334369D01*
X226846Y331857D01*
X227843Y329491D01*
X229268Y327355D01*
X231071Y325527D01*
X233186Y324071D01*
X246374D02*
X248295Y325367D01*
X249968Y326972D01*
X251342Y328838D01*
X252379Y330911D01*
X13636Y350464D02*
X15378Y350139D01*
X13636Y350464D02*
X15378Y350139D01*
X128193Y328218D02*
X127444Y328921D01*
X125384Y330459D01*
X123104Y331649D01*
X120664Y332459D01*
X118126Y332869D01*
X115554D01*
X113016Y332459D01*
X110576Y331649D01*
X108296Y330459D01*
X106236Y328921D01*
X128896Y354965D02*
X128631Y357478D01*
X127848Y359880D01*
X126582Y362067D01*
X124888Y363942D01*
X122840Y365422D01*
X120528Y366443D01*
X118055Y366960D01*
X115528Y366949D01*
X113059Y366413D01*
X110756Y365373D01*
X108720Y363876D01*
X107041Y361988D01*
X105792Y359791D01*
Y350139D02*
X107041Y347942D01*
X108720Y346054D01*
X110756Y344557D01*
X113059Y343517D01*
X115528Y342981D01*
X118055Y342970D01*
X120528Y343487D01*
X122840Y344508D01*
X124888Y345988D01*
X126582Y347863D01*
X127848Y350049D01*
X128631Y352452D01*
X128896Y354965D01*
X190376Y383210D02*
X190178Y385722D01*
X189590Y388172D01*
X188626Y390499D01*
X187310Y392648D01*
X185673Y394563D01*
X252514Y340564D02*
X251526Y342683D01*
X250188Y344600D01*
X248541Y346260D01*
X246633Y347611D01*
X244521Y348615D01*
X253336Y361315D02*
X253094Y363867D01*
X252376Y366327D01*
X251207Y368608D01*
X249630Y370629D01*
X247701Y372316D01*
X245489Y373610D01*
X243072Y374465D01*
X240538Y374850D01*
X237977Y374751D01*
X235481Y374171D01*
X233138Y373132D01*
X231032Y371671D01*
X229239Y369839D01*
X227823Y367703D01*
X226835Y365338D01*
X226309Y362829D01*
X226265Y360267D01*
X226703Y357742D01*
X227610Y355344D01*
X228951Y353160D01*
X230680Y351268D01*
X232733Y349734D01*
X235039Y348615D01*
X190376Y383210D02*
X190178Y385722D01*
X189590Y388172D01*
X188626Y390499D01*
X187310Y392648D01*
X185673Y394563D01*
X244521Y348615D02*
X246975Y349826D01*
X249137Y351506D01*
X250916Y353585D01*
X252242Y355980D01*
X253060Y358592D01*
X253336Y361315D01*
X254118Y276597D02*
X255894Y275469D01*
X280756Y262258D02*
X279342Y265671D01*
X280756Y262258D02*
X279335Y265678D01*
X279054Y268910D02*
X280467Y265497D01*
X279054Y268910D02*
X280475Y265490D01*
X254111Y276604D02*
X255894Y275469D01*
X261599Y283414D02*
X259816Y284549D01*
X261592Y283422D02*
X259816Y284549D01*
X279091Y351154D02*
X280943Y348132D01*
X279091Y351154D02*
X280937Y348138D01*
X304546Y379390D02*
X303132Y382803D01*
X304546Y379390D02*
X303125Y382809D01*
X426767Y14047D02*
X428683Y12410D01*
X430831Y11094D01*
X433158Y10130D01*
X435608Y9542D01*
X438120Y9344D01*
X426767Y14047D02*
X428683Y12410D01*
X430831Y11094D01*
X433158Y10130D01*
X435608Y9542D01*
X438120Y9344D01*
X384964Y69078D02*
X384216Y66333D01*
X383964Y63500D01*
X384216Y60667D01*
X384964Y57922D01*
X405598Y78556D02*
X402853Y79304D01*
X400020Y79556D01*
X397187Y79304D01*
X394442Y78556D01*
X513706Y74830D02*
X513443Y77337D01*
X512664Y79734D01*
X511404Y81916D01*
X509717Y83789D01*
X507678Y85271D01*
X505376Y86296D01*
X502910Y86820D01*
X500390D01*
X497924Y86296D01*
X495622Y85271D01*
X493583Y83789D01*
X491897Y81916D01*
X490636Y79734D01*
X489857Y77337D01*
X489594Y74830D01*
X489857Y72323D01*
X490636Y69926D01*
X491897Y67744D01*
X493583Y65871D01*
X495622Y64389D01*
X497924Y63364D01*
X500390Y62840D01*
X502910D01*
X505376Y63364D01*
X507678Y64389D01*
X509717Y65871D01*
X511404Y67744D01*
X512664Y69926D01*
X513443Y72323D01*
X513706Y74830D01*
X382091Y149765D02*
X384689Y150524D01*
X382091Y149765D02*
X384689Y150524D01*
X362615Y164180D02*
X360703Y164426D01*
X362615Y164180D02*
X360703Y164426D01*
X375416Y165641D02*
X378024Y163897D01*
X375416Y165641D02*
X378024Y163897D01*
X382340Y179394D02*
X379922Y179434D01*
X377602Y178754D01*
X375587Y177416D01*
X501034Y151784D02*
X503235Y150222D01*
X505828Y149475D01*
X508523Y149626D01*
X511016Y150659D01*
X513028Y152457D01*
X514334Y154819D01*
X514786Y157480D01*
X421023Y188613D02*
X423637Y186867D01*
X426720Y186254D01*
X421023Y188613D02*
X423637Y186867D01*
X426720Y186254D01*
X525105Y9344D02*
X527617Y9542D01*
X530067Y10130D01*
X532395Y11094D01*
X534543Y12410D01*
X536459Y14047D01*
X525105Y9344D02*
X527617Y9542D01*
X530067Y10130D01*
X532395Y11094D01*
X534543Y12410D01*
X536459Y14047D01*
X527694Y85434D02*
X526295Y83590D01*
X525175Y81565D01*
X524358Y79399D01*
X523861Y77139D01*
X523694Y74830D01*
X551103Y28691D02*
X552740Y30607D01*
X554056Y32755D01*
X555020Y35083D01*
X555608Y37533D01*
X555806Y40045D01*
X551103Y28691D02*
X552740Y30607D01*
X554056Y32755D01*
X555020Y35083D01*
X555608Y37533D01*
X555806Y40045D01*
Y74830D02*
X555639Y77139D01*
X555142Y79399D01*
X554325Y81565D01*
X553205Y83590D01*
X551806Y85434D01*
X550354Y86886D01*
X529146D02*
X527694Y85434D01*
X550354Y86886D02*
X548294Y88424D01*
X546014Y89614D01*
X543574Y90424D01*
X541036Y90835D01*
X538464D01*
X535926Y90424D01*
X533486Y89614D01*
X531206Y88424D01*
X529146Y86886D01*
X514786Y157480D02*
X514173Y160563D01*
X512426Y163176D01*
X560904Y171450D02*
X561517Y168367D01*
X563264Y165753D01*
X583536Y151546D02*
X584286Y154940D01*
X563404Y165613D02*
X565594Y164057D01*
X568174Y163307D01*
X560904Y171450D02*
X561517Y168367D01*
X563264Y165753D01*
X563404Y165613D02*
X565594Y164057D01*
X568174Y163307D01*
X561254Y184239D02*
X560904Y181890D01*
X573424Y188596D02*
X571292Y189601D01*
X568960Y189946D01*
X566628Y189601D01*
X564496Y188596D01*
Y197484D02*
X566553Y196502D01*
X568803Y196136D01*
X571065Y196414D01*
X577016Y181890D02*
X576666Y184239D01*
X577058Y196414D02*
X579610Y194792D01*
X582580Y194224D01*
X577058Y196414D02*
X579610Y194792D01*
X582580Y194224D01*
X621165Y163254D02*
X623190Y163797D01*
X624673Y165280D01*
X625216Y167305D01*
X665104Y179067D02*
X665749Y176871D01*
X667479Y175371D01*
X591554Y188613D02*
X594167Y186867D01*
X597250Y186254D01*
X591554Y188613D02*
X594167Y186867D01*
X597250Y186254D01*
X625216Y175315D02*
X624673Y177341D01*
X623190Y178823D01*
X621165Y179366D01*
X409290Y216411D02*
X409988Y218237D01*
X410225Y220177D01*
X409290Y216411D02*
X409988Y218237D01*
X410225Y220177D01*
X394113Y222414D02*
X393645Y219710D01*
X394113Y217006D01*
X411130Y222414D02*
X410663Y219710D01*
X411130Y217006D01*
X396473Y239205D02*
X394726Y236592D01*
X394113Y233509D01*
X396473Y239205D02*
X394726Y236592D01*
X394113Y233509D01*
X411130Y201844D02*
X411743Y198761D01*
X413490Y196147D01*
X411130Y201844D02*
X411743Y198761D01*
X413490Y196147D01*
X427242Y219242D02*
X427005Y221183D01*
X426307Y223009D01*
X427242Y219242D02*
X427005Y221183D01*
X426307Y223009D01*
X435196Y242140D02*
X437063Y240400D01*
X439182Y238978D01*
X441499Y237910D01*
X443957Y237223D01*
X446492Y236933D01*
X449041Y237049D01*
X451540Y237568D01*
X453925Y238475D01*
X456136Y239749D01*
X458117Y241357D01*
X459818Y243259D01*
X461197Y245406D01*
X405107Y280906D02*
X402493Y282653D01*
X399410Y283266D01*
X405107Y280906D02*
X402493Y282653D01*
X399410Y283266D01*
X485996Y252980D02*
X485741Y255597D01*
X484986Y258116D01*
X483758Y260441D01*
X482105Y262486D01*
X480088Y264173D01*
X477783Y265439D01*
X475277Y266236D01*
X472665Y266534D01*
X470044Y266323D01*
X467513Y265609D01*
X465168Y264420D01*
X463096Y262801D01*
X461197Y245406D02*
X462754Y243496D01*
X464632Y241899D01*
X466767Y240668D01*
X469090Y239845D01*
X471523Y239455D01*
X473987Y239513D01*
X476400Y240015D01*
X478681Y240946D01*
X480757Y242275D01*
X482558Y243958D01*
X484024Y245939D01*
X485107Y248153D01*
X485772Y250526D01*
X485996Y252980D01*
X433944Y368229D02*
X432672Y366107D01*
X431742Y363815D01*
X431175Y361407D01*
X430984Y358940D01*
X433944Y368229D02*
X432672Y366107D01*
X431742Y363815D01*
X431175Y361407D01*
X430984Y358940D01*
X561254Y206539D02*
X560904Y204190D01*
X561254Y201841D01*
X569240Y212526D02*
X566678Y212108D01*
X564381Y210896D01*
X569240Y212526D02*
X566678Y212108D01*
X564381Y210896D01*
X581224Y212483D02*
X580390Y212526D01*
X581224Y212483D02*
X580390Y212526D01*
X603604Y213305D02*
X604147Y211280D01*
X605630Y209797D01*
X607655Y209254D01*
X621165D02*
X623414Y209936D01*
X607655Y225366D02*
X605630Y224823D01*
X604147Y223340D01*
X603604Y221315D01*
X623414Y224684D02*
X621165Y225366D01*
X669167Y213616D02*
X667136Y213072D01*
X665648Y211584D01*
X665104Y209552D01*
X624764Y247530D02*
X623759Y245398D01*
X623414Y243066D01*
X639526D02*
X639181Y245398D01*
X638176Y247530D01*
X649878Y235360D02*
X652401Y233792D01*
X655320Y233244D01*
X649878Y235360D02*
X652401Y233792D01*
X655320Y233244D01*
X647064Y247530D02*
X646059Y245398D01*
X645714Y243066D01*
X646059Y240734D01*
X647064Y238602D01*
X623556Y400000D02*
X623418Y402547D01*
X623005Y405064D01*
X622323Y407522D01*
X621379Y409891D01*
X620184Y412145D01*
X618753Y414256D01*
X617101Y416200D01*
X615250Y417954D01*
X613219Y419497D01*
X611034Y420812D01*
X608719Y421883D01*
X606302Y422698D01*
X603811Y423246D01*
X601275Y423522D01*
X598725D01*
X596189Y423246D01*
X593698Y422698D01*
X591281Y421883D01*
X588966Y420812D01*
X586781Y419497D01*
X584750Y417954D01*
X582898Y416200D01*
X581247Y414256D01*
X579816Y412145D01*
X578621Y409891D01*
X577677Y407522D01*
X576995Y405064D01*
X576582Y402547D01*
X576444Y400000D01*
X576582Y397453D01*
X576995Y394936D01*
X577677Y392479D01*
X578621Y390109D01*
X579816Y387856D01*
X581247Y385745D01*
X582898Y383801D01*
X584750Y382047D01*
X586781Y380503D01*
X588966Y379188D01*
X591281Y378117D01*
X593698Y377303D01*
X596189Y376754D01*
X598725Y376479D01*
X601275D01*
X603811Y376754D01*
X606302Y377303D01*
X608719Y378117D01*
X611034Y379188D01*
X613219Y380503D01*
X615250Y382047D01*
X617101Y383801D01*
X618753Y385745D01*
X620184Y387856D01*
X621379Y390109D01*
X622323Y392479D01*
X623005Y394936D01*
X623418Y397453D01*
X623556Y400000D01*
X656119Y250772D02*
X653770Y251122D01*
X651421Y250772D01*
X633819D02*
X631470Y251122D01*
X629121Y250772D01*
X676560Y233244D02*
X678909Y233594D01*
X676560Y233244D02*
X678909Y233594D01*
X104784Y451294D02*
X103246Y449234D01*
X102056Y446954D01*
X101246Y444514D01*
X100836Y441976D01*
Y439404D01*
X101246Y436866D01*
X102056Y434426D01*
X103246Y432146D01*
X104784Y430086D01*
X106236Y452746D02*
X104784Y451294D01*
Y430086D02*
X105487Y429337D01*
X232224Y410219D02*
X232799Y407327D01*
X234437Y404876D01*
X232224Y410219D02*
X232801Y407324D01*
X234443Y404870D01*
X235039Y472440D02*
X232730Y471318D01*
X230673Y469781D01*
X228943Y467884D01*
X227602Y465694D01*
X226697Y463291D01*
X226262Y460761D01*
X226313Y458194D01*
X226846Y455682D01*
X227843Y453316D01*
X229268Y451180D01*
X231071Y449352D01*
X233186Y447896D01*
X246374D02*
X248333Y449222D01*
X250030Y450869D01*
X251416Y452786D01*
X252448Y454914D01*
X258463Y442576D02*
X256982Y440537D01*
X256203Y438140D01*
Y435620D01*
X256982Y433223D01*
X258463Y431184D01*
X260503Y429702D01*
X262900Y428923D01*
X265420D01*
X267817Y429702D01*
X269856Y431184D01*
X269154Y450015D02*
X266117Y449386D01*
X263543Y447657D01*
X269154Y450015D02*
X266117Y449386D01*
X263543Y447657D01*
X128193Y452043D02*
X127444Y452746D01*
X125384Y454284D01*
X123104Y455474D01*
X120664Y456284D01*
X118126Y456694D01*
X115554D01*
X113016Y456284D01*
X110576Y455474D01*
X108296Y454284D01*
X106236Y452746D01*
X18716Y467032D02*
X18796Y467907D01*
X18716Y467032D02*
X18796Y467907D01*
X128896Y478790D02*
X128633Y481297D01*
X127854Y483694D01*
X126594Y485876D01*
X124907Y487749D01*
X122868Y489231D01*
X120566Y490256D01*
X118100Y490780D01*
X115580D01*
X113115Y490256D01*
X110812Y489231D01*
X108773Y487749D01*
X107086Y485876D01*
X105826Y483694D01*
X105047Y481297D01*
X104784Y478790D01*
X105047Y476283D01*
X105826Y473886D01*
X107086Y471704D01*
X108773Y469831D01*
X110812Y468349D01*
X113115Y467324D01*
X115580Y466800D01*
X118100D01*
X120566Y467324D01*
X122868Y468349D01*
X124907Y469831D01*
X126594Y471704D01*
X127854Y473886D01*
X128633Y476283D01*
X128896Y478790D01*
X263762Y463153D02*
X260350Y464566D01*
X260494Y452771D02*
X262293Y451636D01*
X264406Y451384D01*
X260486Y452779D02*
X262288Y451637D01*
X264406Y451384D01*
X263770Y463145D02*
X260350Y464566D01*
X253336Y485140D02*
X253094Y487692D01*
X252376Y490152D01*
X251207Y492433D01*
X249630Y494454D01*
X247701Y496141D01*
X245489Y497435D01*
X243072Y498290D01*
X240538Y498675D01*
X237977Y498576D01*
X235481Y497996D01*
X233138Y496957D01*
X231032Y495496D01*
X229239Y493664D01*
X227823Y491528D01*
X226835Y489163D01*
X226309Y486654D01*
X226265Y484092D01*
X226703Y481567D01*
X227610Y479169D01*
X228951Y476985D01*
X230680Y475093D01*
X232733Y473559D01*
X235039Y472440D01*
X252448Y464566D02*
X251449Y466638D01*
X250115Y468512D01*
X248483Y470134D01*
X246600Y471455D01*
X244521Y472440D01*
X246975Y473651D01*
X249137Y475331D01*
X250916Y477410D01*
X252242Y479805D01*
X253060Y482417D01*
X253336Y485140D01*
X301760Y430276D02*
X298340Y428855D01*
X301760Y430276D02*
X298347Y428862D01*
X316361Y420624D02*
X319773Y422038D01*
X316361Y420624D02*
X319780Y422045D01*
X321254Y423518D02*
X322675Y426938D01*
X321261Y423525D02*
X322675Y426938D01*
X298959Y480675D02*
X297706Y478497D01*
X298966Y480682D02*
X297706Y478497D01*
X329819Y496325D02*
X326400Y497746D01*
X329813Y496333D02*
X326400Y497746D01*
X385378Y520927D02*
X385733Y518478D01*
X386913Y516301D01*
X388772Y514666D01*
X391081Y513774D01*
X393556Y513734D01*
X395892Y514552D01*
X397803Y516126D01*
X399052Y518263D01*
X399486Y520700D01*
X26670Y535686D02*
X23250Y534265D01*
X26670Y535686D02*
X23258Y534272D01*
X129687Y572694D02*
X131711Y571249D01*
X133933Y570135D01*
X136300Y569376D01*
X138757Y568992D01*
X141243D01*
X143700Y569376D01*
X146067Y570135D01*
X148289Y571249D01*
X150313Y572694D01*
X127694Y574687D02*
X129687Y572694D01*
X150313D02*
X152306Y574687D01*
X153909Y576978D01*
X155089Y579513D01*
X155813Y582214D01*
X156056Y585000D01*
X123944D02*
X124187Y582214D01*
X124911Y579513D01*
X126091Y576978D01*
X127694Y574687D01*
X203200Y519684D02*
X206612Y521097D01*
X203200Y519684D02*
X206620Y521105D01*
X253147Y587756D02*
X249727Y586335D01*
X253147Y587756D02*
X249734Y586343D01*
X127694Y632813D02*
X126091Y630522D01*
X124911Y627987D01*
X124187Y625286D01*
X123944Y622500D01*
X129118Y634306D02*
X127694Y632813D01*
X150882Y634306D02*
X148788Y635937D01*
X146455Y637201D01*
X143945Y638064D01*
X141327Y638501D01*
X138673D01*
X136055Y638064D01*
X133545Y637201D01*
X131212Y635937D01*
X129118Y634306D01*
X8556Y760251D02*
X9739Y757984D01*
X11161Y755859D01*
X12804Y753901D01*
X14650Y752132D01*
X16677Y750573D01*
X18861Y749244D01*
X21177Y748159D01*
X23596Y747331D01*
X26090Y746771D01*
X28631Y746484D01*
X31188Y746474D01*
X33731Y746741D01*
X36230Y747283D01*
X38655Y748092D01*
X40978Y749159D01*
X43173Y750471D01*
X45212Y752014D01*
X47071Y753769D01*
X48730Y755715D01*
X50168Y757829D01*
X51368Y760086D01*
X52317Y762461D01*
X53003Y764924D01*
X53417Y767447D01*
X53556Y770000D01*
Y770000D02*
X53429Y772446D01*
X53048Y774865D01*
X52418Y777231D01*
X51547Y779520D01*
X50442Y781705D01*
X49116Y783764D01*
X47584Y785675D01*
X45861Y787416D01*
X43967Y788968D01*
X41923Y790316D01*
X39749Y791444D01*
X156056Y622500D02*
X155813Y625286D01*
X155089Y627987D01*
X153909Y630522D01*
X152306Y632813D01*
X150882Y634306D01*
X123944Y697500D02*
X124139Y695006D01*
X124719Y692572D01*
X125670Y690258D01*
X126969Y688120D01*
X128584Y686209D01*
X130477Y684573D01*
X132601Y683251D01*
X134904Y682274D01*
X137331Y681667D01*
X139823Y681445D01*
X142319Y681612D01*
X144759Y682166D01*
X147084Y683091D01*
X149236Y684366D01*
X151164Y685961D01*
X152821Y687835D01*
X154167Y689944D01*
X156056Y735000D02*
X155858Y737512D01*
X155270Y739962D01*
X154306Y742289D01*
X152990Y744437D01*
X151353Y746353D01*
X149438Y747990D01*
X147289Y749306D01*
X144962Y750270D01*
X142512Y750858D01*
X140000Y751056D01*
X137488Y750858D01*
X135038Y750270D01*
X132711Y749306D01*
X130562Y747990D01*
X128647Y746353D01*
X127010Y744437D01*
X125694Y742289D01*
X124730Y739962D01*
X124142Y737512D01*
X123944Y735000D01*
X253949Y702837D02*
X251495Y704479D01*
X248600Y705056D01*
X253943Y702843D02*
X251492Y704481D01*
X248600Y705056D01*
X308624Y620350D02*
X306173Y619699D01*
X303980Y618426D01*
Y603314D02*
X306144Y602053D01*
X308562Y601399D01*
X311067Y601394D01*
X313487Y602041D01*
X315655Y603295D01*
X317424Y605069D01*
X318670Y607242D01*
X319310Y609664D01*
X369147Y535276D02*
X367200Y535686D01*
X369147Y535276D02*
X367200Y535686D01*
X399486Y520700D02*
X398927Y523453D01*
X397338Y525769D01*
X394972Y527282D01*
X392203Y527752D01*
X388573Y531382D02*
X385160Y532796D01*
X388580Y531375D02*
X385160Y532796D01*
X375616Y610378D02*
X376343Y609739D01*
X300350Y635064D02*
X301031Y632543D01*
X302368Y630300D01*
X304262Y628503D01*
X306572Y627286D01*
X309126Y626740D01*
X311731Y626905D01*
X314195Y627769D01*
X316333Y629268D01*
X317986Y631290D01*
X319029Y633683D01*
X319386Y636270D01*
X335230Y643826D02*
X332335Y643249D01*
X329881Y641607D01*
X335230Y643826D02*
X332338Y643251D01*
X329887Y641613D01*
X319386Y636270D02*
X318990Y638992D01*
X317835Y641488D01*
X316017Y643553D01*
X313686Y645013D01*
X311036Y645750D01*
X377466Y633686D02*
X377366Y632462D01*
X377466Y633686D02*
X377366Y632462D01*
X379579Y637805D02*
X378200Y635912D01*
X377466Y633686D01*
X379585Y637811D02*
X378201Y635915D01*
X377466Y633686D01*
X466056Y438100D02*
X465858Y440612D01*
X465270Y443062D01*
X464306Y445389D01*
X462990Y447537D01*
X461353Y449453D01*
X459437Y451090D01*
X457289Y452406D01*
X454962Y453370D01*
X452512Y453958D01*
X450000Y454156D01*
X447488Y453958D01*
X445038Y453370D01*
X442711Y452406D01*
X440563Y451090D01*
X438647Y449453D01*
X437010Y447537D01*
X435694Y445389D01*
X434730Y443062D01*
X434142Y440612D01*
X433944Y438100D01*
X434142Y435588D01*
X434730Y433138D01*
X435694Y430811D01*
X437010Y428662D01*
X438647Y426747D01*
X440563Y425110D01*
X442711Y423794D01*
X445038Y422830D01*
X447488Y422242D01*
X450000Y422044D01*
X452512Y422242D01*
X454962Y422830D01*
X457289Y423794D01*
X459437Y425110D01*
X461353Y426747D01*
X462990Y428662D01*
X464306Y430811D01*
X465270Y433138D01*
X465858Y435588D01*
X466056Y438100D01*
X480440Y528774D02*
X483052Y528988D01*
X485595Y529624D01*
X414020Y560886D02*
X411508Y560688D01*
X409058Y560100D01*
X406731Y559136D01*
X404582Y557820D01*
X402667Y556183D01*
X401030Y554268D01*
X399714Y552119D01*
X398750Y549792D01*
X398162Y547342D01*
X397964Y544830D01*
X398162Y542318D01*
X398750Y539868D01*
X399714Y537541D01*
X401030Y535392D01*
X402667Y533477D01*
X404582Y531840D01*
X406731Y530524D01*
X409058Y529560D01*
X411508Y528972D01*
X414020Y528774D01*
X496496Y544830D02*
X496333Y547116D01*
X495845Y549355D01*
X495044Y551501D01*
X493946Y553512D01*
Y536148D02*
X495044Y538159D01*
X495845Y540305D01*
X496333Y542545D01*
X496496Y544830D01*
X418723Y572171D02*
X421044Y571045D01*
X423615Y570829D01*
X426091Y571552D01*
X428143Y573116D01*
X429494Y575314D01*
X429966Y577850D01*
X429471Y580447D01*
X428054Y582680D01*
X425915Y584234D01*
X423354Y584892D01*
X420731Y584561D01*
X421076Y586740D01*
X420587Y589322D01*
X419186Y591546D01*
X417069Y593103D01*
X414529Y593778D01*
X411919Y593476D01*
X409599Y592240D01*
X407894Y590241D01*
X407038Y587756D01*
X423917Y596637D02*
X425982Y595172D01*
X428414Y594472D01*
X430941Y594613D01*
X433280Y595582D01*
X435168Y597269D01*
X436392Y599484D01*
X436816Y601980D01*
X436241Y604872D01*
X434603Y607323D01*
X456187Y576311D02*
X457829Y578765D01*
X458406Y581660D01*
X485595Y560036D02*
X483052Y560672D01*
X480440Y560886D01*
X456193Y576317D02*
X457831Y578768D01*
X458406Y581660D01*
X572837Y500126D02*
X570760Y501653D01*
X568273Y502332D01*
X565708Y502072D01*
X563408Y500908D01*
X561679Y498995D01*
X560753Y496589D01*
Y494011D01*
X561679Y491605D01*
X563408Y489692D01*
X565708Y488528D01*
X568273Y488268D01*
X570760Y488947D01*
X572837Y490474D01*
X586994Y537580D02*
X588415Y534160D01*
X586994Y537580D02*
X588408Y534168D01*
X663019Y490474D02*
X666431Y491888D01*
X663019Y490474D02*
X666438Y491895D01*
X569027Y589986D02*
X567042Y591468D01*
X564666Y592172D01*
X562193Y592011D01*
X559928Y591005D01*
X558151Y589279D01*
X557080Y587044D01*
X556848Y584576D01*
X557483Y582181D01*
X558908Y580154D01*
X560946Y578743D01*
X563345Y578124D01*
Y578124D02*
X563238Y575631D01*
X564005Y573257D01*
X565551Y571298D01*
X567682Y570000D01*
X570132Y569525D01*
X572593Y569932D01*
X575592Y588573D02*
X572180Y589986D01*
X575600Y588565D02*
X572180Y589986D01*
X623570Y594424D02*
X625905Y594794D01*
X628011Y595867D01*
X629683Y597539D01*
X630756Y599645D01*
X631126Y601980D01*
X423179Y618747D02*
X420725Y620389D01*
X417830Y620966D01*
X423173Y618753D02*
X420722Y620391D01*
X417830Y620966D01*
X458406Y609096D02*
X460299Y611003D01*
X461723Y613282D01*
X462607Y615820D01*
X462906Y618490D01*
X462635Y621031D01*
X461835Y623458D01*
X460541Y625662D01*
X458811Y627543D01*
X456724Y629018D01*
X454373Y630020D01*
X451864Y630503D01*
X449309Y630447D01*
X446823Y629854D01*
X444519Y628750D01*
X442498Y627185D01*
X440853Y625229D01*
X439658Y622971D01*
X438965Y620511D01*
X438806Y617960D01*
X439188Y615434D01*
X440094Y613044D01*
X441484Y610899D01*
X443294Y609096D01*
X526406Y618490D02*
X526124Y621082D01*
X525292Y623552D01*
X523948Y625785D01*
X522156Y627678D01*
X519998Y629141D01*
X517577Y630106D01*
X515004Y630528D01*
X512401Y630387D01*
X509890Y629691D01*
X507586Y628470D01*
X505599Y626783D01*
X504021Y624708D01*
X502926Y622342D01*
X502365Y619797D01*
X502364Y617190D01*
X513050Y606504D02*
X515575Y606496D01*
X518047Y607015D01*
X520356Y608037D01*
X522402Y609517D01*
X524095Y611391D01*
X525360Y613577D01*
X526142Y615979D01*
X526406Y618490D01*
X436646Y757430D02*
X436265Y754904D01*
X436426Y752354D01*
X437119Y749895D01*
X438316Y747637D01*
X439962Y745682D01*
X441982Y744118D01*
X444287Y743015D01*
X446772Y742422D01*
X449327Y742367D01*
X451836Y742851D01*
X454186Y743853D01*
X456273Y745328D01*
X458002Y747209D01*
X459295Y749413D01*
X460095Y751839D01*
X460366Y754380D01*
X434966D02*
X434896Y755680D01*
X424210Y766366D02*
X421688Y766374D01*
X419219Y765857D01*
X416912Y764838D01*
X414868Y763361D01*
X413175Y761492D01*
X411908Y759311D01*
X411123Y756914D01*
X410854Y754406D01*
X411112Y751897D01*
X411887Y749497D01*
X413144Y747310D01*
X414829Y745434D01*
X416867Y743948D01*
X419170Y742919D01*
X421636Y742392D01*
X424158Y742389D01*
X426626Y742911D01*
X428931Y743935D01*
X430972Y745416D01*
X432660Y747289D01*
X433922Y749473D01*
X434702Y751872D01*
X434966Y754380D01*
X460366D02*
X459974Y757430D01*
X464019Y774757D02*
X461565Y776399D01*
X458670Y776976D01*
X437950D02*
X435055Y776399D01*
X432601Y774757D01*
X437950Y776976D02*
X435058Y776401D01*
X432607Y774763D01*
X464013D02*
X461562Y776401D01*
X458670Y776976D01*
X461724Y755680D02*
X461725Y753073D01*
X462286Y750528D01*
X463381Y748162D01*
X464959Y746087D01*
X466946Y744400D01*
X469250Y743179D01*
X471761Y742483D01*
X474364Y742342D01*
X476937Y742764D01*
X479358Y743729D01*
X481516Y745192D01*
X483308Y747085D01*
X484652Y749318D01*
X485484Y751788D01*
X485766Y754380D01*
Y754380D02*
X485696Y755680D01*
X475010Y766366D02*
X472410D01*
X488750Y776976D02*
X485855Y776399D01*
X483401Y774757D01*
X488750Y776976D02*
X485858Y776401D01*
X483407Y774763D01*
X533448Y774757D02*
X530994Y776399D01*
X528099Y776976D01*
X565150Y609536D02*
X562566Y609080D01*
X560293Y607768D01*
X558606Y605758D01*
X557709Y603292D01*
Y600668D01*
X558606Y598202D01*
X560293Y596192D01*
X562566Y594880D01*
X565150Y594424D01*
X631126Y601980D02*
X630756Y604315D01*
X629683Y606421D01*
X628011Y608093D01*
X625905Y609166D01*
X623570Y609536D01*
Y615514D02*
X626059Y615908D01*
X628305Y617053D01*
X630087Y618835D01*
X631232Y621081D01*
X631626Y623570D01*
X631232Y626059D01*
X630087Y628305D01*
X628305Y630087D01*
X626059Y631232D01*
X623570Y631626D01*
X565150D02*
X562661Y631232D01*
X560415Y630087D01*
X558633Y628305D01*
X557488Y626059D01*
X557094Y623570D01*
X557488Y621081D01*
X558633Y618835D01*
X560415Y617053D01*
X562661Y615908D01*
X565150Y615514D01*
X581104Y755680D02*
X581105Y753073D01*
X581666Y750528D01*
X582761Y748162D01*
X584339Y746087D01*
X586326Y744400D01*
X588630Y743179D01*
X591141Y742483D01*
X593744Y742342D01*
X596317Y742764D01*
X598738Y743729D01*
X600896Y745192D01*
X602688Y747085D01*
X604032Y749318D01*
X604864Y751788D01*
X605146Y754380D01*
X530409Y756425D02*
X530242Y753939D01*
X530590Y751472D01*
X531437Y749130D01*
X532748Y747011D01*
X534466Y745208D01*
X536518Y743795D01*
X538817Y742835D01*
X541264Y742368D01*
X543755Y742413D01*
X546183Y742970D01*
X548445Y744014D01*
X550444Y745500D01*
X552095Y747365D01*
X553327Y749530D01*
X554089Y751902D01*
X554346Y754380D01*
X556026Y757430D02*
X555645Y754904D01*
X555806Y752354D01*
X556499Y749895D01*
X557696Y747637D01*
X559342Y745682D01*
X561362Y744118D01*
X563667Y743015D01*
X566152Y742422D01*
X568707Y742367D01*
X571216Y742851D01*
X573566Y743853D01*
X575653Y745328D01*
X577382Y747209D01*
X578675Y749413D01*
X579475Y751839D01*
X579746Y754380D01*
X554346D02*
X554276Y755680D01*
X579746Y754380D02*
X579354Y757430D01*
X605146Y754380D02*
X604936Y756619D01*
X604315Y758780D01*
X543590Y766366D02*
X541780Y766425D01*
X533442Y774763D02*
X530990Y776401D01*
X528099Y776976D01*
X557330Y776976D02*
X554435Y776399D01*
X551981Y774757D01*
X597490Y765605D02*
X594686Y766330D01*
X591790Y766366D01*
X557330Y776976D02*
X554438Y776401D01*
X551987Y774763D01*
X583399Y774757D02*
X580945Y776399D01*
X578050Y776976D01*
X583393Y774763D02*
X580942Y776401D01*
X578050Y776976D01*
X613520Y779636D02*
X610100Y778215D01*
X613520Y779636D02*
X610107Y778223D01*
X662073Y786936D02*
X660178Y788746D01*
X657752Y789741D01*
X655131Y789780D01*
X652676Y788860D01*
X650726Y787108D01*
X649551Y784764D01*
X649312Y782154D01*
X650043Y779636D01*
X668803Y784038D02*
X670591Y782632D01*
X672686Y781746D01*
X674940Y781444D01*
X664417Y785637D02*
X662073Y786936D01*
X664409Y785643D02*
X662073Y786936D01*
X668803Y784038D02*
X670591Y782632D01*
X672686Y781746D01*
X674940Y781444D01*
X790774Y55959D02*
X789085Y54088D01*
X787822Y51906D01*
X787040Y49509D01*
X786774Y47002D01*
X787035Y44494D01*
X787812Y42096D01*
X789071Y39911D01*
X790757Y38036D01*
X792795Y36553D01*
X795098Y35526D01*
X797564Y35001D01*
X800085Y34999D01*
X802551Y35523D01*
X804855Y36547D01*
X806895Y38029D01*
X808582Y39902D01*
X809843Y42085D01*
X810622Y44483D01*
X810886Y46990D01*
X810622Y49500D01*
X809841Y51900D01*
X808577Y54085D01*
X806886Y55959D01*
Y93980D02*
X806273Y97063D01*
X804527Y99677D01*
X806886Y93980D02*
X806273Y97063D01*
X804527Y99677D01*
X856130Y48184D02*
X855632Y50710D01*
X854636Y53084D01*
X853185Y55209D01*
X851336Y57000D01*
X835224Y56756D02*
X833479Y54971D01*
X832115Y52881D01*
X831185Y50564D01*
X830723Y48111D01*
X830748Y45615D01*
X831259Y43172D01*
X832235Y40875D01*
X833640Y38812D01*
X835420Y37062D01*
X837507Y35692D01*
X839821Y34755D01*
X842272Y34287D01*
X844768Y34304D01*
X847213Y34808D01*
X849513Y35778D01*
X851580Y37177D01*
X853335Y38952D01*
X854711Y41035D01*
X855654Y43346D01*
X856130Y45796D01*
X851336Y128680D02*
X850723Y131763D01*
X848977Y134376D01*
X851336Y128680D02*
X850723Y131763D01*
X848977Y134376D01*
X733279Y151475D02*
X733892Y148392D01*
X735639Y145779D01*
X733279Y151475D02*
X733892Y148392D01*
X735639Y145779D01*
X683591Y175114D02*
X685840Y176548D01*
X686716Y179067D01*
X775076Y160793D02*
X776097Y163179D01*
X776721Y165698D01*
X776931Y168285D01*
X860624Y56756D02*
X858891Y54985D01*
X857532Y52913D01*
X856600Y50617D01*
X856130Y48184D01*
Y45796D02*
X856609Y43334D01*
X857561Y41013D01*
X858948Y38924D01*
X860717Y37146D01*
X862800Y35749D01*
X865116Y34787D01*
X867576Y34296D01*
X870084D01*
X872544Y34787D01*
X874860Y35749D01*
X876943Y37146D01*
X878712Y38924D01*
X880099Y41013D01*
X881051Y43334D01*
X881530Y45796D01*
Y48184D02*
X881032Y50710D01*
X880036Y53084D01*
X878585Y55209D01*
X876736Y57000D01*
X881530Y45796D02*
X882009Y43334D01*
X882961Y41013D01*
X884348Y38924D01*
X886117Y37146D01*
X888200Y35749D01*
X890516Y34787D01*
X892976Y34296D01*
X895484D01*
X897944Y34787D01*
X900260Y35749D01*
X902343Y37146D01*
X904112Y38924D01*
X905499Y41013D01*
X906451Y43334D01*
X906930Y45796D01*
Y45796D02*
X907409Y43334D01*
X908361Y41013D01*
X909748Y38924D01*
X911517Y37146D01*
X913600Y35749D01*
X915916Y34787D01*
X918376Y34296D01*
X920884D01*
X923344Y34787D01*
X925660Y35749D01*
X927743Y37146D01*
X929512Y38924D01*
X930899Y41013D01*
X931851Y43334D01*
X932330Y45796D01*
Y45796D02*
X932809Y43334D01*
X933761Y41013D01*
X935148Y38924D01*
X936917Y37146D01*
X939000Y35749D01*
X941316Y34787D01*
X943776Y34296D01*
X946284D01*
X948744Y34787D01*
X951060Y35749D01*
X953143Y37146D01*
X954912Y38924D01*
X956299Y41013D01*
X957251Y43334D01*
X957730Y45796D01*
X886024Y56756D02*
X884291Y54985D01*
X882932Y52913D01*
X882000Y50617D01*
X881530Y48184D01*
X906930D02*
X906432Y50710D01*
X905436Y53084D01*
X903985Y55209D01*
X902136Y57000D01*
X932330Y48184D02*
X931851Y50646D01*
X930899Y52966D01*
X929512Y55056D01*
X927743Y56834D01*
X925660Y58231D01*
X923344Y59194D01*
X920884Y59684D01*
X918376D01*
X915916Y59194D01*
X913600Y58231D01*
X911517Y56834D01*
X909748Y55056D01*
X908361Y52966D01*
X907409Y50646D01*
X906930Y48184D01*
X957730D02*
X957251Y50646D01*
X956299Y52966D01*
X954912Y55056D01*
X953143Y56834D01*
X951060Y58231D01*
X948744Y59194D01*
X946284Y59684D01*
X943776D01*
X941316Y59194D01*
X939000Y58231D01*
X936917Y56834D01*
X935148Y55056D01*
X933761Y52966D01*
X932809Y50646D01*
X932330Y48184D01*
X876736Y128680D02*
X876123Y131763D01*
X874377Y134376D01*
X876736Y128680D02*
X876123Y131763D01*
X874377Y134376D01*
X902136Y128680D02*
X901523Y131763D01*
X899777Y134376D01*
X902136Y128680D02*
X901523Y131763D01*
X899777Y134376D01*
X957296Y164184D02*
X959910Y162437D01*
X962993Y161824D01*
X957296Y164184D02*
X959910Y162437D01*
X962993Y161824D01*
X687160Y197504D02*
X690243Y198117D01*
X692857Y199863D01*
X687160Y197504D02*
X690243Y198117D01*
X692857Y199863D01*
X688832Y216145D02*
X686242Y215397D01*
X684044Y213836D01*
X688832Y216145D02*
X686242Y215397D01*
X684044Y213836D01*
X685424Y227135D02*
X685967Y225110D01*
X687449Y223627D01*
X689475Y223084D01*
X710036Y212145D02*
X709493Y214170D01*
X708010Y215653D01*
X705985Y216196D01*
X844986Y190500D02*
X844609Y192936D01*
X843513Y195144D01*
X870386Y190500D02*
X870009Y192936D01*
X868913Y195144D01*
X855747D02*
X854651Y192936D01*
X854274Y190500D01*
X776931Y230495D02*
X776769Y232771D01*
X776286Y235000D01*
X776931Y230495D02*
X776769Y232771D01*
X776286Y235000D01*
X830347Y195144D02*
X829251Y192936D01*
X828874Y190500D01*
X685424Y250135D02*
X685512Y249294D01*
X705985Y246084D02*
X708010Y246627D01*
X709493Y248109D01*
X710036Y250135D01*
X689475Y262196D02*
X687449Y261653D01*
X685967Y260170D01*
X685424Y258145D01*
X710036D02*
X709493Y260170D01*
X708010Y261653D01*
X705985Y262196D01*
X748877Y310333D02*
X747240Y308417D01*
X745924Y306269D01*
X744960Y303941D01*
X744372Y301492D01*
X744174Y298980D01*
X748877Y310333D02*
X747240Y308417D01*
X745924Y306269D01*
X744960Y303941D01*
X744372Y301492D01*
X744174Y298980D01*
X788893Y304937D02*
X790530Y306852D01*
X791846Y309001D01*
X792810Y311328D01*
X793398Y313778D01*
X793596Y316290D01*
X788893Y304937D02*
X790530Y306852D01*
X791846Y309001D01*
X792810Y311328D01*
X793398Y313778D01*
X793596Y316290D01*
X881147Y195144D02*
X880051Y192936D01*
X879674Y190500D01*
X895786D02*
X895409Y192936D01*
X894313Y195144D01*
X935020Y222796D02*
X931937Y222183D01*
X929324Y220436D01*
X935020Y222796D02*
X931937Y222183D01*
X929324Y220436D01*
X910523Y299974D02*
X912346Y298576D01*
X914521Y297838D01*
X916819D01*
X918994Y298576D01*
X920817Y299974D01*
X921698D02*
X925117Y301395D01*
X959476Y185420D02*
X959218Y187902D01*
X958454Y190277D01*
X957218Y192444D01*
X955562Y194311D01*
X953558Y195797D01*
X951291Y196838D01*
X948857Y197390D01*
X946363Y197430D01*
X943913Y196955D01*
X941614Y195986D01*
X939563Y194564D01*
X937849Y192751D01*
X936545Y190624D01*
X935707Y188274D01*
X935370Y185802D01*
X935549Y183313D01*
X936237Y180915D01*
X937404Y178709D01*
X939000Y176791D01*
X940957Y175243D01*
X943190Y174130D01*
X945604Y173501D01*
X948097Y173383D01*
X939444Y245030D02*
X940057Y241947D01*
X941804Y239334D01*
X939444Y245030D02*
X940057Y241947D01*
X941804Y239334D01*
X921698Y299974D02*
X925110Y301388D01*
X954898Y345186D02*
X951479Y343765D01*
X954898Y345186D02*
X951486Y343773D01*
X954990Y347494D02*
X958073Y348107D01*
X960686Y349854D01*
X954990Y347494D02*
X958073Y348107D01*
X960686Y349854D01*
X960736Y349903D02*
X962483Y352517D01*
X963096Y355600D01*
X962644Y358260D01*
X961340Y360621D01*
X959329Y362419D01*
X956837Y363453D01*
X954144Y363606D01*
X957730Y45796D02*
X958209Y43334D01*
X959161Y41013D01*
X960548Y38924D01*
X962317Y37146D01*
X964400Y35749D01*
X966716Y34787D01*
X969176Y34296D01*
X971684D01*
X974144Y34787D01*
X976460Y35749D01*
X978543Y37146D01*
X980312Y38924D01*
X981699Y41013D01*
X982651Y43334D01*
X983130Y45796D01*
Y45796D02*
X983609Y43334D01*
X984561Y41013D01*
X985948Y38924D01*
X987717Y37146D01*
X989800Y35749D01*
X992116Y34787D01*
X994576Y34296D01*
X997084D01*
X999544Y34787D01*
X1001860Y35749D01*
X1003943Y37146D01*
X1005712Y38924D01*
X1007099Y41013D01*
X1008051Y43334D01*
X1008530Y45796D01*
Y45796D02*
X1009009Y43334D01*
X1009961Y41013D01*
X1011348Y38924D01*
X1013117Y37146D01*
X1015200Y35749D01*
X1017516Y34787D01*
X1019976Y34296D01*
X1022484D01*
X1024944Y34787D01*
X1027260Y35749D01*
X1029343Y37146D01*
X1031112Y38924D01*
X1032499Y41013D01*
X1033451Y43334D01*
X1033930Y45796D01*
Y48184D02*
X1033448Y50654D01*
X1032492Y52981D01*
X1031096Y55075D01*
X1029317Y56855D01*
X1027224Y58250D01*
X1024896Y59208D01*
X1022427Y59690D01*
X1019911Y59678D01*
X997127Y59680D02*
X994613Y59688D01*
X992147Y59203D01*
X989824Y58244D01*
X987734Y56848D01*
X985958Y55069D01*
X984566Y52976D01*
X983611Y50651D01*
X983130Y48184D01*
X982651Y50646D01*
X981699Y52966D01*
X980312Y55056D01*
X978543Y56834D01*
X976460Y58231D01*
X974144Y59194D01*
X971684Y59684D01*
X969176D01*
X966716Y59194D01*
X964400Y58231D01*
X962317Y56834D01*
X960548Y55056D01*
X959161Y52966D01*
X958209Y50646D01*
X957730Y48184D01*
X1033930Y45796D02*
X1034409Y43334D01*
X1035361Y41013D01*
X1036748Y38924D01*
X1038517Y37146D01*
X1040600Y35749D01*
X1042916Y34787D01*
X1045376Y34296D01*
X1047884D01*
X1050344Y34787D01*
X1052660Y35749D01*
X1054743Y37146D01*
X1056512Y38924D01*
X1057899Y41013D01*
X1058851Y43334D01*
X1059330Y45796D01*
Y45796D02*
X1059809Y43334D01*
X1060761Y41013D01*
X1062148Y38924D01*
X1063917Y37146D01*
X1066000Y35749D01*
X1068316Y34787D01*
X1070776Y34296D01*
X1073284D01*
X1075744Y34787D01*
X1078060Y35749D01*
X1080143Y37146D01*
X1081912Y38924D01*
X1083299Y41013D01*
X1084251Y43334D01*
X1084730Y45796D01*
Y45796D02*
X1085200Y43366D01*
X1086130Y41072D01*
X1087486Y39001D01*
X1089216Y37231D01*
X1091255Y35828D01*
X1093527Y34846D01*
X1095946Y34321D01*
X1098421Y34272D01*
X1100858Y34703D01*
X1103166Y35597D01*
X1105259Y36919D01*
X1107056Y38621D01*
X1108492Y40637D01*
X1109510Y42893D01*
X1110074Y45303D01*
Y48677D02*
X1109510Y51087D01*
X1108492Y53343D01*
X1107056Y55360D01*
X1105259Y57061D01*
X1103166Y58383D01*
X1100858Y59277D01*
X1098421Y59707D01*
X1095946Y59659D01*
X1093527Y59134D01*
X1091255Y58152D01*
X1089216Y56749D01*
X1087486Y54979D01*
X1086130Y52908D01*
X1085200Y50614D01*
X1084730Y48184D01*
X1059330D02*
X1058851Y50646D01*
X1057899Y52966D01*
X1056512Y55056D01*
X1054743Y56834D01*
X1052660Y58231D01*
X1050344Y59194D01*
X1047884Y59684D01*
X1045376D01*
X1042916Y59194D01*
X1040600Y58231D01*
X1038517Y56834D01*
X1036748Y55056D01*
X1035361Y52966D01*
X1034409Y50646D01*
X1033930Y48184D01*
X1084730D02*
X1084251Y50646D01*
X1083299Y52966D01*
X1081912Y55056D01*
X1080143Y56834D01*
X1078060Y58231D01*
X1075744Y59194D01*
X1073284Y59684D01*
X1070776D01*
X1068316Y59194D01*
X1066000Y58231D01*
X1063917Y56834D01*
X1062148Y55056D01*
X1060761Y52966D01*
X1059809Y50646D01*
X1059330Y48184D01*
X1064918Y124134D02*
X1061835Y123521D01*
X1059221Y121775D01*
X996936Y161824D02*
X1000019Y162437D01*
X1002633Y164184D01*
X996936Y161824D02*
X1000019Y162437D01*
X1002633Y164184D01*
X1011849Y173400D02*
X1014373Y173869D01*
X1016741Y174862D01*
X1018845Y176334D01*
X1020589Y178219D01*
X1021895Y180430D01*
X1022703Y182867D01*
X1022976Y185420D01*
X1064918Y124134D02*
X1061835Y123521D01*
X1059221Y121775D01*
X1022976Y185420D02*
X1022719Y187898D01*
X1021957Y190270D01*
X1020725Y192435D01*
X1019074Y194300D01*
X1017075Y195786D01*
X1014813Y196830D01*
X1012385Y197387D01*
X1009894Y197432D01*
X1007447Y196965D01*
X1005148Y196005D01*
X1003096Y194593D01*
X1001378Y192789D01*
X1000067Y190670D01*
X999220Y188328D01*
X998872Y185861D01*
X999039Y183375D01*
X1062334Y188340D02*
X1062947Y185257D01*
X1064694Y182643D01*
X1062334Y188340D02*
X1062947Y185257D01*
X1064694Y182643D01*
X1078446Y214740D02*
X1078127Y216986D01*
X1077194Y219054D01*
X1098601Y148736D02*
X1101215Y146989D01*
X1104297Y146376D01*
X1098601Y148736D02*
X1101215Y146989D01*
X1104297Y146376D01*
X1078446Y214740D02*
X1078127Y216986D01*
X1077194Y219054D01*
X1138936Y108022D02*
X1142019Y108635D01*
X1144632Y110381D01*
X1138936Y108022D02*
X1142019Y108635D01*
X1144632Y110381D01*
X1152347Y118096D02*
X1154093Y120710D01*
X1154707Y123793D01*
X1152347Y118096D02*
X1154093Y120710D01*
X1154707Y123793D01*
X1191444Y39749D02*
X1190278Y41988D01*
X1188879Y44088D01*
X1187263Y46027D01*
X1185449Y47782D01*
X1183458Y49333D01*
X1181313Y50662D01*
X1179037Y51754D01*
X1176658Y52596D01*
X1174202Y53178D01*
X1171698Y53495D01*
X1169175Y53541D01*
X1166661Y53318D01*
X1164185Y52827D01*
X1161776Y52074D01*
X1159462Y51067D01*
X1157268Y49819D01*
X1155221Y48343D01*
X1153344Y46656D01*
X1151657Y44779D01*
X1150181Y42731D01*
X1148933Y40538D01*
X1147926Y38223D01*
X1147173Y35815D01*
X1146682Y33339D01*
X1146459Y30825D01*
X1146506Y28302D01*
X1146822Y25798D01*
X1147405Y23342D01*
X1148247Y20963D01*
X1149339Y18687D01*
X1150667Y16542D01*
X1152218Y14550D01*
X1153973Y12737D01*
X1155912Y11121D01*
X1158013Y9722D01*
X1160251Y8556D01*
X1163405Y146630D02*
X1166488Y147243D01*
X1169101Y148989D01*
X1163405Y146630D02*
X1166488Y147243D01*
X1169101Y148989D01*
X1174373Y154262D02*
X1176120Y156875D01*
X1176733Y159958D01*
X1174373Y154262D02*
X1176120Y156875D01*
X1176733Y159958D01*
X1127196Y176784D02*
X1126720Y179333D01*
X1125355Y181538D01*
X1123285Y183100D01*
X1120791Y183810D01*
X1118209Y183571D01*
X1115888Y182415D01*
X1114141Y180499D01*
X1113204Y178081D01*
Y175487D01*
X1114141Y173069D01*
X1115888Y171153D01*
X1118209Y169997D01*
X1120791Y169758D01*
X1123285Y170468D01*
X1125355Y172030D01*
X1126720Y174235D01*
X1127196Y176784D01*
X1029353Y255886D02*
X1027792Y253685D01*
X1027045Y251092D01*
X1027196Y248397D01*
X1028229Y245904D01*
X1030027Y243892D01*
X1032389Y242586D01*
X1035050Y242134D01*
X1029353Y255886D02*
X1027792Y253685D01*
X1027045Y251092D01*
X1027196Y248397D01*
X1028229Y245904D01*
X1030027Y243892D01*
X1032389Y242586D01*
X1035050Y242134D01*
X980107Y291469D02*
X980956Y295068D01*
X980107Y291469D02*
X980956Y295068D01*
X1025296Y331426D02*
X1023883Y334839D01*
X1025296Y331426D02*
X1023875Y334846D01*
X1014956Y343765D02*
X1011536Y345186D01*
X1014949Y343773D02*
X1011536Y345186D01*
X1067417Y337166D02*
X1065195Y338738D01*
X1062577Y339480D01*
X1059861Y339309D01*
X1057357Y338242D01*
X1055351Y336403D01*
X1054072Y334001D01*
X1074050Y242134D02*
X1077133Y242747D01*
X1079746Y244494D01*
X1074050Y242134D02*
X1077133Y242747D01*
X1079746Y244494D01*
X1147699Y232806D02*
X1145085Y234553D01*
X1142002Y235166D01*
X1147699Y232806D02*
X1145085Y234553D01*
X1142002Y235166D01*
X1068078Y336438D02*
X1067496Y337086D01*
X1068078Y336438D02*
X1067496Y337086D01*
X1079144Y337996D02*
X1076954Y339117D01*
X1074528Y339525D01*
X1072092Y339182D01*
X1069873Y338120D01*
X1068078Y336438D01*
X1095256Y366200D02*
X1096684Y369003D01*
X1097176Y372110D01*
X1096856Y374628D01*
X1095915Y376986D01*
X1094414Y379033D01*
X1092448Y380638D01*
X1090143Y381701D01*
X1087645Y382152D01*
X1085114Y381964D01*
X1082710Y381147D01*
X1080588Y379755D01*
X1078881Y377876D01*
X1077700Y375630D01*
X1077119Y373159D01*
X1077175Y370621D01*
X1077865Y368178D01*
X1079144Y365986D01*
X1107876Y332740D02*
X1107491Y335201D01*
X1106373Y337427D01*
X1104628Y339204D01*
X1102423Y340364D01*
X1099970Y340795D01*
X1097502Y340455D01*
X1095256Y339378D01*
X1143881Y304663D02*
X1146334Y303021D01*
X1149230Y302444D01*
X1143887Y304657D02*
X1146338Y303019D01*
X1149230Y302444D01*
X1116944Y334730D02*
X1117519Y331838D01*
X1119157Y329387D01*
X1116944Y334730D02*
X1117521Y331834D01*
X1119163Y329381D01*
X761353Y449453D02*
X759437Y451090D01*
X757289Y452406D01*
X754962Y453370D01*
X752512Y453958D01*
X750000Y454156D01*
X747488Y453958D01*
X745038Y453370D01*
X742711Y452406D01*
X740563Y451090D01*
X738647Y449453D01*
X737010Y447537D01*
X735694Y445389D01*
X734730Y443062D01*
X734142Y440612D01*
X733944Y438100D01*
X734142Y435588D01*
X734730Y433138D01*
X735694Y430811D01*
X737010Y428662D01*
X738647Y426747D01*
X761353Y449453D02*
X759437Y451090D01*
X757289Y452406D01*
X754962Y453370D01*
X752512Y453958D01*
X750000Y454156D01*
X747488Y453958D01*
X745038Y453370D01*
X742711Y452406D01*
X740563Y451090D01*
X738647Y449453D01*
X737010Y447537D01*
X735694Y445389D01*
X734730Y443062D01*
X734142Y440612D01*
X733944Y438100D01*
X734142Y435588D01*
X734730Y433138D01*
X735694Y430811D01*
X737010Y428662D01*
X738647Y426747D01*
X793596Y410560D02*
X793398Y413072D01*
X792810Y415522D01*
X791846Y417849D01*
X790530Y419997D01*
X788893Y421913D01*
X793596Y410560D02*
X793398Y413072D01*
X792810Y415522D01*
X791846Y417849D01*
X790530Y419997D01*
X788893Y421913D01*
X826500Y483390D02*
X825246Y481276D01*
X824794Y478859D01*
X825199Y476435D01*
X826410Y474296D01*
X828282Y472703D01*
X830587Y471848D01*
X833045Y471836D01*
X835358Y472668D01*
X837245Y474243D01*
X838478Y476370D01*
X838906Y478790D01*
X860358Y487907D02*
X860713Y485458D01*
X861893Y483281D01*
X863752Y481646D01*
X866060Y480754D01*
X868536Y480714D01*
X870872Y481532D01*
X872783Y483106D01*
X874032Y485243D01*
X874466Y487680D01*
X873903Y490442D01*
X872305Y492762D01*
X872397Y503008D02*
X873928Y505298D01*
X874466Y508000D01*
X873879Y510818D01*
X872216Y513167D01*
X872305Y492762D02*
X873968Y495111D01*
X874555Y497929D01*
X873993Y500688D01*
X872397Y503008D01*
X873518Y444268D02*
X876930Y442854D01*
X873510Y444275D02*
X876930Y442854D01*
X793745Y545624D02*
X790332Y547037D01*
X793752Y545616D02*
X790332Y547037D01*
X872216Y513167D02*
X873814Y515488D01*
X874377Y518249D01*
X873818Y521002D01*
X872229Y523318D01*
X869863Y524831D01*
X867094Y525301D01*
X802894Y547370D02*
X804307Y543957D01*
X802894Y547370D02*
X804315Y543950D01*
X840176Y617956D02*
X842543Y617242D01*
X845016Y617279D01*
X847360Y618064D01*
X849357Y619524D01*
X884574Y539133D02*
X886775Y537572D01*
X889368Y536825D01*
X892063Y536976D01*
X894556Y538009D01*
X896568Y539807D01*
X897874Y542169D01*
X898326Y544830D01*
X903804Y546352D02*
X904417Y543269D01*
X906163Y540655D01*
X903804Y546352D02*
X904417Y543269D01*
X906163Y540655D01*
X898326Y544830D02*
X897713Y547913D01*
X895966Y550527D01*
X954990Y385594D02*
X958073Y386207D01*
X960686Y387953D01*
X963096Y393700D02*
X962644Y396360D01*
X961340Y398721D01*
X959329Y400519D01*
X956837Y401553D01*
X954144Y401706D01*
X954990Y385594D02*
X958073Y386207D01*
X960686Y387953D01*
X960736Y388004D02*
X962483Y390617D01*
X963096Y393700D01*
X973654Y394970D02*
X974267Y391887D01*
X976013Y389273D01*
X973654Y394970D02*
X974267Y391887D01*
X976013Y389273D01*
Y433686D02*
X974267Y431073D01*
X973654Y427990D01*
X976013Y433686D02*
X974267Y431073D01*
X973654Y427990D01*
X939030Y489826D02*
X935610Y488405D01*
X939030Y489826D02*
X935618Y488413D01*
X933886Y609001D02*
X934980Y610848D01*
X935657Y612886D01*
X935886Y615020D01*
X959684Y585350D02*
X960184Y582556D01*
X975796Y604650D02*
X975183Y607733D01*
X973437Y610346D01*
X975796Y604650D02*
X975183Y607733D01*
X973437Y610346D01*
X975296Y582556D02*
X975796Y585350D01*
X684186Y744477D02*
X687598Y743064D01*
X684179Y744485D02*
X687598Y743064D01*
X727570D02*
X730983Y744477D01*
X727570Y743064D02*
X730990Y744485D01*
X710108Y767056D02*
X709025Y768715D01*
X710108Y767056D02*
X709017Y768722D01*
X700695Y777044D02*
X697276Y778464D01*
X700688Y777051D02*
X697276Y778464D01*
X732605Y746100D02*
X733991Y748944D01*
X732613Y746107D02*
X733991Y748944D01*
X860226Y655320D02*
X859774Y657981D01*
X858468Y660343D01*
X856456Y662141D01*
X853963Y663174D01*
X851268Y663325D01*
X848675Y662578D01*
X846473Y661016D01*
X860774Y652633D02*
X859542Y652071D01*
X860226Y655320D01*
X860774Y652633D02*
X859542Y652071D01*
X935886Y615020D02*
X935618Y617326D01*
X934828Y619509D01*
X933559Y621453D01*
X903646Y636992D02*
X902462Y634767D01*
X901867Y632317D01*
X901901Y629797D01*
X902560Y627364D01*
X903804Y625171D01*
X975733Y660213D02*
X978347Y658467D01*
X981430Y657854D01*
X975733Y660213D02*
X978347Y658467D01*
X981430Y657854D01*
X820110Y786384D02*
X819554Y789131D01*
X817972Y791444D01*
X827786Y776478D02*
X826373Y779891D01*
X827786Y776478D02*
X826365Y779898D01*
X856186Y751423D02*
X856727Y749082D01*
X857697Y746883D01*
X859062Y744906D01*
X860774Y743220D01*
X876886D02*
X878677Y745001D01*
X880082Y747101D01*
X881046Y749436D01*
X881530Y751916D01*
X882011Y749449D01*
X882966Y747124D01*
X884358Y745031D01*
X886134Y743252D01*
X888224Y741856D01*
X890547Y740897D01*
X893014Y740412D01*
X895527Y740420D01*
X906930Y754304D02*
X906451Y756766D01*
X905499Y759087D01*
X904112Y761176D01*
X902343Y762954D01*
X900260Y764351D01*
X897944Y765313D01*
X895484Y765804D01*
X892976D01*
X890516Y765313D01*
X888200Y764351D01*
X886117Y762954D01*
X884348Y761176D01*
X882961Y759087D01*
X882009Y756766D01*
X881530Y754304D01*
X881060Y756734D01*
X880130Y759028D01*
X878774Y761099D01*
X877044Y762869D01*
X875005Y764272D01*
X872733Y765254D01*
X870314Y765779D01*
X867839Y765827D01*
X865402Y765397D01*
X863094Y764503D01*
X861001Y763181D01*
X859204Y761479D01*
X857768Y759463D01*
X856750Y757207D01*
X856186Y754797D01*
X957730Y754304D02*
X957251Y756766D01*
X956299Y759087D01*
X954912Y761176D01*
X953143Y762954D01*
X951060Y764351D01*
X948744Y765313D01*
X946284Y765804D01*
X943776D01*
X941316Y765313D01*
X939000Y764351D01*
X936917Y762954D01*
X935148Y761176D01*
X933761Y759087D01*
X932809Y756766D01*
X932330Y754304D01*
X931851Y756766D01*
X930899Y759087D01*
X929512Y761176D01*
X927743Y762954D01*
X925660Y764351D01*
X923344Y765313D01*
X920884Y765804D01*
X918376D01*
X915916Y765313D01*
X913600Y764351D01*
X911517Y762954D01*
X909748Y761176D01*
X908361Y759087D01*
X907409Y756766D01*
X906930Y754304D01*
X983130D02*
X982651Y756766D01*
X981699Y759087D01*
X980312Y761176D01*
X978543Y762954D01*
X976460Y764351D01*
X974144Y765313D01*
X971684Y765804D01*
X969176D01*
X966716Y765313D01*
X964400Y764351D01*
X962317Y762954D01*
X960548Y761176D01*
X959161Y759087D01*
X958209Y756766D01*
X957730Y754304D01*
X997386Y435610D02*
X996934Y438271D01*
X995628Y440633D01*
X993616Y442431D01*
X991123Y443464D01*
X988428Y443615D01*
X985835Y442868D01*
X983633Y441306D01*
X974469Y471444D02*
X973993Y469079D01*
X974239Y466679D01*
X975184Y464460D01*
X976744Y462620D01*
X978778Y461324D01*
X981105Y460688D01*
X983516Y460770D01*
X985795Y461562D01*
X987737Y462994D01*
X995026Y429913D02*
X996773Y432527D01*
X997386Y435610D01*
X991219Y466477D02*
X991928Y464166D01*
X993374Y462231D01*
X995389Y460897D01*
X997736Y460321D01*
X1000139Y460570D01*
X1002318Y461616D01*
X1004015Y463335D01*
Y463335D02*
X1005873Y461489D01*
X1008249Y460387D01*
X1010859Y460164D01*
X1013388Y460844D01*
X1015533Y462347D01*
X1015837Y462651D02*
X1017479Y465105D01*
X1018056Y468000D01*
X1015843Y462657D02*
X1017481Y465108D01*
X1018056Y468000D01*
X1003978Y498556D02*
X1005158Y500096D01*
X1005936Y501873D01*
X1006276Y504190D01*
X1105596Y457934D02*
X1107343Y460547D01*
X1107956Y463630D01*
X1089489Y464612D02*
X1087111Y463963D01*
X1084962Y462753D01*
X1083171Y461058D01*
X1081848Y458977D01*
X1081070Y456637D01*
X1080885Y454178D01*
X1081305Y451748D01*
X1082303Y449493D01*
X1083819Y447549D01*
X1085763Y446033D01*
X1088018Y445035D01*
X1090448Y444616D01*
X1092907Y444800D01*
X1095247Y445578D01*
X1097328Y446902D01*
X1099023Y448692D01*
X1100232Y450841D01*
X1100882Y453219D01*
X1105596Y457934D02*
X1107343Y460547D01*
X1107956Y463630D01*
X1119157Y469443D02*
X1117519Y466992D01*
X1116944Y464100D01*
X1119163Y469449D02*
X1117521Y466996D01*
X1116944Y464100D01*
X1150400Y497556D02*
X1147505Y496979D01*
X1145051Y495337D01*
X1110416Y529241D02*
X1109647Y532676D01*
Y525807D02*
X1110416Y529241D01*
X1146500Y503936D02*
X1146023Y506485D01*
X1144659Y508690D01*
X1142589Y510252D01*
X1140095Y510962D01*
X1137513Y510723D01*
X1135192Y509567D01*
X1133445Y507650D01*
X1132508Y505233D01*
Y502640D01*
X1133445Y500221D01*
X1135192Y498305D01*
X1137513Y497149D01*
X1140095Y496910D01*
X1142589Y497620D01*
X1144659Y499182D01*
X1146023Y501387D01*
X1146500Y503936D01*
X1150400Y497556D02*
X1147509Y496981D01*
X1145057Y495343D01*
X1001944Y580191D02*
X1000374Y582164D01*
X998465Y583811D01*
X996284Y585077D01*
X993907Y585917D01*
X991415Y586301D01*
X988895Y586218D01*
X986433Y585670D01*
X984117Y584675D01*
X982024Y583268D01*
X980228Y581498D01*
X978791Y579426D01*
X977762Y577124D01*
X977178Y574672D01*
X977058Y572153D01*
X977407Y569656D01*
X978212Y567266D01*
X979445Y565067D01*
X981065Y563134D01*
X983014Y561535D01*
X985226Y560325D01*
X987624Y559545D01*
X1029965Y553579D02*
X1028218Y550966D01*
X1027605Y547883D01*
X1029965Y553579D02*
X1028218Y550966D01*
X1027605Y547883D01*
X1005659Y632793D02*
X1006407Y631930D01*
X1005659Y632793D02*
X1006407Y631930D01*
X1033344Y564079D02*
X1035534Y562556D01*
X1038047Y561662D01*
Y581338D02*
X1035071Y580191D01*
X1073266Y584520D02*
X1072653Y587603D01*
X1070907Y590216D01*
X1073266Y584520D02*
X1072653Y587603D01*
X1070907Y590216D01*
X1036518Y601819D02*
X1034048Y601232D01*
X1031804Y600045D01*
X1029928Y598333D01*
X1028541Y596207D01*
X1027731Y593800D01*
X1027549Y591268D01*
X1028008Y588770D01*
X1029077Y586468D01*
X1030689Y584506D01*
X1032741Y583010D01*
X1035102Y582077D01*
X1037622Y581764D01*
X1097176Y628650D02*
X1096858Y631160D01*
X1095923Y633510D01*
X1094432Y635553D01*
X1092478Y637160D01*
X1090185Y638228D01*
X1087698Y638689D01*
X1085174Y638516D01*
X1082774Y637718D01*
X1080648Y636347D01*
X1078932Y634488D01*
X1077734Y632260D01*
X1077130Y629804D01*
X1077159Y627275D01*
X1077817Y624832D01*
X1079064Y622631D01*
X1005720Y761166D02*
X1003952Y762946D01*
X1001869Y764346D01*
X999553Y765311D01*
X997093Y765803D01*
X994584Y765805D01*
X992122Y765315D01*
X989805Y764353D01*
X987721Y762956D01*
X985950Y761179D01*
X984562Y759089D01*
X983609Y756767D01*
X983130Y754304D01*
X1056685Y657854D02*
X1059768Y658467D01*
X1062381Y660213D01*
X1056520Y761166D02*
X1054752Y762946D01*
X1052669Y764346D01*
X1050353Y765311D01*
X1047893Y765803D01*
X1045384Y765805D01*
X1042923Y765315D01*
X1040605Y764353D01*
X1038521Y762956D01*
X1036750Y761179D01*
X1035362Y759089D01*
X1034409Y756767D01*
X1033930Y754304D01*
X1033450Y756767D01*
X1032498Y759088D01*
X1031110Y761179D01*
X1029339Y762956D01*
X1027255Y764353D01*
X1024937Y765315D01*
X1022477Y765805D01*
X1019967Y765803D01*
X1017507Y765311D01*
X1015191Y764346D01*
X1013108Y762946D01*
X1011340Y761166D01*
X1056685Y657854D02*
X1059768Y658467D01*
X1062381Y660213D01*
X1062605Y679886D02*
X1060792Y679679D01*
X1081101Y663774D02*
X1083243Y662551D01*
X1085617Y661887D01*
X1088082Y661820D01*
X1090489Y662355D01*
X1092694Y663460D01*
X1094563Y665068D01*
X1095985Y667083D01*
X1096874Y669383D01*
X1097176Y671830D01*
X1062605Y679886D02*
X1060792Y679679D01*
X1097176Y671830D02*
X1096874Y674277D01*
X1095985Y676577D01*
X1094563Y678592D01*
X1092694Y680200D01*
X1090489Y681305D01*
X1088082Y681840D01*
X1085617Y681773D01*
X1083243Y681108D01*
X1081101Y679886D01*
X1084730Y754304D02*
X1084250Y756767D01*
X1083298Y759088D01*
X1081910Y761179D01*
X1080139Y762956D01*
X1078055Y764353D01*
X1075737Y765315D01*
X1073277Y765805D01*
X1070767Y765803D01*
X1068307Y765311D01*
X1065991Y764346D01*
X1063908Y762946D01*
X1062140Y761166D01*
X1109647Y546824D02*
X1110416Y550259D01*
X1109647Y546824D02*
X1110416Y550259D01*
X1115194Y617579D02*
X1118682Y616784D01*
X1115194Y617579D02*
X1118682Y616784D01*
X1096664Y621834D02*
X1095176Y619783D01*
X1096664Y621834D02*
X1095176Y619783D01*
Y622631D02*
X1096270Y624478D01*
X1096947Y626516D01*
X1097176Y628650D01*
X1122906Y632896D02*
X1121612Y634970D01*
X1119857Y636670D01*
X1117743Y637897D01*
X1115395Y638577D01*
X1112953Y638671D01*
X1110560Y638173D01*
X1108358Y637113D01*
X1106477Y635553D01*
X1105028Y633585D01*
X1104096Y631325D01*
X1103737Y628908D01*
X1121533Y740420D02*
X1124195Y740427D01*
X1126798Y740987D01*
X1129228Y742074D01*
X1131379Y743643D01*
X1133158Y745623D01*
X1134487Y747930D01*
X1135308Y750462D01*
X1135586Y753110D01*
X1110130Y754304D02*
X1109651Y756766D01*
X1108699Y759087D01*
X1107312Y761176D01*
X1105543Y762954D01*
X1103460Y764351D01*
X1101144Y765313D01*
X1098684Y765804D01*
X1096176D01*
X1093716Y765313D01*
X1091400Y764351D01*
X1089317Y762954D01*
X1087548Y761176D01*
X1086161Y759087D01*
X1085209Y756766D01*
X1084730Y754304D01*
X1135586Y753110D02*
X1135324Y755684D01*
X1134547Y758152D01*
X1133289Y760413D01*
X1131600Y762373D01*
X1129550Y763952D01*
X1127224Y765085D01*
X1124717Y765726D01*
X1122132Y765847D01*
X1119576Y765444D01*
X1117154Y764534D01*
X1114966Y763154D01*
X1113101Y761360D01*
X1111636Y759227D01*
X1110632Y756842D01*
X1110130Y754304D01*
X1146754Y660400D02*
X1146277Y662949D01*
X1144912Y665154D01*
X1142843Y666716D01*
X1140349Y667426D01*
X1137767Y667187D01*
X1135446Y666031D01*
X1133699Y664115D01*
X1132762Y661696D01*
Y659103D01*
X1133699Y656685D01*
X1135446Y654769D01*
X1137767Y653613D01*
X1140349Y653374D01*
X1142843Y654084D01*
X1144912Y655646D01*
X1146277Y657851D01*
X1146754Y660400D01*
X1160251Y791444D02*
X1158013Y790278D01*
X1155912Y788879D01*
X1153973Y787263D01*
X1152218Y785450D01*
X1150667Y783458D01*
X1149339Y781313D01*
X1148247Y779037D01*
X1147405Y776658D01*
X1146822Y774202D01*
X1146506Y771699D01*
X1146459Y769175D01*
X1146682Y766661D01*
X1147173Y764185D01*
X1147926Y761777D01*
X1148933Y759462D01*
X1150181Y757269D01*
X1151657Y755221D01*
X1153343Y753344D01*
X1155221Y751657D01*
X1157268Y750181D01*
X1159462Y748933D01*
X1161776Y747926D01*
X1164185Y747173D01*
X1166661Y746682D01*
X1169175Y746459D01*
X1171698Y746505D01*
X1174202Y746822D01*
X1176658Y747404D01*
X1179037Y748246D01*
X1181313Y749338D01*
X1183458Y750667D01*
X1185450Y752218D01*
X1187263Y753973D01*
X1188879Y755912D01*
X1190278Y758012D01*
X1191444Y760251D01*
X8556Y137160D02*
X150013D01*
X8556Y71120D02*
X158264D01*
X8556Y132080D02*
X155093D01*
X8556Y152400D02*
X134773D01*
X8556Y157480D02*
X129693D01*
X8556Y142240D02*
X144933D01*
X8556Y147320D02*
X139853D01*
X8556Y45720D02*
X12038D01*
X8556Y50800D02*
X18084D01*
X8556Y60960D02*
X158166D01*
X8556Y66040D02*
X158166D01*
X8556Y40229D02*
Y226639D01*
Y162560D02*
X124613D01*
X8556Y167640D02*
X119533D01*
X8556Y182880D02*
X104407D01*
X8556Y172720D02*
X114453D01*
X8556Y177800D02*
X109373D01*
X154787D02*
X158264D01*
X105487Y181687D02*
X106189Y180984D01*
X128896Y203691D02*
X158264Y174323D01*
Y252734D01*
X104784Y180984D02*
Y182436D01*
Y180984D02*
X106189D01*
X149707Y182880D02*
X158264D01*
X8556Y101600D02*
X158264D01*
X8556Y91440D02*
X158264D01*
X8556Y96520D02*
X158264D01*
X8556Y116840D02*
X158264D01*
X8556Y121920D02*
X158264D01*
X8556Y106680D02*
X158264D01*
X8556Y111760D02*
X158264D01*
X41916Y50800D02*
X164196D01*
X8556Y81280D02*
X158264D01*
X8556Y86360D02*
X158264D01*
X8556Y55880D02*
X159887D01*
X8556Y76200D02*
X158264D01*
X106189Y180984D02*
X158264Y128909D01*
X8556Y127000D02*
X158264D01*
Y66589D02*
Y128909D01*
X190376Y182880D02*
X226224D01*
X190376Y135560D02*
Y259385D01*
Y172720D02*
X282604D01*
X190376Y177800D02*
X226224D01*
X190376Y63800D02*
Y135560D01*
Y157480D02*
X333414D01*
X190376Y147320D02*
X353393D01*
X190376Y152400D02*
X333414D01*
X226224Y173134D02*
X253336D01*
X226224D02*
Y200246D01*
X190376Y162560D02*
X282604D01*
X190376Y167640D02*
X282604D01*
X8556Y193040D02*
X100784D01*
X8556Y187960D02*
X101609D01*
X8556Y198120D02*
X101609D01*
X8556Y203200D02*
X104407D01*
X104784Y203644D02*
Y205096D01*
X8556Y208280D02*
X111786D01*
X8556Y223520D02*
X107498D01*
X128193Y204393D02*
X128896Y203691D01*
Y205096D01*
X104784D02*
X106236D01*
X127444D02*
X128896D01*
X126182Y223520D02*
X158264D01*
X10298Y226314D02*
X105792D01*
X13636Y259080D02*
X151918D01*
X13636Y264160D02*
X146838D01*
X13636Y248920D02*
X158264D01*
X13636Y254000D02*
X156998D01*
X128625Y228600D02*
X158264D01*
X128625Y233680D02*
X158264D01*
X13636Y235966D02*
X105792D01*
X13636Y238760D02*
X107498D01*
X126182D02*
X158264D01*
X13636Y243840D02*
X158264D01*
X134467Y198120D02*
X158264D01*
X144627Y187960D02*
X158264D01*
X139547Y193040D02*
X158264D01*
X8556Y213360D02*
X158264D01*
X8556Y218440D02*
X158264D01*
X129387Y203200D02*
X158264D01*
X121894Y208280D02*
X158264D01*
X190376Y193040D02*
X226224D01*
X190376Y198120D02*
X226224D01*
X190376Y187960D02*
X226224D01*
Y200246D02*
X233186D01*
X190376Y208280D02*
X226770D01*
X190376Y213360D02*
X226284D01*
X190376Y203200D02*
X229546D01*
X190376Y218440D02*
X227803D01*
X190376Y238760D02*
X226284D01*
X190376Y233680D02*
X226770D01*
X190376Y243840D02*
X227803D01*
X190376Y248920D02*
X232492D01*
X190376Y264160D02*
X260264D01*
X190376Y254000D02*
X260264D01*
X190376Y259080D02*
X260264D01*
X190376Y223520D02*
X232492D01*
X190376Y228600D02*
X229546D01*
X282604Y158314D02*
Y174426D01*
Y158314D02*
X294604D01*
X285084Y174426D02*
Y183173D01*
X253336Y182880D02*
X285084D01*
X279823Y183173D02*
X285084D01*
X282604Y174426D02*
X285084D01*
X253336Y177800D02*
X285084D01*
X294604Y158314D02*
X297216D01*
X294604D02*
X297216D01*
X309216D01*
Y171299D01*
Y167640D02*
X312875D01*
X311997Y182168D02*
Y183173D01*
X313414Y158814D02*
Y167101D01*
X309216Y171299D02*
X313414Y167101D01*
X253336Y173134D02*
Y193421D01*
Y187960D02*
X279823D01*
Y183173D02*
Y202907D01*
X258035Y198120D02*
X279823D01*
X253336Y193421D02*
X275813Y215898D01*
X253336Y193040D02*
X279823D01*
X280575Y202907D02*
Y207343D01*
X311997Y189287D02*
Y202907D01*
X296981D02*
X311997D01*
Y183173D02*
Y189287D01*
Y183173D02*
Y189287D01*
X290227Y202907D02*
X294839D01*
X290227D02*
Y207343D01*
X294839Y202907D02*
X296981D01*
X294839D02*
X296981D01*
X309216Y162560D02*
X313414D01*
Y158814D02*
X329526D01*
Y162560D02*
X333414D01*
X329526Y172720D02*
X333414D01*
X320239Y173926D02*
X329526D01*
Y167640D02*
X353393D01*
X333414Y168314D02*
X349526D01*
X333414Y149314D02*
X349526D01*
X333414D02*
Y164426D01*
X353393Y145003D02*
Y149314D01*
X349526D02*
X353393D01*
X341470Y164426D02*
X349526D01*
X333414Y164426D02*
X349526D01*
X341470Y149314D02*
X349526D01*
Y172720D02*
X353393D01*
X311997Y182168D02*
X320239Y173926D01*
X329526Y158814D02*
Y173926D01*
X333414Y168314D02*
Y183426D01*
X316365Y177800D02*
X333414D01*
X311997Y182880D02*
X333414D01*
Y183426D02*
X349526D01*
Y168314D02*
Y183426D01*
X353393Y166020D02*
Y185197D01*
X344204Y201504D02*
Y228516D01*
X349526Y177800D02*
X353393D01*
X349526Y182880D02*
X353393D01*
X263115Y203200D02*
X280575D01*
X247877Y222962D02*
X260264Y235349D01*
X247068Y223520D02*
X248435D01*
X250014Y228600D02*
X253515D01*
X252790Y233680D02*
X258595D01*
X253276Y238760D02*
X260264D01*
X275813Y207343D02*
X280575D01*
X275813D02*
Y215898D01*
X290227Y207343D02*
X294990D01*
Y229537D01*
X268195Y208280D02*
X275813D01*
X273275Y213360D02*
X275813D01*
X294990Y228600D02*
X296830D01*
X293966Y229537D02*
X294990D01*
X260264Y235349D02*
Y241936D01*
X271104D01*
X251757Y243840D02*
X271104D01*
X247068Y248920D02*
X271104D01*
X260264Y250824D02*
X271104D01*
Y241936D02*
Y250824D01*
X280756Y244436D02*
Y262258D01*
X293966Y229537D02*
Y244436D01*
X280756D02*
X293966D01*
X280756Y254000D02*
X288354D01*
X280756Y259080D02*
X286885D01*
X280756Y248920D02*
X288354D01*
Y248324D02*
Y257611D01*
X294990Y208280D02*
X296830D01*
X290227Y203200D02*
X344204D01*
X296830Y207343D02*
Y229537D01*
X294990Y218440D02*
X296830D01*
X294990Y223520D02*
X296830D01*
X294990Y213360D02*
X296830D01*
Y229537D02*
X297854D01*
X296830Y207343D02*
X316007D01*
Y217674D01*
Y208280D02*
X344204D01*
X316007Y213360D02*
X344204D01*
X317219Y218440D02*
X344204D01*
X322399Y223520D02*
X344204D01*
X293966Y233680D02*
X297854D01*
X312966Y236873D02*
Y244436D01*
X297854Y229537D02*
Y244436D01*
X293966Y238760D02*
X297854D01*
X293966Y243840D02*
X297854D01*
Y244436D02*
X312966D01*
X288354Y248324D02*
X303466D01*
X318022Y219144D02*
X329547Y230667D01*
X331906Y236364D02*
Y238760D01*
X312966D02*
X314853D01*
X312966Y236873D02*
X315857Y239764D01*
X312966Y243840D02*
X317598D01*
X13636Y284480D02*
X126518D01*
X13636Y274320D02*
X136678D01*
X13636Y279400D02*
X131598D01*
X13636Y299720D02*
X111278D01*
X13636Y304800D02*
X106198D01*
X13636Y289560D02*
X121438D01*
X13636Y294640D02*
X116358D01*
X13636Y269240D02*
X141758D01*
X151612Y304800D02*
X158264D01*
X156692Y299720D02*
X158264D01*
X106189Y304809D02*
X158264Y252734D01*
X104784Y304809D02*
Y306261D01*
Y304809D02*
X106189D01*
X105487Y305512D02*
X106189Y304809D01*
X13636Y235966D02*
Y350464D01*
Y309880D02*
X102383D01*
X13636Y314960D02*
X100897D01*
X13636Y320040D02*
X101101D01*
X13636Y325120D02*
X103069D01*
X104784Y327469D02*
Y328921D01*
X146532Y309880D02*
X158264D01*
X141452Y314960D02*
X158264D01*
X128896Y327516D02*
X158264Y298148D01*
Y376559D01*
X128896Y327516D02*
Y328921D01*
X136372Y320040D02*
X158264D01*
X131292Y325120D02*
X158264D01*
X190376Y279400D02*
X251315D01*
X190376Y269240D02*
X262123D01*
X190376Y274320D02*
X257043D01*
X190376Y294640D02*
X236098D01*
X226224Y296959D02*
X235021D01*
X190376Y284480D02*
X246235D01*
X190376Y289560D02*
X241155D01*
X236375Y294340D02*
X254111Y276604D01*
X247406Y296959D02*
X259816Y284549D01*
X247406Y296959D02*
X253336D01*
Y299023D01*
X249725Y294640D02*
X270094D01*
X253336Y299023D02*
X270094D01*
X190376Y259385D02*
Y383210D01*
Y299720D02*
X226224D01*
X190376Y304800D02*
X226224D01*
X190376Y314960D02*
X226224D01*
X190376Y320040D02*
X226224D01*
X190376Y309880D02*
X226224D01*
X190376Y325120D02*
X231580D01*
X253336Y308675D02*
Y324071D01*
X226224Y296959D02*
Y324071D01*
X253336Y308675D02*
X270094D01*
X253336Y309880D02*
X270094D01*
X226224Y324071D02*
X233186D01*
X246374D02*
X253336D01*
X13636Y330200D02*
X107897D01*
X13636Y335280D02*
X158264D01*
X13636Y340360D02*
X158264D01*
X13636Y345440D02*
X109449D01*
X15378Y350139D02*
X105792D01*
X128193Y328218D02*
X128896Y327516D01*
X127444Y328921D02*
X128896D01*
X104784D02*
X106236D01*
X128047Y350520D02*
X158264D01*
X125783Y330200D02*
X158264D01*
X124231Y345440D02*
X158264D01*
X18716Y359791D02*
Y467032D01*
Y360680D02*
X106225D01*
X18716Y365760D02*
X111472D01*
X18716Y381000D02*
X153823D01*
X18716Y386080D02*
X148743D01*
X18716Y370840D02*
X158264D01*
X18716Y375920D02*
X158264D01*
X18716Y359791D02*
X105792D01*
X128879Y355600D02*
X158264D01*
X122208Y365760D02*
X158264D01*
X106189Y428634D02*
X158264Y376559D01*
X127455Y360680D02*
X158264D01*
X190376Y335280D02*
X226239D01*
X190376Y330200D02*
X227488D01*
X190376Y340360D02*
X226973D01*
X190376Y355600D02*
X227488D01*
X190376Y360680D02*
X226239D01*
X190376Y345440D02*
X230134D01*
X190376Y350520D02*
X231580D01*
X252514Y340564D02*
X267884D01*
X252072Y330200D02*
X267884D01*
X252379Y330911D02*
X267884D01*
X252072Y355600D02*
X267884D01*
X253321Y360680D02*
X267884D01*
X249426Y345440D02*
X283635D01*
X247980Y350520D02*
X279328D01*
X190376Y365760D02*
X226973D01*
X190376Y370840D02*
X230134D01*
X190117Y386080D02*
X253233D01*
X190376Y375920D02*
X263393D01*
X190376Y381000D02*
X258313D01*
X252586Y365760D02*
X273553D01*
X249426Y370840D02*
X268473D01*
X234443Y404870D02*
X274747Y364566D01*
X247336Y413349D02*
X290414Y370271D01*
X260264Y250824D02*
Y264236D01*
X267127D01*
X255894Y275469D02*
X267127Y264236D01*
X273970Y271043D02*
X279054D01*
X275773Y269240D02*
X279054D01*
X273970Y271043D02*
X279335Y265678D01*
X280366Y264160D02*
X281805D01*
X280475Y265490D02*
X288354Y257611D01*
X279054Y268910D02*
Y271043D01*
X288706D02*
Y275870D01*
X265613Y279400D02*
X270094D01*
X261599Y283414D02*
X270094Y274919D01*
X259996Y284480D02*
X270094D01*
X254805Y289560D02*
X270094D01*
Y274919D02*
Y289655D01*
X288706Y294543D02*
Y297783D01*
Y275870D02*
Y289655D01*
X270094D02*
X288706D01*
X270094Y294543D02*
Y299023D01*
Y308675D02*
Y313155D01*
Y294543D02*
X288706D01*
Y307435D02*
Y313155D01*
Y270909D02*
X295179Y264436D01*
X303466D01*
X290375Y269240D02*
X344204D01*
X288706Y271043D02*
Y275870D01*
Y279400D02*
X294973D01*
Y272003D02*
X317167D01*
X288706Y274320D02*
X294973D01*
X303466Y248324D02*
Y264436D01*
Y264160D02*
X344204D01*
X317167Y274320D02*
X344204D01*
X317167Y279400D02*
X344204D01*
X317167Y284480D02*
X344204D01*
X288706Y294640D02*
X294973D01*
X288706Y284480D02*
X294973D01*
X288706Y289560D02*
X294973D01*
X288706Y307435D02*
X294973D01*
X288706Y309880D02*
X294973D01*
X288706Y297783D02*
X294973D01*
Y307435D02*
Y312197D01*
Y272003D02*
Y291180D01*
X344204Y261704D02*
Y288716D01*
X317167Y272003D02*
Y291180D01*
X294973Y293020D02*
X317167D01*
X294973D02*
Y297783D01*
Y291180D02*
X317167D01*
Y293020D02*
Y312197D01*
X267884Y328854D02*
Y330911D01*
X270094Y313155D02*
X288706D01*
X267884Y328854D02*
X283296D01*
X267884Y340564D02*
Y342266D01*
X283296D01*
X267884Y351154D02*
X279091D01*
X283296Y328854D02*
Y342266D01*
X280943Y348132D02*
X290414Y338661D01*
X283296Y335280D02*
X290414D01*
Y330734D02*
Y338661D01*
X283296Y340360D02*
X288715D01*
X296212Y354235D02*
X301100Y349347D01*
X267884Y351154D02*
Y364566D01*
X274747D01*
X275654Y388344D02*
X283941D01*
X275654D02*
Y404456D01*
X279685Y381000D02*
X291285D01*
X274605Y386080D02*
X286205D01*
X290414Y370271D02*
Y372846D01*
X284765Y375920D02*
X294894D01*
X290414Y372846D02*
X294894D01*
Y377391D01*
X283941Y388344D02*
X294894Y377391D01*
X290766Y395169D02*
X303125Y382809D01*
X290414Y330734D02*
X309026D01*
X294973Y312197D02*
X317167D01*
X309026Y330734D02*
Y336455D01*
Y346107D02*
Y349347D01*
X301100D02*
X309026D01*
Y346107D02*
X314023D01*
X299926Y350520D02*
X314023D01*
X309026Y335280D02*
X314023D01*
Y331693D02*
Y336455D01*
Y331693D02*
X336217D01*
Y350870D01*
X309026Y336455D02*
X314023D01*
Y346107D02*
Y350870D01*
X336217D01*
X314023Y352710D02*
X336217D01*
X296212Y354235D02*
X309026D01*
Y360680D02*
X314023D01*
X309026Y354235D02*
Y372846D01*
X304546D02*
X309026D01*
X304546D02*
Y379390D01*
X309026Y365760D02*
X314023D01*
X309026Y370840D02*
X314023D01*
X309026Y355600D02*
X314023D01*
Y352710D02*
Y371887D01*
X336217Y352710D02*
Y371887D01*
X314023D02*
X336217D01*
X51252Y20320D02*
X420493D01*
X41916Y10160D02*
X433066D01*
X47962Y15240D02*
X425573D01*
X51252Y40640D02*
X400173D01*
X47962Y45720D02*
X395093D01*
X53002Y25400D02*
X415413D01*
X53002Y35560D02*
X405253D01*
X53556Y30480D02*
X410333D01*
X392369Y48444D02*
X426767Y14047D01*
X183844Y50800D02*
X384964D01*
X188287Y55880D02*
X384964D01*
Y48444D02*
X392369D01*
X384964D02*
Y57922D01*
X190376Y66040D02*
X384166D01*
X190123Y60960D02*
X384166D01*
X353393Y145003D02*
X375587D01*
Y149765D01*
X190376Y71120D02*
X384964D01*
X190376Y76200D02*
X384964D01*
X415076Y71151D02*
Y78556D01*
X384964Y69078D02*
Y78556D01*
X415107Y71120D02*
X490179D01*
X415076Y71151D02*
X444771Y41456D01*
X384964Y78556D02*
X394442D01*
X415076Y76200D02*
X489672D01*
X405598Y78556D02*
X415076D01*
X435427Y50800D02*
X523694D01*
X38615Y8556D02*
X1160251D01*
X438120Y9344D02*
X525105D01*
X420187Y66040D02*
X493399D01*
X190376Y81280D02*
X491465D01*
X430347Y55880D02*
X523694D01*
X425267Y60960D02*
X523694D01*
X444771Y41456D02*
X518455D01*
X440507Y45720D02*
X522719D01*
X509901Y66040D02*
X523694D01*
X511836Y81280D02*
X525047D01*
X190376Y121920D02*
X601604D01*
X190376Y111760D02*
X769657D01*
X190376Y116840D02*
X601604D01*
X190376Y137160D02*
X601604D01*
X190376Y142240D02*
X601604D01*
X190376Y127000D02*
X601604D01*
X190376Y132080D02*
X601604D01*
X190376Y86360D02*
X498128D01*
X505172D02*
X527694D01*
X190376Y91440D02*
X789977D01*
X190376Y106680D02*
X774737D01*
X375587Y147320D02*
X556924D01*
X190376Y96520D02*
X784897D01*
X190376Y101600D02*
X779817D01*
X375587Y159417D02*
X378024D01*
X375587Y149765D02*
X382091D01*
X378024Y159417D02*
Y162524D01*
X375587Y162560D02*
X378024D01*
X362615Y164180D02*
X375587D01*
X378024Y162524D02*
Y163897D01*
Y162524D02*
Y163897D01*
X400343Y147743D02*
X420077D01*
X400343D02*
Y153004D01*
X384689Y150524D02*
X394136D01*
Y153004D01*
Y152400D02*
X400343D01*
X394136Y153004D02*
X400343D01*
X349526Y164426D02*
X360703D01*
X353393Y166020D02*
X375049D01*
X353393Y185197D02*
X375587D01*
X311997Y193040D02*
X416597D01*
X375587Y159417D02*
Y164180D01*
Y177416D02*
Y185197D01*
X382340Y179394D02*
X400343D01*
X420077Y147743D02*
Y162759D01*
Y152400D02*
X500417D01*
X420077Y157480D02*
X495337D01*
X420077Y179394D02*
X446024D01*
X400343Y179917D02*
X420077D01*
Y162560D02*
X490257D01*
X420077Y163282D02*
X489535D01*
X501034Y151784D01*
X498569Y177034D02*
X512426Y163176D01*
X507963Y167640D02*
X561862D01*
X498299Y177292D02*
X509016D01*
X470281Y179394D02*
X484759D01*
X502883Y172720D02*
X560904D01*
X509016Y177800D02*
X560904D01*
X426720Y186254D02*
X446024D01*
X375587Y182880D02*
X446024D01*
Y179394D02*
Y186254D01*
X311997Y187960D02*
X421763D01*
X413490Y196147D02*
X421023Y188613D01*
X470281Y182880D02*
X484759D01*
X470281Y187960D02*
X484759D01*
X509016Y182880D02*
X560965D01*
X509016Y187960D02*
X561254D01*
X470281Y193040D02*
X484759D01*
X509016D02*
X587127D01*
X518455Y41456D02*
X523694Y46695D01*
X513121Y71120D02*
X523694D01*
Y46695D02*
Y74830D01*
X513628Y76200D02*
X523753D01*
X536459Y14047D02*
X551103Y28691D01*
X555806Y40045D02*
Y74830D01*
X550924Y86360D02*
X551806D01*
X527694D02*
X528576D01*
X551806Y85434D02*
Y86886D01*
X527694Y85434D02*
Y86886D01*
X529146D01*
X550354D02*
X551806D01*
X556924Y146884D02*
Y162996D01*
X571536Y146884D02*
X583536D01*
Y151546D01*
X601604Y112254D02*
Y149366D01*
X568924Y146884D02*
X571536D01*
X556924D02*
X568924D01*
X571536D01*
X583536Y147320D02*
X601604D01*
X542732Y20320D02*
X1148525D01*
X530159Y10160D02*
X1157301D01*
X537652Y15240D02*
X1151642D01*
X555167Y35560D02*
X761374D01*
X554454Y81280D02*
X790774D01*
X547812Y25400D02*
X1146898D01*
X552646Y30480D02*
X1146449D01*
X555806Y50800D02*
X761374D01*
X555806Y55880D02*
X761374D01*
X555806Y40640D02*
X761374D01*
X555806Y45720D02*
X761374D01*
X555806Y71120D02*
X790774D01*
X555747Y76200D02*
X790774D01*
X555806Y60960D02*
X790774D01*
X555806Y66040D02*
X790774D01*
X601604Y112254D02*
X628716D01*
X551806Y86360D02*
X790774D01*
X628716Y112254D02*
Y149366D01*
Y147320D02*
X661604D01*
X628716Y116840D02*
X661604D01*
X628716Y121920D02*
X661604D01*
Y112254D02*
X688716D01*
X661604D02*
Y149366D01*
X628716Y137160D02*
X661604D01*
X628716Y142240D02*
X661604D01*
X628716Y127000D02*
X661604D01*
X628716Y132080D02*
X661604D01*
X514786Y157480D02*
X556924D01*
X512982Y152400D02*
X556924D01*
X512982Y162560D02*
X556924D01*
Y162996D02*
X568174D01*
X584286Y154940D02*
Y163254D01*
X577016Y179366D02*
Y181890D01*
X560904Y171450D02*
Y181890D01*
X561254Y184239D02*
Y188596D01*
X564496D01*
X561254Y197484D02*
X564496D01*
X576666Y184239D02*
Y188596D01*
X573424D02*
X576666D01*
X585943Y194224D02*
X591554Y188613D01*
X571065Y196414D02*
X577058D01*
X582580Y194224D02*
X585943D01*
X601604Y149366D02*
X628716D01*
X583875Y152400D02*
X667479D01*
X584286Y157480D02*
X667479D01*
X607641Y163254D02*
X614410D01*
X584286D02*
X607641D01*
X584286Y162560D02*
X667479D01*
X607655Y163254D02*
X621165D01*
X625216Y167305D02*
Y175315D01*
X661604Y149366D02*
X667479D01*
Y175371D01*
X624364Y177800D02*
X665307D01*
X625216Y167640D02*
X667479D01*
X625216Y172720D02*
X667479D01*
X577016Y179366D02*
X607641D01*
X576955Y182880D02*
X665104D01*
X607641Y186254D02*
X614410D01*
X576666Y187960D02*
X592293D01*
X597250Y186254D02*
X607641D01*
Y179366D02*
X614410D01*
X607655Y179366D02*
X621165D01*
X665104Y179067D02*
Y186254D01*
X607655Y186254D02*
X621165D01*
X614410Y186254D02*
X621179D01*
X629920D02*
X665104D01*
X621179D02*
X629920D01*
X344204Y201504D02*
X374616D01*
Y213360D02*
X394113D01*
X374616Y218440D02*
X393746D01*
X374616Y223520D02*
X394113D01*
Y209613D02*
X409290D01*
X394113D02*
Y217006D01*
X409290Y209613D02*
Y216411D01*
X410225Y223520D02*
X411130D01*
X374616Y201504D02*
Y228516D01*
X394113Y222414D02*
Y229807D01*
X344204Y228516D02*
X374616D01*
X327479Y228600D02*
X394113D01*
X331446Y233680D02*
X394115D01*
X331906Y238760D02*
X396059D01*
X394113Y222414D02*
Y229807D01*
X410225Y220177D02*
Y230172D01*
Y228600D02*
X411130D01*
Y222414D02*
Y229807D01*
X394113D02*
Y233509D01*
X396473Y239205D02*
X408084Y250817D01*
X411130Y201844D02*
Y209613D01*
X311997Y198120D02*
X412042D01*
X409290Y213360D02*
X411130D01*
X411130Y209613D02*
Y217006D01*
X374616Y203200D02*
X411130D01*
X374616Y208280D02*
X411130D01*
X427242Y205181D02*
X430057Y202366D01*
X446024D01*
Y206248D01*
X429223Y203200D02*
X446024D01*
Y206248D02*
X470281D01*
X427242Y208280D02*
X561254D01*
X427242Y213360D02*
X581224D01*
X411130Y209613D02*
Y217006D01*
X426307Y223009D02*
Y229807D01*
X411130D02*
X426307D01*
X419477Y239424D02*
X435196D01*
X410225Y230172D02*
X419477Y239424D01*
X413733Y233680D02*
X623414D01*
X418813Y238760D02*
X439584D01*
X427242Y218440D02*
X581224D01*
X427242Y205181D02*
Y219242D01*
X426307Y223520D02*
X604257D01*
X426307Y228600D02*
X623414D01*
X454496Y238760D02*
X623414D01*
X330102Y243840D02*
X401107D01*
X303466Y248920D02*
X406187D01*
X303466Y254000D02*
X408084D01*
X344204Y261704D02*
X374616D01*
Y267154D01*
X303466Y259080D02*
X404147D01*
X374616Y283266D02*
X399410D01*
X374616Y264160D02*
X399067D01*
X396073Y267154D02*
X408084Y255143D01*
Y250817D02*
Y255143D01*
X419477Y266536D02*
X430984D01*
X374616Y267154D02*
X396073D01*
X405107Y280906D02*
X419477Y266536D01*
X317167Y304800D02*
X430984D01*
X317167Y294640D02*
X430984D01*
X317167Y299720D02*
X430984D01*
X247980Y325120D02*
X430984D01*
X283296Y330200D02*
X430984D01*
X317167Y309880D02*
X430984D01*
X253336Y314960D02*
X430984D01*
X374616Y283266D02*
Y288716D01*
X344204D02*
X374616D01*
X317167Y289560D02*
X430984D01*
X336217Y335280D02*
X430984D01*
X336217Y350520D02*
X430984D01*
X336217Y355600D02*
X430984D01*
X336217Y340360D02*
X430984D01*
X336217Y345440D02*
X430984D01*
X416773Y269240D02*
X430984D01*
X435196Y239424D02*
Y242140D01*
X460241Y243840D02*
X462429D01*
X374616Y284480D02*
X430984D01*
X253336Y320040D02*
X430984D01*
X411693Y274320D02*
X430984D01*
X406613Y279400D02*
X430984D01*
X463096Y264160D02*
X464774D01*
X463096Y269240D02*
X744174D01*
X463096Y284480D02*
X744174D01*
X463096Y340360D02*
X761484D01*
X463096Y325120D02*
X761484D01*
X463096Y335280D02*
X761484D01*
X336217Y360680D02*
X431079D01*
X336217Y365760D02*
X432504D01*
X336217Y370840D02*
X433944D01*
X304546Y375920D02*
X433944D01*
X304270Y381000D02*
X586076D01*
X299855Y386080D02*
X580997D01*
X463096Y262801D02*
Y345844D01*
X430984Y266536D02*
Y358940D01*
X463096Y345440D02*
X761484D01*
X463096Y345844D02*
X466056D01*
X433944Y368229D02*
Y377956D01*
X450000D02*
X466056D01*
X433944D02*
X450000D01*
X470281Y179394D02*
Y206248D01*
X509016Y177292D02*
Y206248D01*
X484759Y179394D02*
Y206248D01*
X470281Y198120D02*
X484759D01*
X470281Y203200D02*
X484759D01*
Y206248D02*
X509016D01*
Y198120D02*
X561254D01*
Y197484D02*
Y201841D01*
X597336Y205617D02*
X600587Y202366D01*
X509016Y203200D02*
X560965D01*
X597336Y206974D02*
Y209586D01*
Y205617D02*
Y206974D01*
Y209586D01*
X561254Y206539D02*
Y210896D01*
X564381D01*
X569240Y212526D02*
X580390D01*
X581224Y212483D02*
Y221586D01*
X597336Y213360D02*
X603604D01*
X597336Y209586D02*
Y221586D01*
Y218440D02*
X603604D01*
X581224Y221586D02*
X597336D01*
X600587Y202366D02*
X607641D01*
X614410D01*
X607655Y202366D02*
X621165D01*
X607655Y209254D02*
X621165D01*
X599753Y203200D02*
X623414D01*
X597336Y208280D02*
X623414D01*
X621179Y202366D02*
X623414D01*
Y209936D01*
X639526Y202366D02*
X665104D01*
Y209552D01*
X614410Y202366D02*
X621179D01*
X639526Y203200D02*
X665104D01*
X639526Y208280D02*
X665104D01*
X603604Y213305D02*
Y221315D01*
X607655Y225366D02*
X621165D01*
X639526Y213360D02*
X667748D01*
X639526Y202366D02*
Y243066D01*
X669167Y213616D02*
X682653D01*
X639526Y228600D02*
X684627D01*
X623414Y224684D02*
Y243066D01*
X639526Y218440D02*
X744819D01*
X639526Y223520D02*
X687647D01*
X639526Y238760D02*
X646961D01*
X482451Y243840D02*
X623451D01*
X485374Y248920D02*
X624764D01*
X639489Y243840D02*
X645751D01*
X638176Y248920D02*
X647064D01*
X639526Y233680D02*
X652706D01*
X647064Y235360D02*
X649878D01*
X647064D02*
Y238602D01*
X660476Y249356D02*
Y250772D01*
X656119D02*
X660476D01*
X466056Y345844D02*
Y361900D01*
Y377956D01*
X638176Y247530D02*
Y250772D01*
X624764Y247530D02*
Y250772D01*
X647064Y247530D02*
Y250772D01*
X624764D02*
X629121D01*
X647064D02*
X651421D01*
X633819D02*
X638176D01*
X484546Y259080D02*
X668854D01*
X655320Y233244D02*
X676560D01*
X485958Y254000D02*
X668854D01*
X463096Y279400D02*
X744174D01*
X463096Y289560D02*
X744174D01*
X480106Y264160D02*
X744174D01*
X463096Y274320D02*
X744174D01*
X660476Y249356D02*
X668854D01*
Y260956D01*
X684966D01*
X463096Y294640D02*
X744174D01*
X463096Y299720D02*
X744191D01*
X463096Y304800D02*
X745266D01*
X463096Y309880D02*
X748441D01*
X463096Y314960D02*
X753503D01*
X463096Y320040D02*
X758583D01*
X463096Y330200D02*
X761484D01*
X466056Y360680D02*
X733944D01*
X466056Y365760D02*
X733944D01*
X466056Y350520D02*
X733944D01*
X466056Y355600D02*
X733944D01*
X466056Y370840D02*
X733944D01*
X466056Y375920D02*
X733944D01*
X613924Y381000D02*
X761484D01*
X619003Y386080D02*
X761484D01*
X18716Y406400D02*
X128423D01*
X18716Y396240D02*
X138583D01*
X18716Y401320D02*
X133503D01*
X18716Y421640D02*
X113183D01*
X18716Y426720D02*
X108103D01*
X18716Y411480D02*
X123343D01*
X18716Y416560D02*
X118263D01*
X18716Y391160D02*
X143663D01*
X163677Y416560D02*
X232224D01*
X168757Y411480D02*
X232224D01*
Y410219D02*
Y420784D01*
X153517Y426720D02*
X226224D01*
X104784Y428634D02*
X106189D01*
X226224Y420784D02*
X232224D01*
X158597Y421640D02*
X226224D01*
X18716Y431800D02*
X103470D01*
X104784Y428634D02*
Y430086D01*
X18716Y436880D02*
X101243D01*
X18716Y441960D02*
X100834D01*
X18716Y447040D02*
X102093D01*
X105487Y429337D02*
X106189Y428634D01*
X226224Y420784D02*
Y447896D01*
X128896Y451341D02*
X185673Y394563D01*
X138277Y441960D02*
X226224D01*
X133197Y447040D02*
X226224D01*
X148437Y431800D02*
X226224D01*
X143357Y436880D02*
X226224D01*
X178917Y401320D02*
X237993D01*
X188270Y391160D02*
X248153D01*
X183997Y396240D02*
X243073D01*
X173837Y406400D02*
X233260D01*
X247336Y413349D02*
Y420784D01*
X259365Y401320D02*
X275654D01*
X249205Y411480D02*
X266154D01*
X264445Y396240D02*
X275654D01*
X266154Y408344D02*
X281266D01*
X247336Y420784D02*
X253336D01*
Y421640D02*
X266154D01*
X247336Y416560D02*
X266154D01*
Y424456D02*
X274011D01*
X253336Y420784D02*
Y447896D01*
Y441960D02*
X257908D01*
X253336Y447040D02*
X262927D01*
X226224Y447896D02*
X233186D01*
X246374D02*
X253336D01*
X266154Y408344D02*
Y424456D01*
X253336Y431800D02*
X257908D01*
X253336Y426720D02*
X276275D01*
X253336Y436880D02*
X256104D01*
X258463Y442576D02*
X263543Y447657D01*
X18716Y452120D02*
X104784D01*
X105564D01*
X104784Y451294D02*
Y452746D01*
X106236D01*
X18765Y467360D02*
X113006D01*
X18716Y457200D02*
X226464D01*
X18716Y462280D02*
X226464D01*
X128193Y452043D02*
X128896Y451341D01*
Y452120D02*
X228568D01*
X128896Y451341D02*
Y452746D01*
X127444D02*
X128896D01*
X128116Y452120D02*
X128896D01*
X120674Y467360D02*
X228568D01*
X18796Y467907D02*
Y508541D01*
Y487680D02*
X108697D01*
X18796Y508541D02*
X29939Y519684D01*
X18796Y492760D02*
X228568D01*
X18796Y497840D02*
X235039D01*
X18796Y472440D02*
X106592D01*
X18796Y477520D02*
X104851D01*
X128829D02*
X228568D01*
X18796Y482600D02*
X105402D01*
X29939Y519684D02*
X203200D01*
X128278Y482600D02*
X226464D01*
X124983Y487680D02*
X226464D01*
X252448Y454914D02*
X258351D01*
X250992Y452120D02*
X261303D01*
X258351Y454914D02*
X260486Y452779D01*
X252448Y464566D02*
X260350D01*
X250992Y467360D02*
X292635D01*
X244521Y472440D02*
X269154D01*
X264406Y451384D02*
X269154D01*
X265879Y461036D02*
X269154D01*
X263770Y463145D02*
X265879Y461036D01*
X264635Y462280D02*
X269154D01*
Y462916D02*
X284566D01*
X127088Y472440D02*
X235039D01*
X28415Y518160D02*
X291554D01*
X18796Y508000D02*
X291554D01*
X23335Y513080D02*
X291554D01*
X250992Y477520D02*
X269154D01*
X253096Y482600D02*
X269154D01*
X244521Y497840D02*
X301054D01*
X253096Y487680D02*
X301054D01*
X250992Y492760D02*
X301054D01*
X269525Y391160D02*
X275654D01*
Y404456D02*
X290766D01*
X285154Y408344D02*
Y421949D01*
X281266Y408344D02*
Y418061D01*
X285154Y421949D01*
X281266Y411480D02*
X285154D01*
X281266Y416560D02*
X285154D01*
X290766Y395169D02*
Y404456D01*
X285154Y408344D02*
X300266D01*
Y417131D01*
X303759Y420624D01*
X287661Y424456D02*
X293941D01*
X289925Y426720D02*
X296205D01*
X293941Y424456D02*
X298340Y428855D01*
X269856Y431184D02*
X272577Y433904D01*
X270473Y431800D02*
X281355D01*
X274011Y424456D02*
X283459Y433904D01*
X269154Y450015D02*
Y451384D01*
Y461036D02*
Y462916D01*
X272577Y433904D02*
X283459D01*
X284566Y450016D02*
Y462916D01*
X287661Y424456D02*
X294068Y430863D01*
X306420D01*
Y453057D01*
X284566Y450016D02*
X287243D01*
X284566Y452120D02*
X287243D01*
Y450016D02*
Y453057D01*
X292635Y458763D02*
Y478497D01*
X306420Y431800D02*
X308260D01*
X303759Y420624D02*
X316361D01*
X301760Y430276D02*
X313023D01*
X306420Y447040D02*
X308260D01*
X306420Y452120D02*
X308260D01*
X306420Y436880D02*
X308260D01*
X306420Y441960D02*
X308260D01*
X319780Y422045D02*
X321254Y423518D01*
X322675Y426938D02*
Y430863D01*
X308260D02*
X313023D01*
X322675D02*
X327437D01*
X287243Y453057D02*
X306420D01*
X308260D02*
X313023D01*
X308260Y430863D02*
Y453057D01*
X307651Y458763D02*
X309794D01*
X292635D02*
X307651D01*
X284566Y457200D02*
X313023D01*
X307651Y458763D02*
X309794D01*
X322675Y453057D02*
Y458763D01*
X313023Y453057D02*
Y458763D01*
X327437Y430863D02*
Y453057D01*
X322675D02*
X327437D01*
X322675Y458763D02*
X324809D01*
X309794D02*
X313023D01*
X331034Y461674D02*
X347146D01*
X324809Y458763D02*
Y464154D01*
X269154Y471804D02*
X284566D01*
Y485216D01*
Y482600D02*
X300884D01*
X284566Y472440D02*
X292635D01*
X284566Y477520D02*
X292635D01*
X284566Y462280D02*
X292635D01*
Y478497D02*
X297706D01*
X298966Y480682D02*
X303148Y484864D01*
X301054D02*
X303148D01*
X269154Y471804D02*
Y485216D01*
X284566D01*
X291554Y504864D02*
X306666D01*
X291554D02*
Y520976D01*
X306666D01*
X301054Y484864D02*
Y500976D01*
X316166Y497746D02*
Y500976D01*
X301054D02*
X316166D01*
X306666Y518160D02*
X310554D01*
X306666Y508000D02*
X310554D01*
X306666Y513080D02*
X310554D01*
X324809Y462280D02*
X331034D01*
X324809Y464154D02*
X331034D01*
X316166Y497746D02*
X326400D01*
X310554Y504864D02*
X325666D01*
Y508000D02*
X333033D01*
X331034Y461674D02*
Y464154D01*
X347146Y473674D02*
Y476286D01*
Y461674D02*
Y473674D01*
Y476286D01*
X337859Y488286D02*
X347146D01*
X329819Y496325D02*
X337859Y488286D01*
X347146Y476286D02*
Y488286D01*
X333033Y507265D02*
X352767D01*
X325666Y504864D02*
Y508094D01*
X333033D01*
X325666Y517746D02*
X327709D01*
X325666D02*
Y519789D01*
X324479Y520976D02*
X325666Y519789D01*
Y518160D02*
X327295D01*
X325666Y519789D02*
X327709Y517746D01*
X333033Y507265D02*
Y508094D01*
X352767Y507265D02*
Y511144D01*
X362784Y508664D02*
X378896D01*
Y520664D01*
X362784Y508664D02*
Y511144D01*
X352767D02*
X362784D01*
X378896Y518160D02*
X385847D01*
X8556Y523240D02*
X12225D01*
X8556Y528320D02*
X17305D01*
X8556Y519571D02*
X23250Y534265D01*
X8556Y533400D02*
X22385D01*
X8556Y568960D02*
X139283D01*
X8556Y574040D02*
X127694D01*
X150313Y572694D02*
X152306D01*
Y574687D01*
X127694Y572694D02*
Y574687D01*
Y572694D02*
X129687D01*
X8556Y519571D02*
Y760251D01*
Y594360D02*
X123944D01*
X8556Y599440D02*
X123944D01*
X8556Y614680D02*
X123944D01*
X8556Y619760D02*
X123944D01*
X8556Y604520D02*
X123944D01*
X8556Y609600D02*
X123944D01*
X8556Y579120D02*
X125059D01*
X8556Y584200D02*
X123964D01*
X8556Y589280D02*
X123944D01*
Y585000D02*
Y622500D01*
X156056Y585000D02*
Y603314D01*
Y618426D02*
Y622500D01*
X208755Y523240D02*
X322215D01*
X26670Y535686D02*
X199078D01*
X8556Y538480D02*
X201872D01*
X8556Y543560D02*
X206952D01*
X8556Y548640D02*
X212032D01*
X213835Y528320D02*
X288513D01*
X218915Y533400D02*
X288513D01*
Y523573D02*
X307690D01*
X288513D02*
Y545767D01*
X223995Y538480D02*
X288513D01*
X229075Y543560D02*
X288513D01*
Y545767D02*
X307690D01*
X234155Y548640D02*
X398423D01*
X8556Y553720D02*
X217112D01*
X8556Y558800D02*
X222192D01*
X8556Y563880D02*
X227272D01*
X140717Y568960D02*
X232352D01*
X152306Y574040D02*
X237432D01*
X154941Y579120D02*
X242512D01*
X156036Y584200D02*
X247592D01*
X199078Y535686D02*
X249727Y586335D01*
X239235Y553720D02*
X400650D01*
X206620Y521105D02*
X257686Y572171D01*
X156056Y618426D02*
X303980D01*
X156056Y603314D02*
X303980D01*
X156056Y619760D02*
X306325D01*
X8556Y690880D02*
X125372D01*
X8556Y635000D02*
X129923D01*
X8556Y685800D02*
X129004D01*
X8556Y706120D02*
X123944D01*
X8556Y711200D02*
X123944D01*
X8556Y695960D02*
X124018D01*
X8556Y701040D02*
X123944D01*
X8556Y624840D02*
X124115D01*
X8556Y629920D02*
X125761D01*
X127694Y634306D02*
X129118D01*
X127694Y632813D02*
Y634306D01*
X150882D02*
X152306D01*
X8556Y731520D02*
X123944D01*
X8556Y736600D02*
X124024D01*
X8556Y741680D02*
X125400D01*
X8556Y751840D02*
X14997D01*
X8556Y756920D02*
X10409D01*
X8556Y746760D02*
X26154D01*
X8556Y721360D02*
X123944D01*
X8556Y726440D02*
X123944D01*
X8556Y716280D02*
X123944D01*
Y697500D02*
Y735000D01*
X33846Y746760D02*
X129068D01*
X8556Y655320D02*
X280094D01*
X8556Y645160D02*
X290254D01*
X8556Y650240D02*
X285174D01*
X8556Y670560D02*
X264854D01*
X8556Y675640D02*
X259774D01*
X8556Y660400D02*
X275014D01*
X8556Y665480D02*
X269934D01*
X152306Y632813D02*
Y634306D01*
X155885Y624840D02*
X313114D01*
X154239Y629920D02*
X302689D01*
X8556Y640080D02*
X295334D01*
X150077Y635000D02*
X300359D01*
X286226Y670560D02*
X300274D01*
X8556Y680720D02*
X254694D01*
X49591Y756920D02*
X385454D01*
X52156Y762000D02*
X385454D01*
X150932Y746760D02*
X385454D01*
X45003Y751840D02*
X385454D01*
X150996Y685800D02*
X249614D01*
X154167Y689944D02*
X245470D01*
X300350Y635064D01*
X253949Y702837D02*
X300274Y656512D01*
X156056Y705056D02*
X248600D01*
X156056D02*
Y735000D01*
X306666Y504864D02*
Y520976D01*
X307690Y528320D02*
X309530D01*
X307690Y533400D02*
X309530D01*
X307690Y538480D02*
X309530D01*
X310554Y504864D02*
Y520976D01*
X309530Y523573D02*
X321882D01*
X310554Y520976D02*
X324479D01*
X321882Y523573D02*
X324479Y520976D01*
X328707Y533400D02*
X333033D01*
X328707Y538480D02*
X333033D01*
X330785Y528320D02*
X333033D01*
X328707Y530398D02*
X333033Y526072D01*
X309530Y523573D02*
Y545767D01*
X307690Y523573D02*
Y545767D01*
Y543560D02*
X309530D01*
X308624Y620350D02*
X329881Y641607D01*
X333033Y526072D02*
Y539439D01*
X328707Y530398D02*
Y545767D01*
X352767Y535686D02*
Y539439D01*
X333033D02*
X352767D01*
X309530Y545767D02*
X328707D01*
X319310Y609664D02*
X338360Y628714D01*
X329406Y619760D02*
X361354D01*
Y619214D02*
Y634326D01*
X378896Y532796D02*
Y535276D01*
Y532796D02*
X385160D01*
X378896Y533400D02*
X402744D01*
X352767Y535686D02*
X367200D01*
X369147Y535276D02*
X378896D01*
Y520664D02*
Y523144D01*
Y520664D02*
Y523144D01*
X383161D02*
X385378Y520927D01*
X378896Y523144D02*
X383161D01*
X388580Y531375D02*
X392203Y527752D01*
X316971Y604520D02*
X376343D01*
X352767Y538480D02*
X399273D01*
X328707Y543560D02*
X398014D01*
X324326Y614680D02*
X371314D01*
X361354Y619214D02*
X366780D01*
X319301Y609600D02*
X376343D01*
X366780Y619214D02*
X375616Y610378D01*
X376343Y603543D02*
X391359D01*
X376343D02*
Y609739D01*
X391359Y603543D02*
X393501D01*
X391359D02*
X393501D01*
X392478Y623277D02*
Y628873D01*
Y623277D02*
X393501D01*
X392478D02*
X393501D01*
X316971Y629920D02*
X318194D01*
X334486Y624840D02*
X361354D01*
X319301Y635000D02*
X323274D01*
X318594Y640080D02*
X328354D01*
X341354Y628714D02*
X349410D01*
X338360D02*
X341354D01*
Y628714D02*
X357466D01*
Y629920D02*
X361354D01*
X341354Y643826D02*
X349410D01*
X335230D02*
X341354D01*
X357466Y640080D02*
X361354D01*
X341354Y643826D02*
X357466D01*
X304672Y652114D02*
X311036Y645750D01*
X306546Y650240D02*
X361354D01*
X304672Y652114D02*
X319386D01*
X296386Y660400D02*
X300274D01*
X291306Y665480D02*
X300274D01*
Y671226D02*
X319386D01*
X300274Y656512D02*
Y671226D01*
X357466Y628714D02*
Y643826D01*
X361354Y638214D02*
Y653326D01*
X313335Y645160D02*
X361354D01*
X319386Y652114D02*
Y671226D01*
X361354Y634326D02*
X377466D01*
X361354Y638214D02*
X377466D01*
X357466Y635000D02*
X377805D01*
X377466Y650240D02*
X381333D01*
X379585Y637811D02*
X381333Y639559D01*
Y648050D01*
X377466Y640080D02*
X381333D01*
X377466Y645160D02*
X381333D01*
Y648050D02*
X403527D01*
X381333Y649890D02*
X403527D01*
X361354Y653326D02*
X377466D01*
Y638214D02*
Y653326D01*
X381333Y649890D02*
Y669067D01*
X319386Y660400D02*
X381333D01*
X319386Y665480D02*
X381333D01*
X319386Y655320D02*
X381333D01*
X403527Y649890D02*
Y669067D01*
X385454Y742324D02*
Y766436D01*
X327437Y436880D02*
X433990D01*
X290766Y401320D02*
X576481D01*
X322670Y426720D02*
X438673D01*
X327437Y441960D02*
X434415D01*
X327437Y447040D02*
X436663D01*
X327437Y452120D02*
X442175D01*
X316166Y497840D02*
X561107D01*
X327437Y431800D02*
X435232D01*
X333385Y492760D02*
X561107D01*
X440690Y528774D02*
X480440D01*
X414020D02*
X440690D01*
X527134Y529624D02*
X554146D01*
X485595D02*
X493946D01*
Y533400D02*
X527134D01*
X493946Y529624D02*
Y536148D01*
Y553512D02*
Y560036D01*
X495187Y538480D02*
X527134D01*
X496446Y543560D02*
X527134D01*
Y529624D02*
Y560036D01*
X554146Y529624D02*
Y560036D01*
X496037Y548640D02*
X527134D01*
X290766Y396240D02*
X576746D01*
X294775Y391160D02*
X578166D01*
X254285Y406400D02*
X577330D01*
X300266Y411480D02*
X579430D01*
X300266Y416560D02*
X583247D01*
X319323Y421640D02*
X590694D01*
X322675Y457200D02*
X860585D01*
X466010Y436880D02*
X733990D01*
X465585Y441960D02*
X734415D01*
X461327Y426720D02*
X738673D01*
X464768Y431800D02*
X735232D01*
X463337Y447040D02*
X736663D01*
X457825Y452120D02*
X742175D01*
X347146Y462280D02*
X855505D01*
X347146Y467360D02*
X850425D01*
X347146Y477520D02*
X824909D01*
X347146Y472440D02*
X828773D01*
X347146Y482600D02*
X825911D01*
X18796Y502920D02*
X663814D01*
X352767Y508000D02*
X668894D01*
X347146Y487680D02*
X822921D01*
X378896Y513080D02*
X673974D01*
X391635Y528320D02*
X592814D01*
X554146Y533400D02*
X589175D01*
X399013Y518160D02*
X592814D01*
X399013Y523240D02*
X592814D01*
X554146Y548640D02*
X586994D01*
X554146Y553720D02*
X586994D01*
X554146Y538480D02*
X586994D01*
X554146Y543560D02*
X586994D01*
X244315Y558800D02*
X406106D01*
X414020Y560886D02*
X419390D01*
X443294Y584790D01*
X249395Y563880D02*
X422384D01*
X257686Y572171D02*
X418723Y572171D01*
X254475Y568960D02*
X427464D01*
X440762Y560886D02*
X446060D01*
X428849Y574040D02*
X432544D01*
X443756Y563880D02*
X449054D01*
X448836Y568960D02*
X454134D01*
X429851Y579120D02*
X437624D01*
X425987Y584200D02*
X442704D01*
X253147Y587756D02*
X407038Y587756D01*
X156056Y589280D02*
X407437D01*
X393501Y603543D02*
X408517D01*
Y605854D01*
X156056Y594360D02*
X443294D01*
X156056Y599440D02*
X421114D01*
X414700Y605854D02*
X423917Y596637D01*
X420603Y589280D02*
X443294D01*
X436376Y599440D02*
X443294D01*
X408517Y604520D02*
X416034D01*
X408517Y605854D02*
X414700D01*
X436376Y604520D02*
X443294D01*
X440762Y560886D02*
X456187Y576311D01*
X467432Y560886D02*
X480440D01*
X470426Y563880D02*
X578645D01*
X453916Y574040D02*
X459214D01*
X475506Y568960D02*
X573565D01*
X457966Y579120D02*
X464294D01*
X493946Y553720D02*
X527134D01*
X493946Y558800D02*
X527134D01*
X554146D02*
X583725D01*
X527134Y560036D02*
X554146D01*
X485595D02*
X493946D01*
X480586Y574040D02*
X563647D01*
X485666Y579120D02*
X560232D01*
X458406Y581660D02*
Y609096D01*
Y584200D02*
X469374D01*
X458406Y589280D02*
X474454D01*
X458406Y594360D02*
X479534D01*
X458406Y599440D02*
X484614D01*
X458406Y604520D02*
X489694D01*
X490746Y584200D02*
X556890D01*
X467432Y560886D02*
X513050Y606504D01*
X495826Y589280D02*
X558152D01*
X500906Y594360D02*
X802894D01*
X527694Y606434D02*
X551806D01*
X464194D02*
X488306D01*
X505986Y599440D02*
X558034D01*
X511066Y604520D02*
X558034D01*
X592814Y514974D02*
Y529761D01*
Y514974D02*
X609426D01*
Y528320D02*
X612314D01*
Y514974D02*
X628926D01*
Y520954D01*
X631762Y514683D02*
X650938D01*
X631762D02*
Y520954D01*
X609426Y518160D02*
X612314D01*
X609426Y523240D02*
X612314D01*
X628926Y518160D02*
X631762D01*
X628926Y520954D02*
X631762D01*
X588415Y534160D02*
X592814Y529761D01*
X609426Y533400D02*
X612314D01*
X609426Y514974D02*
Y536586D01*
X599639D02*
X609426D01*
X596646Y539579D02*
X599639Y536586D01*
X628926Y530606D02*
Y536586D01*
X612314Y514974D02*
Y536586D01*
X628926Y530606D02*
X631762D01*
Y536877D01*
X628926Y533400D02*
X631762D01*
X612314Y536586D02*
X628926D01*
X631762Y536877D02*
X644113D01*
X646812Y539576D01*
X620569Y411480D02*
X753913D01*
X621834Y391160D02*
X761484D01*
X622670Y406400D02*
X758993D01*
X572837Y490474D02*
X663019D01*
X572837Y500126D02*
X661020D01*
X616753Y416560D02*
X748833D01*
X609306Y421640D02*
X743753D01*
X623254Y396240D02*
X761484D01*
X623519Y401320D02*
X761484D01*
X652779Y514683D02*
X671956D01*
Y518160D02*
X679054D01*
X667304Y492760D02*
X817841D01*
X672384Y497840D02*
X812761D01*
X650938Y514683D02*
Y530052D01*
Y518160D02*
X652779D01*
Y514683D02*
Y531892D01*
X650938Y528320D02*
X652779D01*
X650938Y530052D02*
X652779Y531892D01*
X650938Y523240D02*
X652779D01*
X671956Y514683D02*
Y532305D01*
X666438Y491895D02*
X701769Y527225D01*
X661020Y500126D02*
X693199Y532305D01*
X671956Y523240D02*
X684134D01*
X671956Y528320D02*
X689214D01*
X671956Y532305D02*
X693199D01*
X586994Y537580D02*
Y555531D01*
X596646Y542914D02*
X609426D01*
X596646Y539579D02*
Y542914D01*
X609426Y558800D02*
X612314D01*
X609426Y563880D02*
X612314D01*
X609426Y548640D02*
X612314D01*
X609426Y553720D02*
X612314D01*
Y542914D02*
X628926D01*
X609426Y543560D02*
X612314D01*
X628926D02*
X631413D01*
X628926Y542914D02*
Y548894D01*
Y558546D02*
X631413D01*
X628926Y558800D02*
X631413D01*
X628926Y548640D02*
X631413D01*
X628926Y548894D02*
X631413D01*
X572593Y569932D02*
X586994Y555531D01*
X569027Y589986D02*
X572180D01*
X565150Y594424D02*
X623570D01*
X612314Y542914D02*
Y564526D01*
X609426Y542914D02*
Y564526D01*
X628926Y558546D02*
Y564526D01*
X631413Y558546D02*
Y564817D01*
X599639Y564526D02*
X609426D01*
X575600Y588565D02*
X599639Y564526D01*
X612314D02*
X628926D01*
X631413Y542623D02*
X643765D01*
X597745Y538480D02*
X645716D01*
X643765Y542623D02*
X646812Y539576D01*
X631413Y542623D02*
Y548894D01*
X650590Y558800D02*
X652430D01*
X650590Y549448D02*
X652430Y547608D01*
X650590Y553720D02*
X652430D01*
X651398Y548640D02*
X652430D01*
X671607Y547037D02*
X790332D01*
X671607Y548640D02*
X802894D01*
X671607Y563880D02*
X802894D01*
X671607Y553720D02*
X802894D01*
X671607Y558800D02*
X802894D01*
X628926Y563880D02*
X631413D01*
X595205Y568960D02*
X802894D01*
X590125Y574040D02*
X802894D01*
X574693Y589280D02*
X802894D01*
X630686Y604520D02*
X802894D01*
X585045Y579120D02*
X802894D01*
X579965Y584200D02*
X802894D01*
X652430Y547608D02*
Y564817D01*
X650590Y549448D02*
Y564817D01*
X671607Y547037D02*
Y564817D01*
X650590Y563880D02*
X652430D01*
X631413Y564817D02*
X650590D01*
X652430D02*
X671607D01*
X630686Y599440D02*
X802894D01*
X423179Y618747D02*
X434603Y607323D01*
X443294Y584790D02*
Y609096D01*
X432326Y609600D02*
X442707D01*
X427246Y614680D02*
X439412D01*
X421925Y619760D02*
X438861D01*
X458993Y609600D02*
X464194D01*
X488306D02*
X494774D01*
X462288Y614680D02*
X464194D01*
X462839Y619760D02*
X464194D01*
X393501Y623277D02*
X408517D01*
Y620966D02*
Y623277D01*
X392478Y624840D02*
X440602D01*
X392478Y628873D02*
X403527D01*
X381333Y669067D02*
X403527D01*
Y629920D02*
X447016D01*
X403527Y628873D02*
Y648050D01*
X464194Y606434D02*
Y630546D01*
X488306Y606434D02*
Y630546D01*
X408517Y620966D02*
X417830D01*
X454684Y629920D02*
X464194D01*
X461098Y624840D02*
X464194D01*
Y630546D02*
X488306D01*
Y614680D02*
X499854D01*
X446060Y560886D02*
X502364Y617190D01*
X488306Y619760D02*
X502361D01*
X488306Y624840D02*
X504102D01*
X488306Y629920D02*
X510516D01*
X403527Y635000D02*
X648144D01*
X525788Y614680D02*
X527694D01*
X522493Y609600D02*
X527694D01*
Y606434D02*
Y630546D01*
X524598Y624840D02*
X527694D01*
X518184Y629920D02*
X527694D01*
X526339Y619760D02*
X527694D01*
Y630546D02*
X551806D01*
X265906Y690880D02*
X648144D01*
X276066Y680720D02*
X678174D01*
X270986Y685800D02*
X648144D01*
X156056Y706120D02*
X648144D01*
X156056Y711200D02*
X648144D01*
X260826Y695960D02*
X648144D01*
X255746Y701040D02*
X648144D01*
X403527Y650240D02*
X648144D01*
X403527Y655320D02*
X648144D01*
X403527Y640080D02*
X648144D01*
X403527Y645160D02*
X648144D01*
X403527Y660400D02*
X648144D01*
X281146Y675640D02*
X678174D01*
X403527Y665480D02*
X678174D01*
X319386Y670560D02*
X678174D01*
X385454Y742324D02*
X409566D01*
X432253Y746760D02*
X438968D01*
X409566D02*
X413568D01*
X409566Y756920D02*
X411125D01*
X434695Y751840D02*
X436525D01*
X409566D02*
X411125D01*
X457653Y746760D02*
X464367D01*
X460095Y751840D02*
X461925D01*
X459974Y757430D02*
X461724Y755680D01*
X409566Y742324D02*
Y766436D01*
Y762000D02*
X413568D01*
X385454Y766436D02*
X409566D01*
X53374Y767080D02*
X424924D01*
X53457Y772160D02*
X430004D01*
X424210Y766366D02*
X432601Y774757D01*
X434896Y755680D02*
X436646Y757430D01*
X464019Y774757D02*
X472410Y766366D01*
X437950Y776976D02*
X458670D01*
X156056Y716280D02*
X648144D01*
X156056Y721360D02*
X684674D01*
X156056Y726440D02*
X684674D01*
X155976Y736600D02*
X684674D01*
X156056Y731520D02*
X684674D01*
X154600Y741680D02*
X685910D01*
X483052Y746760D02*
X504834D01*
X485495Y751840D02*
X504834D01*
Y742324D02*
X528946D01*
X486936Y756920D02*
X504834D01*
X471696Y767080D02*
X475724D01*
X466616Y772160D02*
X480804D01*
X52416Y777240D02*
X609125D01*
X50077Y782320D02*
X649298D01*
X45878Y787400D02*
X650962D01*
X39749Y791444D02*
X661609D01*
X485696Y755680D02*
X491880Y761864D01*
X475010Y766366D02*
X483401Y774757D01*
X504834Y742324D02*
Y761864D01*
X491880D02*
X504834D01*
X488750Y776976D02*
X528099D01*
X551806Y606434D02*
Y630546D01*
Y624840D02*
X557195D01*
X551806Y629920D02*
X560192D01*
X565150Y609536D02*
X623570D01*
X565150Y615514D02*
X623570D01*
X551806Y619760D02*
X558052D01*
X628527Y629920D02*
X648144D01*
X565150Y631626D02*
X623570D01*
X528946Y742324D02*
Y757887D01*
X648144Y625144D02*
Y665256D01*
X648144Y685444D02*
Y716556D01*
X648144Y745144D02*
Y769984D01*
X662256Y685444D02*
Y716556D01*
X630668Y619760D02*
X802894D01*
X551806Y609600D02*
X802894D01*
X551806Y614680D02*
X802894D01*
X648144Y625144D02*
X662256D01*
Y655320D02*
X664094D01*
X631525Y624840D02*
X802894D01*
X662256Y650240D02*
X664094D01*
X662256Y629920D02*
X670244D01*
X664094Y630944D02*
X670244D01*
Y625144D02*
X686356D01*
X670244D02*
Y630944D01*
X662256Y640080D02*
X664094D01*
X662256Y645160D02*
X664094D01*
X662256Y635000D02*
X664094D01*
X676706Y650240D02*
X699074D01*
X648144Y685444D02*
X662256D01*
X648144Y665256D02*
X662256D01*
X662256Y701040D02*
X684674D01*
X662256Y716280D02*
X684674D01*
X648144Y716556D02*
X662256D01*
Y706120D02*
X684674D01*
X662256Y711200D02*
X684674D01*
X664094Y630944D02*
Y659556D01*
X662256Y625144D02*
Y665256D01*
X664094Y659556D02*
X676706D01*
X662256Y660400D02*
X679291D01*
X662256Y685800D02*
X678174D01*
X662256Y690880D02*
X678779D01*
X662256Y695960D02*
X684674D01*
X666656Y762007D02*
X684179Y744485D01*
X528946Y746760D02*
X532948D01*
X551632D02*
X558348D01*
X554075Y751840D02*
X555905D01*
X528946Y756920D02*
X529913D01*
X528946Y757887D02*
X530409Y756425D01*
X528946Y751840D02*
X530505D01*
X554276Y755680D02*
X556026Y757430D01*
X577033Y746760D02*
X583747D01*
X579475Y751840D02*
X581305D01*
X579354Y757430D02*
X581104Y755680D01*
X533448Y774757D02*
X541780Y766425D01*
X543590Y766366D02*
X551981Y774757D01*
X541125Y767080D02*
X544304D01*
X536045Y772160D02*
X549384D01*
X583399Y774757D02*
X591790Y766366D01*
X591076Y767080D02*
X598965D01*
X585996Y772160D02*
X604045D01*
X557330Y776976D02*
X578050D01*
X604875Y756920D02*
X648144D01*
X602433Y746760D02*
X648144D01*
X604875Y751840D02*
X648144D01*
X615519Y769984D02*
X648144D01*
X604315Y758780D02*
X615519Y769984D01*
X607535Y762000D02*
X648144D01*
X612615Y767080D02*
X648144D01*
Y745144D02*
X666656D01*
Y746760D02*
X681903D01*
X666656Y745144D02*
Y762007D01*
Y751840D02*
X676823D01*
X666656Y756920D02*
X671743D01*
X597490Y765605D02*
X610100Y778215D01*
X613520Y779636D02*
X650043D01*
X661710Y787400D02*
X665537D01*
X661609Y791444D02*
X668803Y784038D01*
X664417Y785637D02*
X671589Y778464D01*
X697276D01*
X674940Y781444D02*
X730169D01*
X667733Y782320D02*
X671169D01*
X761374Y34934D02*
X785486D01*
Y59046D01*
X761374D02*
X785486D01*
Y35560D02*
X794996D01*
X785486Y40640D02*
X788582D01*
X810819Y45720D02*
X830737D01*
X785486D02*
X786841D01*
X785486Y50800D02*
X787392D01*
X785486Y55880D02*
X790687D01*
X688716Y112254D02*
Y149084D01*
X735639Y145779D02*
X790774Y90643D01*
X755119Y149084D02*
X804527Y99677D01*
X688716Y127000D02*
X754417D01*
X688716Y132080D02*
X749337D01*
X688716Y116840D02*
X764577D01*
X688716Y121920D02*
X759497D01*
X761374Y34934D02*
Y59046D01*
X790774Y55959D02*
Y90643D01*
X806886Y55959D02*
Y93980D01*
X772123Y132080D02*
X826124D01*
X777203Y127000D02*
X826124D01*
Y126724D02*
Y143336D01*
X806886Y71120D02*
X835224D01*
X802664Y35560D02*
X837767D01*
X806886Y66040D02*
X835224D01*
X806886Y86360D02*
X835224D01*
X806886Y91440D02*
X835224D01*
X806886Y76200D02*
X835224D01*
X806886Y81280D02*
X835224D01*
X809078Y40640D02*
X832367D01*
X849093Y35560D02*
X863167D01*
X810268Y50800D02*
X831256D01*
X806973Y55880D02*
X834282D01*
X806886Y60960D02*
X835224D01*
X851336Y86360D02*
X860624D01*
X797523Y106680D02*
X835224D01*
X806475Y96520D02*
X835224D01*
X802603Y101600D02*
X835224D01*
X782283Y121920D02*
X835224D01*
X826124Y126724D02*
X833847D01*
X792443Y111760D02*
X835224D01*
X787363Y116840D02*
X835224D01*
Y56756D02*
Y125343D01*
X833984Y126584D02*
X835224Y125343D01*
X847736Y135617D02*
X848977Y134376D01*
X847736Y135617D02*
Y143336D01*
X850583Y132080D02*
X851524D01*
X847736Y137160D02*
X851524D01*
X688716Y149084D02*
X715076D01*
X688716Y142240D02*
X739177D01*
X688716Y147320D02*
X734433D01*
X683591Y157480D02*
X687964D01*
X683591Y162560D02*
X687964D01*
X683591Y149366D02*
X687964D01*
X683591Y152400D02*
X687964D01*
X733279Y151475D02*
Y165448D01*
X688716Y137160D02*
X744257D01*
X715076Y162560D02*
X733279D01*
X715076Y167640D02*
X731087D01*
X715076Y152400D02*
X733279D01*
X715076Y157480D02*
X733279D01*
X683591Y149366D02*
Y175114D01*
Y167640D02*
X687964D01*
X686716Y182880D02*
X687964D01*
X683591Y172720D02*
X687964D01*
X686513Y177800D02*
X687964D01*
X715076Y183651D02*
X733279Y165448D01*
X715076Y149084D02*
Y183651D01*
Y182880D02*
X715847D01*
X715076Y172720D02*
X726007D01*
X715076Y177800D02*
X720927D01*
X756883Y147320D02*
X826124D01*
X767043Y137160D02*
X826124D01*
X761963Y142240D02*
X826124D01*
X755119Y149084D02*
X775076D01*
Y160793D01*
Y152400D02*
X826124D01*
X775076Y157480D02*
X826124D01*
Y143336D02*
X847736D01*
X826124Y146224D02*
X847736D01*
Y142240D02*
X851524D01*
X847736Y147320D02*
X851524D01*
X847736Y162560D02*
X851524D01*
X775876D02*
X826124D01*
X847736Y152400D02*
X851524D01*
X847736Y157480D02*
X851524D01*
X776918Y167640D02*
X828874D01*
X776931Y172720D02*
X828874D01*
X743713Y177800D02*
X744819D01*
X738633Y182880D02*
X744819D01*
X776931Y177800D02*
X828874D01*
X776931Y182880D02*
X828874D01*
X826124Y162836D02*
X828874D01*
X826124Y146224D02*
Y162836D01*
X847736Y146224D02*
Y162836D01*
X844986D02*
X847736D01*
X844986Y177800D02*
X854274D01*
X844986Y182880D02*
X854274D01*
X844986Y167640D02*
X854274D01*
X844986Y172720D02*
X854274D01*
X855604Y50800D02*
X856656D01*
X854493Y40640D02*
X857767D01*
X852578Y55880D02*
X859682D01*
X851336Y71120D02*
X860624D01*
X851336Y60960D02*
X860624D01*
X851336Y66040D02*
X860624D01*
X879893Y40640D02*
X883167D01*
X881004Y50800D02*
X882056D01*
X877978Y55880D02*
X885082D01*
X876736Y76200D02*
X886024D01*
X876736Y66040D02*
X886024D01*
X876736Y71120D02*
X886024D01*
X851336Y57000D02*
Y128680D01*
Y76200D02*
X860624D01*
X851336Y81280D02*
X860624D01*
X851336Y101600D02*
X860624D01*
X851336Y106680D02*
X860624D01*
X851336Y91440D02*
X860624D01*
X851336Y96520D02*
X860624D01*
Y56756D02*
Y125343D01*
X876736Y57000D02*
Y128680D01*
Y81280D02*
X886024D01*
X876736Y86360D02*
X886024D01*
X876736Y101600D02*
X886024D01*
X876736Y106680D02*
X886024D01*
X876736Y91440D02*
X886024D01*
X876736Y96520D02*
X886024D01*
X874493Y35560D02*
X888567D01*
X905293Y40640D02*
X908567D01*
X899893Y35560D02*
X913967D01*
X925293D02*
X939367D01*
X950693D02*
X964767D01*
X930693Y40640D02*
X933967D01*
X956093D02*
X959367D01*
X906404Y50800D02*
X907456D01*
X876736Y60960D02*
X886024D01*
Y56756D02*
Y125343D01*
X903378Y55880D02*
X910482D01*
X902136Y57000D02*
Y128680D01*
X931804Y50800D02*
X932856D01*
X928778Y55880D02*
X935882D01*
X957204Y50800D02*
X958256D01*
X954178Y55880D02*
X961282D01*
X851336Y121920D02*
X860624D01*
X851336Y111760D02*
X860624D01*
X851336Y116840D02*
X860624D01*
X851524Y126724D02*
X859247D01*
X851524D02*
Y143336D01*
X859383Y126584D02*
X860624Y125343D01*
X851524Y143336D02*
X873136D01*
X875983Y132080D02*
X876924D01*
Y126724D02*
Y143336D01*
X873136Y135617D02*
X874377Y134376D01*
X873136Y135617D02*
Y143336D01*
Y137160D02*
X876924D01*
X873136Y142240D02*
X876924D01*
X851524Y146224D02*
Y162836D01*
Y146224D02*
X873136D01*
X851524Y162836D02*
X854274D01*
X870386Y177800D02*
X879674D01*
X870386Y182880D02*
X879674D01*
X870386Y167640D02*
X879674D01*
X870386Y172720D02*
X879674D01*
X873136Y152400D02*
X876924D01*
X873136Y146224D02*
Y162836D01*
Y147320D02*
X876924D01*
Y146224D02*
Y162836D01*
X873136Y162560D02*
X876924D01*
X870386Y162836D02*
X873136D01*
Y157480D02*
X876924D01*
Y162836D02*
X879674D01*
X876736Y121920D02*
X886024D01*
X876736Y111760D02*
X886024D01*
X876736Y116840D02*
X886024D01*
X884783Y126584D02*
X886024Y125343D01*
X876924Y126724D02*
X884647D01*
X876924Y143336D02*
X898536D01*
X876924Y146224D02*
X898536D01*
Y135617D02*
X899777Y134376D01*
X898536Y135617D02*
Y143336D01*
Y146224D02*
Y162836D01*
X895786D02*
X898536D01*
Y162560D02*
X959629D01*
X909964Y173364D02*
X934076D01*
X895786Y167640D02*
X953840D01*
X895786Y172720D02*
X948760D01*
X895786Y177800D02*
X909964D01*
X895786Y182880D02*
X909964D01*
X948097Y173383D02*
X957296Y164184D01*
X934076Y177800D02*
X938077D01*
X966330Y177936D02*
X973464D01*
X934076Y182880D02*
X935635D01*
X961386D02*
X973464D01*
X959460Y184805D02*
X966330Y177936D01*
X686716Y179067D02*
Y197504D01*
X687964Y186196D02*
X712531D01*
X687964Y149366D02*
Y186196D01*
X686716Y187960D02*
X710767D01*
X686716Y193040D02*
X705687D01*
X690250Y198120D02*
X700607D01*
X693077Y200084D02*
X698643D01*
X712531Y186196D01*
X710036Y211477D02*
X744819Y176694D01*
X697730Y200084D02*
X698643D01*
X693077D02*
X697730D01*
X718313Y203200D02*
X744819D01*
X713233Y208280D02*
X744819D01*
X678660Y213616D02*
X682667D01*
X683823D01*
X679633Y233594D02*
X685424Y227803D01*
X689475Y223084D02*
X705985D01*
X697730Y216196D02*
X701980D01*
X709849Y213360D02*
X744819D01*
Y203200D02*
Y223084D01*
X689740Y216196D02*
X697730D01*
X693480Y223084D02*
X697730D01*
X689475Y216196D02*
X705985D01*
X697730Y223084D02*
X705999D01*
X733553Y187960D02*
X744819D01*
X776931D02*
X828874D01*
Y162836D02*
Y190500D01*
X776931Y193040D02*
X829285D01*
X728473D02*
X744819D01*
X776931Y195144D02*
X830347D01*
X844986Y187960D02*
X854274D01*
X844986Y162836D02*
Y190500D01*
X854274Y162836D02*
Y190500D01*
X844575Y193040D02*
X854685D01*
X843513Y195144D02*
X855747D01*
X868913D02*
X881147D01*
X705999Y223084D02*
X744819D01*
X723393Y198120D02*
X744819D01*
Y176694D02*
Y203200D01*
X776286Y235000D02*
Y292329D01*
X776612Y233680D02*
X947457D01*
X776931Y168285D02*
Y195144D01*
Y211256D02*
Y230495D01*
Y211256D02*
X920143D01*
X776931Y213360D02*
X922247D01*
X776931Y218440D02*
X927327D01*
X776931Y223520D02*
X957617D01*
X776931Y228600D02*
X952537D01*
X689929Y246084D02*
X696817Y239196D01*
X696817Y239196D02*
X697730D01*
X696817Y239196D02*
X705985D01*
X692173Y243840D02*
X744174D01*
X689929Y246084D02*
X705985D01*
X697730Y239196D02*
X705999D01*
X744174D01*
X710036Y250135D02*
Y258145D01*
X709849Y248920D02*
X744174D01*
X710036Y254000D02*
X744174D01*
X684966Y249455D02*
Y260956D01*
X685424Y250135D02*
Y258145D01*
X689475Y262196D02*
X705985D01*
X709927Y259080D02*
X744174D01*
Y239196D02*
Y298980D01*
X748877Y310333D02*
X761484Y322941D01*
X733944Y345844D02*
X761484D01*
X733944D02*
Y377956D01*
X761484Y322941D02*
Y342900D01*
Y345844D01*
X776286Y274320D02*
X939444D01*
X776286Y264160D02*
X939444D01*
X776286Y269240D02*
X939444D01*
X776286Y289560D02*
X939444D01*
X776286Y292329D02*
X788893Y304937D01*
X776286Y279400D02*
X939444D01*
X776286Y284480D02*
X939444D01*
X776286Y248920D02*
X939444D01*
X776286Y254000D02*
X939444D01*
X776286Y238760D02*
X942377D01*
X776286Y243840D02*
X939532D01*
X783677Y299720D02*
X872214D01*
X788757Y304800D02*
X872214D01*
X776286Y259080D02*
X939444D01*
X778597Y294640D02*
X872214D01*
X792261Y309880D02*
X872214D01*
X793541Y314960D02*
X872214D01*
X793596Y350956D02*
Y410560D01*
Y365760D02*
X923944D01*
X793596Y370840D02*
X923944D01*
X793596Y330200D02*
X872214D01*
X793596Y316290D02*
Y334844D01*
Y320040D02*
X872214D01*
X793596Y325120D02*
X872214D01*
X793596Y334844D02*
X872214D01*
X793596Y350956D02*
X872214D01*
X793596Y355600D02*
X923944D01*
X793596Y360680D02*
X923944D01*
X870386Y162836D02*
Y190500D01*
Y187960D02*
X879674D01*
Y162836D02*
Y190500D01*
X869975Y193040D02*
X880085D01*
X894313Y195144D02*
X909964D01*
X895786Y162836D02*
Y190500D01*
X909964Y173364D02*
Y195144D01*
X934076Y187960D02*
X935635D01*
X934076Y173364D02*
Y197476D01*
X895786Y187960D02*
X909964D01*
X895375Y193040D02*
X909964D01*
X934076D02*
X938077D01*
X929149Y197476D02*
X934076D01*
X888826Y293994D02*
Y313044D01*
X891714Y293994D02*
X908326D01*
X891714D02*
Y313044D01*
X872214Y293994D02*
X888826D01*
X872214D02*
Y313044D01*
X888826Y294640D02*
X891714D01*
X888826Y299720D02*
X891714D01*
X920143Y211256D02*
X929324Y220436D01*
X908326Y293994D02*
Y299974D01*
Y299720D02*
X910773D01*
X920817Y299974D02*
X921698D01*
X929176Y197504D02*
X938357Y206684D01*
X941804Y239334D02*
X958341Y222796D01*
X935020D02*
X958341D01*
X955556Y269240D02*
X957913D01*
X956762Y193040D02*
X973464D01*
X955556Y248367D02*
X968757Y235166D01*
X959205Y187960D02*
X973464D01*
Y177936D02*
Y197476D01*
X955556Y264160D02*
X957913D01*
Y260573D02*
X980107D01*
X939444Y245030D02*
Y301444D01*
X955556Y289560D02*
X957913D01*
X955556Y248367D02*
Y301444D01*
X908326Y294640D02*
X939444D01*
X920567Y299720D02*
X939444D01*
X955556Y294640D02*
X957913D01*
X955556Y299720D02*
X957913D01*
Y260573D02*
Y279750D01*
X980107Y260573D02*
Y279750D01*
X955556Y284480D02*
X957913D01*
Y281590D02*
Y300767D01*
X955556Y274320D02*
X957913D01*
X955556Y279400D02*
X957913D01*
X872214Y313044D02*
Y315606D01*
Y313044D02*
Y315606D01*
X888826D02*
Y332094D01*
Y330200D02*
X891714D01*
X872214Y315606D02*
Y332094D01*
X888826Y320040D02*
X891714D01*
X888826Y325120D02*
X891714D01*
Y313044D02*
Y315606D01*
Y313044D02*
Y315606D01*
X888826Y304800D02*
X891714D01*
X888826Y309880D02*
X891714D01*
X888826Y313044D02*
Y315606D01*
Y313044D02*
Y315606D01*
Y314960D02*
X891714D01*
Y315606D02*
Y332094D01*
X872214D02*
Y334656D01*
Y332094D02*
Y334656D01*
X888826D02*
Y353706D01*
X872214D02*
X888826D01*
X872214Y350956D02*
Y353706D01*
X888826Y345440D02*
X891714D01*
X888826Y350520D02*
X891714D01*
X888826Y332094D02*
Y334656D01*
Y332094D02*
Y334656D01*
X891714Y332094D02*
Y334656D01*
Y332094D02*
Y334656D01*
X888826Y335280D02*
X891714D01*
X888826Y340360D02*
X891714D01*
Y353706D02*
X908326D01*
X891714Y334656D02*
Y353706D01*
X908326Y299974D02*
X910523D01*
X925117Y301395D02*
X939444Y315721D01*
X928523Y304800D02*
X939444D01*
X933603Y309880D02*
X939444D01*
X939444Y301444D02*
Y315000D01*
X939444Y301444D02*
Y315721D01*
X951056Y343343D02*
Y347494D01*
X957913Y300767D02*
X964844D01*
X955556Y301444D02*
X964844D01*
X951056Y347494D02*
X954990D01*
X908326Y350956D02*
Y353706D01*
X915670Y350956D02*
X923944D01*
X908326D02*
X915670D01*
X923944Y372894D02*
Y376306D01*
Y372894D02*
Y376306D01*
Y360194D02*
Y363606D01*
Y372894D01*
Y350956D02*
Y360194D01*
Y363606D01*
X951056Y372894D02*
Y376306D01*
Y372894D02*
Y376306D01*
Y363606D02*
X954144D01*
X951056Y363606D02*
Y372894D01*
X976093Y35560D02*
X990167D01*
X982604Y50800D02*
X983656D01*
X981493Y40640D02*
X984767D01*
X979578Y55880D02*
X986682D01*
X1001493Y35560D02*
X1015567D01*
X1026893D02*
X1040967D01*
X1032293Y40640D02*
X1035567D01*
X1006893D02*
X1010167D01*
X1033404Y50800D02*
X1034456D01*
X1030378Y55880D02*
X1037482D01*
X902136Y86360D02*
X1023807D01*
X902136Y91440D02*
X1028887D01*
X902136Y96520D02*
X1033967D01*
X902136Y101600D02*
X1039047D01*
X902136Y106680D02*
X1044127D01*
X902136Y111760D02*
X1049207D01*
X902136Y116840D02*
X1054287D01*
X902136Y60960D02*
X998407D01*
X997127Y59680D02*
X1059221Y121775D01*
X902136Y66040D02*
X1003487D01*
X902136Y71120D02*
X1008567D01*
X902136Y76200D02*
X1013647D01*
X902136Y81280D02*
X1018727D01*
X1077693Y35560D02*
X1091767D01*
X1057693Y40640D02*
X1060967D01*
X1058804Y50800D02*
X1059856D01*
X1052293Y35560D02*
X1066367D01*
X1055778Y55880D02*
X1062882D01*
X1108493Y40640D02*
X1110074D01*
X1083093D02*
X1086367D01*
X1103093Y35560D02*
X1110074D01*
X1084204Y50800D02*
X1085256D01*
X1081178Y55880D02*
X1088282D01*
X1106578D02*
X1110074D01*
X1021193Y60960D02*
X1191444D01*
X1019911Y59678D02*
X1068255Y108022D01*
X1036433Y76200D02*
X1191444D01*
X1041513Y81280D02*
X1191444D01*
X1026273Y66040D02*
X1191444D01*
X1031353Y71120D02*
X1191444D01*
X1056753Y96520D02*
X1191444D01*
X1046593Y86360D02*
X1191444D01*
X1051673Y91440D02*
X1191444D01*
X1068255Y108022D02*
X1138936D01*
X1061833Y101600D02*
X1191444D01*
X1066913Y106680D02*
X1191444D01*
X902136Y121920D02*
X1059371D01*
X962993Y161824D02*
X996936D01*
X997576Y181913D02*
X999039Y183375D01*
X1002633Y164184D02*
X1011849Y173400D01*
X1011169Y172720D02*
X1074616D01*
X997576Y182880D02*
X998543D01*
X1022705Y187960D02*
X1062343D01*
X1020263Y177800D02*
X1069537D01*
X1022705Y182880D02*
X1064466D01*
X997576Y193040D02*
X1001578D01*
X997576Y181913D02*
Y197476D01*
X973464D02*
X997576D01*
X938357Y206684D02*
X1062334D01*
X929793Y198120D02*
X1062334D01*
X934873Y203200D02*
X1062334D01*
X997576Y187960D02*
X999135D01*
X1020263Y193040D02*
X1062334D01*
Y188340D02*
Y206684D01*
X1078446Y191676D02*
Y214740D01*
X902136Y127000D02*
X1138465D01*
X901383Y132080D02*
X1138595D01*
X898536Y137160D02*
X1138595D01*
X898536Y152400D02*
X1094937D01*
X898536Y157480D02*
X1089856D01*
X898536Y142240D02*
X1138595D01*
X898536Y147320D02*
X1100514D01*
X1064918Y124134D02*
X1135599D01*
X1104297Y146376D02*
X1116045D01*
X1107562Y162560D02*
X1116045D01*
X1000300D02*
X1084777D01*
X1107634Y162488D02*
X1116045D01*
X1102482Y167640D02*
X1132398D01*
X1006089D02*
X1079697D01*
X1064694Y182643D02*
X1098601Y148736D01*
X1078446Y208280D02*
X1113344D01*
X1077194Y219054D02*
X1138665D01*
X1078446Y213360D02*
X1144359D01*
X1077546Y218440D02*
X1139279D01*
X1092322Y177800D02*
X1113158D01*
X1078446Y191676D02*
X1107634Y162488D01*
X1097402Y172720D02*
X1114372D01*
X1087242Y182880D02*
X1116587D01*
X1078446Y198120D02*
X1113344D01*
X1078446Y203200D02*
X1113344D01*
X1082162Y187960D02*
X1132398D01*
X1078446Y193040D02*
X1113344D01*
X1110074Y34234D02*
Y45303D01*
Y34234D02*
X1135586D01*
X1110074Y48677D02*
Y59746D01*
X1135586D01*
Y35560D02*
X1147110D01*
X1135586Y34234D02*
Y59746D01*
Y40640D02*
X1148984D01*
X1135586Y45720D02*
X1152457D01*
X1144632Y110381D02*
X1152347Y118096D01*
X1116045Y143335D02*
Y146376D01*
Y143335D02*
X1135222D01*
Y165529D01*
Y162560D02*
X1137062D01*
X1116045Y162488D02*
Y165529D01*
X1135222Y152400D02*
X1137062D01*
X1135222Y157480D02*
X1137062D01*
X1135599Y124134D02*
X1138595Y127129D01*
X1154707Y123793D02*
Y143335D01*
X1135222Y147320D02*
X1137062D01*
Y143335D02*
Y165529D01*
X1138595Y127129D02*
Y143335D01*
X1137062D02*
X1138595D01*
X1135586Y50800D02*
X1158944D01*
X1151091Y116840D02*
X1191444D01*
X1154486Y121920D02*
X1191444D01*
X1135586Y55880D02*
X1191444D01*
X1146011Y111760D02*
X1191444D01*
X1154707Y127000D02*
X1191444D01*
X1187543Y45720D02*
X1191444D01*
X1181057Y50800D02*
X1191444D01*
X1154707Y142240D02*
X1191444D01*
X1154707Y143335D02*
X1156239D01*
X1154707Y132080D02*
X1191444D01*
X1154707Y137160D02*
X1191444D01*
X1156239Y143335D02*
Y146630D01*
Y162742D02*
X1160068D01*
X1156239D02*
Y165529D01*
Y146630D02*
X1163405D01*
X1160068Y162742D02*
X1160621Y163295D01*
X1169101Y148989D02*
X1174373Y154262D01*
X1166667Y147320D02*
X1191444D01*
X1172512Y152400D02*
X1191444D01*
X1176733Y159958D02*
Y166768D01*
X1176342Y157480D02*
X1191444D01*
X1176733Y162560D02*
X1191444D01*
X1116045Y165529D02*
X1135222D01*
X1123693Y182880D02*
X1132398D01*
Y166768D02*
Y189406D01*
X1137062Y165529D02*
X1156239D01*
X1132398Y166768D02*
X1153510D01*
X1125908Y172720D02*
X1132398D01*
X1127122Y177800D02*
X1132398D01*
X1113344Y189406D02*
Y212018D01*
Y189406D02*
X1132398D01*
X1113344Y212018D02*
X1133456D01*
Y191880D02*
Y212018D01*
X1153510Y166768D02*
Y191880D01*
X1133456D02*
X1153510D01*
X1133456Y203200D02*
X1154519D01*
X1133456Y208280D02*
X1149439D01*
X1133456Y198120D02*
X1158344D01*
X1138665Y219054D02*
X1158344Y199375D01*
X1153510Y167640D02*
X1158398D01*
Y166768D02*
X1160621D01*
X1158398D02*
Y189406D01*
X1153510Y182880D02*
X1158398D01*
X1153510Y187960D02*
X1158398D01*
X1153510Y172720D02*
X1158398D01*
X1153510Y177800D02*
X1158398D01*
X1176733Y166768D02*
X1179510D01*
X1160621Y163295D02*
Y166768D01*
X1179510Y167640D02*
X1191444D01*
X1179510Y166768D02*
Y191880D01*
Y182880D02*
X1191444D01*
X1179510Y187960D02*
X1191444D01*
X1179510Y172720D02*
X1191444D01*
X1179510Y177800D02*
X1191444D01*
X1133456Y193040D02*
X1158344D01*
X1158398Y189406D02*
Y191880D01*
X1158344Y189406D02*
Y199375D01*
X1156985Y223520D02*
X1160344D01*
X1151905Y228600D02*
X1160344D01*
X1176456Y218440D02*
X1191444D01*
X1176456Y223520D02*
X1191444D01*
X1178456Y191880D02*
X1179510D01*
X1178456D02*
Y212018D01*
Y193040D02*
X1191444D01*
X1178456Y198120D02*
X1191444D01*
X1176456Y212018D02*
X1178456D01*
X1176456Y213360D02*
X1191444D01*
X1178456Y203200D02*
X1191444D01*
X1178456Y208280D02*
X1191444D01*
X980107Y264160D02*
X984583D01*
X955556Y248920D02*
X1027095D01*
X984583Y260573D02*
X1006777D01*
X980107Y269240D02*
X984583D01*
X980107Y274320D02*
X984583D01*
X1006777Y269240D02*
X1011253D01*
X1006777Y264160D02*
X1011253D01*
X1006777Y274320D02*
X1011253D01*
X957913Y279750D02*
X980107D01*
Y279400D02*
X984583D01*
Y281590D02*
X1006777D01*
X957913D02*
X980107D01*
Y291469D01*
Y284480D02*
X984583D01*
Y281590D02*
Y300767D01*
X1006777Y260573D02*
Y279750D01*
X984583Y260573D02*
Y279750D01*
X1006777Y279400D02*
X1011253D01*
Y260573D02*
Y279750D01*
X984583D02*
X1006777D01*
Y281590D02*
Y293942D01*
Y284480D02*
X1011253D01*
Y281590D02*
Y298419D01*
X960083Y243840D02*
X1030092D01*
X968757Y235166D02*
X1142002D01*
X965163Y238760D02*
X1160344D01*
X955556Y254000D02*
X1027952D01*
X955556Y259080D02*
X1032547D01*
X1011253Y260573D02*
X1033447D01*
X1054210Y242134D02*
X1074050D01*
X1035050D02*
X1054210D01*
X1033447Y264160D02*
X1037627D01*
X1033447Y269240D02*
X1037923D01*
X1029353Y255886D02*
X1037923Y264456D01*
X1060117Y269240D02*
X1061867D01*
X1033447Y260573D02*
Y279750D01*
Y274320D02*
X1037923D01*
X1033447Y279400D02*
X1037923D01*
X1011253Y281590D02*
X1033447D01*
Y300767D01*
X1011253Y279750D02*
X1033447D01*
Y284480D02*
X1037923D01*
Y279750D02*
X1060117D01*
X1037923Y264456D02*
Y279750D01*
X1060117Y267490D02*
X1064593Y271966D01*
X1060117Y279400D02*
X1064593D01*
X1037923Y281590D02*
X1060117D01*
X1037923D02*
Y300767D01*
X1060117Y284480D02*
X1064593D01*
X1060117Y281590D02*
Y300767D01*
X980107Y289560D02*
X984583D01*
X980956Y299720D02*
X984583D01*
X980956Y295068D02*
Y301444D01*
X980945Y294640D02*
X984583D01*
X980956Y301444D02*
X990244D01*
X1006777Y293942D02*
X1011175Y298340D01*
X999952Y300767D02*
X1000629Y301444D01*
X1006777Y289560D02*
X1011253D01*
X1007475Y294640D02*
X1011253D01*
X990244Y301444D02*
X993656D01*
X990244D02*
X993656D01*
X984583Y300767D02*
X999952D01*
X993656Y301444D02*
X1000629D01*
X954898Y345186D02*
X1011536D01*
X951056Y345440D02*
X1019847D01*
X961292Y350520D02*
X1014767D01*
X951056Y365760D02*
X999527D01*
X951056Y370840D02*
X994447D01*
X963096Y355600D02*
X1009687D01*
X961292Y360680D02*
X1004607D01*
X1025296Y328556D02*
X1028344D01*
X1025296D02*
Y331426D01*
X1018361Y340360D02*
X1024927D01*
X1014956Y343765D02*
X1023875Y334846D01*
X1028526Y300767D02*
X1033447D01*
Y299720D02*
X1037923D01*
X1031756Y301444D02*
X1040964D01*
X1028526D02*
X1031756D01*
X1028344Y328556D02*
X1031756D01*
X1028526Y301444D02*
X1031756D01*
Y328556D02*
X1036731D01*
X1033447Y289560D02*
X1037923D01*
X1033447Y294640D02*
X1037923D01*
X1060117Y289560D02*
X1064593D01*
X1060117Y294640D02*
X1064593D01*
X1057076Y300767D02*
X1060117D01*
X1037923D02*
X1040964D01*
X1060117Y299720D02*
X1064593D01*
X1057156Y301444D02*
X1066444D01*
X1025296Y330200D02*
X1035087D01*
X976013Y389273D02*
X1036731Y328556D01*
X989766Y398307D02*
X1054072Y334001D01*
X1023441Y335280D02*
X1030007D01*
X1017233Y370840D02*
X1077144D01*
X1022313Y365760D02*
X1079144D01*
X1012153Y375920D02*
X1077814D01*
X1028344Y328556D02*
X1031756D01*
X1052793Y335280D02*
X1054622D01*
X1047713Y340360D02*
X1079144D01*
X1032473Y355600D02*
X1079144D01*
X1027393Y360680D02*
X1079144D01*
X1042633Y345440D02*
X1079144D01*
X1037553Y350520D02*
X1079144D01*
X1079746Y244494D02*
X1099137Y263884D01*
X1060117Y274320D02*
X1064593D01*
X1060117Y267490D02*
Y279750D01*
X1064593D02*
X1086787D01*
X1064593Y271966D02*
Y279750D01*
X1099137Y263884D02*
X1109356D01*
Y274320D02*
X1113344D01*
Y268906D02*
X1133456D01*
X1109356Y269240D02*
X1113344D01*
X1086787Y279400D02*
X1087744D01*
X1086787Y274320D02*
Y279750D01*
Y274320D02*
X1087744Y275277D01*
X1109356Y279400D02*
X1113344D01*
X1086787Y281590D02*
Y289374D01*
X1087744Y280496D02*
X1109356D01*
X1087744Y275277D02*
Y280496D01*
X1064593Y281590D02*
X1086787D01*
X1064593D02*
Y300767D01*
X1087744Y283384D02*
X1109356D01*
X1087744D02*
Y290331D01*
X1109356Y263884D02*
Y280496D01*
X1113344Y268906D02*
Y291518D01*
X1133456Y268906D02*
Y291518D01*
X1109356Y283384D02*
Y299996D01*
X1146664Y233680D02*
X1160344D01*
X1089253Y254000D02*
X1160344D01*
X1094333Y259080D02*
X1160344D01*
X1079007Y243840D02*
X1160344D01*
X1084173Y248920D02*
X1160344D01*
X1147699Y232806D02*
X1160344Y220161D01*
X1176456Y238760D02*
X1191444D01*
X1176456Y228600D02*
X1191444D01*
X1176456Y233680D02*
X1191444D01*
X1176456Y254000D02*
X1191444D01*
X1176456Y259080D02*
X1191444D01*
X1176456Y243840D02*
X1191444D01*
X1176456Y248920D02*
X1191444D01*
X1158344Y268906D02*
X1160344D01*
X1109356Y264160D02*
X1160344D01*
Y220161D02*
Y268906D01*
X1133456Y274320D02*
X1158344D01*
X1133456Y279400D02*
X1158344D01*
X1133456Y269240D02*
X1158344D01*
Y268906D02*
Y291518D01*
X1176456Y212018D02*
Y268906D01*
X1178456D02*
Y291518D01*
X1176456Y264160D02*
X1191444D01*
Y39749D02*
Y293786D01*
X1176456Y268906D02*
X1178456D01*
Y279400D02*
X1191444D01*
X1178456Y269240D02*
X1191444D01*
X1178456Y274320D02*
X1191444D01*
X1075394Y300767D02*
X1076071Y301444D01*
X1086787Y284480D02*
X1087744D01*
X1086787Y289374D02*
X1087744Y290331D01*
X1066444Y301444D02*
X1069856D01*
X1066444D02*
X1069856D01*
X1064593Y300767D02*
X1075394D01*
X1069856Y301444D02*
X1076071D01*
X1086973Y289560D02*
X1087744D01*
X1107876Y299996D02*
X1109356D01*
Y284480D02*
X1113344D01*
X1109356Y289560D02*
X1113344D01*
X1107876Y299996D02*
Y301444D01*
Y328556D02*
Y332740D01*
X1079144Y337996D02*
Y365986D01*
X1095256Y339378D02*
Y366200D01*
Y340360D02*
X1097206D01*
X1102434D02*
X1116944D01*
X1095256Y345440D02*
X1116944D01*
X1095256Y360680D02*
X1116944D01*
X1095256Y365760D02*
X1116944D01*
X1095256Y350520D02*
X1116944D01*
X1095256Y355600D02*
X1116944D01*
X1113344Y291518D02*
X1133456D01*
Y284480D02*
X1158344D01*
X1133456Y289560D02*
X1158344D01*
X1107956Y301444D02*
X1120656D01*
Y304800D02*
X1143744D01*
X1109356Y294640D02*
X1190590D01*
X1109356Y299720D02*
X1185510D01*
X1158344Y291518D02*
X1178456D01*
X1182786Y302444D02*
X1191444Y293786D01*
X1178456Y284480D02*
X1191444D01*
X1178456Y289560D02*
X1191444D01*
X1142100Y306444D02*
X1143881Y304663D01*
X1149230Y302444D02*
X1182786D01*
X1107956Y328556D02*
X1119988D01*
X1107465Y335280D02*
X1116944D01*
X1097095Y370840D02*
X1116944D01*
X1107876Y330200D02*
X1118453D01*
X1116944Y334730D02*
Y464100D01*
X1120944Y306444D02*
Y327600D01*
X1120656Y301444D02*
Y327888D01*
X1120944Y306444D02*
X1142100D01*
X1120944D02*
X1142100D01*
X1119163Y329381D02*
X1119988Y328556D01*
X1120944Y306444D02*
Y327600D01*
X1119988Y328556D02*
X1120656Y327888D01*
X738647Y426747D02*
X761484Y403909D01*
X733944Y377956D02*
X761484D01*
Y403909D01*
X761353Y449453D02*
X788893Y421913D01*
X757825Y452120D02*
X865665D01*
X763767Y447040D02*
X870745D01*
X838905Y478880D02*
X873510Y444275D01*
X838791Y477520D02*
X840265D01*
X834927Y472440D02*
X845345D01*
X856768Y482600D02*
X862513D01*
X783376Y527225D02*
X826500Y484101D01*
X841528Y497840D02*
X850425D01*
X804315Y543950D02*
X860358Y487907D01*
X677464Y502920D02*
X807681D01*
X682544Y508000D02*
X802601D01*
X836448Y502920D02*
X845345D01*
X831368Y508000D02*
X840265D01*
X851688Y487680D02*
X860354D01*
X846608Y492760D02*
X855505D01*
X789160Y421640D02*
X923944D01*
X793570Y411480D02*
X923944D01*
X792433Y416560D02*
X923944D01*
X773927Y436880D02*
X923944D01*
X768847Y441960D02*
X923944D01*
X784087Y426720D02*
X923944D01*
X779007Y431800D02*
X923944D01*
X793596Y386080D02*
X923944D01*
X793596Y391160D02*
X923944D01*
X793596Y375920D02*
X923944D01*
X793596Y381000D02*
X923944D01*
X793596Y406400D02*
X923944D01*
X876930Y442854D02*
X923944D01*
X793596Y396240D02*
X923944D01*
X793596Y401320D02*
X923944D01*
X793752Y545616D02*
X881152Y458216D01*
X872008Y467360D02*
X914565D01*
X866928Y472440D02*
X919645D01*
X861848Y477520D02*
X924725D01*
X872307Y482600D02*
X929805D01*
X872307Y492760D02*
X939444D01*
X872307Y513080D02*
X933739D01*
X881152Y458216D02*
X905421D01*
X877088Y462280D02*
X909485D01*
X874466Y487680D02*
X934885D01*
X874466Y508000D02*
X938819D01*
X874554Y497840D02*
X939444D01*
X872487Y502920D02*
X943899D01*
X697784Y523240D02*
X787361D01*
X687624Y513080D02*
X797521D01*
X692704Y518160D02*
X792441D01*
X701769Y527225D02*
X783376D01*
X795808Y543560D02*
X804705D01*
X826288Y513080D02*
X835185D01*
X821208Y518160D02*
X830105D01*
X805968Y533400D02*
X814865D01*
X800888Y538480D02*
X809785D01*
X816128Y523240D02*
X825025D01*
X811048Y528320D02*
X819945D01*
X827786Y564609D02*
Y595921D01*
Y589280D02*
X834427D01*
X827786Y594360D02*
X829347D01*
X827786Y579120D02*
X844587D01*
X827786Y584200D02*
X839507D01*
X833595Y558800D02*
X864907D01*
X828515Y563880D02*
X859827D01*
X838675Y553720D02*
X869987D01*
X827786Y564609D02*
X867094Y525301D01*
X840176Y606317D02*
Y617956D01*
X827786Y568960D02*
X854747D01*
X827786Y574040D02*
X849667D01*
X864075Y528320D02*
X918499D01*
X874377Y518160D02*
X928659D01*
X872309Y523240D02*
X923579D01*
X848835Y543560D02*
X880147D01*
X843755Y548640D02*
X875067D01*
X858995Y533400D02*
X913419D01*
X853915Y538480D02*
X885312D01*
X895228D02*
X908339D01*
X892773Y553720D02*
X903804D01*
X898225Y543560D02*
X904303D01*
X897368Y548640D02*
X903804D01*
X827786Y595921D02*
X884574Y539133D01*
X847053Y599440D02*
X903804D01*
X840176Y606317D02*
X895966Y550527D01*
X840176Y614680D02*
X903804D01*
X849593Y619760D02*
X903804D01*
X841973Y604520D02*
X903804D01*
X840176Y609600D02*
X903804D01*
X877533Y568960D02*
X903804D01*
X872453Y574040D02*
X903804D01*
X887693Y558800D02*
X903804D01*
X882613Y563880D02*
X903804D01*
X857213Y589280D02*
X903804D01*
X852133Y594360D02*
X903804D01*
X867373Y579120D02*
X903804D01*
X862293Y584200D02*
X903804D01*
X923944Y410994D02*
Y414406D01*
Y401706D02*
Y410994D01*
Y414406D01*
Y423694D02*
Y427106D01*
Y436394D01*
Y414406D02*
Y423694D01*
Y427106D01*
Y385594D02*
Y389006D01*
Y398294D01*
Y376306D02*
Y385594D01*
Y389006D01*
Y398294D02*
Y401706D01*
Y398294D02*
Y401706D01*
X951056Y410994D02*
Y414406D01*
Y436394D02*
Y439806D01*
X923944Y452506D02*
Y463089D01*
Y436394D02*
Y439806D01*
Y442854D01*
X918055Y457200D02*
X923944D01*
X913361Y452506D02*
X923944Y463089D01*
X913361Y452506D02*
X923944D01*
X905421Y458216D02*
X935610Y488405D01*
X923944Y436394D02*
Y439806D01*
X951056Y449094D02*
Y452506D01*
Y439806D02*
Y449094D01*
Y452506D01*
Y465206D01*
Y376306D02*
Y385594D01*
Y385594D02*
X954990D01*
X951056Y401706D02*
X954144D01*
X951056Y401706D02*
Y410994D01*
Y406400D02*
X973654D01*
X957746Y386080D02*
X979207D01*
X962685Y396240D02*
X973654D01*
X957654Y401320D02*
X973654D01*
X962685Y391160D02*
X974612D01*
X951056Y423694D02*
Y427106D01*
Y426720D02*
X973654D01*
X951056Y423694D02*
Y427106D01*
Y436394D01*
Y439806D01*
Y431800D02*
X974612D01*
X951056Y436880D02*
X979207D01*
X951056Y410994D02*
Y414406D01*
Y423694D01*
Y411480D02*
X973654D01*
Y394970D02*
Y427990D01*
X951056Y416560D02*
X973654D01*
X951056Y421640D02*
X973654D01*
X923135Y462280D02*
X923944D01*
X926061Y465206D02*
X951056D01*
X926061D02*
X939444Y478589D01*
X933295Y472440D02*
X939444D01*
X906163Y540655D02*
X948263Y498556D01*
X933886Y563880D02*
X960184D01*
X939444Y471444D02*
X952144D01*
X939444D02*
Y478589D01*
X952144Y471444D02*
X955556D01*
X952144D02*
X955556D01*
X939444Y489826D02*
Y498556D01*
X938375Y477520D02*
X939444D01*
Y498556D02*
X948263D01*
X933886Y556736D02*
Y609001D01*
Y584200D02*
X959766D01*
X933886Y589280D02*
X959684D01*
X933886Y604520D02*
X956477D01*
X933886Y594360D02*
X959684D01*
X933886Y599440D02*
X959684D01*
X933886Y574040D02*
X960184D01*
X933886Y579120D02*
X960184D01*
X933886Y568960D02*
X960184D01*
Y562794D02*
Y577794D01*
X935880Y614680D02*
X946317D01*
X934699Y619760D02*
X941237D01*
X959684Y585350D02*
Y601313D01*
X934300Y609600D02*
X951397D01*
X955556Y471444D02*
X964844D01*
X951056Y462280D02*
X977160D01*
X928215Y467360D02*
X974094D01*
X957222Y533400D02*
X961723D01*
X952142Y538480D02*
X961723D01*
X933886Y556736D02*
X961723Y528899D01*
X960184Y562794D02*
X975296D01*
X964844Y471444D02*
X968256D01*
X964844D02*
X968256D01*
X974469D01*
X971276Y520350D02*
X973116Y518510D01*
X961723Y528899D02*
Y539527D01*
X960184Y577906D02*
Y582556D01*
X975296Y574040D02*
X977104D01*
X975296Y562794D02*
Y577794D01*
Y563880D02*
X980366D01*
X975296Y568960D02*
X977590D01*
X975296Y577906D02*
Y582556D01*
X975796Y585350D02*
Y604650D01*
X975296Y579120D02*
X978623D01*
X686356Y625144D02*
Y628944D01*
X696856D01*
X686356Y641556D02*
X696856D01*
X684244D02*
X686356D01*
X676706D02*
X684244D01*
X686356D01*
X676706Y645160D02*
X699074D01*
Y628700D02*
X699350Y627313D01*
X699074Y628700D02*
Y650500D01*
X700136Y626136D02*
X701313Y625350D01*
X699350Y627313D02*
X700136Y626136D01*
X696856Y640080D02*
X699074D01*
X696856Y628944D02*
Y641556D01*
Y629920D02*
X699074D01*
X696856Y635000D02*
X699074D01*
X676706Y641556D02*
Y659556D01*
X678450Y661612D02*
X679236Y660436D01*
X678174Y663000D02*
X678450Y661612D01*
X678174Y663000D02*
Y689000D01*
X678450Y690387D01*
X679236Y691564D01*
X680413Y692350D01*
X699074Y650500D02*
X699350Y651888D01*
X680413Y659650D02*
X681800Y659374D01*
X699350Y651888D02*
X700136Y653064D01*
X701313Y653850D01*
X679236Y660436D02*
X680413Y659650D01*
Y692350D02*
X681800Y692626D01*
X684674D01*
Y739000D01*
X701313Y625350D02*
X702700Y625074D01*
X715700D01*
X729756Y625144D02*
Y632874D01*
X712144Y625144D02*
X716050D01*
X702700Y654126D02*
X722074D01*
X716050Y625144D02*
X729756D01*
Y632874D02*
X777744D01*
X729756Y629920D02*
X777744D01*
Y625144D02*
Y632874D01*
Y625144D02*
X791856D01*
Y629920D02*
X802894D01*
X791856Y645160D02*
X802894D01*
X791856Y650240D02*
X802894D01*
X791856Y635000D02*
X802894D01*
X791856Y640080D02*
X802894D01*
X701313Y653850D02*
X702700Y654126D01*
X722074D02*
Y659374D01*
X791856Y625144D02*
Y661350D01*
X676706Y655320D02*
X722074D01*
X681800Y659374D02*
X722074D01*
X791856Y660400D02*
X802894D01*
X791856Y661350D02*
Y665256D01*
X791926Y670560D02*
X802894D01*
X791926Y675640D02*
X802894D01*
X791856Y655320D02*
X802894D01*
X791926Y665480D02*
X802894D01*
X791926Y726440D02*
X802894D01*
X791926Y731520D02*
X802894D01*
X791926Y680720D02*
X802894D01*
X791926Y685800D02*
X802894D01*
X684674Y739000D02*
X684950Y740387D01*
X685736Y741564D01*
X686913Y742350D01*
X688300Y742626D01*
X687598Y743064D02*
X727570D01*
X730990Y744485D02*
X732605Y746100D01*
X744144Y748944D02*
X747256D01*
X733991D02*
X736256D01*
X733991D02*
X736256D01*
X744144D02*
X747256D01*
X736256D02*
X744144D01*
X700695Y777044D02*
X709017Y768722D01*
X705579Y772160D02*
X720885D01*
X700488Y777240D02*
X725965D01*
X714256Y767056D02*
X715821D01*
X711144D02*
X714256D01*
X711144D02*
X714256D01*
X710108D02*
X711144D01*
X710098Y767080D02*
X715840D01*
X716177Y767452D02*
X730169Y781444D01*
X766144Y748944D02*
X769256D01*
X688300Y742626D02*
X776144D01*
X733159Y746760D02*
X776144D01*
X755144Y748944D02*
X758256D01*
X747256D02*
X755144D01*
X758256D02*
X766144D01*
X755144D02*
X758256D01*
X791856Y735444D02*
Y739350D01*
X776144Y742626D02*
Y748944D01*
X791926Y736600D02*
X802894D01*
X791856Y741680D02*
X802894D01*
X769256Y748944D02*
X776144D01*
X766144D02*
X769256D01*
X791856Y746760D02*
X802894D01*
X791856Y751840D02*
X802894D01*
X755144Y767056D02*
X758256D01*
X751275D02*
X755144D01*
X751275D02*
X755363Y771144D01*
X755144Y767056D02*
X758256D01*
X751299Y767080D02*
X760781D01*
X791856Y739350D02*
Y766064D01*
Y756920D02*
X802894D01*
X791856Y762000D02*
X802894D01*
X758256Y767056D02*
X760760D01*
X755363Y771144D02*
X764827D01*
X791856Y766064D02*
X799434D01*
X761025Y767342D02*
X764827Y771144D01*
X827786Y645160D02*
X830617D01*
X849357Y619524D02*
X866825Y636992D01*
X827786Y642329D02*
X846473Y661016D01*
X827786Y650240D02*
X835697D01*
X827786Y655320D02*
X840777D01*
X827786Y660400D02*
X845857D01*
X866825Y636992D02*
X874214D01*
X859753Y629920D02*
X901885D01*
X864833Y635000D02*
X902554D01*
X858422Y660400D02*
X860774D01*
X876886Y653769D02*
X877551Y653104D01*
X791926Y661700D02*
Y739000D01*
X802894Y547370D02*
Y762604D01*
X827786Y642329D02*
Y776478D01*
X791926Y695960D02*
X802894D01*
X791926Y701040D02*
X802894D01*
X791926Y690880D02*
X802894D01*
X827786Y695960D02*
X860774D01*
X827786Y665480D02*
X860774D01*
X827786Y670560D02*
X860774D01*
X876886Y653769D02*
Y743220D01*
X860774Y652633D02*
Y743220D01*
X827786Y685800D02*
X860774D01*
X827786Y690880D02*
X860774D01*
X827786Y675640D02*
X860774D01*
X827786Y680720D02*
X860774D01*
X903804Y546352D02*
Y625171D01*
X933559Y621453D02*
X939544D01*
X874214Y636992D02*
X903646D01*
X854673Y624840D02*
X903804D01*
X877551Y653104D02*
X931203D01*
X939544Y621453D02*
X959684Y601313D01*
X950937Y632846D02*
Y636469D01*
Y632846D02*
X973437Y610346D01*
X964924Y633084D02*
X981536D01*
X950937Y636992D02*
X964924D01*
X950937Y653104D02*
X964924D01*
X950937Y635000D02*
X964924D01*
Y633084D02*
Y636992D01*
X876886Y675640D02*
X960307D01*
X876886Y665480D02*
X970467D01*
X876886Y670560D02*
X965387D01*
X876886Y690880D02*
X945067D01*
X876886Y695960D02*
X939987D01*
X876886Y680720D02*
X955227D01*
X876886Y685800D02*
X950147D01*
X931203Y653627D02*
X950937D01*
X964924Y653104D02*
Y654696D01*
X981536Y633084D02*
Y654696D01*
X964924D02*
X981536D01*
X876886Y660400D02*
X975547D01*
X895527Y740420D02*
X975733Y660213D01*
X791926Y716280D02*
X802894D01*
X791926Y706120D02*
X802894D01*
X791926Y711200D02*
X802894D01*
X791926Y721360D02*
X802894D01*
X827786Y751840D02*
X830674D01*
X827786Y741680D02*
X830674D01*
X827786Y746760D02*
X830674D01*
X827786Y711200D02*
X860774D01*
X827786Y716280D02*
X860774D01*
X827786Y701040D02*
X860774D01*
X827786Y706120D02*
X860774D01*
X830674Y740354D02*
X856186D01*
Y751423D01*
X827786Y721360D02*
X860774D01*
X856186Y746760D02*
X857767D01*
X799434Y766064D02*
X802894Y762604D01*
X827786Y756920D02*
X830674D01*
X827786Y762000D02*
X830674D01*
X820106Y786157D02*
X826365Y779898D01*
X830674Y740354D02*
Y765866D01*
X856186D01*
Y762000D02*
X859682D01*
X856186Y754797D02*
Y765866D01*
X827786Y731520D02*
X860774D01*
X827786Y726440D02*
X860774D01*
X876886Y736600D02*
X899347D01*
X856186Y741680D02*
X860774D01*
X827786Y736600D02*
X860774D01*
X876886Y741680D02*
X888567D01*
X876886Y711200D02*
X924747D01*
X876886Y716280D02*
X919667D01*
X876886Y701040D02*
X934907D01*
X876886Y706120D02*
X929827D01*
X876886Y731520D02*
X904427D01*
X879893Y746760D02*
X883167D01*
X876886Y721360D02*
X914587D01*
X876886Y726440D02*
X909507D01*
X881004Y756920D02*
X882056D01*
X903378Y762000D02*
X910482D01*
X877978D02*
X885082D01*
X957204Y756920D02*
X958256D01*
X931804D02*
X932856D01*
X906404D02*
X907456D01*
X954178Y762000D02*
X961282D01*
X928778D02*
X935882D01*
X951056Y381000D02*
X984287D01*
X951056Y375920D02*
X989367D01*
X989766Y401320D02*
X1009044D01*
X989766Y416560D02*
X1009044D01*
X989766Y421640D02*
X1009044D01*
X989766Y406400D02*
X1009044D01*
X989766Y411480D02*
X1009044D01*
X996913Y391160D02*
X1009044D01*
X991833Y396240D02*
X1009044D01*
X1001993Y386080D02*
X1009044D01*
Y381444D02*
Y399794D01*
Y401856D02*
Y418144D01*
Y420206D01*
Y399794D02*
Y401856D01*
Y399794D02*
Y401856D01*
X976013Y433686D02*
X983633Y441306D01*
X989766Y424653D02*
X995026Y429913D01*
X951056Y441960D02*
X984372D01*
X986920Y462280D02*
X993323D01*
X987737Y462994D02*
X991219Y466477D01*
X989766Y398307D02*
Y424653D01*
X991833Y426720D02*
X1009044D01*
Y420206D02*
Y438556D01*
X1003117Y462280D02*
X1004915D01*
X996428Y431800D02*
X1009044D01*
X997285Y436880D02*
X1009044D01*
X1007073Y381000D02*
X1082420D01*
X1009044Y381444D02*
X1027394D01*
X1009044Y418144D02*
Y420206D01*
X1029456Y381444D02*
X1045744D01*
X1027394D02*
X1029456D01*
X1045744D02*
X1047806D01*
X1045744D02*
X1047806D01*
X1027394D02*
X1029456D01*
X1009044Y438556D02*
X1027394D01*
X994287Y441960D02*
X1116944D01*
X951056Y447040D02*
X1084368D01*
X951056Y457200D02*
X1081200D01*
X951056Y452120D02*
X1081200D01*
X1015465Y462280D02*
X1084368D01*
X1045744Y438556D02*
X1047806D01*
X1029456D02*
X1045744D01*
X1047806D02*
X1066156D01*
X1045744D02*
X1047806D01*
X1027394D02*
X1029456D01*
X1027394D02*
X1029456D01*
X983917Y506466D02*
Y518510D01*
Y506466D02*
X985083Y507632D01*
X983917Y508000D02*
X985083D01*
X973116Y518510D02*
X983917D01*
X971276Y520350D02*
X983917D01*
Y513080D02*
X985083D01*
X983917Y518160D02*
X985083D01*
X1006277Y501873D02*
Y519050D01*
X1003978Y498556D02*
X1006356D01*
X1003978D02*
X1006356D01*
X985083Y507632D02*
Y519050D01*
X1006277D01*
X985083Y520890D02*
X1006277D01*
X983917Y528320D02*
X985083D01*
X983917Y520350D02*
Y539527D01*
Y533400D02*
X985083D01*
X961723Y539527D02*
X983917D01*
Y538480D02*
X987624D01*
X947062Y543560D02*
X987624D01*
X983917Y523240D02*
X985083D01*
Y520890D02*
Y538067D01*
X1006277Y520890D02*
Y538067D01*
X1009983Y520350D02*
Y539527D01*
X1003736Y538067D02*
X1006277D01*
X985083D02*
X987624D01*
X1006277Y533400D02*
X1009983D01*
X1003736Y538480D02*
X1009983D01*
X1018056Y468000D02*
Y471444D01*
X1018029Y467360D02*
X1091844D01*
X1018056Y471444D02*
X1019056D01*
X1009983Y499333D02*
X1015564D01*
X1006277Y502920D02*
X1009983D01*
X1006356Y498556D02*
X1015564D01*
Y499333D01*
X1041044Y471444D02*
X1044456D01*
X1031756D02*
X1041044D01*
X1044456D02*
X1053744D01*
X1041044D02*
X1044456D01*
X1019056D02*
X1028344D01*
X1018056D02*
X1019056D01*
X1028344D02*
X1031756D01*
X1028344D02*
X1031756D01*
X1006277Y518160D02*
X1009983D01*
X1006277Y508000D02*
X1009983D01*
X1006277Y513080D02*
X1009983D01*
X1006277Y523240D02*
X1009983D01*
X1006277Y528320D02*
X1009983D01*
Y539527D02*
X1027605D01*
X1003736Y543560D02*
X1027605D01*
X1009983Y518510D02*
X1020784D01*
X1009983Y499333D02*
Y518510D01*
X1020784D02*
X1022624Y520350D01*
X1009983D02*
X1022624D01*
X1027605Y539527D02*
Y547883D01*
X1047806Y381444D02*
X1066156D01*
Y420206D02*
Y438556D01*
Y399794D02*
Y401856D01*
Y418144D01*
Y381444D02*
Y399794D01*
Y401856D01*
Y418144D02*
Y420206D01*
Y418144D02*
Y420206D01*
X1100882Y453219D02*
X1105596Y457934D01*
X1066444Y471444D02*
X1069856D01*
X1079144D02*
X1082556D01*
X1069856D02*
X1079144D01*
X1053744D02*
X1057156D01*
X1053744D02*
X1057156D01*
X1066444D02*
X1069856D01*
X1057156D02*
X1066444D01*
X1089489Y464612D02*
X1091844Y466967D01*
X1107956Y463630D02*
Y471444D01*
X1082556D02*
X1091844D01*
X1079144D02*
X1082556D01*
X1091844Y466967D02*
Y471444D01*
X1066156Y416560D02*
X1116944D01*
X1066156Y406400D02*
X1116944D01*
X1066156Y411480D02*
X1116944D01*
X1066156Y431800D02*
X1116944D01*
X1066156Y436880D02*
X1116944D01*
X1066156Y421640D02*
X1116944D01*
X1066156Y426720D02*
X1116944D01*
X1066156Y386080D02*
X1116944D01*
X1066156Y391160D02*
X1116944D01*
X1096426Y375920D02*
X1116944D01*
X1091820Y381000D02*
X1116944D01*
X1097492Y447040D02*
X1116944D01*
X1100660Y452120D02*
X1116944D01*
X1066156Y396240D02*
X1116944D01*
X1066156Y401320D02*
X1116944D01*
X1107842Y462280D02*
X1116944D01*
X1104863Y457200D02*
X1116944D01*
X1107956Y467360D02*
X1117683D01*
X1107956Y471444D02*
X1120656D01*
X1120944Y471230D02*
Y493556D01*
X1120656Y471444D02*
Y498556D01*
X1119163Y469449D02*
X1120944Y471230D01*
Y493556D01*
X1143270D01*
X1120944D02*
X1143270D01*
X1145051Y495337D01*
X1107876Y513516D02*
X1113344D01*
X1107876Y519653D02*
X1109647D01*
X1107876Y513516D02*
Y519653D01*
Y518160D02*
X1113344D01*
X1109647Y523240D02*
X1113344D01*
X1119476Y498556D02*
X1120656D01*
X1119476D02*
Y511934D01*
X1120656Y497840D02*
X1135891D01*
X1119476Y502920D02*
X1132461D01*
X1119476Y508000D02*
X1133676D01*
X1119476Y511934D02*
X1133456D01*
X1109647Y532676D02*
Y538830D01*
Y533400D02*
X1113344D01*
X1097842Y540670D02*
X1109647D01*
X1096002Y538830D02*
X1097842Y540670D01*
X1096002Y538830D02*
X1109647D01*
Y540670D02*
Y546824D01*
Y519653D02*
Y525807D01*
X1113344Y513516D02*
Y534546D01*
X1133456Y511934D02*
Y534546D01*
X1110363Y528320D02*
X1113344D01*
Y534546D02*
X1133456D01*
X1142997Y497840D02*
X1183240D01*
X1133456Y513080D02*
X1158344D01*
X1150400Y497556D02*
X1182956D01*
X1146426Y502920D02*
X1188320D01*
X1182956Y497556D02*
X1191444Y506044D01*
X1158344Y511934D02*
X1178456D01*
Y518160D02*
X1191444D01*
X1145212Y508000D02*
X1191444D01*
X1178456Y513080D02*
X1191444D01*
X1133456Y523240D02*
X1158344D01*
X1133456Y518160D02*
X1158344D01*
Y511934D02*
Y534546D01*
X1133456Y528320D02*
X1158344D01*
X1133456Y533400D02*
X1158344D01*
X1109647Y538480D02*
X1160344D01*
X1109647Y543560D02*
X1160344D01*
X1178456Y533400D02*
X1191444D01*
X1178456Y511934D02*
Y534546D01*
Y523240D02*
X1191444D01*
X1178456Y528320D02*
X1191444D01*
X1176456Y534546D02*
X1178456D01*
X1158344D02*
X1160344D01*
X1176456Y538480D02*
X1191444D01*
X1176456Y543560D02*
X1191444D01*
X936902Y553720D02*
X987624D01*
X941982Y548640D02*
X987624D01*
Y538067D02*
Y559545D01*
X933886Y558800D02*
X987624D01*
X975714Y584200D02*
X983312D01*
X975796Y589280D02*
X1027860D01*
X1003736Y548640D02*
X1027641D01*
X1003736Y538067D02*
Y564079D01*
Y553720D02*
X1030106D01*
X997888Y584200D02*
X1031028D01*
X1003736Y563880D02*
X1033568D01*
X1003736Y564079D02*
X1033344D01*
X974096Y609600D02*
X1028737D01*
X975796Y599440D02*
X1031028D01*
X975796Y604520D02*
X1033817D01*
X958943Y624840D02*
X1013497D01*
X953863Y629920D02*
X1008417D01*
X969103Y614680D02*
X1023657D01*
X964023Y619760D02*
X1018577D01*
X1000983Y632793D02*
X1005659D01*
X975796Y594360D02*
X1027860D01*
X984424Y633084D02*
X1000983D01*
X984424D02*
Y654696D01*
X1000983Y633084D02*
Y635834D01*
X1003736Y558800D02*
X1035185D01*
X1029965Y553579D02*
X1038047Y561662D01*
X1001944Y580191D02*
X1035071D01*
X1073266Y563880D02*
X1076807D01*
X1073266Y560339D02*
Y584520D01*
Y560339D02*
X1079064Y566137D01*
X1073266Y568960D02*
X1079064D01*
X1073266Y584200D02*
X1079064D01*
X1071709Y589280D02*
X1079064D01*
X1073266Y574040D02*
X1079064D01*
X1073266Y579120D02*
X1079064D01*
X1006407Y631930D02*
X1036518Y601819D01*
X1028330Y632793D02*
X1070907Y590216D01*
X1028330Y632793D02*
X1041177D01*
Y654987D01*
X1036283Y624840D02*
X1077814D01*
X1031203Y629920D02*
X1077144D01*
X1061683Y599440D02*
X1079064D01*
X1056603Y604520D02*
X1079064D01*
X1066763Y594360D02*
X1079064D01*
Y566137D02*
Y622631D01*
X1046443Y614680D02*
X1079064D01*
X1041363Y619760D02*
X1079064D01*
X1051523Y609600D02*
X1079064D01*
X981536Y640080D02*
X984424D01*
X981536Y635000D02*
X984424D01*
X1020160Y640963D02*
Y642357D01*
X981536Y645160D02*
X984424D01*
X981536Y650240D02*
X984424D01*
X1000983Y651946D02*
Y654696D01*
X984424D02*
X1000983D01*
X1021043Y640080D02*
X1022000D01*
X1020160Y640963D02*
X1022000Y639123D01*
X1020160Y645160D02*
X1022000D01*
X1020160Y650240D02*
X1022000D01*
Y654987D02*
X1041177D01*
X1000983D02*
X1020160D01*
X981430Y657854D02*
X1056685D01*
X982604Y756920D02*
X983656D01*
X979578Y762000D02*
X986682D01*
X1005720Y761166D02*
X1011340D01*
X1004978Y762000D02*
X1012082D01*
X1022000Y639123D02*
Y654987D01*
X1020160Y640963D02*
Y654987D01*
X1033404Y756920D02*
X1034456D01*
X1056520Y761166D02*
X1062140D01*
X1030378Y762000D02*
X1037482D01*
X1041177Y635000D02*
X1079323D01*
X1041177Y640080D02*
X1191444D01*
X1041177Y645160D02*
X1191444D01*
X1041177Y650240D02*
X1191444D01*
X876886Y655320D02*
X1134801D01*
X1065941Y663774D02*
X1081101D01*
X1062381Y660213D02*
X1065941Y663774D01*
X1062568Y660400D02*
X1132642D01*
X1062605Y679886D02*
X1081101D01*
X1061833Y680720D02*
X1082420D01*
X1055778Y762000D02*
X1062882D01*
X827786Y767080D02*
X1146626D01*
X827786Y772160D02*
X1146543D01*
X827726Y777240D02*
X1147584D01*
X823943Y782320D02*
X1149923D01*
X820036Y787400D02*
X1154122D01*
X817972Y791444D02*
X1160251D01*
X1077073Y695960D02*
X1191444D01*
X1060792Y679679D02*
X1121533Y740420D01*
X1066913Y685800D02*
X1191444D01*
X1071993Y690880D02*
X1191444D01*
X1084204Y756920D02*
X1085256D01*
X1082153Y701040D02*
X1191444D01*
X1081178Y762000D02*
X1088282D01*
X1110416Y589280D02*
X1160344D01*
X1110416Y599440D02*
X1113344D01*
X1110416Y604520D02*
X1113344D01*
Y591434D02*
X1133456D01*
X1110416Y594360D02*
X1113344D01*
X1133456D02*
X1158344D01*
Y591434D02*
X1160344D01*
X1158344D02*
Y602653D01*
X1133456Y599440D02*
X1158344D01*
X1133456Y604520D02*
X1156477D01*
X1110416Y550259D02*
Y612801D01*
Y609600D02*
X1113344D01*
Y591434D02*
Y614046D01*
X1110416Y612801D02*
X1115194Y617579D01*
X1113344Y614046D02*
X1133456D01*
X1112295Y614680D02*
X1137224D01*
X1133456Y591434D02*
Y614046D01*
Y609600D02*
X1151397D01*
X1148713Y612284D02*
X1158344Y602653D01*
X1118682Y616784D02*
X1137224D01*
Y612284D02*
X1148713D01*
X1137224D02*
Y616784D01*
X1110416Y558800D02*
X1160344D01*
X1110252Y548640D02*
X1160344D01*
X1110416Y553720D02*
X1160344D01*
X1110416Y574040D02*
X1160344D01*
X1110416Y579120D02*
X1160344D01*
X1110416Y563880D02*
X1160344D01*
X1110416Y568960D02*
X1160344D01*
X1176456Y558800D02*
X1191444D01*
X1176456Y563880D02*
X1191444D01*
X1176456Y548640D02*
X1191444D01*
X1176456Y553720D02*
X1191444D01*
X1176456Y579120D02*
X1191444D01*
X1176456Y584200D02*
X1191444D01*
X1176456Y568960D02*
X1191444D01*
X1176456Y574040D02*
X1191444D01*
X1110416Y584200D02*
X1160344D01*
X1176456Y534546D02*
Y591434D01*
X1160344Y534546D02*
Y591434D01*
X1176456D02*
X1178456D01*
Y612284D01*
X1176456Y589280D02*
X1191444D01*
X1178456Y612284D02*
X1184336D01*
X1178456Y599440D02*
X1191444D01*
X1178456Y604520D02*
X1191444D01*
X1178456Y594360D02*
X1191444D01*
Y506044D02*
Y760251D01*
X1184336Y619760D02*
X1191444D01*
X1184336Y612284D02*
Y637396D01*
X1178456Y609600D02*
X1191444D01*
X1184336Y614680D02*
X1191444D01*
X1095176Y619783D02*
Y622631D01*
X1096426Y624840D02*
X1099669D01*
X1096664Y621834D02*
X1103737Y628908D01*
X1094918Y635000D02*
X1105993D01*
X1097095Y629920D02*
X1103814D01*
X1137224Y632896D02*
Y637396D01*
X1158336Y629920D02*
X1163224D01*
X1158336Y625447D02*
Y637396D01*
X1122906Y632896D02*
X1137224D01*
X1121588Y635000D02*
X1137224D01*
X1158336D02*
X1163224D01*
X1137224Y637396D02*
X1158336D01*
X1094918Y665480D02*
X1134801D01*
X1109604Y756920D02*
X1110656D01*
X1106578Y762000D02*
X1113682D01*
X1131978D02*
X1147844D01*
X1135523Y751840D02*
X1154997D01*
X1135004Y756920D02*
X1150409D01*
X1158943Y624840D02*
X1163224D01*
X1158336Y625447D02*
X1163224Y620559D01*
X1144595Y655320D02*
X1191444D01*
X1097095Y670560D02*
X1191444D01*
X1096426Y675640D02*
X1191444D01*
X1146754Y660400D02*
X1191444D01*
X1144595Y665480D02*
X1191444D01*
X1163224Y620559D02*
Y637396D01*
X1184336Y635000D02*
X1191444D01*
X1163224Y637396D02*
X1184336D01*
Y624840D02*
X1191444D01*
X1184336Y629920D02*
X1191444D01*
X1092313Y711200D02*
X1191444D01*
X1097393Y716280D02*
X1191444D01*
X1091820Y680720D02*
X1191444D01*
X1087233Y706120D02*
X1191444D01*
X1112633Y731520D02*
X1191444D01*
X1117713Y736600D02*
X1191444D01*
X1102473Y721360D02*
X1191444D01*
X1107553Y726440D02*
X1191444D01*
X1173846Y746760D02*
X1191444D01*
X1133893D02*
X1166155D01*
X1128493Y741680D02*
X1191444D01*
X1185004Y751840D02*
X1191444D01*
X1189591Y756920D02*
X1191444D01*
D88*
X264160Y436880D02*
X269240Y441960D01*
X296831D01*
X878280Y787960D02*
X1131378D01*
X843430Y753110D02*
X878280Y787960D01*
X1131378D02*
X1142960Y776378D01*
Y758800D02*
Y776378D01*
X1162350Y643890D02*
Y739410D01*
X1142960Y758800D02*
X1162350Y739410D01*
X843280Y47933D02*
Y128680D01*
X836930Y135030D02*
X839430D01*
X839680Y132280D02*
X843280Y128680D01*
X839680Y132280D02*
Y134780D01*
X839430Y135030D02*
X839680Y134780D01*
X868680Y46231D02*
Y128680D01*
X862330Y135030D02*
X864830D01*
X865080Y132280D02*
X868680Y128680D01*
X865080Y132280D02*
Y134780D01*
X864830Y135030D02*
X865080Y134780D01*
X890230Y135030D02*
X890480Y134780D01*
X894080Y46441D02*
Y128680D01*
X890480Y132280D02*
X894080Y128680D01*
X890480Y132280D02*
Y134780D01*
X887730Y135030D02*
X890230D01*
X919480Y30750D02*
X970280D01*
X789670D02*
X919480D01*
Y46840D02*
X919630Y46990D01*
X919480Y30750D02*
Y46840D01*
X919630Y183030D02*
X937560Y200960D01*
X919630Y46990D02*
Y183030D01*
X970280Y30750D02*
Y46840D01*
X970430Y46990D01*
X995830D02*
X1064918Y116078D01*
X1138936D01*
X1106590Y30750D02*
X1122830Y46990D01*
X970280Y30750D02*
X1106590D01*
X1139698Y643890D02*
X1162350D01*
X1031589D02*
X1139698D01*
Y660400D01*
X1139444Y503936D02*
Y505946D01*
X1123400Y521990D02*
Y523240D01*
Y521990D02*
X1139444Y505946D01*
X1114872Y628650D02*
X1118682Y624840D01*
X1113790Y628650D02*
X1114872D01*
X1118682Y624840D02*
X1147780D01*
X1168400Y523240D02*
Y602740D01*
Y603990D01*
X1152050Y620340D02*
X1168400Y603990D01*
X1123400Y523240D02*
Y602740D01*
X1112170Y505460D02*
Y510760D01*
X1123400Y521990D01*
X1128739Y182409D02*
X1132078Y179070D01*
X1125400Y185748D02*
X1128739Y182409D01*
X1120140Y176784D02*
X1125765Y182409D01*
X1128739D01*
X1163405Y154686D02*
X1168677Y159958D01*
Y200435D01*
X1146651Y154432D02*
X1146905Y154686D01*
X1163405D01*
X1146651Y123793D02*
Y154432D01*
X1142002Y227110D02*
X1165150Y203962D01*
X1123400Y245912D02*
Y280212D01*
X947500Y245030D02*
X965420Y227110D01*
X1029000Y238650D02*
X1116138D01*
X965420Y227110D02*
X1142002D01*
X1116138Y238650D02*
X1123400Y245912D01*
X947500Y245030D02*
Y315000D01*
X1168400Y200712D02*
Y201962D01*
X1166400Y203962D02*
X1168400Y201962D01*
X1165150Y203962D02*
X1166400D01*
X1121400Y282212D02*
Y300700D01*
Y282212D02*
X1123400Y280212D01*
X1112600Y309500D02*
Y315000D01*
Y309500D02*
X1121400Y300700D01*
X1168400Y201962D02*
Y280212D01*
X1138936Y116078D02*
X1146651Y123793D01*
X1104297Y154432D02*
X1125633D01*
X1070390Y188340D02*
X1104297Y154432D01*
X1168400Y200712D02*
X1168677Y200435D01*
X1123400Y200712D02*
X1125400Y198712D01*
Y185748D02*
Y198712D01*
X1132078Y179070D02*
X1142700D01*
X1142954Y179324D01*
X1173780Y624840D02*
Y638364D01*
X1168508Y643636D02*
X1173780Y638364D01*
X1162604Y643636D02*
X1168508D01*
X1162350Y643890D02*
X1162604Y643636D01*
X1102360Y550259D02*
Y616138D01*
X1087120Y562800D02*
Y628650D01*
X1113790Y627568D02*
Y628650D01*
X1102360Y616138D02*
X1113790Y627568D01*
X1070390Y188340D02*
Y214740D01*
X410210Y171338D02*
X492872D01*
X381112D02*
X410210D01*
X492872D02*
X506730Y157480D01*
X652750Y753200D02*
X656200D01*
X583263Y738840D02*
X638390D01*
X652750Y753200D01*
X1072429Y520085D02*
Y548109D01*
X1049100Y496756D02*
X1072429Y520085D01*
X1049100Y485000D02*
Y496756D01*
X1036400Y500376D02*
X1060889Y524865D01*
X1036400Y485000D02*
Y500376D01*
X1060889Y524865D02*
Y552889D01*
X1083969Y499987D02*
X1087200Y496756D01*
Y485000D02*
Y496756D01*
X1083969Y499987D02*
Y538190D01*
X1035661Y520990D02*
Y547883D01*
X1030485Y516818D02*
X1031489D01*
X1035661Y520990D01*
X1022589Y508921D02*
X1030485Y516818D01*
X1072429Y548109D02*
X1087120Y562800D01*
X1065210Y557210D02*
Y584520D01*
X1083969Y538190D02*
X1096037Y550259D01*
X1060889Y552889D02*
X1065210Y557210D01*
X1096037Y550259D02*
X1098550D01*
X1012104Y637626D02*
X1065210Y584520D01*
X1098550Y550259D02*
X1102360D01*
X567690Y754380D02*
X567723D01*
X583263Y738840D01*
X1000952Y238650D02*
X1029000D01*
X969550Y243922D02*
Y269621D01*
X1035050Y250190D02*
X1054210D01*
X1035050D02*
X1047750Y262890D01*
X1074050Y250190D02*
X1096050Y272190D01*
X969550Y243922D02*
X974822Y238650D01*
X1022240Y245410D02*
X1029000Y238650D01*
X1054210Y250190D02*
X1074050D01*
X995680Y243922D02*
X1000952Y238650D01*
X935020Y214740D02*
X1070390D01*
X1054210Y250190D02*
X1074181Y270161D01*
X974822Y238650D02*
X1000952D01*
X1049020Y264160D02*
X1051560Y266700D01*
X923480Y203200D02*
X935020Y214740D01*
X1047511Y270161D02*
X1049020D01*
X541020Y144780D02*
X554070D01*
X985600Y485000D02*
Y496756D01*
X993034Y504190D02*
X998220D01*
X985600Y472250D02*
Y485000D01*
Y496756D02*
X993034Y504190D01*
X1012104Y637626D02*
Y642357D01*
X1039724Y591055D02*
X1053670Y577108D01*
Y565892D02*
Y577108D01*
X1035661Y547883D02*
X1053670Y565892D01*
X1039495Y572135D02*
X1040130Y571500D01*
X1038860Y679450D02*
X1039625Y680215D01*
X991235Y572135D02*
X1039495D01*
X1049935Y680215D02*
X1122830Y753110D01*
X1038355Y591055D02*
X1039724D01*
X1039625Y680215D02*
X1049935D01*
X1037590Y591820D02*
X1038355Y591055D01*
X1010571Y643890D02*
X1012104Y642357D01*
X832120Y635270D02*
X852170Y655320D01*
X832120Y602980D02*
Y635270D01*
Y602980D02*
X890270Y544830D01*
X843660Y625220D02*
X863488Y645048D01*
X937500Y457150D02*
X993819D01*
X994319Y456650D02*
X1052550D01*
X1099200Y410000D01*
X993819Y457150D02*
X994319Y456650D01*
X982040Y468690D02*
X985600Y472250D01*
X1023620Y490580D02*
Y508921D01*
X1003300Y732790D02*
X1077110D01*
X1097430Y753110D01*
X981430Y665910D02*
X1056685D01*
X894230Y753110D02*
X981430Y665910D01*
X1062605Y671830D02*
X1087120D01*
X1056685Y665910D02*
X1062605Y671830D01*
X1021080Y508921D02*
X1022589D01*
X990600Y572770D02*
X991235Y572135D01*
X995680Y529478D02*
Y564713D01*
X990600Y569793D02*
X995680Y564713D01*
X990600Y569793D02*
Y572770D01*
X1112600Y410210D02*
Y485000D01*
X1090930Y454660D02*
X1099900Y463630D01*
X1112600Y485000D02*
Y505030D01*
X1099900Y485000D02*
Y505190D01*
Y463630D02*
Y485000D01*
X969249Y508921D02*
X972900Y505270D01*
X925830Y553399D02*
Y615020D01*
Y553399D02*
X962411Y516818D01*
X963415D01*
X971311Y508921D01*
X972820D01*
X911860Y546352D02*
X960200Y498012D01*
X911860Y546352D02*
Y631190D01*
X874214Y645048D02*
X941070D01*
X972980D01*
X960200Y485000D02*
Y498012D01*
X972820Y529939D02*
Y565270D01*
X967740Y570350D02*
X972820Y565270D01*
X992730Y643890D02*
X1010571D01*
X967740Y585350D02*
Y604650D01*
X942357Y630032D02*
X967740Y604650D01*
X941070Y630032D02*
X942357D01*
X392430Y659479D02*
X393939D01*
X414020Y679560D01*
X605790Y244314D02*
Y262698D01*
Y225930D02*
Y244314D01*
X541816D02*
X605790D01*
X541020Y245110D02*
X541816Y244314D01*
X593660Y217310D02*
X617160D01*
X972900Y315000D02*
Y326970D01*
Y295068D02*
Y315000D01*
X970519Y291179D02*
X972051Y292711D01*
Y294220D01*
X972900Y295068D01*
X969010Y291179D02*
X970519D01*
X1087120Y372110D02*
X1087200Y372030D01*
Y315000D02*
Y372030D01*
X1055950Y410000D02*
X1099200D01*
X1112390D01*
X1112600Y410210D01*
X1074500Y315000D02*
Y331390D01*
X1074420Y331470D02*
X1074500Y331390D01*
X1055950Y410000D02*
Y428350D01*
X981710Y427990D02*
X989330Y435610D01*
X981710Y394970D02*
Y427990D01*
Y394970D02*
X1049100Y327580D01*
Y315000D02*
Y327580D01*
X1049020Y291179D02*
Y314920D01*
X1084260Y298240D02*
Y299356D01*
X1087200Y302296D01*
X1075690Y291179D02*
X1077199D01*
X1084260Y298240D01*
X1087200Y302296D02*
Y315000D01*
X960120Y317500D02*
Y326646D01*
X915670Y342900D02*
X931950D01*
X932000Y342850D02*
X937500D01*
X900020Y342900D02*
X915670D01*
X931950D02*
X932000Y342850D01*
X937500Y355550D02*
X954990D01*
X955040Y355600D01*
X1061800Y315000D02*
Y331390D01*
X1061720Y331470D02*
X1061800Y331390D01*
X973230Y643890D02*
Y644798D01*
X972980Y645048D02*
X973230Y644798D01*
X565150Y623570D02*
X623570D01*
X863488Y645048D02*
X874214D01*
X868830Y650432D02*
Y753110D01*
Y650432D02*
X874214Y645048D01*
X1046630Y753110D02*
X1072030D01*
X995830D02*
X1021230D01*
X998300Y315000D02*
Y326970D01*
X985600Y315000D02*
Y326970D01*
X777540Y342900D02*
X880520D01*
X1099820Y291940D02*
Y332740D01*
X381000Y171450D02*
X381112Y171338D01*
X1098550Y291690D02*
X1099570D01*
X1099820Y291940D01*
X880520Y323850D02*
Y342900D01*
Y304800D02*
Y323850D01*
X972900Y485000D02*
Y505270D01*
X1099820Y505810D02*
Y527709D01*
Y505810D02*
X1100170Y505460D01*
X1101352Y529241D02*
X1102360D01*
X1099820Y527709D02*
X1101352Y529241D01*
X701520Y163029D02*
Y167640D01*
X576580Y171310D02*
X614410D01*
X569100D02*
X576580D01*
X576230Y154940D02*
Y170960D01*
X576580Y171310D01*
X554070Y144780D02*
X564230Y154940D01*
X568960Y171450D02*
Y181890D01*
X569240Y204470D02*
X580390D01*
X568960Y204190D02*
X569240Y204470D01*
X580390D02*
X582580Y202280D01*
X589280D01*
X590630Y214280D02*
X593660Y217310D01*
X589280Y214280D02*
X590630D01*
X629920Y194310D02*
X675910D01*
X614410D02*
X629920D01*
X631470Y195860D01*
Y243066D01*
X676560Y241300D02*
X676910Y241650D01*
X655320Y241300D02*
X676560D01*
X653770Y243066D02*
X655320Y241516D01*
Y241300D02*
Y241516D01*
X611062Y267970D02*
X662590D01*
X605790Y225930D02*
X611660Y220060D01*
Y217310D02*
Y220060D01*
X605790Y262698D02*
X611062Y267970D01*
X662590D02*
X676910Y253650D01*
X568960Y171450D02*
X569100Y171310D01*
X382977Y651534D02*
X390921Y659479D01*
X392430D01*
X375174Y651534D02*
X382977D01*
X369410Y645770D02*
X375174Y651534D01*
X306419Y219949D02*
X311310Y224840D01*
X312326D01*
X323850Y236364D01*
X306419Y218440D02*
Y219949D01*
X323850Y236364D02*
Y238760D01*
X937500Y393650D02*
X954990D01*
X955040Y393700D01*
X962993Y169880D02*
X996936D01*
X1010920Y183864D01*
Y185420D01*
X887730Y154530D02*
Y190500D01*
X862330Y154530D02*
Y190500D01*
X760875Y203200D02*
X923480D01*
X836930Y154530D02*
Y190500D01*
X773430Y46990D02*
X789670Y30750D01*
X773430Y46990D02*
X786130Y59690D01*
Y88900D01*
X717501Y157529D02*
X786130Y88900D01*
X798830Y46990D02*
Y93980D01*
X741335Y151475D02*
X798830Y93980D01*
X707020Y157529D02*
X717501D01*
X701520Y163029D02*
X707020Y157529D01*
X701520Y122214D02*
Y163029D01*
X741335Y151475D02*
Y168785D01*
X701980Y208140D02*
X741335Y168785D01*
X697730Y208140D02*
X701980D01*
X969010Y270161D02*
X969550Y269621D01*
X995680Y243922D02*
Y270161D01*
X1049020Y264160D02*
Y270161D01*
X1022240Y254970D02*
X1022350Y255080D01*
X1022240Y245410D02*
Y254970D01*
X1022350Y255080D02*
Y270161D01*
X1096050Y272190D02*
X1098550D01*
X1074181Y270161D02*
X1075690D01*
X1023620Y490580D02*
X1023700Y490500D01*
Y485000D02*
Y490500D01*
X1112600Y315000D02*
Y410210D01*
X1055950Y391650D02*
Y410000D01*
X1019250D02*
X1037600D01*
X1055950D01*
X1037600Y391650D02*
X1055950D01*
X1019250D02*
X1037600D01*
Y428350D02*
X1055950D01*
X1019250D02*
X1037600D01*
X1099900Y505190D02*
X1100170Y505460D01*
X1112170D02*
X1112600Y505030D01*
X962960Y190692D02*
X968232Y185420D01*
X937560Y200960D02*
X953857D01*
X968232Y185420D02*
X985520D01*
X962960Y190692D02*
Y191857D01*
X953857Y200960D02*
X962960Y191857D01*
X947420Y185420D02*
X947453D01*
X962993Y169880D01*
X760875Y168285D02*
X761520Y167640D01*
X676910Y241650D02*
X682970D01*
X693480Y231140D02*
X697730D01*
X682970Y241650D02*
X693480Y231140D01*
X677400Y254140D02*
X697730D01*
X676910Y253650D02*
X677400Y254140D01*
X678660Y205560D02*
X687160D01*
X675910Y194310D02*
Y202810D01*
X689740Y208140D02*
X697730D01*
X687160Y205560D02*
X689740Y208140D01*
X675910Y202810D02*
X678660Y205560D01*
X615160Y125810D02*
X632200Y108770D01*
X615160Y125810D02*
Y130810D01*
X688076Y108770D02*
X701520Y122214D01*
X632200Y108770D02*
X688076D01*
X496888Y191770D02*
X539750D01*
X541020Y193040D01*
X496888Y191770D02*
Y194119D01*
X472440Y218567D02*
Y252980D01*
Y218567D02*
X496888Y194119D01*
X359410Y275210D02*
X399410D01*
X421640Y252980D01*
X402169Y233509D02*
X421640Y252980D01*
X401701Y219710D02*
X402169Y220177D01*
Y233509D01*
X419186Y201844D02*
Y219242D01*
Y201844D02*
X426720Y194310D01*
X418719Y219710D02*
X419186Y219242D01*
X455612Y194310D02*
X458153Y191770D01*
X426720Y194310D02*
X455612D01*
X597250D02*
X614410D01*
X589280Y202280D02*
X597250Y194310D01*
X675535Y131185D02*
Y193935D01*
X675160Y130810D02*
X675535Y131185D01*
Y193935D02*
X675910Y194310D01*
X697730Y231140D02*
X760230D01*
D89*
X174020Y63500D02*
X174320Y63800D01*
Y135560D01*
X438120Y25400D02*
X525105D01*
X400020Y63500D02*
X438120Y25400D01*
X140000Y585000D02*
Y622500D01*
X541020Y144780D02*
X554990Y130810D01*
X501650Y74830D02*
Y105410D01*
X473541Y133519D02*
X501650Y105410D01*
X541020Y144780D01*
X251681Y133519D02*
X473541D01*
X541020Y144780D02*
Y193040D01*
X541020Y499110D02*
X541020Y245110D01*
Y193040D02*
Y245110D01*
X777540Y342900D02*
Y410560D01*
Y316290D02*
Y342900D01*
X414020Y544830D02*
X440690D01*
X447040Y358940D02*
X450000Y361900D01*
X760875Y203200D02*
Y230495D01*
Y168285D02*
Y203200D01*
X760230Y231140D02*
Y298980D01*
Y231140D02*
X760875Y230495D01*
X760230Y298980D02*
X777540Y316290D01*
X750000Y438100D02*
X777540Y410560D01*
X447040Y252980D02*
Y358940D01*
X554990Y130810D02*
X615160D01*
X541020Y514350D02*
Y544450D01*
Y499110D02*
Y514350D01*
X540640Y544830D02*
X541020Y544450D01*
X239420Y484780D02*
X239780Y485140D01*
X214740Y346287D02*
Y470112D01*
X229408Y484780D01*
X239420D01*
X214740Y233680D02*
Y346287D01*
Y170460D02*
Y233680D01*
X218550Y237490D02*
X239780D01*
X214740Y233680D02*
X218550Y237490D01*
X214740Y346287D02*
X229408Y360955D01*
X214740Y170460D02*
X251681Y133519D01*
X229408Y360955D02*
X239420D01*
X239780Y361315D01*
X140000Y697500D02*
Y735000D01*
X440690Y544830D02*
X480440D01*
X174320Y135560D02*
Y259385D01*
X116840Y193040D02*
X174320Y135560D01*
Y259385D02*
Y383210D01*
X116840Y316865D02*
X174320Y259385D01*
X116840Y440690D02*
X174320Y383210D01*
X539750Y40045D02*
Y74830D01*
X525105Y25400D02*
X539750Y40045D01*
D90*
X1010500Y468000D02*
Y484500D01*
X1010190Y467690D02*
X1010500Y468000D01*
Y484500D02*
X1011000Y485000D01*
X397510Y697230D02*
X476250Y618490D01*
X565150Y601980D02*
X623570D01*
X341470Y175870D02*
X362720D01*
X399938Y613410D02*
X417830D01*
X429260Y601980D01*
X450850Y581660D02*
Y618490D01*
X414020Y544830D02*
X450850Y581660D01*
X449434Y619906D02*
X450850Y618490D01*
X384922Y613410D02*
Y632462D01*
X390921Y638461D02*
X392430D01*
X384922Y632462D02*
X390921Y638461D01*
X369910Y626770D02*
X380959Y615721D01*
X369410Y626770D02*
X369910D01*
X309830Y610870D02*
X335230Y636270D01*
X349410D01*
X309830Y661670D02*
X311830Y663670D01*
X397510Y697230D02*
Y754380D01*
X540195Y591820D02*
Y618045D01*
Y546975D02*
Y591820D01*
X140000Y697500D02*
X248600D01*
X309830Y636270D01*
X286280Y353480D02*
Y363719D01*
Y353480D02*
X299720Y340041D01*
X239780Y410219D02*
Y434340D01*
Y410219D02*
X286280Y363719D01*
X578050Y769420D02*
X593090Y754380D01*
X493080Y618490D02*
X508120Y633530D01*
X528099Y769420D02*
X542290Y755229D01*
X448310Y754380D02*
X476250Y726440D01*
X557330Y769420D02*
X578050D01*
X542290Y754380D02*
X557330Y769420D01*
X488750Y769420D02*
X528099D01*
X524710Y633530D02*
X539750Y618490D01*
X422910Y754380D02*
X437950Y769420D01*
X476250Y618490D02*
X493080D01*
X458670Y769420D02*
X473710Y754380D01*
X508120Y633530D02*
X524710D01*
X437950Y769420D02*
X458670D01*
X476250Y647700D02*
Y726440D01*
X542290Y754380D02*
Y755229D01*
X473710Y754380D02*
X488750Y769420D01*
X362981Y154591D02*
X364490D01*
X341470Y156870D02*
X360703D01*
X362981Y154591D01*
X359410Y179180D02*
X362720Y175870D01*
X364229D01*
X364490Y175609D01*
X359410Y179180D02*
Y215010D01*
X309611Y278050D02*
X351760Y235901D01*
Y220960D02*
X357710Y215010D01*
X306070Y281591D02*
X307579D01*
X309611Y279559D01*
Y278050D02*
Y279559D01*
X351760Y220960D02*
Y235901D01*
X357710Y215010D02*
X359410D01*
X140000Y622500D02*
X141272D01*
X152902Y610870D02*
X309830D01*
X141272Y622500D02*
X152902Y610870D01*
X476250Y618490D02*
Y647700D01*
X516890D02*
Y754380D01*
X476250Y647700D02*
X516890D01*
X440690Y544830D02*
X514350Y618490D01*
X539750D02*
X567690Y646430D01*
Y754380D01*
X540195Y546975D02*
X540640Y546530D01*
Y544830D02*
Y546530D01*
X539750Y618490D02*
X540195Y618045D01*
D91*
X140000Y622000D02*
D03*
D92*
X116840Y478790D02*
D03*
Y231140D02*
D03*
X501650Y74830D02*
D03*
X798830Y46990D02*
D03*
X514350Y618490D02*
D03*
X450850D02*
D03*
X947420Y185420D02*
D03*
X1010920D02*
D03*
X542290Y754380D02*
D03*
X567690D02*
D03*
X593090D02*
D03*
X422910D02*
D03*
X448310D02*
D03*
X473710D02*
D03*
X116840Y354965D02*
D03*
D93*
Y440690D02*
D03*
Y193040D02*
D03*
Y316865D02*
D03*
D94*
X539750Y74830D02*
D03*
X773430Y46990D02*
D03*
X539750Y618490D02*
D03*
X476250D02*
D03*
X922020Y185420D02*
D03*
X985520D02*
D03*
X516890Y754380D02*
D03*
X397510D02*
D03*
D95*
X1170000Y770000D02*
D03*
X30000D02*
D03*
Y30480D02*
D03*
X600000Y400000D02*
D03*
X1170000Y30000D02*
D03*
D96*
X1139698Y660400D02*
D03*
X1139444Y503936D02*
D03*
X1120140Y176784D02*
D03*
X813054Y786384D02*
D03*
X656336Y782828D02*
D03*
X1035050Y250190D02*
D03*
X506730Y157480D02*
D03*
X1010190Y467690D02*
D03*
X852170Y655320D02*
D03*
X843660Y625220D02*
D03*
X890270Y544830D02*
D03*
X998220Y467360D02*
D03*
X982040Y468690D02*
D03*
X1074420Y331470D02*
D03*
X989330Y435610D02*
D03*
X960120Y326646D02*
D03*
X915670Y342900D02*
D03*
X955040Y355600D02*
D03*
X1061720Y331470D02*
D03*
X867321Y518249D02*
D03*
X867410Y508000D02*
D03*
X867499Y497929D02*
D03*
X831850Y478790D02*
D03*
X565150Y623570D02*
D03*
Y601980D02*
D03*
X623570Y623570D02*
D03*
X567690Y495300D02*
D03*
X392430Y520700D02*
D03*
X414020Y586740D02*
D03*
X867410Y487680D02*
D03*
X915670Y323850D02*
D03*
X985600Y326970D02*
D03*
X998300D02*
D03*
X972900D02*
D03*
X915670Y304800D02*
D03*
X1099820Y332740D02*
D03*
X623570Y601980D02*
D03*
X568960Y171450D02*
D03*
X429260Y601980D02*
D03*
X422910Y577850D02*
D03*
X264160Y436880D02*
D03*
X323850Y238760D02*
D03*
X1070390Y214740D02*
D03*
X955040Y393700D02*
D03*
X887730Y190500D02*
D03*
X862330D02*
D03*
X836930D02*
D03*
X426720Y194310D02*
D03*
X563880Y585160D02*
D03*
X570230Y576580D02*
D03*
D97*
X1087120Y628650D02*
D03*
X1113790D02*
D03*
X1040130Y571500D02*
D03*
X1037590Y591820D02*
D03*
X1038860Y679450D02*
D03*
X1090930Y454660D02*
D03*
X1003300Y732790D02*
D03*
X925830Y615020D02*
D03*
X911860Y631190D02*
D03*
X1087120Y671830D02*
D03*
Y372110D02*
D03*
M02*
