G04*
G04 #@! TF.GenerationSoftware,Altium Limited,Altium Designer,22.7.1 (60)*
G04*
G04 Layer_Physical_Order=2*
G04 Layer_Color=16711680*
%FSLAX44Y44*%
%MOMM*%
G71*
G04*
G04 #@! TF.SameCoordinates,85DCC90D-1427-409F-9E8A-CED84819FF45*
G04*
G04*
G04 #@! TF.FilePolarity,Positive*
G04*
G01*
G75*
%ADD14C,0.2540*%
%ADD65R,1.7500X1.7500*%
%ADD66C,1.7500*%
%ADD67C,1.8400*%
%ADD68R,1.8400X1.8400*%
%ADD69R,2.3000X2.3000*%
%ADD70C,2.3000*%
%ADD73R,1.2000X1.2000*%
%ADD74C,1.2000*%
%ADD75R,2.5000X2.5000*%
%ADD76C,2.5000*%
%ADD80R,2.0000X2.0000*%
%ADD81C,2.0000*%
%ADD82R,2.0000X2.0000*%
%ADD87C,0.2032*%
%ADD88C,0.9000*%
%ADD89C,2.5000*%
%ADD90C,0.8000*%
%ADD91R,1.7500X1.7500*%
%ADD92C,1.7000*%
%ADD93R,1.7000X1.7000*%
%ADD94R,1.7000X1.7000*%
%ADD95C,4.0000*%
%ADD96C,0.7000*%
%ADD97C,1.3000*%
D14*
X30000Y30480D02*
Y53020D01*
Y30480D02*
X52540D01*
X227240Y237490D02*
X239780D01*
Y250030D01*
X501650Y63790D02*
Y74830D01*
X512690D01*
X490610D02*
X501650D01*
Y85870D01*
X472440Y252980D02*
Y265520D01*
Y240440D02*
Y252980D01*
X484980D01*
X227240Y361315D02*
X239780D01*
X252320D01*
X239780D02*
Y373855D01*
X30000Y747460D02*
Y770000D01*
X52540D01*
X227240Y485140D02*
X239780D01*
Y497680D01*
Y485140D02*
X252320D01*
X465210Y618490D02*
X476250D01*
X487290D01*
X528710D02*
X539750D01*
X397510Y743340D02*
Y754380D01*
X386470D02*
X397510D01*
X408550D01*
X397510D02*
Y765420D01*
X476250Y618490D02*
Y629530D01*
X448310Y743340D02*
Y754380D01*
X459350D01*
X437270D02*
X448310D01*
Y765420D01*
X516890Y743340D02*
Y754380D01*
X527930D01*
X505850D02*
X516890D01*
Y765420D01*
X773430Y35950D02*
Y46990D01*
X784470D01*
X762390D02*
X773430D01*
Y58030D01*
X907890Y46990D02*
X919630D01*
Y58730D01*
X970430Y46990D02*
X982170D01*
X958690D02*
X970430D01*
Y58730D01*
X919630Y46990D02*
X931370D01*
X600000Y400000D02*
X622540D01*
X577460D02*
X600000D01*
X985520Y174380D02*
Y185420D01*
X974480D02*
X985520D01*
X996560D01*
X922020Y174380D02*
Y185420D01*
X910980D02*
X922020D01*
Y196460D01*
X985520Y185420D02*
Y196460D01*
X1122830Y35250D02*
Y46990D01*
X1134570D01*
X1111090D02*
X1122830D01*
Y58730D01*
X1147460Y30000D02*
X1170000D01*
Y52540D01*
X1120140Y170744D02*
Y176784D01*
X1126180D01*
X1114100D02*
X1120140D01*
Y182824D01*
X539750Y618490D02*
X550790D01*
X567690Y743340D02*
Y754380D01*
X556650D02*
X567690D01*
Y765420D01*
X843430Y753110D02*
Y764850D01*
Y741370D02*
Y753110D01*
X855170D01*
X831690D02*
X843430D01*
X1139444Y503936D02*
X1145484D01*
X1139444Y497896D02*
Y503936D01*
X1133404D02*
X1139444D01*
Y509976D01*
X1139698Y654360D02*
Y660400D01*
X1145738D01*
X1133658D02*
X1139698D01*
Y666440D01*
X1170000Y747460D02*
Y770000D01*
X665163Y775208D02*
X801878D01*
X813054Y786384D01*
X657543Y782828D02*
X665163Y775208D01*
X656336Y782828D02*
X657543D01*
X872711Y530639D02*
X967105Y436245D01*
X998220Y467360D01*
X991502Y368990D02*
X1071512D01*
X966631Y393861D02*
Y429535D01*
Y393861D02*
X991502Y368990D01*
X915670Y342900D02*
Y470078D01*
X831850Y500300D02*
X862189Y530639D01*
X872711D01*
X860011Y521277D02*
X864293Y525559D01*
X867321Y518249D02*
X867499D01*
X915670Y470078D01*
X831850Y478790D02*
Y500300D01*
X864293Y525559D02*
X870607D01*
X860011Y515221D02*
Y521277D01*
Y515221D02*
X867232Y508000D01*
X870607Y525559D02*
X966631Y429535D01*
X867232Y508000D02*
X867410D01*
X860100Y490708D02*
X867321Y497929D01*
X867499D01*
X392430Y520700D02*
X542290D01*
X567690Y495300D01*
X860100Y360370D02*
Y490708D01*
Y360370D02*
X915670Y304800D01*
X895350Y344170D02*
X915670Y323850D01*
X895350Y344170D02*
Y459740D01*
X867410Y487680D02*
X895350Y459740D01*
X425450Y586740D02*
X429260Y582930D01*
X414020Y586740D02*
X425450D01*
X1099820Y332740D02*
Y340682D01*
X1071512Y368990D02*
X1099820Y340682D01*
X422910Y577850D02*
X566512D01*
X569377Y577433D02*
X570230Y576580D01*
X566512Y577850D02*
X566929Y577433D01*
X569377D01*
X429260Y582930D02*
X560162D01*
X560579Y583347D01*
X560860D01*
X562673Y585160D02*
X563880D01*
X560860Y583347D02*
X562673Y585160D01*
D65*
X140000Y585000D02*
D03*
D66*
Y735000D02*
D03*
Y698000D02*
D03*
D67*
X1122830Y753110D02*
D03*
X1097430D02*
D03*
X1072030D02*
D03*
X1046630D02*
D03*
X1021230D02*
D03*
X995830D02*
D03*
X970430D02*
D03*
X945030D02*
D03*
X919630D02*
D03*
X894230D02*
D03*
X868830D02*
D03*
X945030Y46990D02*
D03*
X843430D02*
D03*
X868830D02*
D03*
X894230D02*
D03*
X995830D02*
D03*
X1021230D02*
D03*
X1046630D02*
D03*
X1072030D02*
D03*
X1097430D02*
D03*
X970430D02*
D03*
X919630D02*
D03*
D68*
X843430Y753110D02*
D03*
X1122830Y46990D02*
D03*
D69*
X400020Y63500D02*
D03*
D70*
X174020D02*
D03*
D73*
X309830Y661670D02*
D03*
D74*
Y636270D02*
D03*
Y610870D02*
D03*
D75*
X450000Y361900D02*
D03*
X750000D02*
D03*
D76*
X450000Y438100D02*
D03*
X750000D02*
D03*
D80*
X239780Y434340D02*
D03*
Y310515D02*
D03*
Y186690D02*
D03*
D81*
Y459740D02*
D03*
Y485140D02*
D03*
Y335915D02*
D03*
Y361315D02*
D03*
Y212090D02*
D03*
Y237490D02*
D03*
X447040Y252980D02*
D03*
X472440D02*
D03*
X990600Y572770D02*
D03*
X414020Y544830D02*
D03*
D82*
X421640Y252980D02*
D03*
D87*
X53556Y30480D02*
X53417Y33033D01*
X53003Y35556D01*
X52317Y38019D01*
X51368Y40394D01*
X50168Y42651D01*
X48730Y44765D01*
X47071Y46711D01*
X45212Y48466D01*
X43173Y50009D01*
X40979Y51321D01*
X38655Y52388D01*
X36230Y53197D01*
X33731Y53739D01*
X31188Y54006D01*
X28631Y53996D01*
X26090Y53709D01*
X23596Y53149D01*
X21177Y52321D01*
X18861Y51236D01*
X16677Y49907D01*
X14650Y48348D01*
X12804Y46579D01*
X11161Y44621D01*
X9739Y42496D01*
X8556Y40229D01*
X38615Y8556D02*
X40944Y9621D01*
X43144Y10932D01*
X45188Y12474D01*
X47053Y14229D01*
X48716Y16176D01*
X50158Y18292D01*
X51362Y20552D01*
X52313Y22930D01*
X53001Y25396D01*
X53417Y27923D01*
X53556Y30480D01*
X100784Y120680D02*
X100982Y118168D01*
X101570Y115718D01*
X102534Y113391D01*
X103850Y111243D01*
X105487Y109327D01*
X100784Y120680D02*
X100982Y118168D01*
X101570Y115718D01*
X102534Y113391D01*
X103850Y111243D01*
X105487Y109327D01*
X94079Y192247D02*
X95737Y190802D01*
X97576Y189598D01*
X94079Y192247D02*
X95737Y190802D01*
X97576Y189598D01*
X73244Y219733D02*
X73442Y217221D01*
X74030Y214771D01*
X74994Y212443D01*
X76310Y210295D01*
X77947Y208379D01*
X73244Y219733D02*
X73442Y217221D01*
X74030Y214771D01*
X74994Y212443D01*
X76310Y210295D01*
X77947Y208379D01*
X162667Y52147D02*
X164583Y50510D01*
X166731Y49194D01*
X169058Y48230D01*
X171508Y47642D01*
X174020Y47444D01*
X176532Y47642D01*
X178982Y48230D01*
X181309Y49194D01*
X183458Y50510D01*
X185373Y52147D01*
X162667D02*
X164583Y50510D01*
X166731Y49194D01*
X169058Y48230D01*
X171508Y47642D01*
X174020Y47444D01*
X176532Y47642D01*
X178982Y48230D01*
X181309Y49194D01*
X183458Y50510D01*
X185373Y52147D01*
X204100Y109636D02*
X201588Y109438D01*
X199138Y108850D01*
X196811Y107886D01*
X194662Y106570D01*
X192747Y104933D01*
X204100Y109636D02*
X201588Y109438D01*
X199138Y108850D01*
X196811Y107886D01*
X194662Y106570D01*
X192747Y104933D01*
X282810Y77524D02*
X285322Y77722D01*
X287772Y78310D01*
X290099Y79274D01*
X292248Y80590D01*
X294163Y82227D01*
X282810Y77524D02*
X285322Y77722D01*
X287772Y78310D01*
X290099Y79274D01*
X292248Y80590D01*
X294163Y82227D01*
X132896Y193040D02*
X132729Y195349D01*
X132232Y197609D01*
X131415Y199775D01*
X130295Y201800D01*
X128896Y203644D01*
X128193Y204393D01*
X128896Y203644D02*
X128193Y204393D01*
X132896Y193040D02*
X132729Y195349D01*
X132232Y197609D01*
X131415Y199775D01*
X130295Y201800D01*
X128896Y203644D01*
X176482Y200737D02*
X178398Y199100D01*
X180546Y197784D01*
X182873Y196820D01*
X185323Y196232D01*
X187835Y196034D01*
X176482Y200737D02*
X178398Y199100D01*
X180546Y197784D01*
X182873Y196820D01*
X185323Y196232D01*
X187835Y196034D01*
X264157Y198855D02*
X265799Y201308D01*
X266376Y204203D01*
X264163Y198860D02*
X265801Y201312D01*
X266376Y204203D01*
X77947Y265882D02*
X76310Y263966D01*
X74994Y261818D01*
X74030Y259490D01*
X73442Y257041D01*
X73244Y254529D01*
X77947Y265882D02*
X76310Y263966D01*
X74994Y261818D01*
X74030Y259490D01*
X73442Y257041D01*
X73244Y254529D01*
X116840Y247196D02*
X114292Y246992D01*
X111808Y246387D01*
X109452Y245395D01*
X107283Y244042D01*
X105356Y242361D01*
X73244Y343558D02*
X73442Y341046D01*
X74030Y338596D01*
X74994Y336268D01*
X76310Y334120D01*
X77947Y332204D01*
X73244Y343558D02*
X73442Y341046D01*
X74030Y338596D01*
X74994Y336268D01*
X76310Y334120D01*
X77947Y332204D01*
X128896Y327469D02*
X127444Y328921D01*
X124697Y330867D01*
X127444Y328921D02*
X124697Y330867D01*
X180138Y242493D02*
X178223Y244130D01*
X176074Y245446D01*
X173747Y246410D01*
X171297Y246998D01*
X168785Y247196D01*
X128193Y270716D02*
X129830Y272631D01*
X131146Y274779D01*
X132110Y277107D01*
X132698Y279557D01*
X132896Y282069D01*
X128193Y270716D02*
X129830Y272631D01*
X131146Y274779D01*
X132110Y277107D01*
X132698Y279557D01*
X132896Y282069D01*
X180138Y242493D02*
X178223Y244130D01*
X176074Y245446D01*
X173747Y246410D01*
X171297Y246998D01*
X168785Y247196D01*
X242133Y250840D02*
X239532Y251044D01*
X236940Y250745D01*
X234454Y249956D01*
X232165Y248705D01*
X230157Y247038D01*
X228506Y245018D01*
X227273Y242719D01*
X226503Y240226D01*
X226225Y237632D01*
X226448Y235033D01*
X227166Y232525D01*
X228351Y230200D01*
X229959Y228146D01*
X266376Y244839D02*
X265799Y247735D01*
X264157Y250188D01*
X266376Y244839D02*
X265801Y247731D01*
X264163Y250182D01*
X232224Y263879D02*
X232799Y260988D01*
X234437Y258536D01*
X232224Y263879D02*
X232801Y260984D01*
X234443Y258531D01*
X176482Y324562D02*
X178398Y322925D01*
X180546Y321609D01*
X182873Y320645D01*
X185323Y320057D01*
X187835Y319859D01*
X176482Y324562D02*
X178398Y322925D01*
X180546Y321609D01*
X182873Y320645D01*
X185323Y320057D01*
X187835Y319859D01*
X128896Y327469D02*
X127444Y328921D01*
X132896Y316865D02*
X132729Y319174D01*
X132232Y321434D01*
X131415Y323600D01*
X130295Y325625D01*
X128896Y327469D01*
X132896Y316865D02*
X132729Y319174D01*
X132232Y321434D01*
X131415Y323600D01*
X130295Y325625D01*
X128896Y327469D01*
X247354Y350072D02*
X249395Y351759D01*
X251068Y353809D01*
X252312Y356146D01*
X253078Y358680D01*
X253336Y361315D01*
X253103Y363819D01*
X252411Y366238D01*
X251284Y368486D01*
X249761Y370488D01*
X247894Y372174D01*
X245748Y373486D01*
X243397Y374380D01*
X240921Y374823D01*
X238406Y374801D01*
X235938Y374315D01*
X233603Y373382D01*
X231479Y372033D01*
X229642Y370315D01*
X228154Y368287D01*
X227066Y366019D01*
X226416Y363589D01*
X226226Y361081D01*
X226502Y358581D01*
X227236Y356175D01*
X228402Y353946D01*
X229959Y351971D01*
X255836Y335915D02*
X255645Y338381D01*
X255078Y340789D01*
X254148Y343081D01*
X252877Y345203D01*
X251294Y347105D01*
X249439Y348741D01*
X247354Y350072D01*
X250620Y324071D02*
X252428Y326024D01*
X253888Y328249D01*
X254960Y330684D01*
X255616Y333263D01*
X255836Y335915D01*
X426767Y14047D02*
X428683Y12410D01*
X430831Y11094D01*
X433158Y10130D01*
X435608Y9542D01*
X438120Y9344D01*
X426767Y14047D02*
X428683Y12410D01*
X430831Y11094D01*
X433158Y10130D01*
X435608Y9542D01*
X438120Y9344D01*
X384964Y69078D02*
X384216Y66333D01*
X383964Y63500D01*
X384216Y60667D01*
X384964Y57922D01*
X524510Y9344D02*
X527022Y9542D01*
X529472Y10130D01*
X531799Y11094D01*
X533947Y12410D01*
X535863Y14047D01*
X524510Y9344D02*
X527022Y9542D01*
X529472Y10130D01*
X531799Y11094D01*
X533947Y12410D01*
X535863Y14047D01*
X513706Y74830D02*
X513443Y77337D01*
X512664Y79734D01*
X511404Y81916D01*
X509717Y83789D01*
X507678Y85271D01*
X505376Y86296D01*
X502910Y86820D01*
X500390D01*
X497924Y86296D01*
X495622Y85271D01*
X493583Y83789D01*
X491897Y81916D01*
X490636Y79734D01*
X489857Y77337D01*
X489594Y74830D01*
X489857Y72323D01*
X490636Y69926D01*
X491897Y67744D01*
X493583Y65871D01*
X495622Y64389D01*
X497924Y63364D01*
X500390Y62840D01*
X502910D01*
X505376Y63364D01*
X507678Y64389D01*
X509717Y65871D01*
X511404Y67744D01*
X512664Y69926D01*
X513443Y72323D01*
X513706Y74830D01*
X405598Y78556D02*
X402853Y79304D01*
X400020Y79556D01*
X397187Y79304D01*
X394442Y78556D01*
X501260Y163394D02*
X499759Y161518D01*
X498878Y159282D01*
X498696Y156886D01*
X499229Y154543D01*
X500429Y152461D01*
X502189Y150826D01*
X504354Y149782D01*
X506730Y149424D01*
X434776Y194310D02*
X434382Y196799D01*
X433237Y199045D01*
X431455Y200827D01*
X429209Y201972D01*
X426720Y202366D01*
Y186254D02*
X429209Y186648D01*
X431455Y187793D01*
X433237Y189575D01*
X434382Y191821D01*
X434776Y194310D01*
X527694Y85434D02*
X526295Y83590D01*
X525175Y81565D01*
X524358Y79399D01*
X523861Y77139D01*
X523694Y74830D01*
X529146Y86886D02*
X527694Y85434D01*
X315794Y238760D02*
X316188Y236271D01*
X317333Y234025D01*
X319115Y232243D01*
X321361Y231098D01*
X323850Y230704D01*
X326339Y231098D01*
X328585Y232243D01*
X330367Y234025D01*
X331512Y236271D01*
X331906Y238760D01*
X435196Y246386D02*
X436652Y244271D01*
X438480Y242468D01*
X440616Y241043D01*
X442982Y240046D01*
X445494Y239513D01*
X448061Y239463D01*
X450591Y239897D01*
X452994Y240802D01*
X455184Y242143D01*
X457081Y243873D01*
X458618Y245930D01*
X459740Y248239D01*
Y257721D02*
X458618Y260030D01*
X457081Y262087D01*
X455184Y263817D01*
X452994Y265158D01*
X450591Y266063D01*
X448061Y266497D01*
X445494Y266448D01*
X442982Y265914D01*
X440616Y264917D01*
X438480Y263492D01*
X436652Y261689D01*
X435196Y259574D01*
X459740Y248239D02*
X460833Y245977D01*
X462325Y243955D01*
X464164Y242243D01*
X466288Y240900D01*
X468623Y239972D01*
X471089Y239491D01*
X473602Y239474D01*
X476075Y239920D01*
X478423Y240816D01*
X480565Y242129D01*
X482428Y243815D01*
X483948Y245815D01*
X485073Y248062D01*
X485763Y250478D01*
X485996Y252980D01*
Y252980D02*
X485763Y255482D01*
X485073Y257898D01*
X483948Y260145D01*
X482428Y262146D01*
X480565Y263831D01*
X478423Y265145D01*
X476075Y266040D01*
X473602Y266486D01*
X471089Y266469D01*
X468623Y265988D01*
X466288Y265060D01*
X464164Y263717D01*
X462325Y262005D01*
X460833Y259983D01*
X459740Y257721D01*
X116840Y371021D02*
X114292Y370817D01*
X111808Y370212D01*
X109452Y369220D01*
X107283Y367867D01*
X105356Y366186D01*
X77947Y424503D02*
X76310Y422588D01*
X74994Y420439D01*
X74030Y418112D01*
X73442Y415662D01*
X73244Y413150D01*
X77947Y424503D02*
X76310Y422588D01*
X74994Y420439D01*
X74030Y418112D01*
X73442Y415662D01*
X73244Y413150D01*
X128193Y429337D02*
X128896Y430086D01*
Y451294D02*
X127444Y452746D01*
X106236D02*
X105487Y452043D01*
X132896Y440690D02*
X132729Y442999D01*
X132232Y445259D01*
X131415Y447425D01*
X130295Y449450D01*
X128896Y451294D01*
Y430086D02*
X130295Y431930D01*
X131415Y433955D01*
X132232Y436121D01*
X132729Y438381D01*
X132896Y440690D01*
X180138Y366318D02*
X178223Y367955D01*
X176074Y369271D01*
X173747Y370235D01*
X171297Y370823D01*
X168785Y371021D01*
X180138Y366318D02*
X178223Y367955D01*
X176074Y369271D01*
X173747Y370235D01*
X171297Y370823D01*
X168785Y371021D01*
X176482Y448387D02*
X178398Y446750D01*
X180546Y445434D01*
X182873Y444470D01*
X185323Y443882D01*
X187835Y443684D01*
X176482Y448387D02*
X178398Y446750D01*
X180546Y445434D01*
X182873Y444470D01*
X185323Y443882D01*
X187835Y443684D01*
X269856Y442576D02*
X267817Y444058D01*
X265420Y444837D01*
X262900D01*
X260503Y444058D01*
X258463Y442576D01*
X256982Y440537D01*
X256203Y438140D01*
Y435620D01*
X256982Y433223D01*
X258463Y431184D01*
X8556Y760251D02*
X9739Y757984D01*
X11161Y755859D01*
X12804Y753901D01*
X14650Y752132D01*
X16677Y750573D01*
X18861Y749244D01*
X21177Y748159D01*
X23596Y747331D01*
X26090Y746771D01*
X28631Y746484D01*
X31188Y746474D01*
X33731Y746741D01*
X36230Y747283D01*
X38655Y748092D01*
X40978Y749159D01*
X43173Y750471D01*
X45212Y752014D01*
X47071Y753769D01*
X48730Y755715D01*
X50168Y757829D01*
X51368Y760086D01*
X52317Y762461D01*
X53003Y764924D01*
X53417Y767447D01*
X53556Y770000D01*
Y770000D02*
X53429Y772446D01*
X53048Y774865D01*
X52418Y777231D01*
X51547Y779520D01*
X50442Y781705D01*
X49116Y783764D01*
X47584Y785675D01*
X45861Y787416D01*
X43967Y788968D01*
X41923Y790316D01*
X39749Y791444D01*
X127444Y452746D02*
X125384Y454284D01*
X123104Y455474D01*
X120664Y456284D01*
X118126Y456694D01*
X115554D01*
X113016Y456284D01*
X110576Y455474D01*
X108296Y454284D01*
X106236Y452746D01*
X116840Y494846D02*
X114328Y494648D01*
X111878Y494060D01*
X109551Y493096D01*
X107402Y491780D01*
X105487Y490143D01*
X103850Y488228D01*
X102534Y486079D01*
X101570Y483752D01*
X100982Y481302D01*
X100784Y478790D01*
X100982Y476278D01*
X101570Y473828D01*
X102534Y471501D01*
X103850Y469352D01*
X105487Y467437D01*
X107402Y465800D01*
X109551Y464484D01*
X111878Y463520D01*
X114328Y462932D01*
X116840Y462734D01*
X250620Y447896D02*
X252428Y449849D01*
X253888Y452074D01*
X254960Y454509D01*
X255616Y457088D01*
X255836Y459740D01*
X255645Y462206D01*
X255078Y464614D01*
X254148Y466906D01*
X252877Y469028D01*
X251294Y470930D01*
X249439Y472566D01*
X247354Y473897D01*
X249395Y475584D01*
X251068Y477634D01*
X252312Y479971D01*
X253078Y482505D01*
X253336Y485140D01*
X253103Y487644D01*
X252411Y490063D01*
X251284Y492311D01*
X249761Y494313D01*
X247894Y495999D01*
X245748Y497311D01*
X243397Y498204D01*
X240921Y498648D01*
X238406Y498626D01*
X235938Y498140D01*
X233603Y497207D01*
X231479Y495858D01*
X229642Y494140D01*
X228154Y492112D01*
X227066Y489844D01*
X226416Y487414D01*
X226226Y484906D01*
X226502Y482406D01*
X227236Y480000D01*
X228402Y477771D01*
X229959Y475796D01*
X180138Y490143D02*
X178223Y491780D01*
X176074Y493096D01*
X173747Y494060D01*
X171297Y494648D01*
X168785Y494846D01*
X180138Y490143D02*
X178223Y491780D01*
X176074Y493096D01*
X173747Y494060D01*
X171297Y494648D01*
X168785Y494846D01*
X152306Y735000D02*
X152037Y737559D01*
X151242Y740005D01*
X149956Y742233D01*
X148234Y744145D01*
X146153Y745657D01*
X143803Y746704D01*
X141286Y747239D01*
X138714D01*
X136197Y746704D01*
X133847Y745657D01*
X131766Y744145D01*
X130044Y742233D01*
X128758Y740005D01*
X127963Y737559D01*
X127694Y735000D01*
X127963Y732441D01*
X128758Y729995D01*
X130044Y727767D01*
X131766Y725855D01*
X133847Y724343D01*
X136197Y723296D01*
X138714Y722761D01*
X141286D01*
X143803Y723296D01*
X146153Y724343D01*
X148234Y725855D01*
X149956Y727767D01*
X151242Y729995D01*
X152037Y732441D01*
X152306Y735000D01*
Y698000D02*
X152037Y700559D01*
X151242Y703005D01*
X149956Y705233D01*
X148234Y707145D01*
X146153Y708657D01*
X143803Y709704D01*
X141286Y710239D01*
X138714D01*
X136197Y709704D01*
X133847Y708657D01*
X131766Y707145D01*
X130044Y705233D01*
X128758Y703005D01*
X127963Y700559D01*
X127694Y698000D01*
X127963Y695441D01*
X128758Y692995D01*
X130044Y690767D01*
X131766Y688855D01*
X133847Y687343D01*
X136197Y686296D01*
X138714Y685761D01*
X141286D01*
X143803Y686296D01*
X146153Y687343D01*
X148234Y688855D01*
X149956Y690767D01*
X151242Y692995D01*
X152037Y695441D01*
X152306Y698000D01*
X319386Y610870D02*
X319060Y613343D01*
X318106Y615648D01*
X316587Y617627D01*
X314608Y619146D01*
X312303Y620100D01*
X309830Y620426D01*
X307357Y620100D01*
X305052Y619146D01*
X303073Y617627D01*
X301554Y615648D01*
X300600Y613343D01*
X300274Y610870D01*
X300600Y608397D01*
X301554Y606092D01*
X303073Y604113D01*
X305052Y602594D01*
X307357Y601640D01*
X309830Y601314D01*
X312303Y601640D01*
X314608Y602594D01*
X316587Y604113D01*
X318106Y606092D01*
X319060Y608397D01*
X319386Y610870D01*
X355677Y543483D02*
X354040Y541567D01*
X352724Y539419D01*
X351760Y537092D01*
X351172Y534642D01*
X350974Y532130D01*
X319386Y636270D02*
X319060Y638743D01*
X318106Y641048D01*
X316587Y643027D01*
X314608Y644546D01*
X312303Y645500D01*
X309830Y645826D01*
X307357Y645500D01*
X305052Y644546D01*
X303073Y643027D01*
X301554Y641048D01*
X300600Y638743D01*
X300274Y636270D01*
X300600Y633797D01*
X301554Y631492D01*
X303073Y629513D01*
X305052Y627994D01*
X307357Y627040D01*
X309830Y626714D01*
X312303Y627040D01*
X314608Y627994D01*
X316587Y629513D01*
X318106Y631492D01*
X319060Y633797D01*
X319386Y636270D01*
X355677Y543483D02*
X354040Y541567D01*
X352724Y539419D01*
X351760Y537092D01*
X351172Y534642D01*
X350974Y532130D01*
X379730Y560886D02*
X377218Y560688D01*
X374768Y560100D01*
X372441Y559136D01*
X370293Y557820D01*
X368377Y556183D01*
X379730Y560886D02*
X377218Y560688D01*
X374768Y560100D01*
X372441Y559136D01*
X370293Y557820D01*
X368377Y556183D01*
X450000Y454156D02*
X447488Y453958D01*
X445038Y453370D01*
X442711Y452406D01*
X440563Y451090D01*
X438647Y449453D01*
X437010Y447537D01*
X435694Y445389D01*
X434730Y443062D01*
X434142Y440612D01*
X433944Y438100D01*
X434142Y435588D01*
X434730Y433138D01*
X435694Y430811D01*
X437010Y428662D01*
X438647Y426747D01*
X440563Y425110D01*
X442711Y423794D01*
X445038Y422830D01*
X447488Y422242D01*
X450000Y422044D01*
Y454156D02*
X447488Y453958D01*
X445038Y453370D01*
X442711Y452406D01*
X440563Y451090D01*
X438647Y449453D01*
X437010Y447537D01*
X435694Y445389D01*
X434730Y443062D01*
X434142Y440612D01*
X433944Y438100D01*
X434142Y435588D01*
X434730Y433138D01*
X435694Y430811D01*
X437010Y428662D01*
X438647Y426747D01*
X440563Y425110D01*
X442711Y423794D01*
X445038Y422830D01*
X447488Y422242D01*
X450000Y422044D01*
X397578Y525526D02*
X395500Y527053D01*
X393013Y527732D01*
X390448Y527472D01*
X388148Y526308D01*
X386419Y524395D01*
X385493Y521989D01*
Y519411D01*
X386419Y517005D01*
X388148Y515092D01*
X390448Y513928D01*
X393013Y513668D01*
X395500Y514347D01*
X397578Y515874D01*
X414020Y528774D02*
X416532Y528972D01*
X418982Y529560D01*
X421309Y530524D01*
X423457Y531840D01*
X425373Y533477D01*
X427010Y535392D01*
X428326Y537541D01*
X429290Y539868D01*
X429878Y542318D01*
X430076Y544830D01*
X429878Y547342D01*
X429290Y549792D01*
X428326Y552119D01*
X427010Y554268D01*
X425373Y556183D01*
X423457Y557820D01*
X421309Y559136D01*
X418982Y560100D01*
X416532Y560688D01*
X414020Y560886D01*
X416199Y580029D02*
X415856Y577682D01*
X416310Y575353D01*
X417511Y573307D01*
X419321Y571775D01*
X421538Y570929D01*
X423909Y570865D01*
X426167Y571591D01*
X428058Y573024D01*
X419168Y591566D02*
X417162Y593058D01*
X414763Y593757D01*
X412270Y593576D01*
X409997Y592537D01*
X408228Y590770D01*
X407187Y588498D01*
X407002Y586006D01*
X407699Y583605D01*
X409188Y581598D01*
X411283Y580236D01*
X413722Y579690D01*
X416199Y580029D01*
X428862Y590153D02*
X425450Y591566D01*
X428870Y590145D02*
X425450Y591566D01*
X429260Y609536D02*
X426676Y609080D01*
X424403Y607768D01*
X422716Y605758D01*
X421819Y603292D01*
Y600668D01*
X422716Y598202D01*
X424403Y596192D01*
X426676Y594880D01*
X429260Y594424D01*
X458923Y609536D02*
X460607Y611409D01*
X461865Y613590D01*
X462643Y615985D01*
X462906Y618490D01*
X522423Y609536D02*
X524107Y611409D01*
X525365Y613590D01*
X526143Y615985D01*
X526406Y618490D01*
X413013Y667013D02*
X410562Y668651D01*
X407670Y669226D01*
X413019Y667007D02*
X410565Y668649D01*
X407670Y669226D01*
X434966Y754380D02*
X434703Y756887D01*
X433924Y759284D01*
X432663Y761466D01*
X430977Y763339D01*
X428938Y764821D01*
X426636Y765846D01*
X424170Y766370D01*
X421650D01*
X419184Y765846D01*
X416882Y764821D01*
X414843Y763339D01*
X413157Y761466D01*
X411896Y759284D01*
X411117Y756887D01*
X410854Y754380D01*
X411117Y751873D01*
X411896Y749476D01*
X413157Y747294D01*
X414843Y745421D01*
X416882Y743939D01*
X419184Y742914D01*
X421650Y742390D01*
X424170D01*
X426636Y742914D01*
X428938Y743939D01*
X430977Y745421D01*
X432663Y747294D01*
X433924Y749476D01*
X434703Y751873D01*
X434966Y754380D01*
X438864Y619790D02*
X438893Y616948D01*
X439586Y614192D01*
X440905Y611675D01*
X442777Y609536D01*
X462906Y618490D02*
X462641Y621002D01*
X461860Y623403D01*
X460595Y625588D01*
X458902Y627463D01*
X456856Y628943D01*
X454547Y629965D01*
X452075Y630484D01*
X449550Y630476D01*
X513421Y630510D02*
X510914Y630046D01*
X508561Y629065D01*
X506466Y627611D01*
X504724Y625749D01*
X503413Y623562D01*
X502591Y621149D01*
X502295Y618616D01*
X502538Y616078D01*
X503309Y613648D01*
X504575Y611434D01*
X506277Y609536D01*
X526406Y618490D02*
X526231Y620535D01*
X528334Y642086D02*
X525251Y641473D01*
X522637Y639726D01*
X528334Y642086D02*
X525251Y641473D01*
X522637Y639726D01*
X460366Y754380D02*
X460103Y756887D01*
X459324Y759284D01*
X458064Y761466D01*
X456377Y763339D01*
X454338Y764821D01*
X452035Y765846D01*
X449570Y766370D01*
X447050D01*
X444585Y765846D01*
X442282Y764821D01*
X440243Y763339D01*
X438557Y761466D01*
X437296Y759284D01*
X436517Y756887D01*
X436254Y754380D01*
X436517Y751873D01*
X437296Y749476D01*
X438557Y747294D01*
X440243Y745421D01*
X442282Y743939D01*
X444585Y742914D01*
X447050Y742390D01*
X449570D01*
X452035Y742914D01*
X454338Y743939D01*
X456377Y745421D01*
X458064Y747294D01*
X459324Y749476D01*
X460103Y751873D01*
X460366Y754380D01*
X485766D02*
X485503Y756887D01*
X484724Y759284D01*
X483464Y761466D01*
X481777Y763339D01*
X479738Y764821D01*
X477435Y765846D01*
X474970Y766370D01*
X472450D01*
X469985Y765846D01*
X467682Y764821D01*
X465643Y763339D01*
X463956Y761466D01*
X462696Y759284D01*
X461917Y756887D01*
X461654Y754380D01*
X461917Y751873D01*
X462696Y749476D01*
X463956Y747294D01*
X465643Y745421D01*
X467682Y743939D01*
X469985Y742914D01*
X472450Y742390D01*
X474970D01*
X477435Y742914D01*
X479738Y743939D01*
X481777Y745421D01*
X483464Y747294D01*
X484724Y749476D01*
X485503Y751873D01*
X485766Y754380D01*
X551103Y29287D02*
X552740Y31202D01*
X554056Y33351D01*
X555020Y35678D01*
X555608Y38128D01*
X555806Y40640D01*
X551103Y29287D02*
X552740Y31202D01*
X554056Y33351D01*
X555020Y35678D01*
X555608Y38128D01*
X555806Y40640D01*
X809373Y25054D02*
X811987Y23307D01*
X815070Y22694D01*
X809373Y25054D02*
X811987Y23307D01*
X815070Y22694D01*
X810886Y46990D02*
X810628Y49470D01*
X809865Y51845D01*
X808631Y54011D01*
X806976Y55877D01*
X804974Y57363D01*
X802708Y58405D01*
X800277Y58959D01*
X797783Y59001D01*
X795335Y58528D01*
X793036Y57562D01*
X790984Y56144D01*
X789269Y54334D01*
X787963Y52210D01*
X787121Y49862D01*
X786781Y47392D01*
X786956Y44904D01*
X787639Y42506D01*
X788801Y40300D01*
X790392Y38379D01*
X792344Y36827D01*
X794574Y35710D01*
X796985Y35076D01*
X799476Y34951D01*
X555806Y74830D02*
X555639Y77139D01*
X555142Y79399D01*
X554325Y81565D01*
X553205Y83590D01*
X551806Y85434D01*
X550354Y86886D01*
X548294Y88424D01*
X546014Y89614D01*
X543574Y90424D01*
X541036Y90835D01*
X538464D01*
X535926Y90424D01*
X533486Y89614D01*
X531206Y88424D01*
X529146Y86886D01*
X574430Y165536D02*
X575830Y167242D01*
X576714Y169264D01*
X577016Y171450D01*
X786130Y149424D02*
X789213Y150037D01*
X791826Y151784D01*
X786130Y149424D02*
X789213Y150037D01*
X791826Y151784D01*
X904015Y38806D02*
X905451Y40924D01*
X906436Y43285D01*
X906930Y45796D01*
X856130Y48184D02*
X855650Y50648D01*
X854698Y52970D01*
X853309Y55060D01*
X851537Y56838D01*
X849452Y58235D01*
X847134Y59196D01*
X844672Y59685D01*
X842162Y59683D01*
X839702Y59189D01*
X837385Y58223D01*
X835303Y56822D01*
X833535Y55040D01*
X832150Y52947D01*
X831202Y50623D01*
X830728Y48159D01*
X830745Y45649D01*
X831253Y43191D01*
X832232Y40880D01*
X833645Y38806D01*
X906930Y45796D02*
X907424Y43285D01*
X908409Y40924D01*
X909845Y38806D01*
X929415D02*
X930851Y40924D01*
X931836Y43285D01*
X932330Y45796D01*
X983130D02*
X983624Y43285D01*
X984609Y40924D01*
X986045Y38806D01*
X957730Y45796D02*
X958224Y43285D01*
X959209Y40924D01*
X960645Y38806D01*
X932330Y45796D02*
X932824Y43285D01*
X933809Y40924D01*
X935245Y38806D01*
X954815D02*
X956251Y40924D01*
X957236Y43285D01*
X957730Y45796D01*
X980214Y38806D02*
X981651Y40924D01*
X982636Y43285D01*
X983130Y45796D01*
X906930Y48184D02*
X906451Y50646D01*
X905499Y52966D01*
X904112Y55056D01*
X902343Y56834D01*
X900260Y58231D01*
X897944Y59194D01*
X895484Y59684D01*
X892976D01*
X890516Y59194D01*
X888200Y58231D01*
X886117Y56834D01*
X884348Y55056D01*
X882961Y52966D01*
X882009Y50646D01*
X881530Y48184D01*
X881051Y50646D01*
X880099Y52966D01*
X878712Y55056D01*
X876943Y56834D01*
X874860Y58231D01*
X872544Y59194D01*
X870084Y59684D01*
X867576D01*
X865116Y59194D01*
X862800Y58231D01*
X860717Y56834D01*
X858948Y55056D01*
X857561Y52966D01*
X856609Y50646D01*
X856130Y48184D01*
X907585Y116659D02*
X910097Y116857D01*
X912546Y117445D01*
X914874Y118409D01*
X917022Y119725D01*
X918938Y121362D01*
X907585Y116659D02*
X910097Y116857D01*
X912546Y117445D01*
X914874Y118409D01*
X917022Y119725D01*
X918938Y121362D01*
X957730Y48184D02*
X957533Y49520D01*
X958041Y50028D02*
X957730Y48184D01*
X944973Y59746D02*
X942310Y59453D01*
X939768Y58610D01*
X937458Y57255D01*
X935481Y55448D01*
X933925Y53267D01*
X932859Y50810D01*
X932330Y48184D01*
X931851Y50646D01*
X930899Y52966D01*
X929512Y55056D01*
X927743Y56834D01*
X925660Y58231D01*
X923344Y59194D01*
X920884Y59684D01*
X918376D01*
X915916Y59194D01*
X913600Y58231D01*
X911517Y56834D01*
X909748Y55056D01*
X908361Y52966D01*
X907409Y50646D01*
X906930Y48184D01*
X958773Y161197D02*
X960410Y163113D01*
X961726Y165261D01*
X962690Y167589D01*
X963278Y170039D01*
X963476Y172550D01*
X983130Y48184D02*
X982673Y50571D01*
X981771Y52828D01*
X980458Y54874D01*
X978781Y56633D01*
X976800Y58042D01*
X974588Y59049D01*
X972225Y59619D01*
X969797Y59730D01*
X967392Y59379D01*
X958773Y161197D02*
X960410Y163113D01*
X961726Y165261D01*
X962690Y167589D01*
X963278Y170039D01*
X963476Y172550D01*
X577016Y171450D02*
X576622Y173939D01*
X575477Y176185D01*
X573695Y177967D01*
X571449Y179112D01*
X568960Y179506D01*
X608303Y377956D02*
X610674Y379001D01*
X612915Y380301D01*
X615001Y381838D01*
X616905Y383596D01*
X618604Y385552D01*
X620079Y387682D01*
X621310Y389962D01*
X622284Y392364D01*
X622988Y394857D01*
X623413Y397413D01*
X623556Y400000D01*
X591696Y422044D02*
X589325Y420999D01*
X587083Y419699D01*
X584998Y418161D01*
X583094Y416404D01*
X581395Y414448D01*
X579921Y412317D01*
X578689Y410037D01*
X577716Y407636D01*
X577012Y405143D01*
X576586Y402587D01*
X576444Y400000D01*
X576586Y397412D01*
X577012Y394857D01*
X577716Y392363D01*
X578690Y389962D01*
X579921Y387682D01*
X581395Y385551D01*
X583095Y383596D01*
X584999Y381838D01*
X587084Y380300D01*
X589326Y379001D01*
X591697Y377956D01*
X623556Y400000D02*
X623413Y402587D01*
X622988Y405143D01*
X622284Y407637D01*
X621310Y410038D01*
X620079Y412318D01*
X618605Y414448D01*
X616905Y416404D01*
X615002Y418162D01*
X612916Y419699D01*
X610675Y420999D01*
X608304Y422044D01*
X750000D02*
X752512Y422242D01*
X754962Y422830D01*
X757289Y423794D01*
X759437Y425110D01*
X761353Y426747D01*
X750000Y422044D02*
X752512Y422242D01*
X754962Y422830D01*
X757289Y423794D01*
X759437Y425110D01*
X761353Y426747D01*
X750000Y422044D02*
X752512Y422242D01*
X754962Y422830D01*
X757289Y423794D01*
X759437Y425110D01*
X761353Y426747D01*
X829019Y188976D02*
X829859Y186640D01*
X831370Y184670D01*
X833409Y183254D01*
X835783Y182526D01*
X838266Y182556D01*
X840621Y183340D01*
X842626Y184804D01*
X879674Y190500D02*
X880068Y188011D01*
X881213Y185765D01*
X882995Y183983D01*
X885241Y182838D01*
X887730Y182444D01*
X890219Y182838D01*
X892465Y183983D01*
X894247Y185765D01*
X895392Y188011D01*
X895786Y190500D01*
X854274D02*
X854668Y188011D01*
X855813Y185765D01*
X857595Y183983D01*
X859841Y182838D01*
X862330Y182444D01*
X864819Y182838D01*
X867065Y183983D01*
X868847Y185765D01*
X869992Y188011D01*
X870386Y190500D01*
X963476Y185420D02*
X963272Y187970D01*
X962666Y190455D01*
X961673Y192813D01*
X960318Y194982D01*
X958636Y196909D01*
X956668Y198545D01*
X954467Y199847D01*
X952086Y200783D01*
X949587Y201329D01*
X947033Y201471D01*
X944489Y201206D01*
X942019Y200540D01*
X939686Y199491D01*
X937549Y198084D01*
X935664Y196355D01*
X934076Y194349D01*
X827024Y483937D02*
X825520Y481908D01*
X824828Y479479D01*
X825035Y476961D01*
X826116Y474678D01*
X827932Y472922D01*
X830249Y471918D01*
X832772Y471795D01*
X835177Y472568D01*
X837155Y474138D01*
X838454Y476305D01*
X838906Y478790D01*
X855274Y360370D02*
X856695Y356950D01*
X855274Y360370D02*
X856687Y356958D01*
X977600Y262234D02*
X980683Y262847D01*
X983297Y264594D01*
X977600Y262234D02*
X980683Y262847D01*
X983297Y264594D01*
X908618Y305027D02*
X909032Y302408D01*
X910383Y300127D01*
X912482Y298505D01*
X915030Y297773D01*
X1008530Y48184D02*
X1008051Y50646D01*
X1007099Y52966D01*
X1005712Y55056D01*
X1003943Y56834D01*
X1001860Y58231D01*
X999544Y59194D01*
X997084Y59684D01*
X994576D01*
X992116Y59194D01*
X989800Y58231D01*
X987717Y56834D01*
X985948Y55056D01*
X984561Y52966D01*
X983609Y50646D01*
X983130Y48184D01*
X1013024Y56756D02*
X1011291Y54985D01*
X1009932Y52913D01*
X1009000Y50617D01*
X1008530Y48184D01*
X1084730D02*
X1084232Y50710D01*
X1083236Y53084D01*
X1081785Y55209D01*
X1079936Y57000D01*
X1081190Y22694D02*
X1084273Y23307D01*
X1086886Y25054D01*
X1081190Y22694D02*
X1084273Y23307D01*
X1086886Y25054D01*
X1096133Y34300D02*
X1098585Y34286D01*
X1100994Y34742D01*
X1103271Y35650D01*
X1105333Y36977D01*
X1107103Y38674D01*
X1108515Y40678D01*
X1109518Y42915D01*
X1110074Y45303D01*
Y48677D02*
X1109510Y51087D01*
X1108492Y53343D01*
X1107056Y55360D01*
X1105259Y57061D01*
X1103166Y58383D01*
X1100858Y59277D01*
X1098421Y59707D01*
X1095946Y59659D01*
X1093527Y59134D01*
X1091255Y58152D01*
X1089216Y56749D01*
X1087486Y54979D01*
X1086130Y52908D01*
X1085200Y50614D01*
X1084730Y48184D01*
X1191444Y39749D02*
X1190278Y41988D01*
X1188879Y44088D01*
X1187263Y46027D01*
X1185449Y47782D01*
X1183458Y49333D01*
X1181313Y50662D01*
X1179037Y51754D01*
X1176658Y52596D01*
X1174202Y53178D01*
X1171698Y53495D01*
X1169175Y53541D01*
X1166661Y53318D01*
X1164185Y52827D01*
X1161776Y52074D01*
X1159462Y51067D01*
X1157268Y49819D01*
X1155221Y48343D01*
X1153344Y46656D01*
X1151657Y44779D01*
X1150181Y42731D01*
X1148933Y40538D01*
X1147926Y38223D01*
X1147173Y35815D01*
X1146682Y33339D01*
X1146459Y30825D01*
X1146506Y28302D01*
X1146822Y25798D01*
X1147405Y23342D01*
X1148247Y20963D01*
X1149339Y18687D01*
X1150667Y16542D01*
X1152218Y14550D01*
X1153973Y12737D01*
X1155912Y11121D01*
X1158013Y9722D01*
X1160251Y8556D01*
X1110706Y152705D02*
X1112453Y155319D01*
X1113066Y158402D01*
X1110706Y152705D02*
X1112453Y155319D01*
X1113066Y158402D01*
X1127196Y176784D02*
X1126720Y179333D01*
X1125355Y181538D01*
X1123285Y183100D01*
X1120791Y183810D01*
X1118209Y183571D01*
X1115888Y182415D01*
X1114141Y180499D01*
X1113204Y178081D01*
Y175487D01*
X1114141Y173069D01*
X1115888Y171153D01*
X1118209Y169997D01*
X1120791Y169758D01*
X1123285Y170468D01*
X1125355Y172030D01*
X1126720Y174235D01*
X1127196Y176784D01*
X1022976Y185420D02*
X1022713Y187927D01*
X1021934Y190324D01*
X1020674Y192506D01*
X1018987Y194379D01*
X1016948Y195861D01*
X1014645Y196886D01*
X1012180Y197410D01*
X1009660D01*
X1007195Y196886D01*
X1004892Y195861D01*
X1002853Y194379D01*
X1001167Y192506D01*
X999906Y190324D01*
X999127Y187927D01*
X998864Y185420D01*
X999127Y182913D01*
X999906Y180516D01*
X1001167Y178334D01*
X1002853Y176461D01*
X1004892Y174979D01*
X1007195Y173954D01*
X1009660Y173430D01*
X1012180D01*
X1014645Y173954D01*
X1016948Y174979D01*
X1018987Y176461D01*
X1020674Y178334D01*
X1021934Y180516D01*
X1022713Y182913D01*
X1022976Y185420D01*
X1021729Y235798D02*
X1022464Y234953D01*
X1021729Y235798D02*
X1022464Y234953D01*
X1002864Y258000D02*
X1003477Y254917D01*
X1005223Y252304D01*
X1002864Y258000D02*
X1003477Y254917D01*
X1005223Y252304D01*
X1094016Y253071D02*
X1094881Y255074D01*
X1095176Y257236D01*
X1094016Y253071D02*
X1094881Y255074D01*
X1095176Y257236D01*
X1085060Y362267D02*
X1087782Y362076D01*
X1090456Y362623D01*
X1092884Y363870D01*
X1094887Y365723D01*
X1096318Y368046D01*
X1097072Y370669D01*
X1113066Y229570D02*
X1112453Y232653D01*
X1110706Y235266D01*
X1113066Y229570D02*
X1112453Y232653D01*
X1110706Y235266D01*
X1143887Y304657D02*
X1146338Y303019D01*
X1149230Y302444D01*
X1143881Y304663D02*
X1146334Y303021D01*
X1149230Y302444D01*
X1095176Y327428D02*
X1097488Y326081D01*
X1100135Y325691D01*
X1102737Y326315D01*
X1104920Y327863D01*
X1106369Y330113D01*
X1106876Y332740D01*
X1104646Y340682D02*
X1103225Y344102D01*
X1104646Y340682D02*
X1103232Y344095D01*
X1106876Y332740D02*
X1106295Y335545D01*
X1104646Y337887D01*
X1116944Y334730D02*
X1117519Y331838D01*
X1119157Y329387D01*
X1116944Y334730D02*
X1117521Y331834D01*
X1119163Y329381D01*
X560638Y495527D02*
X560993Y493078D01*
X562173Y490901D01*
X564031Y489267D01*
X566340Y488374D01*
X568816Y488334D01*
X571152Y489152D01*
X573063Y490726D01*
X574312Y492863D01*
X574746Y495300D01*
X574187Y498053D01*
X572598Y500369D01*
X570232Y501882D01*
X567463Y502352D01*
X545703Y524113D02*
X542290Y525526D01*
X545710Y524105D02*
X542290Y525526D01*
X564136Y573024D02*
X565644Y571218D01*
X567662Y570008D01*
X569966Y569529D01*
X572299Y569834D01*
X574402Y570890D01*
X576041Y572578D01*
X577034Y574711D01*
X570936Y585160D02*
X570519Y587550D01*
X569316Y589658D01*
X567471Y591234D01*
X565201Y592091D01*
X562775Y592129D01*
X560480Y591343D01*
X558586Y589825D01*
X557319Y587756D01*
X570765Y583616D02*
X570936Y585160D01*
X572706Y601980D02*
X572336Y604315D01*
X571263Y606421D01*
X569591Y608093D01*
X567485Y609166D01*
X565150Y609536D01*
Y594424D02*
X567485Y594794D01*
X569591Y595867D01*
X571263Y597539D01*
X572336Y599645D01*
X572706Y601980D01*
X573206Y623570D02*
X572593Y626653D01*
X570846Y629267D01*
X559454Y617873D02*
X561655Y616312D01*
X564248Y615565D01*
X566943Y615716D01*
X569436Y616749D01*
X571448Y618547D01*
X572754Y620909D01*
X573206Y623570D01*
X577034Y578449D02*
X575730Y581000D01*
X573518Y582823D01*
X570765Y583616D01*
X838906Y478790D02*
X838325Y481595D01*
X836676Y483937D01*
X856687Y494120D02*
X855274Y490708D01*
X856695Y494128D02*
X855274Y490708D01*
X860354Y508053D02*
X860906Y505265D01*
X862512Y502921D01*
Y502921D02*
X860971Y500606D01*
X860443Y497876D01*
X803987Y519353D02*
X802311Y517384D01*
X800974Y515171D01*
X800009Y512772D01*
X799442Y510249D01*
X803987Y519353D02*
X802311Y517384D01*
X800974Y515171D01*
X800009Y512772D01*
X799442Y510249D01*
X623570Y609536D02*
X620986Y609080D01*
X618713Y607768D01*
X617026Y605758D01*
X616129Y603292D01*
Y600668D01*
X617026Y598202D01*
X618713Y596192D01*
X620986Y594880D01*
X623570Y594424D01*
Y631626D02*
X621081Y631232D01*
X618835Y630087D01*
X617053Y628305D01*
X615908Y626059D01*
X615514Y623570D01*
X615908Y621081D01*
X617053Y618835D01*
X618835Y617053D01*
X621081Y615908D01*
X623570Y615514D01*
X842010D02*
X845093Y616127D01*
X847707Y617873D01*
X842010Y615514D02*
X845093Y616127D01*
X847707Y617873D01*
X855185Y515221D02*
X856606Y511801D01*
X855185Y515221D02*
X856599Y511809D01*
X851716Y625220D02*
X851313Y627735D01*
X850146Y629998D01*
X848330Y631784D01*
X846048Y632914D01*
X843527Y633275D01*
X841019Y632831D01*
X838775Y631626D01*
X849357Y619524D02*
X851103Y622137D01*
X851716Y625220D01*
X880110Y588826D02*
X877598Y588628D01*
X875148Y588040D01*
X872821Y587076D01*
X870673Y585760D01*
X868757Y584123D01*
X880110Y588826D02*
X877598Y588628D01*
X875148Y588040D01*
X872821Y587076D01*
X870673Y585760D01*
X868757Y584123D01*
X560386Y639726D02*
X557773Y641473D01*
X554690Y642086D01*
X560386Y639726D02*
X557773Y641473D01*
X554690Y642086D01*
X578176Y760328D02*
X576692Y762400D01*
X574805Y764113D01*
X572600Y765391D01*
X570175Y766177D01*
X567640Y766436D01*
X565106Y766156D01*
X562688Y765350D01*
X560494Y764053D01*
X558622Y762324D01*
X557154Y760240D01*
X556158Y757895D01*
X555676Y755392D01*
X555732Y752844D01*
X556323Y750364D01*
X557421Y748064D01*
X558978Y746047D01*
X560924Y744401D01*
X563173Y743202D01*
X565624Y742502D01*
X568167Y742333D01*
X570689Y742703D01*
X573077Y743594D01*
X575224Y744968D01*
X577034Y746762D01*
X554346Y754380D02*
X554083Y756887D01*
X553304Y759284D01*
X552043Y761466D01*
X550357Y763339D01*
X548318Y764821D01*
X546016Y765846D01*
X543550Y766370D01*
X541030D01*
X538564Y765846D01*
X536262Y764821D01*
X534223Y763339D01*
X532537Y761466D01*
X531276Y759284D01*
X530497Y756887D01*
X530234Y754380D01*
X530497Y751873D01*
X531276Y749476D01*
X532537Y747294D01*
X534223Y745421D01*
X536262Y743939D01*
X538564Y742914D01*
X541030Y742390D01*
X543550D01*
X546016Y742914D01*
X548318Y743939D01*
X550357Y745421D01*
X552043Y747294D01*
X553304Y749476D01*
X554083Y751873D01*
X554346Y754380D01*
X609146D02*
X608935Y756977D01*
X608306Y759506D01*
X607276Y761900D01*
X605873Y764096D01*
X604133Y766035D01*
X602102Y767668D01*
X599834Y768951D01*
X597388Y769850D01*
X594829Y770342D01*
X592224Y770413D01*
X589642Y770061D01*
X587151Y769297D01*
X584816Y768140D01*
X582699Y766620D01*
X580856Y764778D01*
X579335Y762662D01*
X578176Y760328D01*
X661750Y771796D02*
X665163Y770382D01*
X663313Y783883D02*
X662475Y786306D01*
X660827Y788270D01*
X658587Y789516D01*
X656049Y789878D01*
X653549Y789310D01*
X651417Y787886D01*
X649934Y785795D01*
X649297Y783312D01*
X649588Y780765D01*
X650771Y778490D01*
X652688Y776788D01*
X655087Y775883D01*
X657650Y775895D01*
X661743Y771803D02*
X665163Y770382D01*
X846473Y661016D02*
X844992Y658977D01*
X844213Y656580D01*
Y654060D01*
X844992Y651663D01*
X846473Y649623D01*
X848513Y648142D01*
X850910Y647363D01*
X853430D01*
X855827Y648142D01*
X857867Y649623D01*
X856186Y751423D02*
X856750Y749013D01*
X857768Y746757D01*
X859204Y744741D01*
X861001Y743039D01*
X863094Y741717D01*
X865402Y740823D01*
X867839Y740393D01*
X870314Y740441D01*
X872733Y740966D01*
X875005Y741948D01*
X877044Y743351D01*
X878774Y745121D01*
X880130Y747192D01*
X881060Y749486D01*
X881530Y751916D01*
X882009Y749454D01*
X882961Y747133D01*
X884348Y745044D01*
X886117Y743266D01*
X888200Y741869D01*
X890516Y740907D01*
X892976Y740416D01*
X895484D01*
X897944Y740907D01*
X900260Y741869D01*
X902343Y743266D01*
X904112Y745044D01*
X905499Y747133D01*
X906451Y749454D01*
X906930Y751916D01*
X781940Y781444D02*
X784185Y781744D01*
X786273Y782623D01*
X788057Y784018D01*
X801878Y770382D02*
X805291Y771796D01*
X801878Y770382D02*
X805298Y771803D01*
X781940Y781444D02*
X784185Y781744D01*
X786273Y782623D01*
X788057Y784018D01*
X668803Y784038D02*
X670591Y782632D01*
X672686Y781746D01*
X674940Y781444D01*
X668803Y784038D02*
X670591Y782632D01*
X672686Y781746D01*
X674940Y781444D01*
X906930Y754304D02*
X906451Y756766D01*
X905499Y759087D01*
X904112Y761176D01*
X902343Y762954D01*
X900260Y764351D01*
X897944Y765313D01*
X895484Y765804D01*
X892976D01*
X890516Y765313D01*
X888200Y764351D01*
X886117Y762954D01*
X884348Y761176D01*
X882961Y759087D01*
X882009Y756766D01*
X881530Y754304D01*
X808136Y791444D02*
X806511Y789025D01*
X806002Y786157D01*
X812827Y779332D02*
X815596Y779802D01*
X817962Y781315D01*
X819551Y783631D01*
X820110Y786384D01*
X881530Y754304D02*
X881060Y756734D01*
X880130Y759028D01*
X878774Y761099D01*
X877044Y762869D01*
X875005Y764272D01*
X872733Y765254D01*
X870314Y765779D01*
X867839Y765827D01*
X865402Y765397D01*
X863094Y764503D01*
X861001Y763181D01*
X859204Y761479D01*
X857768Y759463D01*
X856750Y757207D01*
X856186Y754797D01*
X820110Y786384D02*
X819554Y789131D01*
X817972Y791444D01*
X1002634Y583399D02*
X1000669Y585276D01*
X998416Y586795D01*
X995938Y587913D01*
X993308Y588596D01*
X990600Y588826D01*
X924389Y624972D02*
X921967Y624305D01*
X919787Y623058D01*
X917983Y621309D01*
X916669Y619167D01*
X915927Y616767D01*
X915803Y614258D01*
X916305Y611796D01*
X917401Y609536D01*
X1080086Y621464D02*
X1082175Y619894D01*
X1084598Y618915D01*
X1087192Y618594D01*
X1089781Y618952D01*
X1092189Y619965D01*
X1094256Y621565D01*
X1095841Y623643D01*
X1096836Y626059D01*
X1097176Y628650D01*
X903804Y637209D02*
X902557Y635008D01*
X901898Y632565D01*
X901870Y630036D01*
X902474Y627580D01*
X903672Y625352D01*
X905388Y623493D01*
X907514Y622122D01*
X909914Y621324D01*
X912438Y621151D01*
X914925Y621612D01*
X917218Y622680D01*
X919172Y624287D01*
X920664Y626330D01*
X921598Y628680D01*
X921916Y631190D01*
X921687Y633324D01*
X921010Y635362D01*
X919916Y637209D01*
X1097176Y628650D02*
X1096947Y630784D01*
X1096270Y632822D01*
X1095176Y634669D01*
Y665811D02*
X1096270Y667658D01*
X1096947Y669696D01*
X1097176Y671830D01*
X1120576Y520936D02*
X1119963Y524019D01*
X1118216Y526632D01*
X1120576Y520936D02*
X1119963Y524019D01*
X1118216Y526632D01*
X1146500Y503936D02*
X1146023Y506485D01*
X1144659Y508690D01*
X1142589Y510252D01*
X1140095Y510962D01*
X1137513Y510723D01*
X1135192Y509567D01*
X1133445Y507650D01*
X1132508Y505233D01*
Y502640D01*
X1133445Y500221D01*
X1135192Y498305D01*
X1137513Y497149D01*
X1140095Y496910D01*
X1142589Y497620D01*
X1144659Y499182D01*
X1146023Y501387D01*
X1146500Y503936D01*
X1150400Y497556D02*
X1147505Y496979D01*
X1145051Y495337D01*
X1150400Y497556D02*
X1147509Y496981D01*
X1145057Y495343D01*
X1105734Y634669D02*
X1104487Y632468D01*
X1103829Y630025D01*
X1103800Y627496D01*
X1104404Y625040D01*
X1105602Y622812D01*
X1107318Y620953D01*
X1109444Y619582D01*
X1111844Y618784D01*
X1114368Y618611D01*
X1116855Y619072D01*
X1119148Y620140D01*
X1121102Y621747D01*
X1122594Y623790D01*
X1123528Y626141D01*
X1123846Y628650D01*
X1123617Y630784D01*
X1122940Y632822D01*
X1121846Y634669D01*
X1146754Y660400D02*
X1146277Y662949D01*
X1144912Y665154D01*
X1142843Y666716D01*
X1140349Y667426D01*
X1137767Y667187D01*
X1135446Y666031D01*
X1133699Y664115D01*
X1132762Y661696D01*
Y659103D01*
X1133699Y656685D01*
X1135446Y654769D01*
X1137767Y653613D01*
X1140349Y653374D01*
X1142843Y654084D01*
X1144912Y655646D01*
X1146277Y657851D01*
X1146754Y660400D01*
X950576Y723283D02*
X952323Y725897D01*
X952936Y728980D01*
X950576Y723283D02*
X952323Y725897D01*
X952936Y728980D01*
X996708Y740384D02*
X995037Y738521D01*
X993877Y736302D01*
X993302Y733866D01*
X993346Y731362D01*
X994007Y728948D01*
X995244Y726771D01*
X952936Y743100D02*
X954785Y744891D01*
X956236Y747017D01*
X957232Y749390D01*
X957730Y751916D01*
X906930D02*
X907414Y749436D01*
X908378Y747101D01*
X909783Y745001D01*
X911574Y743220D01*
X932330Y754304D02*
X931851Y756766D01*
X930899Y759087D01*
X929512Y761176D01*
X927743Y762954D01*
X925660Y764351D01*
X923344Y765313D01*
X920884Y765804D01*
X918376D01*
X915916Y765313D01*
X913600Y764351D01*
X911517Y762954D01*
X909748Y761176D01*
X908361Y759087D01*
X907409Y756766D01*
X906930Y754304D01*
X957730D02*
X957251Y756766D01*
X956299Y759087D01*
X954912Y761176D01*
X953143Y762954D01*
X951060Y764351D01*
X948744Y765313D01*
X946284Y765804D01*
X943776D01*
X941316Y765313D01*
X939000Y764351D01*
X936917Y762954D01*
X935148Y761176D01*
X933761Y759087D01*
X932809Y756766D01*
X932330Y754304D01*
X971727Y765800D02*
X969213Y765808D01*
X966747Y765323D01*
X964424Y764364D01*
X962334Y762968D01*
X960558Y761189D01*
X959166Y759096D01*
X958211Y756771D01*
X957730Y754304D01*
Y751916D02*
X958209Y749454D01*
X959161Y747133D01*
X960548Y745044D01*
X962317Y743266D01*
X964400Y741869D01*
X966716Y740907D01*
X969176Y740416D01*
X971684D01*
X974144Y740907D01*
X976460Y741869D01*
X978543Y743266D01*
X980312Y745044D01*
X981699Y747133D01*
X982651Y749454D01*
X983130Y751916D01*
Y751916D02*
X983596Y749499D01*
X984517Y747217D01*
X985859Y745154D01*
X987573Y743387D01*
X989594Y741982D01*
X991847Y740992D01*
X994248Y740452D01*
X996708Y740384D01*
X999117Y791444D02*
X997013Y790641D01*
X995213Y789286D01*
X999117Y791444D02*
X997013Y790641D01*
X995213Y789286D01*
X1097176Y671830D02*
X1096836Y674421D01*
X1095841Y676837D01*
X1094256Y678915D01*
X1092189Y680515D01*
X1089781Y681528D01*
X1087192Y681886D01*
X1084598Y681565D01*
X1082175Y680586D01*
X1080086Y679016D01*
X1108093Y709277D02*
X1106347Y706663D01*
X1105734Y703580D01*
X1108093Y709277D02*
X1106347Y706663D01*
X1105734Y703580D01*
X1084730Y751916D02*
X1085209Y749454D01*
X1086161Y747133D01*
X1087548Y745044D01*
X1089317Y743266D01*
X1091400Y741869D01*
X1093716Y740907D01*
X1096176Y740416D01*
X1098684D01*
X1101144Y740907D01*
X1103460Y741869D01*
X1105543Y743266D01*
X1107312Y745044D01*
X1108699Y747133D01*
X1109651Y749454D01*
X1110130Y751916D01*
X1080086Y743220D02*
X1081877Y745001D01*
X1083282Y747101D01*
X1084246Y749436D01*
X1084730Y751916D01*
X1110130D02*
X1110602Y749478D01*
X1111537Y747178D01*
X1112900Y745103D01*
X1114639Y743331D01*
X1116688Y741930D01*
X1118970Y740952D01*
X1121399Y740434D01*
X1123881Y740397D01*
X1126324Y740842D01*
X1128634Y741751D01*
X1130725Y743091D01*
X1132516Y744810D01*
X1133941Y746843D01*
X1134944Y749114D01*
X1148697Y727094D02*
X1150443Y729707D01*
X1151056Y732790D01*
X1148697Y727094D02*
X1150443Y729707D01*
X1151056Y732790D01*
Y756000D02*
X1152698Y754015D01*
X1154546Y752222D01*
X1156580Y750641D01*
X1158773Y749292D01*
X1161101Y748190D01*
X1163535Y747348D01*
X1166047Y746778D01*
X1168606Y746485D01*
X1171181Y746474D01*
X1173743Y746743D01*
X1176260Y747291D01*
X1178701Y748110D01*
X1181039Y749191D01*
X1183245Y750520D01*
X1185293Y752083D01*
X1187157Y753859D01*
X1188817Y755829D01*
X1190251Y757968D01*
X1191444Y760251D01*
X8556Y45720D02*
X12038D01*
X8556Y50800D02*
X18084D01*
X8556Y116840D02*
X101250D01*
X8556Y127000D02*
X100784D01*
X8556Y121920D02*
X100784D01*
Y120680D02*
Y186389D01*
X8556Y111760D02*
X103490D01*
X8556Y66040D02*
X148773D01*
X8556Y76200D02*
X138613D01*
X8556Y71120D02*
X143693D01*
X41916Y50800D02*
X164196D01*
X8556Y60960D02*
X153853D01*
X8556Y55880D02*
X158933D01*
X8556Y96520D02*
X118293D01*
X8556Y106680D02*
X108133D01*
X8556Y101600D02*
X113213D01*
X8556Y81280D02*
X133533D01*
X105487Y109327D02*
X162667Y52147D01*
X8556Y91440D02*
X123373D01*
X8556Y86360D02*
X128453D01*
X8556Y193040D02*
X93286D01*
X8556Y203200D02*
X83126D01*
X8556Y198120D02*
X88206D01*
X8556Y187960D02*
X99213D01*
X8556Y213360D02*
X74563D01*
X8556Y223520D02*
X73244D01*
X8556Y218440D02*
X73296D01*
X8556Y208280D02*
X78046D01*
X77947Y208379D02*
X94079Y192247D01*
X8556Y147320D02*
X100784D01*
X8556Y157480D02*
X100784D01*
X8556Y152400D02*
X100784D01*
X8556Y132080D02*
X100784D01*
X8556Y142240D02*
X100784D01*
X8556Y137160D02*
X100784D01*
X8556Y172720D02*
X100784D01*
X8556Y182880D02*
X100784D01*
X8556Y177800D02*
X100784D01*
X8556Y167640D02*
X100784D01*
X8556Y162560D02*
X100784D01*
X97576Y189598D02*
X100784Y186389D01*
X117501Y215084D02*
X162134D01*
X158627Y101600D02*
X189413D01*
X185373Y52147D02*
X210751Y77524D01*
X168787Y91440D02*
X179253D01*
X163707Y96520D02*
X184333D01*
X132896Y127331D02*
X174020Y86207D01*
X132896Y127331D02*
Y193040D01*
X153547Y106680D02*
X194816D01*
X174020Y86207D02*
X192747Y104933D01*
X253336Y173134D02*
Y188034D01*
X204100Y109636D02*
X276159D01*
X148467Y111760D02*
X278283D01*
X143387Y116840D02*
X283363D01*
X210751Y77524D02*
X282810D01*
X132896Y137160D02*
X303683D01*
X132896Y142240D02*
X308763D01*
X132896Y147320D02*
X313843D01*
X138307Y121920D02*
X288443D01*
X276159Y109636D02*
X310592Y144068D01*
X133227Y127000D02*
X293523D01*
X132896Y132080D02*
X298603D01*
X129273Y203200D02*
X174018D01*
X132071Y198120D02*
X179921D01*
X117633Y214953D02*
X127491Y205096D01*
X119227Y213360D02*
X163858D01*
X124307Y208280D02*
X168938D01*
X128896Y203644D02*
Y205096D01*
X162134Y215084D02*
X176482Y200737D01*
X127491Y205096D02*
X128193Y204393D01*
X127491Y205096D02*
X128896D01*
X132896Y182880D02*
X226224D01*
X132896Y193040D02*
X226224D01*
X132896Y187960D02*
X226224D01*
Y173134D02*
X253336D01*
X132896Y177800D02*
X226224D01*
Y173134D02*
Y196034D01*
X187835D02*
X226224D01*
X253336Y188034D02*
X264157Y198855D01*
X194486Y228146D02*
X229959D01*
X8556Y243840D02*
X73244D01*
X8556Y254000D02*
X73244D01*
X8556Y248920D02*
X73244D01*
X8556Y228600D02*
X73244D01*
X8556Y238760D02*
X73244D01*
X8556Y233680D02*
X73244D01*
X8556Y40229D02*
Y760251D01*
Y264160D02*
X76453D01*
X8556Y269240D02*
X81305D01*
X73244Y219733D02*
Y254529D01*
X8556Y259080D02*
X73903D01*
X105356Y242361D02*
Y247878D01*
Y243840D02*
X107016D01*
X116840Y247196D02*
X168785D01*
X106398Y248920D02*
X232492D01*
X111478Y254000D02*
X238973D01*
X77947Y265882D02*
X100784Y288719D01*
X8556Y274320D02*
X86385D01*
X8556Y279400D02*
X91465D01*
X105356Y247878D02*
X128193Y270716D01*
X116558Y259080D02*
X233944D01*
X126718Y269240D02*
X232224D01*
X121638Y264160D02*
X232224D01*
X8556Y320040D02*
X90111D01*
X8556Y330200D02*
X79951D01*
X8556Y325120D02*
X85031D01*
X8556Y284480D02*
X96545D01*
X8556Y314960D02*
X95191D01*
X8556Y309880D02*
X100271D01*
X8556Y340360D02*
X73566D01*
X8556Y350520D02*
X73244D01*
X8556Y345440D02*
X73244D01*
Y343558D02*
Y413150D01*
X8556Y335280D02*
X75542D01*
X8556Y294640D02*
X100784D01*
X8556Y304800D02*
X100784D01*
X8556Y299720D02*
X100784D01*
Y288719D02*
Y309367D01*
X8556Y289560D02*
X100784D01*
X77947Y332204D02*
X100784Y309367D01*
X116654Y338910D02*
X124697Y330867D01*
X116840Y338909D02*
X162134D01*
X120284Y335280D02*
X165763D01*
X125783Y330200D02*
X170843D01*
X180138Y242493D02*
X194486Y228146D01*
X178609Y243840D02*
X227803D01*
X194032Y228600D02*
X229546D01*
X183872Y238760D02*
X226284D01*
X188952Y233680D02*
X226770D01*
X132673Y279400D02*
X232224D01*
X132896Y282069D02*
Y316865D01*
Y289560D02*
X232224D01*
X132896Y284480D02*
X232224D01*
X266376Y204203D02*
Y244839D01*
X130902Y274320D02*
X232224D01*
Y263879D02*
Y296959D01*
X234443Y258531D02*
X242133Y250840D01*
X247336Y267009D02*
X264157Y250188D01*
X247336Y267009D02*
Y296959D01*
X132896Y314960D02*
X226224D01*
X130611Y325120D02*
X175923D01*
X132579Y320040D02*
X185431D01*
X187835Y319859D02*
X226224D01*
X128896Y327469D02*
Y328921D01*
X127444D02*
X128896D01*
X162134Y338909D02*
X176482Y324562D01*
X180138Y366318D02*
X194486Y351971D01*
X132896Y299720D02*
X226224D01*
X132896Y309880D02*
X226224D01*
X132896Y304800D02*
X226224D01*
X132896Y294640D02*
X232224D01*
X247336Y296959D02*
X253336D01*
X226224D02*
Y319859D01*
Y296959D02*
X232224D01*
X194486Y351971D02*
X229959D01*
X250620Y324071D02*
X253336D01*
Y296959D02*
Y324071D01*
X53002Y35560D02*
X405253D01*
X47962Y45720D02*
X395093D01*
X51252Y40640D02*
X400173D01*
X53556Y30480D02*
X410333D01*
X189107Y55880D02*
X384964D01*
X183844Y50800D02*
X384964D01*
X194187Y60960D02*
X384166D01*
X199267Y66040D02*
X384166D01*
X204347Y71120D02*
X384964D01*
X294163Y82227D02*
X328596Y116659D01*
X209427Y76200D02*
X384964D01*
X310592Y144068D02*
X350974Y184451D01*
X360708Y148771D02*
X375331Y163394D01*
X38615Y8556D02*
X1160251D01*
X47962Y15240D02*
X425573D01*
X41916Y10160D02*
X433066D01*
X51252Y20320D02*
X420493D01*
X53002Y25400D02*
X415413D01*
X293130Y81280D02*
X491465D01*
X298297Y86360D02*
X498128D01*
X303377Y91440D02*
X976667D01*
X308457Y96520D02*
X981747D01*
X313537Y101600D02*
X986827D01*
X318617Y106680D02*
X991907D01*
X328596Y116659D02*
X907585D01*
X323697Y111760D02*
X996987D01*
X132896Y162560D02*
X329083D01*
X132896Y167640D02*
X334163D01*
X132896Y172720D02*
X339243D01*
X132896Y152400D02*
X318923D01*
X132896Y157480D02*
X324003D01*
X253336Y177800D02*
X344323D01*
X253336Y182880D02*
X349403D01*
X266309Y203200D02*
X350974D01*
X263422Y198120D02*
X350974D01*
X266376Y213360D02*
X350974D01*
X266376Y208280D02*
X350974D01*
X266376Y223520D02*
X350974D01*
X266376Y218440D02*
X350974D01*
X360708Y148771D02*
X900934D01*
X253336Y187960D02*
X350974D01*
X364337Y152400D02*
X500478D01*
X369417Y157480D02*
X498674D01*
X374497Y162560D02*
X500478D01*
X375331Y163394D02*
X501260D01*
X350974Y184451D02*
Y194310D01*
X258342Y193040D02*
X350974D01*
X383086Y228600D02*
X845857D01*
X383086Y203200D02*
X820457D01*
X383086Y213360D02*
X830617D01*
X383086Y218440D02*
X835697D01*
X383086Y223520D02*
X840777D01*
X392369Y48444D02*
X426767Y14047D01*
X384964Y48444D02*
Y57922D01*
Y48444D02*
X392369D01*
X420187Y66040D02*
X493399D01*
X384964Y69078D02*
Y78556D01*
X415076Y71151D02*
Y78556D01*
Y71151D02*
X444771Y41456D01*
X415107Y71120D02*
X490179D01*
X438120Y9344D02*
X524510D01*
X444771Y41456D02*
X517859D01*
X440507Y45720D02*
X522123D01*
X517859Y41456D02*
X523694Y47291D01*
X435427Y50800D02*
X523694D01*
X425267Y60960D02*
X523694D01*
X430347Y55880D02*
X523694D01*
Y47291D02*
Y74830D01*
X513121Y71120D02*
X523694D01*
X509901Y66040D02*
X523694D01*
X405598Y78556D02*
X415076D01*
X384964D02*
X394442D01*
X415076Y76200D02*
X489672D01*
X513628D02*
X523753D01*
X383086Y179506D02*
Y186254D01*
Y202366D02*
X426720D01*
X383086Y186254D02*
X426720D01*
X511836Y81280D02*
X525047D01*
X505172Y86360D02*
X527694D01*
Y85434D02*
Y86886D01*
Y86360D02*
X528576D01*
X527694Y86886D02*
X529146D01*
X383086Y179506D02*
X568960D01*
X383086Y182880D02*
X800137D01*
X383086Y208280D02*
X825537D01*
X506730Y149424D02*
X786130D01*
X431678Y187960D02*
X805217D01*
X434675Y193040D02*
X810297D01*
X433818Y198120D02*
X815377D01*
X265179Y248920D02*
X315794D01*
X255265Y259080D02*
X315794D01*
X260345Y254000D02*
X315794D01*
X266376Y233680D02*
X317598D01*
X266376Y243840D02*
X315794D01*
X266376Y238760D02*
X315794D01*
X247336Y274320D02*
X315794D01*
X247336Y284480D02*
X315794D01*
X247336Y279400D02*
X315794D01*
Y238760D02*
Y373853D01*
X331906Y238760D02*
Y369134D01*
X247336Y269240D02*
X315794D01*
X250185Y264160D02*
X315794D01*
X266376Y228600D02*
X350974D01*
X330102Y233680D02*
X350974D01*
X331906Y238760D02*
X350974D01*
X331906Y248920D02*
X350974D01*
X331906Y243840D02*
X350974D01*
X331906Y274320D02*
X350974D01*
X331906Y284480D02*
X350974D01*
X331906Y279400D02*
X350974D01*
X331906Y259080D02*
X350974D01*
X331906Y254000D02*
X350974D01*
X331906Y269240D02*
X350974D01*
X331906Y264160D02*
X350974D01*
X247336Y289560D02*
X315794D01*
X253336Y314960D02*
X315794D01*
X247336Y294640D02*
X315794D01*
X253336Y299720D02*
X315794D01*
X253336Y309880D02*
X315794D01*
X253336Y304800D02*
X315794D01*
X251665Y325120D02*
X315794D01*
X247980Y350520D02*
X315794D01*
X252705Y345440D02*
X315794D01*
X254785Y330200D02*
X315794D01*
X253336Y320040D02*
X315794D01*
X255208Y340360D02*
X315794D01*
X255823Y335280D02*
X315794D01*
X331906Y304800D02*
X350974D01*
X331906Y314960D02*
X350974D01*
X331906Y309880D02*
X350974D01*
X331906Y289560D02*
X350974D01*
X331906Y299720D02*
X350974D01*
X331906Y294640D02*
X350974D01*
X331906Y340360D02*
X350974D01*
X331906Y350520D02*
X350974D01*
X331906Y345440D02*
X350974D01*
X331906Y325120D02*
X350974D01*
X331906Y320040D02*
X350974D01*
X331906Y335280D02*
X350974D01*
X331906Y330200D02*
X350974D01*
X408084Y239424D02*
X435196D01*
X383086Y248920D02*
X408084D01*
X383086Y243840D02*
X408084D01*
X435196Y239424D02*
Y246386D01*
Y243840D02*
X437029D01*
X350974Y194310D02*
Y369134D01*
X383086Y202366D02*
Y377190D01*
Y259080D02*
X408084D01*
X383086Y254000D02*
X408084D01*
Y239424D02*
Y266536D01*
X435196Y259574D02*
Y266536D01*
X383086Y233680D02*
X850937D01*
X457051Y243840D02*
X462429D01*
X383086Y238760D02*
X856017D01*
X482451Y243840D02*
X861097D01*
X485374Y248920D02*
X866177D01*
X459146Y259080D02*
X460334D01*
X485958Y254000D02*
X871257D01*
X484546Y259080D02*
X876337D01*
X383086Y264160D02*
X408084D01*
X383086Y340360D02*
X873285D01*
X383086Y335280D02*
X878365D01*
X454706Y264160D02*
X464774D01*
X408084Y266536D02*
X435196D01*
Y264160D02*
X439374D01*
X383086Y345440D02*
X868205D01*
X383086Y350520D02*
X433944D01*
Y345844D02*
Y361900D01*
X450000Y345844D02*
X466056D01*
X733944D01*
X433944D02*
X450000D01*
X466056D01*
X383086Y284480D02*
X901737D01*
X383086Y289560D02*
X906817D01*
X383086Y294640D02*
X911897D01*
X480106Y264160D02*
X881417D01*
X383086Y269240D02*
X886497D01*
X383086Y274320D02*
X891577D01*
X383086Y279400D02*
X896657D01*
X383086Y320040D02*
X893605D01*
X383086Y330200D02*
X883445D01*
X383086Y325120D02*
X888525D01*
X383086Y304800D02*
X908614D01*
X383086Y299720D02*
X910773D01*
X383086Y314960D02*
X898685D01*
X383086Y309880D02*
X903765D01*
X8556Y370840D02*
X73244D01*
X8556Y381000D02*
X73244D01*
X8556Y375920D02*
X73244D01*
X8556Y355600D02*
X73244D01*
X8556Y365760D02*
X73244D01*
X8556Y360680D02*
X73244D01*
X8556Y401320D02*
X73244D01*
X8556Y411480D02*
X73244D01*
X8556Y406400D02*
X73244D01*
X8556Y386080D02*
X73244D01*
X105356Y366186D02*
Y406499D01*
X8556Y396240D02*
X73244D01*
X8556Y391160D02*
X73244D01*
X105356Y375920D02*
X313727D01*
X105356Y386080D02*
X303567D01*
X105356Y381000D02*
X308647D01*
X105356Y370840D02*
X114436D01*
X116840Y371021D02*
X168785D01*
X105356Y366186D02*
Y406499D01*
X127491Y428634D01*
X105356Y406400D02*
X283247D01*
X105356Y396240D02*
X293407D01*
X105356Y391160D02*
X298487D01*
X110337Y411480D02*
X278167D01*
X105356Y401320D02*
X288327D01*
X8556Y421640D02*
X75672D01*
X8556Y426720D02*
X80163D01*
X8556Y431800D02*
X85243D01*
X8556Y416560D02*
X73610D01*
X8556Y441960D02*
X95403D01*
X8556Y447040D02*
X100483D01*
X8556Y452120D02*
X104784D01*
X8556Y436880D02*
X90323D01*
X77947Y424503D02*
X104784Y451341D01*
X105487Y452043D01*
X104784Y452120D02*
X105564D01*
X115417Y416560D02*
X273087D01*
X125577Y426720D02*
X226224D01*
X120497Y421640D02*
X226224D01*
X127491Y428634D02*
X128896D01*
X127491D02*
X128193Y429337D01*
X127444Y452746D02*
X128896D01*
X128116Y452120D02*
X128896D01*
X172748D01*
X190857Y355600D02*
X227488D01*
X185777Y360680D02*
X226239D01*
X253321D02*
X315794D01*
X252586Y365760D02*
X315794D01*
X171189Y370840D02*
X230134D01*
X180697Y365760D02*
X226973D01*
X258463Y431184D02*
X315794Y373853D01*
X249426Y370840D02*
X315794D01*
X252072Y355600D02*
X315794D01*
X327187Y385246D02*
X350974D01*
X331906Y369134D02*
X350974D01*
X331906Y355600D02*
X350974D01*
X331906Y365760D02*
X350974D01*
X331906Y360680D02*
X350974D01*
X269856Y442576D02*
X327187Y385246D01*
X300953Y411480D02*
X350974D01*
X306033Y406400D02*
X350974D01*
X321273Y391160D02*
X350974D01*
X326353Y386080D02*
X350974D01*
X311113Y401320D02*
X350974D01*
X316193Y396240D02*
X350974D01*
X128896Y428634D02*
Y430086D01*
X132437Y436880D02*
X226224D01*
X130210Y431800D02*
X226224D01*
Y420784D02*
X253336D01*
X132846Y441960D02*
X226224D01*
Y420784D02*
Y443684D01*
X128896Y451294D02*
Y452746D01*
X131587Y447040D02*
X178011D01*
X187835Y443684D02*
X226224D01*
X253336Y420784D02*
Y447896D01*
X250620D02*
X253336D01*
Y421640D02*
X268007D01*
X253336Y431800D02*
X257908D01*
X253336Y426720D02*
X262927D01*
X290793Y421640D02*
X350974D01*
X295873Y416560D02*
X350974D01*
X280633Y431800D02*
X350974D01*
X285713Y426720D02*
X350974D01*
X253336Y436880D02*
X256104D01*
X253336Y441960D02*
X257908D01*
X253336Y447040D02*
X350974D01*
X275553Y436880D02*
X350974D01*
X253913Y452120D02*
X350974D01*
X270473Y441960D02*
X350974D01*
X8556Y482600D02*
X101243D01*
X8556Y487680D02*
X103470D01*
X8556Y492760D02*
X108926D01*
X8556Y467360D02*
X105564D01*
X8556Y477520D02*
X100834D01*
X8556Y472440D02*
X102093D01*
X8556Y594360D02*
X127694D01*
X8556Y619760D02*
X127694D01*
X8556Y614680D02*
X127694D01*
X8556Y579120D02*
X127694D01*
X8556Y574040D02*
X127694D01*
X8556Y589280D02*
X127694D01*
X8556Y584200D02*
X127694D01*
X8556Y502920D02*
X350974D01*
X8556Y513080D02*
X350974D01*
X8556Y508000D02*
X350974D01*
X8556Y457200D02*
X167668D01*
X8556Y462280D02*
X162588D01*
X8556Y497840D02*
X235039D01*
X8556Y538480D02*
X352283D01*
X8556Y609600D02*
X300359D01*
X8556Y604520D02*
X302689D01*
X8556Y523240D02*
X350974D01*
X8556Y518160D02*
X350974D01*
X8556Y528320D02*
X350974D01*
X8556Y533400D02*
X351024D01*
X8556Y701040D02*
X128075D01*
X8556Y736600D02*
X127798D01*
X8556Y731520D02*
X128196D01*
X8556Y624840D02*
X127694D01*
X8556Y629920D02*
X127694D01*
X8556Y695960D02*
X127864D01*
X8556Y756920D02*
X10409D01*
X8556Y751840D02*
X14997D01*
X8556Y746760D02*
X26154D01*
X8556Y655320D02*
X300274D01*
X8556Y665480D02*
X300274D01*
X8556Y660400D02*
X300274D01*
X8556Y635000D02*
X300359D01*
X8556Y640080D02*
X301066D01*
X8556Y645160D02*
X306325D01*
X8556Y706120D02*
X130753D01*
X8556Y741680D02*
X129665D01*
X8556Y726440D02*
X131159D01*
X8556Y685800D02*
X138388D01*
X8556Y670560D02*
X300274D01*
X8556Y690880D02*
X129963D01*
X33846Y746760D02*
X136375D01*
X104784Y451341D02*
Y452746D01*
X106236D01*
X162134Y462734D02*
X176482Y448387D01*
X116840Y462734D02*
X162134D01*
X194486Y475796D02*
X229959D01*
X180138Y490143D02*
X194486Y475796D01*
X182602Y487680D02*
X226464D01*
X187682Y482600D02*
X226464D01*
X192762Y477520D02*
X228568D01*
X249604Y472440D02*
X350974D01*
X255634Y457200D02*
X350974D01*
X253913Y467360D02*
X350974D01*
X255634Y462280D02*
X350974D01*
X250992Y477520D02*
X350974D01*
Y385246D02*
Y532130D01*
X253096Y487680D02*
X350974D01*
X253096Y482600D02*
X350974D01*
X116840Y494846D02*
X168785D01*
X127694Y597306D02*
X152306D01*
X127694Y572694D02*
X152306D01*
Y597306D01*
X127694Y609694D02*
Y634306D01*
Y572694D02*
Y597306D01*
X152306Y609694D02*
Y634306D01*
X127694D02*
X152306D01*
X127694Y609694D02*
X152306D01*
X176699Y492760D02*
X228568D01*
X152306Y614680D02*
X301066D01*
X152306Y619760D02*
X306325D01*
X244521Y497840D02*
X350974D01*
X250992Y492760D02*
X350974D01*
X152306Y629920D02*
X302689D01*
X300274Y652114D02*
Y671226D01*
X319386D01*
Y652114D02*
Y654114D01*
Y669226D02*
Y671226D01*
X300274Y652114D02*
X319386D01*
X383086Y375920D02*
X433944D01*
X383086Y401320D02*
X576481D01*
X383086Y396240D02*
X576746D01*
X383086Y360680D02*
X433944D01*
X383086Y370840D02*
X433944D01*
X383086Y365760D02*
X433944D01*
X383086Y447040D02*
X436663D01*
X383086Y452120D02*
X442175D01*
X383086Y487680D02*
X577034D01*
X383086Y431800D02*
X435232D01*
X383086Y426720D02*
X438673D01*
X383086Y436880D02*
X433990D01*
X383086Y441960D02*
X434415D01*
X383086Y406400D02*
X577330D01*
X383086Y411480D02*
X579430D01*
X383086Y416560D02*
X583247D01*
X383086Y381000D02*
X586076D01*
X383086Y391160D02*
X578166D01*
X383086Y386080D02*
X580997D01*
X383086Y472440D02*
X577034D01*
X383086Y482600D02*
X577034D01*
X383086Y477520D02*
X577034D01*
X383086Y457200D02*
X577034D01*
X383086Y421640D02*
X590694D01*
X383086Y467360D02*
X577034D01*
X383086Y462280D02*
X577034D01*
X8556Y543560D02*
X355753D01*
X8556Y548640D02*
X360833D01*
X8556Y553720D02*
X365913D01*
X383086Y518160D02*
X385847D01*
X355677Y543483D02*
X368377Y556183D01*
X8556Y558800D02*
X371816D01*
X152306Y589280D02*
X407437D01*
X152306Y584200D02*
X407437D01*
X379730Y560886D02*
X414020D01*
X152306Y579120D02*
X415969D01*
X383086Y508000D02*
X548165D01*
X383086Y513080D02*
X543085D01*
X8556Y563880D02*
X577034D01*
X383086Y492760D02*
X561107D01*
X383086Y502920D02*
X553245D01*
X383086Y497840D02*
X558325D01*
X8556Y568960D02*
X577034D01*
X8556Y599440D02*
X422144D01*
X152306Y594360D02*
X577034D01*
X152306Y574040D02*
X416971D01*
X316971Y604520D02*
X422144D01*
X318594Y614680D02*
X439412D01*
X319301Y609600D02*
X442707D01*
X383086Y355600D02*
X433944D01*
Y361900D02*
Y377956D01*
X450000D01*
X466056D01*
X383086Y377190D02*
Y525479D01*
Y523240D02*
X385847D01*
X383086Y525479D02*
X386381Y528774D01*
X414020D01*
X450000Y454156D02*
X577034D01*
X397578Y515874D02*
X540291D01*
X397578Y525526D02*
X542290D01*
X466056Y377956D02*
X591697D01*
X450000D02*
X466056D01*
X450000Y422044D02*
X591696D01*
X385927Y528320D02*
X577034D01*
X421934Y558800D02*
X577034D01*
X425296Y533400D02*
X577034D01*
X430026Y543560D02*
X577034D01*
X428767Y538480D02*
X577034D01*
X427390Y553720D02*
X577034D01*
X429617Y548640D02*
X577034D01*
X419168Y591566D02*
X425450D01*
X428870Y590145D02*
X431259Y587756D01*
X429260Y609536D02*
X442777D01*
X458993Y609600D02*
X464194D01*
X458923Y609536D02*
X464194D01*
X462288Y614680D02*
X464194D01*
X428058Y573024D02*
X564136D01*
X429735Y589280D02*
X558152D01*
X429260Y594424D02*
X565150D01*
X522423Y609536D02*
X527694D01*
X431259Y587756D02*
X557319D01*
X488306Y609536D02*
X506277D01*
X522493Y609600D02*
X527694D01*
X488306Y614680D02*
X502912D01*
X488306Y619760D02*
X502361D01*
X488306Y609600D02*
X506207D01*
X525788Y614680D02*
X527694D01*
X313335Y619760D02*
X438861D01*
X313335Y645160D02*
X413494D01*
X152306Y624840D02*
X433814D01*
X316971Y629920D02*
X428734D01*
X318594Y640080D02*
X418574D01*
X319301Y635000D02*
X423654D01*
X8556Y650240D02*
X408414D01*
X319386Y654114D02*
X404540D01*
X319386Y669226D02*
X407670D01*
X404540Y654114D02*
X438864Y619790D01*
X413019Y667007D02*
X449550Y630476D01*
X8556Y675640D02*
X577034D01*
X141612Y685800D02*
X577034D01*
X8556Y680720D02*
X577034D01*
X414546Y665480D02*
X577034D01*
X150037Y690880D02*
X577034D01*
X319386Y670560D02*
X577034D01*
X8556Y711200D02*
X577034D01*
X8556Y721360D02*
X577034D01*
X8556Y716280D02*
X577034D01*
X151925Y701040D02*
X577034D01*
X152136Y695960D02*
X577034D01*
X148841Y726440D02*
X577034D01*
X149247Y706120D02*
X577034D01*
X385454Y742324D02*
X409566D01*
X45003Y751840D02*
X385454D01*
X143625Y746760D02*
X385454D01*
Y742324D02*
Y766436D01*
X52156Y762000D02*
X385454D01*
X49591Y756920D02*
X385454D01*
X409566Y742324D02*
Y766436D01*
X385454D02*
X409566D01*
Y756920D02*
X411125D01*
X151804Y731520D02*
X577034D01*
X150335Y741680D02*
X577034D01*
X152201Y736600D02*
X577034D01*
X409566Y746760D02*
X413568D01*
X409566Y751840D02*
X411125D01*
X409566Y762000D02*
X413568D01*
X50077Y782320D02*
X649298D01*
X45878Y787400D02*
X650962D01*
X39749Y791444D02*
X661609D01*
X53374Y767080D02*
X583266D01*
X52416Y777240D02*
X652028D01*
X53457Y772160D02*
X661386D01*
X461098Y624840D02*
X464194D01*
X462839Y619760D02*
X464194D01*
X488306Y624840D02*
X504102D01*
X488306Y629920D02*
X510516D01*
X454684D02*
X464194D01*
X445026Y635000D02*
X517911D01*
X488306Y609536D02*
Y630546D01*
X464194Y609536D02*
Y630546D01*
X488306D01*
X526231Y620535D02*
X527694Y621997D01*
X513421Y630510D02*
X522637Y639726D01*
X439946Y640080D02*
X523014D01*
X527694Y609536D02*
Y621997D01*
X526339Y619760D02*
X527694D01*
X429786Y650240D02*
X577034D01*
X419626Y660400D02*
X577034D01*
X424706Y655320D02*
X577034D01*
X528334Y642086D02*
X554690D01*
X434866Y645160D02*
X577034D01*
X434695Y751840D02*
X436525D01*
X432253Y746760D02*
X438968D01*
X457653D02*
X464367D01*
X460095Y751840D02*
X461925D01*
X434695Y756920D02*
X436525D01*
X432253Y762000D02*
X438968D01*
X460095Y756920D02*
X461925D01*
X457653Y762000D02*
X464367D01*
X504834Y742324D02*
X528946D01*
X485495Y751840D02*
X504834D01*
X483052Y746760D02*
X504834D01*
X528946Y756920D02*
X530505D01*
X483052Y762000D02*
X504834D01*
X485495Y756920D02*
X504834D01*
Y742324D02*
Y766436D01*
X528946D01*
Y762000D02*
X532948D01*
X535863Y14047D02*
X551103Y29287D01*
X554981Y35560D02*
X761374D01*
X555806Y45720D02*
X761374D01*
X555806Y40640D02*
X761374D01*
Y34934D02*
Y59046D01*
X555806Y40640D02*
Y74830D01*
Y50800D02*
X761374D01*
X547217Y25400D02*
X809027D01*
X761374Y34934D02*
X785486D01*
X552183Y30480D02*
X803947D01*
X799476Y34951D02*
X809373Y25054D01*
X785486Y34934D02*
Y59046D01*
Y45720D02*
X786841D01*
X785486Y50800D02*
X787392D01*
X785486Y35560D02*
X794996D01*
X785486Y40640D02*
X788582D01*
X810268Y50800D02*
X831256D01*
X550924Y86360D02*
X551806D01*
Y85434D02*
Y86886D01*
X785486Y55880D02*
X790687D01*
X555806D02*
X761374D01*
Y59046D02*
X785486D01*
X550354Y86886D02*
X551806D01*
X574430Y165536D02*
X782793D01*
X576058Y167640D02*
X784897D01*
X576915Y172720D02*
X789977D01*
X555806Y71120D02*
X956347D01*
X555747Y76200D02*
X961427D01*
X554454Y81280D02*
X966507D01*
X806973Y55880D02*
X834282D01*
X555806Y60960D02*
X946187D01*
X555806Y66040D02*
X951267D01*
X551806Y86360D02*
X971587D01*
X792443Y152400D02*
X904563D01*
X797523Y157480D02*
X909643D01*
X802603Y162560D02*
X914723D01*
X807683Y167640D02*
X919803D01*
X818407Y38806D02*
X833645D01*
X811493Y45720D02*
X830737D01*
X816573Y40640D02*
X832367D01*
X904015Y38806D02*
X909845D01*
X905293Y40640D02*
X908567D01*
X930693D02*
X933967D01*
X810869Y46344D02*
X818407Y38806D01*
X954815D02*
X960645D01*
X929415D02*
X935245D01*
X956093Y40640D02*
X959367D01*
X981493D02*
X984767D01*
X980214Y38806D02*
X986045D01*
X855604Y50800D02*
X856656D01*
X852578Y55880D02*
X859682D01*
X877978D02*
X885082D01*
X906404Y50800D02*
X907456D01*
X881004D02*
X882056D01*
X903378Y55880D02*
X910482D01*
X812763Y172720D02*
X924883D01*
X909964Y173364D02*
X925527D01*
X900934Y148771D02*
X925527Y173364D01*
X931804Y50800D02*
X932856D01*
X928778Y55880D02*
X935882D01*
X982604Y50800D02*
X983656D01*
X979578Y55880D02*
X986682D01*
X918938Y121362D02*
X958773Y161197D01*
X973464Y173364D02*
X997576D01*
X733944Y345844D02*
X750000D01*
X733944D02*
X750000D01*
X766056D02*
Y361900D01*
Y377956D01*
X750000Y345844D02*
X766056D01*
X733944Y377956D02*
X750000D01*
X766056D01*
X608303D02*
X733944D01*
X750000D01*
X573918Y177800D02*
X795057D01*
X766056Y360680D02*
X855274D01*
X766056Y355600D02*
X858045D01*
X791826Y151784D02*
X829019Y188976D01*
X766056Y350520D02*
X863125D01*
X782793Y165536D02*
X915030Y297773D01*
X613924Y381000D02*
X855274D01*
X621834Y391160D02*
X855274D01*
X619003Y386080D02*
X855274D01*
X766056Y370840D02*
X855274D01*
X766056Y365760D02*
X855274D01*
X623254Y396240D02*
X855274D01*
X766056Y375920D02*
X855274D01*
X608304Y422044D02*
X750000D01*
X609146Y454156D02*
Y754380D01*
X577034Y454156D02*
Y574711D01*
X609146Y467360D02*
X756553D01*
X609146Y454156D02*
X743349D01*
X799442Y510249D01*
X609146Y457200D02*
X746393D01*
X609146Y462280D02*
X751473D01*
X620569Y411480D02*
X855274D01*
X609306Y421640D02*
X855274D01*
X616753Y416560D02*
X855274D01*
X623519Y401320D02*
X855274D01*
X761327Y426720D02*
X855274D01*
X622670Y406400D02*
X855274D01*
X761353Y426747D02*
X826693Y492087D01*
X771487Y436880D02*
X855274D01*
X766407Y431800D02*
X855274D01*
X781647Y447040D02*
X855274D01*
X776567Y441960D02*
X855274D01*
X791807Y457200D02*
X855274D01*
X786727Y452120D02*
X855274D01*
X817843Y177800D02*
X909964D01*
X822923Y182880D02*
X834316D01*
X839544D02*
X859716D01*
X890344D02*
X909964D01*
X864944D02*
X885116D01*
X895375Y187960D02*
X909964D01*
X842626Y184804D02*
X854274Y196451D01*
X845783Y187960D02*
X854685D01*
X909964Y173364D02*
Y197476D01*
X869975Y187960D02*
X880085D01*
X963476Y172550D02*
Y185420D01*
Y182880D02*
X973464D01*
X963476Y177800D02*
X973464D01*
Y173364D02*
Y197476D01*
X963274Y187960D02*
X973464D01*
X828003D02*
X829285D01*
X850863Y193040D02*
X854274D01*
Y190500D02*
Y196451D01*
X870386Y190500D02*
Y196243D01*
X877343Y203200D02*
X879674D01*
X872263Y198120D02*
X879674D01*
X796887Y462280D02*
X855274D01*
X801967Y467360D02*
X855274D01*
X870386Y196243D02*
X879674Y205531D01*
X855274Y360370D02*
Y490708D01*
X895786Y190500D02*
Y205323D01*
X870386Y193040D02*
X879674D01*
X895786Y198120D02*
X937596D01*
X895786Y193040D02*
X909964D01*
X961553D02*
X973464D01*
X909964Y197476D02*
X934076D01*
Y194349D02*
Y197476D01*
X879674Y190500D02*
Y205531D01*
X856695Y356950D02*
X908618Y305027D01*
X895786Y205323D02*
X952697Y262234D01*
X977600D01*
X974053Y66040D02*
X1013024D01*
X968973Y60960D02*
X1013024D01*
X1008004Y50800D02*
X1009056D01*
X1004978Y55880D02*
X1012082D01*
X967392Y59379D02*
X1013024Y105011D01*
X979133Y71120D02*
X1013024D01*
X944973Y59746D02*
X1061284Y176057D01*
X984213Y76200D02*
X1013024D01*
Y56756D02*
Y105011D01*
X994373Y86360D02*
X1013024D01*
X989293Y81280D02*
X1013024D01*
X529563Y10160D02*
X1157301D01*
X542137Y20320D02*
X1148525D01*
X537057Y15240D02*
X1151642D01*
X815070Y22694D02*
X1081190D01*
X1079936Y60960D02*
X1191444D01*
X1079936Y57000D02*
Y121935D01*
Y91440D02*
X1191444D01*
X1079936Y86360D02*
X1191444D01*
X1079936Y71120D02*
X1191444D01*
X1079936Y66040D02*
X1191444D01*
X1079936Y81280D02*
X1191444D01*
X1079936Y76200D02*
X1191444D01*
X909989Y116840D02*
X1002067D01*
X919496Y121920D02*
X1007147D01*
X924576Y127000D02*
X1012227D01*
X999453Y91440D02*
X1013024D01*
X1009613Y101600D02*
X1013024D01*
X1004533Y96520D02*
X1013024D01*
X929656Y132080D02*
X1017307D01*
X934736Y137160D02*
X1022387D01*
X939816Y142240D02*
X1027467D01*
X944896Y147320D02*
X1032547D01*
X949976Y152400D02*
X1037627D01*
X997576Y182880D02*
X999135D01*
X997576Y177800D02*
X1001578D01*
X1079936Y111760D02*
X1191444D01*
X1079936Y121935D02*
X1110706Y152705D01*
X1079936Y116840D02*
X1191444D01*
X1079936Y96520D02*
X1191444D01*
X1079936Y106680D02*
X1191444D01*
X1079936Y101600D02*
X1191444D01*
X955056Y157480D02*
X1042707D01*
X959989Y162560D02*
X1047787D01*
X962707Y167640D02*
X1052867D01*
X963476Y172720D02*
X1057947D01*
X1020263Y177800D02*
X1061284D01*
X1022705Y187960D02*
X1061284D01*
X1022705Y182880D02*
X1061284D01*
X1086886Y25054D02*
X1096133Y34300D01*
X1108493Y40640D02*
X1110074D01*
X1103093Y35560D02*
X1110074D01*
Y34234D02*
Y45303D01*
Y48677D02*
Y59746D01*
X1087233Y25400D02*
X1146898D01*
X1110074Y34234D02*
X1135586D01*
X1092313Y30480D02*
X1146449D01*
X1135586Y35560D02*
X1147110D01*
X1135586Y40640D02*
X1148984D01*
X1135586Y34234D02*
Y59746D01*
Y45720D02*
X1152457D01*
X1135586Y50800D02*
X1158944D01*
X1181057D02*
X1191444D01*
X1187543Y45720D02*
X1191444D01*
X1084204Y50800D02*
X1085256D01*
X1081178Y55880D02*
X1088282D01*
X1106578D02*
X1110074D01*
Y59746D02*
X1135586D01*
X1113066Y172720D02*
X1114372D01*
X1113066Y182880D02*
X1116587D01*
X1079936Y121920D02*
X1191444D01*
X1090081Y132080D02*
X1191444D01*
X1085001Y127000D02*
X1191444D01*
X1095161Y137160D02*
X1191444D01*
X1135586Y55880D02*
X1191444D01*
X1105321Y147320D02*
X1191444D01*
X1100241Y142240D02*
X1191444D01*
X1110401Y152400D02*
X1191444D01*
X1113066Y167640D02*
X1191444D01*
X1113013Y157480D02*
X1191444D01*
X1125908Y172720D02*
X1191444D01*
X1113066Y162560D02*
X1191444D01*
X1123693Y182880D02*
X1191444D01*
X1127122Y177800D02*
X1191444D01*
X997576Y173364D02*
Y197476D01*
X973464D02*
X997576D01*
Y193040D02*
X1001578D01*
X997576Y187960D02*
X999135D01*
X929223Y238760D02*
X1018767D01*
X939383Y248920D02*
X1008607D01*
X934303Y243840D02*
X1013687D01*
X1005223Y252304D02*
X1021729Y235798D01*
X895786Y203200D02*
X1054217D01*
X903823Y213360D02*
X1044057D01*
X898743Y208280D02*
X1049137D01*
X1061284Y176057D02*
Y196133D01*
X957244Y198120D02*
X1059297D01*
X1020263Y193040D02*
X1061284D01*
X908903Y218440D02*
X1038977D01*
X919063Y228600D02*
X1028817D01*
X913983Y223520D02*
X1033897D01*
X924143Y233680D02*
X1023737D01*
X1022464Y234953D02*
X1061284Y196133D01*
X1094016Y251957D02*
Y253071D01*
Y251957D02*
X1110706Y235266D01*
X944463Y254000D02*
X1003927D01*
X982827Y264160D02*
X1002864D01*
X949543Y259080D02*
X1002864D01*
X987943Y269240D02*
X1002864D01*
X983297Y264594D02*
X1002864Y284161D01*
X998103Y279400D02*
X1002864D01*
X993023Y274320D02*
X1002864D01*
Y258000D02*
Y284161D01*
X1085060Y362267D02*
X1103225Y344102D01*
X1094918Y365760D02*
X1116944D01*
X1094498Y254000D02*
X1191444D01*
X1095176Y279400D02*
X1191444D01*
X1095176Y274320D02*
X1191444D01*
X1095176Y259080D02*
X1191444D01*
X1095176Y269240D02*
X1191444D01*
X1095176Y264160D02*
X1191444D01*
X1095176Y314960D02*
X1120944D01*
X1086647Y360680D02*
X1116944D01*
X1091727Y355600D02*
X1116944D01*
X1095176Y294640D02*
X1190590D01*
X1095176Y289560D02*
X1191444D01*
X1095176Y309880D02*
X1120944D01*
X1095176Y299720D02*
X1185510D01*
X1095176Y284480D02*
X1191444D01*
X1097053Y248920D02*
X1191444D01*
X1113066Y158402D02*
Y229570D01*
X1182786Y302444D02*
X1191444Y293786D01*
X1095176Y257236D02*
Y327428D01*
X1120944Y306444D02*
X1142100D01*
X1095176Y304800D02*
X1143744D01*
X1149230Y302444D02*
X1182786D01*
X1142100Y306444D02*
X1143881Y304663D01*
X1113066Y203200D02*
X1191444D01*
X1113066Y213360D02*
X1191444D01*
X1113066Y208280D02*
X1191444D01*
X1113066Y187960D02*
X1191444D01*
X1113066Y198120D02*
X1191444D01*
X1113066Y193040D02*
X1191444D01*
X1111939Y233680D02*
X1191444D01*
X1102133Y243840D02*
X1191444D01*
X1107213Y238760D02*
X1191444D01*
X1113066Y218440D02*
X1191444D01*
Y39749D02*
Y293786D01*
X1113066Y228600D02*
X1191444D01*
X1113066Y223520D02*
X1191444D01*
X1104646Y337887D02*
Y340682D01*
Y340360D02*
X1116944D01*
X1096807Y350520D02*
X1116944D01*
X1097243Y370840D02*
X1116944D01*
X1097072Y370669D02*
X1116944Y390541D01*
X1102323Y375920D02*
X1116944D01*
X1101887Y345440D02*
X1116944D01*
X1112483Y386080D02*
X1116944D01*
X1107403Y381000D02*
X1116944D01*
X1095176Y320040D02*
X1120944D01*
X1106403Y330200D02*
X1118453D01*
X1095176Y325120D02*
X1120944D01*
Y306444D02*
Y327600D01*
Y306444D02*
X1142100D01*
X1119163Y329381D02*
X1120944Y327600D01*
Y306444D02*
Y327600D01*
X1106403Y335280D02*
X1116944D01*
Y334730D02*
Y390541D01*
X1120576Y470862D02*
Y520936D01*
X1120944Y471230D02*
Y493556D01*
Y471230D02*
Y493556D01*
X556735Y513080D02*
X577034D01*
X561815Y508000D02*
X577034D01*
X566895Y502920D02*
X577034D01*
X574273Y497840D02*
X577034D01*
X540291Y515874D02*
X560638Y495527D01*
X545710Y524105D02*
X567463Y502352D01*
X551655Y518160D02*
X577034D01*
X546575Y523240D02*
X577034D01*
X574273Y492760D02*
X577034D01*
X609146Y533400D02*
X818033D01*
X609146Y538480D02*
X823113D01*
X609146Y497840D02*
X787033D01*
X609146Y523240D02*
X807873D01*
X609146Y528320D02*
X812953D01*
X609146Y563880D02*
X848513D01*
X609146Y568960D02*
X853593D01*
X609146Y574040D02*
X858673D01*
X609146Y543560D02*
X828193D01*
X609146Y548640D02*
X833273D01*
X609146Y553720D02*
X838353D01*
X609146Y558800D02*
X843433D01*
X551806Y609536D02*
X565150D01*
X551806D02*
Y625521D01*
Y619760D02*
X557567D01*
X551806Y625521D02*
X559454Y617873D01*
X570193Y629920D02*
X577034D01*
X573105Y624840D02*
X577034D01*
X569608Y589280D02*
X577034D01*
X570870Y584200D02*
X577034D01*
X609146Y579120D02*
X863753D01*
X572266Y599440D02*
X577034D01*
X609146Y584200D02*
X868834D01*
X551806Y609600D02*
X577034D01*
X572248Y619760D02*
X577034D01*
X551806Y614680D02*
X577034D01*
X572266Y604520D02*
X577034D01*
X609146D02*
X616454D01*
X609146Y624840D02*
X615615D01*
X609146Y619760D02*
X616472D01*
X609146Y472440D02*
X761633D01*
X609146Y477520D02*
X766713D01*
X609146Y482600D02*
X771793D01*
X807047Y472440D02*
X828773D01*
X812127Y477520D02*
X824909D01*
X817207Y482600D02*
X825911D01*
X609146Y487680D02*
X776873D01*
X609146Y492760D02*
X781953D01*
X609146Y502920D02*
X792113D01*
X836676Y483937D02*
Y498301D01*
X822287Y487680D02*
X827024D01*
Y483937D02*
Y492427D01*
X834927Y472440D02*
X855274D01*
X836676Y487680D02*
X855274D01*
X836676Y492760D02*
X855732D01*
X838791Y477520D02*
X855274D01*
X837789Y482600D02*
X855274D01*
X836676Y497840D02*
X860407D01*
X836676Y498301D02*
X855185Y516810D01*
X841295Y502920D02*
X862511D01*
X856695Y494128D02*
X860443Y497876D01*
X609146Y513080D02*
X800109D01*
X609146Y599440D02*
X616454D01*
X609146Y518160D02*
X802907D01*
X609146Y508000D02*
X797193D01*
X609146Y629920D02*
X618613D01*
X623570Y631626D02*
X838775D01*
X623570Y615514D02*
X842010D01*
X846375Y508000D02*
X860354D01*
X851455Y513080D02*
X855686D01*
X803987Y519353D02*
X868757Y584123D01*
X856606Y511801D02*
X860354Y508053D01*
X855185Y515221D02*
Y516810D01*
X847707Y617873D02*
X849357Y619524D01*
X850203Y629920D02*
X901885D01*
X851707Y624840D02*
X904062D01*
X560009Y640080D02*
X577034D01*
X560386Y639726D02*
X570846Y629267D01*
X565113Y635000D02*
X577034D01*
X609146Y650240D02*
X845918D01*
X577034Y578449D02*
Y746762D01*
X609146Y741680D02*
X830674D01*
X609146Y655320D02*
X844114D01*
X609146Y660400D02*
X845918D01*
X609146Y665480D02*
X850937D01*
X609146Y670560D02*
X856017D01*
X609146Y675640D02*
X861097D01*
X609146Y680720D02*
X866177D01*
X609146Y685800D02*
X871257D01*
X609146Y635000D02*
X902554D01*
X609146Y645160D02*
X903804D01*
X609146Y640080D02*
X903804D01*
X609146Y711200D02*
X896657D01*
X609146Y716280D02*
X901737D01*
X609146Y721360D02*
X906817D01*
X609146Y690880D02*
X876337D01*
X609146Y695960D02*
X881417D01*
X609146Y701040D02*
X886497D01*
X609146Y706120D02*
X891577D01*
X551632Y746760D02*
X558348D01*
X528946Y751840D02*
X530505D01*
X528946Y746760D02*
X532948D01*
X554075Y751840D02*
X555905D01*
X528946Y742324D02*
Y766436D01*
X551632Y762000D02*
X558348D01*
X554075Y756920D02*
X555905D01*
X577033Y762000D02*
X578957D01*
X609146Y751840D02*
X830674D01*
X607223Y762000D02*
X830674D01*
X608944Y756920D02*
X830674D01*
X609146Y746760D02*
X830674D01*
X665163Y770382D02*
X801878D01*
X657650Y775895D02*
X661743Y771803D01*
X661609Y791444D02*
X668803Y784038D01*
X663313Y783883D02*
X667162Y780034D01*
X661710Y787400D02*
X665537D01*
X664876Y782320D02*
X671169D01*
X830674Y740354D02*
X856186D01*
Y741680D02*
X863167D01*
X899123Y690880D02*
X903804D01*
X879893Y746760D02*
X883167D01*
X874493Y741680D02*
X888567D01*
X830674Y740354D02*
Y765866D01*
X856186Y740354D02*
Y751423D01*
Y746760D02*
X857767D01*
X858483Y650240D02*
X903804D01*
X868643Y660400D02*
X903804D01*
X863563Y655320D02*
X903804D01*
X873723Y665480D02*
X903804D01*
X883883Y675640D02*
X903804D01*
X878803Y670560D02*
X903804D01*
X857867Y649623D02*
X903804Y695561D01*
X888963Y680720D02*
X903804D01*
X894043Y685800D02*
X903804D01*
Y637209D02*
Y695561D01*
X905293Y746760D02*
X908567D01*
X899893Y741680D02*
X911574D01*
X667162Y780034D02*
X799879D01*
X674940Y781444D02*
X781940D01*
X785711Y782320D02*
X802165D01*
X788057Y784018D02*
X795318Y791444D01*
X799879Y780034D02*
X806002Y786157D01*
X791364Y787400D02*
X806071D01*
X795318Y791444D02*
X808136D01*
X856186Y762000D02*
X859682D01*
X877978D02*
X885082D01*
X906404Y756920D02*
X907456D01*
X881004D02*
X882056D01*
X903378Y762000D02*
X910482D01*
X805298Y771803D02*
X812827Y779332D01*
X856186Y754797D02*
Y765866D01*
X830674D02*
X856186D01*
X880110Y588826D02*
X990600D01*
X609146Y594360D02*
X1002438D01*
X609146Y589280D02*
X1002634D01*
X1080086Y564763D02*
X1118216Y526632D01*
X1002634Y583399D02*
Y594164D01*
X623570Y609536D02*
X917401D01*
X609146Y614680D02*
X915780D01*
X609146Y609600D02*
X917360D01*
X623570Y594424D02*
X1002374D01*
X1080086Y564763D02*
Y621464D01*
Y568960D02*
X1191444D01*
X1080086Y579120D02*
X1191444D01*
X1080086Y574040D02*
X1191444D01*
X1091129Y553720D02*
X1191444D01*
X1080969Y563880D02*
X1191444D01*
X1086049Y558800D02*
X1191444D01*
X1080086Y604520D02*
X1191444D01*
X1080086Y614680D02*
X1191444D01*
X1080086Y609600D02*
X1191444D01*
X1080086Y589280D02*
X1191444D01*
X1080086Y584200D02*
X1191444D01*
X1080086Y599440D02*
X1191444D01*
X1080086Y594360D02*
X1191444D01*
X849584Y619760D02*
X916961D01*
X919658Y624840D02*
X923664D01*
X921835Y629920D02*
X929337D01*
X921166Y635000D02*
X934417D01*
X919916Y660400D02*
X959817D01*
X919916Y665480D02*
X964897D01*
X919916Y670560D02*
X969977D01*
X919916Y640080D02*
X939497D01*
X919916Y645160D02*
X944577D01*
X919916Y650240D02*
X949657D01*
X919916Y655320D02*
X954737D01*
X1091820Y619760D02*
X1109090D01*
X1080086D02*
X1082420D01*
X1095176Y645160D02*
X1105734D01*
X1095176Y640080D02*
X1105734D01*
X1095176Y635000D02*
X1105734D01*
X1095176Y634669D02*
Y665811D01*
X919916Y675640D02*
X975057D01*
X1095176Y655320D02*
X1105734D01*
X1095176Y650240D02*
X1105734D01*
X1095176Y665480D02*
X1105734D01*
X1095176Y660400D02*
X1105734D01*
X1120944Y493556D02*
X1143270D01*
X1120576Y502920D02*
X1132461D01*
X1120576Y497840D02*
X1135891D01*
X1143270Y493556D02*
X1145051Y495337D01*
X1120944Y493556D02*
X1143270D01*
X1120576Y508000D02*
X1133676D01*
X1142997Y497840D02*
X1183240D01*
X1182956Y497556D02*
X1191444Y506044D01*
X1150400Y497556D02*
X1182956D01*
X1146426Y502920D02*
X1188320D01*
X1116529Y528320D02*
X1191444D01*
X1106369Y538480D02*
X1191444D01*
X1111449Y533400D02*
X1191444D01*
X1120576Y513080D02*
X1191444D01*
X1145212Y508000D02*
X1191444D01*
X1120239Y523240D02*
X1191444D01*
X1120576Y518160D02*
X1191444D01*
X1097095Y629920D02*
X1103814D01*
X1096426Y624840D02*
X1104484D01*
X1121846Y660400D02*
X1132642D01*
X1121846Y655320D02*
X1134801D01*
X1121846Y665480D02*
X1134801D01*
X1096426Y675640D02*
X1105734D01*
X1097095Y670560D02*
X1105734D01*
X1101289Y543560D02*
X1191444D01*
X1118490Y619760D02*
X1191444D01*
X1096209Y548640D02*
X1191444D01*
X1123765Y629920D02*
X1191444D01*
X1123096Y624840D02*
X1191444D01*
X1121846Y640080D02*
X1191444D01*
X1121846Y635000D02*
X1191444D01*
X1121846Y645160D02*
X1191444D01*
X1121846Y670560D02*
X1191444D01*
X1121846Y650240D02*
X1191444D01*
X1144595Y655320D02*
X1191444D01*
X1144595Y665480D02*
X1191444D01*
X1146754Y660400D02*
X1191444D01*
X919916Y637209D02*
Y692623D01*
X846473Y661016D02*
X911574Y726117D01*
X919916Y692623D02*
X950576Y723283D01*
X919916Y680720D02*
X980137D01*
X919916Y685800D02*
X985217D01*
X919916Y690880D02*
X990297D01*
X609146Y726440D02*
X911574D01*
X609146Y736600D02*
X911574D01*
X609146Y731520D02*
X911574D01*
Y726117D02*
Y743220D01*
X952936Y728980D02*
Y743100D01*
X924389Y624972D02*
X995244Y695827D01*
X928333Y701040D02*
X995244D01*
X923253Y695960D02*
X995244D01*
X933413Y706120D02*
X995244D01*
X943573Y716280D02*
X995244D01*
X938493Y711200D02*
X995244D01*
X948653Y721360D02*
X995244D01*
X952936Y736600D02*
X993994D01*
X952525Y726440D02*
X995244D01*
Y695827D02*
Y726771D01*
X1080086Y679016D02*
Y743220D01*
X952936Y731520D02*
X993325D01*
X931804Y756920D02*
X932856D01*
X952936Y741680D02*
X964767D01*
X957204Y756920D02*
X958256D01*
X956093Y746760D02*
X959367D01*
X602914Y767080D02*
X973007D01*
X805655Y772160D02*
X978087D01*
X928778Y762000D02*
X935882D01*
X954178D02*
X961282D01*
X981493Y746760D02*
X984767D01*
X976093Y741680D02*
X990167D01*
X1080086Y736600D02*
X1134944D01*
X1080086Y741680D02*
X1091767D01*
X810735Y777240D02*
X983167D01*
X818822Y782320D02*
X988247D01*
X817972Y791444D02*
X999117D01*
X820036Y787400D02*
X993327D01*
X971727Y765800D02*
X995213Y789286D01*
X1080086Y685800D02*
X1105734D01*
X1080086Y695960D02*
X1105734D01*
X1080086Y690880D02*
X1105734D01*
X1080086Y680720D02*
X1082420D01*
X1091820D02*
X1105734D01*
X1080086Y706120D02*
X1106145D01*
X1080086Y711200D02*
X1110017D01*
X1080086Y716280D02*
X1115097D01*
X1080086Y701040D02*
X1105734D01*
Y634669D02*
Y703580D01*
X1121846Y634669D02*
Y700243D01*
Y695960D02*
X1191444D01*
X1121846Y690880D02*
X1191444D01*
X1121846Y675640D02*
X1191444D01*
X1121846Y685800D02*
X1191444D01*
X1121846Y680720D02*
X1191444D01*
X1121846Y700243D02*
X1148697Y727094D01*
X1108093Y709277D02*
X1134944Y736127D01*
X1122643Y701040D02*
X1191444D01*
X1127723Y706120D02*
X1191444D01*
Y506044D02*
Y760251D01*
X1137883Y716280D02*
X1191444D01*
X1132803Y711200D02*
X1191444D01*
X1080086Y721360D02*
X1120177D01*
X1080086Y726440D02*
X1125257D01*
X1080086Y731520D02*
X1130337D01*
X1128493Y741680D02*
X1134944D01*
X1103093D02*
X1117167D01*
X1133893Y746760D02*
X1134944D01*
X1083093D02*
X1086367D01*
X1134944Y736127D02*
Y749114D01*
X1151056Y732790D02*
Y756000D01*
X1108493Y746760D02*
X1111767D01*
X1142963Y721360D02*
X1191444D01*
X1148043Y726440D02*
X1191444D01*
X1150955Y731520D02*
X1191444D01*
X1151056Y741680D02*
X1191444D01*
X1151056Y736600D02*
X1191444D01*
X1151056Y751840D02*
X1154997D01*
X1151056Y746760D02*
X1166155D01*
X1173846D02*
X1191444D01*
X1189591Y756920D02*
X1191444D01*
X1185004Y751840D02*
X1191444D01*
D88*
X945030Y46990D02*
Y48410D01*
X1069340Y172720D01*
X1021080Y46368D02*
Y107112D01*
X1081930Y167962D01*
X1046480Y116192D02*
X1093470Y163182D01*
X1046480Y48822D02*
Y116192D01*
X1071880Y47868D02*
Y125272D01*
X1105010Y158402D01*
X1097374Y44390D02*
X1098490D01*
X1081190Y30750D02*
X1097430Y46990D01*
X815070Y30750D02*
X1081190D01*
X1097374Y44390D02*
X1097430Y44446D01*
Y46990D01*
X1120140Y49680D02*
X1122830Y46990D01*
X1120140Y49680D02*
Y176784D01*
X1139444Y660146D02*
X1139698Y660400D01*
X1139444Y503936D02*
Y660146D01*
X1113790Y628650D02*
Y703580D01*
X1087120Y628650D02*
Y671830D01*
X1113790Y703580D02*
X1143000Y732790D01*
X1105010Y158402D02*
Y229570D01*
X1093470Y163182D02*
Y224600D01*
X1081930Y167962D02*
Y219820D01*
X1069340Y172720D02*
Y199470D01*
X1035050Y250190D02*
X1070390Y214850D01*
X506730Y157480D02*
X786130D01*
X367030Y177800D02*
X373380Y171450D01*
X568960D01*
X1038225Y678815D02*
X1038860Y679450D01*
X996950Y435610D02*
X1021230Y459890D01*
Y753110D01*
X1040130Y459932D02*
Y571500D01*
X1037590Y591820D02*
X1038225Y592455D01*
Y678815D01*
X852170Y655320D02*
X919630Y722780D01*
Y753110D01*
X842010Y623570D02*
X843660Y625220D01*
X890270Y544830D02*
X905900D01*
X982040Y468690D01*
X1072030Y561426D02*
Y753110D01*
Y561426D02*
X1112520Y520936D01*
X1040130Y459932D02*
X1045402Y454660D01*
X1090930D01*
X1003300Y692490D02*
Y732790D01*
X925830Y615020D02*
X1003300Y692490D01*
X911860Y631190D02*
Y695960D01*
X944880Y728980D01*
Y752960D01*
X945030Y753110D01*
X1112520Y397510D02*
Y520936D01*
X1087120Y372110D02*
X1112520Y397510D01*
X1074420Y243840D02*
Y331470D01*
X970430Y753110D02*
X1000910Y783590D01*
X1137688D01*
X1142960Y758190D02*
Y778318D01*
X1137688Y783590D02*
X1142960Y778318D01*
Y758190D02*
X1143000Y758150D01*
Y732790D02*
Y758150D01*
X989330Y435610D02*
X996950D01*
X959467Y325992D02*
X960120Y326646D01*
X954642Y325992D02*
X959467D01*
X955040Y355600D02*
X958850D01*
X965310Y349140D01*
X1061720Y240030D02*
Y331470D01*
X514350Y618490D02*
Y620046D01*
X528334Y634030D01*
X554690D01*
X565150Y623570D01*
X623570D02*
X842010D01*
X323850Y377190D02*
X367030D01*
X998300Y290990D02*
Y326970D01*
X972900Y298722D02*
Y326970D01*
X972820Y281830D02*
X985600Y294610D01*
Y326970D01*
X977600Y270290D02*
X998300Y290990D01*
X786130Y157480D02*
X954642Y325992D01*
X967548Y293370D02*
X972900Y298722D01*
X1010920Y258000D02*
Y343868D01*
Y258000D02*
X1028160Y240760D01*
X1005648Y349140D02*
X1010920Y343868D01*
X965310Y349140D02*
X1005648D01*
X264160Y436880D02*
X323850Y377190D01*
Y238760D02*
Y377190D01*
X1028160Y240650D02*
X1069340Y199470D01*
X1075595Y242475D02*
X1093470Y224600D01*
X1085960Y248620D02*
X1105010Y229570D01*
X1061720Y240030D02*
X1081930Y219820D01*
X955040Y393700D02*
X988060Y360680D01*
X1068070D01*
X1087120Y341630D01*
X1028160Y240650D02*
Y240760D01*
X1070390Y214740D02*
Y214850D01*
X1087120Y257236D02*
Y341630D01*
X1085960Y248620D02*
Y256076D01*
X1087120Y257236D01*
X798830Y46990D02*
X815070Y30750D01*
X1075595Y242475D02*
Y242665D01*
X1074420Y243840D02*
X1075595Y242665D01*
Y242475D02*
X1075595D01*
X862330Y199580D02*
X944580Y281830D01*
X939800Y293370D02*
X967548D01*
X944580Y281830D02*
X972820D01*
X836930Y190500D02*
X939800Y293370D01*
X887730Y208660D02*
X949360Y270290D01*
X977600D01*
X887730Y190500D02*
Y208660D01*
X862330Y190500D02*
Y199580D01*
X367030Y194310D02*
X426720D01*
D89*
X116840Y120680D02*
Y193040D01*
Y120680D02*
X174020Y63500D01*
X116840Y282069D02*
Y316865D01*
X89300Y254529D02*
X116840Y282069D01*
X89300Y343558D02*
X115993Y316865D01*
X89300Y219733D02*
Y254529D01*
X115993Y316865D02*
X116840D01*
X89300Y413150D02*
X116840Y440690D01*
X89300Y343558D02*
Y413150D01*
X187835Y459740D02*
X239780D01*
X168785Y478790D02*
X187835Y459740D01*
X116840Y478790D02*
X168785D01*
X106280Y203600D02*
X116840Y193040D01*
X105433Y203600D02*
X106280D01*
X89300Y219733D02*
X105433Y203600D01*
X187835Y335915D02*
X239780D01*
X168785Y354965D02*
X187835Y335915D01*
X116840Y354965D02*
X168785D01*
Y231140D02*
X187835Y212090D01*
X239780D01*
X116840Y231140D02*
X168785D01*
X174020Y63500D02*
X204100Y93580D01*
X282810D01*
X400020Y63500D02*
X438120Y25400D01*
X524510D01*
X450000Y361900D02*
X750000D01*
X880110Y572770D02*
X990600D01*
X815340Y508000D02*
X880110Y572770D01*
X815340Y503440D02*
Y508000D01*
X750000Y438100D02*
X815340Y503440D01*
X367030Y377190D02*
Y532130D01*
X379730Y544830D02*
X414020D01*
X367030Y194310D02*
Y377190D01*
Y532130D02*
X379730Y544830D01*
X450000Y438100D02*
X593090D01*
Y754380D01*
Y438100D02*
X750000D01*
X321945Y132715D02*
X907585D01*
X947420Y172550D01*
Y185420D01*
X321945Y132715D02*
X367030Y177800D01*
X282810Y93580D02*
X321945Y132715D01*
X367030Y177800D02*
Y194310D01*
X524510Y25400D02*
X539750Y40640D01*
Y74830D01*
D90*
X97800Y335905D02*
X105856Y327849D01*
X97800Y335905D02*
Y413150D01*
X1010190Y467690D02*
Y597294D01*
X1005504Y601980D02*
X1010190Y597294D01*
X623570Y601980D02*
X1005504D01*
X429260D02*
X565150D01*
X309830Y661670D02*
X407670D01*
X450850Y618490D01*
X239780Y263879D02*
Y310515D01*
Y263879D02*
X258820Y244839D01*
Y204203D02*
Y244839D01*
X247307Y192690D02*
X258820Y204203D01*
X245780Y192690D02*
X247307D01*
X239780Y186690D02*
X245780Y192690D01*
D91*
X140000Y622000D02*
D03*
D92*
X116840Y478790D02*
D03*
Y231140D02*
D03*
X501650Y74830D02*
D03*
X798830Y46990D02*
D03*
X514350Y618490D02*
D03*
X450850D02*
D03*
X947420Y185420D02*
D03*
X1010920D02*
D03*
X542290Y754380D02*
D03*
X567690D02*
D03*
X593090D02*
D03*
X422910D02*
D03*
X448310D02*
D03*
X473710D02*
D03*
X116840Y354965D02*
D03*
D93*
Y440690D02*
D03*
Y193040D02*
D03*
Y316865D02*
D03*
D94*
X539750Y74830D02*
D03*
X773430Y46990D02*
D03*
X539750Y618490D02*
D03*
X476250D02*
D03*
X922020Y185420D02*
D03*
X985520D02*
D03*
X516890Y754380D02*
D03*
X397510D02*
D03*
D95*
X1170000Y770000D02*
D03*
X30000D02*
D03*
Y30480D02*
D03*
X600000Y400000D02*
D03*
X1170000Y30000D02*
D03*
D96*
X1139698Y660400D02*
D03*
X1139444Y503936D02*
D03*
X1120140Y176784D02*
D03*
X813054Y786384D02*
D03*
X656336Y782828D02*
D03*
X1035050Y250190D02*
D03*
X506730Y157480D02*
D03*
X1010190Y467690D02*
D03*
X852170Y655320D02*
D03*
X843660Y625220D02*
D03*
X890270Y544830D02*
D03*
X998220Y467360D02*
D03*
X982040Y468690D02*
D03*
X1074420Y331470D02*
D03*
X989330Y435610D02*
D03*
X960120Y326646D02*
D03*
X915670Y342900D02*
D03*
X955040Y355600D02*
D03*
X1061720Y331470D02*
D03*
X867321Y518249D02*
D03*
X867410Y508000D02*
D03*
X867499Y497929D02*
D03*
X831850Y478790D02*
D03*
X565150Y623570D02*
D03*
Y601980D02*
D03*
X623570Y623570D02*
D03*
X567690Y495300D02*
D03*
X392430Y520700D02*
D03*
X414020Y586740D02*
D03*
X867410Y487680D02*
D03*
X915670Y323850D02*
D03*
X985600Y326970D02*
D03*
X998300D02*
D03*
X972900D02*
D03*
X915670Y304800D02*
D03*
X1099820Y332740D02*
D03*
X623570Y601980D02*
D03*
X568960Y171450D02*
D03*
X429260Y601980D02*
D03*
X422910Y577850D02*
D03*
X264160Y436880D02*
D03*
X323850Y238760D02*
D03*
X1070390Y214740D02*
D03*
X955040Y393700D02*
D03*
X887730Y190500D02*
D03*
X862330D02*
D03*
X836930D02*
D03*
X426720Y194310D02*
D03*
X563880Y585160D02*
D03*
X570230Y576580D02*
D03*
D97*
X1087120Y628650D02*
D03*
X1113790D02*
D03*
X1040130Y571500D02*
D03*
X1037590Y591820D02*
D03*
X1038860Y679450D02*
D03*
X1090930Y454660D02*
D03*
X1003300Y732790D02*
D03*
X925830Y615020D02*
D03*
X911860Y631190D02*
D03*
X1087120Y671830D02*
D03*
Y372110D02*
D03*
M02*
