G04*
G04 #@! TF.GenerationSoftware,Altium Limited,Altium Designer,22.7.1 (60)*
G04*
G04 Layer_Color=16711935*
%FSLAX44Y44*%
%MOMM*%
G71*
G04*
G04 #@! TF.SameCoordinates,0E519C92-87A3-47E9-A83B-F09A3FC6FE1E*
G04*
G04*
G04 #@! TF.FilePolarity,Negative*
G04*
G01*
G75*
%ADD23R,1.5082X1.2065*%
%ADD29R,1.2065X1.5082*%
%ADD43R,0.9500X1.4500*%
%ADD64R,1.7500X1.7500*%
%ADD65C,1.7500*%
%ADD66C,4.2032*%
%ADD67R,1.8400X1.8400*%
%ADD68C,1.8400*%
%ADD69C,1.5406*%
%ADD70R,1.5406X1.5406*%
%ADD71C,2.0000*%
%ADD72R,2.0000X2.0000*%
%ADD73C,1.9032*%
%ADD74R,1.9032X1.9032*%
%ADD75C,1.2000*%
%ADD76R,1.2000X1.2000*%
%ADD77R,2.0000X2.0000*%
%ADD78C,2.5000*%
%ADD79R,2.5000X2.5000*%
%ADD80C,1.0032*%
%ADD81C,2.0032*%
%ADD90R,1.4000X1.8000*%
D23*
X1000760Y116173D02*
D03*
Y95155D02*
D03*
D29*
X836074Y225806D02*
D03*
X857091D02*
D03*
X856329Y172466D02*
D03*
X835312D02*
D03*
X855820Y191262D02*
D03*
X834803D02*
D03*
D43*
X1139092Y445262D02*
D03*
X1158592D02*
D03*
X1139092Y423249D02*
D03*
X1158592D02*
D03*
X1139092Y401320D02*
D03*
X1158592D02*
D03*
X1114200Y378968D02*
D03*
X1133700D02*
D03*
D64*
X1118870Y661670D02*
D03*
D65*
X968870D02*
D03*
D66*
X1170000Y30000D02*
D03*
X600000Y400000D02*
D03*
X30000Y30480D02*
D03*
Y770000D02*
D03*
X1170000D02*
D03*
D67*
X806450Y207010D02*
D03*
Y50800D02*
D03*
D68*
X781050Y207010D02*
D03*
X755650D02*
D03*
X730250D02*
D03*
X704850D02*
D03*
X679450D02*
D03*
X654050D02*
D03*
X628650D02*
D03*
X603250D02*
D03*
X577850D02*
D03*
X552450D02*
D03*
X527050D02*
D03*
Y50800D02*
D03*
X552450D02*
D03*
X577850D02*
D03*
X603250D02*
D03*
X628650D02*
D03*
X654050D02*
D03*
X679450D02*
D03*
X704850D02*
D03*
X730250D02*
D03*
X755650D02*
D03*
X781050D02*
D03*
D69*
X1097661Y209550D02*
D03*
Y111506D02*
D03*
D70*
X1147699Y209550D02*
D03*
Y111506D02*
D03*
D71*
X424790Y710420D02*
D03*
Y760420D02*
D03*
X224790Y710420D02*
D03*
X798580Y760300D02*
D03*
Y734900D02*
D03*
X110490Y319790D02*
D03*
X135890D02*
D03*
X685800Y632710D02*
D03*
X711200D02*
D03*
X566420D02*
D03*
X591820D02*
D03*
D72*
X224790Y760420D02*
D03*
X798580Y709500D02*
D03*
D73*
X543560Y718820D02*
D03*
X627380D02*
D03*
X711200D02*
D03*
X93980D02*
D03*
D74*
X543560Y756920D02*
D03*
X627380D02*
D03*
X711200D02*
D03*
X93980D02*
D03*
D75*
X889000Y702310D02*
D03*
Y727710D02*
D03*
D76*
Y753110D02*
D03*
D77*
X161290Y319790D02*
D03*
X660400Y632710D02*
D03*
X541020D02*
D03*
D78*
X364490Y170180D02*
D03*
X138430D02*
D03*
D79*
X364490Y93980D02*
D03*
X138430D02*
D03*
D80*
X869233Y224646D02*
D03*
X894242Y209091D02*
D03*
X888738Y245191D02*
D03*
X905764Y226759D02*
D03*
X1139952Y465328D02*
D03*
X776478Y279400D02*
D03*
X1168146Y323088D02*
D03*
X1167638Y401574D02*
D03*
X1154684Y461264D02*
D03*
X1145286Y379984D02*
D03*
X953770Y449072D02*
D03*
X882396Y113792D02*
D03*
X834702Y92647D02*
D03*
X847120Y109856D02*
D03*
X837141Y73218D02*
D03*
X877628Y98240D02*
D03*
X675894Y162560D02*
D03*
X743458Y256540D02*
D03*
X596900Y323850D02*
D03*
X799846Y355092D02*
D03*
X805434Y273050D02*
D03*
X667004Y100584D02*
D03*
X717296Y101824D02*
D03*
X705104Y290322D02*
D03*
X817626Y259842D02*
D03*
X615188Y248158D02*
D03*
X589280Y263906D02*
D03*
X539643Y306952D02*
D03*
X498285Y302260D02*
D03*
X566531Y285464D02*
D03*
X508254Y316484D02*
D03*
X615950Y225552D02*
D03*
X1012952Y149606D02*
D03*
X533400Y137668D02*
D03*
X950214Y216846D02*
D03*
X824230Y27940D02*
D03*
X993394Y166624D02*
D03*
X548640Y393192D02*
D03*
X645668Y425958D02*
D03*
X843280Y130065D02*
D03*
X839978Y149495D02*
D03*
X1126045Y295085D02*
D03*
X1116485Y290576D02*
D03*
X897382Y525526D02*
D03*
X899032Y452575D02*
D03*
X870458Y467360D02*
D03*
X514096Y365790D02*
D03*
X1014943Y280203D02*
D03*
X998728Y291466D02*
D03*
X824864Y301181D02*
D03*
X870651Y292291D02*
D03*
X885190D02*
D03*
X863556Y267783D02*
D03*
X1005840Y329501D02*
D03*
X489712Y319024D02*
D03*
X873760Y627126D02*
D03*
X783560Y81395D02*
D03*
X923561Y216028D02*
D03*
X956056Y245166D02*
D03*
X975106Y218885D02*
D03*
X876046Y263906D02*
D03*
X823746Y271740D02*
D03*
X786107Y300228D02*
D03*
X804672Y239014D02*
D03*
X685038Y232156D02*
D03*
X878078Y134240D02*
D03*
X877342Y163840D02*
D03*
X877960Y174362D02*
D03*
X1012952Y213106D02*
D03*
X880237Y193167D02*
D03*
X1012952Y99060D02*
D03*
Y111760D02*
D03*
X595884Y445516D02*
D03*
X629920Y387604D02*
D03*
X667512Y450342D02*
D03*
X689610Y479552D02*
D03*
X873506Y386842D02*
D03*
X846975Y400165D02*
D03*
X870712Y408686D02*
D03*
X1031429Y292291D02*
D03*
X1081786Y311912D02*
D03*
X1103491Y303391D02*
D03*
X1093339Y286138D02*
D03*
X1174496Y241046D02*
D03*
X1129792Y173228D02*
D03*
X669290Y323279D02*
D03*
X662432Y365790D02*
D03*
X718312Y400304D02*
D03*
X756666Y408940D02*
D03*
X1164204Y203596D02*
D03*
X1075971Y198897D02*
D03*
X1079754Y230886D02*
D03*
X1143762Y323596D02*
D03*
X1155700Y340614D02*
D03*
X1050544Y271526D02*
D03*
X934720Y496824D02*
D03*
X918972Y499618D02*
D03*
X851916Y509778D02*
D03*
X766318Y449072D02*
D03*
X748792Y432562D02*
D03*
X695198Y417576D02*
D03*
X425704Y385572D02*
D03*
X499364Y437134D02*
D03*
X900684Y387858D02*
D03*
X637540Y448818D02*
D03*
X872236Y561848D02*
D03*
X1074928Y188214D02*
D03*
X869950Y544068D02*
D03*
X531622Y487680D02*
D03*
X514604Y536956D02*
D03*
X444246Y649732D02*
D03*
X756920Y562102D02*
D03*
X625094Y580898D02*
D03*
X552704Y574548D02*
D03*
D81*
X915572Y418877D02*
D03*
X780288Y337820D02*
D03*
X730378Y118364D02*
D03*
X987044Y337312D02*
D03*
X638540Y371790D02*
D03*
X957326Y489458D02*
D03*
X686181Y398526D02*
D03*
X326644Y544830D02*
D03*
X419862Y350012D02*
D03*
X309372Y331216D02*
D03*
X329184Y406908D02*
D03*
X141986Y498602D02*
D03*
X219710Y393700D02*
D03*
X183388Y550164D02*
D03*
D90*
X831804Y256286D02*
D03*
X857804D02*
D03*
X1060496Y111506D02*
D03*
X1034496D02*
D03*
M02*
