G04*
G04 #@! TF.GenerationSoftware,Altium Limited,Altium Designer,22.7.1 (60)*
G04*
G04 Layer_Color=32768*
%FSLAX44Y44*%
%MOMM*%
G71*
G04*
G04 #@! TF.SameCoordinates,85DCC90D-1427-409F-9E8A-CED84819FF45*
G04*
G04*
G04 #@! TF.FilePolarity,Positive*
G04*
G01*
G75*
%ADD13C,0.2000*%
%ADD98C,0.1000*%
%ADD99C,0.0500*%
D13*
X140000Y784000D02*
X137454Y783974D01*
X134909Y783895D01*
X132367Y783765D01*
X129827Y783582D01*
X127292Y783347D01*
X124762Y783060D01*
X122238Y782721D01*
X119722Y782331D01*
X117215Y781889D01*
X114717Y781395D01*
X112230Y780851D01*
X109755Y780255D01*
X107292Y779609D01*
X104843Y778912D01*
X102409Y778165D01*
X99991Y777368D01*
X97590Y776522D01*
X95206Y775627D01*
X92842Y774682D01*
X90497Y773690D01*
X88173Y772650D01*
X85871Y771562D01*
X83592Y770427D01*
X81336Y769246D01*
X79106Y768018D01*
X76901Y766745D01*
X74722Y765427D01*
X72572Y764064D01*
X70449Y762658D01*
X68356Y761208D01*
X66293Y759716D01*
X64261Y758182D01*
X62262Y756606D01*
X60294Y754990D01*
X58361Y753333D01*
X56462Y751637D01*
X54598Y749903D01*
X52770Y748130D01*
X50979Y746321D01*
X49226Y744475D01*
X47510Y742593D01*
X45834Y740677D01*
X44197Y738727D01*
X42601Y736743D01*
X41046Y734727D01*
X39533Y732680D01*
X38061Y730601D01*
X36634Y728493D01*
X35249Y726357D01*
X33909Y724192D01*
X32613Y722000D01*
X31363Y719782D01*
X30158Y717539D01*
X29000Y715272D01*
X27889Y712981D01*
X26824Y710668D01*
X25808Y708334D01*
X24839Y705979D01*
X23920Y703605D01*
X23049Y701212D01*
X22227Y698802D01*
X21456Y696376D01*
X20734Y693935D01*
X20062Y691479D01*
X19441Y689009D01*
X18871Y686528D01*
X18352Y684035D01*
X17884Y681533D01*
X17467Y679021D01*
X17103Y676501D01*
X16790Y673974D01*
X16529Y671442D01*
X16320Y668904D01*
X16163Y666363D01*
X16059Y663819D01*
X16006Y661273D01*
Y658727D01*
X16059Y656182D01*
X16163Y653638D01*
X16320Y651097D01*
X16529Y648559D01*
X16790Y646027D01*
X17103Y643500D01*
X17467Y640980D01*
X17884Y638468D01*
X18352Y635965D01*
X18871Y633473D01*
X19441Y630991D01*
X20062Y628522D01*
X20733Y626066D01*
X21455Y623625D01*
X22227Y621198D01*
X23049Y618788D01*
X23919Y616396D01*
X24839Y614022D01*
X25807Y611667D01*
X26824Y609333D01*
X27888Y607020D01*
X29000Y604729D01*
X30158Y602462D01*
X31362Y600218D01*
X32613Y598000D01*
X33908Y595809D01*
X35248Y593644D01*
X36633Y591507D01*
X38061Y589399D01*
X39532Y587321D01*
X41045Y585274D01*
X42601Y583258D01*
X44197Y581274D01*
X45833Y579324D01*
X47510Y577407D01*
X49225Y575526D01*
X50978Y573680D01*
X52769Y571870D01*
X54597Y570098D01*
X56461Y568363D01*
X58360Y566668D01*
X60294Y565011D01*
X62261Y563395D01*
X64261Y561819D01*
X66293Y560284D01*
X68355Y558792D01*
X70449Y557342D01*
X72571Y555936D01*
X74722Y554574D01*
X76900Y553255D01*
X79105Y551982D01*
X81336Y550755D01*
X83591Y549573D01*
X85870Y548438D01*
X88172Y547351D01*
X90496Y546310D01*
X92841Y545318D01*
X95205Y544374D01*
X97589Y543478D01*
X99990Y542632D01*
X102408Y541835D01*
X104842Y541088D01*
X107291Y540392D01*
X109754Y539745D01*
X112229Y539150D01*
X114717Y538605D01*
X117214Y538111D01*
X119722Y537669D01*
X122238Y537279D01*
X124761Y536940D01*
X127291Y536653D01*
X129826Y536418D01*
X132366Y536235D01*
X134909Y536105D01*
X137453Y536026D01*
X140000Y536000D01*
X140000D02*
X142546Y536026D01*
X145091Y536105D01*
X147634Y536235D01*
X150173Y536418D01*
X152708Y536653D01*
X155238Y536940D01*
X157762Y537279D01*
X160278Y537669D01*
X162785Y538111D01*
X165283Y538605D01*
X167770Y539150D01*
X170246Y539745D01*
X172708Y540392D01*
X175157Y541088D01*
X177591Y541835D01*
X180010Y542632D01*
X182411Y543478D01*
X184794Y544374D01*
X187159Y545318D01*
X189504Y546310D01*
X191828Y547351D01*
X194130Y548438D01*
X196409Y549573D01*
X198664Y550755D01*
X200895Y551982D01*
X203100Y553255D01*
X205278Y554574D01*
X207429Y555936D01*
X209552Y557342D01*
X211645Y558792D01*
X213708Y560284D01*
X215739Y561819D01*
X217739Y563395D01*
X219706Y565011D01*
X221640Y566668D01*
X223539Y568364D01*
X225403Y570098D01*
X227231Y571870D01*
X229022Y573680D01*
X230775Y575526D01*
X232491Y577408D01*
X234167Y579324D01*
X235804Y581275D01*
X237400Y583258D01*
X238955Y585274D01*
X240468Y587322D01*
X241939Y589400D01*
X243367Y591508D01*
X244752Y593645D01*
X246092Y595809D01*
X247388Y598001D01*
X248638Y600219D01*
X249843Y602462D01*
X251001Y604730D01*
X252112Y607020D01*
X253176Y609334D01*
X254193Y611668D01*
X255161Y614023D01*
X256081Y616397D01*
X256952Y618789D01*
X257773Y621199D01*
X258545Y623626D01*
X259267Y626067D01*
X259938Y628523D01*
X260559Y630993D01*
X261130Y633474D01*
X261649Y635967D01*
X262117Y638469D01*
X262533Y640981D01*
X262897Y643501D01*
X263210Y646028D01*
X263471Y648561D01*
X263680Y651098D01*
X263837Y653640D01*
X263941Y656183D01*
X263993Y658729D01*
X263993Y661275D01*
X263941Y663821D01*
X263837Y666365D01*
X263680Y668906D01*
X263471Y671443D01*
X263210Y673976D01*
X262897Y676503D01*
X262532Y679023D01*
X262116Y681535D01*
X261648Y684037D01*
X261129Y686530D01*
X260558Y689011D01*
X259937Y691481D01*
X259266Y693937D01*
X258544Y696378D01*
X257772Y698804D01*
X256950Y701214D01*
X256079Y703607D01*
X255160Y705981D01*
X254191Y708336D01*
X253175Y710670D01*
X252111Y712983D01*
X250999Y715274D01*
X249841Y717541D01*
X248636Y719784D01*
X247386Y722002D01*
X246090Y724194D01*
X244750Y726359D01*
X243365Y728496D01*
X241937Y730603D01*
X240466Y732682D01*
X238952Y734729D01*
X237397Y736745D01*
X235801Y738729D01*
X234164Y740679D01*
X232488Y742595D01*
X230772Y744477D01*
X229019Y746323D01*
X227228Y748132D01*
X225400Y749905D01*
X223536Y751639D01*
X221637Y753335D01*
X219703Y754992D01*
X217736Y756608D01*
X215736Y758184D01*
X213704Y759718D01*
X211641Y761210D01*
X209548Y762660D01*
X207426Y764066D01*
X205275Y765429D01*
X203096Y766747D01*
X200891Y768020D01*
X198661Y769247D01*
X196405Y770429D01*
X194126Y771563D01*
X191824Y772651D01*
X189500Y773691D01*
X187155Y774684D01*
X184790Y775628D01*
X182407Y776523D01*
X180006Y777369D01*
X177587Y778166D01*
X175153Y778913D01*
X172704Y779610D01*
X170242Y780256D01*
X167766Y780851D01*
X165279Y781396D01*
X162781Y781889D01*
X160274Y782331D01*
X157758Y782722D01*
X155234Y783061D01*
X152704Y783347D01*
X150169Y783582D01*
X147629Y783765D01*
X145087Y783896D01*
X142542Y783974D01*
X140000Y784000D01*
X450000Y511000D02*
X447455Y510971D01*
X444911Y510883D01*
X442370Y510737D01*
X439833Y510533D01*
X437301Y510271D01*
X434776Y509951D01*
X432259Y509573D01*
X429751Y509137D01*
X427254Y508644D01*
X424769Y508094D01*
X422297Y507487D01*
X419840Y506824D01*
X417398Y506104D01*
X414974Y505329D01*
X412568Y504498D01*
X410182Y503612D01*
X407816Y502672D01*
X405473Y501678D01*
X403153Y500630D01*
X400858Y499529D01*
X398589Y498377D01*
X396347Y497172D01*
X394133Y495916D01*
X391949Y494610D01*
X389794Y493254D01*
X387672Y491849D01*
X385582Y490396D01*
X383527Y488895D01*
X381506Y487347D01*
X379521Y485754D01*
X377573Y484115D01*
X375663Y482432D01*
X373793Y480706D01*
X371963Y478938D01*
X370173Y477127D01*
X368425Y475277D01*
X366721Y473387D01*
X365060Y471458D01*
X363444Y469491D01*
X361873Y467488D01*
X360349Y465450D01*
X358872Y463377D01*
X357443Y461271D01*
X356062Y459132D01*
X354731Y456963D01*
X353450Y454764D01*
X352219Y452535D01*
X351040Y450280D01*
X349914Y447997D01*
X348839Y445690D01*
X347818Y443358D01*
X346851Y441004D01*
X345938Y438628D01*
X345080Y436232D01*
X344277Y433816D01*
X343529Y431383D01*
X342837Y428934D01*
X342202Y426469D01*
X341623Y423990D01*
X341102Y421499D01*
X340638Y418996D01*
X340231Y416484D01*
X339882Y413962D01*
X339590Y411434D01*
X339357Y408899D01*
X339182Y406360D01*
X339066Y403817D01*
X339007Y401273D01*
Y398727D01*
X339066Y396182D01*
X339182Y393640D01*
X339357Y391101D01*
X339590Y388566D01*
X339882Y386037D01*
X340231Y383516D01*
X340638Y381003D01*
X341102Y378501D01*
X341623Y376009D01*
X342202Y373531D01*
X342837Y371066D01*
X343529Y368616D01*
X344277Y366183D01*
X345080Y363768D01*
X345938Y361372D01*
X346851Y358996D01*
X347819Y356642D01*
X348840Y354310D01*
X349914Y352002D01*
X351041Y349720D01*
X352220Y347464D01*
X353450Y345236D01*
X354731Y343037D01*
X356062Y340867D01*
X357443Y338729D01*
X358872Y336623D01*
X360349Y334550D01*
X361874Y332511D01*
X363444Y330508D01*
X365060Y328542D01*
X366721Y326613D01*
X368426Y324723D01*
X370173Y322872D01*
X371963Y321062D01*
X373793Y319293D01*
X375664Y317567D01*
X377574Y315884D01*
X379521Y314246D01*
X381506Y312652D01*
X383527Y311105D01*
X385583Y309604D01*
X387672Y308151D01*
X389795Y306746D01*
X391949Y305390D01*
X394133Y304084D01*
X396348Y302828D01*
X398590Y301623D01*
X400859Y300470D01*
X403154Y299370D01*
X405474Y298322D01*
X407817Y297328D01*
X410182Y296388D01*
X412568Y295502D01*
X414974Y294671D01*
X417399Y293895D01*
X419840Y293176D01*
X422298Y292512D01*
X424769Y291905D01*
X427255Y291355D01*
X429752Y290862D01*
X432259Y290427D01*
X434777Y290049D01*
X437302Y289729D01*
X439833Y289466D01*
X442371Y289263D01*
X444912Y289117D01*
X447456Y289029D01*
X450000Y289000D01*
X452545Y289029D01*
X455089Y289117D01*
X457630Y289263D01*
X460167Y289467D01*
X462699Y289729D01*
X465224Y290049D01*
X467741Y290427D01*
X470249Y290863D01*
X472746Y291356D01*
X475231Y291906D01*
X477703Y292513D01*
X480161Y293176D01*
X482602Y293896D01*
X485026Y294671D01*
X487432Y295502D01*
X489819Y296388D01*
X492184Y297328D01*
X494527Y298322D01*
X496847Y299370D01*
X499142Y300471D01*
X501411Y301624D01*
X503653Y302828D01*
X505867Y304084D01*
X508052Y305390D01*
X510206Y306746D01*
X512328Y308151D01*
X514418Y309605D01*
X516474Y311105D01*
X518494Y312653D01*
X520479Y314247D01*
X522427Y315885D01*
X524337Y317568D01*
X526207Y319294D01*
X528038Y321063D01*
X529827Y322873D01*
X531575Y324724D01*
X533279Y326614D01*
X534940Y328543D01*
X536556Y330509D01*
X538127Y332512D01*
X539651Y334550D01*
X541128Y336623D01*
X542558Y338729D01*
X543938Y340868D01*
X545269Y343037D01*
X546550Y345237D01*
X547781Y347465D01*
X548960Y349721D01*
X550087Y352003D01*
X551161Y354311D01*
X552182Y356642D01*
X553149Y358997D01*
X554062Y361373D01*
X554921Y363769D01*
X555724Y366184D01*
X556471Y368617D01*
X557163Y371067D01*
X557798Y373531D01*
X558377Y376010D01*
X558898Y378502D01*
X559362Y381004D01*
X559769Y383517D01*
X560118Y386038D01*
X560410Y388567D01*
X560643Y391101D01*
X560818Y393641D01*
X560934Y396183D01*
X560993Y398728D01*
X560993Y401273D01*
X560934Y403818D01*
X560818Y406361D01*
X560643Y408900D01*
X560410Y411435D01*
X560118Y413963D01*
X559769Y416484D01*
X559362Y418997D01*
X558898Y421500D01*
X558376Y423991D01*
X557798Y426470D01*
X557163Y428934D01*
X556471Y431384D01*
X555723Y433817D01*
X554920Y436232D01*
X554062Y438629D01*
X553149Y441004D01*
X552181Y443359D01*
X551160Y445690D01*
X550086Y447998D01*
X548959Y450280D01*
X547780Y452536D01*
X546550Y454764D01*
X545269Y456964D01*
X543937Y459133D01*
X542557Y461272D01*
X541128Y463378D01*
X539650Y465451D01*
X538126Y467489D01*
X536555Y469492D01*
X534939Y471458D01*
X533279Y473387D01*
X531574Y475277D01*
X529826Y477128D01*
X528037Y478938D01*
X526206Y480707D01*
X524336Y482433D01*
X522426Y484116D01*
X520478Y485754D01*
X518494Y487348D01*
X516473Y488895D01*
X514417Y490396D01*
X512327Y491849D01*
X510205Y493254D01*
X508051Y494610D01*
X505866Y495916D01*
X503652Y497172D01*
X501410Y498377D01*
X499141Y499530D01*
X496846Y500630D01*
X494526Y501678D01*
X492183Y502672D01*
X489817Y503613D01*
X487431Y504498D01*
X485025Y505329D01*
X482601Y506105D01*
X480159Y506824D01*
X477702Y507488D01*
X475230Y508095D01*
X472745Y508645D01*
X470248Y509138D01*
X467740Y509573D01*
X465223Y509951D01*
X462698Y510271D01*
X460166Y510533D01*
X457629Y510737D01*
X455088Y510883D01*
X452544Y510971D01*
X450000Y511000D01*
X750000Y289000D02*
X752545Y289029D01*
X755089Y289117D01*
X757630Y289263D01*
X760167Y289467D01*
X762699Y289729D01*
X765224Y290049D01*
X767741Y290427D01*
X770249Y290863D01*
X772746Y291356D01*
X775231Y291906D01*
X777703Y292513D01*
X780161Y293176D01*
X782602Y293896D01*
X785026Y294671D01*
X787432Y295502D01*
X789819Y296388D01*
X792184Y297328D01*
X794527Y298322D01*
X796847Y299370D01*
X799142Y300471D01*
X801411Y301624D01*
X803653Y302828D01*
X805867Y304084D01*
X808052Y305390D01*
X810206Y306746D01*
X812328Y308151D01*
X814418Y309605D01*
X816474Y311105D01*
X818494Y312653D01*
X820479Y314247D01*
X822427Y315885D01*
X824337Y317568D01*
X826207Y319294D01*
X828038Y321063D01*
X829827Y322873D01*
X831575Y324724D01*
X833279Y326614D01*
X834940Y328543D01*
X836556Y330509D01*
X838127Y332512D01*
X839651Y334550D01*
X841128Y336623D01*
X842558Y338729D01*
X843938Y340868D01*
X845269Y343037D01*
X846551Y345237D01*
X847781Y347465D01*
X848960Y349721D01*
X850087Y352003D01*
X851161Y354311D01*
X852182Y356642D01*
X853149Y358997D01*
X854062Y361373D01*
X854921Y363769D01*
X855724Y366184D01*
X856471Y368617D01*
X857163Y371067D01*
X857798Y373531D01*
X858377Y376010D01*
X858898Y378502D01*
X859362Y381004D01*
X859769Y383517D01*
X860118Y386038D01*
X860410Y388567D01*
X860643Y391101D01*
X860818Y393641D01*
X860934Y396183D01*
X860993Y398728D01*
X860993Y401273D01*
X860934Y403818D01*
X860818Y406361D01*
X860643Y408900D01*
X860409Y411435D01*
X860118Y413963D01*
X859769Y416484D01*
X859362Y418997D01*
X858898Y421500D01*
X858376Y423991D01*
X857798Y426470D01*
X857162Y428934D01*
X856471Y431384D01*
X855723Y433817D01*
X854920Y436232D01*
X854062Y438629D01*
X853149Y441004D01*
X852181Y443359D01*
X851160Y445690D01*
X850086Y447998D01*
X848959Y450280D01*
X847780Y452536D01*
X846550Y454764D01*
X845269Y456964D01*
X843938Y459133D01*
X842557Y461272D01*
X841128Y463378D01*
X839650Y465451D01*
X838126Y467489D01*
X836556Y469492D01*
X834939Y471458D01*
X833279Y473387D01*
X831574Y475277D01*
X829826Y477128D01*
X828037Y478938D01*
X826206Y480707D01*
X824336Y482433D01*
X822426Y484116D01*
X820478Y485754D01*
X818494Y487348D01*
X816473Y488895D01*
X814417Y490396D01*
X812327Y491849D01*
X810205Y493254D01*
X808051Y494610D01*
X805866Y495916D01*
X803652Y497172D01*
X801410Y498377D01*
X799141Y499530D01*
X796846Y500630D01*
X794526Y501678D01*
X792183Y502672D01*
X789817Y503613D01*
X787431Y504498D01*
X785025Y505329D01*
X782601Y506105D01*
X780159Y506824D01*
X777702Y507488D01*
X775230Y508095D01*
X772745Y508645D01*
X770248Y509138D01*
X767740Y509573D01*
X765223Y509951D01*
X762698Y510271D01*
X760166Y510533D01*
X757629Y510737D01*
X755088Y510883D01*
X752544Y510971D01*
X750000Y511000D01*
X747455Y510971D01*
X744911Y510883D01*
X742370Y510737D01*
X739833Y510533D01*
X737301Y510271D01*
X734776Y509951D01*
X732259Y509573D01*
X729751Y509137D01*
X727254Y508644D01*
X724769Y508094D01*
X722297Y507487D01*
X719840Y506824D01*
X717398Y506104D01*
X714974Y505329D01*
X712568Y504498D01*
X710182Y503612D01*
X707816Y502672D01*
X705473Y501678D01*
X703154Y500630D01*
X700859Y499529D01*
X698589Y498377D01*
X696347Y497172D01*
X694133Y495916D01*
X691948Y494610D01*
X689794Y493254D01*
X687672Y491849D01*
X685582Y490396D01*
X683527Y488895D01*
X681506Y487347D01*
X679521Y485754D01*
X677573Y484115D01*
X675664Y482432D01*
X673793Y480706D01*
X671963Y478938D01*
X670173Y477127D01*
X668426Y475277D01*
X666721Y473387D01*
X665060Y471458D01*
X663444Y469491D01*
X661873Y467488D01*
X660349Y465450D01*
X658872Y463377D01*
X657443Y461271D01*
X656062Y459132D01*
X654731Y456963D01*
X653450Y454764D01*
X652219Y452535D01*
X651041Y450280D01*
X649914Y447997D01*
X648839Y445690D01*
X647818Y443358D01*
X646851Y441004D01*
X645938Y438628D01*
X645080Y436232D01*
X644277Y433816D01*
X643529Y431383D01*
X642837Y428934D01*
X642202Y426469D01*
X641624Y423990D01*
X641102Y421499D01*
X640638Y418996D01*
X640231Y416484D01*
X639882Y413962D01*
X639590Y411434D01*
X639357Y408899D01*
X639182Y406360D01*
X639066Y403817D01*
X639007Y401273D01*
Y398727D01*
X639066Y396182D01*
X639182Y393640D01*
X639357Y391101D01*
X639590Y388566D01*
X639882Y386037D01*
X640231Y383516D01*
X640638Y381003D01*
X641102Y378501D01*
X641624Y376009D01*
X642202Y373531D01*
X642837Y371066D01*
X643529Y368616D01*
X644277Y366183D01*
X645080Y363768D01*
X645938Y361372D01*
X646851Y358996D01*
X647819Y356642D01*
X648840Y354310D01*
X649914Y352002D01*
X651041Y349720D01*
X652220Y347464D01*
X653450Y345236D01*
X654731Y343037D01*
X656062Y340867D01*
X657443Y338729D01*
X658872Y336623D01*
X660349Y334550D01*
X661873Y332511D01*
X663444Y330508D01*
X665060Y328542D01*
X666721Y326613D01*
X668426Y324723D01*
X670173Y322872D01*
X671963Y321062D01*
X673793Y319293D01*
X675664Y317567D01*
X677573Y315884D01*
X679521Y314246D01*
X681506Y312652D01*
X683527Y311105D01*
X685583Y309604D01*
X687672Y308151D01*
X689795Y306746D01*
X691949Y305390D01*
X694134Y304084D01*
X696348Y302828D01*
X698590Y301623D01*
X700859Y300470D01*
X703154Y299370D01*
X705474Y298322D01*
X707817Y297328D01*
X710182Y296388D01*
X712568Y295502D01*
X714974Y294671D01*
X717399Y293895D01*
X719840Y293176D01*
X722298Y292512D01*
X724769Y291905D01*
X727255Y291355D01*
X729752Y290862D01*
X732260Y290427D01*
X734777Y290049D01*
X737302Y289729D01*
X739834Y289466D01*
X742371Y289263D01*
X744912Y289117D01*
X747456Y289029D01*
X750000Y289000D01*
X1109900Y611490D02*
X1181900D01*
X1109900Y514490D02*
Y611490D01*
Y514490D02*
X1181900D01*
Y611490D01*
X1109900Y288962D02*
X1181900D01*
X1109900Y191962D02*
Y288962D01*
Y191962D02*
X1181900D01*
Y288962D01*
X1137780Y721560D02*
Y785060D01*
X828480D02*
X1137780D01*
X828480Y721560D02*
Y785060D01*
Y721560D02*
X1137780D01*
X157020Y17500D02*
X417020D01*
X157020D02*
Y109500D01*
X417020D01*
Y17500D02*
Y109500D01*
X828480Y15040D02*
Y78540D01*
Y15040D02*
X1137780D01*
Y78540D01*
X828480D02*
X1137780D01*
X1134954Y189324D02*
X1176954D01*
Y169324D02*
Y189324D01*
X1134954Y169324D02*
X1176954D01*
X1134954D02*
Y189324D01*
X1157683Y141891D02*
Y166973D01*
X1114601D02*
X1157683D01*
X1114601Y141891D02*
Y166973D01*
Y141891D02*
X1157683D01*
X364840Y533970D02*
X376840D01*
X364840Y509970D02*
Y533970D01*
Y509970D02*
X376840D01*
Y533970D01*
X335150Y536883D02*
X350650D01*
X335150Y509821D02*
Y536883D01*
Y509821D02*
X350650D01*
Y536883D01*
X287069Y522129D02*
Y547211D01*
Y522129D02*
X330151D01*
Y547211D01*
X287069D02*
X330151D01*
X333090Y462980D02*
X345090D01*
Y486980D01*
X333090D02*
X345090D01*
X333090Y462980D02*
Y486980D01*
X1008539Y540971D02*
X1033621D01*
X1008539Y497889D02*
Y540971D01*
Y497889D02*
X1033621D01*
Y540971D01*
X1181780Y614840D02*
Y634840D01*
X1139780D02*
X1181780D01*
X1139780Y614840D02*
Y634840D01*
Y614840D02*
X1181780D01*
X448580Y171070D02*
Y212470D01*
Y171070D02*
X506460D01*
Y212470D01*
X448580D02*
X506460D01*
X284080Y586370D02*
X335680D01*
X284080D02*
Y686170D01*
X335680D01*
Y586370D02*
Y686170D01*
X379889Y627429D02*
Y670511D01*
X404971D01*
Y627429D02*
Y670511D01*
X379889Y627429D02*
X404971D01*
X378899Y605660D02*
X405961D01*
X378899D02*
Y621160D01*
X405961D01*
Y605660D02*
Y621160D01*
X551840Y520630D02*
Y569030D01*
X469240D02*
X551840D01*
X469240Y520630D02*
Y569030D01*
Y520630D02*
X551840D01*
X933320Y651071D02*
X948820D01*
X933320Y624009D02*
Y651071D01*
Y624009D02*
X948820D01*
Y651071D01*
X967480Y635640D02*
Y652140D01*
Y635640D02*
X998480D01*
Y652140D01*
X967480D02*
X998480D01*
X999539Y656431D02*
X1042621D01*
Y631349D02*
Y656431D01*
X999539Y631349D02*
X1042621D01*
X999539D02*
Y656431D01*
X1005221Y502929D02*
Y537011D01*
X986139Y502929D02*
X1005221D01*
X986139D02*
Y537011D01*
X1005221D01*
X985361Y497889D02*
Y540971D01*
X960279Y497889D02*
X985361D01*
X960279D02*
Y540971D01*
X985361D01*
X874770Y351150D02*
X905770D01*
Y334650D02*
Y351150D01*
X874770Y334650D02*
X905770D01*
X874770D02*
Y351150D01*
Y313050D02*
X905770D01*
Y296550D02*
Y313050D01*
X874770Y296550D02*
X905770D01*
X874770D02*
Y313050D01*
Y332100D02*
X905770D01*
Y315600D02*
Y332100D01*
X874770Y315600D02*
X905770D01*
X874770D02*
Y332100D01*
X1094170Y511460D02*
X1118170D01*
Y499460D02*
Y511460D01*
X1094170Y499460D02*
X1118170D01*
X1094170D02*
Y511460D01*
X582230Y148940D02*
Y160940D01*
X558230D02*
X582230D01*
X558230Y148940D02*
Y160940D01*
Y148940D02*
X582230D01*
X1090300Y266440D02*
Y297440D01*
X1106800D01*
Y266440D02*
Y297440D01*
X1090300Y266440D02*
X1106800D01*
X1063149Y259129D02*
Y302211D01*
X1088231D01*
Y259129D02*
Y302211D01*
X1063149Y259129D02*
X1088231D01*
X1036479D02*
Y302211D01*
X1061561D01*
Y259129D02*
Y302211D01*
X1036479Y259129D02*
X1061561D01*
X1009809D02*
X1034891D01*
Y302211D01*
X1009809D02*
X1034891D01*
X1009809Y259129D02*
Y302211D01*
X983139Y259129D02*
X1008221D01*
Y302211D01*
X983139D02*
X1008221D01*
X983139Y259129D02*
Y302211D01*
X956469Y259129D02*
X981551D01*
Y302211D01*
X956469D02*
X981551D01*
X956469Y259129D02*
Y302211D01*
X1111091Y518209D02*
Y561291D01*
X1086009Y518209D02*
X1111091D01*
X1086009D02*
Y561291D01*
X1111091D01*
X895980Y129280D02*
Y160280D01*
X879480Y129280D02*
X895980D01*
X879480D02*
Y160280D01*
X895980D01*
X870580Y129280D02*
Y160280D01*
X854080Y129280D02*
X870580D01*
X854080D02*
Y160280D01*
X870580D01*
X845180Y129280D02*
Y160280D01*
X828680Y129280D02*
X845180D01*
X828680D02*
Y160280D01*
X845180D01*
X1189000Y304000D02*
Y496000D01*
X926500Y304000D02*
X1189000D01*
X926500D02*
Y496000D01*
X1189000D01*
X630317Y513239D02*
Y538321D01*
Y513239D02*
X673400D01*
Y538321D01*
X630317D02*
X673400D01*
X595370Y517530D02*
Y534030D01*
Y517530D02*
X626370D01*
Y534030D01*
X595370D02*
X626370D01*
X595370Y545470D02*
Y561970D01*
Y545470D02*
X626370D01*
Y561970D01*
X595370D02*
X626370D01*
X629969Y541179D02*
Y566261D01*
Y541179D02*
X673051D01*
Y566261D01*
X629969D02*
X673051D01*
X351949Y186641D02*
X377031D01*
X351949Y143559D02*
Y186641D01*
Y143559D02*
X377031D01*
Y186641D01*
X380080Y175830D02*
X392080D01*
X380080Y151830D02*
Y175830D01*
Y151830D02*
X392080D01*
Y175830D01*
X402460Y177361D02*
X417960D01*
X402460Y150299D02*
Y177361D01*
Y150299D02*
X417960D01*
Y177361D01*
X282379Y185290D02*
Y200790D01*
Y185290D02*
X309441D01*
Y200790D01*
X282379D02*
X309441D01*
X283910Y160370D02*
Y172370D01*
Y160370D02*
X307910D01*
Y172370D01*
X283910D02*
X307910D01*
X267210Y421900D02*
X299210D01*
X267210Y390900D02*
Y421900D01*
Y390900D02*
X299210D01*
Y421900D01*
X322253Y460880D02*
Y476380D01*
X295191D02*
X322253D01*
X295191Y460880D02*
Y476380D01*
Y460880D02*
X322253D01*
X670910Y235650D02*
X682910D01*
Y259650D01*
X670910D02*
X682910D01*
X670910Y235650D02*
Y259650D01*
X583280Y196280D02*
X595280D01*
Y220280D01*
X583280D02*
X595280D01*
X583280Y196280D02*
Y220280D01*
X604160Y107310D02*
Y154310D01*
Y107310D02*
X686160D01*
Y154310D01*
X604160D02*
X686160D01*
X690520Y144140D02*
Y191140D01*
Y144140D02*
X772520D01*
Y191140D01*
X690520D02*
X772520D01*
X285799Y429419D02*
Y454501D01*
Y429419D02*
X328881D01*
Y454501D01*
X285799D02*
X328881D01*
X312579Y330249D02*
Y373331D01*
X337661D01*
Y330249D02*
Y373331D01*
X312579Y330249D02*
X337661D01*
X307470Y333290D02*
Y370290D01*
X291970Y333290D02*
X307470D01*
X291970D02*
Y370290D01*
X307470D01*
X271650Y273599D02*
Y310599D01*
X287150D01*
Y273599D02*
Y310599D01*
X271650Y273599D02*
X287150D01*
X274369Y205899D02*
X317451D01*
X274369D02*
Y230981D01*
X317451D01*
Y205899D02*
Y230981D01*
X279910Y230880D02*
Y261880D01*
X311910D01*
Y230880D02*
Y261880D01*
X279910Y230880D02*
X311910D01*
X318611Y270559D02*
Y313641D01*
X293529Y270559D02*
X318611D01*
X293529D02*
Y313641D01*
X318611D01*
X208530Y403720D02*
X258830D01*
X208530D02*
Y515760D01*
X258830D01*
Y403720D02*
Y515760D01*
X208530Y279895D02*
X258830D01*
X208530D02*
Y391935D01*
X258830D01*
Y279895D02*
Y391935D01*
X208530Y156070D02*
X258830D01*
X208530D02*
Y268110D01*
X258830D01*
Y156070D02*
Y268110D01*
X335210Y203810D02*
Y286410D01*
X383610D01*
Y203810D02*
Y286410D01*
X335210Y203810D02*
X383610D01*
X391020Y233930D02*
Y284230D01*
X503060D01*
Y233930D02*
Y284230D01*
X391020Y233930D02*
X503060D01*
X396669Y227710D02*
X423751D01*
Y211710D02*
Y227710D01*
X396669Y211710D02*
X423751D01*
X396669D02*
Y227710D01*
X962240Y565350D02*
Y590350D01*
X973240D01*
Y565350D02*
Y590350D01*
X962240Y565350D02*
X973240D01*
D98*
X326470Y166370D02*
X336470D01*
X331470Y161370D02*
Y171370D01*
X715000Y695300D02*
X725000D01*
X720000Y690300D02*
Y700300D01*
X275590Y341710D02*
Y351710D01*
X270590Y346710D02*
X280590D01*
X563960Y193040D02*
X573960D01*
X568960Y188040D02*
Y198040D01*
X642620Y238066D02*
Y248066D01*
X637620Y243066D02*
X647620D01*
X359410Y631270D02*
Y641270D01*
X354410Y636270D02*
X364410D01*
X723980Y231140D02*
X733980D01*
X728980Y226140D02*
Y236140D01*
X276860Y462360D02*
Y472360D01*
X271860Y467360D02*
X281860D01*
X308610Y497920D02*
Y507920D01*
X303610Y502920D02*
X313610D01*
X111840Y459740D02*
X121840D01*
X116840Y454740D02*
Y464740D01*
X111840Y212090D02*
X121840D01*
X116840Y207090D02*
Y217090D01*
X520700Y69830D02*
Y79830D01*
X515700Y74830D02*
X525700D01*
X645160Y189310D02*
Y199310D01*
X640160Y194310D02*
X650160D01*
X781130Y46990D02*
X791130D01*
X786130Y41990D02*
Y51990D01*
X522050Y618490D02*
X532050D01*
X527050Y613490D02*
Y623490D01*
X458550Y618490D02*
X468550D01*
X463550Y613490D02*
Y623490D01*
X929720Y185420D02*
X939720D01*
X934720Y180420D02*
Y190420D01*
X993220Y185420D02*
X1003220D01*
X998220Y180420D02*
Y190420D01*
X554990Y749380D02*
Y759380D01*
X549990Y754380D02*
X559990D01*
X435610Y749380D02*
Y759380D01*
X430610Y754380D02*
X440610D01*
X262970Y246380D02*
X272970D01*
X267970Y241380D02*
Y251380D01*
X116840Y330915D02*
Y340915D01*
X111840Y335915D02*
X121840D01*
D99*
X346970Y150770D02*
Y181970D01*
X315970Y150770D02*
Y181970D01*
Y150770D02*
X346970D01*
X315970Y181970D02*
X346970D01*
X789300Y627700D02*
Y773000D01*
X650700D02*
X789300D01*
X650700Y627700D02*
Y773000D01*
Y627700D02*
X789300D01*
X267840Y331410D02*
Y362010D01*
Y331410D02*
X283340D01*
Y362010D01*
X267840D02*
X283340D01*
X561210Y208340D02*
X576710D01*
Y177740D02*
Y208340D01*
X561210Y177740D02*
X576710D01*
X561210D02*
Y208340D01*
X657920Y235316D02*
Y250816D01*
X627320Y235316D02*
X657920D01*
X627320D02*
Y250816D01*
X657920D01*
X343910Y651870D02*
X374910D01*
X343910Y620670D02*
X374910D01*
X343910D02*
Y651870D01*
X374910Y620670D02*
Y651870D01*
X686480Y195140D02*
Y267140D01*
X771480Y195140D02*
Y267140D01*
X686480D02*
X771480D01*
X686480Y195140D02*
X771480D01*
X269110Y452060D02*
Y482660D01*
Y452060D02*
X284610D01*
Y482660D01*
X269110D02*
X284610D01*
X293010Y518420D02*
X324210D01*
X293010Y487420D02*
X324210D01*
Y518420D01*
X293010Y487420D02*
Y518420D01*
X147840Y413690D02*
Y505790D01*
X73340D02*
X147840D01*
X73340Y413690D02*
Y505790D01*
Y413690D02*
X147840D01*
Y166040D02*
Y258140D01*
X73340D02*
X147840D01*
X73340Y166040D02*
Y258140D01*
Y166040D02*
X147840D01*
X474650Y105830D02*
X566750D01*
X474650Y31330D02*
Y105830D01*
Y31330D02*
X566750D01*
Y105830D01*
X606160Y159810D02*
X684160D01*
X606160Y228810D02*
X684160D01*
Y159810D02*
Y228810D01*
X606160Y159810D02*
Y228810D01*
X759732Y76990D02*
X812532D01*
X759732Y16990D02*
X812532D01*
X759732D02*
Y76990D01*
X812532Y16990D02*
Y76990D01*
X500648Y588490D02*
X553448D01*
X500648Y648490D02*
X553448D01*
Y588490D02*
Y648490D01*
X500648Y588490D02*
Y648490D01*
X437148Y588490D02*
X489948D01*
X437148Y648490D02*
X489948D01*
Y588490D02*
Y648490D01*
X437148Y588490D02*
Y648490D01*
X908322Y215420D02*
X961122D01*
X908322Y155420D02*
X961122D01*
X908322D02*
Y215420D01*
X961122Y155420D02*
Y215420D01*
X971822D02*
X1024622D01*
X971822Y155420D02*
X1024622D01*
X971822D02*
Y215420D01*
X1024622Y155420D02*
Y215420D01*
X503190Y724380D02*
X606790D01*
Y784380D01*
X503190D02*
X606790D01*
X503190Y724380D02*
Y784380D01*
X383810Y724380D02*
X487410D01*
Y784380D01*
X383810D02*
X487410D01*
X383810Y724380D02*
Y784380D01*
X260220Y261680D02*
X275720D01*
Y231080D02*
Y261680D01*
X260220Y231080D02*
X275720D01*
X260220D02*
Y261680D01*
X73340Y289865D02*
X147840D01*
X73340D02*
Y381965D01*
X147840D01*
Y289865D02*
Y381965D01*
M02*
