G04*
G04 #@! TF.GenerationSoftware,Altium Limited,Altium Designer,22.7.1 (60)*
G04*
G04 Layer_Color=8388736*
%FSLAX44Y44*%
%MOMM*%
G71*
G04*
G04 #@! TF.SameCoordinates,0E519C92-87A3-47E9-A83B-F09A3FC6FE1E*
G04*
G04*
G04 #@! TF.FilePolarity,Negative*
G04*
G01*
G75*
%ADD15R,1.9900X2.3300*%
%ADD22R,0.7400X2.7900*%
%ADD23R,1.5082X1.2065*%
%ADD24R,1.3300X1.3300*%
%ADD25R,0.9000X2.0000*%
%ADD26R,2.0000X0.9000*%
%ADD27R,1.0046X1.2621*%
%ADD28R,0.8000X0.8000*%
%ADD29R,1.2065X1.5082*%
%ADD30R,1.2621X1.0046*%
%ADD31R,1.3082X0.8065*%
%ADD32R,0.7500X0.9000*%
%ADD33R,0.9000X0.7500*%
%ADD35R,0.8000X0.9000*%
%ADD37R,1.4500X0.9500*%
%ADD38R,1.4082X1.0065*%
%ADD43R,0.9500X1.4500*%
%ADD44R,1.1500X1.1500*%
%ADD45R,1.1500X1.1500*%
%ADD48R,1.7145X2.1844*%
%ADD49R,2.0000X3.0000*%
%ADD50R,1.3032X0.9032*%
%ADD51R,3.0032X1.0632*%
%ADD52R,3.5032X0.9032*%
%ADD53R,2.0332X1.3432*%
%ADD54R,0.9832X1.2532*%
%ADD55R,1.1332X1.1032*%
%ADD56R,1.1032X1.0032*%
%ADD57R,1.0332X0.8332*%
G04:AMPARAMS|DCode=58|XSize=1.1032mm|YSize=1.6532mm|CornerRadius=0.1511mm|HoleSize=0mm|Usage=FLASHONLY|Rotation=180.000|XOffset=0mm|YOffset=0mm|HoleType=Round|Shape=RoundedRectangle|*
%AMROUNDEDRECTD58*
21,1,1.1032,1.3510,0,0,180.0*
21,1,0.8010,1.6532,0,0,180.0*
1,1,0.3022,-0.4005,0.6755*
1,1,0.3022,0.4005,0.6755*
1,1,0.3022,0.4005,-0.6755*
1,1,0.3022,-0.4005,-0.6755*
%
%ADD58ROUNDEDRECTD58*%
G04:AMPARAMS|DCode=59|XSize=3.3532mm|YSize=1.6532mm|CornerRadius=0.1524mm|HoleSize=0mm|Usage=FLASHONLY|Rotation=180.000|XOffset=0mm|YOffset=0mm|HoleType=Round|Shape=RoundedRectangle|*
%AMROUNDEDRECTD59*
21,1,3.3532,1.3485,0,0,180.0*
21,1,3.0485,1.6532,0,0,180.0*
1,1,0.3047,-1.5243,0.6743*
1,1,0.3047,1.5243,0.6743*
1,1,0.3047,1.5243,-0.6743*
1,1,0.3047,-1.5243,-0.6743*
%
%ADD59ROUNDEDRECTD59*%
G04:AMPARAMS|DCode=60|XSize=3.4032mm|YSize=1.9532mm|CornerRadius=0.1541mm|HoleSize=0mm|Usage=FLASHONLY|Rotation=180.000|XOffset=0mm|YOffset=0mm|HoleType=Round|Shape=RoundedRectangle|*
%AMROUNDEDRECTD60*
21,1,3.4032,1.6450,0,0,180.0*
21,1,3.0950,1.9532,0,0,180.0*
1,1,0.3082,-1.5475,0.8225*
1,1,0.3082,1.5475,0.8225*
1,1,0.3082,1.5475,-0.8225*
1,1,0.3082,-1.5475,-0.8225*
%
%ADD60ROUNDEDRECTD60*%
G04:AMPARAMS|DCode=61|XSize=1.1032mm|YSize=1.9532mm|CornerRadius=0.1511mm|HoleSize=0mm|Usage=FLASHONLY|Rotation=180.000|XOffset=0mm|YOffset=0mm|HoleType=Round|Shape=RoundedRectangle|*
%AMROUNDEDRECTD61*
21,1,1.1032,1.6510,0,0,180.0*
21,1,0.8010,1.9532,0,0,180.0*
1,1,0.3022,-0.4005,0.8255*
1,1,0.3022,0.4005,0.8255*
1,1,0.3022,0.4005,-0.8255*
1,1,0.3022,-0.4005,-0.8255*
%
%ADD61ROUNDEDRECTD61*%
%ADD62R,1.0032X1.1032*%
%ADD63R,0.8332X1.0332*%
%ADD64R,1.7500X1.7500*%
%ADD65C,1.7500*%
%ADD66C,4.2032*%
%ADD67R,1.8400X1.8400*%
%ADD68C,1.8400*%
%ADD69C,1.5406*%
%ADD70R,1.5406X1.5406*%
%ADD71C,2.0000*%
%ADD72R,2.0000X2.0000*%
%ADD73C,1.9032*%
%ADD74R,1.9032X1.9032*%
%ADD75C,1.2000*%
%ADD76R,1.2000X1.2000*%
%ADD77R,2.0000X2.0000*%
%ADD78C,2.5000*%
%ADD79R,2.5000X2.5000*%
%ADD80C,1.0032*%
%ADD81C,2.0032*%
D15*
X71500Y622300D02*
D03*
X131700D02*
D03*
X167006Y385064D02*
D03*
X106806D02*
D03*
D22*
X762000Y107442D02*
D03*
X774700D02*
D03*
X787400D02*
D03*
X800100D02*
D03*
X812800D02*
D03*
X762000Y148142D02*
D03*
X774700D02*
D03*
X787400D02*
D03*
X800100D02*
D03*
X812800D02*
D03*
D23*
X631444Y278543D02*
D03*
Y299561D02*
D03*
X670814Y532035D02*
D03*
Y553052D02*
D03*
X654050Y278543D02*
D03*
Y299561D02*
D03*
X491236Y490822D02*
D03*
Y469805D02*
D03*
X552450Y296766D02*
D03*
Y275749D02*
D03*
X527050Y296766D02*
D03*
Y275749D02*
D03*
X840740Y696533D02*
D03*
Y717550D02*
D03*
X778510Y529241D02*
D03*
Y550258D02*
D03*
X486156Y560419D02*
D03*
Y539402D02*
D03*
D24*
X937452Y179956D02*
D03*
X955802D02*
D03*
X974152D02*
D03*
X937452Y161606D02*
D03*
X955802D02*
D03*
X974152D02*
D03*
X937452Y143256D02*
D03*
X955802D02*
D03*
X974152D02*
D03*
D25*
X888652Y261706D02*
D03*
X901352D02*
D03*
X914052D02*
D03*
X926752D02*
D03*
X939452D02*
D03*
X952152D02*
D03*
X964852D02*
D03*
X977552D02*
D03*
X990252D02*
D03*
X1002952D02*
D03*
D26*
X860802Y86606D02*
D03*
Y99306D02*
D03*
Y112006D02*
D03*
Y124706D02*
D03*
Y137406D02*
D03*
Y150106D02*
D03*
Y162806D02*
D03*
Y175506D02*
D03*
Y188206D02*
D03*
Y200906D02*
D03*
Y213606D02*
D03*
Y226306D02*
D03*
Y239006D02*
D03*
Y251706D02*
D03*
X1030802D02*
D03*
Y239006D02*
D03*
Y226306D02*
D03*
Y213606D02*
D03*
Y200906D02*
D03*
Y188206D02*
D03*
Y175506D02*
D03*
Y162806D02*
D03*
Y150106D02*
D03*
Y137406D02*
D03*
Y124706D02*
D03*
Y112006D02*
D03*
Y99306D02*
D03*
Y86606D02*
D03*
D27*
X821070Y466090D02*
D03*
X806054D02*
D03*
X567070Y503682D02*
D03*
X552054D02*
D03*
X532780Y468884D02*
D03*
X517764D02*
D03*
D28*
X826770Y440570D02*
D03*
Y425570D02*
D03*
D29*
X805847Y397510D02*
D03*
X826864D02*
D03*
X854043Y614172D02*
D03*
X833026D02*
D03*
X568611Y560832D02*
D03*
X589628D02*
D03*
X594171Y493522D02*
D03*
X615188D02*
D03*
X851757Y285750D02*
D03*
X830740D02*
D03*
X797973Y570738D02*
D03*
X818990D02*
D03*
D30*
X855472Y575930D02*
D03*
Y590946D02*
D03*
X836422Y530765D02*
D03*
Y545780D02*
D03*
X731012Y574914D02*
D03*
Y589930D02*
D03*
D31*
X203962Y340486D02*
D03*
Y323470D02*
D03*
D32*
X565562Y480060D02*
D03*
X553562D02*
D03*
X231490Y495300D02*
D03*
X243490D02*
D03*
X371760Y523240D02*
D03*
X359760D02*
D03*
X107600Y529590D02*
D03*
X95600D02*
D03*
D33*
X465328Y459836D02*
D03*
Y471836D02*
D03*
X759206Y598774D02*
D03*
Y610774D02*
D03*
X807466Y541492D02*
D03*
Y529492D02*
D03*
D35*
X597408Y537558D02*
D03*
X606908Y517558D02*
D03*
X587908D02*
D03*
X797814Y614012D02*
D03*
X807314Y594012D02*
D03*
X788314D02*
D03*
D37*
X627126Y136046D02*
D03*
Y155546D02*
D03*
X485902Y601062D02*
D03*
Y581562D02*
D03*
X805434Y421034D02*
D03*
Y440534D02*
D03*
X584200Y155546D02*
D03*
Y136046D02*
D03*
X605663D02*
D03*
Y155546D02*
D03*
D38*
X748030Y299069D02*
D03*
Y280051D02*
D03*
D43*
X710790Y530098D02*
D03*
X691290D02*
D03*
D44*
X538734Y559627D02*
D03*
Y536128D02*
D03*
D45*
X790259Y636016D02*
D03*
X766759D02*
D03*
D48*
X120968Y570230D02*
D03*
X82233D02*
D03*
D49*
X276380Y462280D02*
D03*
X216380D02*
D03*
X419890Y481330D02*
D03*
X359890D02*
D03*
D50*
X1157668Y368650D02*
D03*
Y379650D02*
D03*
Y390650D02*
D03*
Y401650D02*
D03*
Y412650D02*
D03*
Y423650D02*
D03*
Y434650D02*
D03*
Y445650D02*
D03*
D51*
X1152668Y357850D02*
D03*
D52*
X1044868Y357050D02*
D03*
Y486650D02*
D03*
D53*
X1157518Y484450D02*
D03*
D54*
X1032268Y420900D02*
D03*
D55*
X1033018Y463550D02*
D03*
D56*
X516542Y513182D02*
D03*
Y494182D02*
D03*
X536542Y503682D02*
D03*
X751934Y530758D02*
D03*
Y549758D02*
D03*
X731934Y540258D02*
D03*
D57*
X704850Y573506D02*
D03*
Y551206D02*
D03*
X840740Y743230D02*
D03*
Y765530D02*
D03*
D58*
X366890Y549240D02*
D03*
X389890D02*
D03*
X412890D02*
D03*
D59*
X389890Y610740D02*
D03*
D60*
X246520Y583200D02*
D03*
D61*
X269520Y520700D02*
D03*
X246520D02*
D03*
X223520D02*
D03*
D62*
X834034Y631604D02*
D03*
X853034D02*
D03*
X843534Y651604D02*
D03*
D63*
X555778Y585978D02*
D03*
X578078D02*
D03*
X378740Y634492D02*
D03*
X401040D02*
D03*
X234722Y614426D02*
D03*
X257022D02*
D03*
D64*
X1118870Y661670D02*
D03*
D65*
X968870D02*
D03*
D66*
X1170000Y30000D02*
D03*
X600000Y400000D02*
D03*
X30000Y30480D02*
D03*
Y770000D02*
D03*
X1170000D02*
D03*
D67*
X806450Y207010D02*
D03*
Y50800D02*
D03*
D68*
X781050Y207010D02*
D03*
X755650D02*
D03*
X730250D02*
D03*
X704850D02*
D03*
X679450D02*
D03*
X654050D02*
D03*
X628650D02*
D03*
X603250D02*
D03*
X577850D02*
D03*
X552450D02*
D03*
X527050D02*
D03*
Y50800D02*
D03*
X552450D02*
D03*
X577850D02*
D03*
X603250D02*
D03*
X628650D02*
D03*
X654050D02*
D03*
X679450D02*
D03*
X704850D02*
D03*
X730250D02*
D03*
X755650D02*
D03*
X781050D02*
D03*
D69*
X1097661Y209550D02*
D03*
Y111506D02*
D03*
D70*
X1147699Y209550D02*
D03*
Y111506D02*
D03*
D71*
X424790Y710420D02*
D03*
Y760420D02*
D03*
X224790Y710420D02*
D03*
X798580Y760300D02*
D03*
Y734900D02*
D03*
X110490Y319790D02*
D03*
X135890D02*
D03*
X685800Y632710D02*
D03*
X711200D02*
D03*
X566420D02*
D03*
X591820D02*
D03*
D72*
X224790Y760420D02*
D03*
X798580Y709500D02*
D03*
D73*
X543560Y718820D02*
D03*
X627380D02*
D03*
X711200D02*
D03*
X93980D02*
D03*
D74*
X543560Y756920D02*
D03*
X627380D02*
D03*
X711200D02*
D03*
X93980D02*
D03*
D75*
X889000Y702310D02*
D03*
Y727710D02*
D03*
D76*
Y753110D02*
D03*
D77*
X161290Y319790D02*
D03*
X660400Y632710D02*
D03*
X541020D02*
D03*
D78*
X364490Y170180D02*
D03*
X138430D02*
D03*
D79*
X364490Y93980D02*
D03*
X138430D02*
D03*
D80*
X869233Y224646D02*
D03*
X894242Y209091D02*
D03*
X888738Y245191D02*
D03*
X905764Y226759D02*
D03*
X1139952Y465328D02*
D03*
X776478Y279400D02*
D03*
X1168146Y323088D02*
D03*
X1167638Y401574D02*
D03*
X1154684Y461264D02*
D03*
X1145286Y379984D02*
D03*
X953770Y449072D02*
D03*
X882396Y113792D02*
D03*
X834702Y92647D02*
D03*
X847120Y109856D02*
D03*
X837141Y73218D02*
D03*
X877628Y98240D02*
D03*
X675894Y162560D02*
D03*
X743458Y256540D02*
D03*
X596900Y323850D02*
D03*
X799846Y355092D02*
D03*
X805434Y273050D02*
D03*
X667004Y100584D02*
D03*
X717296Y101824D02*
D03*
X705104Y290322D02*
D03*
X817626Y259842D02*
D03*
X615188Y248158D02*
D03*
X589280Y263906D02*
D03*
X539643Y306952D02*
D03*
X498285Y302260D02*
D03*
X566531Y285464D02*
D03*
X508254Y316484D02*
D03*
X615950Y225552D02*
D03*
X1012952Y149606D02*
D03*
X533400Y137668D02*
D03*
X950214Y216846D02*
D03*
X824230Y27940D02*
D03*
X993394Y166624D02*
D03*
X548640Y393192D02*
D03*
X645668Y425958D02*
D03*
X843280Y130065D02*
D03*
X839978Y149495D02*
D03*
X1126045Y295085D02*
D03*
X1116485Y290576D02*
D03*
X897382Y525526D02*
D03*
X899032Y452575D02*
D03*
X870458Y467360D02*
D03*
X514096Y365790D02*
D03*
X1014943Y280203D02*
D03*
X998728Y291466D02*
D03*
X824864Y301181D02*
D03*
X870651Y292291D02*
D03*
X885190D02*
D03*
X863556Y267783D02*
D03*
X1005840Y329501D02*
D03*
X489712Y319024D02*
D03*
X873760Y627126D02*
D03*
X783560Y81395D02*
D03*
X923561Y216028D02*
D03*
X956056Y245166D02*
D03*
X975106Y218885D02*
D03*
X876046Y263906D02*
D03*
X823746Y271740D02*
D03*
X786107Y300228D02*
D03*
X804672Y239014D02*
D03*
X685038Y232156D02*
D03*
X878078Y134240D02*
D03*
X877342Y163840D02*
D03*
X877960Y174362D02*
D03*
X1012952Y213106D02*
D03*
X880237Y193167D02*
D03*
X1012952Y99060D02*
D03*
Y111760D02*
D03*
X595884Y445516D02*
D03*
X629920Y387604D02*
D03*
X667512Y450342D02*
D03*
X689610Y479552D02*
D03*
X873506Y386842D02*
D03*
X846975Y400165D02*
D03*
X870712Y408686D02*
D03*
X1031429Y292291D02*
D03*
X1081786Y311912D02*
D03*
X1103491Y303391D02*
D03*
X1093339Y286138D02*
D03*
X1174496Y241046D02*
D03*
X1129792Y173228D02*
D03*
X669290Y323279D02*
D03*
X662432Y365790D02*
D03*
X718312Y400304D02*
D03*
X756666Y408940D02*
D03*
X1164204Y203596D02*
D03*
X1075971Y198897D02*
D03*
X1079754Y230886D02*
D03*
X1143762Y323596D02*
D03*
X1155700Y340614D02*
D03*
X1050544Y271526D02*
D03*
X934720Y496824D02*
D03*
X918972Y499618D02*
D03*
X851916Y509778D02*
D03*
X766318Y449072D02*
D03*
X748792Y432562D02*
D03*
X695198Y417576D02*
D03*
X425704Y385572D02*
D03*
X499364Y437134D02*
D03*
X900684Y387858D02*
D03*
X637540Y448818D02*
D03*
X872236Y561848D02*
D03*
X1074928Y188214D02*
D03*
X869950Y544068D02*
D03*
X531622Y487680D02*
D03*
X514604Y536956D02*
D03*
X444246Y649732D02*
D03*
X756920Y562102D02*
D03*
X625094Y580898D02*
D03*
X552704Y574548D02*
D03*
D81*
X915572Y418877D02*
D03*
X780288Y337820D02*
D03*
X730378Y118364D02*
D03*
X987044Y337312D02*
D03*
X638540Y371790D02*
D03*
X957326Y489458D02*
D03*
X686181Y398526D02*
D03*
X326644Y544830D02*
D03*
X419862Y350012D02*
D03*
X309372Y331216D02*
D03*
X329184Y406908D02*
D03*
X141986Y498602D02*
D03*
X219710Y393700D02*
D03*
X183388Y550164D02*
D03*
M02*
