G04*
G04 #@! TF.GenerationSoftware,Altium Limited,Altium Designer,22.7.1 (60)*
G04*
G04 Layer_Physical_Order=2*
G04 Layer_Color=16711680*
%FSLAX44Y44*%
%MOMM*%
G71*
G04*
G04 #@! TF.SameCoordinates,0E519C92-87A3-47E9-A83B-F09A3FC6FE1E*
G04*
G04*
G04 #@! TF.FilePolarity,Positive*
G04*
G01*
G75*
%ADD14C,0.2540*%
%ADD23R,1.5082X1.2065*%
%ADD29R,1.2065X1.5082*%
%ADD43R,0.9500X1.4500*%
%ADD64R,1.7500X1.7500*%
%ADD65C,1.7500*%
%ADD67R,1.8400X1.8400*%
%ADD68C,1.8400*%
%ADD69C,1.5406*%
%ADD70R,1.5406X1.5406*%
%ADD71C,2.0000*%
%ADD72R,2.0000X2.0000*%
%ADD75C,1.2000*%
%ADD76R,1.2000X1.2000*%
%ADD77R,2.0000X2.0000*%
%ADD78C,2.5000*%
%ADD79R,2.5000X2.5000*%
%ADD82C,0.2032*%
%ADD83C,0.6350*%
%ADD84C,2.0000*%
%ADD85C,4.0000*%
%ADD86C,1.7000*%
%ADD87R,1.7000X1.7000*%
%ADD88C,0.8000*%
%ADD89C,1.8000*%
%ADD90R,1.4000X1.8000*%
G36*
X76962Y340829D02*
X12707D01*
Y714287D01*
X76962D01*
Y340829D01*
D02*
G37*
%LPC*%
G36*
X65925Y704287D02*
X23549D01*
Y651738D01*
X26724D01*
Y656274D01*
X26789Y656598D01*
X26854Y657311D01*
X26983Y657635D01*
X27113Y657829D01*
X27178Y657894D01*
X27437Y658024D01*
X27890Y658153D01*
X28538Y658218D01*
X61260D01*
X61390D01*
X61649Y658153D01*
X62038Y658024D01*
X62361Y657700D01*
X62426Y657570D01*
X62491Y657440D01*
X62556Y657181D01*
X62621Y656922D01*
X62685Y656533D01*
X62750Y656080D01*
Y651738D01*
X65925D01*
Y671760D01*
X62750D01*
Y667224D01*
X62685Y666965D01*
X62556Y666382D01*
X62491Y666058D01*
X62361Y665864D01*
X62297Y665799D01*
X62038Y665540D01*
X61714Y665345D01*
X61260Y665281D01*
X26789D01*
X65925Y677916D01*
Y680637D01*
X26918Y694309D01*
X56400D01*
X56530D01*
X56789D01*
X57243Y694244D01*
X57826D01*
X59057Y694050D01*
X59640Y693920D01*
X60159Y693726D01*
X60223D01*
X60353Y693596D01*
X60612Y693467D01*
X60871Y693272D01*
X61454Y692754D01*
X62038Y692041D01*
Y691976D01*
X62102Y691847D01*
X62232Y691523D01*
X62361Y691069D01*
X62491Y690486D01*
X62621Y689708D01*
X62750Y688801D01*
X62815Y687635D01*
X65925D01*
Y704287D01*
D02*
G37*
G36*
Y646555D02*
X23549D01*
Y610658D01*
X23549D01*
Y612667D01*
X38582Y611824D01*
Y614805D01*
X38517D01*
X38258Y614870D01*
X37934Y614935D01*
X37480Y614999D01*
X36897Y615129D01*
X36249Y615323D01*
X34824Y615647D01*
X33268Y616166D01*
X31713Y616749D01*
X31001Y617138D01*
X30353Y617462D01*
X29769Y617850D01*
X29251Y618304D01*
X29121Y618433D01*
X28862Y618693D01*
X28474Y619211D01*
X27955Y619859D01*
X27502Y620766D01*
X27113Y621738D01*
X26854Y622904D01*
X26724Y624200D01*
Y632429D01*
X26789Y632688D01*
X26854Y633013D01*
X27113Y633336D01*
X27178Y633401D01*
X27437Y633466D01*
X27826Y633596D01*
X28344Y633660D01*
X42469D01*
Y630291D01*
X42340Y629837D01*
X42210Y629254D01*
X42016Y628606D01*
X41692Y627958D01*
X41238Y627246D01*
X40655Y626598D01*
X40590Y626533D01*
X40266Y626339D01*
X39813Y626079D01*
X39165Y625755D01*
X38258Y625431D01*
X37156Y625172D01*
X35795Y624913D01*
X34176Y624784D01*
Y621673D01*
X54457D01*
Y624784D01*
X54392D01*
X54262D01*
X54003D01*
X53614Y624848D01*
X53225D01*
X52772Y624913D01*
X51670Y625107D01*
X50569Y625302D01*
X49402Y625626D01*
X48366Y626079D01*
X47912Y626339D01*
X47523Y626598D01*
X47459Y626662D01*
X47199Y626922D01*
X46875Y627246D01*
X46551Y627764D01*
X46163Y628412D01*
X45904Y629189D01*
X45644Y630032D01*
X45580Y631069D01*
Y633660D01*
X61454D01*
X61584D01*
X61843Y633596D01*
X62167Y633466D01*
X62426Y633272D01*
X62491Y633207D01*
X62556Y632948D01*
X62621Y632688D01*
X62685Y632429D01*
X62750Y632040D01*
Y624848D01*
X62685Y624395D01*
X62556Y623747D01*
X62361Y622969D01*
X62038Y622062D01*
X61649Y621155D01*
X61066Y620118D01*
X60353Y619146D01*
X59510Y618174D01*
X58409Y617202D01*
X57113Y616295D01*
X55623Y615453D01*
X54781Y615129D01*
X53873Y614740D01*
X52837Y614481D01*
X51800Y614222D01*
X50698Y614027D01*
X49467Y613833D01*
Y610658D01*
X49468D01*
X65925Y611436D01*
Y646555D01*
D02*
G37*
G36*
X66962Y604179D02*
X22707D01*
Y568476D01*
X22707D01*
Y584740D01*
X22772Y584157D01*
X22836Y583444D01*
X22966Y582666D01*
X23096Y581759D01*
X23355Y580787D01*
X23679Y579815D01*
X23744Y579686D01*
X23873Y579362D01*
X24067Y578843D01*
X24391Y578196D01*
X24845Y577418D01*
X25363Y576576D01*
X26011Y575668D01*
X26724Y574761D01*
X22772Y573012D01*
Y570355D01*
X40461Y569513D01*
Y572429D01*
X40396D01*
X40137Y572494D01*
X39748Y572623D01*
X39294Y572753D01*
X38711Y572947D01*
X37998Y573142D01*
X37221Y573401D01*
X36443Y573660D01*
X34759Y574243D01*
X33074Y574891D01*
X32232Y575215D01*
X31454Y575539D01*
X30741Y575928D01*
X30158Y576252D01*
X30093Y576316D01*
X29964Y576446D01*
X29769Y576641D01*
X29510Y576964D01*
X29186Y577353D01*
X28798Y577807D01*
X28020Y578843D01*
X27307Y580139D01*
X26595Y581630D01*
X26335Y582407D01*
X26141Y583185D01*
X26011Y584027D01*
X25947Y584869D01*
Y585323D01*
X26011Y585647D01*
X26076Y586101D01*
X26206Y586554D01*
X26530Y587656D01*
X26724Y588304D01*
X27048Y588952D01*
X27372Y589600D01*
X27826Y590247D01*
X28344Y590960D01*
X28927Y591608D01*
X29640Y592256D01*
X30417Y592839D01*
X30482Y592904D01*
X30612Y592969D01*
X30871Y593098D01*
X31260Y593293D01*
X31778Y593552D01*
X32426Y593811D01*
X33139Y594070D01*
X33981Y594394D01*
X35018Y594654D01*
X36119Y594978D01*
X37415Y595237D01*
X38776Y595431D01*
X40331Y595690D01*
X42016Y595820D01*
X43830Y595885D01*
X45774Y595950D01*
X45904D01*
X46163D01*
X46616D01*
X47264Y595885D01*
X48042Y595820D01*
X48884Y595755D01*
X49856Y595625D01*
X50958Y595496D01*
X53161Y595107D01*
X55493Y594459D01*
X56595Y594006D01*
X57696Y593552D01*
X58733Y593034D01*
X59640Y592386D01*
X59705Y592321D01*
X59834Y592256D01*
X60029Y592062D01*
X60223Y591803D01*
X60547Y591543D01*
X60871Y591155D01*
X61195Y590701D01*
X61584Y590183D01*
X62297Y588952D01*
X62945Y587526D01*
X63139Y586684D01*
X63334Y585841D01*
X63463Y584869D01*
X63528Y583898D01*
Y583444D01*
X63463Y583120D01*
Y582731D01*
X63334Y582213D01*
X63139Y581111D01*
X62750Y579880D01*
X62232Y578520D01*
X61454Y577224D01*
X61001Y576576D01*
X60483Y575928D01*
X60418Y575863D01*
X60353Y575798D01*
X60159Y575604D01*
X59899Y575409D01*
X59575Y575150D01*
X59122Y574826D01*
X58668Y574502D01*
X58085Y574178D01*
X57437Y573789D01*
X56724Y573465D01*
X55882Y573077D01*
X54975Y572753D01*
X54003Y572364D01*
X52966Y572105D01*
X51800Y571846D01*
X50569Y571586D01*
Y568476D01*
X50634D01*
X50958Y568541D01*
X51346Y568606D01*
X51929Y568671D01*
X52577Y568800D01*
X53355Y568995D01*
X54262Y569189D01*
X55169Y569448D01*
X57178Y570161D01*
X58215Y570550D01*
X59251Y571068D01*
X60223Y571651D01*
X61195Y572234D01*
X62038Y572947D01*
X62880Y573725D01*
X62945Y573789D01*
X63074Y573919D01*
X63269Y574178D01*
X63528Y574502D01*
X63852Y574956D01*
X64176Y575474D01*
X64565Y576057D01*
X64889Y576705D01*
X65277Y577483D01*
X65666Y578325D01*
X65990Y579232D01*
X66314Y580204D01*
X66573Y581176D01*
X66768Y582278D01*
X66897Y583444D01*
X66962Y584675D01*
Y585194D01*
X66897Y585582D01*
Y586036D01*
X66832Y586619D01*
X66768Y587202D01*
X66638Y587915D01*
X66314Y589405D01*
X65861Y591025D01*
X65212Y592775D01*
X64305Y594459D01*
X64241Y594524D01*
X64176Y594654D01*
X64046Y594913D01*
X63787Y595172D01*
X63528Y595561D01*
X63204Y596014D01*
X62361Y597051D01*
X61260Y598153D01*
X59964Y599319D01*
X58409Y600485D01*
X56660Y601587D01*
X56595D01*
X56400Y601716D01*
X56141Y601846D01*
X55752Y601976D01*
X55299Y602170D01*
X54781Y602429D01*
X54132Y602623D01*
X53420Y602883D01*
X52642Y603142D01*
X51800Y603336D01*
X49921Y603790D01*
X47912Y604049D01*
X45709Y604179D01*
X66962D01*
Y604179D01*
D02*
G37*
G36*
X65925Y566403D02*
X22707D01*
Y523249D01*
X22707D01*
Y543206D01*
X60806Y528238D01*
X60871Y528173D01*
X61130Y528109D01*
X61390Y527914D01*
X61778Y527590D01*
X62102Y527137D01*
X62426Y526618D01*
X62685Y525970D01*
X62750Y525128D01*
Y523249D01*
X65925D01*
Y540873D01*
X62750D01*
Y538217D01*
X62685Y537698D01*
X62556Y536597D01*
X62426Y536079D01*
X62297Y535690D01*
X62232Y535625D01*
X62102Y535431D01*
X61843Y535301D01*
X61519Y535236D01*
X61454D01*
X61260D01*
X60936Y535301D01*
X60483Y535431D01*
X52318Y538670D01*
Y554156D01*
X56983Y555971D01*
X57048D01*
X57308Y556100D01*
X57632Y556165D01*
X58085Y556295D01*
X59057Y556554D01*
X59510Y556619D01*
X59964Y556684D01*
X60029D01*
X60159D01*
X60353Y556619D01*
X60677Y556554D01*
X60936Y556424D01*
X61325Y556230D01*
X61649Y555971D01*
X61973Y555582D01*
Y555517D01*
X62102Y555388D01*
X62232Y555128D01*
X62361Y554740D01*
X62491Y554286D01*
X62621Y553703D01*
X62685Y553055D01*
X62750Y552277D01*
Y550269D01*
X65925D01*
Y566403D01*
D02*
G37*
G36*
Y522277D02*
X23549D01*
Y485862D01*
X23549D01*
Y486769D01*
X40266Y485862D01*
X40266D01*
Y488908D01*
X40202D01*
X40137D01*
X39942Y488972D01*
X39683D01*
X38970Y489167D01*
X38128Y489296D01*
X37091Y489556D01*
X35925Y489944D01*
X34629Y490333D01*
X33333Y490787D01*
X32102Y491370D01*
X30806Y492082D01*
X29640Y492860D01*
X28603Y493702D01*
X27761Y494674D01*
X27048Y495776D01*
X26789Y496424D01*
X26595Y497007D01*
X26530Y497655D01*
X26465Y498368D01*
Y498821D01*
X26530Y499080D01*
X26659Y499728D01*
X26789Y499987D01*
X26918Y500182D01*
X26983Y500247D01*
X27242Y500376D01*
X27696Y500506D01*
X28344Y500571D01*
X61325D01*
X61454D01*
X61778Y500506D01*
X62102Y500376D01*
X62426Y500182D01*
X62491Y500117D01*
X62556Y499858D01*
X62685Y499404D01*
X62750Y499080D01*
Y493897D01*
X65925D01*
Y514243D01*
X62750D01*
Y508865D01*
X62685Y508605D01*
X62621Y508281D01*
X62491Y507957D01*
X62426Y507893D01*
X62232Y507763D01*
X61973Y507633D01*
X61584Y507569D01*
X28085D01*
X28020D01*
X27955D01*
X27631Y507633D01*
X27242Y507763D01*
X26918Y508087D01*
X26854Y508152D01*
X26659Y508476D01*
X26530Y508929D01*
X26465Y509318D01*
Y510096D01*
X26530Y510355D01*
X26659Y511003D01*
X26918Y511910D01*
X27372Y512882D01*
X28020Y513918D01*
X28409Y514502D01*
X28862Y515020D01*
X29446Y515474D01*
X30093Y515992D01*
X30158D01*
X30223Y516057D01*
X30417Y516186D01*
X30677Y516316D01*
X31001Y516510D01*
X31454Y516705D01*
X31908Y516964D01*
X32491Y517158D01*
X33139Y517417D01*
X33916Y517677D01*
X34759Y518001D01*
X35666Y518260D01*
X36703Y518519D01*
X37804Y518713D01*
X38970Y518973D01*
X40266Y519167D01*
Y522277D01*
X65925D01*
Y522277D01*
D02*
G37*
G36*
X66314Y483530D02*
X23549D01*
Y443486D01*
X23549D01*
Y460981D01*
X23614Y460592D01*
Y460009D01*
X23679Y459426D01*
X23808Y458713D01*
X23938Y457935D01*
X24262Y456380D01*
X24780Y454696D01*
X25558Y453076D01*
X26011Y452298D01*
X26530Y451585D01*
X26595Y451521D01*
X26659Y451456D01*
X26854Y451261D01*
X27048Y451002D01*
X27696Y450419D01*
X28603Y449771D01*
X29705Y449123D01*
X31065Y448540D01*
X32620Y448086D01*
X33398Y448022D01*
X34305Y447957D01*
X34435D01*
X34824D01*
X35342Y448022D01*
X36055Y448151D01*
X36832Y448346D01*
X37739Y448605D01*
X38582Y448929D01*
X39489Y449447D01*
X39618Y449512D01*
X39878Y449706D01*
X40266Y450030D01*
X40785Y450484D01*
X41368Y451067D01*
X41951Y451780D01*
X42599Y452622D01*
X43117Y453594D01*
X43182Y453724D01*
X43312Y454112D01*
X43571Y454696D01*
X43830Y455538D01*
X44089Y456639D01*
X44348Y458000D01*
X44543Y459555D01*
X44737Y461370D01*
Y461175D01*
X44802Y460981D01*
Y460786D01*
X44867Y460074D01*
X45061Y459296D01*
X45256Y458389D01*
X45450Y457482D01*
X45774Y456704D01*
X46163Y455991D01*
X46227Y455927D01*
X46357Y455732D01*
X46616Y455408D01*
X46940Y455084D01*
X47329Y454631D01*
X47847Y454242D01*
X48366Y453853D01*
X49014Y453464D01*
X49078Y453400D01*
X49338Y453270D01*
X49856Y453076D01*
X50504Y452817D01*
X51476Y452492D01*
X51994Y452363D01*
X52642Y452169D01*
X53355Y451974D01*
X54132Y451780D01*
X54975Y451521D01*
X55882Y451326D01*
X55947D01*
X56012Y451261D01*
X56206D01*
X56465Y451197D01*
X57113Y451002D01*
X57826Y450808D01*
X58668Y450549D01*
X59446Y450289D01*
X60159Y449966D01*
X60677Y449641D01*
X60806Y449512D01*
X61066Y449253D01*
X61325Y448929D01*
X61390Y448734D01*
X61454Y448540D01*
Y448475D01*
X61325Y448216D01*
X61195Y448022D01*
X61001Y447827D01*
X60742Y447633D01*
X60418Y447374D01*
X60353D01*
X60159Y447244D01*
X59899Y447179D01*
X59381Y447050D01*
X58798Y446855D01*
X57955Y446726D01*
X56919Y446596D01*
X55688Y446531D01*
Y443486D01*
X55817D01*
X56141Y443551D01*
X56660Y443615D01*
X57372Y443680D01*
X58150Y443810D01*
X59057Y444069D01*
X60029Y444328D01*
X61001Y444652D01*
X61973Y445106D01*
X62945Y445624D01*
X63852Y446207D01*
X64629Y446985D01*
X65342Y447827D01*
X65861Y448799D01*
X66185Y449901D01*
X66314Y451132D01*
Y451521D01*
X66249Y451909D01*
X66185Y452428D01*
X66055Y453076D01*
X65861Y453724D01*
X65601Y454372D01*
X65212Y455019D01*
X65148Y455084D01*
X65018Y455279D01*
X64759Y455538D01*
X64435Y455927D01*
X63981Y456315D01*
X63463Y456704D01*
X62880Y457028D01*
X62167Y457352D01*
X62102D01*
X61778Y457482D01*
X61519Y457547D01*
X61260Y457611D01*
X60871Y457676D01*
X60418Y457806D01*
X59964Y457935D01*
X59316Y458000D01*
X58668Y458130D01*
X57891Y458259D01*
X57048Y458389D01*
X56076Y458583D01*
X55040Y458713D01*
X53873Y458842D01*
X53809D01*
X53744D01*
X53549Y458907D01*
X53290D01*
X52642Y459037D01*
X51929Y459166D01*
X51087Y459296D01*
X50245Y459555D01*
X49532Y459750D01*
X48884Y460074D01*
X48819Y460138D01*
X48625Y460203D01*
X48366Y460462D01*
X48042Y460722D01*
X47718Y461110D01*
X47264Y461564D01*
X46940Y462082D01*
X46551Y462730D01*
X46487Y462795D01*
X46422Y463054D01*
X46292Y463443D01*
X46098Y463896D01*
X45904Y464544D01*
X45774Y465257D01*
X45709Y466100D01*
X45644Y467007D01*
Y469793D01*
X61325D01*
X61454D01*
X61714Y469728D01*
X62102Y469663D01*
X62361Y469534D01*
X62426Y469404D01*
X62556Y469145D01*
X62685Y468562D01*
X62750Y468238D01*
Y463248D01*
X65925D01*
Y483530D01*
X66314D01*
Y483530D01*
D02*
G37*
G36*
X66962Y439728D02*
X22707D01*
X22707Y400267D01*
X22707D01*
X22707Y419900D01*
X22772Y419512D01*
Y418993D01*
X22836Y418475D01*
X22966Y417827D01*
X23031Y417114D01*
X23419Y415559D01*
X23938Y413874D01*
X24586Y412060D01*
X25039Y411218D01*
X25558Y410311D01*
Y410246D01*
X25687Y410116D01*
X25882Y409857D01*
X26076Y409533D01*
X26400Y409144D01*
X26724Y408691D01*
X27631Y407589D01*
X28733Y406423D01*
X30094Y405192D01*
X31649Y404025D01*
X33463Y402924D01*
X33528D01*
X33722Y402794D01*
X33981Y402665D01*
X34370Y402535D01*
X34824Y402276D01*
X35407Y402082D01*
X36055Y401823D01*
X36767Y401563D01*
X37545Y401369D01*
X38452Y401110D01*
X40331Y400656D01*
X42469Y400397D01*
X44737Y400267D01*
X45385D01*
X45839Y400332D01*
X46357D01*
X47005Y400397D01*
X47718Y400462D01*
X48560Y400591D01*
X50310Y400915D01*
X52253Y401434D01*
X54262Y402082D01*
X56206Y402989D01*
X56271D01*
X56400Y403118D01*
X56660Y403248D01*
X57048Y403442D01*
X57437Y403766D01*
X57955Y404090D01*
X59057Y404868D01*
X60353Y405969D01*
X61649Y407201D01*
X62945Y408626D01*
X64111Y410311D01*
Y410376D01*
X64241Y410505D01*
X64370Y410764D01*
X64565Y411088D01*
X64759Y411542D01*
X65018Y412060D01*
X65277Y412643D01*
X65536Y413291D01*
X66055Y414782D01*
X66508Y416466D01*
X66832Y418280D01*
X66897Y419253D01*
X66962Y420224D01*
Y420743D01*
X66897Y421067D01*
Y421520D01*
X66832Y422103D01*
X66703Y422687D01*
X66638Y423335D01*
X66249Y424825D01*
X65796Y426445D01*
X65083Y428129D01*
X64694Y429037D01*
X64176Y429879D01*
X64111Y429944D01*
X64046Y430073D01*
X63852Y430332D01*
X63657Y430592D01*
X63398Y430980D01*
X63010Y431434D01*
X62102Y432471D01*
X61001Y433572D01*
X59640Y434803D01*
X58020Y435970D01*
X56206Y437071D01*
X56141D01*
X55947Y437201D01*
X55688Y437330D01*
X55299Y437460D01*
X54781Y437654D01*
X54197Y437914D01*
X53549Y438173D01*
X52837Y438367D01*
X51994Y438626D01*
X51087Y438885D01*
X49143Y439339D01*
X47005Y439598D01*
X44672Y439728D01*
X66962D01*
Y439728D01*
D02*
G37*
G36*
X65925Y395149D02*
X23549D01*
Y350829D01*
X26724D01*
Y351736D01*
X26789Y352254D01*
X26983Y353485D01*
X27113Y354003D01*
X27307Y354457D01*
Y354522D01*
X27437Y354587D01*
X27566Y354781D01*
X27761Y355040D01*
X28020Y355299D01*
X28344Y355559D01*
X28798Y355882D01*
X29316Y356142D01*
X29381D01*
X29575Y356271D01*
X29899Y356336D01*
X30288Y356466D01*
X30741Y356595D01*
X31325Y356725D01*
X31908Y356790D01*
X32556Y356855D01*
X65925D01*
Y360289D01*
X32232Y385235D01*
X56530D01*
X56595D01*
X56660D01*
X57048D01*
X57632Y385170D01*
X58280Y385041D01*
X59057Y384846D01*
X59835Y384587D01*
X60612Y384263D01*
X61260Y383745D01*
X61325Y383680D01*
X61519Y383421D01*
X61714Y383032D01*
X62038Y382449D01*
X62297Y381736D01*
X62556Y380764D01*
X62750Y379598D01*
X62815Y378237D01*
X65925D01*
Y395149D01*
D02*
G37*
%LPD*%
G36*
X62815Y704093D02*
X62750Y703899D01*
Y703640D01*
X62685Y702927D01*
X62556Y702149D01*
X62361Y701242D01*
X62102Y700400D01*
X61714Y699622D01*
X61519Y699298D01*
X61325Y699039D01*
X61260Y698974D01*
X61066Y698845D01*
X60742Y698650D01*
X60288Y698391D01*
X59640Y698197D01*
X58863Y698002D01*
X57891Y697873D01*
X56724Y697808D01*
X28214D01*
X28150D01*
X28085D01*
X27761Y697873D01*
X27437Y698002D01*
X27113Y698261D01*
X27048Y698326D01*
X26983Y698456D01*
X26918Y698650D01*
X26854Y698974D01*
X26789Y699298D01*
X26724Y699752D01*
Y704287D01*
X62815D01*
Y704093D01*
D02*
G37*
G36*
X56141Y677721D02*
X23549Y666836D01*
Y689579D01*
X56141Y677721D01*
D02*
G37*
G36*
X62750Y642732D02*
X62685Y642408D01*
X62556Y641760D01*
X62491Y641501D01*
X62361Y641242D01*
X62297Y641177D01*
X62038Y640982D01*
X61649Y640788D01*
X61066Y640723D01*
X28344D01*
X28279D01*
X28214D01*
X27890Y640788D01*
X27437Y640918D01*
X27113Y641177D01*
X27048Y641242D01*
X26918Y641501D01*
X26789Y641954D01*
X26724Y642602D01*
Y646555D01*
X62750D01*
Y642732D01*
D02*
G37*
G36*
X44608Y604114D02*
X44089D01*
X43441Y604049D01*
X42664Y603984D01*
X41886Y603854D01*
X40072Y603531D01*
X38063Y603077D01*
X35990Y602429D01*
X33916Y601522D01*
X33852Y601457D01*
X33657Y601392D01*
X33398Y601263D01*
X33009Y601003D01*
X32556Y600744D01*
X31972Y600420D01*
X30806Y599643D01*
X29446Y598606D01*
X28020Y597440D01*
X26724Y596079D01*
X26141Y595302D01*
X25558Y594524D01*
X25493Y594459D01*
X25428Y594330D01*
X25299Y594070D01*
X25104Y593746D01*
X24910Y593358D01*
X24651Y592904D01*
X24391Y592321D01*
X24132Y591738D01*
X23614Y590312D01*
X23160Y588757D01*
X22836Y587008D01*
X22707Y586101D01*
Y604179D01*
X45061D01*
X44608Y604114D01*
D02*
G37*
G36*
X62750Y565949D02*
X62685Y565496D01*
X62621Y564912D01*
X62361Y563617D01*
X62167Y562969D01*
X61843Y562450D01*
X61778Y562385D01*
X61649Y562256D01*
X61390Y561997D01*
X61001Y561673D01*
X60483Y561284D01*
X59834Y560895D01*
X59057Y560442D01*
X58085Y560053D01*
X22707Y545992D01*
Y566403D01*
X62750D01*
Y565949D01*
D02*
G37*
G36*
X49014Y539707D02*
X31778Y546316D01*
X49014Y553055D01*
Y539707D01*
D02*
G37*
G36*
X23549Y521370D02*
Y522277D01*
X40266D01*
X23549Y521370D01*
D02*
G37*
G36*
X62750Y478540D02*
X62685Y478281D01*
X62621Y477763D01*
X62556Y477504D01*
X62426Y477309D01*
X62361Y477244D01*
X62167Y477050D01*
X61778Y476920D01*
X61325Y476856D01*
X28279D01*
X28214D01*
X28150D01*
X27826Y476920D01*
X27437Y477050D01*
X27113Y477374D01*
X27048Y477439D01*
X26918Y477763D01*
X26789Y478216D01*
X26724Y478929D01*
Y483530D01*
X62750D01*
Y478540D01*
D02*
G37*
G36*
X42534Y464739D02*
X42469Y464350D01*
Y463896D01*
X42340Y462795D01*
X42145Y461629D01*
X41821Y460397D01*
X41433Y459231D01*
X40849Y458195D01*
X40785Y458065D01*
X40525Y457806D01*
X40072Y457352D01*
X39424Y456834D01*
X38582Y456380D01*
X37480Y455927D01*
X36184Y455667D01*
X34629Y455538D01*
X34564D01*
X34499D01*
X34111D01*
X33528Y455603D01*
X32880Y455667D01*
X32102Y455797D01*
X31260Y455927D01*
X30482Y456186D01*
X29769Y456510D01*
X29705Y456575D01*
X29510Y456704D01*
X29186Y456899D01*
X28798Y457223D01*
X28409Y457547D01*
X28020Y458000D01*
X27631Y458518D01*
X27372Y459102D01*
Y459166D01*
X27242Y459426D01*
X27178Y459879D01*
X27048Y460462D01*
X26918Y461370D01*
X26854Y461888D01*
Y462471D01*
X26789Y463119D01*
X26724Y463832D01*
Y466553D01*
X26789Y467201D01*
Y467849D01*
X26854Y468432D01*
X26983Y468951D01*
X27113Y469274D01*
X27178Y469339D01*
X27372Y469534D01*
X27696Y469728D01*
X28214Y469793D01*
X42534D01*
Y464739D01*
D02*
G37*
G36*
X43636Y439663D02*
X43117D01*
X42469Y439598D01*
X41757Y439533D01*
X40979Y439404D01*
X39230Y439080D01*
X37350Y438626D01*
X35407Y437978D01*
X33528Y437136D01*
X33463D01*
X33333Y437006D01*
X33009Y436877D01*
X32685Y436682D01*
X32297Y436423D01*
X31778Y436099D01*
X30612Y435257D01*
X29381Y434220D01*
X28085Y432989D01*
X26789Y431564D01*
X25623Y429944D01*
X25558Y429879D01*
X25493Y429749D01*
X25363Y429490D01*
X25169Y429166D01*
X24975Y428713D01*
X24715Y428194D01*
X24456Y427676D01*
X24132Y427028D01*
X23614Y425602D01*
X23160Y423983D01*
X22836Y422233D01*
X22707Y421326D01*
Y439728D01*
X44089D01*
X43636Y439663D01*
D02*
G37*
G36*
X46422Y431434D02*
X47329Y431369D01*
X48366Y431304D01*
X49467Y431240D01*
X50634Y431110D01*
X53161Y430721D01*
X55623Y430073D01*
X56789Y429749D01*
X57891Y429296D01*
X58863Y428777D01*
X59705Y428194D01*
X59770Y428129D01*
X59899Y428065D01*
X60094Y427870D01*
X60353Y427611D01*
X60612Y427287D01*
X61001Y426898D01*
X61714Y425926D01*
X62426Y424760D01*
X63074Y423399D01*
X63334Y422622D01*
X63528Y421844D01*
X63657Y421002D01*
X63722Y420095D01*
Y419512D01*
X63593Y418928D01*
X63463Y418151D01*
X63269Y417244D01*
X62945Y416207D01*
X62491Y415235D01*
X61908Y414263D01*
X61843Y414134D01*
X61584Y413810D01*
X61130Y413356D01*
X60483Y412773D01*
X59640Y412125D01*
X58668Y411412D01*
X57437Y410764D01*
X56012Y410116D01*
X55947D01*
X55817Y410051D01*
X55558Y409987D01*
X55234Y409857D01*
X54845Y409728D01*
X54392Y409598D01*
X53809Y409468D01*
X53096Y409274D01*
X52383Y409144D01*
X51606Y409015D01*
X50698Y408885D01*
X49727Y408756D01*
X48690Y408626D01*
X47588Y408561D01*
X46422Y408496D01*
X45191D01*
X45126D01*
X44867D01*
X44478D01*
X43960D01*
X43376Y408561D01*
X42664D01*
X41886Y408626D01*
X41044Y408691D01*
X39230Y408885D01*
X37286Y409144D01*
X35471Y409468D01*
X34629Y409728D01*
X33852Y409987D01*
X33787D01*
X33657Y410051D01*
X33463Y410116D01*
X33204Y410246D01*
X32491Y410570D01*
X31584Y411088D01*
X30612Y411671D01*
X29640Y412384D01*
X28668Y413162D01*
X27890Y414134D01*
X27826Y414263D01*
X27566Y414587D01*
X27242Y415106D01*
X26918Y415818D01*
X26530Y416725D01*
X26270Y417697D01*
X26011Y418799D01*
X25947Y419965D01*
Y420484D01*
X26011Y420807D01*
X26076Y421261D01*
X26206Y421780D01*
X26465Y422946D01*
X26983Y424242D01*
X27372Y424954D01*
X27761Y425667D01*
X28279Y426315D01*
X28862Y427028D01*
X29510Y427676D01*
X30288Y428324D01*
X30353Y428389D01*
X30482Y428453D01*
X30741Y428583D01*
X31130Y428842D01*
X31584Y429037D01*
X32167Y429296D01*
X32880Y429620D01*
X33722Y429879D01*
X34629Y430203D01*
X35731Y430462D01*
X36897Y430786D01*
X38193Y430980D01*
X39618Y431175D01*
X41174Y431369D01*
X42858Y431434D01*
X44672Y431499D01*
X44802D01*
X45126D01*
X45709D01*
X46422Y431434D01*
D02*
G37*
G36*
X62815Y395019D02*
X62750Y394630D01*
X62685Y394047D01*
X62556Y393334D01*
X62297Y392557D01*
X61973Y391779D01*
X61584Y391002D01*
X61001Y390354D01*
X60936Y390289D01*
X60677Y390094D01*
X60353Y389835D01*
X59835Y389511D01*
X59251Y389252D01*
X58539Y388993D01*
X57761Y388799D01*
X56919Y388734D01*
X29186D01*
X28992Y388928D01*
X28927Y388993D01*
X28733Y389187D01*
X28474Y389447D01*
X28150Y389706D01*
X27761Y390094D01*
X27502Y390419D01*
X27243Y390678D01*
X27113Y390937D01*
X27048Y391067D01*
X26918Y391455D01*
X26789Y391974D01*
X26724Y392751D01*
Y395149D01*
X62815D01*
Y395019D01*
D02*
G37*
G36*
X55947Y360353D02*
X33074D01*
X33009D01*
X32945D01*
X32556D01*
X31972Y360418D01*
X31195Y360548D01*
X30417Y360742D01*
X29640Y361001D01*
X28862Y361325D01*
X28214Y361844D01*
X28150Y361908D01*
X28020Y362103D01*
X27761Y362427D01*
X27502Y362881D01*
X27243Y363528D01*
X26983Y364306D01*
X26789Y365278D01*
X26724Y366379D01*
X23549D01*
Y384457D01*
X55947Y360353D01*
D02*
G37*
D14*
X30000Y30480D02*
Y53020D01*
Y30480D02*
X52540D01*
X110490Y319790D02*
Y332330D01*
Y307250D02*
Y319790D01*
X97950D02*
X110490D01*
X309372Y319676D02*
Y331216D01*
X297832D02*
X309372D01*
X320912D01*
X309372D02*
Y342756D01*
X419862Y338472D02*
Y350012D01*
X431402D01*
X408322D02*
X419862D01*
Y361552D01*
X591510Y50800D02*
X603250D01*
Y39060D02*
Y50800D01*
X614990D01*
X603250D02*
Y62540D01*
X654050Y50800D02*
Y62540D01*
Y50800D02*
X665790D01*
X642310D02*
X654050D01*
X566531Y278925D02*
Y285464D01*
X559991D02*
X566531D01*
X638540Y360250D02*
Y371790D01*
X531622Y487680D02*
Y494220D01*
X93980Y707780D02*
Y718820D01*
X105020D01*
X82940D02*
X93980D01*
Y729860D01*
X30000Y747460D02*
Y770000D01*
X52540D01*
X326644Y533290D02*
Y544830D01*
X315104D02*
X326644D01*
X338184D01*
X326644D02*
Y556370D01*
X444246Y643192D02*
Y649732D01*
X450786D01*
X444246D02*
Y656272D01*
X437706Y649732D02*
X444246D01*
X600000Y377460D02*
Y400000D01*
X622540D01*
X531622Y487680D02*
X538162D01*
X627000Y371790D02*
X638540D01*
Y383330D01*
Y371790D02*
X650080D01*
X674641Y398526D02*
X686181D01*
X625094Y574358D02*
Y580898D01*
X618554D02*
X625094D01*
X631634D01*
X625094D02*
Y587438D01*
X591820Y620170D02*
Y632710D01*
X604360D01*
X591820D02*
Y645250D01*
X835312Y172466D02*
X843884D01*
X834803Y191262D02*
X843376D01*
X834803D02*
Y201343D01*
X993394Y160084D02*
Y166624D01*
X999934D01*
X986854D02*
X993394D01*
Y173164D01*
X827501Y225806D02*
X836074D01*
Y215725D02*
Y225806D01*
X844646D01*
X836074D02*
Y235887D01*
X831804Y244746D02*
Y256286D01*
X841344D01*
X1050956Y111506D02*
X1060496D01*
X1137456D02*
X1147699D01*
X1060496Y99966D02*
Y111506D01*
Y123046D01*
Y111506D02*
X1070036D01*
X1147699D02*
Y121749D01*
X1147460Y30000D02*
X1170000D01*
Y52540D01*
X1147699Y101263D02*
Y111506D01*
X1157942D01*
X1147699Y199307D02*
Y209550D01*
X1137456D02*
X1147699D01*
Y219793D01*
X686181Y386986D02*
Y398526D01*
X697721D01*
X711200Y620170D02*
Y632710D01*
Y645250D01*
Y632710D02*
X723740D01*
X750380Y562102D02*
X756920D01*
Y555562D02*
Y562102D01*
X763460D01*
X756920D02*
Y568642D01*
X873760Y627126D02*
X880300D01*
X873760Y620586D02*
Y627126D01*
X867220D02*
X873760D01*
Y633666D01*
X786040Y760300D02*
X798580D01*
Y772840D01*
Y760300D02*
X811120D01*
X1147460Y770000D02*
X1170000D01*
Y747460D02*
Y770000D01*
X839470Y61807D02*
Y64501D01*
X844951Y69983D02*
Y74632D01*
X839470Y64501D02*
X844951Y69983D01*
Y74632D02*
X854586Y84266D01*
X863654D02*
X877628Y98240D01*
X854586Y84266D02*
X863654D01*
X825516Y109856D02*
X847120D01*
X667004Y100584D02*
X678180Y89408D01*
X717076Y101604D02*
X717296Y101824D01*
X717076Y94014D02*
Y101604D01*
X712470Y89408D02*
X717076Y94014D01*
X678180Y89408D02*
X712470D01*
X797056Y81395D02*
X825516Y109856D01*
X852919Y275593D02*
X863732D01*
X870618Y275591D02*
X874492Y271716D01*
X863732Y275593D02*
X863734Y275591D01*
X849067Y271740D02*
X852919Y275593D01*
X863734Y275591D02*
X870618D01*
X783560Y81395D02*
X797056D01*
X921822Y245166D02*
X956056D01*
X921004Y244348D02*
X921822Y245166D01*
X887730Y257048D02*
X908304D01*
X921004Y244348D01*
X887730Y257048D02*
Y263267D01*
X879281Y271716D02*
X887730Y263267D01*
X874492Y271716D02*
X879281D01*
X823746Y271740D02*
X849067D01*
D23*
X1000760Y116173D02*
D03*
Y95155D02*
D03*
D29*
X836074Y225806D02*
D03*
X857091D02*
D03*
X856329Y172466D02*
D03*
X835312D02*
D03*
X855820Y191262D02*
D03*
X834803D02*
D03*
D43*
X1139092Y445262D02*
D03*
X1158592D02*
D03*
X1139092Y423249D02*
D03*
X1158592D02*
D03*
X1139092Y401320D02*
D03*
X1158592D02*
D03*
X1114200Y378968D02*
D03*
X1133700D02*
D03*
D64*
X1118870Y661670D02*
D03*
D65*
X968870D02*
D03*
D67*
X806450Y207010D02*
D03*
Y50800D02*
D03*
D68*
X781050Y207010D02*
D03*
X755650D02*
D03*
X730250D02*
D03*
X704850D02*
D03*
X679450D02*
D03*
X654050D02*
D03*
X628650D02*
D03*
X603250D02*
D03*
X577850D02*
D03*
X552450D02*
D03*
X527050D02*
D03*
Y50800D02*
D03*
X552450D02*
D03*
X577850D02*
D03*
X603250D02*
D03*
X628650D02*
D03*
X654050D02*
D03*
X679450D02*
D03*
X704850D02*
D03*
X730250D02*
D03*
X755650D02*
D03*
X781050D02*
D03*
D69*
X1097661Y209550D02*
D03*
Y111506D02*
D03*
D70*
X1147699Y209550D02*
D03*
Y111506D02*
D03*
D71*
X424790Y710420D02*
D03*
Y760420D02*
D03*
X224790Y710420D02*
D03*
X798580Y760300D02*
D03*
Y734900D02*
D03*
X110490Y319790D02*
D03*
X135890D02*
D03*
X685800Y632710D02*
D03*
X711200D02*
D03*
X566420D02*
D03*
X591820D02*
D03*
D72*
X224790Y760420D02*
D03*
X798580Y709500D02*
D03*
D75*
X889000Y702310D02*
D03*
Y727710D02*
D03*
D76*
Y753110D02*
D03*
D77*
X161290Y319790D02*
D03*
X660400Y632710D02*
D03*
X541020D02*
D03*
D78*
X364490Y170180D02*
D03*
X138430D02*
D03*
D79*
X364490Y93980D02*
D03*
X138430D02*
D03*
D82*
X53556Y30480D02*
G03*
X10000Y42925I-23556J0D01*
G01*
X41638Y10000D02*
G03*
X53556Y30480I-11638J20480D01*
G01*
X65598Y84394D02*
G03*
X75184Y80424I9586J9586D01*
G01*
X65598Y84394D02*
G03*
X75184Y80424I9586J9586D01*
G01*
X49690Y105918D02*
G03*
X53660Y96332I13556J0D01*
G01*
X49690Y105918D02*
G03*
X53660Y96332I13556J0D01*
G01*
Y179512D02*
G03*
X49690Y169926I9586J-9586D01*
G01*
X53660Y179512D02*
G03*
X49690Y169926I9586J-9586D01*
G01*
X448183Y36322D02*
G03*
X450163Y31554I6731J0D01*
G01*
X448183Y36322D02*
G03*
X450154Y31562I6731J0D01*
G01*
X468243Y13474D02*
G03*
X473011Y11494I4768J4751D01*
G01*
X468251Y13465D02*
G03*
X473011Y11494I4760J4760D01*
G01*
X355886Y156624D02*
G03*
X380546Y170180I8604J13556D01*
G01*
X147034Y183736D02*
G03*
X147034Y156624I-8604J-13556D01*
G01*
X380546Y170180D02*
G03*
X355886Y183736I-16056J0D01*
G01*
X123190Y324531D02*
G03*
X122334Y313196I-12700J-4741D01*
G01*
X147734Y326384D02*
G03*
X123190Y324531I-11844J-6594D01*
G01*
X147734Y326384D02*
G03*
X123190Y324531I-11844J-6594D01*
G01*
X145476Y232984D02*
G03*
X149446Y242570I-9586J9586D01*
G01*
X145476Y232984D02*
G03*
X149446Y242570I-9586J9586D01*
G01*
X321928Y331216D02*
G03*
X321928Y331216I-12556J0D01*
G01*
X432418Y350012D02*
G03*
X432418Y350012I-12556J0D01*
G01*
X539750Y49606D02*
G03*
X565150Y49606I12700J1194D01*
G01*
X539750Y51994D02*
G03*
X539750Y49606I-12700J-1194D01*
G01*
X565150Y51994D02*
G03*
X539750Y51994I-12700J-1194D01*
G01*
X590550D02*
G03*
X565150Y51994I-12700J-1194D01*
G01*
Y49606D02*
G03*
X590550Y49606I12700J1194D01*
G01*
X491048Y108778D02*
G03*
X500634Y104808I9586J9586D01*
G01*
X491048Y108778D02*
G03*
X500634Y104808I9586J9586D01*
G01*
X565150Y208204D02*
G03*
X545566Y217749I-12700J-1194D01*
G01*
X545566D02*
G03*
X546588Y221315I-5709J3566D01*
G01*
X545566Y217749D02*
G03*
X546588Y221315I-5709J3566D01*
G01*
X590550Y208204D02*
G03*
X565150Y208204I-12700J-1194D01*
G01*
X615950Y49606D02*
G03*
X631552Y38379I12700J1194D01*
G01*
X641071Y47898D02*
G03*
X641350Y49606I-12421J2902D01*
G01*
X590550D02*
G03*
X615950Y49606I12700J1194D01*
G01*
Y51994D02*
G03*
X590550Y51994I-12700J-1194D01*
G01*
X641350D02*
G03*
X615950Y51994I-12700J-1194D01*
G01*
X638797Y31134D02*
G03*
X643565Y29154I4768J4751D01*
G01*
X638805Y31126D02*
G03*
X643565Y29154I4760J4760D01*
G01*
X666750Y49606D02*
G03*
X669665Y42616I12700J1194D01*
G01*
X663835D02*
G03*
X666750Y49606I-9785J8184D01*
G01*
X641350D02*
G03*
X641831Y47138I12700J1194D01*
G01*
X666750Y51994D02*
G03*
X641350Y51994I-12700J-1194D01*
G01*
X682352Y63221D02*
G03*
X666750Y51994I-2902J-12421D01*
G01*
X641350Y208204D02*
G03*
X635381Y217846I-12700J-1194D01*
G01*
X621919D02*
G03*
X615950Y208204I6731J-10836D01*
G01*
D02*
G03*
X590550Y208204I-12700J-1194D01*
G01*
X608763Y223220D02*
G03*
X621919Y220919I7187J2332D01*
G01*
Y230185D02*
G03*
X618282Y232739I-5969J-4633D01*
G01*
X660739Y104808D02*
G03*
X667703Y93060I6265J-4224D01*
G01*
X674768Y85996D02*
G03*
X678180Y84582I3413J3413D01*
G01*
X674760Y86003D02*
G03*
X678180Y84582I3420J3405D01*
G01*
X666750Y208204D02*
G03*
X641350Y208204I-12700J-1194D01*
G01*
X682352Y219431D02*
G03*
X666750Y208204I-2902J-12421D01*
G01*
X563733Y292483D02*
G03*
X573862Y283632I2799J-7019D01*
G01*
D02*
G03*
X575601Y283403I1739J6503D01*
G01*
X546588Y303977D02*
G03*
X547199Y306952I-6945J2976D01*
G01*
D02*
G03*
X546778Y309438I-7556J0D01*
G01*
X573862Y283632D02*
G03*
X575601Y283403I1739J6503D01*
G01*
X596836Y263906D02*
G03*
X582864Y259914I-7556J0D01*
G01*
X564521Y342609D02*
G03*
X554935Y346580I-9586J-9586D01*
G01*
X564521Y342609D02*
G03*
X554935Y346580I-9586J-9586D01*
G01*
X521553Y359374D02*
G03*
X526313Y361346I0J6731D01*
G01*
X521553Y359374D02*
G03*
X526321Y361354I0J6731D01*
G01*
X516824Y372836D02*
G03*
X518088Y359374I-2728J-7046D01*
G01*
X582864Y251907D02*
G03*
X584844Y247139I6731J0D01*
G01*
X582864Y251907D02*
G03*
X584836Y247147I6731J0D01*
G01*
X596326Y261178D02*
G03*
X596836Y263906I-7046J2728D01*
G01*
X622375Y250490D02*
G03*
X612856Y240971I-7187J-2332D01*
G01*
X635381Y234696D02*
G03*
X633410Y239456I-6731J0D01*
G01*
X635381Y234696D02*
G03*
X633401Y239464I-6731J0D01*
G01*
X622406Y283403D02*
G03*
X627165Y285375I0J6731D01*
G01*
X622406Y283403D02*
G03*
X627174Y285383I0J6731D01*
G01*
X604456Y323850D02*
G03*
X598613Y331209I-7556J0D01*
G01*
X603010Y319405D02*
G03*
X604456Y323850I-6110J4445D01*
G01*
X593655Y336168D02*
G03*
X588895Y338139I-4760J-4760D01*
G01*
X593663Y336160D02*
G03*
X588895Y338139I-4768J-4751D01*
G01*
X629119Y380090D02*
G03*
X651096Y371790I9421J-8300D01*
G01*
X655916Y361964D02*
G03*
X649171Y358294I2840J-13255D01*
G01*
X655916Y361964D02*
G03*
X649171Y358294I2840J-13255D01*
G01*
X662271Y320480D02*
G03*
X666958Y316092I7019J2799D01*
G01*
X665865Y372521D02*
G03*
X655916Y361964I-3433J-6731D01*
G01*
X128430Y471424D02*
G03*
X132400Y461838I13556J0D01*
G01*
X128430Y471424D02*
G03*
X132400Y461838I13556J0D01*
G01*
X155542Y498602D02*
G03*
X128430Y498602I-13556J0D01*
G01*
X210124Y384114D02*
G03*
X233266Y393700I9586J9586D01*
G01*
X319598Y397322D02*
G03*
X329184Y393352I9586J9586D01*
G01*
X319598Y397322D02*
G03*
X329184Y393352I9586J9586D01*
G01*
X233266Y393700D02*
G03*
X229296Y403286I-13556J0D01*
G01*
X432891Y387904D02*
G03*
X423372Y378385I-7187J-2332D01*
G01*
X445196Y416494D02*
G03*
X435610Y420464I-9586J-9586D01*
G01*
X445196Y416494D02*
G03*
X435610Y420464I-9586J-9586D01*
G01*
X502797Y443865D02*
G03*
X502797Y430403I-3433J-6731D01*
G01*
X507873Y490959D02*
G03*
X509845Y486200I6731J0D01*
G01*
X507873Y490959D02*
G03*
X509853Y486191I6731J0D01*
G01*
X521335Y533523D02*
G03*
X522160Y536956I-6731J3433D01*
G01*
X106036Y718820D02*
G03*
X106036Y718820I-12056J0D01*
G01*
X183388Y563720D02*
G03*
X179841Y537080I0J-13556D01*
G01*
X10000Y757555D02*
G03*
X53556Y770000I20000J12445D01*
G01*
X81924Y763118D02*
G03*
X81924Y750722I12056J-6198D01*
G01*
X53556Y770000D02*
G03*
X42445Y790000I-23556J0D01*
G01*
X87782Y744864D02*
G03*
X93980Y743364I6198J12056D01*
G01*
Y770476D02*
G03*
X87782Y768976I0J-13556D01*
G01*
X195514Y559750D02*
G03*
X185928Y563720I-9586J-9586D01*
G01*
X195514Y559750D02*
G03*
X185928Y563720I-9586J-9586D01*
G01*
X339200Y544830D02*
G03*
X339200Y544830I-12556J0D01*
G01*
X211234Y710420D02*
G03*
X238346Y710420I13556J0D01*
G01*
X211234D02*
G03*
X238346Y710420I13556J0D01*
G01*
X522160Y536956D02*
G03*
X507873Y533523I-7556J0D01*
G01*
X411234Y710420D02*
G03*
X438346Y710420I13556J0D01*
G01*
X451802Y649732D02*
G03*
X451802Y649732I-7556J0D01*
G01*
X411234Y710420D02*
G03*
X438346Y710420I13556J0D01*
G01*
X433881Y770476D02*
G03*
X411234Y760420I-9091J-10056D01*
G01*
X433881Y770476D02*
G03*
X411234Y760420I-9091J-10056D01*
G01*
X433881Y770476D02*
G03*
X411234Y760420I-9091J-10056D01*
G01*
X550972Y386005D02*
G03*
X556196Y393192I-2332J7187D01*
G01*
D02*
G03*
X541453Y395524I-7556J0D01*
G01*
X553148Y430403D02*
G03*
X557254Y429006I4105J5334D01*
G01*
X553148Y430403D02*
G03*
X557254Y429006I4105J5334D01*
G01*
X581016Y386054D02*
G03*
X623556Y400000I18984J13946D01*
G01*
X569525Y415412D02*
G03*
X567554Y410652I4760J-4760D01*
G01*
X569534Y415420D02*
G03*
X567554Y410652I4751J-4768D01*
G01*
X603440Y445516D02*
G03*
X592451Y452247I-7556J0D01*
G01*
X534421Y480661D02*
G03*
X539178Y487680I-2799J7019D01*
G01*
D02*
G03*
X524603Y490479I-7556J0D01*
G01*
X636669Y384206D02*
G03*
X637107Y385272I-6749J3398D01*
G01*
X651096Y371790D02*
G03*
X636669Y384206I-12556J0D01*
G01*
X623556Y400000D02*
G03*
X613946Y418984I-23556J0D01*
G01*
X627588Y394791D02*
G03*
X629119Y380090I2332J-7187D01*
G01*
X683753Y410845D02*
G03*
X698737Y398526I2428J-12319D01*
G01*
X642759Y418984D02*
G03*
X653224Y425958I2909J6974D01*
G01*
X659892Y424307D02*
G03*
X655124Y422327I0J-6731D01*
G01*
X653224Y425958D02*
G03*
X652582Y429006I-7556J0D01*
G01*
X659892Y424307D02*
G03*
X655133Y422336I0J-6731D01*
G01*
X602798Y442468D02*
G03*
X603440Y445516I-6914J3048D01*
G01*
X645096Y448818D02*
G03*
X633445Y442468I-7556J0D01*
G01*
X641635D02*
G03*
X645096Y448818I-4095J6350D01*
G01*
X675068Y450342D02*
G03*
X674558Y453070I-7556J0D01*
G01*
X661096Y454334D02*
G03*
X675068Y450342I6416J-3992D01*
G01*
X663068Y462529D02*
G03*
X661096Y457770I4760J-4760D01*
G01*
X663076Y462537D02*
G03*
X661096Y457770I4751J-4768D01*
G01*
X546603Y619154D02*
G03*
X545973Y616312I6101J-2842D01*
G01*
X546603Y619154D02*
G03*
X545973Y616312I6101J-2842D01*
G01*
Y577981D02*
G03*
X560260Y574548I6731J-3433D01*
G01*
X579120Y637451D02*
G03*
X554576Y639304I-12700J-4741D01*
G01*
X555616Y718820D02*
G03*
X555616Y718820I-12056J0D01*
G01*
X560260Y574548D02*
G03*
X559435Y577981I-7556J0D01*
G01*
X565127Y619216D02*
G03*
X579120Y627969I1293J13494D01*
G01*
X632650Y580898D02*
G03*
X632650Y580898I-7556J0D01*
G01*
X579120Y627969D02*
G03*
X605376Y632710I12700J4741D01*
G01*
X673956Y626116D02*
G03*
X698500Y627969I11844J6594D01*
G01*
X605376Y632710D02*
G03*
X579120Y637451I-13556J0D01*
G01*
X639436Y718820D02*
G03*
X639436Y718820I-12056J0D01*
G01*
X698500Y637451D02*
G03*
X673956Y639304I-12700J-4741D01*
G01*
X816772Y29154D02*
G03*
X817288Y24956I7458J-1214D01*
G01*
X835750Y11494D02*
G03*
X840000Y13005I0J6731D01*
G01*
X835750Y11494D02*
G03*
X840000Y13005I0J6731D01*
G01*
X700558Y78639D02*
G03*
X695790Y76659I0J-6731D01*
G01*
X700558Y78639D02*
G03*
X695799Y76668I0J-6731D01*
G01*
X865910Y80000D02*
G03*
X867066Y80854I-2256J4266D01*
G01*
X865910Y80000D02*
G03*
X867073Y80861I-2256J4266D01*
G01*
X876929Y90716D02*
G03*
X885184Y98240I699J7524D01*
G01*
D02*
G03*
X882046Y104370I-7556J0D01*
G01*
X884109Y106433D02*
G03*
X889952Y113792I-1713J7359D01*
G01*
X884453Y138296D02*
G03*
X885567Y139195I-3645J5659D01*
G01*
X884453Y138296D02*
G03*
X885575Y139204I-3645J5659D01*
G01*
X885634Y134240D02*
G03*
X884453Y138296I-7556J0D01*
G01*
X884487Y130238D02*
G03*
X885634Y134240I-6409J4002D01*
G01*
X878160Y200432D02*
G03*
X874423Y197993I2077J-7265D01*
G01*
X877796Y202616D02*
G03*
X878160Y200432I6731J0D01*
G01*
X877796Y202616D02*
G03*
X878160Y200432I6731J0D01*
G01*
X889952Y113792D02*
G03*
X889338Y116776I-7556J0D01*
G01*
X894712Y148340D02*
G03*
X896683Y153099I-4760J4760D01*
G01*
X894703Y148331D02*
G03*
X896683Y153099I-4751J4768D01*
G01*
X997434Y128266D02*
G03*
X992674Y130238I-4760J-4760D01*
G01*
X997442Y128258D02*
G03*
X992674Y130238I-4768J-4751D01*
G01*
X1000950Y166624D02*
G03*
X1000950Y166624I-7556J0D01*
G01*
X1011857Y91294D02*
G03*
X1013186Y91508I-399J6719D01*
G01*
X1011857Y91294D02*
G03*
X1013186Y91508I-399J6719D01*
G01*
X1002344Y106584D02*
G03*
X1006935Y104775I4591J4922D01*
G01*
X1002344Y106584D02*
G03*
X1006935Y104775I4591J4922D01*
G01*
X1014193Y119213D02*
G03*
X1011857Y119985I-3243J-5898D01*
G01*
X896683Y197191D02*
G03*
X895056Y201579I-6731J0D01*
G01*
X896683Y197191D02*
G03*
X895056Y201579I-6731J0D01*
G01*
X895056Y201579D02*
G03*
X901153Y206036I-814J7512D01*
G01*
X909788Y210313D02*
G03*
X914556Y212293I0J6731D01*
G01*
X909788Y210313D02*
G03*
X914547Y212285I0J6731D01*
G01*
X916278Y214015D02*
G03*
X926288Y208981I7283J2013D01*
G01*
X937541Y202371D02*
G03*
X942300Y200400I4759J4760D01*
G01*
X937541Y202371D02*
G03*
X942300Y200400I4759J4760D01*
G01*
X977091D02*
G03*
X981850Y202371I0J6731D01*
G01*
X977091Y200400D02*
G03*
X981859Y202380I0J6731D01*
G01*
X688471Y238887D02*
G03*
X688227Y225306I-3433J-6731D01*
G01*
X787253Y255019D02*
G03*
X792012Y253048I4760J4760D01*
G01*
X787244Y255028D02*
G03*
X792012Y253048I4768J4751D01*
G01*
X741126Y263727D02*
G03*
X750645Y254208I2332J-7187D01*
G01*
X779590Y265470D02*
G03*
X781562Y260711I6731J0D01*
G01*
X779590Y265470D02*
G03*
X781570Y260702I6731J0D01*
G01*
X806385Y231655D02*
G03*
X812228Y239014I-1713J7359D01*
G01*
X822776Y226685D02*
G03*
X818017Y228656I-4759J-4760D01*
G01*
X822776Y226685D02*
G03*
X818017Y228656I-4759J-4760D01*
G01*
X812228Y239014D02*
G03*
X797761Y242069I-7556J0D01*
G01*
X800060Y253048D02*
G03*
X801146Y253136I0J6731D01*
G01*
X814193Y253111D02*
G03*
X821248Y253211I3433J6731D01*
G01*
X800060Y253048D02*
G03*
X801146Y253136I0J6731D01*
G01*
X701013Y283969D02*
G03*
X712660Y290322I4091J6352D01*
G01*
X697163Y285886D02*
G03*
X701013Y283969I4768J4751D01*
G01*
X697172Y285878D02*
G03*
X701013Y283969I4760J4760D01*
G01*
X756510Y285762D02*
G03*
X761182Y283783I4768J4751D01*
G01*
X756519Y285753D02*
G03*
X761182Y283783I4760J4760D01*
G01*
X712660Y290322D02*
G03*
X704258Y297831I-7556J0D01*
G01*
X773751Y272353D02*
G03*
X779590Y272515I2727J7047D01*
G01*
X793049Y297244D02*
G03*
X793663Y300228I-6942J2984D01*
G01*
D02*
G03*
X792522Y304221I-7556J0D01*
G01*
X866679Y217535D02*
G03*
X876251Y221847I2554J7111D01*
G01*
X982604Y219821D02*
G03*
X982048Y221869I-7498J-936D01*
G01*
X1007618D02*
G03*
X1012377Y223841I0J6731D01*
G01*
X1007618Y221869D02*
G03*
X1012386Y223849I0J6731D01*
G01*
X831775Y304235D02*
G03*
X821880Y308123I-6911J-3054D01*
G01*
X868473Y299526D02*
G03*
X867218Y299022I2178J-7235D01*
G01*
X867596Y300874D02*
G03*
X868473Y299526I6040J2971D01*
G01*
X867596Y300874D02*
G03*
X868473Y299526I6040J2971D01*
G01*
X864528Y302759D02*
G03*
X867427Y301043I4768J4751D01*
G01*
X864536Y302750D02*
G03*
X867427Y301043I4760J4760D01*
G01*
X1013186Y91508D02*
G03*
X1020508Y99060I-235J7552D01*
G01*
D02*
G03*
X1017895Y104775I-7556J0D01*
G01*
X1014193Y119213D02*
G03*
X1011857Y119985I-3243J-5898D01*
G01*
X1016385Y156337D02*
G03*
X1016385Y142875I-3433J-6731D01*
G01*
X1016843Y118237D02*
G03*
X1014193Y119213I-3891J-6477D01*
G01*
X1108920Y111506D02*
G03*
X1108920Y111506I-11259J0D01*
G01*
X1190000Y42446D02*
G03*
X1157555Y10000I-20000J-12446D01*
G01*
X1058762Y142875D02*
G03*
X1063522Y144846I0J6731D01*
G01*
X1058762Y142875D02*
G03*
X1063530Y144855I0J6731D01*
G01*
X1067233Y148558D02*
G03*
X1069213Y153326I-4751J4768D01*
G01*
X1067242Y148566D02*
G03*
X1069213Y153326I-4760J4760D01*
G01*
X1133225Y179959D02*
G03*
X1133225Y166497I-3433J-6731D01*
G01*
X1147575D02*
G03*
X1152343Y168477I0J6731D01*
G01*
X1147575Y166497D02*
G03*
X1152335Y168468I0J6731D01*
G01*
X1069213Y183271D02*
G03*
X1078361Y181483I5715J4943D01*
G01*
X1109399D02*
G03*
X1114158Y183454I0J6731D01*
G01*
X1109399Y181483D02*
G03*
X1114167Y183463I0J6731D01*
G01*
X1117878Y187174D02*
G03*
X1119849Y191934I-4760J4760D01*
G01*
X1009519Y206375D02*
G03*
X1020508Y213106I3433J6731D01*
G01*
X1117869Y187166D02*
G03*
X1119849Y191934I-4751J4768D01*
G01*
X1020508Y213106D02*
G03*
X1009519Y219837I-7556J0D01*
G01*
X1052876Y264339D02*
G03*
X1055751Y266050I-2332J7187D01*
G01*
X1158823Y198291D02*
G03*
X1161405Y196577I5381J5305D01*
G01*
X1182052Y241046D02*
G03*
X1170935Y247710I-7556J0D01*
G01*
X1179256Y195389D02*
G03*
X1181227Y200149I-4760J4760D01*
G01*
X1179247Y195381D02*
G03*
X1181227Y200149I-4751J4768D01*
G01*
Y237613D02*
G03*
X1182052Y241046I-6731J3433D01*
G01*
X1159444Y255833D02*
G03*
X1157473Y251074I4760J-4760D01*
G01*
X1159453Y255842D02*
G03*
X1157473Y251074I4751J-4768D01*
G01*
X1160959Y270060D02*
G03*
X1162939Y274828I-4751J4768D01*
G01*
X1160967Y270068D02*
G03*
X1162939Y274828I-4760J4760D01*
G01*
Y291592D02*
G03*
X1160959Y296360I-6731J0D01*
G01*
X1162939Y291592D02*
G03*
X1160967Y296352I-6731J0D01*
G01*
X1182803Y260154D02*
G03*
X1184783Y264922I-4751J4768D01*
G01*
X1182812Y260163D02*
G03*
X1184783Y264922I-4760J4760D01*
G01*
X720644Y393117D02*
G03*
X725868Y400304I-2332J7187D01*
G01*
X698737Y398526D02*
G03*
X688610Y410845I-12556J0D01*
G01*
X725868Y400304D02*
G03*
X711125Y402636I-7556J0D01*
G01*
X741630Y389183D02*
G03*
X746398Y387203I4768J4751D01*
G01*
X741639Y389175D02*
G03*
X746398Y387203I4760J4760D01*
G01*
X691765Y410845D02*
G03*
X702754Y417576I3433J6731D01*
G01*
D02*
G03*
X691765Y424307I-7556J0D01*
G01*
X709363Y440488D02*
G03*
X704595Y442468I-4768J-4751D01*
G01*
X709355Y440496D02*
G03*
X704595Y442468I-4760J-4760D01*
G01*
X749479Y406608D02*
G03*
X764222Y408940I7187J2332D01*
G01*
X734317Y455546D02*
G03*
X732346Y450787I4760J-4760D01*
G01*
Y426529D02*
G03*
X734326Y421761I6731J0D01*
G01*
X732346Y426529D02*
G03*
X734317Y421769I6731J0D01*
G01*
X787019Y326053D02*
G03*
X793844Y337820I-6731J11767D01*
G01*
X792522Y311425D02*
G03*
X790542Y316193I-6731J0D01*
G01*
X792522Y311425D02*
G03*
X790551Y316184I-6731J0D01*
G01*
X793844Y337820D02*
G03*
X789874Y347406I-13556J0D01*
G01*
X797047Y362111D02*
G03*
X796792Y348181I2799J-7019D01*
G01*
X848170Y321904D02*
G03*
X850150Y317136I6731J0D01*
G01*
X848170Y321904D02*
G03*
X850142Y317145I6731J0D01*
G01*
X778985Y358294D02*
G03*
X769399Y362265I-9586J-9586D01*
G01*
X778985Y358294D02*
G03*
X769399Y362265I-9586J-9586D01*
G01*
X821880Y353528D02*
G03*
X819900Y358296I-6731J0D01*
G01*
X750019Y425106D02*
G03*
X752225Y425831I-1227J7456D01*
G01*
X779503Y398694D02*
G03*
X774743Y400665I-4760J-4760D01*
G01*
X779511Y398685D02*
G03*
X774743Y400665I-4768J-4751D01*
G01*
X764222Y408940D02*
G03*
X758998Y416127I-7556J0D01*
G01*
X821880Y353528D02*
G03*
X819909Y358287I-6731J0D01*
G01*
X839788Y397834D02*
G03*
X848170Y392704I7187J2332D01*
G01*
X697166Y479552D02*
G03*
X682423Y481884I-7556J0D01*
G01*
X734326Y455555D02*
G03*
X732346Y450787I4751J-4768D01*
G01*
X691942Y472365D02*
G03*
X697166Y479552I-2332J7187D01*
G01*
X724756Y632710D02*
G03*
X698500Y637451I-13556J0D01*
G01*
Y627969D02*
G03*
X724756Y632710I12700J4741D01*
G01*
X764476Y562102D02*
G03*
X764476Y562102I-7556J0D01*
G01*
X723256Y718820D02*
G03*
X723256Y718820I-12056J0D01*
G01*
X711200Y743364D02*
G03*
X717398Y744864I0J13556D01*
G01*
X723256Y750722D02*
G03*
X724756Y756920I-12056J6198D01*
G01*
X714761Y770000D02*
G03*
X711200Y770476I-3561J-13080D01*
G01*
X724756Y756920D02*
G03*
X724280Y760481I-13556J0D01*
G01*
X735076Y787527D02*
G03*
X730316Y785555I0J-6731D01*
G01*
X735076Y787527D02*
G03*
X730308Y785547I0J-6731D01*
G01*
X793839Y747600D02*
G03*
X791986Y723056I4741J-12700D01*
G01*
X868336Y586777D02*
G03*
X863568Y584797I0J-6731D01*
G01*
X868336Y586777D02*
G03*
X863576Y584805I0J-6731D01*
G01*
X878364Y584797D02*
G03*
X873596Y586777I-4768J-4751D01*
G01*
X879423Y564180D02*
G03*
X879086Y565037I-7187J-2332D01*
G01*
X878356Y584805D02*
G03*
X873596Y586777I-4760J-4760D01*
G01*
X881316Y627126D02*
G03*
X881316Y627126I-7556J0D01*
G01*
X888619Y552196D02*
G03*
X886647Y556955I-6731J0D01*
G01*
X888619Y552196D02*
G03*
X886639Y556964I-6731J0D01*
G01*
X898556Y727710D02*
G03*
X898556Y727710I-9556J0D01*
G01*
Y702310D02*
G03*
X898556Y702310I-9556J0D01*
G01*
X812136Y734900D02*
G03*
X803321Y747600I-13556J0D01*
G01*
X805174Y723056D02*
G03*
X812136Y734900I-6594J11844D01*
G01*
Y760300D02*
G03*
X793839Y747600I-13556J0D01*
G01*
X803321D02*
G03*
X812136Y760300I-4741J12700D01*
G01*
X890040Y785555D02*
G03*
X885280Y787527I-4760J-4760D01*
G01*
X890048Y785547D02*
G03*
X885280Y787527I-4768J-4751D01*
G01*
X895731Y777076D02*
G03*
X893760Y781836I-6731J0D01*
G01*
X895731Y777076D02*
G03*
X893751Y781844I-6731J0D01*
G01*
X947355Y442316D02*
G03*
X947974Y439495I6731J0D01*
G01*
X947355Y442316D02*
G03*
X947974Y439495I6731J0D01*
G01*
X960816Y446344D02*
G03*
X961326Y449072I-7046J2728D01*
G01*
D02*
G03*
X947355Y445080I-7556J0D01*
G01*
X962856Y443663D02*
G03*
X960887Y445033I-4768J-4751D01*
G01*
X962848Y443671D02*
G03*
X960887Y445033I-4760J-4760D01*
G01*
X910189Y485143D02*
G03*
X914948Y483172I4759J4760D01*
G01*
X910189Y485143D02*
G03*
X914948Y483172I4759J4760D01*
G01*
X927353D02*
G03*
X932112Y485144I0J6731D01*
G01*
X927353Y483172D02*
G03*
X932121Y485152I0J6731D01*
G01*
X936433Y489465D02*
G03*
X942276Y496824I-1713J7359D01*
G01*
X969882Y489458D02*
G03*
X969580Y492193I-12556J0D01*
G01*
X1151318Y323596D02*
G03*
X1146094Y330783I-7556J0D01*
G01*
X1114740Y362137D02*
G03*
X1109980Y364109I-4760J-4760D01*
G01*
X1114748Y362129D02*
G03*
X1109980Y364109I-4768J-4751D01*
G01*
X1126969Y362614D02*
G03*
X1128941Y357854I6731J0D01*
G01*
X1126969Y362614D02*
G03*
X1128949Y357846I6731J0D01*
G01*
X1140573Y316746D02*
G03*
X1151318Y323596I3189J6850D01*
G01*
X1161415Y326521D02*
G03*
X1171321Y316231I6731J-3433D01*
G01*
X1148513Y338282D02*
G03*
X1161415Y335671I7187J2332D01*
G01*
X1123506Y456617D02*
G03*
X1125478Y451857I6731J0D01*
G01*
Y482160D02*
G03*
X1123506Y477401I4760J-4760D01*
G01*
X1125486Y482169D02*
G03*
X1123506Y477401I4751J-4768D01*
G01*
X1129977Y403976D02*
G03*
X1125217Y402004I0J-6731D01*
G01*
X1129977Y403976D02*
G03*
X1125209Y401996I0J-6731D01*
G01*
X1123506Y456617D02*
G03*
X1125486Y451849I6731J0D01*
G01*
X899947Y498173D02*
G03*
X901918Y493413I6731J0D01*
G01*
X899947Y498173D02*
G03*
X901918Y493413I6731J0D01*
G01*
X913409Y515784D02*
G03*
X911429Y520552I-6731J0D01*
G01*
X904741Y527239D02*
G03*
X894327Y518615I-7359J-1713D01*
G01*
X913409Y515784D02*
G03*
X911437Y520543I-6731J0D01*
G01*
X914528Y511297D02*
G03*
X913409Y509816I4760J-4760D01*
G01*
X926528Y499618D02*
G03*
X926019Y502346I-7556J0D01*
G01*
X926447Y498517D02*
G03*
X926528Y499618I-7475J1101D01*
G01*
X942276Y496824D02*
G03*
X927809Y499879I-7556J0D01*
G01*
X914536Y511306D02*
G03*
X913409Y509816I4751J-4768D01*
G01*
X924049Y520074D02*
G03*
X921833Y518601I2543J-6232D01*
G01*
X924049Y520074D02*
G03*
X921824Y518593I2543J-6232D01*
G01*
X960061Y501712D02*
G03*
X969882Y489458I-2735J-12254D01*
G01*
X1139378Y528507D02*
G03*
X1134618Y530479I-4760J-4760D01*
G01*
X1139386Y528499D02*
G03*
X1134618Y530479I-4768J-4751D01*
G01*
X981176Y661670D02*
G03*
X981176Y661670I-12306J0D01*
G01*
X1157555Y790000D02*
G03*
X1190000Y757554I12445J-20000D01*
G01*
X10000Y45720D02*
X12038D01*
X10000Y50800D02*
X18084D01*
X10000Y81280D02*
X70443D01*
X10000Y91440D02*
X58553D01*
X10000Y86360D02*
X63633D01*
X53660Y96332D02*
X65598Y84394D01*
X47962Y15240D02*
X466477D01*
X47962Y45720D02*
X448183D01*
X51252Y40640D02*
X448183D01*
X53002Y25400D02*
X456317D01*
X51252Y20320D02*
X461397D01*
X53002Y35560D02*
X448226D01*
X53556Y30480D02*
X451237D01*
X10000Y66040D02*
X448183D01*
X10000Y76200D02*
X448183D01*
X10000Y71120D02*
X448183D01*
X10000Y55880D02*
X448183D01*
X41916Y50800D02*
X448183D01*
X75184Y80424D02*
X122374D01*
X10000Y60960D02*
X448183D01*
X10000Y127000D02*
X49690D01*
X10000Y137160D02*
X49690D01*
X10000Y132080D02*
X49690D01*
X10000Y111760D02*
X49690D01*
X10000Y106680D02*
X49690D01*
X10000Y121920D02*
X49690D01*
X10000Y116840D02*
X49690D01*
X10000Y157480D02*
X49690D01*
X10000Y167640D02*
X49690D01*
X10000Y162560D02*
X49690D01*
X10000Y142240D02*
X49690D01*
Y105918D02*
Y169926D01*
X10000Y152400D02*
X49690D01*
X10000Y147320D02*
X49690D01*
X10000Y101600D02*
X50396D01*
X10000Y96520D02*
X53477D01*
X76802Y121920D02*
X448183D01*
X76802Y116840D02*
X448183D01*
X76802Y137160D02*
X448183D01*
X76802Y127000D02*
X448183D01*
X10000Y177800D02*
X52211D01*
X10000Y182880D02*
X57029D01*
X10000Y187960D02*
X62109D01*
X76802Y142240D02*
X448183D01*
X10000Y172720D02*
X49981D01*
X122374Y77924D02*
X154486D01*
X122374D02*
Y80424D01*
X154486Y107536D02*
X348434D01*
Y77924D02*
Y80424D01*
Y77924D02*
X380546D01*
X154486D02*
Y80424D01*
X348434D01*
X122374Y107536D02*
Y110036D01*
X76802Y111533D02*
X80799Y107536D01*
X122374D01*
X154486D02*
Y110036D01*
X348434Y107536D02*
Y110036D01*
X122374D02*
X154486D01*
X348434D02*
X380546D01*
Y81280D02*
X448183D01*
X450163Y31554D02*
X468243Y13474D01*
X461645Y39110D02*
X475799Y24956D01*
X380546Y77924D02*
Y110036D01*
Y106680D02*
X448183D01*
X380546Y101600D02*
X448183D01*
X380546Y86360D02*
X448183D01*
X461645Y39110D02*
Y138182D01*
X380546Y96520D02*
X448183D01*
X380546Y91440D02*
X448183D01*
X76802Y111533D02*
Y164311D01*
Y162560D02*
X124297D01*
X76802Y157480D02*
X128606D01*
X147034Y156624D02*
X355886D01*
X85211Y172720D02*
X122576D01*
X80131Y167640D02*
X122576D01*
X90291Y177800D02*
X124297D01*
X95371Y182880D02*
X128606D01*
X100451Y187960D02*
X448183D01*
X147034Y183736D02*
X355886D01*
X105531Y193040D02*
X448183D01*
X76802Y111760D02*
X448183D01*
X76802Y147320D02*
X448183D01*
X76802Y132080D02*
X448183D01*
X461645Y127000D02*
X472827D01*
X461645Y121920D02*
X477907D01*
X461645Y137160D02*
X462667D01*
X461645Y132080D02*
X467747D01*
X76802Y152400D02*
X448183D01*
X374314Y182880D02*
X448183D01*
X374314Y157480D02*
X448183D01*
X380344Y167640D02*
X448183D01*
X378623Y162560D02*
X448183D01*
X378623Y177800D02*
X448183D01*
X380344Y172720D02*
X448183D01*
X10000Y213360D02*
X87509D01*
X10000Y218440D02*
X92589D01*
X10000Y223520D02*
X97669D01*
X10000Y193040D02*
X67189D01*
X10000Y198120D02*
X72269D01*
X10000Y203200D02*
X77349D01*
X10000Y208280D02*
X82429D01*
X10000Y42925D02*
Y337272D01*
Y279400D02*
X122334D01*
X10000Y274320D02*
X122334D01*
X10000Y228600D02*
X102749D01*
X10000Y233680D02*
X107829D01*
X10000Y238760D02*
X112909D01*
X10000Y243840D02*
X117989D01*
X76802Y164311D02*
X145476Y232984D01*
X115691Y203200D02*
X448183D01*
X110611Y198120D02*
X448183D01*
X125851Y213360D02*
X448183D01*
X120771Y208280D02*
X448183D01*
X136011Y223520D02*
X448183D01*
X130931Y218440D02*
X448183D01*
X10000Y259080D02*
X122334D01*
X10000Y269240D02*
X122334D01*
X10000Y264160D02*
X122334D01*
Y248185D02*
Y313196D01*
X53660Y179512D02*
X122334Y248185D01*
X10000Y254000D02*
X122334D01*
X10000Y248920D02*
X122334D01*
X10000Y309880D02*
X101240D01*
X10000Y320040D02*
X96936D01*
X10000Y314960D02*
X97824D01*
X10000Y299720D02*
X122334D01*
X10000Y294640D02*
X122334D01*
X119740Y309880D02*
X122334D01*
X10000Y304800D02*
X122334D01*
X10000Y325120D02*
X98026D01*
X10000Y337272D02*
X80518D01*
X10000Y330200D02*
X101807D01*
X80518Y337272D02*
Y717843D01*
X10000Y284480D02*
X122334D01*
X10000Y289560D02*
X122334D01*
X10000Y335280D02*
X297492D01*
X119173Y330200D02*
X127207D01*
X80518Y360680D02*
X413240D01*
X80518Y370840D02*
X430917D01*
X80518Y365760D02*
X435997D01*
X80518Y340360D02*
X300767D01*
X80518Y345440D02*
X408168D01*
X80518Y350520D02*
X407316D01*
X80518Y355600D02*
X408618D01*
X149446Y242570D02*
Y306234D01*
Y299720D02*
X448183D01*
X149446Y294640D02*
X448183D01*
X149446Y306234D02*
X174846D01*
X149446Y304800D02*
X448183D01*
X174846Y306234D02*
Y333346D01*
Y320040D02*
X303649D01*
X174846Y314960D02*
X448183D01*
X174846Y309880D02*
X448183D01*
X315095Y320040D02*
X448183D01*
X141091Y228600D02*
X448183D01*
X148900Y238760D02*
X448183D01*
X146124Y233680D02*
X448183D01*
X149446Y248920D02*
X448183D01*
X149446Y243840D02*
X448183D01*
X149446Y259080D02*
X448183D01*
X149446Y254000D02*
X448183D01*
X149446Y279400D02*
X448183D01*
X149446Y289560D02*
X448183D01*
X149446Y284480D02*
X448183D01*
X149446Y264160D02*
X448183D01*
Y36322D02*
Y353574D01*
X149446Y274320D02*
X448183D01*
X149446Y269240D02*
X448183D01*
X147734Y326384D02*
Y333346D01*
X144573Y330200D02*
X147734D01*
Y333346D02*
X174846D01*
Y330200D02*
X296857D01*
X174846Y325120D02*
X298395D01*
X317977Y340360D02*
X411831D01*
X320349Y325120D02*
X448183D01*
X321252Y335280D02*
X448183D01*
X321887Y330200D02*
X448183D01*
X431556Y345440D02*
X448183D01*
X427893Y340360D02*
X448183D01*
X431106Y355600D02*
X446157D01*
X432408Y350520D02*
X448183D01*
X423372Y378385D02*
X448183Y353574D01*
X426484Y360680D02*
X441077D01*
X429995Y393352D02*
X457614Y365733D01*
X432891Y387904D02*
X457614Y363181D01*
Y365733D01*
X449955Y370840D02*
X452507D01*
X455035Y365760D02*
X457587D01*
X461645Y40640D02*
X519337D01*
X461645Y50800D02*
X514294D01*
X461645Y45720D02*
X515349D01*
X538751D02*
X540749D01*
X534763Y40640D02*
X544737D01*
X461645Y55880D02*
X515349D01*
X461645Y60960D02*
X519337D01*
X564151Y55880D02*
X566149D01*
X538751D02*
X540749D01*
X534763Y60960D02*
X544737D01*
X41638Y10000D02*
X837624D01*
X465195Y35560D02*
X634371D01*
X41916Y10160D02*
X837784D01*
X475799Y24956D02*
X817288D01*
X473011Y11494D02*
X835750D01*
X470275Y30480D02*
X639553D01*
X475355Y25400D02*
X817114D01*
X560163Y40640D02*
X570137D01*
X564151Y45720D02*
X566149D01*
X585563Y40640D02*
X595537D01*
X589551Y55880D02*
X591549D01*
X585563Y60960D02*
X595537D01*
X461645Y138182D02*
X491048Y108778D01*
X461645Y116840D02*
X482987D01*
X461645Y111760D02*
X488067D01*
X560163Y60960D02*
X570137D01*
X461645Y106680D02*
X493760D01*
X563513Y213360D02*
X566787D01*
X545943Y218440D02*
X546787D01*
X558113D02*
X572187D01*
X461645Y86360D02*
X674403D01*
X461645Y96520D02*
X660634D01*
X461645Y91440D02*
X669323D01*
X461645Y66040D02*
X685171D01*
X461645Y71120D02*
X690251D01*
X461645Y76200D02*
X695331D01*
X461645Y81280D02*
X705999D01*
X461645Y101600D02*
X659517D01*
X546588Y233680D02*
X598303D01*
X500634Y104808D02*
X660739D01*
X588913Y213360D02*
X592187D01*
X583513Y218440D02*
X597587D01*
X546588Y228600D02*
X603383D01*
X546588Y223520D02*
X608463D01*
X610963Y40640D02*
X620937D01*
X589551Y45720D02*
X591549D01*
X614951D02*
X616949D01*
X631552Y38379D02*
X638797Y31134D01*
X641071Y47898D02*
X641831Y47138D01*
X643565Y29154D02*
X816772D01*
X663835Y42616D02*
X669665D01*
X665751Y45720D02*
X667749D01*
X640351Y55880D02*
X642349D01*
X614951D02*
X616949D01*
X614313Y213360D02*
X617587D01*
X610963Y60960D02*
X620937D01*
X636363D02*
X646337D01*
X639713Y213360D02*
X642987D01*
X608913Y218440D02*
X613398D01*
X618502D02*
X621919D01*
Y217846D02*
Y220919D01*
Y230185D02*
Y231908D01*
X661763Y60960D02*
X671737D01*
X665113Y213360D02*
X668387D01*
X665751Y55880D02*
X667749D01*
X667703Y93060D02*
X674760Y86003D01*
X635381Y223520D02*
X686441D01*
X635381Y233680D02*
X677637D01*
X635381Y228600D02*
X678371D01*
X635381Y218440D02*
X648387D01*
X659713D02*
X673787D01*
X546588Y279400D02*
X562024D01*
X546588Y284480D02*
X559040D01*
X546588Y289560D02*
X560181D01*
X546588Y221315D02*
Y303977D01*
Y299720D02*
X556496D01*
X546588Y294640D02*
X561576D01*
X546778Y309438D02*
X563733Y292483D01*
X546886Y304800D02*
X551416D01*
X546588Y259080D02*
X582864D01*
X546588Y264160D02*
X581728D01*
X546588Y269240D02*
X583928D01*
X546588Y243840D02*
X588143D01*
X546588Y238760D02*
X593223D01*
X546588Y254000D02*
X582864D01*
X546588Y248920D02*
X583563D01*
X546588Y274320D02*
X751719D01*
X571039Y279400D02*
X756799D01*
X575601Y283403D02*
X622406D01*
X581016Y338687D02*
X581563Y338139D01*
X588895D01*
X515109Y346580D02*
X554935D01*
X501009Y360680D02*
X508530D01*
X518088Y359374D02*
X521553D01*
X480756Y380934D02*
X515109Y346580D01*
X495929Y365760D02*
X506540D01*
X490849Y370840D02*
X508475D01*
X526321Y361354D02*
X550972Y386005D01*
X535807Y370840D02*
X567554D01*
X530727Y365760D02*
X567554D01*
X564521Y342609D02*
X567554Y339576D01*
X511169Y350520D02*
X567554D01*
X560376Y345440D02*
X567554D01*
X566770Y340360D02*
X567554D01*
X581016D02*
X631236D01*
X581016Y345440D02*
X636316D01*
X581016Y350520D02*
X641396D01*
X567554Y339576D02*
Y410652D01*
X525537Y360680D02*
X567554D01*
X506089Y355600D02*
X567554D01*
X581016Y338687D02*
Y386054D01*
Y355600D02*
X646477D01*
X581016Y365760D02*
X627527D01*
X581016Y360680D02*
X632690D01*
X584844Y247139D02*
X608763Y223220D01*
X602101Y248920D02*
X607671D01*
X617341Y233680D02*
X620147D01*
X612856Y240971D02*
X621919Y231908D01*
X607181Y243840D02*
X608987D01*
X612261Y238760D02*
X615067D01*
X582864Y251907D02*
Y259914D01*
X596326Y254695D02*
X618282Y232739D01*
X596326Y254695D02*
Y261178D01*
X597021Y254000D02*
X610396D01*
X622375Y250490D02*
X633401Y239464D01*
X629025Y243840D02*
X798858D01*
X623945Y248920D02*
X821248D01*
X635381Y217846D02*
Y234696D01*
X634016Y238760D02*
X681366D01*
X596326Y259080D02*
X736342D01*
X596832Y264160D02*
X741559D01*
X594632Y269240D02*
X746639D01*
X619980Y254000D02*
X736342D01*
X626058Y284480D02*
X699213D01*
X600995Y330200D02*
X621077D01*
X594543Y335280D02*
X626157D01*
X603010Y319405D02*
X610282D01*
X603425Y320040D02*
X610916D01*
X604348Y325120D02*
X615997D01*
X593663Y336160D02*
X598613Y331209D01*
X610282Y319405D02*
X649171Y358294D01*
X644390Y360680D02*
X652396D01*
X631351Y289560D02*
X693490D01*
X641511Y299720D02*
X683330D01*
X636431Y294640D02*
X688410D01*
X646591Y304800D02*
X678250D01*
X666958Y316092D02*
X697163Y285886D01*
X656751Y314960D02*
X668090D01*
X651671Y309880D02*
X673170D01*
X627174Y285383D02*
X662271Y320480D01*
X676232Y326263D02*
X716009D01*
X649554Y365760D02*
X654876D01*
X80518Y421640D02*
X172599D01*
X80518Y431800D02*
X162439D01*
X80518Y426720D02*
X167519D01*
X80518Y406400D02*
X187839D01*
X80518Y416560D02*
X177679D01*
X80518Y411480D02*
X182759D01*
X80518Y447040D02*
X147199D01*
X80518Y457200D02*
X137039D01*
X80518Y452120D02*
X142119D01*
X80518Y441960D02*
X152279D01*
X80518Y436880D02*
X157359D01*
X80518Y391160D02*
X203079D01*
X80518Y401320D02*
X192919D01*
X80518Y396240D02*
X197999D01*
X80518Y381000D02*
X214969D01*
X80518Y375920D02*
X425837D01*
X80518Y386080D02*
X208159D01*
X195701Y436880D02*
X280041D01*
X132400Y461838D02*
X210124Y384114D01*
X155542Y477039D02*
X229296Y403286D01*
X175381Y457200D02*
X259721D01*
X190621Y441960D02*
X274961D01*
X179841Y537080D02*
X319598Y397322D01*
X180461Y452120D02*
X264801D01*
X185541Y447040D02*
X269881D01*
X80518Y482600D02*
X128430D01*
X80518Y492760D02*
X128430D01*
X80518Y487680D02*
X128430D01*
X80518Y467360D02*
X129053D01*
X80518Y462280D02*
X131978D01*
X80518Y477520D02*
X128430D01*
X80518Y472440D02*
X128430D01*
X80518Y502920D02*
X129136D01*
X80518Y508000D02*
X132217D01*
X80518Y533400D02*
X183521D01*
X128430Y471424D02*
Y498602D01*
X155542Y477039D02*
Y498602D01*
X80518Y497840D02*
X128430D01*
X155542Y482600D02*
X234321D01*
X155542Y492760D02*
X224161D01*
X155542Y487680D02*
X229241D01*
X165221Y467360D02*
X249561D01*
X170301Y462280D02*
X254641D01*
X155542Y477520D02*
X239401D01*
X160141Y472440D02*
X244481D01*
X80518Y518160D02*
X198761D01*
X80518Y528320D02*
X188601D01*
X80518Y523240D02*
X193681D01*
X154836Y502920D02*
X214001D01*
X155542Y497840D02*
X219081D01*
X80518Y513080D02*
X203841D01*
X151756Y508000D02*
X208921D01*
X230922Y386080D02*
X418165D01*
X224451Y381000D02*
X419688D01*
X233026Y391160D02*
X420618D01*
X233026Y396240D02*
X320820D01*
X216021Y416560D02*
X300361D01*
X205861Y426720D02*
X290201D01*
X210941Y421640D02*
X295281D01*
X230922Y401320D02*
X315601D01*
X221101Y411480D02*
X305441D01*
X226181Y406400D02*
X310521D01*
X444875Y375920D02*
X447427D01*
X434715Y386080D02*
X437267D01*
X439795Y381000D02*
X442347D01*
X516824Y372836D02*
X518765D01*
X485769Y375920D02*
X521849D01*
X480689Y381000D02*
X526929D01*
X475609Y386080D02*
X532009D01*
X329184Y393352D02*
X429995D01*
X334799Y420464D02*
X435610D01*
X430790Y391160D02*
X432187D01*
X445196Y416494D02*
X480756Y380934D01*
X200781Y431800D02*
X285121D01*
X252343Y502920D02*
X507873D01*
X257423Y497840D02*
X507873D01*
X323463Y431800D02*
X494012D01*
X318383Y436880D02*
X491812D01*
X313303Y441960D02*
X493550D01*
X232023Y523240D02*
X507873D01*
X221863Y533400D02*
X321447D01*
X226943Y528320D02*
X507873D01*
X242183Y513080D02*
X507873D01*
X247263Y508000D02*
X507873D01*
X331841Y533400D02*
X507873D01*
X237103Y518160D02*
X507873D01*
X277743Y477520D02*
X518524D01*
X267583Y487680D02*
X508726D01*
X272663Y482600D02*
X513444D01*
X282823Y472440D02*
X523604D01*
X287903Y467360D02*
X528684D01*
X507873Y490959D02*
Y533523D01*
X262503Y492760D02*
X507873D01*
X521335Y493747D02*
X524603Y490479D01*
X521335Y493747D02*
Y533523D01*
X522322Y492760D02*
X526029D01*
X80518Y558800D02*
X172939D01*
X80518Y716280D02*
X82195D01*
X80518Y711200D02*
X84637D01*
X80518Y543560D02*
X171549D01*
X80518Y538480D02*
X176514D01*
X80518Y548640D02*
X169918D01*
X80518Y553720D02*
X170307D01*
X10000Y717843D02*
Y757555D01*
Y717843D02*
X80518D01*
Y629920D02*
X527464D01*
X80518Y640080D02*
X527464D01*
X80518Y635000D02*
X527464D01*
X183388Y563720D02*
X185928D01*
X80518Y624840D02*
X527464D01*
X80518Y619760D02*
X527464D01*
X80518Y655320D02*
X439160D01*
X80518Y706120D02*
X211934D01*
X80518Y701040D02*
X215003D01*
X80518Y650240D02*
X436707D01*
X80518Y645160D02*
X438230D01*
X105765Y716280D02*
X211234D01*
X103322Y711200D02*
X211234D01*
X33846Y746760D02*
X81924D01*
X10000Y751840D02*
X14997D01*
X10000Y746760D02*
X26154D01*
X45003Y751840D02*
X81412D01*
X81924Y744864D02*
Y750722D01*
X49591Y756920D02*
X80424D01*
X52156Y762000D02*
X81412D01*
X81924Y763118D02*
Y768976D01*
X53374Y767080D02*
X81924D01*
X10000Y731520D02*
X211234D01*
X10000Y741680D02*
X211234D01*
X10000Y736600D02*
X211234D01*
X10000Y721360D02*
X82195D01*
X105765D02*
X211234D01*
X10000Y726440D02*
X84637D01*
X103322D02*
X211234D01*
X81924Y744864D02*
X87782D01*
X81924Y768976D02*
X87782D01*
X53457Y772160D02*
X211234D01*
X93980Y743364D02*
X211234D01*
X93980Y770476D02*
X211234D01*
X211703Y543560D02*
X314152D01*
X206623Y548640D02*
X314680D01*
X201543Y553720D02*
X317777D01*
X216783Y538480D02*
X315812D01*
X195514Y559750D02*
X334799Y420464D01*
X337476Y538480D02*
X507203D01*
X339136Y543560D02*
X510932D01*
X527464Y619154D02*
Y646266D01*
X450262Y645160D02*
X527464D01*
X237646Y706120D02*
X411934D01*
X234577Y701040D02*
X415004D01*
X238346Y710420D02*
Y746864D01*
X211234Y710420D02*
Y743364D01*
X238346Y751840D02*
X411234D01*
X238346Y736600D02*
X411234D01*
X238346Y731520D02*
X411234D01*
X238346Y746760D02*
X411234D01*
X238346Y741680D02*
X411234D01*
X211234Y770476D02*
Y773976D01*
X224790D01*
X238346D01*
Y746864D02*
Y760420D01*
Y746864D02*
Y760420D01*
Y773976D01*
Y756920D02*
X411234D01*
X238346Y716280D02*
X411234D01*
X238346Y726440D02*
X411234D01*
X238346Y721360D02*
X411234D01*
X238346Y711200D02*
X411234D01*
X438346Y710420D02*
Y743364D01*
Y721360D02*
X531775D01*
X438346Y716280D02*
X531775D01*
X238346Y762000D02*
X411326D01*
X238346Y767080D02*
X412983D01*
X238346Y772160D02*
X418012D01*
X411234Y710420D02*
Y760420D01*
X518765Y372836D02*
X541453Y395524D01*
X470529Y391160D02*
X537089D01*
X540887Y375920D02*
X567554D01*
X545967Y381000D02*
X567554D01*
X555918Y391160D02*
X567554D01*
X551192Y386080D02*
X567554D01*
X465449Y396240D02*
X541726D01*
X455289Y406400D02*
X567554D01*
X460369Y401320D02*
X567554D01*
X555554Y396240D02*
X567554D01*
X450209Y411480D02*
X567605D01*
X581016Y381000D02*
X586076D01*
X581016Y370840D02*
X626020D01*
X581016Y375920D02*
X626683D01*
X445129Y416560D02*
X570674D01*
X333623Y421640D02*
X575754D01*
X328543Y426720D02*
X580834D01*
X557254Y429006D02*
X583120D01*
X569534Y415420D02*
X583120Y429006D01*
X502797Y443865D02*
X552179D01*
X303143Y452120D02*
X543924D01*
X308223Y447040D02*
X549004D01*
X502797Y430403D02*
X553148D01*
X562835Y452247D02*
X592451D01*
X599556Y452120D02*
X630744D01*
X509853Y486191D02*
X552179Y443865D01*
X292983Y462280D02*
X533764D01*
X298063Y457200D02*
X538844D01*
X534421Y480661D02*
X562835Y452247D01*
X537562Y477520D02*
X678059D01*
X537215Y482600D02*
X682696D01*
X539178Y487680D02*
X766451D01*
X557882Y457200D02*
X661096D01*
X552802Y462280D02*
X662831D01*
X547722Y467360D02*
X667899D01*
X542642Y472440D02*
X672979D01*
X521335Y513080D02*
X791851D01*
X521335Y518160D02*
X796931D01*
X521335Y523240D02*
X802011D01*
X537215Y492760D02*
X771531D01*
X521335Y497840D02*
X776611D01*
X521335Y502920D02*
X781691D01*
X521335Y508000D02*
X786771D01*
X619003Y386080D02*
X622519D01*
X613924Y381000D02*
X626248D01*
X621834Y391160D02*
X623253D01*
X620569Y411480D02*
X644277D01*
X623254Y396240D02*
X629037D01*
X623519Y401320D02*
X634117D01*
X622670Y406400D02*
X639197D01*
X647074Y381000D02*
X689489D01*
X642995Y391160D02*
X676013D01*
X637915Y386080D02*
X684523D01*
X651060Y370840D02*
X656811D01*
X665865Y372521D02*
X681010D01*
X648075Y396240D02*
X673835D01*
X650398Y375920D02*
X684409D01*
X637107Y385272D02*
X662680Y410845D01*
X627588Y394791D02*
X655124Y422327D01*
X653155Y401320D02*
X673940D01*
X658235Y406400D02*
X676401D01*
X662680Y410845D02*
X683753D01*
X616753Y416560D02*
X649357D01*
X613946Y418984D02*
X642759D01*
X651869Y421640D02*
X654437D01*
X602798Y442468D02*
X633445D01*
X603285Y447040D02*
X630196D01*
X644336Y452120D02*
X660168D01*
X644884Y447040D02*
X660716D01*
X653186Y426720D02*
X704093D01*
X652582Y429006D02*
X701807D01*
X641635Y442468D02*
X704595D01*
X659892Y424307D02*
X691765D01*
X674308Y447040D02*
X732346D01*
X674856Y452120D02*
X732479D01*
X661096Y454334D02*
Y457770D01*
X674558Y453070D02*
Y454981D01*
X663076Y462537D02*
X682423Y481884D01*
X674558Y454981D02*
X691942Y472365D01*
X80518Y589280D02*
X545973D01*
X80518Y599440D02*
X545973D01*
X80518Y594360D02*
X545973D01*
X80518Y574040D02*
X545165D01*
X80518Y568960D02*
X547618D01*
X80518Y584200D02*
X545973D01*
X80518Y579120D02*
X545973D01*
X80518Y604520D02*
X545973D01*
X80518Y614680D02*
X545973D01*
X80518Y609600D02*
X545973D01*
Y577981D02*
Y616312D01*
X527464Y619154D02*
X546603D01*
X338608Y548640D02*
X827411D01*
X196463Y558800D02*
X750124D01*
X335511Y553720D02*
X832491D01*
X521335Y528320D02*
X807091D01*
X521335Y533400D02*
X812171D01*
X522005Y538480D02*
X817251D01*
X518276Y543560D02*
X822331D01*
X80518Y563880D02*
X749576D01*
X527464Y646266D02*
X554576D01*
X451785Y650240D02*
X964310D01*
X554576Y639304D02*
Y646266D01*
Y645160D02*
X561057D01*
X437646Y706120D02*
X785024D01*
X438346Y726440D02*
X534217D01*
X438346Y711200D02*
X534217D01*
X552902D02*
X618037D01*
X552902Y726440D02*
X618037D01*
X543560Y743364D02*
X627380D01*
X52416Y777240D02*
X722001D01*
X50077Y782320D02*
X727081D01*
X45878Y787400D02*
X733775D01*
X438346Y743364D02*
X543560D01*
Y770476D02*
X627380D01*
X433881D02*
X543560D01*
X431568Y772160D02*
X716921D01*
X80518Y675640D02*
X1190000D01*
X80518Y685800D02*
X1190000D01*
X80518Y680720D02*
X1190000D01*
X80518Y660400D02*
X956629D01*
X449332Y655320D02*
X958329D01*
X80518Y665480D02*
X957168D01*
X80518Y670560D02*
X960361D01*
X80518Y690880D02*
X1190000D01*
X80518Y695960D02*
X785024D01*
X42445Y790000D02*
X1157555D01*
X434577Y701040D02*
X785024D01*
X438346Y731520D02*
X785452D01*
X438346Y736600D02*
X785131D01*
X438346Y741680D02*
X786842D01*
X559435Y579120D02*
X617750D01*
X559435Y584200D02*
X618298D01*
X560243Y574040D02*
X621922D01*
X559435Y577981D02*
Y613524D01*
X565127Y619216D01*
X646844Y619154D02*
Y646266D01*
X557790Y568960D02*
X753748D01*
X559435Y599440D02*
X1190000D01*
X559435Y594360D02*
X1190000D01*
X628266Y574040D02*
X852811D01*
X632438Y579120D02*
X857891D01*
X631890Y584200D02*
X862971D01*
X559435Y589280D02*
X1190000D01*
X559435Y604520D02*
X1190000D01*
X560591Y614680D02*
X1190000D01*
X559435Y609600D02*
X1190000D01*
X673956Y619154D02*
Y626116D01*
X646844Y619154D02*
X673956D01*
Y619760D02*
X681792D01*
X570428D02*
X587812D01*
X577798Y640080D02*
X580443D01*
X577458Y624840D02*
X580782D01*
X603198Y640080D02*
X646844D01*
X605181Y635000D02*
X646844D01*
X571783Y645160D02*
X586457D01*
X555345Y721360D02*
X615595D01*
X555345Y716280D02*
X615595D01*
X597183Y645160D02*
X646844D01*
X595828Y619760D02*
X646844D01*
X605086Y629920D02*
X646844D01*
X602858Y624840D02*
X646844D01*
X673956D02*
X674762D01*
X673956Y639304D02*
Y646266D01*
Y645160D02*
X680437D01*
X636722Y726440D02*
X701858D01*
X627380Y770476D02*
X711200D01*
X627380Y743364D02*
X711200D01*
X646844Y646266D02*
X673956D01*
X636722Y711200D02*
X701858D01*
X639165Y721360D02*
X699415D01*
X639165Y716280D02*
X699415D01*
X682352Y63221D02*
X695790Y76659D01*
X700558Y78639D02*
X703358D01*
X837624Y10000D02*
X840000Y12376D01*
X678180Y84582D02*
X709301D01*
X703358Y78639D02*
X709301Y84582D01*
X867073Y80861D02*
X876929Y90716D01*
X872573Y86360D02*
X989663D01*
X880922Y91440D02*
X989663D01*
X884986Y96520D02*
X989663D01*
X882046Y104370D02*
X884109Y106433D01*
X884396Y101600D02*
X989663D01*
X884948Y106680D02*
X989663D01*
X884487Y130238D02*
X992674D01*
X844900Y165941D02*
Y183563D01*
X844392Y187960D02*
X846232D01*
X844900Y172720D02*
X846740D01*
X844900Y167640D02*
X846740D01*
X844900Y182880D02*
X846232D01*
X844900Y177800D02*
X846740D01*
X829196Y202359D02*
X844392D01*
Y183563D02*
Y202359D01*
X846232Y180165D02*
Y202359D01*
X844392Y198120D02*
X846232D01*
X844392Y193040D02*
X846232D01*
X846740Y165941D02*
Y180165D01*
X844900Y165941D02*
X846740D01*
X865409Y197993D02*
Y202359D01*
X885575Y139204D02*
X894703Y148331D01*
X865409Y197993D02*
X874423D01*
X865409Y198120D02*
X874531D01*
X829196Y203200D02*
X877796D01*
X829196Y213360D02*
X877796D01*
X829196Y208280D02*
X877796D01*
X846232Y202359D02*
X865409D01*
X847502Y214709D02*
X866679D01*
X889674Y111760D02*
X989663D01*
X889338Y116776D02*
X989663D01*
Y85567D02*
Y104744D01*
Y106584D02*
X1002344D01*
X989663D02*
Y116776D01*
X997442Y128258D02*
X999939Y125761D01*
X893691Y147320D02*
X1005750D01*
X896683Y153099D02*
Y197191D01*
X989663Y85567D02*
X1011857D01*
X1003617Y104744D02*
X1007973D01*
X989663Y104744D02*
X1007973D01*
X1011857Y85567D02*
Y91294D01*
X1006935Y104775D02*
X1008009D01*
X999939Y125761D02*
X1011857D01*
X896646Y152400D02*
X1005931D01*
X888612Y142240D02*
X1011268D01*
X1011857Y119985D02*
Y125761D01*
X898974Y203200D02*
X936712D01*
X930931Y208981D02*
X937541Y202371D01*
X926288Y208981D02*
X930931D01*
X903397Y208280D02*
X931632D01*
X901153Y206036D02*
X905430Y210313D01*
X909788D01*
X914556Y212293D02*
X916278Y214015D01*
X915623Y213360D02*
X916492D01*
X896683Y162560D02*
X987024D01*
X896683Y167640D02*
X985907D01*
X896683Y172720D02*
X988929D01*
X942300Y200400D02*
X977091D01*
X981859Y202380D02*
X985854Y206375D01*
X1009519D01*
X682352Y219431D02*
X688227Y225306D01*
X688471Y238887D02*
X794579D01*
X797761Y242069D01*
X750574Y254000D02*
X788561D01*
X741126Y263727D02*
X761182Y283783D01*
X750645Y254208D02*
X768790Y272353D01*
X755517Y259080D02*
X783192D01*
X781570Y260702D02*
X787244Y255028D01*
X803386Y228656D02*
X818017D01*
X803386D02*
X806385Y231655D01*
X810024Y233680D02*
X826485D01*
X812224Y238760D02*
X863402D01*
X792012Y253048D02*
X800060D01*
X810486Y243840D02*
X821248D01*
X801729Y253111D02*
X814193D01*
X712622Y289560D02*
X752712D01*
X709896Y284480D02*
X758293D01*
X676477Y325611D02*
X704258Y297831D01*
X692208Y309880D02*
X732392D01*
X697288Y304800D02*
X737472D01*
X716009Y326263D02*
X756510Y285762D01*
X702368Y299720D02*
X742552D01*
X711305Y294640D02*
X747632D01*
X760597Y264160D02*
X779719D01*
X768790Y272353D02*
X773751D01*
X765677Y269240D02*
X779590D01*
Y265470D02*
Y272515D01*
X793049Y297244D02*
X794084D01*
X793646Y299720D02*
X796560D01*
X792522Y304221D02*
Y311425D01*
Y309880D02*
X799528D01*
X792522Y304800D02*
X799528D01*
X794084Y297244D02*
X799528Y302688D01*
Y345444D01*
X829196Y202359D02*
Y214709D01*
X822776Y226685D02*
X826485Y222977D01*
X829196Y214709D02*
X845662D01*
Y223520D02*
X847502D01*
X826485Y222977D02*
Y236903D01*
X818883Y228600D02*
X826485D01*
Y236903D02*
X845662D01*
Y214709D02*
Y236903D01*
Y233680D02*
X847502D01*
X845662Y228600D02*
X847502D01*
X866679Y214709D02*
Y217535D01*
X845662Y218440D02*
X847502D01*
X873543D02*
X877796D01*
Y217972D02*
Y220303D01*
Y202616D02*
Y217972D01*
X876251Y221847D02*
X877796Y220303D01*
X983066Y219837D02*
X1009519D01*
X847502Y214709D02*
Y236903D01*
X863427D01*
X982048Y221869D02*
X1007618D01*
X821248Y243730D02*
X842360D01*
X821248D02*
Y253211D01*
X842360Y248920D02*
X847248D01*
X842360Y243840D02*
X847248D01*
X842360Y254000D02*
X847248D01*
X831775Y304235D02*
X836989Y299022D01*
X821880Y308123D02*
Y353528D01*
X842360Y243730D02*
Y266914D01*
Y259080D02*
X847248D01*
X842360Y266914D02*
X847248D01*
X842360Y264160D02*
X847248D01*
Y243730D02*
Y266914D01*
X836989Y299022D02*
X867218D01*
X836291Y299720D02*
X868317D01*
X858841Y243730D02*
X863402Y239169D01*
Y237485D02*
Y239169D01*
X847248Y243730D02*
X858841D01*
X850150Y317136D02*
X864528Y302759D01*
X821880Y309880D02*
X857406D01*
X831497Y304800D02*
X862486D01*
X1050000Y13914D02*
Y80000D01*
X865910D02*
X1050000D01*
Y35560D02*
X1147110D01*
X1050000Y13914D02*
X1053914Y10000D01*
X1050000Y30480D02*
X1146449D01*
X1050000Y25400D02*
X1146898D01*
X1023940Y98950D02*
Y104775D01*
X1049940Y98950D02*
Y124062D01*
Y98950D02*
X1071052D01*
X1023940D02*
X1045052D01*
Y124062D01*
X1050000Y50800D02*
X1158944D01*
X1050000Y60960D02*
X1190000D01*
X1050000Y55880D02*
X1190000D01*
X1050000Y20320D02*
X1148525D01*
X1050000Y15240D02*
X1151642D01*
X1050000Y40640D02*
X1148984D01*
X1050000Y45720D02*
X1152457D01*
X867493Y81280D02*
X1190000D01*
X1012908Y91440D02*
X1190000D01*
X1011857Y86360D02*
X1190000D01*
X1050000Y71120D02*
X1190000D01*
X1050000Y66040D02*
X1190000D01*
X1020068Y96520D02*
X1190000D01*
X1050000Y76200D02*
X1190000D01*
X1020068Y101600D02*
X1023940D01*
X1016843Y118237D02*
X1023940D01*
X1017895Y104775D02*
X1023940D01*
X1045052Y106680D02*
X1049940D01*
X1045052Y101600D02*
X1049940D01*
X1045052Y116840D02*
X1049940D01*
X1045052Y111760D02*
X1049940D01*
X1011857Y121920D02*
X1023940D01*
Y118237D02*
Y124062D01*
X1045052D01*
Y121920D02*
X1049940D01*
X998700Y127000D02*
X1190000D01*
X885047Y137160D02*
X1190000D01*
X885319Y132080D02*
X1190000D01*
X1049940Y124062D02*
X1071052D01*
X1016385Y142875D02*
X1058762D01*
X1014636Y142240D02*
X1190000D01*
X896683Y157480D02*
X1055751D01*
X896683Y182880D02*
X1055751D01*
X896683Y177800D02*
X1055751D01*
X999764Y162560D02*
X1055751D01*
X1016385Y156337D02*
X1055751D01*
X997859Y172720D02*
X1055751D01*
X1000881Y167640D02*
X1055751D01*
X1071052Y101600D02*
X1092310D01*
X1071052Y111760D02*
X1086405D01*
X1071052Y106680D02*
X1087489D01*
X1107833D02*
X1136440D01*
X1103012Y101600D02*
X1136440D01*
X1108917Y111760D02*
X1136440D01*
X1071052Y98950D02*
Y124062D01*
X1136440Y100247D02*
Y122765D01*
X1053754Y10160D02*
X1157301D01*
X1053914Y10000D02*
X1157555D01*
X1181057Y50800D02*
X1190000D01*
X1187543Y45720D02*
X1190000D01*
X1136440Y100247D02*
X1158958D01*
Y122765D01*
Y101600D02*
X1190000D01*
X1158958Y111760D02*
X1190000D01*
X1158958Y106680D02*
X1190000D01*
X1063530Y144855D02*
X1067233Y148558D01*
X1071052Y116840D02*
X1087746D01*
X1107576D02*
X1136440D01*
X1071052Y121920D02*
X1093382D01*
X1101941D02*
X1136440D01*
X1069213Y177800D02*
X1123776D01*
X1069213Y167640D02*
X1124706D01*
X1078361Y181483D02*
X1109399D01*
X1069213Y172720D02*
X1122253D01*
X1065995Y147320D02*
X1190000D01*
X1069213Y162560D02*
X1190000D01*
X1069149Y152400D02*
X1190000D01*
X1158958Y121920D02*
X1190000D01*
X1158958Y116840D02*
X1190000D01*
X1136440Y122765D02*
X1158958D01*
X1069213Y157480D02*
X1190000D01*
X1133225Y179959D02*
X1144787D01*
X1133225Y166497D02*
X1147575D01*
X1151328Y167640D02*
X1190000D01*
X1161666Y177800D02*
X1190000D01*
X1156586Y172720D02*
X1190000D01*
X1069213Y153326D02*
Y183271D01*
X896683Y187960D02*
X1055751D01*
X1114167Y183463D02*
X1117869Y187166D01*
X896683Y193040D02*
X1055751D01*
X982679Y203200D02*
X1055751D01*
X896619Y198120D02*
X1055751D01*
Y156337D02*
Y266050D01*
X1119849Y191934D02*
Y228950D01*
X1018766Y208280D02*
X1055751D01*
X1113504Y182880D02*
X1147708D01*
X1118551Y187960D02*
X1152788D01*
X1144787Y179959D02*
X1161405Y196577D01*
X1152343Y168477D02*
X1179247Y195381D01*
X1119849Y193040D02*
X1157868D01*
X1119849Y198120D02*
X1158997D01*
X1136440Y198291D02*
Y220809D01*
X1119849Y208280D02*
X1136440D01*
X1119849Y203200D02*
X1136440D01*
Y198291D02*
X1158823D01*
X1017137Y228600D02*
X1055751D01*
X1012034Y223520D02*
X1055751D01*
X1018304Y218440D02*
X1055751D01*
X1020504Y213360D02*
X1055751D01*
X1027297Y238760D02*
X1055751D01*
X1022217Y233680D02*
X1055751D01*
X1012386Y223849D02*
X1052876Y264339D01*
X1037457Y248920D02*
X1055751D01*
X1032377Y243840D02*
X1055751D01*
X1047617Y259080D02*
X1055751D01*
X1042537Y254000D02*
X1055751D01*
X1052697Y264160D02*
X1055751D01*
X1119849Y218440D02*
X1136440D01*
X1119849Y228600D02*
X1157473D01*
X1119849Y223520D02*
X1157473D01*
X1119849Y213360D02*
X1136440D01*
Y220809D02*
X1157473D01*
X1129659Y238760D02*
X1157473D01*
X1124579Y233680D02*
X1157473D01*
X1119849Y228950D02*
X1160959Y270060D01*
X1139819Y248920D02*
X1157473D01*
X1134739Y243840D02*
X1157473D01*
X1144899Y254000D02*
X1158142D01*
X1149979Y259080D02*
X1162691D01*
X1140573Y316746D02*
X1160959Y296360D01*
X1147439Y309880D02*
X1171321D01*
X1171569Y248920D02*
X1190000D01*
X1181227Y200149D02*
Y237613D01*
X1157473Y220809D02*
Y251074D01*
X1170935Y248286D02*
X1182803Y260154D01*
X1176649Y254000D02*
X1190000D01*
X1159453Y255842D02*
X1171321Y267710D01*
X1181729Y259080D02*
X1190000D01*
X1166746Y182880D02*
X1190000D01*
X1176906Y193040D02*
X1190000D01*
X1171826Y187960D02*
X1190000D01*
X1181227Y203200D02*
X1190000D01*
X1180914Y198120D02*
X1190000D01*
X1181227Y213360D02*
X1190000D01*
X1181227Y208280D02*
X1190000D01*
X1181227Y223520D02*
X1190000D01*
X1181227Y233680D02*
X1190000D01*
X1181227Y228600D02*
X1190000D01*
X1181227Y218440D02*
X1190000D01*
Y42446D02*
Y340000D01*
X1181516Y243840D02*
X1190000D01*
X1181698Y238760D02*
X1190000D01*
X1155059Y264160D02*
X1167771D01*
X1160139Y269240D02*
X1171321D01*
X1162920Y274320D02*
X1171321D01*
X1162939Y284480D02*
X1171321D01*
X1162939Y279400D02*
X1171321D01*
X1152519Y304800D02*
X1171321D01*
X1157599Y299720D02*
X1171321D01*
X1162939Y274828D02*
Y291592D01*
Y289560D02*
X1171321D01*
X1162209Y294640D02*
X1171321D01*
X1184740Y264160D02*
X1190000D01*
X1184783Y274320D02*
X1190000D01*
X1184783Y269240D02*
X1190000D01*
X1184783Y284480D02*
X1190000D01*
X1184783Y279400D02*
X1190000D01*
X1184783Y264922D02*
Y340000D01*
X1171321Y267710D02*
Y316231D01*
X1184783Y309880D02*
X1190000D01*
X1184783Y294640D02*
X1190000D01*
X1184783Y289560D02*
X1190000D01*
X1184783Y304800D02*
X1190000D01*
X1184783Y299720D02*
X1190000D01*
X687128Y314960D02*
X727312D01*
X676968Y325120D02*
X717152D01*
X682048Y320040D02*
X722232D01*
X689792Y362265D02*
X720644Y393117D01*
X687840Y386080D02*
X694569D01*
X696350Y391160D02*
X699649D01*
X681010Y372521D02*
X711125Y402636D01*
X698528Y396240D02*
X704729D01*
X689792Y362265D02*
X769399D01*
X698367Y370840D02*
X788318D01*
X693287Y365760D02*
X793398D01*
X708527Y381000D02*
X778158D01*
X703447Y375920D02*
X783238D01*
X746398Y387203D02*
X771955D01*
X713607Y386080D02*
X773078D01*
X701807Y429006D02*
X741630Y389183D01*
X718687Y391160D02*
X739653D01*
X709363Y440488D02*
X749186Y400665D01*
X724682Y396240D02*
X734573D01*
X749186Y400665D02*
X774743D01*
X698423Y401320D02*
X709809D01*
X688610Y410845D02*
X691765D01*
X695962Y406400D02*
X713847D01*
X722777D02*
X724413D01*
X725799Y401320D02*
X729493D01*
X702685Y416560D02*
X714253D01*
X699663Y411480D02*
X719333D01*
X701568Y421640D02*
X709173D01*
X712971Y436880D02*
X732346D01*
X707161Y441960D02*
X732346D01*
X734326Y421761D02*
X749479Y406608D01*
X728212Y421640D02*
X734447D01*
X733291Y416560D02*
X739527D01*
X748531Y401320D02*
X836301D01*
X738372Y411480D02*
X744607D01*
X743452Y406400D02*
X749550D01*
X723131Y426720D02*
X732346D01*
X718052Y431800D02*
X732346D01*
X750019Y425106D02*
X758998Y416127D01*
X732346Y426529D02*
Y450787D01*
X787019Y319716D02*
X790542Y316193D01*
X787019Y319716D02*
Y326053D01*
X793604Y335280D02*
X799528D01*
X791500Y330200D02*
X799528D01*
X778985Y358294D02*
X789874Y347406D01*
X786759Y350520D02*
X793830D01*
X791500Y345440D02*
X799528D01*
X793604Y340360D02*
X799528D01*
X796792Y348181D02*
X799528Y345444D01*
X791519Y314960D02*
X799528D01*
X787019Y320040D02*
X799528D01*
X821880Y325120D02*
X848170D01*
X821880Y314960D02*
X852326D01*
X821880Y320040D02*
X848433D01*
X787019Y325120D02*
X799528D01*
X821880Y350520D02*
X848170D01*
X821880Y345440D02*
X848170D01*
X821880Y330200D02*
X848170D01*
Y321904D02*
Y392704D01*
X821880Y340360D02*
X848170D01*
X821880Y335280D02*
X848170D01*
X771955Y387203D02*
X797047Y362111D01*
X781679Y355600D02*
X792307D01*
X775760Y360680D02*
X794760D01*
X779511Y398685D02*
X819900Y358296D01*
X753485Y421640D02*
X815981D01*
X752225Y425831D02*
X811790D01*
X758565Y416560D02*
X821061D01*
X807356Y370840D02*
X848170D01*
X797196Y381000D02*
X848170D01*
X802276Y375920D02*
X848170D01*
X821553Y355600D02*
X848170D01*
X812436Y365760D02*
X848170D01*
X817516Y360680D02*
X848170D01*
X781956Y396240D02*
X840518D01*
X763782Y411480D02*
X826141D01*
X763782Y406400D02*
X831221D01*
X787036Y391160D02*
X848170D01*
X792116Y386080D02*
X848170D01*
X811790Y425831D02*
X839788Y397834D01*
X676777Y457200D02*
X735971D01*
X681857Y462280D02*
X741051D01*
X686937Y467360D02*
X746131D01*
X692162Y472440D02*
X751211D01*
X689808Y619760D02*
X707192D01*
X696838Y624840D02*
X700162D01*
X696888Y477520D02*
X756291D01*
X696524Y482600D02*
X761371D01*
X763716Y558800D02*
X837571D01*
X764264Y563880D02*
X842651D01*
X715208Y619760D02*
X872076D01*
X722238Y624840D02*
X866558D01*
X724466Y629920D02*
X866740D01*
X734326Y455555D02*
X863568Y584797D01*
X760092Y568960D02*
X847731D01*
X697178Y640080D02*
X699822D01*
X691163Y645160D02*
X705837D01*
X722985Y721360D02*
X785024D01*
X717398Y744864D02*
X723256D01*
Y750722D01*
X714761Y770000D02*
X730308Y785547D01*
X724280Y760481D02*
X737864Y774065D01*
X720543Y711200D02*
X785024D01*
X722985Y716280D02*
X785024D01*
X720543Y726440D02*
X787988D01*
X785024Y695944D02*
Y723056D01*
Y695944D02*
X812136D01*
X723256Y746760D02*
X792015D01*
X723768Y751840D02*
X787988D01*
X725799Y762000D02*
X785131D01*
X724756Y756920D02*
X785452D01*
X730879Y767080D02*
X786842D01*
X735959Y772160D02*
X792015D01*
X737864Y774065D02*
X882269D01*
X735076Y787527D02*
X885280D01*
X868336Y586777D02*
X873596D01*
X812136Y695944D02*
Y723056D01*
Y701040D02*
X879529D01*
X812136Y706120D02*
X880236D01*
X888619Y498850D02*
Y552196D01*
X888444Y553720D02*
X890403D01*
X888619Y523240D02*
X890180D01*
X888619Y518160D02*
X894782D01*
X888619Y528320D02*
X890361D01*
X888619Y548640D02*
X895483D01*
X812136Y695960D02*
X881859D01*
X812136Y721360D02*
X881859D01*
X812136Y711200D02*
X885495D01*
X879423Y564180D02*
X886639Y556964D01*
X785024Y723056D02*
X791986D01*
X805145Y746760D02*
X879444D01*
X805174Y723056D02*
X812136D01*
X811708Y756920D02*
X879444D01*
X809172Y751840D02*
X879444D01*
Y743554D02*
Y762666D01*
X812029Y762000D02*
X879444D01*
X809172Y726440D02*
X879529D01*
X805145Y772160D02*
X882269D01*
X810319Y767080D02*
X882269D01*
X811708Y731520D02*
X880236D01*
X812029Y736600D02*
X885495D01*
X879444Y762666D02*
X882269D01*
X895731D02*
X898556D01*
X882269D02*
Y774065D01*
X895731Y762666D02*
Y777076D01*
X890048Y785547D02*
X893751Y781844D01*
X945509Y441960D02*
X947364D01*
X1030599Y375920D02*
X1105894D01*
X1035679Y370840D02*
X1105894D01*
X1020439Y386080D02*
X1105894D01*
X1025519Y381000D02*
X1105894D01*
X947355Y442316D02*
Y445080D01*
X962856Y443663D02*
X1042410Y364109D01*
X960816Y445104D02*
Y446344D01*
X1005199Y401320D02*
X1124533D01*
X995039Y411480D02*
X1130786D01*
X1000119Y406400D02*
X1130786D01*
X1042410Y364109D02*
X1109980D01*
X1040759Y365760D02*
X1126969D01*
X1015359Y391160D02*
X1114373D01*
X1010279Y396240D02*
X1119453D01*
X969639Y436880D02*
X1130786D01*
X961048Y447040D02*
X1130295D01*
X964559Y441960D02*
X1130786D01*
X984879Y421640D02*
X1130786D01*
X989959Y416560D02*
X1130786D01*
X974719Y431800D02*
X1130786D01*
X979799Y426720D02*
X1130786D01*
X904869Y482600D02*
X946808D01*
X940429Y447040D02*
X946492D01*
X914948Y483172D02*
X927353D01*
X901918Y493413D02*
X910189Y485143D01*
X894709Y492760D02*
X902572D01*
X899789Y487680D02*
X907652D01*
X932121Y485152D02*
X936433Y489465D01*
X934649Y487680D02*
X944896D01*
X941090Y492760D02*
X945212D01*
X925189Y462280D02*
X1123506D01*
X915029Y472440D02*
X1123506D01*
X920109Y467360D02*
X1123506D01*
X935349Y452120D02*
X946856D01*
X960684D02*
X1125229D01*
X930269Y457200D02*
X1123506D01*
X961217Y477520D02*
X1123507D01*
X909949D02*
X953435D01*
X942207Y497840D02*
X947978D01*
X967844Y482600D02*
X1125917D01*
X969755Y487680D02*
X1130997D01*
X975227Y497840D02*
X1124592D01*
X970147Y492760D02*
X1129672D01*
X1128949Y357846D02*
X1148513Y338282D01*
X1121277Y355600D02*
X1131195D01*
X1126357Y350520D02*
X1136275D01*
X1141597Y335280D02*
X1150348D01*
X1131437Y345440D02*
X1141355D01*
X1136517Y340360D02*
X1146435D01*
X1114748Y362129D02*
X1146094Y330783D01*
X1126969Y362614D02*
Y368162D01*
X1116197Y360680D02*
X1127253D01*
X1142359Y314960D02*
X1171321D01*
X1150429Y320040D02*
X1161232D01*
X1184783D02*
X1190000D01*
X1184783Y314960D02*
X1190000D01*
X1151163Y325120D02*
X1160868D01*
X1184783D02*
X1190000D01*
X1147434Y330200D02*
X1161415D01*
Y326521D02*
Y335671D01*
X1184783Y330200D02*
X1190000D01*
X1184783Y340000D02*
X1190000D01*
X1184783Y335280D02*
X1190000D01*
X1122506Y368162D02*
Y380255D01*
X1105894Y368162D02*
X1122506D01*
Y380255D02*
X1125394Y383143D01*
X1122506Y370840D02*
X1125394D01*
Y368162D02*
Y383143D01*
X1123251Y381000D02*
X1125394D01*
X1122506Y375920D02*
X1125394D01*
X1105894Y368162D02*
Y389774D01*
X1112987D01*
X1125209Y401996D01*
X1123506Y456617D02*
Y477401D01*
X1125394Y368162D02*
X1126969D01*
X1129977Y403976D02*
X1130786D01*
Y412126D01*
Y412443D02*
X1132361D01*
X1130786Y412126D02*
X1132361D01*
X1125486Y451849D02*
X1130786Y446549D01*
X1125486Y482169D02*
X1132875Y489557D01*
X1130786Y412443D02*
Y434055D01*
X1132361D01*
X1130786Y434456D02*
Y446549D01*
Y434456D02*
X1132361D01*
X888619Y502920D02*
X899947D01*
X888619Y513080D02*
X899862D01*
X888619Y508000D02*
X899947D01*
Y498173D02*
Y512995D01*
X889629Y497840D02*
X899955D01*
X888619Y533400D02*
X910723D01*
X888619Y543560D02*
X900563D01*
X888619Y538480D02*
X905643D01*
X894327Y518615D02*
X899947Y512995D01*
X904741Y527239D02*
X911429Y520552D01*
X888619Y498850D02*
X947974Y439495D01*
X904402Y528320D02*
X915803D01*
X908740Y523240D02*
X920883D01*
X912975Y518160D02*
X921391D01*
X909441Y553720D02*
X1190000D01*
X879086Y565037D02*
X924049Y520074D01*
X878364Y584797D02*
X932682Y530479D01*
X884041Y579120D02*
X1190000D01*
X899281Y563880D02*
X1190000D01*
X904361Y558800D02*
X1190000D01*
X889121Y574040D02*
X1190000D01*
X894201Y568960D02*
X1190000D01*
X892505Y736600D02*
X1190000D01*
X879444Y743554D02*
X898556D01*
X810319Y741680D02*
X1190000D01*
X898556Y746760D02*
X1166155D01*
X897764Y731520D02*
X1190000D01*
X898556Y756920D02*
X1150409D01*
X898556Y751840D02*
X1154997D01*
X895729Y777240D02*
X1147584D01*
X893276Y782320D02*
X1149923D01*
X886582Y787400D02*
X1154122D01*
X898556Y743554D02*
Y762666D01*
Y762000D02*
X1147844D01*
X895731Y772160D02*
X1146543D01*
X895731Y767080D02*
X1146626D01*
X724561Y635000D02*
X1190000D01*
X716563Y645160D02*
X1190000D01*
X722578Y640080D02*
X1190000D01*
X875444Y619760D02*
X1190000D01*
X878961Y584200D02*
X1190000D01*
X880780Y629920D02*
X1190000D01*
X880962Y624840D02*
X1190000D01*
X892505Y711200D02*
X1190000D01*
X896141Y721360D02*
X1190000D01*
X812136Y716280D02*
X1190000D01*
X898471Y701040D02*
X1190000D01*
X896141Y695960D02*
X1190000D01*
X898471Y726440D02*
X1190000D01*
X897764Y706120D02*
X1190000D01*
X926019Y502346D02*
Y503749D01*
Y502920D02*
X930255D01*
X926447Y498517D02*
X927809Y499879D01*
X939185Y502920D02*
X961269D01*
X913409Y509816D02*
Y515784D01*
Y513080D02*
X916311D01*
X914536Y511306D02*
X921824Y518593D01*
X926019Y503749D02*
X929380Y507111D01*
X960061Y501712D02*
X965460Y507111D01*
X969580Y492193D02*
X975608Y498221D01*
X1124211D01*
X1132875Y489557D01*
X1164965Y502920D02*
X1190000D01*
X1167885Y500000D02*
X1190000D01*
X1139386Y528499D02*
X1167885Y500000D01*
X929380Y507111D02*
X965460D01*
X1144645Y523240D02*
X1190000D01*
X1159885Y508000D02*
X1190000D01*
Y500000D02*
Y757554D01*
X1149725Y518160D02*
X1190000D01*
X1154805Y513080D02*
X1190000D01*
X932682Y530479D02*
X1134618D01*
X979411Y655320D02*
X1106564D01*
X973430Y650240D02*
X1106564D01*
X981110Y660400D02*
X1106564D01*
Y649364D02*
X1131176D01*
X977379Y670560D02*
X1106564D01*
X980571Y665480D02*
X1106564D01*
Y649364D02*
Y673976D01*
X1131176Y649364D02*
Y673976D01*
X1106564D02*
X1131176D01*
X924681Y538480D02*
X1190000D01*
X914521Y548640D02*
X1190000D01*
X919601Y543560D02*
X1190000D01*
X929761Y533400D02*
X1190000D01*
X1139565Y528320D02*
X1190000D01*
X1131176Y655320D02*
X1190000D01*
X1131176Y650240D02*
X1190000D01*
X1131176Y660400D02*
X1190000D01*
X1131176Y670560D02*
X1190000D01*
X1131176Y665480D02*
X1190000D01*
X1173846Y746760D02*
X1190000D01*
X1185004Y751840D02*
X1190000D01*
D83*
X868917Y224962D02*
X869233Y224646D01*
X857935Y224962D02*
X868917D01*
X857091Y225806D02*
X857935Y224962D01*
X909788Y217044D02*
X918487Y225743D01*
X884527Y202616D02*
Y217972D01*
X941690Y234633D02*
X942508Y235451D01*
X879023Y241167D02*
X893115Y227075D01*
X905449D01*
X870133Y237485D02*
X884527Y223091D01*
X894689Y209091D02*
X902642Y217044D01*
X884527Y217972D02*
Y223091D01*
X1001676Y237490D02*
X1014943Y250757D01*
X916980Y234633D02*
X941690D01*
X942508Y235451D02*
X960080D01*
X894242Y209091D02*
X894689D01*
X870133Y237485D02*
Y241957D01*
X884527Y202616D02*
X889952Y197191D01*
X888738Y245191D02*
X906422D01*
X902642Y217044D02*
X909788D01*
X960080Y235451D02*
X962120Y237490D01*
X905449Y227075D02*
X905764Y226759D01*
X962120Y237490D02*
X1001676D01*
X906422Y245191D02*
X916980Y234633D01*
X876046Y263459D02*
X879023Y260483D01*
Y241167D02*
Y260483D01*
X857804Y254286D02*
X870133Y241957D01*
X876046Y263459D02*
Y263906D01*
X889952Y153099D02*
Y197191D01*
X856448Y143955D02*
X880807D01*
X889952Y153099D01*
X1130237Y456617D02*
Y477401D01*
X1142394Y489557D01*
X1139092Y445262D02*
Y447762D01*
X1130237Y456617D02*
X1139092Y447762D01*
X1160167Y424824D02*
Y426912D01*
X1158592Y423249D02*
X1160167Y424824D01*
X1139952Y465328D02*
X1140398D01*
X1146049Y470979D01*
X1134618Y523748D02*
X1178052Y480314D01*
Y264922D02*
Y480314D01*
X1164204Y251074D02*
X1178052Y264922D01*
X1158592Y425749D02*
X1164657Y431814D01*
X1165226D02*
X1169057Y435645D01*
Y460630D01*
X1164657Y431814D02*
X1165226D01*
X1139092Y423249D02*
Y445262D01*
Y401320D02*
Y423249D01*
X1114200Y378968D02*
Y381468D01*
X1129977Y397245D01*
X1137517D01*
X1139092Y398820D01*
Y401320D01*
X870712Y408686D02*
Y424255D01*
X899032Y452575D01*
X766002Y279084D02*
X776162D01*
X776478Y279400D01*
X756730Y135065D02*
X771161Y149495D01*
X619231Y152845D02*
X749366D01*
X771745Y137507D02*
X819943D01*
X615549Y143955D02*
X753048D01*
X611866Y135065D02*
X756730D01*
X771161Y149495D02*
X839978D01*
X789940Y180847D02*
Y190500D01*
X753048Y143955D02*
X789940Y180847D01*
X706146Y71908D02*
X771745Y137507D01*
X749366Y152845D02*
X781050Y184529D01*
X499618Y162470D02*
Y231475D01*
X503338Y158750D02*
X613326D01*
X619231Y152845D01*
X499618Y162470D02*
X503338Y158750D01*
X606977Y139954D02*
X611866Y135065D01*
X609644Y149860D02*
X615549Y143955D01*
X781050Y184529D02*
Y207010D01*
X488570Y160946D02*
X499656Y149860D01*
X488570Y160946D02*
Y306284D01*
X499656Y149860D02*
X609644D01*
X1167954Y401320D02*
X1168146Y401512D01*
X1158708Y470979D02*
X1169057Y460630D01*
X1168146Y323535D02*
Y400620D01*
X1167511Y401447D02*
X1167638Y401574D01*
X1158719Y401447D02*
X1167511D01*
X1167954Y400812D02*
Y401320D01*
Y400812D02*
X1168146Y400620D01*
X1146049Y470979D02*
X1149502Y474431D01*
X1146049Y470979D02*
X1158708D01*
X1158592Y423249D02*
Y425749D01*
X1149502Y474431D02*
X1157542D01*
X1158592Y445262D02*
X1160167Y446837D01*
X1154684Y460817D02*
X1157017Y458484D01*
X1154684Y460817D02*
Y461264D01*
X1157017Y446837D02*
Y458484D01*
X1158592Y401320D02*
X1158719Y401447D01*
X1134400Y379668D02*
X1144970D01*
X1145286Y379984D01*
X1133700Y378968D02*
X1134400Y379668D01*
X929894Y523748D02*
X1134618D01*
X873596Y580046D02*
X929894Y523748D01*
X1126999Y504952D02*
X1142394Y489557D01*
X926592Y513842D02*
X1130682D01*
X1157542Y486982D01*
X972820Y504952D02*
X1126999D01*
X1157542Y474431D02*
Y486982D01*
X1157017Y446837D02*
X1158592Y445262D01*
X954085Y442316D02*
X957490Y438912D01*
X954085Y442316D02*
Y448756D01*
X953770Y449072D02*
X954085Y448756D01*
X958088Y438912D02*
X1039622Y357378D01*
X957490Y438912D02*
X958088D01*
X957326Y489458D02*
X972820Y504952D01*
X824230Y27940D02*
X830580Y34290D01*
X818325Y65407D02*
Y90100D01*
X818017Y35885D02*
X821365Y39233D01*
Y62367D01*
X818325Y65407D02*
X821365Y62367D01*
X827215Y69405D02*
X830580Y66040D01*
X643565Y35885D02*
X818017D01*
X830580Y34290D02*
Y66040D01*
X818325Y90100D02*
X830588Y102363D01*
X827215Y69405D02*
Y84714D01*
X628650Y50800D02*
X643565Y35885D01*
X873604Y107955D02*
X876113D01*
X996394Y119030D02*
X999251Y116173D01*
X881949Y113792D02*
X882396D01*
X876113Y107955D02*
X881949Y113792D01*
X999251Y116173D02*
X1000760D01*
X876583Y123507D02*
X992674D01*
X996394Y119030D02*
Y119787D01*
X992674Y123507D02*
X996394Y119787D01*
X855439Y102362D02*
X876583Y123507D01*
X837457Y77015D02*
X851693Y91251D01*
X834702Y92201D02*
Y92647D01*
X827215Y84714D02*
X834702Y92201D01*
X837457Y73534D02*
Y77015D01*
X851693Y91251D02*
X856899D01*
X837141Y73218D02*
X837457Y73534D01*
X839470Y21945D02*
Y61807D01*
X851144Y100141D02*
X853365Y102362D01*
X855439D01*
X840948Y100141D02*
X851144D01*
X856899Y91251D02*
X873604Y107955D01*
X830588Y102363D02*
X838726D01*
X840948Y100141D01*
X838507Y119634D02*
X838570Y119571D01*
X877763Y134556D02*
X878078Y134240D01*
X838570Y119571D02*
X847304D01*
X862289Y134556D01*
X877763D01*
X675894Y162560D02*
Y185166D01*
X743458Y256540D02*
X766002Y279084D01*
X782234Y244793D02*
X787568Y250127D01*
X693281Y244793D02*
X782234D01*
X678423Y259651D02*
X693281Y244793D01*
X1010950Y111506D02*
X1034496D01*
X596454Y323850D02*
X596900D01*
X578775Y331409D02*
X588895D01*
X596454Y323850D01*
X574285Y335899D02*
X578775Y331409D01*
X1007618Y228600D02*
X1050544Y271526D01*
X965801Y228600D02*
X1007618D01*
X799846Y354646D02*
Y355092D01*
Y354646D02*
X806259Y348232D01*
X780288Y316928D02*
Y337820D01*
X805434Y273050D02*
X805505D01*
X774743Y393934D02*
X815149Y353528D01*
X746398Y393934D02*
X774743D01*
X806259Y299900D02*
Y348232D01*
X815149Y296218D02*
Y353528D01*
X805505Y273050D02*
X815033Y282578D01*
X794426Y281623D02*
X800554D01*
X786321Y273518D02*
X794426Y281623D01*
X786321Y265470D02*
Y273518D01*
X831804Y254286D02*
Y256286D01*
X704789Y290637D02*
X705104Y290322D01*
X669290Y323279D02*
X701932Y290637D01*
X704789D01*
X815033Y282578D02*
X866625D01*
X796872Y290513D02*
X806259Y299900D01*
X800554Y281623D02*
X815149Y296218D01*
X761278Y290513D02*
X796872D01*
X718797Y332994D02*
X761278Y290513D01*
X792012Y259779D02*
X800060D01*
X786321Y265470D02*
X792012Y259779D01*
X821984Y250461D02*
X827979D01*
X801729Y259842D02*
X817626D01*
X787568Y250127D02*
X821650D01*
X800926Y260645D02*
X801729Y259842D01*
X800060Y259779D02*
X800926Y260645D01*
X827979Y250461D02*
X831804Y254286D01*
X821650Y250127D02*
X821984Y250461D01*
X615188Y248158D02*
X628650Y234696D01*
Y207010D02*
Y234696D01*
X615188Y248158D02*
X615634D01*
X589595Y251907D02*
Y263591D01*
X589280Y263906D02*
X589595Y263591D01*
Y251907D02*
X615950Y225552D01*
X539857Y221315D02*
Y306738D01*
X539643Y306952D02*
X539857Y306738D01*
X527050Y207010D02*
Y208508D01*
X539857Y221315D01*
X498285Y232808D02*
X499618Y231475D01*
X498285Y232808D02*
Y302260D01*
X454914Y36322D02*
X473011Y18225D01*
X454914Y36322D02*
Y356362D01*
X425704Y385572D02*
X454914Y356362D01*
X489397Y307110D02*
Y318708D01*
X488570Y306284D02*
X489397Y307110D01*
X575582Y276860D02*
X608712D01*
X526433Y316668D02*
X549067D01*
X566978Y285464D02*
X575582Y276860D01*
X574285Y335899D02*
Y410652D01*
X566531Y285464D02*
X566978D01*
X549067Y316668D02*
X575601Y290134D01*
X622406D01*
X608712Y276860D02*
X625921Y259651D01*
X678423D01*
X508254Y316484D02*
X526250D01*
X526433Y316668D01*
X489397Y318708D02*
X489712Y319024D01*
X700558Y71908D02*
X706146D01*
X679450Y50800D02*
X700558Y71908D01*
X730250Y50800D02*
X797527Y118077D01*
X823859D01*
X782667Y128617D02*
X823561D01*
X704850Y50800D02*
X782667Y128617D01*
X536133Y139954D02*
X606977D01*
X533400Y137668D02*
X533847D01*
X536133Y139954D01*
X1062482Y153326D02*
Y278031D01*
X1012952Y149606D02*
X1058762D01*
X1062482Y153326D01*
X950214Y216846D02*
X966620D01*
X974790Y218570D02*
X975106Y218885D01*
X968343Y218570D02*
X974790D01*
X966620Y216846D02*
X968343Y218570D01*
X473011Y18225D02*
X835750D01*
X839470Y21945D01*
X1006935Y111506D02*
X1010950D01*
X521553Y366105D02*
X548640Y393192D01*
X514412Y366105D02*
X521553D01*
X514096Y365790D02*
X514412Y366105D01*
X645425Y425715D02*
X645668Y425958D01*
X704595Y435737D02*
X746398Y393934D01*
X557254Y435737D02*
X704595D01*
X555857Y437134D02*
X557254Y435737D01*
X825009Y130065D02*
X843280D01*
X823561Y128617D02*
X825009Y130065D01*
X852273Y139780D02*
X856448Y143955D01*
X819943Y137507D02*
X822216Y139780D01*
X852273D01*
X825416Y119634D02*
X838507D01*
X1000760Y116173D02*
X1003617Y113315D01*
X1031429Y292291D02*
X1060765Y321627D01*
X1085810D01*
X1113118Y231738D02*
X1156208Y274828D01*
Y291592D01*
X1099503Y348297D02*
X1156208Y291592D01*
X1147064Y278638D02*
Y287805D01*
X1095462Y339407D02*
X1147064Y287805D01*
X1076287Y207861D02*
X1147064Y278638D01*
X1113118Y191934D02*
Y231738D01*
X1109399Y188214D02*
X1113118Y191934D01*
X1074928Y188214D02*
X1109399D01*
X1075971Y198897D02*
X1076287Y199212D01*
Y207861D01*
X1164204Y203596D02*
Y251074D01*
X1025938Y339407D02*
X1095462D01*
X1126045Y295085D02*
Y295108D01*
X1090636Y330517D02*
X1126045Y295108D01*
X1102640Y290576D02*
X1116485D01*
X1099467Y293676D02*
X1099540D01*
X1102640Y290576D01*
X1019621Y330517D02*
X1090636D01*
X1029653Y348297D02*
X1099503D01*
X897382Y525079D02*
Y525526D01*
Y525079D02*
X906678Y515784D01*
X869950Y495396D02*
Y544068D01*
Y495396D02*
X1025938Y339407D01*
X856690Y453592D02*
X870458Y467360D01*
X881674Y282576D02*
X882499Y281751D01*
X1010919Y289918D02*
X1020063D01*
X1014943Y250757D02*
Y280203D01*
X954293Y291466D02*
X998728D01*
X1002752Y281751D02*
X1010919Y289918D01*
X866627Y282576D02*
X881674D01*
X951755Y294004D02*
X954293Y291466D01*
X882499Y281751D02*
X1002752D01*
X873635Y303846D02*
X885190Y292291D01*
X870480Y307510D02*
X873635Y304354D01*
X861629Y265409D02*
X863556Y267337D01*
X834201Y292291D02*
X870651D01*
X873635Y303846D02*
Y304354D01*
X866625Y282578D02*
X866627Y282576D01*
X863556Y267337D02*
Y267783D01*
X825311Y301181D02*
X834201Y292291D01*
X824864Y301181D02*
X825311D01*
X861629Y260111D02*
Y265409D01*
X1010921Y339216D02*
X1019621Y330517D01*
X998315Y321597D02*
X1005840Y329123D01*
X997838Y339216D02*
X1010921D01*
X1005840Y329123D02*
Y329501D01*
X995934Y337312D02*
X997838Y339216D01*
X808736Y562102D02*
X873760Y627126D01*
X756920Y562102D02*
X808736D01*
X823859Y118077D02*
X825416Y119634D01*
X923877Y215712D02*
X933719D01*
X923561Y216028D02*
X923877Y215712D01*
X933719D02*
X942300Y207131D01*
X946190Y226561D02*
X963762D01*
X945372Y225743D02*
X946190Y226561D01*
X942300Y207131D02*
X977091D01*
X963762Y226561D02*
X965801Y228600D01*
X977091Y207131D02*
X983066Y213106D01*
X918487Y225743D02*
X945372D01*
X983066Y213106D02*
X1012952D01*
X857804Y256286D02*
X861629Y260111D01*
X857804Y254286D02*
Y256286D01*
X780288Y316928D02*
X785791Y311425D01*
Y300543D02*
Y311425D01*
Y300543D02*
X786107Y300228D01*
X797367Y232156D02*
X804225Y239014D01*
X685038Y232156D02*
X797367D01*
X804225Y239014D02*
X804672D01*
X873466Y174046D02*
X877644D01*
X856329Y172466D02*
X871886D01*
X877644Y174046D02*
X877960Y174362D01*
X871886Y172466D02*
X873466Y174046D01*
X864729Y159210D02*
X869043Y163524D01*
X826912Y159210D02*
X864729D01*
X877026Y163524D02*
X877342Y163840D01*
X869043Y163524D02*
X877026D01*
X854901Y321904D02*
X869296Y307510D01*
X854901Y321904D02*
Y394548D01*
X869296Y307510D02*
X870480D01*
X834803Y191262D02*
X835058Y191008D01*
X835439Y191897D02*
Y225171D01*
X836074Y225806D01*
X834803Y191262D02*
X835439Y191897D01*
X877886Y191262D02*
X879790Y193167D01*
X880237D01*
X855820Y191262D02*
X877886D01*
X1011459Y98013D02*
X1012505Y99060D01*
X1003617Y98013D02*
X1011459D01*
X1012505Y99060D02*
X1012952D01*
X1012505Y111760D02*
X1012952D01*
X1005126Y113315D02*
X1010950D01*
X1003617D02*
X1005126D01*
X1010950D02*
X1012505Y111760D01*
X1005126Y113315D02*
X1006935Y111506D01*
X499364Y437134D02*
X555857D01*
X589349Y425715D02*
X645425D01*
X665266Y332994D02*
X718797D01*
X574285Y410652D02*
X589349Y425715D01*
X622406Y290134D02*
X665266Y332994D01*
X514604Y490959D02*
X560047Y445516D01*
X595884D01*
X629920Y387604D02*
X659892Y417576D01*
X667828Y457770D02*
X689610Y479552D01*
X667828Y450658D02*
Y457770D01*
X667512Y450342D02*
X667828Y450658D01*
X863791Y390866D02*
X869482Y396557D01*
X814578Y432562D02*
X846975Y400165D01*
X854901Y394548D02*
X856690Y396337D01*
X878839Y396557D02*
X887222Y388173D01*
X856690Y396337D02*
Y453592D01*
X887222Y388173D02*
X900368D01*
X869482Y396557D02*
X878839D01*
X863791Y333792D02*
Y390866D01*
X904404Y293179D02*
X950930D01*
X900368Y388173D02*
X900684Y387858D01*
X863791Y333792D02*
X904404Y293179D01*
X873506Y386842D02*
X938751Y321597D01*
X998315D01*
X1039622Y357378D02*
X1109980D01*
X1143762Y323596D01*
X881888Y496062D02*
X1029653Y348297D01*
X1057937Y282576D02*
X1062482Y278031D01*
X1027405Y282576D02*
X1057937D01*
X1020063Y289918D02*
X1027405Y282576D01*
X881888Y496062D02*
Y552196D01*
X1094195Y313134D02*
X1103491Y303838D01*
X1094195Y313134D02*
Y313242D01*
X1085810Y321627D02*
X1094195Y313242D01*
X1103491Y303391D02*
Y303838D01*
X1082102Y311042D02*
Y311597D01*
Y311042D02*
X1099467Y293676D01*
X1081786Y311912D02*
X1082102Y311597D01*
X1079754Y273050D02*
X1084244Y277540D01*
X1084296D01*
X1092893Y286138D01*
X1093339D01*
X1174496Y200149D02*
Y241046D01*
X1147575Y173228D02*
X1174496Y200149D01*
X1129792Y173228D02*
X1147575D01*
X1109518Y160528D02*
X1147699D01*
Y111506D02*
Y160528D01*
X1109518Y171369D02*
X1147699Y209550D01*
X1109518Y160528D02*
Y171369D01*
X1066321Y117331D02*
X1109518Y160528D01*
X654050Y207010D02*
X675894Y185166D01*
X789940Y190500D02*
X806450Y207010D01*
X822465Y163657D02*
X826912Y159210D01*
X822465Y163657D02*
Y217478D01*
X818017Y221925D02*
X822465Y217478D01*
X694365Y221925D02*
X818017D01*
X679450Y207010D02*
X694365Y221925D01*
X836074Y225806D02*
Y250016D01*
X662432Y365790D02*
X683798D01*
X718312Y400304D01*
X739077Y426529D02*
Y450787D01*
X868336Y580046D01*
X873596D01*
X739077Y426529D02*
X756666Y408940D01*
X919287Y506538D02*
X926592Y513842D01*
X1079754Y230886D02*
Y273050D01*
X1060496Y113506D02*
X1064322Y117331D01*
X1066321D01*
X1060496Y111506D02*
Y113506D01*
X1133700Y362614D02*
X1155700Y340614D01*
X1133700Y362614D02*
Y378968D01*
X934274Y496824D02*
X934720D01*
X927353Y489903D02*
X934274Y496824D01*
X914948Y489903D02*
X927353D01*
X906678Y498173D02*
X914948Y489903D01*
X906678Y498173D02*
Y515784D01*
X918972Y499618D02*
X919287Y499934D01*
Y506538D01*
X872236Y561848D02*
X881888Y552196D01*
X827024Y509778D02*
X851916D01*
X766318Y449072D02*
X827024Y509778D01*
X748792Y432562D02*
X814578D01*
X659892Y417576D02*
X695198D01*
X950930Y293179D02*
X951755Y294004D01*
X831804Y254286D02*
X836074Y250016D01*
X835058Y172720D02*
Y191008D01*
Y172720D02*
X835312Y172466D01*
X514604Y490959D02*
Y536956D01*
X885280Y780796D02*
X889000Y777076D01*
X735076Y780796D02*
X885280D01*
X889000Y753110D02*
Y777076D01*
X711200Y756920D02*
X735076Y780796D01*
X643890Y562102D02*
X756920D01*
X625094Y580898D02*
X643890Y562102D01*
X531749Y487680D02*
X624967Y580898D01*
X531622Y487680D02*
X531749D01*
X624967Y580898D02*
X625094D01*
X444246Y670052D02*
X444754Y670560D01*
X444246Y649732D02*
Y670052D01*
X593254Y612738D02*
X625094Y580898D01*
X591820Y632710D02*
X593254Y631276D01*
Y612738D02*
Y631276D01*
X552704Y574548D02*
Y616312D01*
X566420Y630028D01*
Y632710D01*
X1000760Y95155D02*
X1003617Y98013D01*
D84*
X915453Y400775D02*
Y418758D01*
X915572Y418877D01*
X915453Y400775D02*
X978916Y337312D01*
X711200Y632710D02*
X751652Y673162D01*
Y719848D01*
X792104Y760300D01*
X798580D01*
X142240Y670560D02*
X326390D01*
X93980Y718820D02*
X142240Y670560D01*
X769399Y348709D02*
X780288Y337820D01*
X471170Y147828D02*
X500634Y118364D01*
X730378D01*
X471170Y147828D02*
Y371348D01*
X509494Y333024D02*
X554935D01*
X582110Y305849D02*
X615897D01*
X554935Y333024D02*
X582110Y305849D01*
X471170Y371348D02*
X509494Y333024D01*
X63246Y169926D02*
X135890Y242570D01*
Y319790D01*
X63246Y105918D02*
Y169926D01*
Y105918D02*
X75184Y93980D01*
X138430D01*
Y170180D02*
X364490D01*
X138430Y93980D02*
X364490D01*
X615897Y305849D02*
X658757Y348709D01*
X769399D01*
X978916Y337312D02*
X987044D01*
X638540Y371790D02*
X665276Y398526D01*
X686181D01*
X435610Y406908D02*
X471170Y371348D01*
X329184Y406908D02*
X435610D01*
X326390Y670560D02*
X444754D01*
X326644Y544830D02*
Y670306D01*
X326390Y670560D02*
X326644Y670306D01*
X185928Y550164D02*
X329184Y406908D01*
X309372Y331216D02*
X401066D01*
X419862Y350012D01*
X444754Y670560D02*
X614204D01*
X183388Y550164D02*
X185928D01*
X141986Y471424D02*
Y498602D01*
Y471424D02*
X219710Y393700D01*
X711200Y632710D02*
Y658845D01*
X699484Y670560D02*
X711200Y658845D01*
X614204Y670560D02*
X699484D01*
X627380Y756920D02*
X711200D01*
X543560D02*
X627380D01*
X424790Y760420D02*
X428290Y756920D01*
X543560D01*
X424790Y710420D02*
Y760420D01*
X224790Y710420D02*
Y760420D01*
X93980Y756920D02*
X221290D01*
X224790Y760420D01*
X591820Y632710D02*
X602488Y643378D01*
Y658845D01*
X614204Y670560D01*
D85*
X1170000Y30000D02*
D03*
X600000Y400000D02*
D03*
X30000Y30480D02*
D03*
Y770000D02*
D03*
X1170000D02*
D03*
D86*
X543560Y718820D02*
D03*
X627380D02*
D03*
X711200D02*
D03*
X93980D02*
D03*
D87*
X543560Y756920D02*
D03*
X627380D02*
D03*
X711200D02*
D03*
X93980D02*
D03*
D88*
X869233Y224646D02*
D03*
X894242Y209091D02*
D03*
X888738Y245191D02*
D03*
X905764Y226759D02*
D03*
X1139952Y465328D02*
D03*
X776478Y279400D02*
D03*
X1168146Y323088D02*
D03*
X1167638Y401574D02*
D03*
X1154684Y461264D02*
D03*
X1145286Y379984D02*
D03*
X953770Y449072D02*
D03*
X882396Y113792D02*
D03*
X834702Y92647D02*
D03*
X847120Y109856D02*
D03*
X837141Y73218D02*
D03*
X877628Y98240D02*
D03*
X675894Y162560D02*
D03*
X743458Y256540D02*
D03*
X596900Y323850D02*
D03*
X799846Y355092D02*
D03*
X805434Y273050D02*
D03*
X667004Y100584D02*
D03*
X717296Y101824D02*
D03*
X705104Y290322D02*
D03*
X817626Y259842D02*
D03*
X615188Y248158D02*
D03*
X589280Y263906D02*
D03*
X539643Y306952D02*
D03*
X498285Y302260D02*
D03*
X566531Y285464D02*
D03*
X508254Y316484D02*
D03*
X615950Y225552D02*
D03*
X1012952Y149606D02*
D03*
X533400Y137668D02*
D03*
X950214Y216846D02*
D03*
X824230Y27940D02*
D03*
X993394Y166624D02*
D03*
X548640Y393192D02*
D03*
X645668Y425958D02*
D03*
X843280Y130065D02*
D03*
X839978Y149495D02*
D03*
X1126045Y295085D02*
D03*
X1116485Y290576D02*
D03*
X897382Y525526D02*
D03*
X899032Y452575D02*
D03*
X870458Y467360D02*
D03*
X514096Y365790D02*
D03*
X1014943Y280203D02*
D03*
X998728Y291466D02*
D03*
X824864Y301181D02*
D03*
X870651Y292291D02*
D03*
X885190D02*
D03*
X863556Y267783D02*
D03*
X1005840Y329501D02*
D03*
X489712Y319024D02*
D03*
X873760Y627126D02*
D03*
X783560Y81395D02*
D03*
X923561Y216028D02*
D03*
X956056Y245166D02*
D03*
X975106Y218885D02*
D03*
X876046Y263906D02*
D03*
X823746Y271740D02*
D03*
X786107Y300228D02*
D03*
X804672Y239014D02*
D03*
X685038Y232156D02*
D03*
X878078Y134240D02*
D03*
X877342Y163840D02*
D03*
X877960Y174362D02*
D03*
X1012952Y213106D02*
D03*
X880237Y193167D02*
D03*
X1012952Y99060D02*
D03*
Y111760D02*
D03*
X595884Y445516D02*
D03*
X629920Y387604D02*
D03*
X667512Y450342D02*
D03*
X689610Y479552D02*
D03*
X873506Y386842D02*
D03*
X846975Y400165D02*
D03*
X870712Y408686D02*
D03*
X1031429Y292291D02*
D03*
X1081786Y311912D02*
D03*
X1103491Y303391D02*
D03*
X1093339Y286138D02*
D03*
X1174496Y241046D02*
D03*
X1129792Y173228D02*
D03*
X669290Y323279D02*
D03*
X662432Y365790D02*
D03*
X718312Y400304D02*
D03*
X756666Y408940D02*
D03*
X1164204Y203596D02*
D03*
X1075971Y198897D02*
D03*
X1079754Y230886D02*
D03*
X1143762Y323596D02*
D03*
X1155700Y340614D02*
D03*
X1050544Y271526D02*
D03*
X934720Y496824D02*
D03*
X918972Y499618D02*
D03*
X851916Y509778D02*
D03*
X766318Y449072D02*
D03*
X748792Y432562D02*
D03*
X695198Y417576D02*
D03*
X425704Y385572D02*
D03*
X499364Y437134D02*
D03*
X900684Y387858D02*
D03*
X637540Y448818D02*
D03*
X872236Y561848D02*
D03*
X1074928Y188214D02*
D03*
X869950Y544068D02*
D03*
X531622Y487680D02*
D03*
X514604Y536956D02*
D03*
X444246Y649732D02*
D03*
X756920Y562102D02*
D03*
X625094Y580898D02*
D03*
X552704Y574548D02*
D03*
D89*
X915572Y418877D02*
D03*
X780288Y337820D02*
D03*
X730378Y118364D02*
D03*
X987044Y337312D02*
D03*
X638540Y371790D02*
D03*
X957326Y489458D02*
D03*
X686181Y398526D02*
D03*
X326644Y544830D02*
D03*
X419862Y350012D02*
D03*
X309372Y331216D02*
D03*
X329184Y406908D02*
D03*
X141986Y498602D02*
D03*
X219710Y393700D02*
D03*
X183388Y550164D02*
D03*
D90*
X831804Y256286D02*
D03*
X857804D02*
D03*
X1060496Y111506D02*
D03*
X1034496D02*
D03*
M02*
