G04*
G04 #@! TF.GenerationSoftware,Altium Limited,Altium Designer,22.7.1 (60)*
G04*
G04 Layer_Color=12632256*
%FSLAX44Y44*%
%MOMM*%
G71*
G04*
G04 #@! TF.SameCoordinates,0E519C92-87A3-47E9-A83B-F09A3FC6FE1E*
G04*
G04*
G04 #@! TF.FilePolarity,Positive*
G04*
G01*
G75*
%ADD64R,1.7500X1.7500*%
%ADD65C,1.7500*%
%ADD67R,1.8400X1.8400*%
%ADD68C,1.8400*%
%ADD69C,1.5406*%
%ADD70R,1.5406X1.5406*%
%ADD71C,2.0000*%
%ADD72R,2.0000X2.0000*%
%ADD75C,1.2000*%
%ADD76R,1.2000X1.2000*%
%ADD77R,2.0000X2.0000*%
%ADD78C,2.5000*%
%ADD79R,2.5000X2.5000*%
%ADD85C,4.0000*%
%ADD86C,1.7000*%
%ADD87R,1.7000X1.7000*%
D64*
X1118870Y661670D02*
D03*
D65*
X968870D02*
D03*
D67*
X806450Y207010D02*
D03*
Y50800D02*
D03*
D68*
X781050Y207010D02*
D03*
X755650D02*
D03*
X730250D02*
D03*
X704850D02*
D03*
X679450D02*
D03*
X654050D02*
D03*
X628650D02*
D03*
X603250D02*
D03*
X577850D02*
D03*
X552450D02*
D03*
X527050D02*
D03*
Y50800D02*
D03*
X552450D02*
D03*
X577850D02*
D03*
X603250D02*
D03*
X628650D02*
D03*
X654050D02*
D03*
X679450D02*
D03*
X704850D02*
D03*
X730250D02*
D03*
X755650D02*
D03*
X781050D02*
D03*
D69*
X1097661Y209550D02*
D03*
Y111506D02*
D03*
D70*
X1147699Y209550D02*
D03*
Y111506D02*
D03*
D71*
X424790Y710420D02*
D03*
Y760420D02*
D03*
X224790Y710420D02*
D03*
X798580Y760300D02*
D03*
Y734900D02*
D03*
X110490Y319790D02*
D03*
X135890D02*
D03*
X685800Y632710D02*
D03*
X711200D02*
D03*
X566420D02*
D03*
X591820D02*
D03*
D72*
X224790Y760420D02*
D03*
X798580Y709500D02*
D03*
D75*
X889000Y702310D02*
D03*
Y727710D02*
D03*
D76*
Y753110D02*
D03*
D77*
X161290Y319790D02*
D03*
X660400Y632710D02*
D03*
X541020D02*
D03*
D78*
X364490Y170180D02*
D03*
X138430D02*
D03*
D79*
X364490Y93980D02*
D03*
X138430D02*
D03*
D85*
X1170000Y30000D02*
D03*
X600000Y400000D02*
D03*
X30000Y30480D02*
D03*
Y770000D02*
D03*
X1170000D02*
D03*
D86*
X543560Y718820D02*
D03*
X627380D02*
D03*
X711200D02*
D03*
X93980D02*
D03*
D87*
X543560Y756920D02*
D03*
X627380D02*
D03*
X711200D02*
D03*
X93980D02*
D03*
M02*
