G04*
G04 #@! TF.GenerationSoftware,Altium Limited,Altium Designer,22.7.1 (60)*
G04*
G04 Layer_Color=32768*
%FSLAX44Y44*%
%MOMM*%
G71*
G04*
G04 #@! TF.SameCoordinates,9AA6D23D-87E4-4A34-83E0-739B1A9BDA5E*
G04*
G04*
G04 #@! TF.FilePolarity,Positive*
G04*
G01*
G75*
%ADD10C,0.2000*%
%ADD97C,0.1000*%
%ADD98C,0.0500*%
D10*
X450000Y511000D02*
G03*
X450000Y289000I0J-111000D01*
G01*
D02*
G03*
X450000Y511000I0J111000D01*
G01*
X140000Y784000D02*
G03*
X140000Y536000I0J-124000D01*
G01*
D02*
G03*
X140000Y784000I0J124000D01*
G01*
X750000Y289000D02*
G03*
X750000Y511000I0J111000D01*
G01*
D02*
G03*
X750000Y289000I0J-111000D01*
G01*
X1005221Y502929D02*
Y537011D01*
X986139Y502929D02*
X1005221D01*
X986139D02*
Y537011D01*
X1005221D01*
X985361Y497889D02*
Y540971D01*
X960279Y497889D02*
X985361D01*
X960279D02*
Y540971D01*
X985361D01*
X874770Y351150D02*
X905770D01*
Y334650D02*
Y351150D01*
X874770Y334650D02*
X905770D01*
X874770D02*
Y351150D01*
Y313050D02*
X905770D01*
Y296550D02*
Y313050D01*
X874770Y296550D02*
X905770D01*
X874770D02*
Y313050D01*
Y332100D02*
X905770D01*
Y315600D02*
Y332100D01*
X874770Y315600D02*
X905770D01*
X874770D02*
Y332100D01*
X1094170Y511460D02*
X1118170D01*
Y499460D02*
Y511460D01*
X1094170Y499460D02*
X1118170D01*
X1094170D02*
Y511460D01*
X1183722Y516488D02*
Y583512D01*
X1116278D02*
X1183722D01*
X1116278Y516488D02*
Y583512D01*
Y516488D02*
X1183722D01*
X1180510Y189390D02*
Y209390D01*
X1138510D02*
X1180510D01*
X1138510Y189390D02*
Y209390D01*
Y189390D02*
X1180510D01*
X582230Y148940D02*
Y160940D01*
X558230D02*
X582230D01*
X558230Y148940D02*
Y160940D01*
Y148940D02*
X582230D01*
X1090300Y266440D02*
Y297440D01*
X1106800D01*
Y266440D02*
Y297440D01*
X1090300Y266440D02*
X1106800D01*
X1063149Y259129D02*
Y302211D01*
X1088231D01*
Y259129D02*
Y302211D01*
X1063149Y259129D02*
X1088231D01*
X1036479D02*
Y302211D01*
X1061561D01*
Y259129D02*
Y302211D01*
X1036479Y259129D02*
X1061561D01*
X1009809D02*
X1034891D01*
Y302211D01*
X1009809D02*
X1034891D01*
X1009809Y259129D02*
Y302211D01*
X983139Y259129D02*
X1008221D01*
Y302211D01*
X983139D02*
X1008221D01*
X983139Y259129D02*
Y302211D01*
X956469Y259129D02*
X981551D01*
Y302211D01*
X956469D02*
X981551D01*
X956469Y259129D02*
Y302211D01*
X1118919Y160179D02*
X1162001D01*
X1118919D02*
Y185261D01*
X1162001D01*
Y160179D02*
Y185261D01*
X1181182Y216488D02*
Y283512D01*
X1113738D02*
X1181182D01*
X1113738Y216488D02*
Y283512D01*
Y216488D02*
X1181182D01*
X1114901Y518209D02*
Y561291D01*
X1089819Y518209D02*
X1114901D01*
X1089819D02*
Y561291D01*
X1114901D01*
X895980Y129280D02*
Y160280D01*
X879480Y129280D02*
X895980D01*
X879480D02*
Y160280D01*
X895980D01*
X870580Y129280D02*
Y160280D01*
X854080Y129280D02*
X870580D01*
X854080D02*
Y160280D01*
X870580D01*
X845180Y129280D02*
Y160280D01*
X828680Y129280D02*
X845180D01*
X828680D02*
Y160280D01*
X845180D01*
X335680Y586370D02*
Y686170D01*
X284080D02*
X335680D01*
X284080Y586370D02*
Y686170D01*
Y586370D02*
X335680D01*
X379889Y627429D02*
X404971D01*
Y670511D01*
X379889D02*
X404971D01*
X379889Y627429D02*
Y670511D01*
X405961Y605660D02*
Y621160D01*
X378899D02*
X405961D01*
X378899Y605660D02*
Y621160D01*
Y605660D02*
X405961D01*
X1189000Y304000D02*
Y496000D01*
X926500Y304000D02*
X1189000D01*
X926500D02*
Y496000D01*
X1189000D01*
X630317Y513239D02*
Y538321D01*
Y513239D02*
X673400D01*
Y538321D01*
X630317D02*
X673400D01*
X595370Y517530D02*
Y534030D01*
Y517530D02*
X626370D01*
Y534030D01*
X595370D02*
X626370D01*
X595370Y545470D02*
Y561970D01*
Y545470D02*
X626370D01*
Y561970D01*
X595370D02*
X626370D01*
X629969Y541179D02*
Y566261D01*
Y541179D02*
X673051D01*
Y566261D01*
X629969D02*
X673051D01*
X351949Y186641D02*
X377031D01*
X351949Y143559D02*
Y186641D01*
Y143559D02*
X377031D01*
Y186641D01*
X380080Y175830D02*
X392080D01*
X380080Y151830D02*
Y175830D01*
Y151830D02*
X392080D01*
Y175830D01*
X402460Y177361D02*
X417960D01*
X402460Y150299D02*
Y177361D01*
Y150299D02*
X417960D01*
Y177361D01*
X282379Y185290D02*
Y200790D01*
Y185290D02*
X309441D01*
Y200790D01*
X282379D02*
X309441D01*
X283910Y160370D02*
Y172370D01*
Y160370D02*
X307910D01*
Y172370D01*
X283910D02*
X307910D01*
X267210Y421900D02*
X299210D01*
X267210Y390900D02*
Y421900D01*
Y390900D02*
X299210D01*
Y421900D01*
X322253Y460880D02*
Y476380D01*
X295191D02*
X322253D01*
X295191Y460880D02*
Y476380D01*
Y460880D02*
X322253D01*
X1137780Y721560D02*
Y785060D01*
X828480D02*
X1137780D01*
X828480Y721560D02*
Y785060D01*
Y721560D02*
X1137780D01*
X821980Y15040D02*
Y78540D01*
Y15040D02*
X1131280D01*
Y78540D01*
X821980D02*
X1131280D01*
X670910Y235650D02*
X682910D01*
Y259650D01*
X670910D02*
X682910D01*
X670910Y235650D02*
Y259650D01*
X583280Y196280D02*
X595280D01*
Y220280D01*
X583280D02*
X595280D01*
X583280Y196280D02*
Y220280D01*
X604160Y107310D02*
Y154310D01*
Y107310D02*
X686160D01*
Y154310D01*
X604160D02*
X686160D01*
X690520Y144140D02*
Y191140D01*
Y144140D02*
X772520D01*
Y191140D01*
X690520D02*
X772520D01*
X285799Y429419D02*
Y454501D01*
Y429419D02*
X328881D01*
Y454501D01*
X285799D02*
X328881D01*
X312579Y330249D02*
Y373331D01*
X337661D01*
Y330249D02*
Y373331D01*
X312579Y330249D02*
X337661D01*
X307470Y333290D02*
Y370290D01*
X291970Y333290D02*
X307470D01*
X291970D02*
Y370290D01*
X307470D01*
X271650Y273599D02*
Y310599D01*
X287150D01*
Y273599D02*
Y310599D01*
X271650Y273599D02*
X287150D01*
X274369Y205899D02*
X317451D01*
X274369D02*
Y230981D01*
X317451D01*
Y205899D02*
Y230981D01*
X279910Y230880D02*
Y261880D01*
X311910D01*
Y230880D02*
Y261880D01*
X279910Y230880D02*
X311910D01*
X318611Y270559D02*
Y313641D01*
X293529Y270559D02*
X318611D01*
X293529D02*
Y313641D01*
X318611D01*
X208530Y403720D02*
X258830D01*
X208530D02*
Y515760D01*
X258830D01*
Y403720D02*
Y515760D01*
X208530Y279895D02*
X258830D01*
X208530D02*
Y391935D01*
X258830D01*
Y279895D02*
Y391935D01*
X208530Y156070D02*
X258830D01*
X208530D02*
Y268110D01*
X258830D01*
Y156070D02*
Y268110D01*
X335210Y203810D02*
Y286410D01*
X383610D01*
Y203810D02*
Y286410D01*
X335210Y203810D02*
X383610D01*
X391020Y233930D02*
Y284230D01*
X503060D01*
Y233930D02*
Y284230D01*
X391020Y233930D02*
X503060D01*
X396669Y227710D02*
X423751D01*
Y211710D02*
Y227710D01*
X396669Y211710D02*
X423751D01*
X396669D02*
Y227710D01*
X967480Y652140D02*
X998480D01*
Y635640D02*
Y652140D01*
X967480Y635640D02*
X998480D01*
X967480D02*
Y652140D01*
X448580Y212470D02*
X506460D01*
Y171070D02*
Y212470D01*
X448580Y171070D02*
X506460D01*
X448580D02*
Y212470D01*
X469240Y520630D02*
X551840D01*
X469240D02*
Y569030D01*
X551840D01*
Y520630D02*
Y569030D01*
X1033621Y497889D02*
Y540971D01*
X1008539Y497889D02*
X1033621D01*
X1008539D02*
Y540971D01*
X1033621D01*
X1128350Y588170D02*
X1170350D01*
X1128350D02*
Y608170D01*
X1170350D01*
Y588170D02*
Y608170D01*
X287069Y547211D02*
X330151D01*
Y522129D02*
Y547211D01*
X287069Y522129D02*
X330151D01*
X287069D02*
Y547211D01*
X948820Y624009D02*
Y651071D01*
X933320Y624009D02*
X948820D01*
X933320D02*
Y651071D01*
X948820D01*
X962240Y565350D02*
Y590350D01*
X973240D01*
Y565350D02*
Y590350D01*
X962240Y565350D02*
X973240D01*
X96320Y13080D02*
X452320D01*
X96320D02*
Y124080D01*
X452320D01*
Y13080D02*
Y124080D01*
X350650Y509821D02*
Y536883D01*
X335150Y509821D02*
X350650D01*
X335150D02*
Y536883D01*
X350650D01*
X333090Y462980D02*
Y486980D01*
X345090D01*
Y462980D02*
Y486980D01*
X333090Y462980D02*
X345090D01*
X376840Y509970D02*
Y533970D01*
X364840Y509970D02*
X376840D01*
X364840D02*
Y533970D01*
X376840D01*
X999539Y631349D02*
Y656431D01*
Y631349D02*
X1042621D01*
Y656431D01*
X999539D02*
X1042621D01*
D97*
X723980Y231140D02*
X733980D01*
X728980Y226140D02*
Y236140D01*
X568960Y188040D02*
Y198040D01*
X563960Y193040D02*
X573960D01*
X354410Y636270D02*
X364410D01*
X359410Y631270D02*
Y641270D01*
X276860Y462360D02*
Y472360D01*
X271860Y467360D02*
X281860D01*
X308610Y497920D02*
Y507920D01*
X303610Y502920D02*
X313610D01*
X111840Y459740D02*
X121840D01*
X116840Y454740D02*
Y464740D01*
X111840Y212090D02*
X121840D01*
X116840Y207090D02*
Y217090D01*
X520700Y69830D02*
Y79830D01*
X515700Y74830D02*
X525700D01*
X645160Y189310D02*
Y199310D01*
X640160Y194310D02*
X650160D01*
X781130Y46990D02*
X791130D01*
X786130Y41990D02*
Y51990D01*
X522050Y618490D02*
X532050D01*
X527050Y613490D02*
Y623490D01*
X458550Y618490D02*
X468550D01*
X463550Y613490D02*
Y623490D01*
X929720Y185420D02*
X939720D01*
X934720Y180420D02*
Y190420D01*
X993220Y185420D02*
X1003220D01*
X998220Y180420D02*
Y190420D01*
X554990Y749380D02*
Y759380D01*
X549990Y754380D02*
X559990D01*
X435610Y749380D02*
Y759380D01*
X430610Y754380D02*
X440610D01*
X262970Y246380D02*
X272970D01*
X267970Y241380D02*
Y251380D01*
X331470Y161370D02*
Y171370D01*
X326470Y166370D02*
X336470D01*
X270590Y346710D02*
X280590D01*
X275590Y341710D02*
Y351710D01*
X727635Y694300D02*
Y704300D01*
X722635Y699300D02*
X732635D01*
X116840Y330915D02*
Y340915D01*
X111840Y335915D02*
X121840D01*
X637620Y243066D02*
X647620D01*
X642620Y238066D02*
Y248066D01*
D98*
X686480Y195140D02*
Y267140D01*
X771480Y195140D02*
Y267140D01*
X686480D02*
X771480D01*
X686480Y195140D02*
X771480D01*
X561210Y177740D02*
Y208340D01*
Y177740D02*
X576710D01*
Y208340D01*
X561210D02*
X576710D01*
X374910Y620670D02*
Y651870D01*
X343910Y620670D02*
Y651870D01*
Y620670D02*
X374910D01*
X343910Y651870D02*
X374910D01*
X269110Y452060D02*
Y482660D01*
Y452060D02*
X284610D01*
Y482660D01*
X269110D02*
X284610D01*
X293010Y518420D02*
X324210D01*
X293010Y487420D02*
X324210D01*
Y518420D01*
X293010Y487420D02*
Y518420D01*
X147840Y413690D02*
Y505790D01*
X73340D02*
X147840D01*
X73340Y413690D02*
Y505790D01*
Y413690D02*
X147840D01*
Y166040D02*
Y258140D01*
X73340D02*
X147840D01*
X73340Y166040D02*
Y258140D01*
Y166040D02*
X147840D01*
X474650Y105830D02*
X566750D01*
X474650Y31330D02*
Y105830D01*
Y31330D02*
X566750D01*
Y105830D01*
X606160Y159810D02*
X684160D01*
X606160Y228810D02*
X684160D01*
Y159810D02*
Y228810D01*
X606160Y159810D02*
Y228810D01*
X759732Y76990D02*
X812532D01*
X759732Y16990D02*
X812532D01*
X759732D02*
Y76990D01*
X812532Y16990D02*
Y76990D01*
X500648Y588490D02*
X553448D01*
X500648Y648490D02*
X553448D01*
Y588490D02*
Y648490D01*
X500648Y588490D02*
Y648490D01*
X437148Y588490D02*
X489948D01*
X437148Y648490D02*
X489948D01*
Y588490D02*
Y648490D01*
X437148Y588490D02*
Y648490D01*
X908322Y215420D02*
X961122D01*
X908322Y155420D02*
X961122D01*
X908322D02*
Y215420D01*
X961122Y155420D02*
Y215420D01*
X971822D02*
X1024622D01*
X971822Y155420D02*
X1024622D01*
X971822D02*
Y215420D01*
X1024622Y155420D02*
Y215420D01*
X503190Y724380D02*
X606790D01*
Y784380D01*
X503190D02*
X606790D01*
X503190Y724380D02*
Y784380D01*
X383810Y724380D02*
X487410D01*
Y784380D01*
X383810D02*
X487410D01*
X383810Y724380D02*
Y784380D01*
X260220Y261680D02*
X275720D01*
Y231080D02*
Y261680D01*
X260220Y231080D02*
X275720D01*
X260220D02*
Y261680D01*
X315970Y181970D02*
X346970D01*
X315970Y150770D02*
X346970D01*
X315970D02*
Y181970D01*
X346970Y150770D02*
Y181970D01*
X267840Y362010D02*
X283340D01*
Y331410D02*
Y362010D01*
X267840Y331410D02*
X283340D01*
X267840D02*
Y362010D01*
X658335Y631700D02*
X796935D01*
X658335D02*
Y777000D01*
X796935D01*
Y631700D02*
Y777000D01*
X73340Y289865D02*
X147840D01*
X73340D02*
Y381965D01*
X147840D01*
Y289865D02*
Y381965D01*
X627320Y250816D02*
X657920D01*
X627320Y235316D02*
Y250816D01*
Y235316D02*
X657920D01*
Y250816D01*
M02*
