G04*
G04 #@! TF.GenerationSoftware,Altium Limited,Altium Designer,22.7.1 (60)*
G04*
G04 Layer_Physical_Order=1*
G04 Layer_Color=255*
%FSLAX44Y44*%
%MOMM*%
G71*
G04*
G04 #@! TF.SameCoordinates,0E519C92-87A3-47E9-A83B-F09A3FC6FE1E*
G04*
G04*
G04 #@! TF.FilePolarity,Positive*
G04*
G01*
G75*
%ADD14C,0.2540*%
%ADD15R,1.9900X2.3300*%
%ADD16R,1.1000X0.7000*%
%ADD17R,2.8000X0.8600*%
%ADD18R,3.3000X0.7000*%
%ADD19R,1.8300X1.1400*%
%ADD20R,0.7800X1.0500*%
%ADD21R,0.9300X0.9000*%
%ADD22R,0.7400X2.7900*%
%ADD23R,1.5082X1.2065*%
%ADD24R,1.3300X1.3300*%
%ADD25R,0.9000X2.0000*%
%ADD26R,2.0000X0.9000*%
%ADD27R,1.0046X1.2621*%
%ADD28R,0.8000X0.8000*%
%ADD29R,1.2065X1.5082*%
%ADD30R,1.2621X1.0046*%
%ADD31R,1.3082X0.8065*%
%ADD32R,0.7500X0.9000*%
%ADD33R,0.9000X0.7500*%
%ADD34R,0.9000X0.8000*%
%ADD35R,0.8000X0.9000*%
%ADD36R,0.8300X0.6300*%
%ADD37R,1.4500X0.9500*%
%ADD38R,1.4082X1.0065*%
G04:AMPARAMS|DCode=39|XSize=0.9mm|YSize=1.45mm|CornerRadius=0.0495mm|HoleSize=0mm|Usage=FLASHONLY|Rotation=180.000|XOffset=0mm|YOffset=0mm|HoleType=Round|Shape=RoundedRectangle|*
%AMROUNDEDRECTD39*
21,1,0.9000,1.3510,0,0,180.0*
21,1,0.8010,1.4500,0,0,180.0*
1,1,0.0990,-0.4005,0.6755*
1,1,0.0990,0.4005,0.6755*
1,1,0.0990,0.4005,-0.6755*
1,1,0.0990,-0.4005,-0.6755*
%
%ADD39ROUNDEDRECTD39*%
G04:AMPARAMS|DCode=40|XSize=3.15mm|YSize=1.45mm|CornerRadius=0.0508mm|HoleSize=0mm|Usage=FLASHONLY|Rotation=180.000|XOffset=0mm|YOffset=0mm|HoleType=Round|Shape=RoundedRectangle|*
%AMROUNDEDRECTD40*
21,1,3.1500,1.3485,0,0,180.0*
21,1,3.0485,1.4500,0,0,180.0*
1,1,0.1015,-1.5243,0.6743*
1,1,0.1015,1.5243,0.6743*
1,1,0.1015,1.5243,-0.6743*
1,1,0.1015,-1.5243,-0.6743*
%
%ADD40ROUNDEDRECTD40*%
G04:AMPARAMS|DCode=41|XSize=3.2mm|YSize=1.75mm|CornerRadius=0.0525mm|HoleSize=0mm|Usage=FLASHONLY|Rotation=180.000|XOffset=0mm|YOffset=0mm|HoleType=Round|Shape=RoundedRectangle|*
%AMROUNDEDRECTD41*
21,1,3.2000,1.6450,0,0,180.0*
21,1,3.0950,1.7500,0,0,180.0*
1,1,0.1050,-1.5475,0.8225*
1,1,0.1050,1.5475,0.8225*
1,1,0.1050,1.5475,-0.8225*
1,1,0.1050,-1.5475,-0.8225*
%
%ADD41ROUNDEDRECTD41*%
G04:AMPARAMS|DCode=42|XSize=0.9mm|YSize=1.75mm|CornerRadius=0.0495mm|HoleSize=0mm|Usage=FLASHONLY|Rotation=180.000|XOffset=0mm|YOffset=0mm|HoleType=Round|Shape=RoundedRectangle|*
%AMROUNDEDRECTD42*
21,1,0.9000,1.6510,0,0,180.0*
21,1,0.8010,1.7500,0,0,180.0*
1,1,0.0990,-0.4005,0.8255*
1,1,0.0990,0.4005,0.8255*
1,1,0.0990,0.4005,-0.8255*
1,1,0.0990,-0.4005,-0.8255*
%
%ADD42ROUNDEDRECTD42*%
%ADD43R,0.9500X1.4500*%
%ADD44R,1.1500X1.1500*%
%ADD45R,1.1500X1.1500*%
%ADD46R,0.8000X0.9000*%
%ADD47R,0.6300X0.8300*%
%ADD48R,1.7145X2.1844*%
%ADD49R,2.0000X3.0000*%
%ADD64R,1.7500X1.7500*%
%ADD65C,1.7500*%
%ADD67R,1.8400X1.8400*%
%ADD68C,1.8400*%
%ADD69C,1.5406*%
%ADD70R,1.5406X1.5406*%
%ADD71C,2.0000*%
%ADD72R,2.0000X2.0000*%
%ADD75C,1.2000*%
%ADD76R,1.2000X1.2000*%
%ADD77R,2.0000X2.0000*%
%ADD78C,2.5000*%
%ADD79R,2.5000X2.5000*%
%ADD82C,0.2032*%
%ADD83C,0.6350*%
%ADD84C,2.0000*%
%ADD85C,4.0000*%
%ADD86C,1.7000*%
%ADD87R,1.7000X1.7000*%
%ADD88C,0.8000*%
%ADD89C,1.8000*%
D14*
X1147460Y770000D02*
X1170000D01*
Y747460D02*
Y770000D01*
X873760Y627126D02*
Y633666D01*
Y627126D02*
X880300D01*
X867220D02*
X873760D01*
Y620586D02*
Y627126D01*
X840740Y717550D02*
X850821D01*
X840740Y759840D02*
Y765530D01*
X847430D01*
X840740D02*
Y771220D01*
X834050Y765530D02*
X840740D01*
Y717550D02*
Y726123D01*
Y708978D02*
Y717550D01*
X830659D02*
X840740D01*
X853034Y631604D02*
Y638644D01*
Y631604D02*
X859574D01*
X854043Y614172D02*
X862615D01*
X854043Y604091D02*
Y614172D01*
X845470D02*
X854043D01*
X846494Y631604D02*
X853034D01*
X1145828Y484450D02*
X1157518D01*
X1044868Y486650D02*
Y492690D01*
Y486650D02*
X1063908D01*
X1044868Y480610D02*
Y486650D01*
X1025828D02*
X1044868D01*
X798580Y760300D02*
X811120D01*
X798580D02*
Y772840D01*
X786040Y760300D02*
X798580D01*
X711200Y632710D02*
X723740D01*
X711200D02*
Y645250D01*
Y620170D02*
Y632710D01*
X704850Y573506D02*
Y579196D01*
X768429Y550258D02*
X778510D01*
X788591D01*
X756920Y562102D02*
Y568642D01*
Y562102D02*
X763460D01*
X778510Y550258D02*
Y558831D01*
X750380Y562102D02*
X756920D01*
X751934Y549758D02*
X758974D01*
X778510Y541686D02*
Y550258D01*
X751934Y543218D02*
Y549758D01*
Y556298D01*
X744894Y549758D02*
X751934D01*
X704850Y567816D02*
Y573506D01*
X698160D02*
X704850D01*
X670814Y553052D02*
X680895D01*
X670814D02*
Y561625D01*
X660733Y553052D02*
X670814D01*
Y544480D02*
Y553052D01*
X1149628Y390650D02*
X1157668D01*
X1147699Y209550D02*
Y219793D01*
X1002952Y261706D02*
Y274246D01*
Y261706D02*
X1009992D01*
X1002952Y249166D02*
Y261706D01*
X1137456Y209550D02*
X1147699D01*
X1157942D01*
X993394Y166624D02*
Y173164D01*
Y166624D02*
X999934D01*
X1147699Y111506D02*
Y121749D01*
Y111506D02*
X1157942D01*
X1170000Y30000D02*
Y52540D01*
X1147460Y30000D02*
X1170000D01*
X1137456Y111506D02*
X1147699D01*
Y101263D02*
Y111506D01*
X1030802Y86606D02*
X1043342D01*
X1018262D02*
X1030802D01*
X993394Y160084D02*
Y166624D01*
X986854D02*
X993394D01*
X955802Y179956D02*
Y189146D01*
X974152Y179956D02*
Y189146D01*
Y161606D02*
X983342D01*
X974152Y179956D02*
X983342D01*
X937452D02*
Y189146D01*
X928262Y179956D02*
X937452D01*
X928262Y161606D02*
X937452D01*
X974152Y143256D02*
X983342D01*
X955802Y134066D02*
Y143256D01*
X974152Y134066D02*
Y143256D01*
X928262D02*
X937452D01*
Y134066D02*
Y143256D01*
X826770Y419030D02*
Y425570D01*
X833310D01*
X820230D02*
X826770D01*
X826864Y397510D02*
Y407591D01*
Y397510D02*
X835437D01*
X818292D02*
X826864D01*
Y387429D02*
Y397510D01*
X686181Y398526D02*
X697721D01*
X686181D02*
Y410066D01*
Y386986D02*
Y398526D01*
X674641D02*
X686181D01*
X638540Y360250D02*
Y371790D01*
X650080D01*
X638540D02*
Y383330D01*
X812800Y148142D02*
X819040D01*
X812800Y131652D02*
Y148142D01*
X848262Y86606D02*
X860802D01*
X873342D01*
X787400Y131652D02*
Y148142D01*
X800100Y131652D02*
Y148142D01*
X774700Y131652D02*
Y148142D01*
X762000Y131652D02*
Y148142D01*
X755760D02*
X762000D01*
X654050Y50800D02*
Y62540D01*
X642310Y50800D02*
X654050D01*
X665790D01*
X654050Y39060D02*
Y50800D01*
X591820Y632710D02*
X604360D01*
X591820D02*
Y645250D01*
Y620170D02*
Y632710D01*
X578078Y585978D02*
Y592668D01*
X625094Y580898D02*
X631634D01*
X625094D02*
Y587438D01*
X618554Y580898D02*
X625094D01*
Y574358D02*
Y580898D01*
X572388Y585978D02*
X578078D01*
X583768D01*
X578078Y579288D02*
Y585978D01*
X444246Y649732D02*
Y656272D01*
Y649732D02*
X450786D01*
X437706D02*
X444246D01*
Y643192D02*
Y649732D01*
X589628Y560832D02*
X598201D01*
X589628D02*
Y570913D01*
X581056Y560832D02*
X589628D01*
Y550751D02*
Y560832D01*
X531622Y487680D02*
Y494220D01*
Y487680D02*
X538162D01*
X531622Y481140D02*
Y487680D01*
X486156Y539402D02*
X496237D01*
X486156D02*
Y547974D01*
X476075Y539402D02*
X486156D01*
Y530829D02*
Y539402D01*
X516542Y494182D02*
Y500722D01*
X525082Y487680D02*
X531622D01*
X516542Y487642D02*
Y494182D01*
X523582D01*
X509502D02*
X516542D01*
X30000Y770000D02*
X52540D01*
X30000Y747460D02*
Y770000D01*
X93980Y718820D02*
Y729860D01*
Y718820D02*
X105020D01*
X82940D02*
X93980D01*
Y707780D02*
Y718820D01*
X71500Y622300D02*
X83990D01*
X71500D02*
Y636490D01*
X59010Y622300D02*
X71500D01*
Y608110D02*
Y622300D01*
X82233Y570230D02*
X93345D01*
X82233D02*
Y583692D01*
Y556768D02*
Y570230D01*
X366890Y549240D02*
X373930D01*
X366890D02*
Y559030D01*
X359850Y549240D02*
X366890D01*
Y539450D02*
Y549240D01*
X326644Y533290D02*
Y544830D01*
Y556370D01*
X315104Y544830D02*
X326644D01*
X338184D01*
X359760Y516200D02*
Y523240D01*
Y530280D01*
X353470Y523240D02*
X359760D01*
X359890Y481330D02*
Y498870D01*
Y481330D02*
X372430D01*
X347350D02*
X359890D01*
X71120Y570230D02*
X82233D01*
X95600Y529590D02*
Y536630D01*
X89310Y529590D02*
X95600D01*
X223520Y520700D02*
X230560D01*
X216480D02*
X223520D01*
X231490Y488260D02*
Y495300D01*
Y502340D01*
X225200Y495300D02*
X231490D01*
X223520Y520700D02*
Y531990D01*
X95600Y522550D02*
Y529590D01*
X223520Y509410D02*
Y520700D01*
X600000Y400000D02*
X622540D01*
X600000D02*
Y422540D01*
X627000Y371790D02*
X638540D01*
X577460Y400000D02*
X600000D01*
Y377460D02*
Y400000D01*
X552450Y296766D02*
X562531D01*
X566531Y285464D02*
Y292005D01*
X552450Y296766D02*
Y305339D01*
Y288194D02*
Y296766D01*
X542369D02*
X552450D01*
X491236Y461233D02*
Y469805D01*
X501317D01*
X491236D02*
Y478378D01*
X481155Y469805D02*
X491236D01*
X527050Y296766D02*
X537131D01*
X527050D02*
Y305339D01*
Y288194D02*
Y296766D01*
X516969D02*
X527050D01*
X566531Y285464D02*
X573071D01*
X603250Y50800D02*
Y62540D01*
Y50800D02*
X614990D01*
X591510D02*
X603250D01*
Y39060D02*
Y50800D01*
X359890Y463790D02*
Y481330D01*
X419862Y338472D02*
Y350012D01*
X431402D01*
X419862D02*
Y361552D01*
X408322Y350012D02*
X419862D01*
X216380Y462280D02*
X228920D01*
X216380D02*
Y479820D01*
X203840Y462280D02*
X216380D01*
Y444740D02*
Y462280D01*
X309372Y331216D02*
Y342756D01*
X106806Y385064D02*
X119296D01*
X106806D02*
Y399254D01*
X94316Y385064D02*
X106806D01*
Y370874D02*
Y385064D01*
X297832Y331216D02*
X309372D01*
Y319676D02*
Y331216D01*
X320912D01*
X110490Y307250D02*
Y319790D01*
Y332330D01*
X97950Y319790D02*
X110490D01*
X30000Y30480D02*
X52540D01*
X30000D02*
Y53020D01*
X444246Y599948D02*
X445643D01*
X450977Y594614D01*
X717296Y101824D02*
X737725Y81395D01*
X783560D01*
X804672Y239014D02*
Y257933D01*
X817434Y270695D02*
X822701D01*
X823746Y271740D01*
X804672Y257933D02*
X817434Y270695D01*
X950214Y216846D02*
Y237873D01*
X956056Y243715D02*
Y245166D01*
X950214Y237873D02*
X956056Y243715D01*
X95600Y529590D02*
X97028Y531018D01*
X82233Y567881D02*
X97028Y553085D01*
Y531018D02*
Y553085D01*
X107600Y554513D02*
X120968Y567881D01*
X107600Y529590D02*
Y554513D01*
X120968Y567881D02*
Y570230D01*
D15*
X71500Y622300D02*
D03*
X131700D02*
D03*
X167006Y385064D02*
D03*
X106806D02*
D03*
D16*
X1157668Y368650D02*
D03*
Y379650D02*
D03*
Y390650D02*
D03*
Y401650D02*
D03*
Y412650D02*
D03*
Y423650D02*
D03*
Y434650D02*
D03*
Y445650D02*
D03*
D17*
X1152668Y357850D02*
D03*
D18*
X1044868Y357050D02*
D03*
Y486650D02*
D03*
D19*
X1157518Y484450D02*
D03*
D20*
X1032268Y420900D02*
D03*
D21*
X1033018Y463550D02*
D03*
D22*
X762000Y107442D02*
D03*
X774700D02*
D03*
X787400D02*
D03*
X800100D02*
D03*
X812800D02*
D03*
X762000Y148142D02*
D03*
X774700D02*
D03*
X787400D02*
D03*
X800100D02*
D03*
X812800D02*
D03*
D23*
X631444Y278543D02*
D03*
Y299561D02*
D03*
X670814Y532035D02*
D03*
Y553052D02*
D03*
X654050Y278543D02*
D03*
Y299561D02*
D03*
X491236Y490822D02*
D03*
Y469805D02*
D03*
X552450Y296766D02*
D03*
Y275749D02*
D03*
X527050Y296766D02*
D03*
Y275749D02*
D03*
X840740Y696533D02*
D03*
Y717550D02*
D03*
X778510Y529241D02*
D03*
Y550258D02*
D03*
X486156Y560419D02*
D03*
Y539402D02*
D03*
D24*
X937452Y179956D02*
D03*
X955802D02*
D03*
X974152D02*
D03*
X937452Y161606D02*
D03*
X955802D02*
D03*
X974152D02*
D03*
X937452Y143256D02*
D03*
X955802D02*
D03*
X974152D02*
D03*
D25*
X888652Y261706D02*
D03*
X901352D02*
D03*
X914052D02*
D03*
X926752D02*
D03*
X939452D02*
D03*
X952152D02*
D03*
X964852D02*
D03*
X977552D02*
D03*
X990252D02*
D03*
X1002952D02*
D03*
D26*
X860802Y86606D02*
D03*
Y99306D02*
D03*
Y112006D02*
D03*
Y124706D02*
D03*
Y137406D02*
D03*
Y150106D02*
D03*
Y162806D02*
D03*
Y175506D02*
D03*
Y188206D02*
D03*
Y200906D02*
D03*
Y213606D02*
D03*
Y226306D02*
D03*
Y239006D02*
D03*
Y251706D02*
D03*
X1030802D02*
D03*
Y239006D02*
D03*
Y226306D02*
D03*
Y213606D02*
D03*
Y200906D02*
D03*
Y188206D02*
D03*
Y175506D02*
D03*
Y162806D02*
D03*
Y150106D02*
D03*
Y137406D02*
D03*
Y124706D02*
D03*
Y112006D02*
D03*
Y99306D02*
D03*
Y86606D02*
D03*
D27*
X821070Y466090D02*
D03*
X806054D02*
D03*
X567070Y503682D02*
D03*
X552054D02*
D03*
X532780Y468884D02*
D03*
X517764D02*
D03*
D28*
X826770Y440570D02*
D03*
Y425570D02*
D03*
D29*
X805847Y397510D02*
D03*
X826864D02*
D03*
X854043Y614172D02*
D03*
X833026D02*
D03*
X568611Y560832D02*
D03*
X589628D02*
D03*
X594171Y493522D02*
D03*
X615188D02*
D03*
X851757Y285750D02*
D03*
X830740D02*
D03*
X797973Y570738D02*
D03*
X818990D02*
D03*
D30*
X855472Y575930D02*
D03*
Y590946D02*
D03*
X836422Y530765D02*
D03*
Y545780D02*
D03*
X731012Y574914D02*
D03*
Y589930D02*
D03*
D31*
X203962Y340486D02*
D03*
Y323470D02*
D03*
D32*
X565562Y480060D02*
D03*
X553562D02*
D03*
X231490Y495300D02*
D03*
X243490D02*
D03*
X371760Y523240D02*
D03*
X359760D02*
D03*
X107600Y529590D02*
D03*
X95600D02*
D03*
D33*
X465328Y459836D02*
D03*
Y471836D02*
D03*
X759206Y598774D02*
D03*
Y610774D02*
D03*
X807466Y541492D02*
D03*
Y529492D02*
D03*
D34*
X516542Y513182D02*
D03*
Y494182D02*
D03*
X536542Y503682D02*
D03*
X751934Y530758D02*
D03*
Y549758D02*
D03*
X731934Y540258D02*
D03*
D35*
X597408Y537558D02*
D03*
X606908Y517558D02*
D03*
X587908D02*
D03*
X797814Y614012D02*
D03*
X807314Y594012D02*
D03*
X788314D02*
D03*
D36*
X704850Y573506D02*
D03*
Y551206D02*
D03*
X840740Y743230D02*
D03*
Y765530D02*
D03*
D37*
X627126Y136046D02*
D03*
Y155546D02*
D03*
X485902Y601062D02*
D03*
Y581562D02*
D03*
X805434Y421034D02*
D03*
Y440534D02*
D03*
X584200Y155546D02*
D03*
Y136046D02*
D03*
X605663D02*
D03*
Y155546D02*
D03*
D38*
X748030Y299069D02*
D03*
Y280051D02*
D03*
D39*
X366890Y549240D02*
D03*
X389890D02*
D03*
X412890D02*
D03*
D40*
X389890Y610740D02*
D03*
D41*
X246520Y583200D02*
D03*
D42*
X269520Y520700D02*
D03*
X246520D02*
D03*
X223520D02*
D03*
D43*
X710790Y530098D02*
D03*
X691290D02*
D03*
D44*
X538734Y559627D02*
D03*
Y536128D02*
D03*
D45*
X790259Y636016D02*
D03*
X766759D02*
D03*
D46*
X834034Y631604D02*
D03*
X853034D02*
D03*
X843534Y651604D02*
D03*
D47*
X555778Y585978D02*
D03*
X578078D02*
D03*
X378740Y634492D02*
D03*
X401040D02*
D03*
X234722Y614426D02*
D03*
X257022D02*
D03*
D48*
X120968Y570230D02*
D03*
X82233D02*
D03*
D49*
X276380Y462280D02*
D03*
X216380D02*
D03*
X419890Y481330D02*
D03*
X359890D02*
D03*
D64*
X1118870Y661670D02*
D03*
D65*
X968870D02*
D03*
D67*
X806450Y207010D02*
D03*
Y50800D02*
D03*
D68*
X781050Y207010D02*
D03*
X755650D02*
D03*
X730250D02*
D03*
X704850D02*
D03*
X679450D02*
D03*
X654050D02*
D03*
X628650D02*
D03*
X603250D02*
D03*
X577850D02*
D03*
X552450D02*
D03*
X527050D02*
D03*
Y50800D02*
D03*
X552450D02*
D03*
X577850D02*
D03*
X603250D02*
D03*
X628650D02*
D03*
X654050D02*
D03*
X679450D02*
D03*
X704850D02*
D03*
X730250D02*
D03*
X755650D02*
D03*
X781050D02*
D03*
D69*
X1097661Y209550D02*
D03*
Y111506D02*
D03*
D70*
X1147699Y209550D02*
D03*
Y111506D02*
D03*
D71*
X424790Y710420D02*
D03*
Y760420D02*
D03*
X224790Y710420D02*
D03*
X798580Y760300D02*
D03*
Y734900D02*
D03*
X110490Y319790D02*
D03*
X135890D02*
D03*
X685800Y632710D02*
D03*
X711200D02*
D03*
X566420D02*
D03*
X591820D02*
D03*
D72*
X224790Y760420D02*
D03*
X798580Y709500D02*
D03*
D75*
X889000Y702310D02*
D03*
Y727710D02*
D03*
D76*
Y753110D02*
D03*
D77*
X161290Y319790D02*
D03*
X660400Y632710D02*
D03*
X541020D02*
D03*
D78*
X364490Y170180D02*
D03*
X138430D02*
D03*
D79*
X364490Y93980D02*
D03*
X138430D02*
D03*
D82*
X1157555Y790000D02*
G03*
X1190000Y757554I12445J-20000D01*
G01*
X1124556Y673976D02*
G03*
X1113184Y673976I-5686J-12306D01*
G01*
X875194Y759841D02*
G03*
X870434Y757869I0J-6731D01*
G01*
X875194Y759841D02*
G03*
X870434Y757869I0J-6731D01*
G01*
X865285Y752720D02*
G03*
X863314Y747961I4760J-4759D01*
G01*
X865285Y752720D02*
G03*
X863314Y747961I4760J-4759D01*
G01*
X912415Y737296D02*
G03*
X902830Y741266I-9586J-9586D01*
G01*
X912415Y737296D02*
G03*
X902830Y741266I-9586J-9586D01*
G01*
X876776Y696450D02*
G03*
X879414Y692724I12224J5860D01*
G01*
X889000Y741266D02*
G03*
X876776Y733570I0J-13556D01*
G01*
X874805Y678342D02*
G03*
X876776Y683101I-4760J4760D01*
G01*
X874796Y678333D02*
G03*
X876776Y683101I-4751J4768D01*
G01*
X1132426Y661670D02*
G03*
X1131176Y667356I-13556J0D01*
G01*
Y655984D02*
G03*
X1132426Y661670I-12306J5686D01*
G01*
X1096330Y625574D02*
G03*
X1105916Y629544I0J13556D01*
G01*
X1096330Y625574D02*
G03*
X1105916Y629544I0J13556D01*
G01*
X982426Y661670D02*
G03*
X978455Y671256I-13556J0D01*
G01*
X979021Y652686D02*
G03*
X982426Y661670I-10151J8984D01*
G01*
X942594Y629544D02*
G03*
X952180Y625574I9586J9586D01*
G01*
X942594Y629544D02*
G03*
X952180Y625574I9586J9586D01*
G01*
X881316Y627126D02*
G03*
X881316Y627126I-7556J0D01*
G01*
X879792Y561848D02*
G03*
X872828Y569381I-7556J0D01*
G01*
X866916Y556483D02*
G03*
X879792Y561848I5321J5365D01*
G01*
X854263Y660588D02*
G03*
X859031Y662568I0J6731D01*
G01*
X854263Y660588D02*
G03*
X859023Y662559I0J6731D01*
G01*
X1171734Y534849D02*
G03*
X1166966Y536829I-4768J-4751D01*
G01*
X1179114Y524681D02*
G03*
X1177134Y529449I-6731J0D01*
G01*
X1179114Y524681D02*
G03*
X1177143Y529441I-6731J0D01*
G01*
X1171726Y534857D02*
G03*
X1166966Y536829I-4760J-4760D01*
G01*
X1049017D02*
G03*
X1044257Y534857I0J-6731D01*
G01*
X1049017Y536829D02*
G03*
X1044249Y534849I0J-6731D01*
G01*
X1150000Y467193D02*
G03*
X1148603Y465749I4684J-5929D01*
G01*
X1147311Y467041D02*
G03*
X1136898Y458417I-7359J-1713D01*
G01*
X904938Y525526D02*
G03*
X890195Y527858I-7556J0D01*
G01*
X899714Y518339D02*
G03*
X904938Y525526I-2332J7187D01*
G01*
X968595Y509933D02*
G03*
X963836Y511904I-4760J-4760D01*
G01*
X943515D02*
G03*
X938756Y509933I0J-6731D01*
G01*
X943515Y511904D02*
G03*
X938747Y509924I0J-6731D01*
G01*
X968604D02*
G03*
X963836Y511904I-4768J-4751D01*
G01*
X881634Y503047D02*
G03*
X886402Y505027I0J6731D01*
G01*
X871351Y551493D02*
G03*
X867791Y552511I-3560J-5713D01*
G01*
X871351Y551493D02*
G03*
X867791Y552511I-3560J-5713D01*
G01*
X865758Y557412D02*
G03*
X866915Y556483I4768J4751D01*
G01*
X865767Y557404D02*
G03*
X866915Y556483I4760J4760D01*
G01*
X877506Y544068D02*
G03*
X871351Y551493I-7556J0D01*
G01*
X864301Y539049D02*
G03*
X877506Y544068I5649J5019D01*
G01*
X855349Y516509D02*
G03*
X855349Y503047I-3433J-6731D01*
G01*
X881634D02*
G03*
X886394Y505019I0J6731D01*
G01*
X844151Y503186D02*
G03*
X839391Y505158I-4760J-4760D01*
G01*
X844159Y503178D02*
G03*
X839391Y505158I-4768J-4751D01*
G01*
X979772Y495967D02*
G03*
X977792Y500736I-6731J0D01*
G01*
X979772Y495967D02*
G03*
X977801Y500727I-6731J0D01*
G01*
X933007Y504183D02*
G03*
X938431Y490242I1713J-7359D01*
G01*
X926528Y499618D02*
G03*
X912241Y496185I-7556J0D01*
G01*
X925703D02*
G03*
X926528Y499618I-6731J3433D01*
G01*
X892707Y456709D02*
G03*
X902016Y445633I6325J-4134D01*
G01*
X894597Y460378D02*
G03*
X892707Y456709I4751J-4768D01*
G01*
X894588Y460369D02*
G03*
X892707Y456709I4760J-4760D01*
G01*
X878014Y467360D02*
G03*
X872790Y474547I-7556J0D01*
G01*
X872110Y459987D02*
G03*
X878014Y467360I-1652J7373D01*
G01*
X833501Y459103D02*
G03*
X831521Y463871I-6731J0D01*
G01*
X833501Y459103D02*
G03*
X831529Y463862I-6731J0D01*
G01*
X887158Y442151D02*
G03*
X885178Y446919I-6731J0D01*
G01*
X887158Y442151D02*
G03*
X885186Y446911I-6731J0D01*
G01*
X810604Y749961D02*
G03*
X805844Y747989I0J-6731D01*
G01*
X823185Y674050D02*
G03*
X818425Y672078I0J-6731D01*
G01*
X823185Y674050D02*
G03*
X818417Y672070I0J-6731D01*
G01*
X806779Y691782D02*
G03*
X811547Y689802I4768J4751D01*
G01*
X806787Y691774D02*
G03*
X811547Y689802I4760J4760D01*
G01*
X812136Y760300D02*
G03*
X791986Y748456I-13556J0D01*
G01*
X803321Y747600D02*
G03*
X812136Y760300I-4741J12700D01*
G01*
X810604Y749961D02*
G03*
X805836Y747981I0J-6731D01*
G01*
X805174Y723056D02*
G03*
X812136Y734900I-6594J11844D01*
G01*
X805174Y723056D02*
G03*
X812136Y734900I-6594J11844D01*
G01*
X810581Y664234D02*
G03*
X808609Y659474I4760J-4760D01*
G01*
X810589Y664242D02*
G03*
X808609Y659474I4751J-4768D01*
G01*
X804800Y746945D02*
G03*
X803321Y747600I-6220J-12045D01*
G01*
X804800Y746945D02*
G03*
X803321Y747600I-6220J-12045D01*
G01*
X803331Y639568D02*
G03*
X805311Y644336I-4751J4768D01*
G01*
X803340Y639577D02*
G03*
X805311Y644336I-4760J4760D01*
G01*
X820091Y597770D02*
G03*
X822071Y602538I-4751J4768D01*
G01*
X820099Y597778D02*
G03*
X822071Y602538I-4760J4760D01*
G01*
X822864Y584693D02*
G03*
X820884Y589461I-6731J0D01*
G01*
X822864Y584693D02*
G03*
X820892Y589453I-6731J0D01*
G01*
X782671Y610586D02*
G03*
X787439Y608606I4768J4751D01*
G01*
X782679Y610577D02*
G03*
X787439Y608606I4760J4760D01*
G01*
X776811Y615533D02*
G03*
X772052Y617505I-4760J-4760D01*
G01*
X776820Y615525D02*
G03*
X772052Y617505I-4768J-4751D01*
G01*
X782193Y581296D02*
G03*
X784165Y576537I6731J0D01*
G01*
X782193Y581296D02*
G03*
X784173Y576528I6731J0D01*
G01*
X762930Y748456D02*
G03*
X753345Y744485I0J-13556D01*
G01*
X762930Y748456D02*
G03*
X753345Y744485I0J-13556D01*
G01*
X746850Y705264D02*
G03*
X756435Y709234I0J13556D01*
G01*
X724756Y756920D02*
G03*
X723256Y763118I-13556J0D01*
G01*
Y750722D02*
G03*
X724756Y756920I-12056J6198D01*
G01*
X711200Y743364D02*
G03*
X717398Y744864I0J13556D01*
G01*
Y768976D02*
G03*
X711200Y770476I-6198J-12056D01*
G01*
Y732376D02*
G03*
X711200Y705264I0J-13556D01*
G01*
X746850D02*
G03*
X756435Y709234I0J13556D01*
G01*
X724756Y632710D02*
G03*
X699356Y639304I-13556J0D01*
G01*
Y660400D02*
G03*
X695386Y669986I-13556J0D01*
G01*
X699356Y660400D02*
G03*
X695386Y669986I-13556J0D01*
G01*
X751150Y616779D02*
G03*
X747810Y614958I1419J-6580D01*
G01*
X751150Y616779D02*
G03*
X747810Y614958I1419J-6580D01*
G01*
X698500Y627969D02*
G03*
X724756Y632710I12700J4741D01*
G01*
X712666Y609271D02*
G03*
X707898Y611251I-4768J-4751D01*
G01*
X712657Y609280D02*
G03*
X707898Y611251I-4760J-4760D01*
G01*
X722580Y598509D02*
G03*
X721031Y600906I-6300J-2371D01*
G01*
X722580Y598509D02*
G03*
X721040Y600897I-6300J-2371D01*
G01*
X755330Y573000D02*
G03*
X757301Y577760I-4760J4760D01*
G01*
X755321Y572992D02*
G03*
X757301Y577760I-4751J4768D01*
G01*
X692531Y620943D02*
G03*
X698500Y627969I-6731J11767D01*
G01*
X692531Y620943D02*
G03*
X698500Y627969I-6731J11767D01*
G01*
X673956Y626116D02*
G03*
X679069Y620943I11844J6594D01*
G01*
X673956Y626116D02*
G03*
X679069Y620943I11844J6594D01*
G01*
Y610526D02*
G03*
X681049Y605758I6731J0D01*
G01*
X679069Y610526D02*
G03*
X681040Y605766I6731J0D01*
G01*
X687038Y599769D02*
G03*
X691806Y597789I4768J4751D01*
G01*
X687046Y599761D02*
G03*
X691806Y597789I4760J4760D01*
G01*
X823931Y550663D02*
G03*
X819163Y548683I0J-6731D01*
G01*
X823931Y550663D02*
G03*
X819172Y548692I0J-6731D01*
G01*
X759990Y555198D02*
G03*
X764476Y562102I-3070J6904D01*
G01*
X746850Y567309D02*
G03*
X751618Y569289I0J6731D01*
G01*
X746850Y567309D02*
G03*
X751610Y569281I0J6731D01*
G01*
X764476Y562102D02*
G03*
X751075Y557314I-7556J0D01*
G01*
X750979Y523202D02*
G03*
X753950Y522510I2971J6040D01*
G01*
X750979Y523202D02*
G03*
X753950Y522510I2971J6040D01*
G01*
X773364Y446344D02*
G03*
X773874Y449072I-7046J2728D01*
G01*
D02*
G03*
X759902Y445080I-7556J0D01*
G01*
Y438232D02*
G03*
X761874Y433473I6731J0D01*
G01*
X759902Y438232D02*
G03*
X761874Y433473I6731J0D01*
G01*
X756348Y432562D02*
G03*
X745359Y439293I-7556J0D01*
G01*
X721031Y546938D02*
G03*
X723011Y551706I-4751J4768D01*
G01*
X721040Y546946D02*
G03*
X723011Y551706I-4760J4760D01*
G01*
X698754Y495427D02*
G03*
X693995Y493456I0J-6731D01*
G01*
X698754Y495427D02*
G03*
X693986Y493447I0J-6731D01*
G01*
X687278Y486739D02*
G03*
X686177Y472821I2332J-7187D01*
G01*
X693043D02*
G03*
X696797Y477220I-3433J6731D01*
G01*
X710184Y439293D02*
G03*
X705424Y437322I0J-6731D01*
G01*
X710184Y439293D02*
G03*
X705416Y437313I0J-6731D01*
G01*
X668840Y461339D02*
G03*
X673608Y459359I4768J4751D01*
G01*
X668848Y461330D02*
G03*
X673608Y459359I4760J4760D01*
G01*
X648141Y501076D02*
G03*
X643382Y503047I-4760J-4760D01*
G01*
X648150Y501067D02*
G03*
X643382Y503047I-4768J-4751D01*
G01*
X644271Y469661D02*
G03*
X642299Y474421I-6731J0D01*
G01*
X644271Y469661D02*
G03*
X642291Y474429I-6731J0D01*
G01*
X675068Y450342D02*
G03*
X660325Y452674I-7556J0D01*
G01*
X669844Y443155D02*
G03*
X675068Y450342I-2332J7187D01*
G01*
X651479Y443828D02*
G03*
X649512Y439321I4760J-4760D01*
G01*
X660990Y431760D02*
G03*
X662965Y436276I-4751J4768D01*
G01*
X660998Y431769D02*
G03*
X662965Y436276I-4760J4760D01*
G01*
X645096Y448818D02*
G03*
X644271Y452251I-7556J0D01*
G01*
X651487Y443837D02*
G03*
X649512Y439321I4751J-4768D01*
G01*
X1146493Y419224D02*
G03*
X1148612Y417787I4768J4751D01*
G01*
X1146501Y419216D02*
G03*
X1148612Y417787I4760J4760D01*
G01*
Y386769D02*
G03*
X1142294Y386922I-3326J-6785D01*
G01*
X1150000Y346905D02*
G03*
X1147143Y345600I1291J-6606D01*
G01*
X1150000Y346905D02*
G03*
X1147143Y345600I1291J-6606D01*
G01*
X1044048D02*
G03*
X1041915Y345947I-2133J-6384D01*
G01*
X1070002Y300438D02*
G03*
X1071265Y298693I6014J3023D01*
G01*
X1070002Y300438D02*
G03*
X1071256Y298702I6014J3023D01*
G01*
X1044048Y345600D02*
G03*
X1041915Y345947I-2133J-6384D01*
G01*
X1042349Y306765D02*
G03*
X1037590Y308737I-4760J-4760D01*
G01*
X1042358Y306757D02*
G03*
X1037590Y308737I-4768J-4751D01*
G01*
X1024487Y295275D02*
G03*
X1029097Y285104I6942J-2984D01*
G01*
X1104392Y241935D02*
G03*
X1102412Y246703I-6731J0D01*
G01*
X1104392Y241935D02*
G03*
X1102421Y246695I-6731J0D01*
G01*
X1086152Y283806D02*
G03*
X1100358Y283339I7187J2332D01*
G01*
X1108920Y209550D02*
G03*
X1104392Y218575I-11259J0D01*
G01*
X1090930D02*
G03*
X1086580Y211546I6731J-9025D01*
G01*
X1063702Y256457D02*
G03*
X1058934Y258437I-4768J-4751D01*
G01*
X1063694Y256465D02*
G03*
X1058934Y258437I-4760J-4760D01*
G01*
X1042995Y271206D02*
G03*
X1058100Y271526I7549J320D01*
G01*
X1055087Y243039D02*
G03*
X1051023Y244975I-4760J-4760D01*
G01*
X1087310Y230886D02*
G03*
X1082086Y238073I-7556J0D01*
G01*
X1072567Y228554D02*
G03*
X1087310Y230886I7187J2332D01*
G01*
X1055087Y243039D02*
G03*
X1051023Y244975I-4760J-4760D01*
G01*
X1022499Y280203D02*
G03*
X1017275Y287390I-7556J0D01*
G01*
X1007756Y277871D02*
G03*
X1009227Y275262I7187J2332D01*
G01*
X902016Y418877D02*
G03*
X914746Y405346I13556J0D01*
G01*
X903768Y394756D02*
G03*
X904427Y381294I-3084J-6898D01*
G01*
X885186Y399903D02*
G03*
X887158Y404662I-4760J4760D01*
G01*
X885178Y399894D02*
G03*
X887158Y404662I-4751J4768D01*
G01*
X997813Y358286D02*
G03*
X993046Y360266I-4768J-4751D01*
G01*
X996611Y284212D02*
G03*
X1001275Y284352I2116J7254D01*
G01*
X996823Y282538D02*
G03*
X996611Y284212I-6731J0D01*
G01*
X996823Y282538D02*
G03*
X996611Y284212I-6731J0D01*
G01*
X906944Y381294D02*
G03*
X911712Y383274I0J6731D01*
G01*
X906944Y381294D02*
G03*
X911704Y383266I0J6731D01*
G01*
X997805Y358294D02*
G03*
X993046Y360266I-4760J-4760D01*
G01*
X1011008Y273753D02*
G03*
X1022499Y280203I3935J6450D01*
G01*
X1009227Y275262D02*
G03*
X1011008Y273753I5716J4941D01*
G01*
X1009047Y219575D02*
G03*
X1016836Y206625I3905J-6469D01*
G01*
X982973Y233037D02*
G03*
X978205Y231057I0J-6731D01*
G01*
X982973Y233037D02*
G03*
X978214Y231065I0J-6731D01*
G01*
X956813Y237648D02*
G03*
X963612Y245166I-757J7518D01*
G01*
D02*
G03*
X962998Y248150I-7556J0D01*
G01*
X973393Y226244D02*
G03*
X982017Y215831I1713J-7359D01*
G01*
X957770Y216846D02*
G03*
X955040Y222660I-7556J0D01*
G01*
X911784Y219155D02*
G03*
X912984Y217533I5951J3146D01*
G01*
X944326Y212110D02*
G03*
X957770Y216846I5888J4736D01*
G01*
X916202Y214315D02*
G03*
X921849Y208668I7359J1713D01*
G01*
X911784Y219155D02*
G03*
X912975Y217541I5951J3146D01*
G01*
X910688Y214827D02*
G03*
X908717Y219587I-6731J0D01*
G01*
X910688Y214827D02*
G03*
X908708Y219595I-6731J0D01*
G01*
X1167188Y210538D02*
G03*
X1158958Y209034I-2984J-6942D01*
G01*
X1188970Y188852D02*
G03*
X1190000Y190177I-4760J4760D01*
G01*
X1188962Y188843D02*
G03*
X1190000Y190177I-4751J4768D01*
G01*
X1106719Y202863D02*
G03*
X1108920Y209550I-9058J6687D01*
G01*
X1015843Y156587D02*
G03*
X1016836Y143125I-2891J-6981D01*
G01*
X1190000Y42446D02*
G03*
X1157555Y10000I-20000J-12446D01*
G01*
X1128202Y96587D02*
G03*
X1130173Y101346I-4760J4760D01*
G01*
X1128193Y96578D02*
G03*
X1130173Y101346I-4751J4768D01*
G01*
X1016133Y118614D02*
G03*
X1008857Y105410I-3181J-6854D01*
G01*
D02*
G03*
X1016616Y92452I4095J-6350D01*
G01*
X1117592Y88765D02*
G03*
X1122360Y90745I0J6731D01*
G01*
X1117592Y88765D02*
G03*
X1122351Y90736I0J6731D01*
G01*
X1000950Y166624D02*
G03*
X1000950Y166624I-7556J0D01*
G01*
X914221Y201040D02*
G03*
X912241Y196272I4751J-4768D01*
G01*
X914212Y201032D02*
G03*
X912241Y196272I4760J-4760D01*
G01*
X908708Y181675D02*
G03*
X910688Y186443I-4751J4768D01*
G01*
X908717Y181683D02*
G03*
X910688Y186443I-4760J4760D01*
G01*
X923732Y145609D02*
G03*
X925703Y150368I-4760J4760D01*
G01*
X881670Y157425D02*
G03*
X886438Y159405I0J6731D01*
G01*
X881670Y157425D02*
G03*
X886430Y159396I0J6731D01*
G01*
X923723Y145600D02*
G03*
X925703Y150368I-4751J4768D01*
G01*
X880064Y120979D02*
G03*
X889583Y111460I2332J-7187D01*
G01*
X874358Y127663D02*
G03*
X885634Y134240I3720J6577D01*
G01*
X873696Y415628D02*
G03*
X867276Y415415I-2984J-6942D01*
G01*
X855940D02*
G03*
X851180Y413444I0J-6731D01*
G01*
X855940Y415415D02*
G03*
X851180Y413444I0J-6731D01*
G01*
X867282Y401954D02*
G03*
X868097Y401597I3430J6733D01*
G01*
D02*
G03*
X867091Y398057I5725J-3540D01*
G01*
X868097Y401597D02*
G03*
X867091Y398057I5725J-3540D01*
G01*
X764222Y408940D02*
G03*
X753233Y415671I-7556J0D01*
G01*
X745359Y425831D02*
G03*
X756348Y432562I3433J6731D01*
G01*
X727394Y415671D02*
G03*
X722635Y413699I0J-6731D01*
G01*
X753233Y402209D02*
G03*
X764222Y408940I3433J6731D01*
G01*
X727394Y415671D02*
G03*
X722626Y413691I0J-6731D01*
G01*
X845261Y407524D02*
G03*
X853886Y397111I1714J-7359D01*
G01*
X867091Y390834D02*
G03*
X881062Y386842I6416J-3992D01*
G01*
D02*
G03*
X880553Y389570I-7556J0D01*
G01*
X832420Y301181D02*
G03*
X821834Y308103I-7556J0D01*
G01*
X823583Y360266D02*
G03*
X819277Y361823I-4305J-5174D01*
G01*
X866504Y308737D02*
G03*
X861744Y306765I0J-6731D01*
G01*
X866504Y308737D02*
G03*
X861736Y306757I0J-6731D01*
G01*
X842168Y286768D02*
G03*
X841447Y286143I4039J-5385D01*
G01*
X842168Y286768D02*
G03*
X841439Y286135I4039J-5385D01*
G01*
X831054Y296847D02*
G03*
X832420Y301181I-6190J4334D01*
G01*
X823583Y360266D02*
G03*
X819277Y361823I-4305J-5174D01*
G01*
X716599Y407663D02*
G03*
X725223Y397249I1713J-7359D01*
G01*
X803279Y361823D02*
G03*
X793267Y351376I-3433J-6731D01*
G01*
X780288D02*
G03*
X772804Y326517I0J-13556D01*
G01*
X801603Y308103D02*
G03*
X796835Y306123I0J-6731D01*
G01*
X801603Y308103D02*
G03*
X796843Y306131I0J-6731D01*
G01*
X793289Y302577D02*
G03*
X783435Y307296I-7182J-2349D01*
G01*
X783435D02*
G03*
X779272Y308737I-4162J-5290D01*
G01*
X783435Y307296D02*
G03*
X779272Y308737I-4162J-5290D01*
G01*
X699398Y295275D02*
G03*
X698246Y287150I5706J-4953D01*
G01*
X692866Y424763D02*
G03*
X702385Y415244I2332J-7187D01*
G01*
X692785Y355907D02*
G03*
X690805Y360675I-6731J0D01*
G01*
X692785Y355907D02*
G03*
X690814Y360667I-6731J0D01*
G01*
X698737Y398526D02*
G03*
X698737Y398526I-12556J0D01*
G01*
X679323Y325284D02*
G03*
X681294Y320524I6731J0D01*
G01*
X679323Y325284D02*
G03*
X681303Y320516I6731J0D01*
G01*
X659634Y372809D02*
G03*
X655701Y362357I2798J-7019D01*
G01*
X643336Y433145D02*
G03*
X652855Y423626I2332J-7187D01*
G01*
X639213Y412267D02*
G03*
X637323Y413596I-4760J-4760D01*
G01*
X639222Y412258D02*
G03*
X637323Y413596I-4768J-4751D01*
G01*
X676846Y323279D02*
G03*
X672345Y330190I-7556J0D01*
G01*
X655701Y330583D02*
G03*
X657673Y325824I6731J0D01*
G01*
X661931Y321566D02*
G03*
X676846Y323279I7359J1713D01*
G01*
X655701Y330583D02*
G03*
X657681Y325816I6731J0D01*
G01*
X686792Y315026D02*
G03*
X691552Y313055I4760J4760D01*
G01*
X686784Y315035D02*
G03*
X691552Y313055I4768J4751D01*
G01*
X680980Y292068D02*
G03*
X685739Y294039I0J6731D01*
G01*
X680980Y292068D02*
G03*
X685748Y294047I0J6731D01*
G01*
X684187Y308737D02*
G03*
X679428Y306765I0J-6731D01*
G01*
X684187Y308737D02*
G03*
X679419Y306757I0J-6731D01*
G01*
X686751Y224797D02*
G03*
X692594Y232156I-1713J7359D01*
G01*
X692150Y208204D02*
G03*
X681212Y219644I-12700J-1194D01*
G01*
D02*
G03*
X682747Y220793I-3225J5908D01*
G01*
X692594Y232156D02*
G03*
X678127Y235210I-7556J0D01*
G01*
X681212Y219644D02*
G03*
X682756Y220801I-3225J5908D01*
G01*
X658810Y249131D02*
G03*
X660781Y253890I-4760J4760D01*
G01*
X658801Y249122D02*
G03*
X660781Y253890I-4751J4768D01*
G01*
X847246Y180489D02*
G03*
X844835Y178941I2349J-6308D01*
G01*
X874358Y156898D02*
G03*
X881334Y157425I2984J6942D01*
G01*
X847246Y180489D02*
G03*
X844835Y178941I2349J-6308D01*
G01*
X879577Y141646D02*
G03*
X875790Y142812I-3787J-5565D01*
G01*
X885634Y134240D02*
G03*
X879577Y141646I-7556J0D01*
G01*
D02*
G03*
X875790Y142812I-3787J-5565D01*
G01*
X823342Y165544D02*
G03*
X828110Y167524I0J6731D01*
G01*
X823342Y165544D02*
G03*
X828102Y167516I0J6731D01*
G01*
X823755Y157860D02*
G03*
X821784Y153101I4760J-4760D01*
G01*
X823755Y157860D02*
G03*
X821784Y153101I4760J-4760D01*
G01*
Y130032D02*
G03*
X823755Y125272I6731J0D01*
G01*
X821784Y130032D02*
G03*
X823764Y125264I6731J0D01*
G01*
X826356Y107442D02*
G03*
X820056Y118893I-13556J0D01*
G01*
X885184Y98240D02*
G03*
X874902Y105287I-7556J0D01*
G01*
X874358Y91428D02*
G03*
X885184Y98240I3270J6812D01*
G01*
X844136Y102914D02*
G03*
X847246Y102301I2984J6942D01*
G01*
X842165Y91038D02*
G03*
X844136Y95797I-4760J4760D01*
G01*
X842156Y91029D02*
G03*
X844136Y95797I-4751J4768D01*
G01*
X830674Y99040D02*
G03*
X842061Y90934I4028J-6393D01*
G01*
X840472Y80000D02*
G03*
X830199Y70235I-3330J-6783D01*
G01*
X820056Y95991D02*
G03*
X826356Y107442I-7256J11451D01*
G01*
X831786Y27940D02*
G03*
X826724Y35073I-7556J0D01*
G01*
X819398Y46785D02*
G03*
X820006Y50800I-12948J4015D01*
G01*
X819398Y46785D02*
G03*
X820006Y50800I-12948J4015D01*
G01*
X825943Y20581D02*
G03*
X831786Y27940I-1713J7359D01*
G01*
X820006Y50800D02*
G03*
X819206Y55388I-13556J0D01*
G01*
X820006Y50800D02*
G03*
X819206Y55388I-13556J0D01*
G01*
X818449Y15875D02*
G03*
X823217Y17855I0J6731D01*
G01*
X818449Y15875D02*
G03*
X823209Y17846I0J6731D01*
G01*
X698246Y217923D02*
G03*
X692150Y208204I6604J-10913D01*
G01*
X683450Y162560D02*
G03*
X682836Y165544I-7556J0D01*
G01*
X678949Y155649D02*
G03*
X683450Y162560I-3054J6911D01*
G01*
X668952Y165544D02*
G03*
X668535Y164273I6942J-2984D01*
G01*
X662253Y157992D02*
G03*
X660273Y153223I4751J-4768D01*
G01*
X662244Y157983D02*
G03*
X660273Y153223I4760J-4760D01*
G01*
X777746Y76569D02*
G03*
X786544Y74454I5814J4826D01*
G01*
X734312Y77983D02*
G03*
X737725Y76569I3413J3413D01*
G01*
X781050Y64356D02*
G03*
X767936Y54232I0J-13556D01*
G01*
D02*
G03*
X742950Y51994I-12286J-3432D01*
G01*
X739963Y127950D02*
G03*
X720792Y108778I-9585J-9586D01*
G01*
X721406Y108165D02*
G03*
X717995Y94300I-4110J-6340D01*
G01*
X734305Y77990D02*
G03*
X737725Y76569I3420J3405D01*
G01*
X742950Y51994D02*
G03*
X717550Y51994I-12700J-1194D01*
G01*
X766597Y30334D02*
G03*
X767863Y29337I4768J4751D01*
G01*
X766606Y30326D02*
G03*
X767863Y29337I4760J4760D01*
G01*
X742950Y49606D02*
G03*
X758552Y38379I12700J1194D01*
G01*
X717550Y49606D02*
G03*
X742950Y49606I12700J1194D01*
G01*
X717550Y51994D02*
G03*
X692150Y51994I-12700J-1194D01*
G01*
X674560Y100584D02*
G03*
X673735Y104017I-7556J0D01*
G01*
X660273D02*
G03*
X674560Y100584I6731J-3433D01*
G01*
X666750Y51994D02*
G03*
X641350Y51994I-12700J-1194D01*
G01*
X692150D02*
G03*
X666750Y51994I-12700J-1194D01*
G01*
X692150Y49606D02*
G03*
X717550Y49606I12700J1194D01*
G01*
X666750D02*
G03*
X692150Y49606I12700J1194D01*
G01*
X641350D02*
G03*
X666750Y49606I12700J1194D01*
G01*
X636966Y728406D02*
G03*
X617794Y709234I-9586J-9586D01*
G01*
X579976Y695960D02*
G03*
X576006Y705546I-13556J0D01*
G01*
X579976Y695960D02*
G03*
X576006Y705546I-13556J0D01*
G01*
X553146Y728406D02*
G03*
X530480Y715259I-9586J-9586D01*
G01*
X605376Y632710D02*
G03*
X579976Y639304I-13556J0D01*
G01*
X579120Y627969D02*
G03*
X605376Y632710I12700J4741D01*
G01*
X554576Y626116D02*
G03*
X579120Y627969I11844J6594D01*
G01*
X635258Y600837D02*
G03*
X640026Y602817I0J6731D01*
G01*
X635258Y600837D02*
G03*
X640018Y602808I0J6731D01*
G01*
X554576Y626116D02*
G03*
X579120Y627969I11844J6594D01*
G01*
X632650Y580898D02*
G03*
X632650Y580898I-7556J0D01*
G01*
X549072Y586771D02*
G03*
X549022Y585953I6681J-818D01*
G01*
X560513Y573284D02*
G03*
X562484Y578044I-4760J4760D01*
G01*
X560504Y573275D02*
G03*
X562484Y578044I-4751J4768D01*
G01*
X549072Y586771D02*
G03*
X549022Y585953I6681J-818D01*
G01*
Y581146D02*
G03*
X545465Y576714I3682J-6598D01*
G01*
X481151Y665930D02*
G03*
X479171Y661162I4751J-4768D01*
G01*
X481143Y665921D02*
G03*
X479171Y661162I4760J-4760D01*
G01*
X433881Y770476D02*
G03*
X411234Y760420I-9091J-10056D01*
G01*
X433881Y770476D02*
G03*
X411234Y760420I-9091J-10056D01*
G01*
X433881Y770476D02*
G03*
X411234Y760420I-9091J-10056D01*
G01*
X424790Y696864D02*
G03*
X438346Y710420I0J13556D01*
G01*
X424790Y696864D02*
G03*
X438346Y710420I0J13556D01*
G01*
X424790Y696864D02*
G03*
X438346Y710420I0J13556D01*
G01*
X451802Y649732D02*
G03*
X451802Y649732I-7556J0D01*
G01*
X425220Y639252D02*
G03*
X420460Y641223I-4760J-4760D01*
G01*
X425228Y639243D02*
G03*
X420460Y641223I-4768J-4751D01*
G01*
X430911Y630772D02*
G03*
X428940Y635532I-6731J0D01*
G01*
X430911Y630772D02*
G03*
X428931Y635540I-6731J0D01*
G01*
X409196Y617482D02*
G03*
X405132Y621546I-4063J0D01*
G01*
X428940Y595696D02*
G03*
X430911Y600456I-4760J4760D01*
G01*
X428931Y595688D02*
G03*
X430911Y600456I-4751J4768D01*
G01*
X405132Y599934D02*
G03*
X409196Y603997I0J4063D01*
G01*
X559792Y571929D02*
G03*
X560063Y572835I-7088J2619D01*
G01*
X559023Y570405D02*
G03*
X559792Y571929I-6319J4143D01*
G01*
X545465Y572382D02*
G03*
X547647Y568933I7239J2166D01*
G01*
X548040Y568603D02*
G03*
X559023Y570405I4664J5945D01*
G01*
X621919Y509278D02*
G03*
X619948Y514038I-6731J0D01*
G01*
X621919Y509278D02*
G03*
X619939Y514046I-6731J0D01*
G01*
X545323Y482318D02*
G03*
X546256Y478899I6731J0D01*
G01*
X545323Y482318D02*
G03*
X546256Y478899I6731J0D01*
G01*
X522160Y536956D02*
G03*
X513218Y544384I-7556J0D01*
G01*
X506043Y532520D02*
G03*
X510607Y530544I4768J4751D01*
G01*
X506052Y532512D02*
G03*
X510607Y530544I4760J4760D01*
G01*
X510607D02*
G03*
X522160Y536956I3997J6412D01*
G01*
X420946Y555995D02*
G03*
X419621Y558992I-4051J0D01*
G01*
X449707Y516404D02*
G03*
X447735Y521164I-6731J0D01*
G01*
X449707Y516404D02*
G03*
X447727Y521172I-6731J0D01*
G01*
X404834Y542485D02*
G03*
X408885Y538434I4051J0D01*
G01*
X539178Y487680D02*
G03*
X524598Y490465I-7556J0D01*
G01*
X524140Y486626D02*
G03*
X539178Y487680I7482J1054D01*
G01*
X480139Y494370D02*
G03*
X477439Y492716I2068J-6406D01*
G01*
X480139Y494370D02*
G03*
X477447Y492724I2068J-6406D01*
G01*
X402089Y669977D02*
G03*
X397321Y671957I-4768J-4751D01*
G01*
X375394Y723976D02*
G03*
X365809Y720006I0J-13556D01*
G01*
X402080Y669986D02*
G03*
X397321Y671957I-4760J-4760D01*
G01*
X407771Y661506D02*
G03*
X405800Y666266I-6731J0D01*
G01*
X407771Y661506D02*
G03*
X405791Y666274I-6731J0D01*
G01*
X375394Y723976D02*
G03*
X365809Y720006I0J-13556D01*
G01*
X372009Y620573D02*
G03*
X370584Y617482I2639J-3090D01*
G01*
X211234Y710420D02*
G03*
X238346Y710420I13556J0D01*
G01*
X307594Y629064D02*
G03*
X317180Y633034I0J13556D01*
G01*
X307594Y629064D02*
G03*
X317180Y633034I0J13556D01*
G01*
X355310Y617471D02*
G03*
X350550Y615499I0J-6731D01*
G01*
X355310Y617471D02*
G03*
X350550Y615499I0J-6731D01*
G01*
X278318Y619185D02*
G03*
X273558Y621157I-4760J-4760D01*
G01*
X278326Y619177D02*
G03*
X273558Y621157I-4768J-4751D01*
G01*
X370584Y603997D02*
G03*
X374647Y599934I4063J0D01*
G01*
X408139Y593934D02*
G03*
X406159Y589166I4751J-4768D01*
G01*
X408131Y593926D02*
G03*
X406159Y589166I4760J-4760D01*
G01*
X250316Y615005D02*
G03*
X250316Y613847I6706J-580D01*
G01*
X261995Y570894D02*
G03*
X266076Y574975I0J4081D01*
G01*
Y591425D02*
G03*
X261995Y595506I-4081J0D01*
G01*
X247456D02*
G03*
X241453Y596753I-5686J-12306D01*
G01*
X227991Y594132D02*
G03*
X226964Y591425I3054J-2707D01*
G01*
X211234Y710420D02*
G03*
X238346Y710420I13556J0D01*
G01*
X152020Y656176D02*
G03*
X142435Y652206I0J-13556D01*
G01*
X152020Y656176D02*
G03*
X142435Y652206I0J-13556D01*
G01*
X93980Y770476D02*
G03*
X87782Y768976I0J-13556D01*
G01*
X81924Y763118D02*
G03*
X81924Y750722I12056J-6198D01*
G01*
X53556Y770000D02*
G03*
X42445Y790000I-23556J0D01*
G01*
X10000Y757555D02*
G03*
X53556Y770000I20000J12445D01*
G01*
X87782Y744864D02*
G03*
X93980Y743364I6198J12056D01*
G01*
X106036Y718820D02*
G03*
X106036Y718820I-12056J0D01*
G01*
X118194Y625063D02*
G03*
X118144Y623900I13506J-1163D01*
G01*
X118194Y625063D02*
G03*
X118144Y623900I13506J-1163D01*
G01*
X140350Y570019D02*
G03*
X145256Y580457I-8650J10438D01*
G01*
X108839Y576285D02*
G03*
X108839Y564175I12128J-6055D01*
G01*
X397946Y555995D02*
G03*
X396621Y558992I-4051J0D01*
G01*
X406159D02*
G03*
X404834Y555995I2726J-2997D01*
G01*
X383159Y558992D02*
G03*
X381834Y555995I2726J-2997D01*
G01*
X374946D02*
G03*
X370895Y560046I-4051J0D01*
G01*
X393895Y538434D02*
G03*
X397946Y542485I0J4051D01*
G01*
X374480Y540600D02*
G03*
X374946Y542485I-3586J1885D01*
G01*
X370895Y538434D02*
G03*
X372780Y538899I0J4051D01*
G01*
X362885Y560046D02*
G03*
X358834Y555995I0J-4051D01*
G01*
X339200Y544830D02*
G03*
X339200Y544830I-12556J0D01*
G01*
X358834Y542485D02*
G03*
X362885Y538434I4051J0D01*
G01*
X367575Y533695D02*
G03*
X366032Y531296I4760J-4760D01*
G01*
X367584Y533703D02*
G03*
X366032Y531296I4751J-4768D01*
G01*
X396327Y488404D02*
G03*
X401095Y486424I4768J4751D01*
G01*
X396335Y488396D02*
G03*
X401095Y486424I4760J4760D01*
G01*
X265515Y533006D02*
G03*
X261464Y528955I0J-4051D01*
G01*
Y512445D02*
G03*
X265515Y508394I4051J0D01*
G01*
X254576Y528955D02*
G03*
X250525Y533006I-4051J0D01*
G01*
Y508394D02*
G03*
X254576Y512445I0J4051D01*
G01*
X273525Y508394D02*
G03*
X277576Y512445I0J4051D01*
G01*
X254445Y498735D02*
G03*
X250796Y500614I-4760J-4760D01*
G01*
X254453Y498726D02*
G03*
X250796Y500614I-4768J-4751D01*
G01*
X183388Y563720D02*
G03*
X183388Y536608I0J-13556D01*
G01*
X155542Y549212D02*
G03*
X151572Y558797I-13556J0D01*
G01*
X155542Y549212D02*
G03*
X151572Y558797I-13556J0D01*
G01*
X208734Y536608D02*
G03*
X218320Y540578I0J13556D01*
G01*
X208734Y536608D02*
G03*
X218320Y540578I0J13556D01*
G01*
X231576Y528955D02*
G03*
X227525Y533006I-4051J0D01*
G01*
X242515D02*
G03*
X238464Y528955I0J-4051D01*
G01*
X219515Y533006D02*
G03*
X215464Y528955I0J-4051D01*
G01*
X104195Y557933D02*
G03*
X102774Y554513I3405J-3420D01*
G01*
X104187Y557925D02*
G03*
X102774Y554513I3413J-3413D01*
G01*
X238464Y517897D02*
G03*
X236759Y513420I5026J-4478D01*
G01*
X238464Y517897D02*
G03*
X236759Y513420I5026J-4478D01*
G01*
X227525Y508394D02*
G03*
X231576Y512445I0J4051D01*
G01*
X215464D02*
G03*
X219515Y508394I4051J0D01*
G01*
X128430Y498602D02*
G03*
X155542Y498602I13556J0D01*
G01*
X634107Y442087D02*
G03*
X645096Y448818I3433J6731D01*
G01*
X612915Y444067D02*
G03*
X617683Y442087I4768J4751D01*
G01*
X616030Y459991D02*
G03*
X611270Y461962I-4760J-4760D01*
G01*
X616038Y459982D02*
G03*
X611270Y461962I-4768J-4751D01*
G01*
X629134Y402748D02*
G03*
X631023Y401419I4760J4760D01*
G01*
X629134Y402748D02*
G03*
X631023Y401419I4760J4760D01*
G01*
X612924Y444058D02*
G03*
X617683Y442087I4760J4760D01*
G01*
X623556Y400000D02*
G03*
X620771Y411110I-23556J0D01*
G01*
X579183Y461962D02*
G03*
X574423Y459991I0J-6731D01*
G01*
X588942Y448500D02*
G03*
X593552Y438329I6942J-2984D01*
G01*
X579183Y461962D02*
G03*
X574415Y459982I0J-6731D01*
G01*
X636669Y384206D02*
G03*
X637476Y387604I-6749J3398D01*
G01*
X626265Y374430D02*
G03*
X651096Y371790I12275J-2640D01*
G01*
D02*
G03*
X636669Y384206I-12556J0D01*
G01*
X619319Y386522D02*
G03*
X623556Y400000I-19319J13479D01*
G01*
X637476Y387604D02*
G03*
X622733Y389936I-7556J0D01*
G01*
X611109Y420772D02*
G03*
X613479Y380681I-11109J-20772D01*
G01*
X610382Y361335D02*
G03*
X615150Y363315I0J6731D01*
G01*
X610382Y361335D02*
G03*
X615141Y363306I0J6731D01*
G01*
X604456Y323850D02*
G03*
X593467Y330581I-7556J0D01*
G01*
X556196Y393192D02*
G03*
X550972Y400379I-7556J0D01*
G01*
X549351Y385670D02*
G03*
X556196Y393192I-711J7523D01*
G01*
X552676Y363306D02*
G03*
X557435Y361335I4760J4760D01*
G01*
X552668Y363315D02*
G03*
X557435Y361335I4768J4751D01*
G01*
X593467Y317119D02*
G03*
X604456Y323850I3433J6731D01*
G01*
X574087Y285464D02*
G03*
X563547Y292406I-7556J0D01*
G01*
X556540Y330581D02*
G03*
X551780Y328610I0J-6731D01*
G01*
X556540Y330581D02*
G03*
X551772Y328601I0J-6731D01*
G01*
X533262Y455447D02*
G03*
X535127Y459017I-4760J4760D01*
G01*
X533262Y455447D02*
G03*
X535127Y459017I-4760J4760D01*
G01*
X520371Y418814D02*
G03*
X522351Y423582I-4751J4768D01*
G01*
X520379Y418822D02*
G03*
X522351Y423582I-4760J4760D01*
G01*
X520827Y362357D02*
G03*
X521652Y365790I-6731J3433D01*
G01*
X514530Y413666D02*
G03*
X516668Y415111I-2630J6196D01*
G01*
X514530Y413666D02*
G03*
X516660Y415103I-2630J6196D01*
G01*
X483106Y378841D02*
G03*
X487874Y380821I0J6731D01*
G01*
X521652Y365790D02*
G03*
X507365Y362357I-7556J0D01*
G01*
X483106Y378841D02*
G03*
X487865Y380812I0J6731D01*
G01*
X520512Y347369D02*
G03*
X520827Y349405I-6416J2036D01*
G01*
X520512Y347369D02*
G03*
X520827Y349405I-6416J2036D01*
G01*
X518540Y338333D02*
G03*
X520512Y343092I-4760J4760D01*
G01*
X518532Y338325D02*
G03*
X520512Y343092I-4751J4768D01*
G01*
X538147Y299546D02*
G03*
X541353Y299592I1496J7406D01*
G01*
X537311Y314140D02*
G03*
X532110Y306355I2332J-7187D01*
G01*
X507365Y351127D02*
G03*
X507049Y349090I6416J-2036D01*
G01*
X507365Y351127D02*
G03*
X507049Y349090I6416J-2036D01*
G01*
X515810Y316484D02*
G03*
X501523Y313051I-7556J0D01*
G01*
X514985D02*
G03*
X515810Y316484I-6731J3433D01*
G01*
X487380Y326211D02*
G03*
X496899Y316692I2332J-7187D01*
G01*
X513013Y286705D02*
G03*
X514985Y291465I-4760J4760D01*
G01*
X513005Y286696D02*
G03*
X514985Y291465I-4751J4768D01*
G01*
X501523Y309087D02*
G03*
X494852Y308991I-3238J-6827D01*
G01*
Y295529D02*
G03*
X501523Y295433I3433J6731D01*
G01*
X636203Y259655D02*
G03*
X638175Y264414I-4760J4760D01*
G01*
X636195Y259646D02*
G03*
X638175Y264414I-4751J4768D01*
G01*
X612856Y255345D02*
G03*
X610920Y241922I2332J-7187D01*
G01*
X619564Y241998D02*
G03*
X622375Y245826I-4376J6160D01*
G01*
X610920Y241922D02*
G03*
X607167Y240026I1006J-6655D01*
G01*
X610920Y241922D02*
G03*
X607158Y240018I1006J-6655D01*
G01*
X596836Y263906D02*
G03*
X591716Y271059I-7556J0D01*
G01*
X582266Y280509D02*
G03*
X577506Y282481I-4760J-4760D01*
G01*
X582274Y280501D02*
G03*
X577506Y282481I-4768J-4751D01*
G01*
X598499Y231359D02*
G03*
X596519Y226591I4751J-4768D01*
G01*
X598490Y231350D02*
G03*
X596519Y226591I4760J-4760D01*
G01*
X582061Y261676D02*
G03*
X596836Y263906I7219J2230D01*
G01*
X573473Y282481D02*
G03*
X574087Y285464I-6942J2984D01*
G01*
X596519Y217846D02*
G03*
X592414Y213741I6731J-10836D01*
G01*
X579449Y173308D02*
G03*
X577469Y168540I4751J-4768D01*
G01*
X579440Y173300D02*
G03*
X577469Y168540I4760J-4760D01*
G01*
X588686Y213741D02*
G03*
X565150Y208204I-10836J-6731D01*
G01*
D02*
G03*
X559181Y217846I-12700J-1194D01*
G01*
X565150Y205816D02*
G03*
X581157Y194690I12700J1194D01*
G01*
X631885Y116182D02*
G03*
X633857Y120942I-4760J4760D01*
G01*
X631877Y116174D02*
G03*
X633857Y120942I-4751J4768D01*
G01*
X615950Y49606D02*
G03*
X641350Y49606I12700J1194D01*
G01*
Y51994D02*
G03*
X615950Y51994I-12700J-1194D01*
G01*
D02*
G03*
X590550Y51994I-12700J-1194D01*
G01*
Y49606D02*
G03*
X615950Y49606I12700J1194D01*
G01*
X590550Y51994D02*
G03*
X584581Y61636I-12700J-1194D01*
G01*
X565150Y49606D02*
G03*
X590550Y49606I12700J1194D01*
G01*
X559172Y287178D02*
G03*
X558976Y285338I7359J-1714D01*
G01*
X545719Y217846D02*
G03*
X539750Y208204I6731J-10836D01*
G01*
D02*
G03*
X533781Y217846I-12700J-1194D01*
G01*
X539750Y205816D02*
G03*
X565150Y205816I12700J1194D01*
G01*
X539750Y49606D02*
G03*
X565150Y49606I12700J1194D01*
G01*
X531429Y144963D02*
G03*
X540447Y134942I1971J-7294D01*
G01*
X520319Y217846D02*
G03*
X539750Y205816I6731J-10836D01*
G01*
X523498Y74293D02*
G03*
X521518Y69525I4751J-4768D01*
G01*
X523489Y74284D02*
G03*
X521518Y69525I4760J-4760D01*
G01*
Y62294D02*
G03*
X539750Y49606I5532J-11494D01*
G01*
X457272Y477210D02*
G03*
X455653Y476012I3149J-5949D01*
G01*
X457272Y477210D02*
G03*
X455661Y476021I3149J-5949D01*
G01*
X450354Y470713D02*
G03*
X449707Y469963I4760J-4760D01*
G01*
X450362Y470721D02*
G03*
X449707Y469963I4751J-4768D01*
G01*
X480139Y466031D02*
G03*
X479353Y466077I-786J-6685D01*
G01*
X480139Y466031D02*
G03*
X479353Y466077I-786J-6685D01*
G01*
X342740Y430499D02*
G03*
X338770Y440084I-13556J0D01*
G01*
X427647Y434118D02*
G03*
X425667Y429350I4751J-4768D01*
G01*
X427639Y434110D02*
G03*
X425667Y429350I4760J-4760D01*
G01*
Y424090D02*
G03*
X427639Y419330I6731J0D01*
G01*
X425667Y424090D02*
G03*
X427647Y419322I6731J0D01*
G01*
X342740Y430499D02*
G03*
X338770Y440084I-13556J0D01*
G01*
X444785Y402184D02*
G03*
X449553Y400204I4768J4751D01*
G01*
X444794Y402175D02*
G03*
X449553Y400204I4760J4760D01*
G01*
X429137Y392303D02*
G03*
X419796Y390283I-3433J-6731D01*
G01*
X419550Y381188D02*
G03*
X429137Y378841I6154J4384D01*
G01*
X417825Y378232D02*
G03*
X419550Y381188I-4760J4760D01*
G01*
X417816Y378224D02*
G03*
X419550Y381188I-4751J4768D01*
G01*
X432418Y350012D02*
G03*
X432418Y350012I-12556J0D01*
G01*
X378046Y369170D02*
G03*
X374076Y378756I-13556J0D01*
G01*
X378046Y369170D02*
G03*
X374076Y378756I-13556J0D01*
G01*
X315628Y404476D02*
G03*
X319598Y394891I13556J0D01*
G01*
X386917Y366363D02*
G03*
X384937Y361595I4751J-4768D01*
G01*
X386908Y366354D02*
G03*
X384937Y361595I4760J-4760D01*
G01*
X311988Y466866D02*
G03*
X302402Y470836I-9586J-9586D01*
G01*
X311988Y466866D02*
G03*
X302402Y470836I-9586J-9586D01*
G01*
X315628Y404476D02*
G03*
X319598Y394891I13556J0D01*
G01*
X232266Y393700D02*
G03*
X207456Y390965I-12556J0D01*
G01*
X216975Y381446D02*
G03*
X232266Y393700I2735J12254D01*
G01*
X199211Y382720D02*
G03*
X197231Y377952I4751J-4768D01*
G01*
X199202Y382711D02*
G03*
X197231Y377952I4760J-4760D01*
G01*
X321928Y331216D02*
G03*
X321928Y331216I-12556J0D01*
G01*
X153500Y386227D02*
G03*
X153450Y385064I13506J-1163D01*
G01*
X180562D02*
G03*
X180512Y386227I-13556J0D01*
G01*
X384937Y306234D02*
G03*
X386917Y301466I6731J0D01*
G01*
X384937Y306234D02*
G03*
X386908Y301474I6731J0D01*
G01*
X390882Y297500D02*
G03*
X395642Y295529I4760J4760D01*
G01*
X390874Y297509D02*
G03*
X395642Y295529I4768J4751D01*
G01*
X197774Y313059D02*
G03*
X202542Y315039I0J6731D01*
G01*
X197774Y313059D02*
G03*
X202534Y315030I0J6731D01*
G01*
X456767Y249496D02*
G03*
X454787Y244729I4751J-4768D01*
G01*
X456758Y249488D02*
G03*
X454787Y244729I4760J-4760D01*
G01*
Y26326D02*
G03*
X456758Y21566I6731J0D01*
G01*
X460470Y17855D02*
G03*
X465238Y15875I4768J4751D01*
G01*
X460478Y17846D02*
G03*
X465238Y15875I4760J4760D01*
G01*
X454787Y26326D02*
G03*
X456767Y21558I6731J0D01*
G01*
X145476Y232351D02*
G03*
X149446Y241937I-9586J9586D01*
G01*
X145476Y232351D02*
G03*
X149446Y241937I-9586J9586D01*
G01*
X380546Y170180D02*
G03*
X378046Y178784I-16056J0D01*
G01*
X355886Y156624D02*
G03*
X380546Y170180I8604J13556D01*
G01*
X147734Y326384D02*
G03*
X123190Y324531I-11844J-6594D01*
G01*
X147734Y326384D02*
G03*
X123190Y324531I-11844J-6594D01*
G01*
D02*
G03*
X122334Y313196I-12700J-4741D01*
G01*
X55438Y180657D02*
G03*
X51468Y171071I9586J-9586D01*
G01*
X55438Y180657D02*
G03*
X51468Y171071I9586J-9586D01*
G01*
X147034Y183736D02*
G03*
X147034Y156624I-8604J-13556D01*
G01*
X51468Y104934D02*
G03*
X55438Y95349I13556J0D01*
G01*
X51468Y104934D02*
G03*
X55438Y95349I13556J0D01*
G01*
X67154Y83632D02*
G03*
X76740Y79662I9586J9586D01*
G01*
X67154Y83632D02*
G03*
X76740Y79662I9586J9586D01*
G01*
X41638Y10000D02*
G03*
X53556Y30480I-11638J20480D01*
G01*
D02*
G03*
X10000Y42925I-23556J0D01*
G01*
X1185004Y751840D02*
X1190000D01*
X1173846Y746760D02*
X1190000D01*
X928351Y721360D02*
X1190000D01*
X933431Y716280D02*
X1190000D01*
X923271Y726440D02*
X1190000D01*
X898556Y751840D02*
X1154997D01*
X898556Y746760D02*
X1166155D01*
X898556Y762000D02*
X1147844D01*
X898556Y756920D02*
X1150409D01*
X913111Y736600D02*
X1190000D01*
X918191Y731520D02*
X1190000D01*
X876776Y741680D02*
X1190000D01*
X974071Y675640D02*
X1190000D01*
X1124556Y673976D02*
X1131176D01*
X1106564D02*
X1113184D01*
X1131176Y667356D02*
Y673976D01*
Y670560D02*
X1190000D01*
X1106564Y668535D02*
Y673976D01*
X979104Y670560D02*
X1106564D01*
X948671Y701040D02*
X1190000D01*
X953751Y695960D02*
X1190000D01*
X938511Y711200D02*
X1190000D01*
X943591Y706120D02*
X1190000D01*
X963911Y685800D02*
X1190000D01*
X968991Y680720D02*
X1190000D01*
X958831Y690880D02*
X1190000D01*
X879444Y762666D02*
X898556D01*
X877982Y746379D02*
X879444D01*
Y759841D02*
Y762666D01*
X876776Y745173D02*
X877982Y746379D01*
X898556Y743554D02*
Y762666D01*
X879444Y743554D02*
X898556D01*
X879444D02*
Y746379D01*
X876776Y733570D02*
Y745173D01*
X875194Y759841D02*
X879444D01*
X865285Y752720D02*
X870434Y757869D01*
X863314Y685889D02*
Y747961D01*
X889000Y741266D02*
X902830D01*
X912415Y737296D02*
X978455Y671256D01*
X876776Y685800D02*
X886339D01*
X876776Y683101D02*
Y696450D01*
Y690880D02*
X881259D01*
X876341Y680720D02*
X891419D01*
X876776Y736600D02*
X878766D01*
X872103Y675640D02*
X896499D01*
X867023Y670560D02*
X901579D01*
X1131880Y665480D02*
X1190000D01*
X1132366Y660400D02*
X1190000D01*
Y500000D02*
Y757554D01*
X1131176Y650240D02*
X1190000D01*
X1131176Y649364D02*
Y655984D01*
Y655320D02*
X1190000D01*
X1121531Y645160D02*
X1190000D01*
X1116451Y640080D02*
X1190000D01*
X1090715Y652686D02*
X1106564Y668535D01*
X1125735Y649364D02*
X1131176D01*
X1111371Y635000D02*
X1190000D01*
X1106291Y629920D02*
X1190000D01*
X1105916Y629544D02*
X1125735Y649364D01*
X880962Y624840D02*
X1190000D01*
X875444Y619760D02*
X1190000D01*
X874788Y568960D02*
X1190000D01*
X879514Y563880D02*
X1190000D01*
X865339Y579120D02*
X1190000D01*
X868169Y574040D02*
X1190000D01*
X863631Y604520D02*
X1190000D01*
X865339Y599440D02*
X1190000D01*
X863631Y614680D02*
X1190000D01*
X863631Y609600D02*
X1190000D01*
X865339Y589280D02*
X1190000D01*
X865339Y584200D02*
X1190000D01*
X865339Y594360D02*
X1190000D01*
X981879Y665480D02*
X1103509D01*
X982366Y660400D02*
X1098429D01*
X980847Y655320D02*
X1093349D01*
X979021Y652686D02*
X1090715D01*
X927266Y644873D02*
X930087Y642051D01*
X880780Y629920D02*
X942219D01*
X879414Y692724D02*
X913804Y658335D01*
X861943Y665480D02*
X906659D01*
X930087Y642051D02*
X942594Y629544D01*
X952180Y625574D02*
X1096330D01*
X865339Y576870D02*
X872828Y569381D01*
X863631Y624840D02*
X866558D01*
X863631Y619760D02*
X872076D01*
X863631Y603075D02*
Y625269D01*
X865339Y584509D02*
Y599525D01*
Y582367D02*
Y584509D01*
Y576870D02*
Y582367D01*
Y584509D01*
X848446Y762000D02*
X879444D01*
X848446Y736600D02*
X863314D01*
X848446Y746760D02*
X863314D01*
X848446Y741680D02*
X863314D01*
X851837Y721360D02*
X863314D01*
X851837Y716280D02*
X863314D01*
X851837Y707962D02*
Y727139D01*
Y726440D02*
X863314D01*
X848446Y772160D02*
X1146543D01*
X848446Y767080D02*
X1146626D01*
X811708Y756920D02*
X869485D01*
X809172Y751840D02*
X864544D01*
X811708Y731520D02*
X863314D01*
X829643Y727139D02*
X851837D01*
Y701040D02*
X863314D01*
X851837Y695960D02*
X863314D01*
X851837Y711200D02*
X863314D01*
X851837Y706120D02*
X863314D01*
X851475Y674050D02*
X863314Y685889D01*
X859031Y662568D02*
X874796Y678333D01*
X851837Y686945D02*
Y706122D01*
Y690880D02*
X863314D01*
X829643Y686945D02*
X851837D01*
X805311Y685800D02*
X863225D01*
X829643Y707962D02*
X851837D01*
X829643Y706122D02*
X851837D01*
X805311Y680720D02*
X858145D01*
X805311Y675640D02*
X853065D01*
X823185Y674050D02*
X851475D01*
X848446Y736524D02*
Y749936D01*
X841320Y736524D02*
X848446D01*
Y758824D02*
Y772236D01*
X841320Y749936D02*
X848446D01*
X833034Y772236D02*
X848446D01*
X812029Y762000D02*
X833034D01*
X805145Y772160D02*
X833034D01*
X810319Y767080D02*
X833034D01*
Y758824D02*
X848446D01*
X810604Y749961D02*
X840740D01*
X833034Y758824D02*
Y772236D01*
X829643Y707962D02*
Y727139D01*
Y703264D02*
Y706122D01*
Y686945D02*
Y689802D01*
X814335Y703264D02*
X829643D01*
X813392Y736499D02*
X840740D01*
X812136Y716280D02*
X829643D01*
X809172Y726440D02*
X829643D01*
X812136Y721360D02*
X829643D01*
X812136Y706120D02*
X829643D01*
X811547Y689802D02*
X829643D01*
X812136Y711200D02*
X829643D01*
X851090Y658335D02*
X913804D01*
X851090Y644873D02*
X927266D01*
X860590Y625269D02*
Y639660D01*
Y635000D02*
X937139D01*
X851090Y643548D02*
Y644873D01*
X825973Y660588D02*
X854263D01*
X825785Y660400D02*
X911739D01*
X835978Y659660D02*
X851090D01*
Y658335D02*
Y659660D01*
X822071Y640080D02*
X932059D01*
X845478Y639660D02*
X860590D01*
X835978Y643548D02*
X851090D01*
X860590Y629920D02*
X866740D01*
X860590Y625269D02*
X863631D01*
X855683Y599525D02*
X865339D01*
X855819Y567351D02*
X865758Y557412D01*
X852133Y603075D02*
X863631D01*
X852133D02*
X855683Y599525D01*
X828579Y568960D02*
X845605D01*
Y567351D02*
X855819D01*
X828579Y563880D02*
X859290D01*
X845605Y567351D02*
Y582367D01*
X845478Y625269D02*
Y639660D01*
X844454Y625269D02*
X845478D01*
X841590Y629920D02*
X845478D01*
X841590Y625269D02*
X842614D01*
X844454Y610754D02*
Y625269D01*
X842614Y619760D02*
X844454D01*
X842614Y612594D02*
Y625269D01*
Y624840D02*
X844454D01*
X835978Y643548D02*
Y659660D01*
X822071Y645160D02*
X835978D01*
X822071Y655320D02*
X835978D01*
X822071Y650240D02*
X835978D01*
X841590Y625269D02*
Y639660D01*
Y635000D02*
X845478D01*
X826478Y639660D02*
X841590D01*
X833095Y603075D02*
X845605Y590564D01*
Y584509D02*
Y590564D01*
X842614Y614680D02*
X844454D01*
X842614Y612594D02*
X844454Y610754D01*
X845605Y582367D02*
Y584509D01*
X828579Y574040D02*
X845605D01*
Y582367D02*
Y584509D01*
X816681Y594360D02*
X841810D01*
X821059Y589280D02*
X845605D01*
X823437Y603075D02*
X833095D01*
X821316Y599440D02*
X836730D01*
X822864Y584200D02*
X845605D01*
X828579Y579120D02*
X845605D01*
X822864Y581835D02*
X828579D01*
X1173183Y533400D02*
X1190000D01*
X1178046Y528320D02*
X1190000D01*
X1171734Y534849D02*
X1177134Y529449D01*
X1179114Y500000D02*
Y524681D01*
Y523240D02*
X1190000D01*
X1049017Y536829D02*
X1166966D01*
X1051805Y523367D02*
X1164178D01*
X1051678Y523240D02*
X1164305D01*
X1165652Y500000D02*
Y521893D01*
X1046598Y518160D02*
X1165652D01*
X1164178Y523367D02*
X1165652Y521893D01*
X1179114Y508000D02*
X1190000D01*
X1179114Y502920D02*
X1190000D01*
X1179114Y518160D02*
X1190000D01*
X1179114Y513080D02*
X1190000D01*
X1150000Y500000D02*
X1165652D01*
X1179114D02*
X1190000D01*
X1150000Y493706D02*
Y500000D01*
X1036438Y508000D02*
X1165652D01*
X1031358Y502920D02*
X1165652D01*
X1041518Y513080D02*
X1165652D01*
X1026278Y497840D02*
X1150000D01*
X1144812Y493706D02*
X1150000D01*
X1116212Y482600D02*
X1144812D01*
X1116212Y492760D02*
X1144812D01*
X1085100Y493708D02*
X1116212D01*
X1064924Y492760D02*
X1085100D01*
Y479596D02*
Y493708D01*
X1116212Y479596D02*
Y493708D01*
X1064924Y479594D02*
Y493706D01*
X1024812D02*
X1064924D01*
X1021198Y492760D02*
X1024812D01*
X979506Y497840D02*
X1007240D01*
X979772Y492760D02*
X1002160D01*
X1024812Y479594D02*
Y493706D01*
X1016118Y487680D02*
X1024812D01*
X979772D02*
X997080D01*
X1116212D02*
X1144812D01*
X1064924Y482600D02*
X1085100D01*
X1064924Y487680D02*
X1085100D01*
Y479596D02*
X1116212D01*
X1059224Y477520D02*
X1144812D01*
X1024812Y479594D02*
X1064924D01*
X979772Y482600D02*
X992000D01*
X1011038D02*
X1024812D01*
X1030612Y477766D02*
X1059224D01*
X1005958Y477520D02*
X1030612D01*
X979772D02*
X986920D01*
X1142504Y472440D02*
X1150000D01*
X1147230Y467360D02*
X1150000D01*
X1144812Y475194D02*
Y493706D01*
Y475194D02*
X1150000D01*
Y467193D02*
Y475194D01*
X1147311Y467041D02*
X1148603Y465749D01*
X1059224Y472440D02*
X1137400D01*
X1059224Y467360D02*
X1132674D01*
X1059224Y465154D02*
Y477766D01*
X1041224Y465154D02*
X1059224D01*
X1062668Y463676D02*
X1088668D01*
X1090055Y463400D01*
X1061281D02*
X1062668Y463676D01*
X1091455Y462280D02*
X1133038D01*
X1092018Y461438D02*
X1092294Y460050D01*
X1090055Y463400D02*
X1091232Y462614D01*
X1092018Y461438D01*
X1136898Y458417D02*
X1138139Y457176D01*
X1092294D02*
X1138139D01*
X1092294D02*
Y460050D01*
Y457200D02*
X1138114D01*
X1060104Y462614D02*
X1061281Y463400D01*
X1059318Y461438D02*
X1060104Y462614D01*
X1041224Y462280D02*
X1059881D01*
X1059042Y460050D02*
X1059318Y461438D01*
X1053794Y436880D02*
X1059042D01*
X1053794Y431800D02*
X1059042D01*
X1052363Y441960D02*
X1059042D01*
X1041224Y457624D02*
Y465154D01*
X1041235Y457200D02*
X1059042D01*
X1030612Y471606D02*
Y477766D01*
X1024812Y471606D02*
X1030612D01*
X1041224Y455494D02*
Y457624D01*
X1041235Y445012D02*
Y457624D01*
X1024812Y455494D02*
Y471606D01*
Y455494D02*
X1028623D01*
X979772Y470372D02*
X1044249Y534849D01*
X1000878Y472440D02*
X1030612D01*
X979772Y470372D02*
Y495967D01*
Y472440D02*
X981840D01*
X990718Y462280D02*
X1024812D01*
X985638Y457200D02*
X1024812D01*
X995798Y467360D02*
X1024812D01*
X1041235Y452120D02*
X1059042D01*
X1041235Y447040D02*
X1059042D01*
X1028623Y445012D02*
X1041235D01*
X1050168Y442776D02*
X1051555Y442500D01*
X1052732Y441714D02*
X1053518Y440538D01*
X1053794Y439150D01*
X1051555Y442500D02*
X1052732Y441714D01*
X1028623Y445012D02*
Y455494D01*
X1028368Y442776D02*
X1050168D01*
X980558Y452120D02*
X1028623D01*
X1026981Y442500D02*
X1028368Y442776D01*
X1025804Y441714D02*
X1026981Y442500D01*
X1025018Y440538D02*
X1025804Y441714D01*
X1024742Y439150D02*
X1025018Y440538D01*
X879150Y558800D02*
X1190000D01*
X904402Y528320D02*
X1037720D01*
X904584Y523240D02*
X1032640D01*
X899535Y518160D02*
X1027560D01*
X894455Y513080D02*
X1022480D01*
X886402Y505027D02*
X899714Y518339D01*
X877489Y543560D02*
X1190000D01*
X875036Y538480D02*
X1190000D01*
X846289Y553720D02*
X1190000D01*
X875966Y548640D02*
X1190000D01*
X846289Y533400D02*
X1042800D01*
X846289Y528320D02*
X890361D01*
X878846Y516509D02*
X890195Y527858D01*
X943515Y511904D02*
X963836D01*
X970527Y508000D02*
X1017400D01*
X975608Y502920D02*
X1012320D01*
X968604Y509924D02*
X977792Y500736D01*
X933007Y504183D02*
X938747Y509924D01*
X889375Y508000D02*
X936824D01*
X855088Y502920D02*
X912176D01*
X925768D02*
X930255D01*
X926316Y497840D02*
X927233D01*
X849497D02*
X911628D01*
X846289Y539049D02*
X864301D01*
X846289Y538480D02*
X864864D01*
X789607Y558800D02*
X864370D01*
X846289Y552511D02*
Y554360D01*
X809402Y559641D02*
X828579D01*
X826555Y554360D02*
X846289D01*
Y552511D02*
X867791D01*
X846289Y537201D02*
Y539049D01*
Y537201D02*
Y539049D01*
Y523240D02*
X885577D01*
X855349Y503047D02*
X881634D01*
X846289Y522186D02*
Y537201D01*
X855349Y516509D02*
X878846D01*
X844417Y502920D02*
X848744D01*
X826555Y522186D02*
X846289D01*
X695717Y518160D02*
X880497D01*
X700797Y513080D02*
X845120D01*
X705877Y508000D02*
X844572D01*
X708720Y505158D02*
X839391D01*
X925703Y492760D02*
X928350D01*
X925703Y477514D02*
X938431Y490242D01*
X925703Y487680D02*
X935869D01*
X925703Y477514D02*
Y496185D01*
Y482600D02*
X930789D01*
X854577Y492760D02*
X912241D01*
X859657Y487680D02*
X912241D01*
Y478022D02*
Y496185D01*
X894597Y460378D02*
X912241Y478022D01*
X864737Y482600D02*
X912241D01*
X975478Y447040D02*
X1028623D01*
X970398Y441960D02*
X1026173D01*
X955158Y426720D02*
X1024742D01*
X965318Y436880D02*
X1024742D01*
X960238Y431800D02*
X1024742D01*
X869817Y477520D02*
X911739D01*
X876051Y472440D02*
X906659D01*
X878014Y467360D02*
X901579D01*
X876051Y462280D02*
X896499D01*
X887158Y436880D02*
X902016D01*
X887158Y431800D02*
X902016D01*
X887158Y441960D02*
X902016D01*
X844159Y503178D02*
X872790Y474547D01*
X832704Y462280D02*
X850779D01*
X831094Y481965D02*
X873696Y439363D01*
X872110Y459987D02*
X885178Y446919D01*
X697097Y477520D02*
X835539D01*
X829649Y472440D02*
X840619D01*
X701542Y481965D02*
X831094D01*
X814633Y475957D02*
X829649D01*
Y467360D02*
X845699D01*
X829649Y465743D02*
X831521Y463871D01*
X829649Y465743D02*
Y475957D01*
X874897Y457200D02*
X892807D01*
X885057Y447040D02*
X893888D01*
X879977Y452120D02*
X891490D01*
X834326Y431800D02*
X873696D01*
X834326Y436880D02*
X873696D01*
X833501Y457200D02*
X855859D01*
X833501Y452120D02*
X860939D01*
X833501Y448126D02*
Y459103D01*
Y448126D02*
X834326D01*
Y447040D02*
X866019D01*
X834326Y441960D02*
X871099D01*
X834326Y433126D02*
Y448126D01*
X812132Y735239D02*
X813392Y736499D01*
X812136Y705463D02*
X814335Y703264D01*
X812136Y705463D02*
Y723056D01*
X805174D02*
X812136D01*
X822071Y656686D02*
X825973Y660588D01*
X822071Y635000D02*
X826478D01*
X810589Y664242D02*
X818417Y672070D01*
X826478Y625269D02*
Y639660D01*
X823437Y625269D02*
X826478D01*
X822071Y629920D02*
X826478D01*
X822071Y624840D02*
X823437D01*
X805311Y670560D02*
X816907D01*
X805311Y665480D02*
X811826D01*
X805311Y660400D02*
X808673D01*
X799566Y635000D02*
X808609D01*
X799566Y629920D02*
X808609D01*
X805311Y645160D02*
X808609D01*
X804800Y746945D02*
X805836Y747981D01*
X805311Y693250D02*
X806779Y691782D01*
X805311Y655320D02*
X808609D01*
X805311Y650240D02*
X808609D01*
X805311Y644336D02*
Y693250D01*
Y690880D02*
X807893D01*
X768545Y721344D02*
X785024D01*
Y695944D02*
Y721344D01*
X791849Y647125D02*
Y695944D01*
X790046Y645322D02*
X791849Y647125D01*
X785024Y695944D02*
X791849D01*
X803794Y640080D02*
X808609D01*
X799566Y635803D02*
X803331Y639568D01*
X787455Y624840D02*
X808609D01*
X790258Y622068D02*
X805370D01*
X799566Y626710D02*
Y635803D01*
X785584Y626710D02*
X799566D01*
X780954Y645322D02*
X790046D01*
X776066Y640080D02*
X780954D01*
X776066Y636229D02*
Y645322D01*
Y645160D02*
X780954D01*
Y631341D02*
Y645322D01*
X776066Y636229D02*
X780954Y631341D01*
X777294Y635000D02*
X780954D01*
X822071Y614680D02*
X823437D01*
X822071Y609600D02*
X823437D01*
X808609Y605326D02*
Y659474D01*
X822071Y619760D02*
X823437D01*
Y603075D02*
Y625269D01*
X822071Y604520D02*
X823437D01*
X822071Y602538D02*
Y656686D01*
X805370Y614680D02*
X808609D01*
X805370Y609600D02*
X808609D01*
X805370Y619760D02*
X808609D01*
X790258Y605956D02*
X805370D01*
X805351Y602068D02*
X808609Y605326D01*
X787825Y604520D02*
X807803D01*
X805370Y605956D02*
Y622068D01*
X816333Y594012D02*
X820091Y597770D01*
X816333Y594012D02*
X820884Y589461D01*
X822864Y581835D02*
Y584693D01*
X828579Y559641D02*
Y581835D01*
X809402Y573596D02*
Y581835D01*
X805351Y585956D02*
X809402Y581905D01*
X797904Y581835D02*
X807562D01*
X799758Y585956D02*
X805351D01*
X795655Y584200D02*
X807107D01*
X809402Y559641D02*
Y581835D01*
X807562Y579120D02*
X809402D01*
X807562Y559641D02*
Y581835D01*
X785584Y626710D02*
X790227Y622068D01*
X790258D02*
X796989D01*
X777665Y614680D02*
X778576D01*
X782745Y609600D02*
X783918D01*
X787439Y608606D02*
X790258D01*
Y605956D02*
Y608606D01*
X767262Y617505D02*
X772052D01*
X767262Y604043D02*
X769264D01*
X776820Y615525D02*
X790277Y602068D01*
X769264Y604043D02*
X780758Y592549D01*
X767262Y591468D02*
Y603468D01*
X799758Y602068D02*
X805351D01*
X795870Y589280D02*
X799758D01*
X795870Y599440D02*
X799758D01*
X795870Y594360D02*
X799758D01*
Y585956D02*
Y602068D01*
X795655Y584084D02*
X797904Y581835D01*
X795870Y585956D02*
Y602068D01*
X790277D02*
X795870D01*
X795655Y584084D02*
Y585956D01*
X780758D02*
Y592549D01*
Y585956D02*
X782193D01*
Y581296D02*
Y585956D01*
X762930Y748456D02*
X791986D01*
X763481Y716280D02*
X785024D01*
X758401Y711200D02*
X785024D01*
X751591Y706120D02*
X785024D01*
X756435Y709234D02*
X768545Y721344D01*
X723256Y767080D02*
X786842D01*
X723768Y751840D02*
X787988D01*
X723768Y762000D02*
X785131D01*
X724756Y756920D02*
X785452D01*
X669411Y695960D02*
X785024D01*
X674491Y690880D02*
X791849D01*
X664331Y701040D02*
X785024D01*
X699356Y650240D02*
X791849D01*
X757454Y645322D02*
X776066D01*
X716563Y645160D02*
X757454D01*
X722578Y640080D02*
X757454D01*
Y626710D02*
Y645322D01*
Y626710D02*
X766546D01*
X724561Y635000D02*
X757454D01*
X724466Y629920D02*
X757454D01*
X689731Y675640D02*
X791849D01*
X694811Y670560D02*
X791849D01*
X679571Y685800D02*
X791849D01*
X684651Y680720D02*
X791849D01*
X699356Y660400D02*
X791849D01*
X699356Y655320D02*
X791849D01*
X698368Y665480D02*
X791849D01*
X717398Y768976D02*
X723256D01*
Y763118D02*
Y768976D01*
Y746760D02*
X756365D01*
X741235Y732376D02*
X753345Y744485D01*
X723256Y744864D02*
Y750722D01*
X717398Y744864D02*
X723256D01*
X711200Y732376D02*
X741235D01*
X638931Y726440D02*
X699988D01*
X649091Y716280D02*
X697884D01*
X644011Y721360D02*
X697884D01*
X711200Y705264D02*
X746850D01*
X699356Y639304D02*
Y660400D01*
Y645160D02*
X705837D01*
X654171Y711200D02*
X699988D01*
X659251Y706120D02*
X706459D01*
X672244Y646266D02*
Y654785D01*
X646844Y646266D02*
X672244D01*
X646844Y628673D02*
Y646266D01*
X722238Y624840D02*
X768416D01*
X715208Y619760D02*
X773496D01*
X751150Y616779D02*
Y618080D01*
X767262D01*
X766546Y626710D02*
X782671Y610586D01*
X731359Y598509D02*
X747810Y614958D01*
X692531Y614680D02*
X747531D01*
X712314Y609600D02*
X742451D01*
X712666Y609271D02*
X721031Y600906D01*
X767262Y594360D02*
X778947D01*
X759231Y589280D02*
X780758D01*
X767262Y599440D02*
X773867D01*
X761419Y591468D02*
X767262D01*
X757301Y584200D02*
X782193D01*
X757301Y579120D02*
X782554D01*
X757301Y587350D02*
X761419Y591468D01*
X757301Y577760D02*
Y587350D01*
X717417Y604520D02*
X737371D01*
X722145Y599440D02*
X732291D01*
X722580Y598509D02*
X731359D01*
X696838Y624840D02*
X700162D01*
X673956Y619760D02*
X679069D01*
X692531D02*
X707192D01*
X692531Y613314D02*
X694594Y611251D01*
X679069Y610526D02*
Y620943D01*
X692531Y613314D02*
Y620943D01*
X673956Y624840D02*
X674762D01*
X656363Y619154D02*
X673956D01*
Y626116D01*
X651889Y614680D02*
X679069D01*
X640026Y602817D02*
X656363Y619154D01*
X705110Y597789D02*
X709549Y593350D01*
X697144Y580212D02*
X709549D01*
X694594Y611251D02*
X707898D01*
X691806Y597789D02*
X705110D01*
X709549Y580212D02*
Y593350D01*
X697144Y566800D02*
Y580212D01*
X641729Y604520D02*
X682287D01*
X646809Y609600D02*
X679133D01*
X681049Y605758D02*
X687038Y599769D01*
X807562Y568960D02*
X809402D01*
X807562Y563880D02*
X809402D01*
X807562Y574040D02*
X809402D01*
X788385Y559641D02*
X789607D01*
X826555Y550663D02*
Y554360D01*
X789607Y553720D02*
X826555D01*
X789607Y540670D02*
Y559641D01*
X807562D01*
X760092Y568960D02*
X788385D01*
X764264Y563880D02*
X788385D01*
X784173Y576528D02*
X788385Y572316D01*
X756180Y574040D02*
X786661D01*
X788385Y559847D02*
Y572316D01*
Y559847D02*
X789607D01*
X767413D02*
X788385D01*
X823931Y550663D02*
X826555D01*
X799410Y548798D02*
X815522D01*
Y548640D02*
X819120D01*
X815522Y548223D02*
X818703D01*
X799410Y536798D02*
Y548798D01*
X789607Y538480D02*
X799410D01*
X789607Y548640D02*
X799410D01*
X789607Y543560D02*
X799410D01*
X767413Y538830D02*
X789607D01*
Y536097D02*
Y538830D01*
X767413Y540670D02*
X789607D01*
X751618Y569289D02*
X755321Y572992D01*
X751266Y568960D02*
X753748D01*
X767413Y540670D02*
Y559847D01*
X763716Y558800D02*
X767413D01*
X740879Y566335D02*
Y567309D01*
X746850D01*
X743878Y542202D02*
Y557314D01*
X759990Y548640D02*
X767413D01*
X759990Y543560D02*
X767413D01*
X759990Y553720D02*
X767413D01*
X759990Y542202D02*
Y555198D01*
X743878Y557314D02*
X751075D01*
X739990Y543560D02*
X743878D01*
X739990Y538480D02*
X767413D01*
X743878Y538314D02*
X759990D01*
X743878Y542202D02*
X759990D01*
X826555Y522186D02*
Y523336D01*
X815522Y523240D02*
X826555D01*
X815522Y522186D02*
Y523336D01*
X826555D01*
X812491Y456223D02*
X814633D01*
X812491D02*
X814633D01*
X812491Y475957D02*
X814633D01*
X812491D02*
X814633D01*
X799410Y522186D02*
X815522D01*
X797475Y475957D02*
X812491D01*
X789607Y536097D02*
X799410D01*
X789607Y522635D02*
X799410D01*
X799013Y448840D02*
Y456223D01*
X812475Y448840D02*
Y456223D01*
X797475D02*
X799013D01*
X820039Y448126D02*
Y456223D01*
X819214Y448126D02*
X820039D01*
X816240Y447040D02*
X819214D01*
X816240Y441960D02*
X819214D01*
Y433126D02*
Y448126D01*
X816240Y426720D02*
X819214D01*
X816240Y432228D02*
Y448840D01*
Y436880D02*
X819214D01*
X814633Y456223D02*
X820039D01*
X812475Y452120D02*
X820039D01*
X773232D02*
X799013D01*
X812475Y448840D02*
X816240D01*
X782585Y431800D02*
X819214D01*
X794628Y429340D02*
X816240D01*
X794628Y432228D02*
X816240D01*
X767413Y535973D02*
Y538830D01*
Y519653D02*
Y522510D01*
X759990Y535973D02*
Y538314D01*
Y535973D02*
X767413D01*
X797475Y472821D02*
Y475957D01*
Y456223D02*
Y459359D01*
X789607Y519653D02*
Y522635D01*
X767413Y519653D02*
X789607D01*
X743878Y523202D02*
Y538314D01*
Y523202D02*
X750979D01*
X739990Y532702D02*
Y547814D01*
Y533400D02*
X743878D01*
X753950Y522510D02*
X767413D01*
X794628Y448840D02*
X799013D01*
X773364Y441960D02*
X794628D01*
X773596Y447040D02*
X794628D01*
Y432228D02*
Y448840D01*
X777505Y436880D02*
X794628D01*
X773364Y441020D02*
Y446344D01*
X759902Y438232D02*
Y445080D01*
X754993Y436880D02*
X760040D01*
X756310Y431800D02*
X763547D01*
X738204Y563880D02*
X749576D01*
X738204Y558800D02*
X750124D01*
X738204Y566335D02*
X740879D01*
X723011Y558800D02*
X724742D01*
X738204Y547814D02*
Y566335D01*
Y553720D02*
X743878D01*
X724742Y547814D02*
Y566335D01*
X723011Y553720D02*
X724742D01*
X723011Y566335D02*
X724742D01*
X723011Y563880D02*
X724742D01*
X681911Y558800D02*
X709549D01*
X697144Y557912D02*
X709549D01*
X723011Y551706D02*
Y566335D01*
X709549Y557912D02*
Y566800D01*
X738204Y548640D02*
X743878D01*
X738204Y547814D02*
X739990D01*
X722272Y548640D02*
X724742D01*
X723878Y547814D02*
X724742D01*
X723878Y532702D02*
X739990D01*
X719096Y523240D02*
X743878D01*
X723878Y532702D02*
Y547814D01*
X717521Y543428D02*
X721031Y546938D01*
X717653Y543560D02*
X723878D01*
X717521Y540904D02*
Y543428D01*
Y540904D02*
X719096D01*
Y533400D02*
X723878D01*
X719096Y528320D02*
X743878D01*
X719096Y538480D02*
X723878D01*
X697144Y566800D02*
X709549D01*
X681911Y553720D02*
X697144D01*
Y544500D02*
X704059D01*
Y540904D02*
Y544500D01*
X697144D02*
Y557912D01*
X681911Y548640D02*
X697144D01*
X659717Y562641D02*
X681911D01*
Y543464D02*
Y562641D01*
X659717Y543464D02*
Y562641D01*
X702484Y540904D02*
X704059D01*
X699596Y538480D02*
X702484D01*
X682984Y538767D02*
Y540904D01*
X699596D01*
Y528320D02*
X702484D01*
X699596Y523240D02*
X702484D01*
X699596Y533400D02*
X702484D01*
X681911Y543560D02*
X704059D01*
X681911Y538767D02*
Y541624D01*
X659717Y543464D02*
X681911D01*
X659717Y541624D02*
X681911D01*
Y538767D02*
X682984D01*
X659717Y522447D02*
X672392D01*
X659717D02*
Y541624D01*
X702484Y519292D02*
Y540904D01*
Y519292D02*
X719096D01*
X699596D02*
Y540904D01*
X694585Y519292D02*
X699596D01*
X719096D02*
Y540904D01*
X694585Y519292D02*
X708720Y505158D01*
X672392Y522447D02*
X699412Y495427D01*
X651377Y497840D02*
X696999D01*
X644683Y502920D02*
X691919D01*
X656457Y492760D02*
X693299D01*
X687278Y486739D02*
X693986Y493447D01*
X661537Y487680D02*
X688219D01*
X696797Y477220D02*
X701542Y481965D01*
X693043Y472821D02*
X797475D01*
X676396D02*
X686177D01*
X674856Y452120D02*
X759404D01*
X710184Y439293D02*
X745359D01*
X673608Y459359D02*
X797475D01*
X670684Y457200D02*
X797475D01*
X674308Y447040D02*
X759040D01*
X668649Y441960D02*
X759902D01*
X663569Y436880D02*
X704983D01*
X661029Y431800D02*
X699903D01*
X655949Y426720D02*
X694823D01*
X666617Y482600D02*
X682696D01*
X671697Y477520D02*
X682332D01*
X648150Y501067D02*
X676396Y472821D01*
X644271Y467360D02*
X662819D01*
X644271Y452251D02*
Y469661D01*
Y462280D02*
X667899D01*
X639200Y477520D02*
X652659D01*
X643671Y472440D02*
X657739D01*
X640594Y489585D02*
X668840Y461339D01*
X651487Y443837D02*
X660325Y452674D01*
X662965Y436276D02*
X669844Y443155D01*
X644271Y457200D02*
X664340D01*
X644336Y452120D02*
X659771D01*
X644884Y447040D02*
X654691D01*
X640712Y441960D02*
X650160D01*
X643336Y433145D02*
X649512Y439321D01*
X1148612Y416594D02*
Y417787D01*
Y416594D02*
Y417787D01*
Y405594D02*
Y408706D01*
Y397706D02*
Y405594D01*
Y408706D02*
Y416594D01*
Y405594D02*
Y408706D01*
X1142294Y416560D02*
X1148612D01*
X1142294Y411480D02*
X1148612D01*
X1142294Y423423D02*
X1146493Y419224D01*
X1142294Y421640D02*
X1144077D01*
X1142294Y406400D02*
X1148612D01*
X1142294Y401320D02*
X1148612D01*
X1142294Y386922D02*
Y423423D01*
X1148612Y394594D02*
Y397706D01*
Y394594D02*
Y397706D01*
Y386769D02*
Y394594D01*
X1150000Y346905D02*
Y349994D01*
X1142294Y391160D02*
X1148612D01*
X1139017Y349994D02*
X1150000D01*
X1142294Y396240D02*
X1148612D01*
X1135112Y349994D02*
X1139017D01*
X1061368Y349925D02*
X1138668D01*
X1044048Y345600D02*
X1147143D01*
X1096760Y279400D02*
X1104297D01*
X1053794Y421640D02*
X1059042D01*
X1053794Y419776D02*
X1059042D01*
X1053794D02*
Y439150D01*
Y426720D02*
X1059042D01*
Y419776D02*
Y460050D01*
X1061017Y349994D02*
X1064924D01*
X1032542Y364106D02*
Y412094D01*
X1024812D02*
Y425799D01*
Y412094D02*
X1032542D01*
X1024742Y426150D02*
Y439150D01*
X1024812Y425799D02*
Y429706D01*
X1024812Y364106D02*
X1032542D01*
X1024812Y349994D02*
X1061017D01*
X1024812D02*
Y364106D01*
X1054475Y294640D02*
X1075318D01*
X1057385Y313055D02*
X1070002Y300438D01*
X1071265Y298693D02*
X1086152Y283806D01*
X1069715Y279400D02*
X1089919D01*
X1059555Y289560D02*
X1080398D01*
X1064635Y284480D02*
X1085478D01*
X1044315Y304800D02*
X1065640D01*
X1049395Y299720D02*
X1070420D01*
X1021172Y284480D02*
X1029721D01*
X1100195Y248920D02*
X1134777D01*
X1104117Y243840D02*
X1139857D01*
X1095115Y254000D02*
X1129697D01*
X1100358Y283339D02*
X1167188Y216509D01*
X1104392Y218575D02*
Y241935D01*
X1090930Y218575D02*
Y239147D01*
X1079875Y269240D02*
X1114457D01*
X1084955Y264160D02*
X1119537D01*
X1074795Y274320D02*
X1109377D01*
X1042358Y306757D02*
X1102412Y246703D01*
X1090035Y259080D02*
X1124617D01*
X1081399Y238760D02*
X1090930D01*
X1158958Y218440D02*
X1165257D01*
X1167188Y210538D02*
Y216509D01*
X1136440Y220809D02*
X1158958D01*
X1104570Y218440D02*
X1136440D01*
X1158958Y209034D02*
Y220809D01*
X1136440Y202863D02*
Y220809D01*
X1104392Y233680D02*
X1150017D01*
X1104392Y228600D02*
X1155097D01*
X1104392Y238760D02*
X1144937D01*
X1086956Y228600D02*
X1090930D01*
X1104392Y223520D02*
X1160177D01*
X1081438D02*
X1090930D01*
X1052228Y264160D02*
X1065917D01*
X1057746Y269240D02*
X1060837D01*
X1058086Y271991D02*
X1090930Y239147D01*
X1063702Y256457D02*
X1082086Y238073D01*
X1066159Y254000D02*
X1076077D01*
X1071239Y248920D02*
X1081157D01*
X1044358Y259080D02*
X1070997D01*
X1029097Y285104D02*
X1042995Y271206D01*
X1022457Y279400D02*
X1034801D01*
X1044358Y258437D02*
X1058934D01*
X1044358D02*
Y259762D01*
X1086775Y233680D02*
X1090930D01*
X1076319Y243840D02*
X1086237D01*
X1069526Y228600D02*
X1072521D01*
X1079687Y218440D02*
X1090752D01*
X1074606Y223520D02*
X1078070D01*
X1054121Y243840D02*
X1057281D01*
X1059366Y238760D02*
X1062361D01*
X1051023Y244975D02*
X1056146D01*
X1072567Y228554D01*
X1055087Y243039D02*
X1086580Y211546D01*
X1064446Y233680D02*
X1067441D01*
X939918Y411480D02*
X1032542D01*
X934838Y406400D02*
X1032542D01*
X950078Y421640D02*
X1024812D01*
X944998Y416560D02*
X1024812D01*
X924678Y396240D02*
X1032542D01*
X919598Y391160D02*
X1032542D01*
X929758Y401320D02*
X1032542D01*
X997813Y358286D02*
X1010153Y345947D01*
X911712Y383274D02*
X1051805Y523367D01*
X675560Y375920D02*
X1032542D01*
X914518Y386080D02*
X1032542D01*
X903856Y381000D02*
X1032542D01*
X680640Y370840D02*
X1032542D01*
X685720Y365760D02*
X1032542D01*
X823030Y360680D02*
X1024812D01*
X1010153Y345947D02*
X1041915D01*
X1009390Y295275D02*
X1024487D01*
X1010025Y294640D02*
X1024247D01*
X1015105Y289560D02*
X1024384D01*
X1019685Y274320D02*
X1039881D01*
X1009390Y295275D02*
X1017275Y287390D01*
X691552Y313055D02*
X1057385D01*
X866504Y308737D02*
X1037590D01*
X1000499Y355600D02*
X1024812D01*
X1005580Y350520D02*
X1024812D01*
X1001275Y284352D02*
X1007756Y277871D01*
X998308Y275262D02*
X1009227D01*
X996823Y279400D02*
X1006227D01*
X887158Y416560D02*
X902215D01*
X887158Y411480D02*
X904212D01*
X902016Y418877D02*
Y445633D01*
X887158Y421640D02*
X902016D01*
X904156Y394756D02*
X914746Y405346D01*
X887158Y406400D02*
X910273D01*
X887158Y426720D02*
X902016D01*
X886270Y401320D02*
X910720D01*
X887158Y404662D02*
Y442151D01*
X881524Y396240D02*
X905640D01*
X880553Y391160D02*
X893888D01*
X996823Y275262D02*
X998308D01*
X996823D02*
X998308D01*
X996823D02*
Y282538D01*
X881023Y386080D02*
X893340D01*
X904427Y381294D02*
X906944D01*
X823583Y360266D02*
X993046D01*
X878298Y381000D02*
X897512D01*
X1011008Y264160D02*
X1048860D01*
X1017246Y259762D02*
X1044358D01*
X1011008Y269240D02*
X1043342D01*
X1011008Y259080D02*
X1017246D01*
Y247062D02*
Y259762D01*
X1011008Y248920D02*
X1017246D01*
X1011008Y248150D02*
Y273753D01*
Y254000D02*
X1017246D01*
X994896Y248150D02*
X998308D01*
X985608D02*
X994896D01*
X1017246Y243650D02*
Y247062D01*
Y243650D02*
Y247062D01*
X994896Y248150D02*
X998308D01*
X1011008D01*
X1017246Y233037D02*
Y234362D01*
Y233037D02*
Y234362D01*
Y243650D01*
X955040Y233680D02*
X1017246D01*
X982973Y233037D02*
X1017246D01*
X963495Y243840D02*
X1017246D01*
X960063Y238760D02*
X1017246D01*
X985761Y219575D02*
X1009047D01*
X984627Y218440D02*
X1007600D01*
X982017Y215831D02*
X985761Y219575D01*
X972908Y248150D02*
X982196D01*
X985608D01*
X969496D02*
X972908D01*
X969496D02*
X972908D01*
X982196D02*
X985608D01*
X973393Y226244D02*
X978205Y231057D01*
X962998Y248150D02*
X969496D01*
X955040Y235875D02*
X956813Y237648D01*
X955040Y228600D02*
X975749D01*
X955040Y222660D02*
Y235875D01*
Y223520D02*
X969139D01*
X957600Y218440D02*
X967563D01*
X912984Y217533D02*
X916202Y214315D01*
X909636Y218440D02*
X912221D01*
X908591Y219713D02*
X911227D01*
X911784Y219155D01*
X910688Y186443D02*
Y214827D01*
X1158958Y213360D02*
X1167188D01*
X1188079Y187960D02*
X1190000D01*
X1182999Y182880D02*
X1190000D01*
X1108848Y208280D02*
X1136440D01*
X1106958Y203200D02*
X1136440D01*
X1084767Y213360D02*
X1087066D01*
X1108256D02*
X1136440D01*
X1106719Y202863D02*
X1136440D01*
X1130173Y130054D02*
X1188962Y188843D01*
X1167759Y167640D02*
X1190000D01*
X1162679Y162560D02*
X1190000D01*
X1177919Y177800D02*
X1190000D01*
X1172839Y172720D02*
X1190000D01*
X1147439Y147320D02*
X1190000D01*
X1158958Y121920D02*
X1190000D01*
X1157599Y157480D02*
X1190000D01*
X1152519Y152400D02*
X1190000D01*
X1137279Y137160D02*
X1190000D01*
X1132199Y132080D02*
X1190000D01*
X1015843Y156587D02*
X1017246D01*
X1142359Y142240D02*
X1190000D01*
X1130173Y127000D02*
X1190000D01*
X1136440Y122765D02*
X1158958D01*
X1130173Y121920D02*
X1136440D01*
X1017246Y180150D02*
Y183562D01*
Y180150D02*
Y183562D01*
Y192850D02*
Y196262D01*
Y183562D02*
Y192850D01*
Y167450D02*
Y170862D01*
Y158162D02*
Y167450D01*
Y170862D02*
Y180150D01*
Y167450D02*
Y170862D01*
Y196262D02*
Y205550D01*
Y192850D02*
Y196262D01*
Y205550D02*
Y206625D01*
Y205550D02*
Y206625D01*
X997859Y172720D02*
X1017246D01*
X1000881Y167640D02*
X1017246D01*
Y132762D02*
Y142050D01*
Y129350D02*
Y132762D01*
Y142050D02*
Y143125D01*
Y142050D02*
Y143125D01*
Y120062D02*
Y129350D01*
Y118614D02*
Y120062D01*
Y129350D02*
Y132762D01*
Y156587D02*
Y158162D01*
Y156587D02*
Y158162D01*
X999764Y162560D02*
X1017246D01*
X1014636Y142240D02*
X1017246D01*
X1016133Y118614D02*
X1017246D01*
X1158958Y116840D02*
X1190000D01*
X1158958Y111760D02*
X1190000D01*
Y42446D02*
Y190177D01*
X1158958Y101600D02*
X1190000D01*
X1158958Y100247D02*
Y122765D01*
Y106680D02*
X1190000D01*
X1123055Y91440D02*
X1190000D01*
X1044358Y86360D02*
X1190000D01*
X1136440Y100247D02*
X1158958D01*
X1128135Y96520D02*
X1190000D01*
X1050000Y76200D02*
X1190000D01*
X1050000Y71120D02*
X1190000D01*
X1044358Y81280D02*
X1190000D01*
X1181057Y50800D02*
X1190000D01*
X1187543Y45720D02*
X1190000D01*
X1053914Y10000D02*
X1157555D01*
X1050000Y15240D02*
X1151642D01*
X1053754Y10160D02*
X1157301D01*
X1050000Y60960D02*
X1190000D01*
X1050000Y55880D02*
X1190000D01*
X1050000Y66040D02*
X1190000D01*
X1050000Y50800D02*
X1158944D01*
X1050000Y45720D02*
X1152457D01*
X1050000Y40640D02*
X1148984D01*
X1050000Y20320D02*
X1148525D01*
X1130173Y106680D02*
X1136440D01*
X1130173Y116840D02*
X1136440D01*
X1130173Y111760D02*
X1136440D01*
Y100247D02*
Y122765D01*
X1130173Y101346D02*
Y130054D01*
Y101600D02*
X1136440D01*
X1017246Y118614D02*
Y120062D01*
X1122360Y90745D02*
X1128193Y96578D01*
X1017246Y91250D02*
Y92452D01*
X1050000Y35560D02*
X1147110D01*
X1050000Y30480D02*
X1146449D01*
X1050000Y25400D02*
X1146898D01*
X1050000Y13914D02*
X1053914Y10000D01*
X1050000Y13914D02*
Y80000D01*
X1044975Y88765D02*
X1117592D01*
X1017246Y91250D02*
Y92452D01*
X1044358Y80000D02*
Y88793D01*
Y80000D02*
X1050000D01*
X1017246D02*
Y91250D01*
X956918Y213360D02*
X969952D01*
X980260D02*
X1005400D01*
X945596Y190162D02*
X947658D01*
X963946D01*
X966008D02*
X984358D01*
Y171812D02*
Y190162D01*
X963946D02*
X966008D01*
X963946D02*
X966008D01*
X935419Y203200D02*
X1017246D01*
X930339Y198120D02*
X1017246D01*
X925703Y193484D02*
X944203Y211984D01*
X940499Y208280D02*
X1007138D01*
X925703Y193040D02*
X1017246D01*
X945596Y190162D02*
X947658D01*
X927246D02*
X945596D01*
X984358Y172720D02*
X988929D01*
X984358Y167640D02*
X985907D01*
X984358Y169750D02*
Y171812D01*
Y169750D02*
Y171812D01*
Y162560D02*
X987024D01*
X984358Y187960D02*
X1017246D01*
X984358Y182880D02*
X1017246D01*
X984358Y177800D02*
X1017246D01*
X914221Y201040D02*
X921849Y208668D01*
X910688Y193040D02*
X912241D01*
X927246Y171812D02*
Y190162D01*
X910688Y187960D02*
X912241D01*
X925703D02*
X927246D01*
X910688Y213360D02*
X916492D01*
X910688Y208280D02*
X921460D01*
X910688Y203200D02*
X916380D01*
X910688Y198120D02*
X912499D01*
X909668Y182880D02*
X912241D01*
X927246Y169750D02*
Y171812D01*
X925703Y172720D02*
X927246D01*
Y169750D02*
Y171812D01*
X925703Y162560D02*
X927246D01*
X925703Y167640D02*
X927246D01*
X925703Y182880D02*
X927246D01*
X925703Y177800D02*
X927246D01*
X904834D02*
X912241D01*
X899753Y172720D02*
X912241D01*
X894673Y167640D02*
X912241D01*
X889594Y162560D02*
X912241D01*
X886438Y159405D02*
X908708Y181675D01*
X984358Y157480D02*
X1017246D01*
X984358Y152400D02*
X1005931D01*
X984358Y151400D02*
Y153462D01*
Y151400D02*
Y153462D01*
Y142240D02*
X1011268D01*
X984358Y137160D02*
X1017246D01*
X984358Y133050D02*
Y151400D01*
Y147320D02*
X1005750D01*
X984358Y153462D02*
Y169750D01*
X945596Y133050D02*
X947658D01*
X963946D01*
X945596D02*
X947658D01*
X966008D02*
X984358D01*
X910203Y132080D02*
X1017246D01*
X963946Y133050D02*
X966008D01*
X963946D02*
X966008D01*
X905123Y127000D02*
X1017246D01*
X900043Y121920D02*
X1017246D01*
X894963Y116840D02*
X1007358D01*
X889883Y111760D02*
X1005396D01*
X884948Y106680D02*
X1007358D01*
X880922Y91440D02*
X1017246D01*
X884396Y101600D02*
X1005836D01*
X884986Y96520D02*
X1005836D01*
X874358Y81280D02*
X1017246D01*
X874358Y80000D02*
X1017246D01*
X874358Y86360D02*
X1017246D01*
X927246Y151400D02*
Y153462D01*
X925703Y152400D02*
X927246D01*
Y153462D02*
Y169750D01*
X925703Y157480D02*
X927246D01*
Y151400D02*
Y153462D01*
Y133050D02*
Y151400D01*
X925703Y150368D02*
Y193484D01*
X912241Y153156D02*
Y196272D01*
X882532Y157480D02*
X912241D01*
X880064Y120979D02*
X912241Y153156D01*
X874358Y152400D02*
X911485D01*
X915283Y137160D02*
X927246D01*
X924973Y147320D02*
X927246D01*
X920363Y142240D02*
X927246D01*
Y133050D02*
X945596D01*
X889583Y111460D02*
X923723Y145600D01*
X874358Y147320D02*
X906405D01*
X878506Y142240D02*
X901325D01*
X885047Y137160D02*
X896245D01*
X885319Y132080D02*
X891165D01*
X880240Y127000D02*
X886085D01*
X873696Y415628D02*
Y439363D01*
X834326Y421640D02*
X873696D01*
X834326Y418014D02*
Y433014D01*
Y426720D02*
X873696D01*
X855940Y415415D02*
X867276D01*
X816240Y421640D02*
X819214D01*
Y418014D02*
X834326D01*
X816240Y416560D02*
X873696D01*
X819214Y418014D02*
Y433014D01*
X858728Y401954D02*
X867282D01*
X845261Y407524D02*
X851180Y413444D01*
X836453Y406400D02*
X842706D01*
X836453Y401320D02*
X839507D01*
X858095D02*
X867934D01*
X812372Y411480D02*
X849216D01*
X817276Y408607D02*
X836453D01*
X815436Y406400D02*
X817276D01*
X815436Y401320D02*
X817276D01*
X773364Y441020D02*
X794628Y419757D01*
X792745Y421640D02*
X794628D01*
X753584Y426720D02*
X768627D01*
X787665D02*
X794628D01*
X761874Y433473D02*
X796259Y399088D01*
X816240Y412728D02*
Y429340D01*
X794628Y419757D02*
Y429340D01*
X708781Y421640D02*
X773707D01*
X692866Y424763D02*
X705416Y437313D01*
X712972Y425831D02*
X745359D01*
X703701Y416560D02*
X778787D01*
X702385Y415244D02*
X712972Y425831D01*
X812372Y412728D02*
X816240D01*
X812372Y408607D02*
X815436D01*
X812372D02*
Y412728D01*
X763782Y411480D02*
X783867D01*
X763782Y406400D02*
X788947D01*
X730183Y402209D02*
X753233D01*
X727394Y415671D02*
X753233D01*
X716599Y407663D02*
X722626Y413691D01*
X699663Y411480D02*
X720415D01*
X695962Y406400D02*
X713847D01*
X729294Y401320D02*
X794027D01*
X698423D02*
X710825D01*
X880553Y395269D02*
X885178Y399894D01*
X853431Y396240D02*
X867091D01*
X853886Y397111D02*
X858728Y401954D01*
X867091Y390834D02*
Y398057D01*
X880553Y389570D02*
Y395269D01*
X836453Y396240D02*
X840518D01*
X836453Y391160D02*
X867091D01*
X817276Y386413D02*
X836453D01*
Y408607D01*
X851826Y296847D02*
X861736Y306757D01*
X842168Y296847D02*
X851826D01*
X842168Y286768D02*
Y296847D01*
X840328Y285024D02*
X841439Y286135D01*
X831497Y304800D02*
X859779D01*
X832277Y299720D02*
X854699D01*
X831054Y296847D02*
X840328D01*
Y294640D02*
X842168D01*
X840328Y289560D02*
X842168D01*
X840328Y285024D02*
Y296847D01*
X815436Y396240D02*
X817276D01*
X815436Y391160D02*
X817276D01*
X796259Y386413D02*
Y399088D01*
Y386413D02*
X815436D01*
X803279Y361823D02*
X819277D01*
X815436Y386413D02*
Y408607D01*
X817276Y386413D02*
Y408607D01*
X725223Y397249D02*
X730183Y402209D01*
X724682Y396240D02*
X796259D01*
X698528D02*
X711942D01*
X696350Y391160D02*
X796259D01*
X801603Y308103D02*
X821834D01*
X780288Y351376D02*
X793267D01*
X793289Y302577D02*
X796835Y306123D01*
X792123Y304800D02*
X795512D01*
X694340Y326517D02*
X772804D01*
X692785Y335280D02*
X766972D01*
X692785Y330200D02*
X769076D01*
X698246Y217923D02*
Y287150D01*
X687840Y386080D02*
X865988D01*
X690800Y360680D02*
X794760D01*
X651869Y421640D02*
X688828D01*
X640000Y411480D02*
X690733D01*
X665400Y386080D02*
X684523D01*
X670480Y381000D02*
X868714D01*
X639222Y412258D02*
X690805Y360675D01*
X692785Y355600D02*
X792307D01*
X692785Y350520D02*
X775547D01*
X692785Y345440D02*
X769076D01*
X692785Y340360D02*
X766972D01*
X692785Y328072D02*
Y355907D01*
Y328072D02*
X694340Y326517D01*
X669163Y335280D02*
X679323D01*
X672335Y330200D02*
X679323D01*
X669163Y350520D02*
X679323D01*
X669163Y340360D02*
X679323D01*
X676618Y325120D02*
X679325D01*
X676117Y320040D02*
X681778D01*
X679323Y325284D02*
Y353119D01*
X650160Y401320D02*
X673940D01*
X660320Y391160D02*
X676013D01*
X652855Y423626D02*
X660990Y431760D01*
X655240Y396240D02*
X673835D01*
X651060Y370840D02*
X656811D01*
X647074Y381000D02*
X651442D01*
X650398Y375920D02*
X656522D01*
X645080Y406400D02*
X676401D01*
X669451Y362992D02*
X679323Y353119D01*
X669163Y345440D02*
X679323D01*
X669163Y360680D02*
X671762D01*
X669163Y355600D02*
X676842D01*
X669163Y333372D02*
X672345Y330190D01*
X669163Y333372D02*
Y362357D01*
X655701Y330583D02*
Y362357D01*
X649554Y365760D02*
X654876D01*
X644390Y360680D02*
X655701D01*
X657681Y325816D02*
X661931Y321566D01*
X684187Y308737D02*
X779272D01*
X681303Y320516D02*
X686784Y315035D01*
X686975Y295275D02*
X699398D01*
X686340Y294640D02*
X698903D01*
X685748Y294047D02*
X686975Y295275D01*
X665147Y284480D02*
X698246D01*
X665147Y274320D02*
X698246D01*
X665147Y269240D02*
X698246D01*
X665147Y279400D02*
X698246D01*
X692439Y233680D02*
X698246D01*
X691705Y228600D02*
X698246D01*
X688710Y238760D02*
X698246D01*
X685474Y223520D02*
X698246D01*
X682756Y220801D02*
X686751Y224797D01*
X660781Y254000D02*
X698246D01*
X658599Y248920D02*
X698246D01*
X660781Y264160D02*
X698246D01*
X660781Y259080D02*
X698246D01*
X653519Y243840D02*
X698246D01*
X678192Y305529D02*
X679419Y306757D01*
X665147Y292068D02*
X680980D01*
X665147Y305529D02*
Y309149D01*
Y305529D02*
X678192D01*
X642953Y288132D02*
X665147D01*
Y268955D02*
Y288132D01*
Y289972D02*
Y292068D01*
X642953Y268955D02*
Y288132D01*
Y305529D02*
Y309149D01*
X665147D01*
X642541Y305529D02*
Y309149D01*
Y289972D02*
Y292068D01*
X642953Y289972D02*
Y292068D01*
Y289972D02*
X665147D01*
X642541Y268955D02*
Y288132D01*
X660781Y268955D02*
X665147D01*
X647319Y256678D02*
Y268955D01*
X660781Y253890D02*
Y268955D01*
X648439Y238760D02*
X681366D01*
X675199Y232283D02*
X678127Y235210D01*
X642953Y268955D02*
X647319D01*
X638170Y264160D02*
X647319D01*
X638175Y264414D02*
Y268955D01*
X642541D01*
X643359Y233680D02*
X676596D01*
X641962Y232283D02*
X675199D01*
X641962D02*
X658801Y249122D01*
X847246Y180489D02*
Y183562D01*
Y186660D01*
Y180489D02*
Y183562D01*
X874358Y145462D02*
Y154750D01*
Y156898D01*
Y154750D02*
Y156898D01*
X843466Y182880D02*
X847246D01*
X838386Y177800D02*
X843694D01*
X833306Y172720D02*
X838615D01*
X828110Y167524D02*
X847246Y186660D01*
X823755Y157860D02*
X844835Y178941D01*
X828226Y167640D02*
X833535D01*
X874358Y116840D02*
X875482D01*
X874358Y105287D02*
Y107362D01*
Y106680D02*
X879844D01*
X874358Y116650D02*
Y120062D01*
Y107362D02*
Y116650D01*
Y142812D02*
X875790D01*
X874358Y127000D02*
X875916D01*
X874358Y142812D02*
Y145462D01*
Y142812D02*
Y145462D01*
Y121920D02*
X881005D01*
X874358Y116650D02*
Y120062D01*
Y127663D01*
X821784Y130032D02*
Y153101D01*
X820056Y137160D02*
X821784D01*
X820056Y147320D02*
X821784D01*
X820056Y142240D02*
X821784D01*
X820056Y162560D02*
X828455D01*
X820056Y157480D02*
X823403D01*
X820056Y165544D02*
X823342D01*
X820056Y152400D02*
X821784D01*
X820056Y130636D02*
Y165544D01*
X823764Y125264D02*
X830674Y118354D01*
X822570Y116840D02*
X830674D01*
X825650Y111760D02*
X830674D01*
X826335Y106680D02*
X830674D01*
X820056Y132080D02*
X821784D01*
X807356Y130636D02*
X820056D01*
X805544D02*
X807356D01*
X805544Y124948D02*
X807356D01*
X820056Y118893D02*
Y124948D01*
Y121920D02*
X827108D01*
X807356Y124948D02*
X820056D01*
X874358Y105287D02*
Y107362D01*
X847246Y94662D02*
Y102301D01*
X844136Y96520D02*
X847246D01*
Y80000D02*
Y91250D01*
Y94662D01*
Y91250D02*
Y94662D01*
X844136Y101600D02*
X847246D01*
X842535Y91440D02*
X847246D01*
X844136Y95797D02*
Y102914D01*
X838892Y86360D02*
X847246D01*
X840472Y80000D02*
X847246D01*
X874358D02*
Y91250D01*
X840000Y12376D02*
Y48349D01*
X837371Y45720D02*
X840000D01*
X832291Y40640D02*
X840000D01*
X813656Y81280D02*
X847246D01*
X826724Y35073D02*
X840000Y48349D01*
X827211Y35560D02*
X840000D01*
X831346Y25400D02*
X840000D01*
X825683Y20320D02*
X840000D01*
X831346Y30480D02*
X840000D01*
X830674Y99040D02*
Y118354D01*
X825033Y101600D02*
X830674D01*
X820830Y96520D02*
X828214D01*
X820056Y91440D02*
X827243D01*
X830199Y57586D02*
Y70235D01*
X820056Y89936D02*
Y95991D01*
X819206Y55388D02*
Y63556D01*
X813656Y86360D02*
X830511D01*
X813656Y76200D02*
X830199D01*
X813656Y89936D02*
X820056D01*
X813656Y71120D02*
X829882D01*
X813656Y66040D02*
X830199D01*
X813656Y63556D02*
X819206D01*
X813656D02*
Y89936D01*
X820006Y50800D02*
X823413D01*
X837624Y10000D02*
X840000Y12376D01*
X823217Y17855D02*
X825943Y20581D01*
X819206Y60960D02*
X830199D01*
X819206Y55880D02*
X828493D01*
X819398Y46785D02*
X830199Y57586D01*
X780144Y130636D02*
X781956D01*
X792844D02*
X794656D01*
X792844D02*
X794656D01*
X780144D02*
X781956D01*
X792844D01*
X754744D02*
X767444D01*
X754744D02*
Y165544D01*
X767444Y130636D02*
X769256D01*
X780144D01*
X767444D02*
X769256D01*
X794656D02*
X805544D01*
X807356D01*
X780144Y124948D02*
X781956D01*
X792844D01*
X794656D02*
X805544D01*
X807356D01*
X792844D02*
X794656D01*
X792844D02*
X794656D01*
X740913Y127000D02*
X822505D01*
X767444Y124948D02*
X769256D01*
X742965Y124948D02*
X758050D01*
X758124Y124948D02*
X767444D01*
X769256D02*
X780144D01*
X781956D01*
X767444D02*
X769256D01*
X682836Y165544D02*
X754744D01*
X685113Y218440D02*
X698246D01*
X690513Y213360D02*
X693787D01*
X683450Y162560D02*
X754744D01*
X681488Y157480D02*
X754744D01*
X662253Y157992D02*
X668535Y164273D01*
X637932Y162560D02*
X666822D01*
X637932Y157480D02*
X661790D01*
X637932Y147240D02*
Y163852D01*
X673735Y142240D02*
X754744D01*
X673735Y137160D02*
X754744D01*
X675700Y152400D02*
X754744D01*
X673735Y147320D02*
X754744D01*
X673735Y132080D02*
X754744D01*
X739963Y127950D02*
X742965Y124948D01*
X673735Y127000D02*
X719928D01*
X673735Y150435D02*
X678949Y155649D01*
X637932Y142240D02*
X660273D01*
X637932Y152400D02*
X660273D01*
X637932Y147320D02*
X660273D01*
X637932Y137160D02*
X660273D01*
X637932Y132080D02*
X660273D01*
X637932Y127740D02*
Y144352D01*
X737725Y76569D02*
X777746D01*
X754744Y124948D02*
X757976D01*
X786544Y64356D02*
Y74454D01*
X781050Y64356D02*
X786544D01*
X673735Y111760D02*
X718539D01*
X720792Y108778D02*
X721406Y108165D01*
X717995Y94300D02*
X734305Y77990D01*
X763363Y60960D02*
X772076D01*
X767351Y55880D02*
X768482D01*
X741951D02*
X743949D01*
X741951Y45720D02*
X743949D01*
X758552Y38379D02*
X766597Y30334D01*
X712563Y60960D02*
X722537D01*
X737963D02*
X747937D01*
X716551Y55880D02*
X718549D01*
X716551Y45720D02*
X718549D01*
X737963Y40640D02*
X747937D01*
X712563D02*
X722537D01*
X673735Y121920D02*
X717296D01*
X673735Y116840D02*
X716907D01*
X673735Y104017D02*
Y150435D01*
Y106680D02*
X711507D01*
X674491Y101600D02*
X709743D01*
X687163Y60960D02*
X697137D01*
X673374Y96520D02*
X711915D01*
X660273Y104017D02*
Y153223D01*
X661763Y60960D02*
X671737D01*
X691151Y55880D02*
X693149D01*
X691151Y45720D02*
X693149D01*
X665751Y55880D02*
X667749D01*
X665751Y45720D02*
X667749D01*
X687163Y40640D02*
X697137D01*
X640351Y55880D02*
X642349D01*
X640351Y45720D02*
X642349D01*
X661763Y40640D02*
X671737D01*
X627380Y770476D02*
X711200D01*
X627380Y743364D02*
X711200D01*
X632121Y731520D02*
X706459D01*
X636966Y728406D02*
X695386Y669986D01*
X617794Y709234D02*
X672244Y654785D01*
X578988Y701040D02*
X625989D01*
X579976Y695960D02*
X631069D01*
X543560Y770476D02*
X627380D01*
X543560Y743364D02*
X627380D01*
X548301Y731520D02*
X622639D01*
X555111Y726440D02*
X616168D01*
X570351Y711200D02*
X616168D01*
X575431Y706120D02*
X620909D01*
X560191Y721360D02*
X614064D01*
X579976Y655320D02*
X671709D01*
X579976Y650240D02*
X672244D01*
X597183Y645160D02*
X646844D01*
X603198Y640080D02*
X646844D01*
X605181Y635000D02*
X646844D01*
X605086Y629920D02*
X646844D01*
X602858Y624840D02*
X643011D01*
X595828Y619760D02*
X637931D01*
X579976Y680720D02*
X646309D01*
X579976Y675640D02*
X651389D01*
X579976Y690880D02*
X636149D01*
X579976Y685800D02*
X641229D01*
X579976Y665480D02*
X661549D01*
X579976Y660400D02*
X666629D01*
X579976Y670560D02*
X656469D01*
X565271Y716280D02*
X614064D01*
X553146Y728406D02*
X576006Y705546D01*
X535299Y701040D02*
X542169D01*
X579976Y639304D02*
Y695960D01*
X538734Y704475D02*
X552864Y690345D01*
Y646266D02*
Y690345D01*
X520059Y685800D02*
X552864D01*
X530219Y695960D02*
X547249D01*
X525139Y690880D02*
X552329D01*
X509899Y675640D02*
X552864D01*
X504819Y670560D02*
X552864D01*
X514979Y680720D02*
X552864D01*
X579976Y645160D02*
X586457D01*
X577458Y624840D02*
X580782D01*
X570428Y619760D02*
X587812D01*
X554576Y624840D02*
X555382D01*
X554576Y619760D02*
X562412D01*
X499739Y665480D02*
X552864D01*
X527464Y646266D02*
X552864D01*
X554576Y619154D02*
Y626116D01*
X527464Y619154D02*
Y646266D01*
X632470Y614299D02*
X646844Y628673D01*
X571372Y593684D02*
X584784D01*
Y578272D02*
Y593684D01*
Y589280D02*
X709549D01*
X571372Y578272D02*
Y593684D01*
X545465Y614680D02*
X632851D01*
X545465Y600837D02*
X635258D01*
X545465Y614299D02*
X632470D01*
X545465Y599440D02*
X687390D01*
X545465Y594360D02*
X708539D01*
X562484Y589280D02*
X571372D01*
X631890Y584200D02*
X709549D01*
X632438Y579120D02*
X697144D01*
X628266Y574040D02*
X697144D01*
X584784Y584200D02*
X618298D01*
X584784Y579120D02*
X617750D01*
X571372Y578272D02*
X584784D01*
X561164Y574040D02*
X621922D01*
X545465Y619154D02*
X554576D01*
X549072Y593684D02*
X562484D01*
X545465Y614299D02*
Y619154D01*
Y589280D02*
X549072D01*
X562484Y586558D02*
Y593684D01*
X545465Y576714D02*
Y600837D01*
X549072Y586771D02*
Y593684D01*
X532003Y607568D02*
Y619154D01*
X496708Y604520D02*
X532003D01*
X527464Y619154D02*
X532003D01*
X496708Y592756D02*
Y609368D01*
X532003Y568933D02*
Y607568D01*
X496708Y589280D02*
X532003D01*
X496708Y573256D02*
Y589868D01*
X562484Y584200D02*
X571372D01*
X562484Y579120D02*
X571372D01*
X549022Y581146D02*
Y585953D01*
X562484Y578272D02*
Y585398D01*
X562484Y578044D02*
Y585400D01*
X545465Y584200D02*
X549022D01*
X496708D02*
X532003D01*
X496708Y579120D02*
X532003D01*
X545465D02*
X546688D01*
X496708Y574040D02*
X532003D01*
X438346Y741680D02*
X750539D01*
X438346Y736600D02*
X745459D01*
X438346Y731520D02*
X538819D01*
X438346Y726440D02*
X532348D01*
X438346Y716280D02*
X530244D01*
X481151Y665930D02*
X530480Y715259D01*
X438346Y721360D02*
X530244D01*
X438346Y711200D02*
X526421D01*
X42445Y790000D02*
X1157555D01*
X45878Y787400D02*
X1154122D01*
X50077Y782320D02*
X1149923D01*
X52416Y777240D02*
X1147584D01*
X431568Y772160D02*
X792015D01*
X438346Y743364D02*
X543560D01*
X433881Y770476D02*
X543560D01*
X437646Y706120D02*
X521341D01*
X434577Y701040D02*
X516261D01*
X492633Y655320D02*
X552864D01*
X492633Y650240D02*
X552864D01*
X492633Y658374D02*
X538734Y704475D01*
X494659Y660400D02*
X552864D01*
X380105Y695960D02*
X511181D01*
X375025Y690880D02*
X506101D01*
X369945Y685800D02*
X501021D01*
X364865Y680720D02*
X495941D01*
X359785Y675640D02*
X490861D01*
X401426Y670560D02*
X485781D01*
X406473Y665480D02*
X480738D01*
X238346Y736600D02*
X411234D01*
Y723976D02*
Y760420D01*
X438346Y710420D02*
Y743364D01*
X238346Y731520D02*
X411234D01*
X238346Y726440D02*
X411234D01*
X238346Y772160D02*
X418012D01*
X238346Y767080D02*
X412983D01*
X238346Y762000D02*
X411326D01*
X238346Y756920D02*
X411234D01*
X238346Y746760D02*
X411234D01*
X238346Y741680D02*
X411234D01*
X238346Y751840D02*
X411234D01*
X449332Y655320D02*
X479171D01*
X451785Y650240D02*
X479171D01*
X407771Y660400D02*
X479171D01*
X375394Y723976D02*
X411234D01*
X381009Y696864D02*
X424790D01*
X407771Y655320D02*
X439160D01*
X407771Y645160D02*
X438230D01*
X407771Y650240D02*
X436707D01*
X492633Y635000D02*
X527464D01*
X492633Y629920D02*
X527464D01*
X492633Y645160D02*
X527464D01*
X492633Y640080D02*
X527464D01*
X492633Y624840D02*
X527464D01*
X492633Y619760D02*
X527464D01*
X479171Y609368D02*
Y661162D01*
X492633Y609368D02*
Y658374D01*
X429418Y635000D02*
X479171D01*
X430911Y629920D02*
X479171D01*
X450262Y645160D02*
X479171D01*
X424213Y640080D02*
X479171D01*
X430911Y619760D02*
X479171D01*
X430911Y614680D02*
X479171D01*
X430911Y624840D02*
X479171D01*
X492633Y609600D02*
X532003D01*
X496708Y599440D02*
X532003D01*
X492633Y614680D02*
X532003D01*
X492633Y609368D02*
X496708D01*
Y594360D02*
X532003D01*
X475096Y589868D02*
X496708D01*
X475096Y592756D02*
X496708D01*
X475096Y573256D02*
Y589868D01*
X430911Y609600D02*
X479171D01*
X475096Y609368D02*
X479171D01*
X427603Y594360D02*
X475096D01*
X422523Y589280D02*
X475096D01*
X419621Y579120D02*
X475096D01*
X419621Y574040D02*
X475096D01*
X419621Y584200D02*
X475096D01*
X430911Y600456D02*
Y630772D01*
X425228Y639243D02*
X428931Y635540D01*
X407771Y641223D02*
X420460D01*
X408498Y619760D02*
X417449D01*
X407746Y627761D02*
X417449D01*
X385471Y624840D02*
X417449D01*
Y603244D02*
Y627761D01*
X409196Y603997D02*
Y617482D01*
X430911Y604520D02*
X475096D01*
X430834Y599440D02*
X475096D01*
Y592756D02*
Y609368D01*
X419621Y586378D02*
X428931Y595688D01*
X419621Y558992D02*
Y586378D01*
X409196Y609600D02*
X417449D01*
X409196Y604520D02*
X417449D01*
X409196Y614680D02*
X417449D01*
X408139Y593934D02*
X417449Y603244D01*
X396621Y599440D02*
X413645D01*
X396621Y594360D02*
X408565D01*
X599217Y568960D02*
X697144D01*
X599217Y563880D02*
X709549D01*
X599217Y558800D02*
X659717D01*
X599217Y553720D02*
X659717D01*
X589852Y545614D02*
X604964D01*
Y529502D02*
Y545614D01*
X599217Y549735D02*
Y571929D01*
X589852Y543574D02*
Y545614D01*
X580040Y571929D02*
X599217D01*
X580040Y549735D02*
X599217D01*
X578200Y558800D02*
X580040D01*
X604964Y538480D02*
X659717D01*
X604964Y533400D02*
X659717D01*
X604964Y543560D02*
X659717D01*
X599352Y525614D02*
X614464D01*
Y523240D02*
X659717D01*
X615825Y518160D02*
X676679D01*
X614464Y519521D02*
Y525614D01*
X596325Y518160D02*
X599352D01*
X589852Y529502D02*
X604964D01*
X548040Y528320D02*
X659717D01*
X548040Y543574D02*
X589852D01*
X548040Y530112D02*
X589852D01*
X595464Y519021D02*
Y525614D01*
Y523240D02*
X599352D01*
X580352Y525614D02*
X595464D01*
X559792Y571929D02*
X578200D01*
X557790Y568960D02*
X559023D01*
X580040Y549735D02*
Y571929D01*
X578200Y568960D02*
X580040D01*
X578200Y549735D02*
Y571929D01*
X559023Y566961D02*
Y570405D01*
X545465Y568960D02*
X547618D01*
X545465Y568933D02*
Y572382D01*
X529428Y568933D02*
X532003D01*
X545465D02*
X547647D01*
X529428Y550322D02*
Y568933D01*
X578200Y563880D02*
X580040D01*
X578200Y553720D02*
X580040D01*
X548040Y553499D02*
X559023D01*
Y549735D02*
Y553499D01*
Y549735D02*
X578200D01*
X548040Y526822D02*
Y530112D01*
Y543574D02*
Y545434D01*
Y566961D02*
X559023D01*
X548040Y550322D02*
Y553499D01*
Y566961D02*
Y568603D01*
X529428Y550322D02*
X548040D01*
X529428Y545434D02*
X548040D01*
X529428Y526822D02*
X548040D01*
X529428D02*
Y545434D01*
X620742Y513080D02*
X681759D01*
X614464Y519521D02*
X619939Y514046D01*
X621919Y504619D02*
Y509278D01*
Y508000D02*
X686839D01*
X608457Y504619D02*
Y506490D01*
X605600Y482425D02*
Y504619D01*
X605445Y509502D02*
X608457Y506490D01*
X600902Y508000D02*
X606947D01*
X599352Y515092D02*
Y525614D01*
X600902Y509502D02*
X605445D01*
X600902Y504619D02*
X603759D01*
Y482425D02*
Y504619D01*
X600902D02*
Y509502D01*
X624776Y503047D02*
Y504619D01*
Y503047D02*
X643382D01*
X605600Y504619D02*
X608457D01*
X621919D02*
X624776D01*
X629040Y487680D02*
X642499D01*
X634120Y482600D02*
X647579D01*
X627135Y489585D02*
X640594D01*
X605600Y482425D02*
X615257D01*
X603759Y492760D02*
X605600D01*
X603759Y487680D02*
X605600D01*
X603759Y502920D02*
X605600D01*
X603759Y497840D02*
X605600D01*
X603759Y482600D02*
X605600D01*
X572868Y477520D02*
X620162D01*
X584582Y482425D02*
X603759D01*
X595464Y519021D02*
X598922Y515563D01*
X560633Y513549D02*
X575649D01*
X558491D02*
X560633D01*
X558491D02*
X560633D01*
X580352Y510413D02*
Y525614D01*
X575649Y510413D02*
X580352D01*
X575649D02*
Y513549D01*
Y513080D02*
X580352D01*
X543475Y513549D02*
X558491D01*
X543475Y510413D02*
Y511238D01*
Y513549D01*
X528486Y511238D02*
X543475D01*
Y496126D02*
Y496951D01*
Y493815D02*
Y496126D01*
X528486D02*
X543475D01*
X584582Y482425D02*
Y486791D01*
X576871Y482600D02*
X584582D01*
X545323Y482318D02*
Y493815D01*
X581062Y486791D02*
X584582D01*
X572868Y478597D02*
X581062Y486791D01*
X537215Y492760D02*
X545323D01*
X539178Y487680D02*
X545323D01*
X543475Y493815D02*
X545323D01*
X537215Y482600D02*
X545323D01*
X503882Y553720D02*
X529428D01*
X508962Y548640D02*
X659717D01*
X497253Y560349D02*
X513218Y544384D01*
X498802Y558800D02*
X529428D01*
X518276Y543560D02*
X529428D01*
X497253Y529813D02*
Y541311D01*
X506043Y532520D01*
X492760Y570007D02*
X497253D01*
Y568960D02*
X532003D01*
X492760Y570007D02*
Y573256D01*
X496708D01*
X497253Y560349D02*
Y570007D01*
Y563880D02*
X529428D01*
X475059Y548990D02*
X489574D01*
X522005Y538480D02*
X529428D01*
X521271Y533400D02*
X529428D01*
X508486Y520738D02*
X524598D01*
Y518160D02*
X580352D01*
X508486Y515145D02*
Y520738D01*
X497253Y538480D02*
X500084D01*
X497253Y533400D02*
X505164D01*
X475059Y529813D02*
X497253D01*
X440579Y528320D02*
X529428D01*
X445659Y523240D02*
X580352D01*
X449474Y518160D02*
X508486D01*
X479298Y570007D02*
Y573256D01*
X475059Y570007D02*
X479298D01*
X475096Y573256D02*
X479298D01*
X475059Y550830D02*
Y570007D01*
Y550830D02*
X487734D01*
X489574Y548990D01*
X475059Y529813D02*
Y548990D01*
X419621Y563880D02*
X475059D01*
X419818Y558800D02*
X475059D01*
X419621Y568960D02*
X475059D01*
X420946Y553720D02*
X475059D01*
X420946Y548640D02*
X475059D01*
X420946Y547953D02*
Y555995D01*
X435499Y533400D02*
X475059D01*
X425339Y543560D02*
X475059D01*
X430419Y538480D02*
X475059D01*
X386319Y533400D02*
X416461D01*
X381239Y528320D02*
X421541D01*
X408885Y538434D02*
X411427D01*
X420946Y547953D02*
X447727Y521172D01*
X385609Y518160D02*
X431701D01*
X380529Y523240D02*
X426621D01*
X524598Y513080D02*
X543475D01*
X524598Y508000D02*
X528486D01*
X524598Y505626D02*
Y520738D01*
X518005Y505626D02*
X524598D01*
X528486Y496126D02*
Y511238D01*
X524598Y490465D02*
Y501738D01*
Y497840D02*
X528486D01*
X515299Y502920D02*
X528486D01*
X514117Y501738D02*
X524598D01*
X493752Y500411D02*
X508486Y515145D01*
X514117Y501738D02*
X518005Y505626D01*
X508486Y486626D02*
Y496107D01*
X502333Y489954D02*
X508486Y496107D01*
X524598Y492760D02*
X526029D01*
X526343Y478751D02*
X541359D01*
X524201D02*
X526343D01*
X524201D02*
X526343D01*
X508486Y486626D02*
X524140D01*
X505139Y492760D02*
X508486D01*
X502333Y487680D02*
X508486D01*
X502333Y482600D02*
X526029D01*
X509185Y478751D02*
X524201D01*
X502333Y477520D02*
X509185D01*
X449707Y513080D02*
X506421D01*
X449707Y508000D02*
X501341D01*
X449707Y502920D02*
X496261D01*
X480139Y500411D02*
X493752D01*
X480139Y494370D02*
Y500411D01*
X433446Y497840D02*
X436245D01*
X449707D02*
X480139D01*
X395769Y508000D02*
X436245D01*
X400849Y502920D02*
X436245D01*
X411427Y538434D02*
X436245Y513616D01*
X390689Y513080D02*
X436245D01*
X403883Y499886D02*
X413065D01*
X413120Y499886D02*
X433446D01*
X406334D02*
X413009D01*
X502333Y481234D02*
Y489954D01*
X484995Y481234D02*
X502333D01*
X484995Y481234D02*
X488378D01*
X483155Y479394D02*
X484995Y481234D01*
X483155Y479394D02*
X502333D01*
X463865Y479142D02*
X477439Y492716D01*
X449707Y492760D02*
X477483D01*
X449707Y487680D02*
X472403D01*
X433446Y492760D02*
X436245D01*
X433446Y487680D02*
X436245D01*
X449707Y482600D02*
X467323D01*
X457272Y479142D02*
X463865D01*
X433446Y482600D02*
X436245D01*
X402089Y669977D02*
X405791Y666274D01*
X407771Y641223D02*
Y661506D01*
X394309Y634492D02*
Y658495D01*
X356102Y671957D02*
X397321D01*
X342640Y658495D02*
X394309D01*
X356102Y671957D02*
X381009Y696864D01*
X334385Y650240D02*
X394309D01*
X329305Y645160D02*
X394309D01*
X339465Y655320D02*
X394309D01*
X394334Y626786D02*
Y633913D01*
X385471Y629920D02*
X394334D01*
X385446Y640080D02*
X394309D01*
X385452Y635000D02*
X394309D01*
X407746Y626786D02*
Y627761D01*
X394334Y626786D02*
X407746D01*
X385471Y621546D02*
Y634492D01*
Y621546D02*
X405132D01*
X372034Y642198D02*
X385446D01*
Y635071D02*
Y642198D01*
X372034Y635071D02*
Y642198D01*
X324225Y640080D02*
X372034D01*
X319145Y635000D02*
X372028D01*
X372009Y620573D02*
Y634492D01*
X238346Y721360D02*
X367389D01*
X238346Y716280D02*
X362083D01*
X238346Y746864D02*
Y760420D01*
Y746864D02*
Y760420D01*
X323789Y677987D02*
X365809Y720006D01*
X238346Y711200D02*
X357003D01*
X238346Y710420D02*
Y746864D01*
X301979Y656176D02*
X323789Y677987D01*
X224790Y773976D02*
X238346D01*
Y760420D02*
Y773976D01*
X211234D02*
X224790D01*
X211234Y710420D02*
Y743364D01*
X237646Y706120D02*
X351923D01*
X234577Y701040D02*
X346843D01*
X317180Y633034D02*
X342640Y658495D01*
X312335Y629920D02*
X372009D01*
X277663Y619760D02*
X371282D01*
X355310Y617471D02*
X370584D01*
X263728Y621157D02*
Y622132D01*
Y621157D02*
X273558D01*
X228016Y622132D02*
X241428D01*
X250316D02*
X263728D01*
X241428Y619760D02*
X250316D01*
X374647Y599934D02*
X383159D01*
X396621D02*
X405132D01*
X358098Y604009D02*
X370584D01*
X383159Y558992D02*
Y599934D01*
X396621Y558992D02*
Y599934D01*
X321036Y566948D02*
X358098Y604009D01*
X353529Y599440D02*
X383159D01*
X282823Y614680D02*
X349731D01*
X287903Y609600D02*
X344651D01*
X292983Y604520D02*
X339571D01*
X298063Y599440D02*
X334491D01*
X316277Y581226D02*
X350550Y615499D01*
X303143Y594360D02*
X329411D01*
X278326Y619177D02*
X316277Y581226D01*
X348449Y594360D02*
X383159D01*
X396621Y589280D02*
X406160D01*
X406159Y558992D02*
Y589166D01*
X396621Y574040D02*
X406159D01*
X396621Y584200D02*
X406159D01*
X396621Y579120D02*
X406159D01*
X343369Y589280D02*
X383159D01*
X338289Y584200D02*
X383159D01*
X308223Y589280D02*
X324331D01*
X313303Y584200D02*
X319251D01*
X333209Y579120D02*
X383159D01*
X328129Y574040D02*
X383159D01*
X268057Y533006D02*
X306758Y571707D01*
X250316Y606720D02*
Y613847D01*
X263728Y607695D02*
X270770D01*
X250316Y615005D02*
Y622132D01*
X270770Y607695D02*
X306758Y571707D01*
X241453Y599440D02*
X279025D01*
X263728Y606720D02*
Y607695D01*
X250316Y606720D02*
X263728D01*
X241448Y614680D02*
X250296D01*
X241453Y609600D02*
X250316D01*
X228016Y615005D02*
Y622132D01*
X241428Y615005D02*
Y622132D01*
X241453Y596753D02*
Y614426D01*
Y604520D02*
X273945D01*
X227991Y594132D02*
Y614426D01*
X266076Y584200D02*
X294265D01*
X266076Y579120D02*
X299345D01*
X264831Y594360D02*
X284105D01*
X266076Y589280D02*
X289185D01*
X265968Y574040D02*
X304425D01*
X266076Y574975D02*
Y591425D01*
X247456Y595506D02*
X261995D01*
X218320Y540578D02*
X248636Y570894D01*
X261995D01*
X226964Y587565D02*
Y591425D01*
X93980Y743364D02*
X211234D01*
X103322Y726440D02*
X211234D01*
Y770476D02*
Y773976D01*
X93980Y770476D02*
X211234D01*
X103322Y711200D02*
X211234D01*
X105765Y721360D02*
X211234D01*
X105765Y716280D02*
X211234D01*
X10000Y736600D02*
X211234D01*
X10000Y731520D02*
X211234D01*
X53457Y772160D02*
X211234D01*
X10000Y741680D02*
X211234D01*
X10000Y701040D02*
X215003D01*
X10000Y695960D02*
X341763D01*
X10000Y706120D02*
X211934D01*
X152020Y656176D02*
X301979D01*
X10000Y655320D02*
X147279D01*
X127735Y637506D02*
X142435Y652206D01*
X10000Y650240D02*
X140469D01*
X10000Y645160D02*
X135389D01*
X10000Y640080D02*
X130309D01*
X10000Y690880D02*
X336683D01*
X10000Y685800D02*
X331603D01*
X10000Y680720D02*
X326523D01*
X10000Y675640D02*
X321443D01*
X10000Y670560D02*
X316363D01*
X10000Y665480D02*
X311283D01*
X10000Y660400D02*
X306203D01*
X81924Y768976D02*
X87782D01*
X81924Y763118D02*
Y768976D01*
X53374Y767080D02*
X81924D01*
Y744864D02*
Y750722D01*
X52156Y762000D02*
X81412D01*
X49591Y756920D02*
X80424D01*
X45003Y751840D02*
X81412D01*
X10000D02*
X14997D01*
X10000Y746760D02*
X26154D01*
X118194Y637506D02*
X127735D01*
X81924Y744864D02*
X87782D01*
X10000Y726440D02*
X84637D01*
X33846Y746760D02*
X81924D01*
X10000Y721360D02*
X82195D01*
X10000Y711200D02*
X84637D01*
X57994Y637506D02*
X85006D01*
X10000Y716280D02*
X82195D01*
X157635Y629064D02*
X307594D01*
X153411Y624840D02*
X372009D01*
X118194Y625063D02*
Y637506D01*
X118144Y622300D02*
Y623900D01*
X145256Y616685D02*
X157635Y629064D01*
X148331Y619760D02*
X228016D01*
X118144Y584708D02*
Y622300D01*
X145256Y580457D02*
Y616685D01*
X85006Y629920D02*
X118194D01*
X85006Y635000D02*
X118194D01*
X85006Y624840D02*
X118177D01*
X85006Y614680D02*
X118144D01*
X85006Y619760D02*
X118144D01*
X145256Y614680D02*
X227996D01*
X145256Y599440D02*
X227991D01*
X145256Y609600D02*
X227991D01*
X145256Y604520D02*
X227991D01*
X145256Y594360D02*
X227991D01*
X203119Y563720D02*
X226964Y587565D01*
X145256Y589280D02*
X226964D01*
X145256Y584200D02*
X223599D01*
X10000Y589280D02*
X118144D01*
X108839Y584708D02*
X118144D01*
X10000Y599440D02*
X118144D01*
X10000Y594360D02*
X118144D01*
X145190Y579120D02*
X218519D01*
X143641Y574040D02*
X213439D01*
X85006Y609600D02*
X118144D01*
X85006Y607094D02*
Y637506D01*
X57994Y607094D02*
X85006D01*
X57994D02*
Y637506D01*
X10000Y624840D02*
X57994D01*
X10000Y619760D02*
X57994D01*
X10000Y635000D02*
X57994D01*
X10000Y629920D02*
X57994D01*
X10000Y609600D02*
X57994D01*
X10000Y604520D02*
X118144D01*
X10000Y614680D02*
X57994D01*
X108839Y576285D02*
Y584708D01*
X94361Y579120D02*
X108839D01*
X94361Y584200D02*
X108839D01*
X94361Y574040D02*
X107958D01*
X94361Y555752D02*
Y584708D01*
X70104D02*
X94361D01*
X10000Y574040D02*
X70104D01*
X10000Y584200D02*
X70104D01*
X10000Y579120D02*
X70104D01*
Y555752D02*
Y584708D01*
X396621Y568960D02*
X406159D01*
X396621Y563880D02*
X406159D01*
X396818Y558800D02*
X405962D01*
X404834Y542485D02*
Y555995D01*
X381834Y547953D02*
Y555995D01*
X397946Y542485D02*
Y555995D01*
X323049Y568960D02*
X383159D01*
X317969Y563880D02*
X383159D01*
X362885Y560046D02*
X370895D01*
X373817Y558800D02*
X382962D01*
X374946Y542485D02*
Y555995D01*
X397946Y553720D02*
X404834D01*
X397946Y548640D02*
X404834D01*
X374946D02*
X381834D01*
X374946Y543560D02*
X377441D01*
X397946D02*
X404834D01*
X394504Y538480D02*
X408276D01*
X391353Y538434D02*
X393895D01*
X374946Y553720D02*
X381834D01*
X374480Y540600D02*
X381834Y547953D01*
X367584Y533703D02*
X372780Y538899D01*
X371504Y538480D02*
X372361D01*
X335511Y553720D02*
X358834D01*
Y542485D02*
Y555995D01*
X338608Y548640D02*
X358834D01*
X312889Y558800D02*
X359962D01*
X307809Y553720D02*
X317777D01*
X246701Y568960D02*
X304011D01*
X302729Y548640D02*
X314680D01*
X362885Y538434D02*
X370895D01*
X339136Y543560D02*
X358834D01*
X337476Y538480D02*
X362276D01*
X364454Y531296D02*
X366032D01*
X352454D02*
X364454D01*
X287489Y533400D02*
X321447D01*
X297649Y543560D02*
X314152D01*
X292569Y538480D02*
X315812D01*
X331841Y533400D02*
X367298D01*
X265515Y533006D02*
X268057D01*
X242515D02*
X250525D01*
X379066Y526147D02*
X391353Y538434D01*
X379066Y524703D02*
Y526147D01*
X379066Y524703D02*
Y526147D01*
X379066Y524703D02*
X403883Y499886D01*
X369547Y515184D02*
X396327Y488404D01*
X364454Y515184D02*
X367066D01*
X369547D01*
X364454Y531296D02*
X366032D01*
X352454Y515184D02*
X364454D01*
X367066D01*
X352454D02*
Y531296D01*
X373446Y487680D02*
X397180D01*
X373446Y497840D02*
X386891D01*
X373446Y492760D02*
X391971D01*
X373446Y482600D02*
X406334D01*
X373446Y477520D02*
X406334D01*
X401095Y486424D02*
X406334D01*
X250221Y508000D02*
X376731D01*
X250796Y502920D02*
X381811D01*
X277576Y513080D02*
X371651D01*
X346334Y499886D02*
X373446D01*
X282409Y528320D02*
X352454D01*
X277576Y523240D02*
X352454D01*
X277576Y523487D02*
X321028Y566939D01*
X277576Y512445D02*
Y523487D01*
Y518160D02*
X352454D01*
X261464Y512445D02*
Y528955D01*
X254576Y523240D02*
X261464D01*
X254576Y518160D02*
X261464D01*
X254576Y528320D02*
X261464D01*
X254576Y513080D02*
X261464D01*
X254576Y512445D02*
Y528955D01*
X260419Y492760D02*
X346334D01*
X265499Y487680D02*
X346334D01*
X265515Y508394D02*
X273525D01*
X270579Y482600D02*
X346334D01*
X289936Y477520D02*
X346334D01*
X272343Y480836D02*
X289936D01*
X250221Y503356D02*
Y508394D01*
X250796Y500614D02*
Y503356D01*
X254453Y498726D02*
X272343Y480836D01*
X255339Y497840D02*
X346334D01*
X244065Y487244D02*
X246897D01*
X241621Y563880D02*
X298930D01*
X236541Y558800D02*
X293851D01*
X183388Y563720D02*
X203119D01*
X154770Y553720D02*
X170307D01*
X231461D02*
X288771D01*
X226381Y548640D02*
X283691D01*
X155542D02*
X169918D01*
X141409Y568960D02*
X208359D01*
X146489Y563880D02*
X203279D01*
X140350Y570019D02*
X151572Y558797D01*
X151569Y558800D02*
X172939D01*
X116274Y555752D02*
X128430Y543596D01*
X221301Y543560D02*
X278611D01*
X215608Y538480D02*
X273531D01*
X219515Y533006D02*
X227525D01*
X155542Y543560D02*
X171549D01*
X155542Y538480D02*
X176514D01*
X112426Y543560D02*
X128430D01*
X112426Y538480D02*
X128430D01*
X183388Y536608D02*
X208734D01*
X155542Y533400D02*
X268451D01*
X114906D02*
X128430D01*
X108839Y562577D02*
Y564175D01*
X104195Y557933D02*
X108839Y562577D01*
X94361Y563880D02*
X108839D01*
X94361Y558800D02*
X105062D01*
X112426Y552514D02*
X115664Y555752D01*
X102774Y537646D02*
Y554513D01*
X94361Y568960D02*
X107471D01*
X10000D02*
X70104D01*
X10000Y563880D02*
X70104D01*
Y555752D02*
X94361D01*
X10000Y553720D02*
X102774D01*
X10000Y558800D02*
X70104D01*
X113632Y553720D02*
X118306D01*
X112426Y548640D02*
X123386D01*
X100294Y537646D02*
X102774D01*
X100294D02*
X102774D01*
X112426D02*
Y552514D01*
Y537646D02*
X114906D01*
X10000Y543560D02*
X102774D01*
X10000Y538480D02*
X102774D01*
X10000Y548640D02*
X102774D01*
X88294Y537646D02*
X100294D01*
X10000Y528320D02*
X88294D01*
X10000Y533400D02*
X88294D01*
X238464Y517897D02*
Y528955D01*
X231576Y518160D02*
X238464D01*
X231576Y528320D02*
X238464D01*
X231576Y523240D02*
X238464D01*
X236759Y503356D02*
Y513420D01*
X231576Y513080D02*
X236759D01*
X231576Y512445D02*
Y528955D01*
X219515Y508394D02*
X227525D01*
X155542Y508000D02*
X236759D01*
X224184Y487244D02*
Y503356D01*
Y487244D02*
X236184D01*
X238796D02*
X246897D01*
X229936Y477520D02*
X256621D01*
X236184Y487244D02*
X238796D01*
X236184D02*
X238796D01*
X224184Y503356D02*
X236184D01*
X154219Y492760D02*
X224184D01*
X155542Y502920D02*
X224184D01*
X155521Y497840D02*
X224184D01*
X10000Y482600D02*
X251541D01*
X202824Y480836D02*
X229936D01*
X150016Y487680D02*
X224184D01*
X155542Y528320D02*
X215464D01*
X155542Y523240D02*
X215464D01*
X114906Y528320D02*
X128430D01*
X114906Y523240D02*
X128430D01*
X215464Y512445D02*
Y528955D01*
X155542Y498602D02*
Y549212D01*
X128430Y498602D02*
Y543596D01*
X88294Y521534D02*
X100294D01*
X88294D02*
Y537646D01*
X10000Y523240D02*
X88294D01*
X114906Y521534D02*
Y537646D01*
X100294Y521534D02*
X102906D01*
X100294D02*
X102906D01*
X155542Y513080D02*
X215464D01*
X102906Y521534D02*
X114906D01*
X155542Y518160D02*
X215464D01*
X10000Y477520D02*
X202824D01*
X10000Y508000D02*
X128430D01*
X10000Y502920D02*
X128430D01*
X10000Y518160D02*
X128430D01*
X10000Y513080D02*
X128430D01*
X10000Y492760D02*
X129753D01*
X10000Y487680D02*
X133956D01*
X10000Y497840D02*
X128451D01*
X627135Y489585D02*
X642291Y474429D01*
X618820Y457200D02*
X630809D01*
X615257Y482425D02*
X630809Y466873D01*
X616038Y459982D02*
X620471Y455549D01*
X630809D02*
Y466873D01*
X620471Y455549D02*
X630809D01*
X572868Y472440D02*
X625242D01*
X541359Y462280D02*
X630809D01*
X579183Y461962D02*
X611270D01*
X603071Y447848D02*
X637323Y413596D01*
X608482Y448500D02*
X612915Y444067D01*
X629280Y421640D02*
X639467D01*
X634360Y416560D02*
X687711D01*
X624199Y426720D02*
X638150D01*
X622670Y406400D02*
X625481D01*
X623519Y401320D02*
X631122D01*
X620771Y411110D02*
X629134Y402748D01*
X608959Y441960D02*
X634368D01*
X614039Y436880D02*
X647071D01*
X617683Y442087D02*
X634107D01*
X619119Y431800D02*
X640876D01*
X572868Y472004D02*
Y478597D01*
X558256Y472004D02*
X560868D01*
X572868D01*
X602826Y448500D02*
X608482D01*
X581971D02*
X588942D01*
X546256Y472004D02*
Y478899D01*
Y472004D02*
X558256D01*
X541359Y477520D02*
X546256D01*
X541359Y472440D02*
X546256D01*
X558256Y472004D02*
X560868D01*
X542411Y408940D02*
X581971Y448500D01*
X541359Y459017D02*
Y478751D01*
X603879Y447040D02*
X609942D01*
X570351Y436880D02*
X595001D01*
X580511Y447040D02*
X588483D01*
X575431Y441960D02*
X589217D01*
X593552Y438329D02*
X611109Y420772D01*
X609306Y421640D02*
X610241D01*
X565271Y431800D02*
X600081D01*
X560191Y426720D02*
X605161D01*
X555111Y421640D02*
X590694D01*
X550031Y416560D02*
X583247D01*
X544951Y411480D02*
X579430D01*
X544951Y406400D02*
X577330D01*
X550031Y401320D02*
X576481D01*
X542411Y408940D02*
X550972Y400379D01*
X636587Y391160D02*
X641282D01*
X637321Y386080D02*
X646362D01*
X623254Y396240D02*
X636202D01*
X631023Y401419D02*
X659634Y372809D01*
X621834Y391160D02*
X623253D01*
X619319Y386522D02*
X622733Y389936D01*
X607594Y374797D02*
X613479Y380681D01*
X615150Y363315D02*
X626265Y374430D01*
X622675Y370840D02*
X626020D01*
X617595Y365760D02*
X627527D01*
X604348Y325120D02*
X658376D01*
X620347Y289972D02*
X642541D01*
X620347D02*
Y309149D01*
X642541D01*
X557169Y314960D02*
X686859D01*
X552089Y309880D02*
X1060560D01*
X600995Y330200D02*
X655712D01*
X603425Y320040D02*
X662463D01*
X563547Y299720D02*
X620347D01*
X563547Y294640D02*
X620347D01*
X563547Y304800D02*
X620347D01*
X555554Y396240D02*
X576746D01*
X555918Y391160D02*
X578166D01*
X559100Y375920D02*
X608717D01*
X557435Y361335D02*
X610382D01*
X560224Y374797D02*
X607594D01*
X551192Y386080D02*
X580997D01*
X554020Y381000D02*
X586076D01*
X549351Y385670D02*
X560224Y374797D01*
X559328Y317119D02*
X593467D01*
X556540Y330581D02*
X593467D01*
X563547Y292406D02*
Y306355D01*
X548564D02*
X559328Y317119D01*
X548564Y306355D02*
X563547D01*
X541359Y467360D02*
X630322D01*
X534525Y457200D02*
X571633D01*
X535127Y459017D02*
X541359D01*
X528099Y413666D02*
X574415Y459982D01*
X529935Y452120D02*
X566553D01*
X524855Y447040D02*
X561473D01*
X522351Y441960D02*
X556393D01*
X522351Y436880D02*
X551313D01*
X522351Y444535D02*
X533262Y455447D01*
X522351Y431800D02*
X546233D01*
X522351Y426720D02*
X541153D01*
X522351Y423582D02*
Y444535D01*
X519717Y370840D02*
X545142D01*
X521652Y365760D02*
X550222D01*
X522065Y421640D02*
X536073D01*
X520827Y360680D02*
X632690D01*
X520827Y355600D02*
X655701D01*
X524668Y391314D02*
X552668Y363315D01*
X518117Y416560D02*
X530993D01*
X514530Y413666D02*
X528099D01*
X498367Y391314D02*
X524668D01*
X498214Y391160D02*
X524822D01*
X488053Y381000D02*
X534982D01*
X415512Y375920D02*
X540062D01*
X493133Y386080D02*
X529902D01*
X509185Y468537D02*
Y478751D01*
X502333Y472440D02*
X509185D01*
X502333Y461685D02*
Y479394D01*
Y467360D02*
X508008D01*
X502333Y461685D02*
X509185Y468537D01*
X516668Y415111D02*
X520371Y418814D01*
X500866Y460217D02*
X502333Y461685D01*
X498484Y457835D02*
X500866Y460217D01*
X488001D02*
X500866D01*
X490383Y457835D02*
X498484D01*
X488001Y460217D02*
X490383Y457835D01*
X487874Y380821D02*
X498367Y391314D01*
X507365Y351127D02*
Y362357D01*
X480318Y392303D02*
X488219Y400204D01*
X410432Y370840D02*
X508475D01*
X449553Y400204D02*
X488219D01*
X419796Y396240D02*
X484255D01*
X426484Y360680D02*
X507365D01*
X431106Y355600D02*
X507365D01*
X405352Y365760D02*
X506540D01*
X520827Y350520D02*
X655701D01*
X520827Y349405D02*
Y362357D01*
X520512Y345440D02*
X655701D01*
X519932Y340360D02*
X655701D01*
X520512Y343092D02*
Y347369D01*
X537311Y314140D02*
X551772Y328601D01*
X515487Y335280D02*
X655701D01*
X510407Y330200D02*
X554308D01*
X505327Y325120D02*
X548291D01*
X514921Y320040D02*
X543211D01*
X496899Y316692D02*
X518532Y338325D01*
X541353Y287178D02*
Y299592D01*
X538147Y294640D02*
X541353D01*
X538147Y287178D02*
Y299546D01*
X515655Y314960D02*
X538131D01*
X514985Y309880D02*
X532677D01*
X515953Y306355D02*
X532110D01*
X514985Y299720D02*
X515953D01*
Y287178D02*
Y306355D01*
X514985Y294640D02*
X515953D01*
X507049Y345881D02*
Y349090D01*
X487380Y326211D02*
X507049Y345881D01*
X500247Y320040D02*
X501587D01*
X432408Y350520D02*
X507203D01*
X431556Y345440D02*
X506609D01*
X427893Y340360D02*
X501529D01*
X398399Y335280D02*
X496449D01*
X398399Y330200D02*
X491369D01*
X398399Y325120D02*
X485247D01*
X398399Y314960D02*
X483342D01*
X514985Y304800D02*
X515953D01*
X501523Y294252D02*
Y295433D01*
X496082Y314960D02*
X500853D01*
X501523Y309087D02*
Y313051D01*
X514985Y291465D02*
Y313051D01*
X398399Y309880D02*
X501523D01*
X398430Y308991D02*
X494852D01*
X395642Y295529D02*
X494852D01*
X378046Y294640D02*
X501523D01*
X456767Y249496D02*
X501523Y294252D01*
X620347Y288132D02*
X642541D01*
X624713Y267202D02*
Y268955D01*
X620347D02*
Y288132D01*
Y268955D02*
X624713D01*
X612856Y255345D02*
X624713Y267202D01*
X622375Y245826D02*
X636195Y259646D01*
X572881Y289560D02*
X697587D01*
X588455Y274320D02*
X620347D01*
X574023Y284480D02*
X620347D01*
X583375Y279400D02*
X620347D01*
X594632Y269240D02*
X620347D01*
X596832Y264160D02*
X621671D01*
X595094Y259080D02*
X616591D01*
X635629D02*
X647319D01*
X630549Y254000D02*
X644641D01*
X625469Y248920D02*
X639561D01*
X621389Y243840D02*
X634481D01*
X632639Y241998D02*
X647319Y256678D01*
X619564Y241998D02*
X632639D01*
X559181Y254000D02*
X610396D01*
X559181Y248920D02*
X607671D01*
X559181Y243840D02*
X608987D01*
X598499Y231359D02*
X607158Y240018D01*
X559181Y238760D02*
X605900D01*
X582274Y280501D02*
X591716Y271059D01*
X574718Y269018D02*
X582061Y261676D01*
X573473Y282481D02*
X577506D01*
X563547Y269018D02*
X574718D01*
X563547Y266161D02*
Y269018D01*
X559181Y266161D02*
X563547D01*
X559181Y217846D02*
Y266161D01*
X596519Y217846D02*
Y226591D01*
X583513Y218440D02*
X596519D01*
X588686Y213741D02*
X592414D01*
X579449Y173308D02*
X600660Y194520D01*
X559181Y223520D02*
X596519D01*
X563513Y213360D02*
X566787D01*
X561598Y198120D02*
X568702D01*
X564624Y203200D02*
X565676D01*
X634549Y165544D02*
X668952D01*
X633857Y163852D02*
X637932D01*
X633857Y164852D02*
X634549Y165544D01*
X633857Y163852D02*
Y164852D01*
Y127000D02*
X660273D01*
X633857Y121920D02*
X660273D01*
X633857Y120942D02*
Y127740D01*
X637932D01*
X616469Y144352D02*
X637932D01*
X632463Y116840D02*
X660273D01*
X616469Y147240D02*
X637932D01*
X627463Y111760D02*
X660273D01*
X584581Y68878D02*
X631877Y116174D01*
X622383Y106680D02*
X660273D01*
X612224Y96520D02*
X660634D01*
X617304Y101600D02*
X659517D01*
X636363Y60960D02*
X646337D01*
X636363Y40640D02*
X646337D01*
X610963D02*
X620937D01*
X596983Y81280D02*
X731015D01*
X591903Y76200D02*
X778074D01*
X607144Y91440D02*
X720855D01*
X602063Y86360D02*
X725935D01*
X586824Y71120D02*
X786544D01*
X584581Y66040D02*
X786544D01*
X610963Y60960D02*
X620937D01*
X595006Y147240D02*
X616320D01*
X595006Y144352D02*
X616320D01*
X577469Y163852D02*
Y168540D01*
X573394Y144352D02*
X594857D01*
X573394Y127740D02*
X576945D01*
X584581Y61636D02*
Y68878D01*
X573145Y167640D02*
X577469D01*
X573394Y163852D02*
X577469D01*
X568065Y162560D02*
X573394D01*
X562985Y157480D02*
X573394D01*
Y147240D02*
X594857D01*
X573394Y127740D02*
Y144352D01*
Y147240D02*
Y163852D01*
X614951Y55880D02*
X616949D01*
X589551Y45720D02*
X591549D01*
X614951D02*
X616949D01*
X585563Y60960D02*
X595537D01*
X589551Y55880D02*
X591549D01*
X564151Y45720D02*
X566149D01*
X585563Y40640D02*
X595537D01*
X560163D02*
X570137D01*
X541353Y287178D02*
X559172D01*
X541353Y285338D02*
X558976D01*
X538147Y269240D02*
X541353D01*
X545719Y217846D02*
Y266161D01*
X559181Y264160D02*
X579576D01*
X541353Y266161D02*
Y285338D01*
Y266161D02*
X545719D01*
X538147Y284480D02*
X541353D01*
X538147Y279400D02*
X541353D01*
X538147Y289560D02*
X541353D01*
X515953Y285338D02*
X538147D01*
X533781Y264160D02*
X545719D01*
X533781Y259080D02*
X545719D01*
X538147Y274320D02*
X541353D01*
X559181Y233680D02*
X600820D01*
X559181Y228600D02*
X596826D01*
X559181Y259080D02*
X583466D01*
X533781Y218440D02*
X545719D01*
X559181D02*
X572187D01*
X538113Y213360D02*
X541387D01*
X533781Y243840D02*
X545719D01*
X533781Y238760D02*
X545719D01*
X533781Y254000D02*
X545719D01*
X533781Y248920D02*
X545719D01*
X533781Y228600D02*
X545719D01*
X533781Y223520D02*
X545719D01*
X533781Y233680D02*
X545719D01*
X515953Y287178D02*
X538147D01*
X515953Y266161D02*
Y285338D01*
X514710Y289560D02*
X515953D01*
X510789Y284480D02*
X515953D01*
X538147Y266161D02*
Y285338D01*
X533781Y217846D02*
Y266161D01*
X515953D02*
X520319D01*
Y217846D02*
Y266161D01*
X378046Y289560D02*
X496830D01*
X505709Y279400D02*
X515953D01*
X378046Y284480D02*
X491750D01*
X378046Y279400D02*
X486670D01*
X500629Y274320D02*
X515953D01*
X495549Y269240D02*
X515953D01*
X468249Y241940D02*
X513005Y286696D01*
X533781Y266161D02*
X538147D01*
X480309Y254000D02*
X520319D01*
X490469Y264160D02*
X520319D01*
X485389Y259080D02*
X520319D01*
X475229Y248920D02*
X520319D01*
X470149Y243840D02*
X520319D01*
X468249Y203200D02*
X514876D01*
X468249Y228600D02*
X520319D01*
X468249Y223520D02*
X520319D01*
X468249Y238760D02*
X520319D01*
X468249Y233680D02*
X520319D01*
X468249Y218440D02*
X520319D01*
X468249Y213360D02*
X515987D01*
X468249Y208280D02*
X514357D01*
X531429Y144963D02*
X581157Y194690D01*
X552825Y147320D02*
X573394D01*
X557905Y152400D02*
X573394D01*
X540447Y134942D02*
X600143Y194638D01*
X538486Y132080D02*
X573394D01*
X547745Y142240D02*
X573394D01*
X542665Y137160D02*
X573394D01*
X468249Y193040D02*
X579507D01*
X468249Y187960D02*
X574427D01*
X468249Y182880D02*
X569347D01*
X468249Y177800D02*
X564267D01*
X468249Y172720D02*
X559187D01*
X468249Y167640D02*
X554107D01*
X468249Y162560D02*
X549027D01*
X523498Y74293D02*
X576945Y127740D01*
X468249Y111760D02*
X560965D01*
X468249Y106680D02*
X555885D01*
X468249Y101600D02*
X550805D01*
X468249Y30480D02*
X766451D01*
X468249Y29337D02*
X767863D01*
X468249Y35560D02*
X761371D01*
X468249Y127000D02*
X576205D01*
X465238Y15875D02*
X818449D01*
X468249Y121920D02*
X571125D01*
X468249Y116840D02*
X566045D01*
X47962Y15240D02*
X840000D01*
X41916Y10160D02*
X837784D01*
X41638Y10000D02*
X837624D01*
X536198Y198120D02*
X543302D01*
X539224Y203200D02*
X540276D01*
X468249Y96520D02*
X545725D01*
X468249Y91440D02*
X540645D01*
X468249Y86360D02*
X535565D01*
X468249Y81280D02*
X530485D01*
X468249Y157480D02*
X543947D01*
X468249Y152400D02*
X538867D01*
X468249Y198120D02*
X517902D01*
X468249Y147320D02*
X533787D01*
X468249Y142240D02*
X527384D01*
X468249Y132080D02*
X528314D01*
X468249Y137160D02*
X525861D01*
X538751Y45720D02*
X540749D01*
X521518Y62294D02*
Y69525D01*
X534763Y40640D02*
X544737D01*
X468249D02*
X519337D01*
X468249Y76200D02*
X525405D01*
X468249Y71120D02*
X521710D01*
X468249Y66040D02*
X521518D01*
X468249Y60960D02*
X519337D01*
X468249Y55880D02*
X515349D01*
X468249Y45720D02*
X515349D01*
X468249Y50800D02*
X514294D01*
X476201Y472440D02*
X480139D01*
X457272Y477210D02*
Y479142D01*
X473384Y469623D02*
X480139Y476378D01*
Y466031D02*
Y476378D01*
X450362Y470721D02*
X455653Y476012D01*
X449707Y477520D02*
X457272D01*
X449707Y472440D02*
X452081D01*
X433446Y477520D02*
X436245D01*
X433446Y472440D02*
X436245D01*
X449707Y469963D02*
Y516404D01*
X436245Y442716D02*
Y513616D01*
X473384Y467360D02*
X480139D01*
X473384Y466077D02*
Y467142D01*
Y469623D01*
X433446Y467360D02*
X436245D01*
X473384Y466077D02*
Y467142D01*
Y466077D02*
X479353D01*
X419796Y457200D02*
X436245D01*
X419796Y452120D02*
X436245D01*
X419796Y462774D02*
X433446D01*
X419796Y462280D02*
X436245D01*
X419796Y447040D02*
X436245D01*
X427647Y434118D02*
X436245Y442716D01*
X419796Y441960D02*
X435489D01*
X373446Y472440D02*
X406334D01*
X373446Y467360D02*
X406334D01*
X346334Y462774D02*
X373446D01*
X433446D02*
Y499886D01*
X406334Y462774D02*
Y474505D01*
X373446Y462774D02*
Y499886D01*
X406334Y462774D02*
Y486424D01*
X321654Y457200D02*
X406334D01*
X326734Y452120D02*
X406334D01*
X346334Y462774D02*
Y499886D01*
X316574Y462280D02*
X406334D01*
X331814Y447040D02*
X406334D01*
X336894Y441960D02*
X406334D01*
X425667Y424090D02*
Y429350D01*
X419796Y426720D02*
X425667D01*
X419796Y421640D02*
X426129D01*
X419796Y436880D02*
X430409D01*
X419796Y431800D02*
X426129D01*
X341144Y436880D02*
X406334D01*
X342677Y431800D02*
X406334D01*
X342740Y426720D02*
X406334D01*
X342740Y421640D02*
X406334D01*
X419796Y401320D02*
X445841D01*
X427647Y419322D02*
X444785Y402184D01*
X419796Y406400D02*
X440569D01*
X429137Y392303D02*
X480318D01*
X419796Y391160D02*
X420618D01*
X419796Y416560D02*
X430409D01*
X419796Y411480D02*
X435489D01*
X346431Y406400D02*
X406334D01*
X351511Y401320D02*
X406334D01*
X419796Y390283D02*
Y462774D01*
X366751Y386080D02*
X406334D01*
X361671Y391160D02*
X406334D01*
X429137Y378841D02*
X483106D01*
X398399Y358807D02*
X417816Y378224D01*
X400272Y360680D02*
X413240D01*
X398399Y355600D02*
X408618D01*
X398399Y350520D02*
X407316D01*
X398399Y340360D02*
X411831D01*
X398399Y345440D02*
X408168D01*
X406334Y385780D02*
Y462774D01*
X356591Y396240D02*
X406334D01*
X342740Y410091D02*
X374076Y378756D01*
X371831Y381000D02*
X401554D01*
X386917Y366363D02*
X406334Y385780D01*
X376246Y375920D02*
X396474D01*
X342740Y416560D02*
X406334D01*
X342740Y411480D02*
X406334D01*
X342740Y410091D02*
Y430499D01*
X315628Y406908D02*
Y424883D01*
X319598Y394891D02*
X350934Y363555D01*
X315628Y404476D02*
Y406908D01*
X378046Y350520D02*
X384937D01*
X378046Y345440D02*
X384937D01*
Y306234D02*
Y361595D01*
X398399Y309022D02*
Y358807D01*
X378046Y340360D02*
X384937D01*
X377943Y370840D02*
X391394D01*
X378046Y365760D02*
X386380D01*
X378046Y360680D02*
X384937D01*
X378046Y355600D02*
X384937D01*
X378046Y178784D02*
Y369170D01*
X350934Y183736D02*
Y363555D01*
X317977Y340360D02*
X350934D01*
X289936Y472440D02*
X346334D01*
X311467Y467360D02*
X346334D01*
X289936Y470836D02*
Y480836D01*
Y470836D02*
X302402D01*
X311988Y466866D02*
X338770Y440084D01*
X276380Y443724D02*
X289936D01*
X262824Y462280D02*
Y471317D01*
X229936Y462280D02*
X262824D01*
X246897Y487244D02*
X262824Y471317D01*
X229936Y467360D02*
X262824D01*
Y457280D02*
Y462280D01*
Y443724D02*
Y457280D01*
Y462280D01*
X296787Y443724D02*
X315628Y424883D01*
X10000Y406400D02*
X315628D01*
X289936Y443724D02*
X296787D01*
X262824Y443724D02*
X289936D01*
X232006Y391160D02*
X323329D01*
X229689Y401320D02*
X316000D01*
X232006Y396240D02*
X318417D01*
X10000Y431800D02*
X308711D01*
X10000Y426720D02*
X313791D01*
X10000Y441960D02*
X298551D01*
X10000Y436880D02*
X303631D01*
X10000Y416560D02*
X315628D01*
X10000Y411480D02*
X315628D01*
X10000Y421640D02*
X315628D01*
X229936Y472440D02*
X261701D01*
X229936Y457200D02*
X262824D01*
X229936Y452120D02*
X262824D01*
X229936Y443724D02*
Y480836D01*
X10000Y462280D02*
X202824D01*
X10000Y457200D02*
X202824D01*
X10000Y472440D02*
X202824D01*
X10000Y467360D02*
X202824D01*
Y443724D02*
Y480836D01*
X10000Y447040D02*
X202824D01*
X10000Y452120D02*
X202824D01*
X229936Y447040D02*
X262824D01*
X202824Y443724D02*
X229936D01*
X153500Y400270D02*
X180512D01*
Y396240D02*
X207414D01*
X180512Y391160D02*
X207414D01*
X180512Y386227D02*
Y400270D01*
X10000Y401320D02*
X209731D01*
X120312Y396240D02*
X153500D01*
X93300Y400270D02*
X120312D01*
X10000Y396240D02*
X93300D01*
X153500Y386227D02*
Y400270D01*
X120312Y391160D02*
X153500D01*
X10000D02*
X93300D01*
X229689Y386080D02*
X328409D01*
X216529Y381000D02*
X333489D01*
X199211Y382720D02*
X207456Y390965D01*
X211449Y375920D02*
X338569D01*
X210693Y370840D02*
X343649D01*
X210693Y375164D02*
X216975Y381446D01*
X210693Y348075D02*
Y375164D01*
X180524Y386080D02*
X202571D01*
X180562Y381000D02*
X197961D01*
X197231Y348075D02*
Y377952D01*
X180562Y370840D02*
X197231D01*
X180562Y375920D02*
X197231D01*
X210693Y350520D02*
X350934D01*
X214059Y345440D02*
X350934D01*
X210693Y355600D02*
X350934D01*
X210693Y348075D02*
X214059D01*
Y332898D02*
Y348075D01*
Y340360D02*
X300767D01*
X210693Y365760D02*
X348729D01*
X210693Y360680D02*
X350934D01*
X180562Y365760D02*
X197231D01*
X180562Y360680D02*
X197231D01*
X180562Y350520D02*
X197231D01*
X193865Y348075D02*
X197231D01*
X180562Y355600D02*
X197231D01*
X120312Y386080D02*
X153488D01*
X153450Y333346D02*
Y385064D01*
X180562Y326521D02*
Y385064D01*
X120312Y369858D02*
Y400270D01*
Y381000D02*
X153450D01*
X10000Y386080D02*
X93300D01*
X10000Y381000D02*
X93300D01*
Y369858D02*
Y400270D01*
X10000Y42925D02*
Y757555D01*
X120312Y370840D02*
X153450D01*
X180562Y345440D02*
X193865D01*
X120312Y375920D02*
X153450D01*
X93300Y369858D02*
X120312D01*
X193865Y332898D02*
Y348075D01*
X180562Y340360D02*
X193865D01*
X10000D02*
X153450D01*
X10000Y365760D02*
X153450D01*
X10000Y360680D02*
X153450D01*
X10000Y375920D02*
X93300D01*
X10000Y370840D02*
X93300D01*
X10000Y350520D02*
X153450D01*
X10000Y345440D02*
X153450D01*
X10000Y355600D02*
X153450D01*
X398399Y320040D02*
X482225D01*
X378046Y309880D02*
X384937D01*
X378046Y320040D02*
X384937D01*
X378046Y314960D02*
X384937D01*
X386917Y301466D02*
X390874Y297509D01*
X378046Y304800D02*
X385091D01*
X378046Y330200D02*
X384937D01*
X378046Y325120D02*
X384937D01*
X378046Y335280D02*
X384937D01*
X315095Y320040D02*
X350934D01*
X149446Y304800D02*
X350934D01*
X149446Y299720D02*
X350934D01*
X174846Y309880D02*
X350934D01*
X378046Y274320D02*
X481590D01*
X378046Y299720D02*
X388662D01*
X378046Y269240D02*
X476511D01*
X378046Y264160D02*
X471431D01*
X149446Y259080D02*
X350934D01*
X378046D02*
X466351D01*
X149446Y284480D02*
X350934D01*
X149446Y279400D02*
X350934D01*
X149446Y294640D02*
X350934D01*
X149446Y289560D02*
X350934D01*
X149446Y269240D02*
X350934D01*
X149446Y264160D02*
X350934D01*
X149446Y274320D02*
X350934D01*
X321252Y335280D02*
X350934D01*
X214059D02*
X297492D01*
X193865Y331058D02*
X214059D01*
Y315881D02*
Y331058D01*
Y330200D02*
X296857D01*
X180562Y335280D02*
X193865D01*
Y332898D02*
X214059D01*
X147734Y333346D02*
X153450D01*
X144573Y330200D02*
X147734D01*
X193865Y326521D02*
Y331058D01*
X180562Y330200D02*
X193865D01*
X147734Y326384D02*
Y333346D01*
X321887Y330200D02*
X350934D01*
X320349Y325120D02*
X350934D01*
X214059D02*
X298395D01*
X214059Y320040D02*
X303649D01*
X203384Y315881D02*
X214059D01*
X202462Y314960D02*
X350934D01*
X202542Y315039D02*
X203384Y315881D01*
X180562Y326521D02*
X193865D01*
X174846Y313059D02*
X197774D01*
X174846Y306234D02*
Y313059D01*
X161290Y306234D02*
X174846D01*
X149446D02*
X161290D01*
X378046Y218440D02*
X454787D01*
X378046Y213360D02*
X454787D01*
Y26326D02*
Y244729D01*
X468249Y29337D02*
Y241940D01*
X378046Y208280D02*
X454787D01*
X378623Y177800D02*
X454787D01*
X378046Y254000D02*
X461270D01*
X378046Y248920D02*
X456251D01*
X378046Y243840D02*
X454787D01*
X378046Y238760D02*
X454787D01*
X378046Y228600D02*
X454787D01*
X378046Y223520D02*
X454787D01*
X378046Y233680D02*
X454787D01*
X380546Y81280D02*
X454787D01*
X380546Y91440D02*
X454787D01*
X380546Y86360D02*
X454787D01*
X456767Y21558D02*
X460470Y17855D01*
X378623Y162560D02*
X454787D01*
X374314Y157480D02*
X454787D01*
X380344Y172720D02*
X454787D01*
X380344Y167640D02*
X454787D01*
X380546Y101600D02*
X454787D01*
X380546Y96520D02*
X454787D01*
X380546Y106680D02*
X454787D01*
X149446Y248920D02*
X350934D01*
X149446Y243840D02*
X350934D01*
X149446Y241937D02*
Y306234D01*
Y254000D02*
X350934D01*
X378046Y193040D02*
X454787D01*
X378046Y187960D02*
X454787D01*
X378046Y203200D02*
X454787D01*
X378046Y198120D02*
X454787D01*
X149068Y238760D02*
X350934D01*
X146641Y233680D02*
X350934D01*
X136644Y223520D02*
X350934D01*
X131564Y218440D02*
X350934D01*
X141724Y228600D02*
X350934D01*
X378046Y182880D02*
X454787D01*
X348434Y110036D02*
X380546D01*
Y77924D02*
Y110036D01*
X348434Y77924D02*
X380546D01*
X348434D02*
Y80424D01*
X147034Y183736D02*
X350934D01*
X147034Y156624D02*
X355886D01*
X154486Y107536D02*
Y110036D01*
Y107536D02*
X348434D01*
Y110036D01*
X154486Y80424D02*
X348434D01*
X154486Y77924D02*
Y80424D01*
X119173Y330200D02*
X127207D01*
X10000Y264160D02*
X122334D01*
X10000Y259080D02*
X122334D01*
X10000Y274320D02*
X122334D01*
X10000Y269240D02*
X122334D01*
X10000Y335280D02*
X153450D01*
X10000Y294640D02*
X122334D01*
X10000Y304800D02*
X122334D01*
X10000Y299720D02*
X122334D01*
X10000Y284480D02*
X122334D01*
X10000Y279400D02*
X122334D01*
X10000Y289560D02*
X122334D01*
X116324Y203200D02*
X350934D01*
X111244Y198120D02*
X350934D01*
X126484Y213360D02*
X350934D01*
X121404Y208280D02*
X350934D01*
X106164Y193040D02*
X350934D01*
X101084Y187960D02*
X350934D01*
X96004Y182880D02*
X128606D01*
X90924Y177800D02*
X124297D01*
X55438Y180657D02*
X122334Y247552D01*
X85844Y172720D02*
X122576D01*
X10000Y254000D02*
X122334D01*
X10000Y248920D02*
X122334D01*
X78580Y165456D02*
X145476Y232351D01*
X78580Y162560D02*
X124297D01*
X80764Y167640D02*
X122576D01*
X119740Y309880D02*
X122334D01*
Y247552D02*
Y313196D01*
X10000Y233680D02*
X108462D01*
X10000Y228600D02*
X103382D01*
X10000Y223520D02*
X98302D01*
X10000Y330200D02*
X101807D01*
X10000Y325120D02*
X98026D01*
X10000Y320040D02*
X96936D01*
X10000Y314960D02*
X97824D01*
X10000Y243840D02*
X118622D01*
X10000Y238760D02*
X113542D01*
X10000Y309880D02*
X101240D01*
X10000Y182880D02*
X57662D01*
X10000Y177800D02*
X53256D01*
X10000Y172720D02*
X51569D01*
X10000Y162560D02*
X51468D01*
X10000Y167640D02*
X51468D01*
X10000Y218440D02*
X93222D01*
X10000Y213360D02*
X88142D01*
X10000Y208280D02*
X83062D01*
X10000Y203200D02*
X77982D01*
X10000Y198120D02*
X72902D01*
X10000Y193040D02*
X67822D01*
X10000Y187960D02*
X62742D01*
X78580Y116840D02*
X454787D01*
X78580Y111760D02*
X454787D01*
X78580Y121920D02*
X454787D01*
X122374Y106774D02*
Y110036D01*
X154486D01*
X78580Y110549D02*
X82355Y106774D01*
X122374D01*
X78580Y147320D02*
X454787D01*
X78580Y142240D02*
X454787D01*
X78580Y157480D02*
X128606D01*
X78580Y152400D02*
X454787D01*
X78580Y132080D02*
X454787D01*
X78580Y127000D02*
X454787D01*
X78580Y137160D02*
X454787D01*
X122374Y77924D02*
X154486D01*
X51252Y40640D02*
X454787D01*
X76740Y79662D02*
X122374D01*
Y77924D02*
Y79662D01*
X53002Y25400D02*
X454851D01*
X51252Y20320D02*
X458004D01*
X53002Y35560D02*
X454787D01*
X53556Y30480D02*
X454787D01*
X10000Y66040D02*
X454787D01*
X10000Y60960D02*
X454787D01*
X10000Y76200D02*
X454787D01*
X10000Y71120D02*
X454787D01*
X41916Y50800D02*
X454787D01*
X47962Y45720D02*
X454787D01*
X10000Y55880D02*
X454787D01*
X78580Y110549D02*
Y165456D01*
X10000Y111760D02*
X51468D01*
X10000Y121920D02*
X51468D01*
X10000Y116840D02*
X51468D01*
Y104934D02*
Y171071D01*
X10000Y106680D02*
X51468D01*
X10000Y147320D02*
X51468D01*
X10000Y142240D02*
X51468D01*
X10000Y157480D02*
X51468D01*
X10000Y152400D02*
X51468D01*
X10000Y132080D02*
X51468D01*
X10000Y127000D02*
X51468D01*
X10000Y137160D02*
X51468D01*
X55438Y95349D02*
X67154Y83632D01*
X10000Y45720D02*
X12038D01*
X10000Y91440D02*
X59347D01*
X10000Y86360D02*
X64427D01*
X10000Y101600D02*
X51884D01*
X10000Y96520D02*
X54395D01*
X10000Y81280D02*
X70317D01*
X10000Y50800D02*
X18084D01*
D83*
X868451Y224981D02*
X868786Y224646D01*
X869233D01*
X862127Y224981D02*
X868451D01*
X860802Y226306D02*
X862127Y224981D01*
X893926Y208775D02*
X894242Y209091D01*
X896049Y222735D02*
X903957Y214827D01*
X893926Y206856D02*
Y208775D01*
X888695Y245234D02*
Y261663D01*
Y245234D02*
X888738Y245191D01*
X903957Y186443D02*
Y214827D01*
X880237Y193167D02*
X893926Y206856D01*
X879790Y193167D02*
X880237D01*
X888652Y261706D02*
X888695Y261663D01*
X881670Y164156D02*
X903957Y186443D01*
X896049Y222735D02*
Y232093D01*
X923561Y216028D02*
Y216474D01*
X917735Y222301D02*
Y222724D01*
Y222301D02*
X923561Y216474D01*
X914015Y226444D02*
X917735Y222724D01*
X905764Y226759D02*
X906079Y226444D01*
X914015D01*
X1139952Y464882D02*
X1144969Y459865D01*
Y430267D02*
Y459865D01*
X1139952Y464882D02*
Y465328D01*
X1163137Y412249D02*
X1175348D01*
X604524Y134907D02*
X605663Y136046D01*
X552450Y50800D02*
Y69697D01*
X604524Y121771D02*
Y134907D01*
X552450Y69697D02*
X604524Y121771D01*
X748030Y261558D02*
Y280051D01*
X743458Y256987D02*
X748030Y261558D01*
X743458Y256540D02*
Y256987D01*
X766763Y275376D02*
Y284671D01*
X776478Y279400D02*
X776794Y279715D01*
X766763Y275376D02*
X772454Y269685D01*
X785791Y300543D02*
X786107Y300228D01*
X779946Y279715D02*
X801603Y301372D01*
X766763Y284671D02*
X782320Y300228D01*
X776794Y279715D02*
X779946D01*
X780734Y300543D02*
X785791D01*
X530887Y406935D02*
X579183Y455231D01*
X615188Y493522D02*
Y509278D01*
X444246Y599948D02*
Y649732D01*
Y543883D02*
Y599948D01*
X751332Y156718D02*
X761475D01*
X762000Y148142D02*
Y156193D01*
X761475Y156718D02*
X762000Y156193D01*
X1175348Y412249D02*
X1179068Y408529D01*
Y284163D02*
X1184211D01*
X1136967D02*
X1179068D01*
Y408529D01*
X1149858Y304800D02*
X1168146Y323088D01*
X1162812Y401574D02*
X1167638D01*
X1161529Y454865D02*
X1165535D01*
X1154684Y461264D02*
X1155130D01*
X1161529Y454865D01*
X1144969Y430267D02*
X1151261Y423975D01*
X1157343D02*
X1157668Y423650D01*
X1151261Y423975D02*
X1157343D01*
X1159501Y379817D02*
X1159993Y379325D01*
X1145453Y379817D02*
X1159501D01*
X1145286Y379984D02*
X1145453Y379817D01*
X1163137Y390249D02*
X1168883D01*
X1165500Y358975D02*
X1169219Y362695D01*
Y389912D01*
X1159014Y358975D02*
X1165500D01*
X1168883Y390249D02*
X1169219Y389912D01*
X1120191Y304800D02*
X1149858D01*
X1157812Y357774D02*
X1159014Y358975D01*
X1164426Y470560D02*
X1166560D01*
X1172383Y476383D01*
X1155130Y461264D02*
X1164426Y470560D01*
X1165535Y454865D02*
X1168883Y451517D01*
Y439783D02*
Y451517D01*
X1164075Y434975D02*
X1168883Y439783D01*
X1157993Y434975D02*
X1164075D01*
X1157668Y434650D02*
X1157993Y434975D01*
X1172383Y476383D02*
Y524681D01*
X1049017Y530098D02*
X1166966D01*
X1172383Y524681D01*
X1062482Y503010D02*
X1066202Y506730D01*
X1062157Y486574D02*
X1062482Y486899D01*
X1034452Y486574D02*
X1062157D01*
X1136856Y506730D02*
X1159212Y484374D01*
X917194Y369316D02*
X1034452Y486574D01*
X1066202Y506730D02*
X1136856D01*
X1159212Y484374D02*
X1162662D01*
X1062482Y486899D02*
Y503010D01*
X906944Y388025D02*
X1049017Y530098D01*
X1013610Y356974D02*
X1030986D01*
X1035594Y352367D02*
X1041337D01*
X1030986Y356974D02*
X1035594Y352367D01*
X1041337D02*
X1045945Y347759D01*
X1007365Y339216D02*
X1041915D01*
X1042262Y338869D01*
X1155385Y340299D02*
X1155700Y340614D01*
X1042262Y338869D02*
X1149862D01*
X1151291Y340299D02*
X1155385D01*
X1149862Y338869D02*
X1151291Y340299D01*
X900684Y387858D02*
X900851Y388025D01*
X906944D01*
X973041Y468343D02*
Y495967D01*
X953770Y449072D02*
X973041Y468343D01*
X860802Y86606D02*
X956310D01*
X882396Y113792D02*
X918972Y150368D01*
X834702Y93094D02*
X837405Y95797D01*
X828515Y100933D02*
Y117459D01*
X834702Y92647D02*
Y93094D01*
X824987Y88624D02*
X830678Y82933D01*
X824987Y88624D02*
Y97405D01*
X828515Y100933D01*
X830678Y82933D02*
X838929D01*
X847120Y109856D02*
X847567D01*
X859477Y110681D02*
X860802Y112006D01*
X847567Y109856D02*
X848391Y110681D01*
X859477D01*
X836930Y73007D02*
X837141Y73218D01*
X836930Y54798D02*
Y73007D01*
X861552Y98556D02*
X877312D01*
X860802Y99306D02*
X861552Y98556D01*
X877312D02*
X877628Y98240D01*
X819625Y126349D02*
X828515Y117459D01*
X837405Y95797D02*
Y121142D01*
X605663Y171069D02*
X615759Y181165D01*
X608163Y155546D02*
X609738Y157121D01*
X605663Y155546D02*
Y171069D01*
X615759Y181165D02*
X819660D01*
X605663Y155546D02*
X608163D01*
X819660Y181165D02*
X835406Y196912D01*
X627126Y155546D02*
Y167640D01*
X823342Y172275D02*
X844296Y193229D01*
X675894Y162113D02*
Y162560D01*
X631761Y172275D02*
X823342D01*
X627126Y167640D02*
X631761Y172275D01*
X667004Y100584D02*
Y153223D01*
X675894Y162113D01*
X744164Y278194D02*
X746021Y280051D01*
X748030D01*
X730250Y207010D02*
Y243332D01*
X743458Y256540D01*
X684187Y302006D02*
X779272D01*
X731473Y573627D02*
X731886Y574040D01*
X486029Y560546D02*
X487538D01*
X772052Y610774D02*
X788924Y593902D01*
X578078Y585953D02*
X578103Y585978D01*
X514096Y365028D02*
Y365028D01*
Y365790D01*
X631444Y298799D02*
X680980D01*
X779272Y302006D02*
X780734Y300543D01*
X782320Y300228D02*
X786107D01*
X556540Y323850D02*
X596900D01*
X567182Y311404D02*
X627272D01*
X801603Y301372D02*
X824673D01*
X782488Y269685D02*
X798553Y285750D01*
X687870Y310896D02*
X1046353D01*
X799846Y355092D02*
X819277D01*
X755650Y223266D02*
X805434Y273050D01*
X691552Y319786D02*
X1060173D01*
X798553Y285750D02*
X830740D01*
X686054Y325284D02*
Y355907D01*
Y325284D02*
X691552Y319786D01*
X819277Y355092D02*
X820835Y353535D01*
X772454Y269685D02*
X782488D01*
X755650Y207010D02*
Y223266D01*
X627272Y311404D02*
X687362D01*
X687870Y310896D01*
X627272Y311404D02*
Y344180D01*
X619101Y352351D02*
X627272Y344180D01*
X1058776Y356974D02*
X1059180Y357378D01*
X1050012Y356974D02*
X1058776D01*
X1002952Y242181D02*
Y261706D01*
X828515Y130032D02*
X837405Y121142D01*
X654050Y50800D02*
Y70104D01*
X732088Y148142D01*
X639135Y35885D02*
X654050Y50800D01*
X732088Y148142D02*
X762000D01*
X704977Y290195D02*
X705104Y290322D01*
X704850Y207010D02*
X704977Y207137D01*
Y290195D01*
X817816Y243142D02*
Y259652D01*
X817626Y259842D02*
X817816Y259652D01*
Y243142D02*
X821952Y239006D01*
X631444Y264414D02*
Y278543D01*
X615188Y248158D02*
X631444Y264414D01*
X615188Y248158D02*
X615634D01*
X552450Y275749D02*
X577506D01*
X589280Y263976D01*
Y263906D02*
Y263976D01*
X517144Y288369D02*
X525541Y296766D01*
X527050D01*
X517144Y287782D02*
Y288369D01*
X481076Y251714D02*
X517144Y287782D01*
X508254Y291465D02*
Y316484D01*
X461518Y244729D02*
X508254Y291465D01*
X461518Y26326D02*
Y244729D01*
X567182Y309990D02*
Y311404D01*
X553959Y296766D02*
X567182Y309990D01*
X539643Y306952D02*
X556540Y323850D01*
X395642Y302260D02*
X498285D01*
X481076Y35216D02*
Y251714D01*
X527050Y296766D02*
X552450D01*
X553959D02*
X564945Y285781D01*
X552450Y296766D02*
X553959D01*
X564945Y285781D02*
X566215D01*
X566531Y285464D01*
X552450Y207010D02*
Y275749D01*
X527050Y207010D02*
Y275749D01*
X654050Y253890D02*
Y277782D01*
X635427Y235267D02*
X654050Y253890D01*
X615950Y225552D02*
X677988D01*
X680980Y298799D02*
X684187Y302006D01*
X527050Y50800D02*
X528249Y51999D01*
Y69525D01*
X584200Y125476D01*
Y136046D01*
X577850Y71666D02*
X627126Y120942D01*
X577850Y50800D02*
Y71666D01*
X627126Y120942D02*
Y136046D01*
X581700D02*
X584200D01*
Y168540D02*
X605715Y190055D01*
X584200Y155546D02*
Y168540D01*
X605715Y190055D02*
X815977D01*
X826262Y200340D01*
X974152Y161606D02*
X988376D01*
X974152Y143256D02*
Y161606D01*
X1012952Y149606D02*
X1013202Y149856D01*
X1030552D02*
X1030802Y150106D01*
X1013202Y149856D02*
X1030552D01*
X955802Y143256D02*
X974152D01*
X533400Y137668D02*
X533654D01*
X602996Y207010D01*
X603250D01*
X577850D02*
X602996D01*
X901192Y261546D02*
X901352Y261706D01*
X901192Y237236D02*
Y261546D01*
X896049Y232093D02*
X901192Y237236D01*
X918972Y196272D02*
X939452Y216752D01*
X918972Y150368D02*
Y196272D01*
X860802Y188206D02*
X862127Y189531D01*
X876154D02*
X879790Y193167D01*
X862127Y189531D02*
X876154D01*
X461518Y26326D02*
X465238Y22606D01*
X823783Y27940D02*
X824230D01*
X465238Y22606D02*
X818449D01*
X823783Y27940D01*
X817217Y35085D02*
X836930Y54798D01*
X771365Y35085D02*
X817217D01*
X988376Y161606D02*
X993394Y166624D01*
X937452Y143256D02*
X955802D01*
X937452Y161606D02*
Y179956D01*
Y143256D02*
Y161606D01*
X955802D02*
Y179956D01*
Y143256D02*
Y161606D01*
X974152D02*
Y179956D01*
X826864Y369729D02*
Y397510D01*
X530887Y406935D02*
X534897D01*
X449553D02*
X530887D01*
X534897D02*
X548640Y393192D01*
X548194D02*
X548640D01*
X645668Y425958D02*
X656238Y436529D01*
Y439068D01*
X667512Y450342D01*
X843280Y130065D02*
X843727D01*
X847761Y126031D01*
X859477D01*
X839978Y149495D02*
X840283Y149801D01*
X860497D01*
X860802Y150106D01*
X1116485Y290374D02*
X1146211Y260649D01*
X1126045Y295085D02*
X1136967Y284163D01*
X1116485Y290374D02*
Y290576D01*
X1099467Y293676D02*
X1099540D01*
X1173919Y199572D02*
Y219298D01*
X1099540Y293676D02*
X1173919Y219298D01*
X1146211Y260649D02*
X1154893D01*
X1162812Y412574D02*
X1163137Y412249D01*
X1184211Y193611D02*
Y284163D01*
X1032127Y97981D02*
X1042490D01*
X1117592Y95496D02*
X1123442Y101346D01*
X1044975Y95496D02*
X1117592D01*
X1042490Y97981D02*
X1044975Y95496D01*
X1030802Y99306D02*
X1032127Y97981D01*
X1123442Y101346D02*
Y132842D01*
X982218Y369316D02*
X1001268D01*
X899348Y455610D02*
X918972Y475234D01*
X899032Y452575D02*
X899348Y452890D01*
X889317Y400980D02*
Y503722D01*
X899348Y452890D02*
Y455610D01*
X889317Y503722D02*
X907097Y521502D01*
X881634Y509778D02*
X897382Y525526D01*
X833882Y488696D02*
X880427Y442151D01*
X698754Y488696D02*
X833882D01*
X880427Y404662D02*
Y442151D01*
X839391Y498427D02*
X870458Y467360D01*
X705931Y498427D02*
X839391D01*
X689610Y479552D02*
X698754Y488696D01*
X672323Y532035D02*
X705931Y498427D01*
X432398Y424090D02*
X449553Y406935D01*
X557435Y368066D02*
X610382D01*
X527456Y398045D02*
X557435Y368066D01*
X610382D02*
X629920Y387604D01*
X513781Y343092D02*
Y349090D01*
X514096Y349405D02*
Y365028D01*
X513781Y349090D02*
X514096Y349405D01*
X489712Y319024D02*
X513781Y343092D01*
X495579Y398045D02*
X527456D01*
X866504Y302006D02*
X1037590D01*
X999044Y291150D02*
X1003996D01*
X1014943Y280203D01*
X998728Y291466D02*
X999044Y291150D01*
X870651Y291968D02*
Y292291D01*
X979831Y292799D02*
X990092Y282538D01*
X824673Y301372D02*
X824864Y301181D01*
X932988Y292799D02*
X979831D01*
X932480Y292291D02*
X932988Y292799D01*
X863241Y268099D02*
Y272757D01*
X851757Y287259D02*
X866504Y302006D01*
X863241Y268099D02*
X863556Y267783D01*
X885190Y292291D02*
X932480D01*
X993046Y353535D02*
X1007365Y339216D01*
X1060173Y319786D02*
X1076016Y303944D01*
X1064197Y329501D02*
X1081786Y311912D01*
X1005840Y329501D02*
X1064197D01*
X391668Y306234D02*
Y361595D01*
Y306234D02*
X395642Y302260D01*
X823185Y667319D02*
X854263D01*
X870045Y683101D01*
X815340Y659474D02*
X823185Y667319D01*
X870045Y683101D02*
Y747961D01*
X939640Y651604D02*
X939673Y651637D01*
X843534Y651604D02*
X939640D01*
X815340Y602538D02*
Y659474D01*
X870045Y747961D02*
X875194Y753110D01*
X889000D01*
X865172Y626810D02*
X873445D01*
X873760Y627126D02*
X907097Y593789D01*
X854043Y614172D02*
Y615681D01*
X873445Y626810D02*
X873760Y627126D01*
X854043Y615681D02*
X865172Y626810D01*
X859477Y126031D02*
X860802Y124706D01*
X813325Y137367D02*
X819625Y131067D01*
X813325Y137367D02*
Y147617D01*
X819625Y126349D02*
Y131067D01*
X828515Y130032D02*
Y153101D01*
X812800Y148142D02*
X813325Y147617D01*
X859477Y85281D02*
X860802Y86606D01*
X838929Y82933D02*
X841277Y85281D01*
X859477D01*
X939452Y216752D02*
Y261706D01*
X877658Y164156D02*
X881670D01*
X974152Y179956D02*
X986607Y192411D01*
X956310Y86606D02*
X1030802D01*
X986607Y192411D02*
Y197672D01*
X1030802Y86606D02*
X1122799D01*
X978013Y206266D02*
X986607Y197672D01*
X956310Y86606D02*
Y142748D01*
X965391Y225785D02*
X974802Y235196D01*
X995967D01*
X965391Y214861D02*
Y225785D01*
X975106Y218885D02*
X975553D01*
X982973Y226306D02*
X1030802D01*
X965391Y214861D02*
X973985Y206266D01*
X975553Y218885D02*
X982973Y226306D01*
X973985Y206266D02*
X978013D01*
X876046Y263906D02*
Y286574D01*
X851757Y284241D02*
X863241Y272757D01*
X870651Y291968D02*
X876046Y286574D01*
X842487Y256101D02*
X846207Y252381D01*
X860127D02*
X860802Y251706D01*
X842487Y256101D02*
Y277664D01*
X846207Y252381D02*
X860127D01*
X846207Y281384D02*
X848899D01*
X851757Y284241D02*
Y285750D01*
X842487Y277664D02*
X846207Y281384D01*
X848899D02*
X851757Y284241D01*
X844296Y193229D02*
Y194282D01*
X828515Y153101D02*
X849594Y174181D01*
X859477Y199581D02*
X860802Y200906D01*
X826262Y200340D02*
Y219800D01*
X844296Y194282D02*
X849594Y199581D01*
X839126Y213606D02*
X860802D01*
X849594Y199581D02*
X859477D01*
X835406Y209886D02*
X839126Y213606D01*
X835406Y196912D02*
Y209886D01*
X859477Y174181D02*
X860802Y175506D01*
X849594Y174181D02*
X859477D01*
X821952Y239006D02*
X860802D01*
X826262Y219800D02*
X832767Y226306D01*
X860802D01*
X677988Y225552D02*
X684592Y232156D01*
X685038D01*
X603250Y226591D02*
X611926Y235267D01*
X635427D01*
X603250Y207010D02*
Y226591D01*
X877632Y134240D02*
X878078D01*
X875790Y136081D02*
X877632Y134240D01*
X862127Y136081D02*
X875790D01*
X860802Y175506D02*
X861630Y174678D01*
X877342Y163840D02*
X877658Y164156D01*
X861630Y174678D02*
X877645D01*
X877960Y174362D01*
X860802Y137406D02*
X862127Y136081D01*
X955802Y143256D02*
X956310Y142748D01*
X995967Y235196D02*
X1002952Y242181D01*
X1013202Y213356D02*
X1030552D01*
X1030802Y213606D01*
X1012952Y213106D02*
X1013202Y213356D01*
X1013075Y99183D02*
X1030679D01*
X1012952Y99060D02*
X1013075Y99183D01*
Y111883D02*
X1030679D01*
X1030802Y112006D01*
X1012952Y111760D02*
X1013075Y111883D01*
X579183Y455231D02*
X611270D01*
X595884Y445516D02*
X633893Y407507D01*
X611270Y455231D02*
X617683Y448818D01*
X634454Y407507D02*
X686054Y355907D01*
X633893Y407507D02*
X634454D01*
X483106Y385572D02*
X495579Y398045D01*
X425704Y385572D02*
X483106D01*
X873506Y386842D02*
X873821Y387158D01*
X889254Y369316D02*
Y400917D01*
X873821Y387158D02*
Y398057D01*
X889254Y400917D02*
X889317Y400980D01*
X873821Y398057D02*
X880427Y404662D01*
X847421Y400165D02*
X855940Y408685D01*
X846975Y400165D02*
X847421D01*
X855940Y408685D02*
X870711D01*
X870712Y408686D01*
X1037590Y302006D02*
X1097661Y241935D01*
X1046353Y310896D02*
X1147699Y209550D01*
X1050229Y271842D02*
Y273491D01*
X1031429Y292291D02*
X1050229Y273491D01*
Y271842D02*
X1050544Y271526D01*
X1001268Y369316D02*
X1013610Y356974D01*
X820835Y353535D02*
X993046D01*
X1076016Y303461D02*
Y303944D01*
X1109957Y323596D02*
X1143762D01*
X1093776Y307416D02*
X1109957Y323596D01*
X1093776Y299367D02*
Y307416D01*
X1076016Y303461D02*
X1093339Y286138D01*
X1093776Y299367D02*
X1099467Y293676D01*
X1103491Y303391D02*
X1118783D01*
X1120191Y304800D01*
X1154893Y260649D02*
X1174496Y241046D01*
X1123442Y132842D02*
X1184211Y193611D01*
X1129345Y173228D02*
X1129792D01*
X1127068Y175506D02*
X1129345Y173228D01*
X1030802Y175506D02*
X1127068D01*
X1137153Y162806D02*
X1173919Y199572D01*
X1030802Y162806D02*
X1137153D01*
X755650Y50800D02*
X771365Y35085D01*
X669290Y323279D02*
Y323726D01*
X662432Y330583D02*
X669290Y323726D01*
X662432Y330583D02*
Y365790D01*
X826864Y369729D02*
X827278Y369316D01*
X727394Y408940D02*
X756666D01*
X718312Y400304D02*
X718758D01*
X695198Y417576D02*
X710184Y432562D01*
X748792D01*
X718758Y400304D02*
X727394Y408940D01*
X1163888Y203280D02*
X1164204Y203596D01*
X1092103Y196132D02*
X1157769D01*
X1084243Y203992D02*
X1092103Y196132D01*
X1050327Y238280D02*
X1084243Y204364D01*
X1031528Y238280D02*
X1050327D01*
X1030802Y239006D02*
X1031528Y238280D01*
X1059271Y200910D02*
X1061284Y198897D01*
X1075971D01*
X1157769Y196132D02*
X1163888Y202250D01*
X1084243Y203992D02*
Y204364D01*
X1030806Y200910D02*
X1059271D01*
X1163888Y202250D02*
Y203280D01*
X1030802Y200906D02*
X1030806Y200910D01*
X1097661Y209550D02*
Y241935D01*
X1058934Y251706D02*
X1079754Y230886D01*
X484796Y31496D02*
X583946D01*
X481076Y35216D02*
X484796Y31496D01*
X583946D02*
X603250Y50800D01*
X1045945Y347759D02*
X1146179D01*
X805641Y399226D02*
Y420827D01*
Y399226D02*
X805847Y399019D01*
X766634Y438232D02*
X805641Y399226D01*
X963836Y505173D02*
X973041Y495967D01*
X934720Y496824D02*
X935166D01*
X943515Y505173D01*
X963836D01*
X907097Y521502D02*
Y593789D01*
X851916Y509778D02*
X881634D01*
X918972Y475234D02*
Y499618D01*
X766634Y438232D02*
Y448756D01*
X766318Y449072D02*
X766634Y448756D01*
X805847Y397510D02*
Y399019D01*
X673608Y466090D02*
X806054D01*
X643382Y496316D02*
X673608Y466090D01*
X1149527Y356648D02*
X1150652Y357774D01*
X1149527Y351107D02*
Y356648D01*
X1146179Y347759D02*
X1149527Y351107D01*
X1150652Y357774D02*
X1157812D01*
X515620Y423582D02*
Y447323D01*
X511900Y419862D02*
X515620Y423582D01*
X499679Y437449D02*
Y449512D01*
X499364Y437134D02*
X499679Y437449D01*
X515620Y447323D02*
X528502Y460206D01*
X499679Y449512D02*
X501272Y451104D01*
X488970Y419862D02*
X511900D01*
X455113Y453719D02*
X488970Y419862D01*
X532780Y467597D02*
Y468884D01*
X528502Y463319D02*
X532780Y467597D01*
X990092Y261866D02*
Y282538D01*
Y261866D02*
X990252Y261706D01*
X528502Y460206D02*
Y463319D01*
X359760Y486460D02*
Y523240D01*
X316277Y571707D02*
X355310Y610740D01*
X269520Y524950D02*
X316277Y571707D01*
X269520Y520700D02*
Y524950D01*
X273558Y614426D02*
X316277Y571707D01*
X355310Y610740D02*
X382815D01*
X391668Y361595D02*
X413065Y382992D01*
Y474505D01*
X419890Y481330D01*
X631444Y298799D02*
X631698Y299053D01*
X432398Y424090D02*
Y429350D01*
X442976Y439928D01*
X412890Y546490D02*
X442976Y516404D01*
Y439928D02*
Y516404D01*
X234722Y588775D02*
Y614426D01*
Y588775D02*
X240297Y583200D01*
X241770D01*
X257022Y614426D02*
X273558D01*
X389890Y549240D02*
Y610740D01*
X333375Y668401D02*
X336550Y665226D01*
X401040Y634492D02*
Y661506D01*
X397321Y665226D02*
X401040Y661506D01*
X336550Y665226D02*
X397321D01*
X378740Y614815D02*
X382815Y610740D01*
X378740Y614815D02*
Y634492D01*
X382815Y610740D02*
X389890D01*
X401040Y634492D02*
X420460D01*
X424180Y600456D02*
Y630772D01*
X420460Y634492D02*
X424180Y630772D01*
X412890Y589166D02*
X424180Y600456D01*
X412890Y549240D02*
Y589166D01*
Y546490D02*
Y549240D01*
X455113Y453719D02*
Y465953D01*
X617683Y448818D02*
X637540D01*
Y469661D01*
X615188Y492013D02*
Y493522D01*
Y492013D02*
X637540Y469661D01*
X501272Y451104D02*
X517764Y467597D01*
X487595Y451104D02*
X501272D01*
X479353Y459346D02*
X487595Y451104D01*
X312166Y777076D02*
X315886Y780796D01*
X778084D01*
X798580Y760300D01*
X807314Y594512D02*
X815340Y602538D01*
X807314Y594012D02*
Y594512D01*
X870526Y562164D02*
X871920D01*
X856759Y575930D02*
X870526Y562164D01*
X871920D02*
X872236Y561848D01*
X821491Y541492D02*
X823931Y543932D01*
X834574D02*
X836422Y545780D01*
X867791D01*
X807466Y541492D02*
X821491D01*
X823931Y543932D02*
X834574D01*
X685800Y610526D02*
Y632710D01*
Y610526D02*
X691806Y604520D01*
X707898D01*
X716280Y596138D01*
Y551706D02*
Y596138D01*
X710790Y546216D02*
X716280Y551706D01*
X672323Y532035D02*
X689715D01*
X670814D02*
X672323D01*
X1030802Y188206D02*
X1030806Y188210D01*
X1074924D01*
X1074928Y188214D01*
X855472Y575930D02*
X856759D01*
X869503Y544068D02*
X869950D01*
X867791Y545780D02*
X869503Y544068D01*
X689715Y532035D02*
X691290Y530461D01*
Y530098D02*
Y530461D01*
X826817Y397557D02*
X826864Y397510D01*
X1162812Y390574D02*
X1163137Y390249D01*
X805434Y421034D02*
X805641Y420827D01*
X805434Y440534D02*
X805744Y440844D01*
Y465780D01*
X806054Y466090D01*
X826770Y440570D02*
Y459103D01*
X821070Y464803D02*
Y466090D01*
Y464803D02*
X826770Y459103D01*
Y425570D02*
X826817Y425523D01*
Y397557D02*
Y425523D01*
X615188Y493522D02*
X617982Y496316D01*
X643382D01*
X1030802Y251706D02*
X1058934D01*
X567070Y503682D02*
X585520D01*
X567070Y482318D02*
Y503682D01*
Y482318D02*
X578274Y493522D01*
X565562Y480060D02*
Y480810D01*
X578274Y493522D02*
X594171D01*
X585520Y503682D02*
X594171Y495031D01*
X565562Y480810D02*
X567070Y482318D01*
X594171Y493522D02*
Y495031D01*
X531175Y487680D02*
X531622D01*
X517367Y493357D02*
X525499D01*
X516542Y494182D02*
X517367Y493357D01*
X525499D02*
X531175Y487680D01*
X516042Y494182D02*
X516542D01*
X514288Y537271D02*
X514604Y536956D01*
X487538Y560546D02*
X510811Y537271D01*
X514288D01*
X444246Y543883D02*
X448728Y539402D01*
X486156D01*
X485902Y581562D02*
X486029Y581435D01*
Y560546D02*
Y581435D01*
X485902Y661162D02*
X543560Y718820D01*
X485902Y601062D02*
Y661162D01*
X1031052Y111756D02*
X1097411D01*
X1097661Y111506D01*
X1122799Y86606D02*
X1147699Y111506D01*
X312166Y678688D02*
Y777076D01*
X231490Y495300D02*
Y509325D01*
X225690Y515125D02*
X231490Y509325D01*
X223520Y516450D02*
X224845Y515125D01*
X225690D01*
X223520Y516450D02*
Y520700D01*
X203962Y377952D02*
X219710Y393700D01*
X203962Y340486D02*
Y377952D01*
X197774Y319790D02*
X201453Y323470D01*
X203962D01*
X161290Y319790D02*
X197774D01*
X413065Y493155D02*
X419890Y486330D01*
X401095Y493155D02*
X413065D01*
X371760Y522490D02*
X401095Y493155D01*
X371760Y522490D02*
Y523240D01*
X460421Y471261D02*
X464753D01*
X455113Y465953D02*
X460421Y471261D01*
X144018Y668782D02*
X302260D01*
X312166Y678688D01*
X93980Y718820D02*
X144018Y668782D01*
X366890Y536062D02*
Y549240D01*
X360335Y529507D02*
X366890Y536062D01*
X360335Y523815D02*
Y529507D01*
X359760Y523240D02*
X360335Y523815D01*
X419890Y481330D02*
Y486330D01*
X389890Y546490D02*
Y549240D01*
X372335Y528935D02*
X389890Y546490D01*
X372335Y523815D02*
Y528935D01*
X371760Y523240D02*
X372335Y523815D01*
X223205Y469105D02*
Y486265D01*
X231490Y494550D01*
X216380Y462280D02*
X223205Y469105D01*
X231490Y494550D02*
Y495300D01*
X243490Y513420D02*
X246520Y516450D01*
X243490Y495300D02*
Y513420D01*
X246520Y516450D02*
Y520700D01*
X244065Y493975D02*
X249685D01*
X243490Y494550D02*
Y495300D01*
X276380Y462280D02*
Y467280D01*
X249685Y493975D02*
X276380Y467280D01*
X243490Y494550D02*
X244065Y493975D01*
X752434Y530758D02*
X753950Y529241D01*
X778510D01*
X751934Y530758D02*
X752434D01*
X778510Y529241D02*
X778635Y529366D01*
X807341D02*
X807466Y529492D01*
X778635Y529366D02*
X807341D01*
X835724Y530067D02*
X836422Y530765D01*
X807466Y529492D02*
X808041Y530067D01*
X835724D01*
X758631Y610199D02*
X759206Y610774D01*
X752569Y610199D02*
X758631D01*
X732299Y589930D02*
X752569Y610199D01*
X731012Y589930D02*
X732299D01*
X759206Y610774D02*
X772052D01*
X796989Y615337D02*
X797814Y614512D01*
Y614012D02*
Y614512D01*
X787439Y615337D02*
X796989D01*
X766759Y636016D02*
X787439Y615337D01*
X752684Y550009D02*
X753259Y550583D01*
X752684Y550009D02*
X778260D01*
X752184D02*
X752684D01*
X751934Y549758D02*
X752184Y550009D01*
X778260D02*
X778510Y550258D01*
X753259Y551083D02*
X756605Y554429D01*
X753259Y550583D02*
Y551083D01*
X756605Y554429D02*
Y561786D01*
X756920Y562102D01*
X854185Y590946D02*
X855472D01*
X833026Y612663D02*
X852336Y593353D01*
Y592794D02*
Y593353D01*
Y592794D02*
X854185Y590946D01*
X833026Y612663D02*
Y614172D01*
X833529Y614676D02*
Y631100D01*
X833026Y614172D02*
X833529Y614676D01*
Y631100D02*
X834034Y631604D01*
X853034D02*
X853539Y631100D01*
Y614676D02*
Y631100D01*
Y614676D02*
X854043Y614172D01*
X672323Y553052D02*
X692751Y573481D01*
X704825D02*
X704850Y573506D01*
X692751Y573481D02*
X704825D01*
X670814Y553052D02*
X672323D01*
X652730Y560832D02*
X657652Y555910D01*
X667956D02*
X670814Y553052D01*
X657652Y555910D02*
X667956D01*
X589628Y560832D02*
X652730D01*
X618165Y35885D02*
X639135D01*
X603250Y50800D02*
X618165Y35885D01*
X628650Y207010D02*
X654050D01*
X619567Y585978D02*
X624647Y580898D01*
X538734Y607568D02*
X635258D01*
X578103Y585978D02*
X619567D01*
X624647Y580898D02*
X625094D01*
X578078Y585028D02*
Y585953D01*
X552704Y574995D02*
X555753Y578044D01*
X552704Y574548D02*
Y574995D01*
X555753Y578044D02*
Y585953D01*
X555778Y585978D01*
X516042Y513182D02*
X516542D01*
X491236Y490822D02*
X494094Y493680D01*
X496540D01*
X516042Y513182D01*
X553562Y480060D02*
Y480810D01*
X552054Y482318D02*
Y503682D01*
Y482318D02*
X553562Y480810D01*
X594171Y495031D02*
Y510795D01*
X466078Y471836D02*
X482207Y487965D01*
X488378D01*
X491236Y490822D01*
X465328Y471836D02*
X466078D01*
X464753Y471261D02*
X465328Y471836D01*
X517764Y467597D02*
Y468884D01*
X465328Y459836D02*
X465818Y459346D01*
X479353D01*
X505410Y482471D02*
Y483549D01*
X491236Y469805D02*
X492745D01*
X505410Y483549D02*
X516042Y494182D01*
X492745Y469805D02*
X505410Y482471D01*
X589628Y560832D02*
X590296Y561499D01*
Y572810D01*
X578078Y585028D02*
X590296Y572810D01*
X596693Y536843D02*
X597408Y537558D01*
X539449Y536843D02*
X596693D01*
X538734Y536128D02*
X539449Y536843D01*
X536542Y503682D02*
X552054D01*
X587908Y517058D02*
X594171Y510795D01*
X587908Y517058D02*
Y517558D01*
X607733Y516233D02*
X608233D01*
X606908Y517058D02*
X607733Y516233D01*
X606908Y517058D02*
Y517558D01*
X608233Y516233D02*
X615188Y509278D01*
X710790Y530098D02*
Y546216D01*
X731473Y540719D02*
X731934Y540258D01*
X731473Y540719D02*
Y573627D01*
X788924Y581296D02*
Y593902D01*
X797973Y570738D02*
Y572247D01*
X788924Y581296D02*
X797973Y572247D01*
X816133Y573596D02*
Y584693D01*
Y573596D02*
X818990Y570738D01*
X807314Y593512D02*
Y594012D01*
Y593512D02*
X816133Y584693D01*
X750570Y577760D02*
Y590138D01*
X731886Y574040D02*
X746850D01*
X750570Y577760D01*
Y590138D02*
X757881Y597449D01*
X758456Y598774D02*
X759206D01*
X757881Y598199D02*
X758456Y598774D01*
X757881Y597449D02*
Y598199D01*
X798580Y644336D02*
Y709500D01*
X790259Y636016D02*
X798580Y644336D01*
Y709500D02*
X811547Y696533D01*
X840740D01*
X859790Y735091D02*
Y761811D01*
X840740Y765530D02*
X856070D01*
X859790Y761811D01*
X840740Y717550D02*
X842249D01*
X859790Y735091D01*
X810604Y743230D02*
X840740D01*
X802274Y734900D02*
X810604Y743230D01*
X798580Y734900D02*
X802274D01*
X812764Y765530D02*
X840740D01*
X812668Y765434D02*
X812764Y765530D01*
X802274Y760300D02*
X807408Y765434D01*
X812668D01*
X798580Y760300D02*
X802274D01*
X538734Y607568D02*
Y630424D01*
Y559627D02*
Y607568D01*
X635258D02*
X660400Y632710D01*
X538734Y559627D02*
X539336Y560230D01*
X568009D01*
X568611Y560832D01*
X538734Y630424D02*
X541020Y632710D01*
X1030679Y99183D02*
X1030802Y99306D01*
Y112006D02*
X1031052Y111756D01*
D84*
X73660Y721360D02*
X114808D01*
X131700Y580457D02*
Y622300D01*
X915572Y418877D02*
Y448212D01*
X82233Y462280D02*
Y567881D01*
X276380Y457280D02*
X302402D01*
X800100Y57150D02*
Y107442D01*
X550926Y352351D02*
X619101D01*
X986536Y337820D02*
X987044Y337312D01*
X780288Y337820D02*
X986536D01*
X71500Y620700D02*
X82233Y609967D01*
X71500Y620700D02*
Y622300D01*
X82233Y570230D02*
Y609967D01*
X737350Y111392D02*
X758050D01*
X730378Y118364D02*
X737350Y111392D01*
X758050D02*
X762000Y107442D01*
X774700D01*
X917194Y369316D02*
X982218D01*
X889254D02*
X917194D01*
X915572Y448212D02*
X956818Y489458D01*
X620801Y354051D02*
X638540Y371790D01*
X619101Y352351D02*
X620801Y354051D01*
X520947Y382330D02*
X550926Y352351D01*
X502088Y382330D02*
X520947D01*
X469771Y350012D02*
X502088Y382330D01*
X364490Y170180D02*
Y369170D01*
X329184Y404476D02*
Y406908D01*
Y404476D02*
X364490Y369170D01*
X939673Y651637D02*
X952180Y639130D01*
X889000Y702310D02*
X939673Y651637D01*
X1096330Y639130D02*
X1118870Y661670D01*
X952180Y639130D02*
X1096330D01*
X902830Y727710D02*
X968870Y661670D01*
X889000Y727710D02*
X902830D01*
X161290Y319790D02*
X167006Y325506D01*
Y385064D01*
X106806Y323474D02*
Y385064D01*
Y323474D02*
X110490Y319790D01*
X819165Y377429D02*
X826864Y369729D01*
X827278Y369316D02*
X889254D01*
X419862Y350012D02*
X469771D01*
X686181Y398526D02*
X707279Y377429D01*
X819165D01*
X956818Y489458D02*
X957326D01*
X359760Y486460D02*
X359890Y486330D01*
X326644Y519576D02*
X359760Y486460D01*
X326644Y519576D02*
Y544830D01*
X359890Y481330D02*
Y486330D01*
X333375Y668401D02*
X375394Y710420D01*
X307594Y642620D02*
X333375Y668401D01*
X216380Y457280D02*
Y462280D01*
Y457280D02*
X309372Y364288D01*
Y331216D02*
Y364288D01*
X329184Y406908D02*
Y430499D01*
X276380Y457280D02*
Y462280D01*
X302402Y457280D02*
X329184Y430499D01*
X138430Y170180D02*
X364490D01*
X121473Y570230D02*
X122395Y569308D01*
Y568802D02*
X141986Y549212D01*
X120968Y570230D02*
X121473D01*
X122395Y568802D02*
Y569308D01*
X141986Y498602D02*
Y549212D01*
X82233Y462280D02*
X216380D01*
X208734Y550164D02*
X241770Y583200D01*
X183388Y550164D02*
X208734D01*
X138430Y93980D02*
X364490D01*
X76740Y93218D02*
X137668D01*
X65024Y104934D02*
X76740Y93218D01*
X65024Y104934D02*
Y171071D01*
X137668Y93218D02*
X138430Y93980D01*
X135890Y241937D02*
Y319790D01*
X65024Y171071D02*
X135890Y241937D01*
X800100Y107442D02*
X812800D01*
X781050Y50800D02*
X806450D01*
X800100Y57150D02*
X806450Y50800D01*
X787400Y107442D02*
X800100D01*
X774700D02*
X787400D01*
X800100Y148142D02*
X812800D01*
X787400D02*
X800100D01*
X774700D02*
X787400D01*
X762000D02*
X774700D01*
X152020Y642620D02*
X307594D01*
X82233Y411238D02*
Y462280D01*
Y567881D02*
Y570230D01*
X106806Y385064D02*
Y386664D01*
X82233Y411238D02*
X106806Y386664D01*
X133350Y623950D02*
X152020Y642620D01*
X131700Y622300D02*
Y623900D01*
X131750Y623950D01*
X133350D01*
X375394Y710420D02*
X424790D01*
X543560Y718820D02*
X566420Y695960D01*
Y632710D02*
Y695960D01*
X685800Y632710D02*
Y660400D01*
X627380Y718820D02*
X685800Y660400D01*
X762930Y734900D02*
X798580D01*
X711200Y718820D02*
X746850D01*
X762930Y734900D01*
X627380Y756920D02*
X711200D01*
X543560D02*
X627380D01*
X428290D02*
X543560D01*
X424790Y760420D02*
X428290Y756920D01*
X424790Y710420D02*
Y760420D01*
X71550Y663950D02*
X93980Y686380D01*
X71550Y622350D02*
Y663950D01*
X71500Y622300D02*
X71550Y622350D01*
X93980Y686380D02*
Y718820D01*
X224790Y710420D02*
Y760420D01*
X93980Y756920D02*
X221290D01*
X224790Y760420D01*
D85*
X1170000Y30000D02*
D03*
X600000Y400000D02*
D03*
X30000Y30480D02*
D03*
Y770000D02*
D03*
X1170000D02*
D03*
D86*
X543560Y718820D02*
D03*
X627380D02*
D03*
X711200D02*
D03*
X93980D02*
D03*
D87*
X543560Y756920D02*
D03*
X627380D02*
D03*
X711200D02*
D03*
X93980D02*
D03*
D88*
X869233Y224646D02*
D03*
X894242Y209091D02*
D03*
X888738Y245191D02*
D03*
X905764Y226759D02*
D03*
X1139952Y465328D02*
D03*
X776478Y279400D02*
D03*
X1168146Y323088D02*
D03*
X1167638Y401574D02*
D03*
X1154684Y461264D02*
D03*
X1145286Y379984D02*
D03*
X953770Y449072D02*
D03*
X882396Y113792D02*
D03*
X834702Y92647D02*
D03*
X847120Y109856D02*
D03*
X837141Y73218D02*
D03*
X877628Y98240D02*
D03*
X675894Y162560D02*
D03*
X743458Y256540D02*
D03*
X596900Y323850D02*
D03*
X799846Y355092D02*
D03*
X805434Y273050D02*
D03*
X667004Y100584D02*
D03*
X717296Y101824D02*
D03*
X705104Y290322D02*
D03*
X817626Y259842D02*
D03*
X615188Y248158D02*
D03*
X589280Y263906D02*
D03*
X539643Y306952D02*
D03*
X498285Y302260D02*
D03*
X566531Y285464D02*
D03*
X508254Y316484D02*
D03*
X615950Y225552D02*
D03*
X1012952Y149606D02*
D03*
X533400Y137668D02*
D03*
X950214Y216846D02*
D03*
X824230Y27940D02*
D03*
X993394Y166624D02*
D03*
X548640Y393192D02*
D03*
X645668Y425958D02*
D03*
X843280Y130065D02*
D03*
X839978Y149495D02*
D03*
X1126045Y295085D02*
D03*
X1116485Y290576D02*
D03*
X897382Y525526D02*
D03*
X899032Y452575D02*
D03*
X870458Y467360D02*
D03*
X514096Y365790D02*
D03*
X1014943Y280203D02*
D03*
X998728Y291466D02*
D03*
X824864Y301181D02*
D03*
X870651Y292291D02*
D03*
X885190D02*
D03*
X863556Y267783D02*
D03*
X1005840Y329501D02*
D03*
X489712Y319024D02*
D03*
X873760Y627126D02*
D03*
X783560Y81395D02*
D03*
X923561Y216028D02*
D03*
X956056Y245166D02*
D03*
X975106Y218885D02*
D03*
X876046Y263906D02*
D03*
X823746Y271740D02*
D03*
X786107Y300228D02*
D03*
X804672Y239014D02*
D03*
X685038Y232156D02*
D03*
X878078Y134240D02*
D03*
X877342Y163840D02*
D03*
X877960Y174362D02*
D03*
X1012952Y213106D02*
D03*
X880237Y193167D02*
D03*
X1012952Y99060D02*
D03*
Y111760D02*
D03*
X595884Y445516D02*
D03*
X629920Y387604D02*
D03*
X667512Y450342D02*
D03*
X689610Y479552D02*
D03*
X873506Y386842D02*
D03*
X846975Y400165D02*
D03*
X870712Y408686D02*
D03*
X1031429Y292291D02*
D03*
X1081786Y311912D02*
D03*
X1103491Y303391D02*
D03*
X1093339Y286138D02*
D03*
X1174496Y241046D02*
D03*
X1129792Y173228D02*
D03*
X669290Y323279D02*
D03*
X662432Y365790D02*
D03*
X718312Y400304D02*
D03*
X756666Y408940D02*
D03*
X1164204Y203596D02*
D03*
X1075971Y198897D02*
D03*
X1079754Y230886D02*
D03*
X1143762Y323596D02*
D03*
X1155700Y340614D02*
D03*
X1050544Y271526D02*
D03*
X934720Y496824D02*
D03*
X918972Y499618D02*
D03*
X851916Y509778D02*
D03*
X766318Y449072D02*
D03*
X748792Y432562D02*
D03*
X695198Y417576D02*
D03*
X425704Y385572D02*
D03*
X499364Y437134D02*
D03*
X900684Y387858D02*
D03*
X637540Y448818D02*
D03*
X872236Y561848D02*
D03*
X1074928Y188214D02*
D03*
X869950Y544068D02*
D03*
X531622Y487680D02*
D03*
X514604Y536956D02*
D03*
X444246Y649732D02*
D03*
X756920Y562102D02*
D03*
X625094Y580898D02*
D03*
X552704Y574548D02*
D03*
D89*
X915572Y418877D02*
D03*
X780288Y337820D02*
D03*
X730378Y118364D02*
D03*
X987044Y337312D02*
D03*
X638540Y371790D02*
D03*
X957326Y489458D02*
D03*
X686181Y398526D02*
D03*
X326644Y544830D02*
D03*
X419862Y350012D02*
D03*
X309372Y331216D02*
D03*
X329184Y406908D02*
D03*
X141986Y498602D02*
D03*
X219710Y393700D02*
D03*
X183388Y550164D02*
D03*
M02*
