G04*
G04 #@! TF.GenerationSoftware,Altium Limited,Altium Designer,22.7.1 (60)*
G04*
G04 Layer_Color=128*
%FSLAX44Y44*%
%MOMM*%
G71*
G04*
G04 #@! TF.SameCoordinates,0E519C92-87A3-47E9-A83B-F09A3FC6FE1E*
G04*
G04*
G04 #@! TF.FilePolarity,Positive*
G04*
G01*
G75*
%ADD97C,0.0508*%
D97*
X1113120Y661670D02*
X1124620D01*
X1118870Y655920D02*
Y667420D01*
X963120Y661670D02*
X974620D01*
X968870Y655920D02*
Y667420D01*
X1152500Y30000D02*
X1187500D01*
X1170000Y12500D02*
Y47500D01*
X800500Y207010D02*
X812400D01*
X806450Y201060D02*
Y212960D01*
X775100Y207010D02*
X787000D01*
X781050Y201060D02*
Y212960D01*
X749700Y207010D02*
X761600D01*
X755650Y201060D02*
Y212960D01*
X724300Y207010D02*
X736200D01*
X730250Y201060D02*
Y212960D01*
X698900Y207010D02*
X710800D01*
X704850Y201060D02*
Y212960D01*
X673500Y207010D02*
X685400D01*
X679450Y201060D02*
Y212960D01*
X648100Y207010D02*
X660000D01*
X654050Y201060D02*
Y212960D01*
X622700Y207010D02*
X634600D01*
X628650Y201060D02*
Y212960D01*
X597300Y207010D02*
X609200D01*
X603250Y201060D02*
Y212960D01*
X571900Y207010D02*
X583800D01*
X577850Y201060D02*
Y212960D01*
X546500Y207010D02*
X558400D01*
X552450Y201060D02*
Y212960D01*
X521100Y207010D02*
X533000D01*
X527050Y201060D02*
Y212960D01*
X1092708Y209550D02*
X1102614D01*
X1097661Y204597D02*
Y214503D01*
X1142746Y209550D02*
X1152652D01*
X1147699Y204597D02*
Y214503D01*
X521100Y50800D02*
X533000D01*
X527050Y44850D02*
Y56750D01*
X546500Y50800D02*
X558400D01*
X552450Y44850D02*
Y56750D01*
X571900Y50800D02*
X583800D01*
X577850Y44850D02*
Y56750D01*
X597300Y50800D02*
X609200D01*
X603250Y44850D02*
Y56750D01*
X622700Y50800D02*
X634600D01*
X628650Y44850D02*
Y56750D01*
X648100Y50800D02*
X660000D01*
X654050Y44850D02*
Y56750D01*
X673500Y50800D02*
X685400D01*
X679450Y44850D02*
Y56750D01*
X698900Y50800D02*
X710800D01*
X704850Y44850D02*
Y56750D01*
X724300Y50800D02*
X736200D01*
X730250Y44850D02*
Y56750D01*
X749700Y50800D02*
X761600D01*
X755650Y44850D02*
Y56750D01*
X775100Y50800D02*
X787000D01*
X781050Y44850D02*
Y56750D01*
X800500Y50800D02*
X812400D01*
X806450Y44850D02*
Y56750D01*
X1142746Y111506D02*
X1152652D01*
X1147699Y106553D02*
Y116459D01*
X1092708Y111506D02*
X1102614D01*
X1097661Y106553D02*
Y116459D01*
X418290Y710420D02*
X431290D01*
X424790Y703920D02*
Y716920D01*
X418290Y760420D02*
X431290D01*
X424790Y753920D02*
Y766920D01*
X218290Y710420D02*
X231290D01*
X224790Y703920D02*
Y716920D01*
X218290Y760420D02*
X231290D01*
X224790Y753920D02*
Y766920D01*
X537560Y718820D02*
X549560D01*
X543560Y712820D02*
Y724820D01*
X537560Y756920D02*
X549560D01*
X543560Y750920D02*
Y762920D01*
X621380Y718820D02*
X633380D01*
X627380Y712820D02*
Y724820D01*
X621380Y756920D02*
X633380D01*
X627380Y750920D02*
Y762920D01*
X705200Y718820D02*
X717200D01*
X711200Y712820D02*
Y724820D01*
X705200Y756920D02*
X717200D01*
X711200Y750920D02*
Y762920D01*
X792080Y760300D02*
X805080D01*
X798580Y753800D02*
Y766800D01*
X792080Y734900D02*
X805080D01*
X798580Y728400D02*
Y741400D01*
X792080Y709500D02*
X805080D01*
X798580Y703000D02*
Y716000D01*
X885500Y702310D02*
X892500D01*
X889000Y698810D02*
Y705810D01*
X885500Y727710D02*
X892500D01*
X889000Y724210D02*
Y731210D01*
X885500Y753110D02*
X892500D01*
X889000Y749610D02*
Y756610D01*
X103990Y319790D02*
X116990D01*
X110490Y313290D02*
Y326290D01*
X129390Y319790D02*
X142390D01*
X135890Y313290D02*
Y326290D01*
X154790Y319790D02*
X167790D01*
X161290Y313290D02*
Y326290D01*
X653900Y632710D02*
X666900D01*
X660400Y626210D02*
Y639210D01*
X679300Y632710D02*
X692300D01*
X685800Y626210D02*
Y639210D01*
X704700Y632710D02*
X717700D01*
X711200Y626210D02*
Y639210D01*
X534520Y632710D02*
X547520D01*
X541020Y626210D02*
Y639210D01*
X559920Y632710D02*
X572920D01*
X566420Y626210D02*
Y639210D01*
X585320Y632710D02*
X598320D01*
X591820Y626210D02*
Y639210D01*
X87980Y756920D02*
X99980D01*
X93980Y750920D02*
Y762920D01*
X87980Y718820D02*
X99980D01*
X93980Y712820D02*
Y724820D01*
X356240Y170180D02*
X372740D01*
X364490Y161930D02*
Y178430D01*
X356240Y93980D02*
X372740D01*
X364490Y85730D02*
Y102230D01*
X130180Y170180D02*
X146680D01*
X138430Y161930D02*
Y178430D01*
X130180Y93980D02*
X146680D01*
X138430Y85730D02*
Y102230D01*
X582500Y400000D02*
X617500D01*
X600000Y382500D02*
Y417500D01*
X12500Y30480D02*
X47500D01*
X30000Y12980D02*
Y47980D01*
X12500Y770000D02*
X47500D01*
X30000Y752500D02*
Y787500D01*
X1152500Y770000D02*
X1187500D01*
X1170000Y752500D02*
Y787500D01*
X866733Y224646D02*
X871733D01*
X869233Y222146D02*
Y227146D01*
X891742Y209091D02*
X896742D01*
X894242Y206591D02*
Y211591D01*
X886238Y245191D02*
X891238D01*
X888738Y242691D02*
Y247691D01*
X903264Y226759D02*
X908264D01*
X905764Y224259D02*
Y229259D01*
X1137452Y465328D02*
X1142452D01*
X1139952Y462828D02*
Y467828D01*
X773978Y279400D02*
X778978D01*
X776478Y276900D02*
Y281900D01*
X1165646Y323088D02*
X1170646D01*
X1168146Y320588D02*
Y325588D01*
X1165138Y401574D02*
X1170138D01*
X1167638Y399074D02*
Y404074D01*
X1152184Y461264D02*
X1157184D01*
X1154684Y458764D02*
Y463764D01*
X1142786Y379984D02*
X1147786D01*
X1145286Y377484D02*
Y382484D01*
X908072Y418877D02*
X923072D01*
X915572Y411377D02*
Y426377D01*
X951270Y449072D02*
X956270D01*
X953770Y446572D02*
Y451572D01*
X879896Y113792D02*
X884896D01*
X882396Y111292D02*
Y116292D01*
X832202Y92647D02*
X837202D01*
X834702Y90147D02*
Y95147D01*
X844620Y109856D02*
X849620D01*
X847120Y107356D02*
Y112356D01*
X834641Y73218D02*
X839641D01*
X837141Y70718D02*
Y75718D01*
X875128Y98240D02*
X880128D01*
X877628Y95740D02*
Y100740D01*
X673394Y162560D02*
X678394D01*
X675894Y160060D02*
Y165060D01*
X740958Y256540D02*
X745958D01*
X743458Y254040D02*
Y259040D01*
X594400Y323850D02*
X599400D01*
X596900Y321350D02*
Y326350D01*
X772788Y337820D02*
X787788D01*
X780288Y330320D02*
Y345320D01*
X797346Y355092D02*
X802346D01*
X799846Y352592D02*
Y357592D01*
X802934Y273050D02*
X807934D01*
X805434Y270550D02*
Y275550D01*
X664504Y100584D02*
X669504D01*
X667004Y98084D02*
Y103084D01*
X722878Y118364D02*
X737878D01*
X730378Y110864D02*
Y125864D01*
X714796Y101824D02*
X719796D01*
X717296Y99324D02*
Y104324D01*
X702604Y290322D02*
X707604D01*
X705104Y287822D02*
Y292822D01*
X815126Y259842D02*
X820126D01*
X817626Y257342D02*
Y262342D01*
X612688Y248158D02*
X617688D01*
X615188Y245658D02*
Y250658D01*
X586780Y263906D02*
X591780D01*
X589280Y261406D02*
Y266406D01*
X537143Y306952D02*
X542143D01*
X539643Y304452D02*
Y309452D01*
X495785Y302260D02*
X500785D01*
X498285Y299760D02*
Y304760D01*
X564031Y285464D02*
X569031D01*
X566531Y282964D02*
Y287964D01*
X505754Y316484D02*
X510754D01*
X508254Y313984D02*
Y318984D01*
X613450Y225552D02*
X618450D01*
X615950Y223052D02*
Y228052D01*
X1010452Y149606D02*
X1015452D01*
X1012952Y147106D02*
Y152106D01*
X530900Y137668D02*
X535900D01*
X533400Y135168D02*
Y140168D01*
X947714Y216846D02*
X952714D01*
X950214Y214346D02*
Y219346D01*
X821730Y27940D02*
X826730D01*
X824230Y25440D02*
Y30440D01*
X990894Y166624D02*
X995894D01*
X993394Y164124D02*
Y169124D01*
X546140Y393192D02*
X551140D01*
X548640Y390692D02*
Y395692D01*
X643168Y425958D02*
X648168D01*
X645668Y423458D02*
Y428458D01*
X840780Y130065D02*
X845780D01*
X843280Y127565D02*
Y132565D01*
X837478Y149495D02*
X842478D01*
X839978Y146995D02*
Y151995D01*
X1123545Y295085D02*
X1128545D01*
X1126045Y292585D02*
Y297585D01*
X1113986Y290576D02*
X1118985D01*
X1116485Y288076D02*
Y293076D01*
X894882Y525526D02*
X899882D01*
X897382Y523026D02*
Y528026D01*
X896532Y452575D02*
X901532D01*
X899032Y450075D02*
Y455075D01*
X867958Y467360D02*
X872958D01*
X870458Y464860D02*
Y469860D01*
X511596Y365790D02*
X516596D01*
X514096Y363290D02*
Y368290D01*
X1012443Y280203D02*
X1017443D01*
X1014943Y277703D02*
Y282703D01*
X996228Y291466D02*
X1001228D01*
X998728Y288966D02*
Y293966D01*
X822364Y301181D02*
X827364D01*
X824864Y298681D02*
Y303681D01*
X868152Y292291D02*
X873151D01*
X870651Y289791D02*
Y294791D01*
X882690Y292291D02*
X887690D01*
X885190Y289791D02*
Y294791D01*
X861056Y267783D02*
X866056D01*
X863556Y265283D02*
Y270283D01*
X1003340Y329501D02*
X1008340D01*
X1005840Y327001D02*
Y332001D01*
X487212Y319024D02*
X492212D01*
X489712Y316524D02*
Y321524D01*
X871260Y627126D02*
X876260D01*
X873760Y624626D02*
Y629626D01*
X781060Y81395D02*
X786060D01*
X783560Y78895D02*
Y83895D01*
X921061Y216028D02*
X926061D01*
X923561Y213528D02*
Y218528D01*
X953556Y245166D02*
X958556D01*
X956056Y242666D02*
Y247666D01*
X972606Y218885D02*
X977606D01*
X975106Y216385D02*
Y221385D01*
X873546Y263906D02*
X878546D01*
X876046Y261406D02*
Y266406D01*
X821246Y271740D02*
X826246D01*
X823746Y269240D02*
Y274240D01*
X783607Y300228D02*
X788607D01*
X786107Y297728D02*
Y302728D01*
X802172Y239014D02*
X807172D01*
X804672Y236514D02*
Y241514D01*
X682538Y232156D02*
X687538D01*
X685038Y229656D02*
Y234656D01*
X875578Y134240D02*
X880578D01*
X878078Y131740D02*
Y136740D01*
X874842Y163840D02*
X879842D01*
X877342Y161340D02*
Y166340D01*
X875460Y174362D02*
X880460D01*
X877960Y171862D02*
Y176862D01*
X1010452Y213106D02*
X1015452D01*
X1012952Y210606D02*
Y215606D01*
X877737Y193167D02*
X882737D01*
X880237Y190667D02*
Y195667D01*
X1010452Y99060D02*
X1015452D01*
X1012952Y96560D02*
Y101560D01*
X1010452Y111760D02*
X1015452D01*
X1012952Y109260D02*
Y114260D01*
X593384Y445516D02*
X598384D01*
X595884Y443016D02*
Y448016D01*
X627420Y387604D02*
X632420D01*
X629920Y385104D02*
Y390104D01*
X665012Y450342D02*
X670012D01*
X667512Y447842D02*
Y452842D01*
X687110Y479552D02*
X692110D01*
X689610Y477052D02*
Y482052D01*
X871006Y386842D02*
X876006D01*
X873506Y384342D02*
Y389342D01*
X844475Y400165D02*
X849475D01*
X846975Y397665D02*
Y402665D01*
X868212Y408686D02*
X873212D01*
X870712Y406186D02*
Y411186D01*
X1028929Y292291D02*
X1033929D01*
X1031429Y289791D02*
Y294791D01*
X979544Y337312D02*
X994544D01*
X987044Y329812D02*
Y344812D01*
X1079286Y311912D02*
X1084286D01*
X1081786Y309412D02*
Y314412D01*
X1100991Y303391D02*
X1105991D01*
X1103491Y300891D02*
Y305891D01*
X1090839Y286138D02*
X1095839D01*
X1093339Y283638D02*
Y288638D01*
X1171996Y241046D02*
X1176996D01*
X1174496Y238546D02*
Y243546D01*
X1127292Y173228D02*
X1132292D01*
X1129792Y170728D02*
Y175728D01*
X666790Y323279D02*
X671790D01*
X669290Y320779D02*
Y325779D01*
X631040Y371790D02*
X646040D01*
X638540Y364290D02*
Y379290D01*
X659932Y365790D02*
X664932D01*
X662432Y363290D02*
Y368290D01*
X715812Y400304D02*
X720812D01*
X718312Y397804D02*
Y402804D01*
X754166Y408940D02*
X759166D01*
X756666Y406440D02*
Y411440D01*
X1161704Y203596D02*
X1166704D01*
X1164204Y201096D02*
Y206096D01*
X1073471Y198897D02*
X1078471D01*
X1075971Y196397D02*
Y201397D01*
X1077254Y230886D02*
X1082254D01*
X1079754Y228386D02*
Y233386D01*
X1141262Y323596D02*
X1146262D01*
X1143762Y321096D02*
Y326096D01*
X1153200Y340614D02*
X1158200D01*
X1155700Y338114D02*
Y343114D01*
X1048044Y271526D02*
X1053044D01*
X1050544Y269026D02*
Y274026D01*
X932220Y496824D02*
X937220D01*
X934720Y494324D02*
Y499324D01*
X916472Y499618D02*
X921472D01*
X918972Y497118D02*
Y502118D01*
X849416Y509778D02*
X854416D01*
X851916Y507278D02*
Y512278D01*
X763818Y449072D02*
X768818D01*
X766318Y446572D02*
Y451572D01*
X746292Y432562D02*
X751292D01*
X748792Y430062D02*
Y435062D01*
X692698Y417576D02*
X697698D01*
X695198Y415076D02*
Y420076D01*
X423204Y385572D02*
X428204D01*
X425704Y383072D02*
Y388072D01*
X496864Y437134D02*
X501864D01*
X499364Y434634D02*
Y439634D01*
X898184Y387858D02*
X903184D01*
X900684Y385358D02*
Y390358D01*
X949826Y489458D02*
X964826D01*
X957326Y481958D02*
Y496958D01*
X678681Y398526D02*
X693681D01*
X686181Y391026D02*
Y406026D01*
X319144Y544830D02*
X334144D01*
X326644Y537330D02*
Y552330D01*
X635040Y448818D02*
X640040D01*
X637540Y446318D02*
Y451318D01*
X869736Y561848D02*
X874736D01*
X872236Y559348D02*
Y564348D01*
X1072428Y188214D02*
X1077428D01*
X1074928Y185714D02*
Y190714D01*
X867450Y544068D02*
X872450D01*
X869950Y541568D02*
Y546568D01*
X412362Y350012D02*
X427362D01*
X419862Y342512D02*
Y357512D01*
X301872Y331216D02*
X316872D01*
X309372Y323716D02*
Y338716D01*
X529122Y487680D02*
X534122D01*
X531622Y485180D02*
Y490180D01*
X512104Y536956D02*
X517104D01*
X514604Y534456D02*
Y539456D01*
X441746Y649732D02*
X446746D01*
X444246Y647232D02*
Y652232D01*
X321684Y406908D02*
X336684D01*
X329184Y399408D02*
Y414408D01*
X134486Y498602D02*
X149486D01*
X141986Y491102D02*
Y506102D01*
X212210Y393700D02*
X227210D01*
X219710Y386200D02*
Y401200D01*
X178388Y550164D02*
X188388D01*
X183388Y545164D02*
Y555164D01*
X754420Y562102D02*
X759420D01*
X756920Y559602D02*
Y564602D01*
X622594Y580898D02*
X627594D01*
X625094Y578398D02*
Y583398D01*
X550204Y574548D02*
X555204D01*
X552704Y572048D02*
Y577048D01*
M02*
