M48
;Layer_Color=9474304
;FILE_FORMAT=4:4
METRIC,LZ
;TYPE=PLATED
T1F00S00C0.3000
T2F00S00C0.7000
T3F00S00C1.1500
T4F00S00C1.1900
T5F00S00C1.2000
T6F00S00C1.3000
T7F00S00C1.5000
T8F00S00C1.6500
;TYPE=NON_PLATED
T9F00S00C3.5000
%
T01
X0107039Y0021474
X0103505Y0025019
X0106172Y0033147
X0107442
X0109982Y0033274
X009983Y0032697
X009856
X009729
X0096012Y00326646
X0095504Y003556
Y003937
X0098933Y0043561
X0098204Y0046869
X0099822Y0046736
X0101019Y0046769
X01139444Y00503936
X0112014Y00176784
X0088773Y001905
X0086233
X0083693
X0091567Y003048
Y0032385
Y003429
X0086741Y0048768
X00867499Y00497929
X0086741Y00508
X00867321Y00518249
X0083185Y0047879
X0056769Y004953
X0056896Y0017145
X0050673Y0015748
X0042672Y0019431
X0032385Y0023876
X0026416Y0043688
X0039243Y005207
X0041402Y0058674
X0042291Y0057785
X0042926Y0060198
X0056515
X0056388Y0058516
X0057023Y0057658
X0056515Y0062357
X0062357
Y0060198
X00656336Y00782828
X00813054Y00786384
X0085217Y0065532
X0084366Y0062522
X0089027Y0054483
X01139698Y006604
T02
X0108712Y0037211
X0109093Y0045466
X0041402Y0054483
X0030983Y0061087
Y0063627
Y0066167
X0091186Y0063119
X0092583Y0061502
X009906Y0057277
X0104013Y005715
X0103759Y0059182
X0108712Y0062865
X0111379
X0108712Y0067183
X0103886Y0067945
X010033Y0073279
T03
X0014Y00585
Y00622
Y00698
Y00735
T04
X0077343Y0004699
X0079883
X0084343
X0086883
X0089423
X0091963
X0094503
X0097043
X0099583
X0102123
X0104663
X0107203
X0109743
X0112283
X0101092Y0018542
X0098552
X0094742
X0092202
X0051435Y0061849
X0047625
X0045085
X0044831Y0075438
X0042291
X0039751
X0047371
X0051689
X0054229
X0056769
X0059309
X0053975Y0061849
X0084343Y0075311
X0086883
X0089423
X0091963
X0094503
X0097043
X0099583
X0102123
X0104663
X0107203
X0109743
X0112283
T05
X0050165Y0007483
X0053975
X0011684Y0019304
Y0023114
Y00316865
Y00354965
Y0044069
Y0047879
T06
X0023978Y0018669
Y0021209
Y0023749
Y00310515
Y00335915
Y00361315
Y0043434
Y0045974
Y0048514
X0042164Y0025298
X0044704
X0047244
T07
X0017402Y000635
X0040002
T08
X0075Y003619
Y004381
X0045
Y003619
T09
X0003Y0003048
X0117Y0003
X006Y004
X0003Y0077
X0117
M30
