G04*
G04 #@! TF.GenerationSoftware,Altium Limited,Altium Designer,22.7.1 (60)*
G04*
G04 Layer_Color=2752767*
%FSLAX44Y44*%
%MOMM*%
G71*
G04*
G04 #@! TF.SameCoordinates,85DCC90D-1427-409F-9E8A-CED84819FF45*
G04*
G04*
G04 #@! TF.FilePolarity,Positive*
G04*
G01*
G75*
%ADD102C,0.0508*%
%ADD103C,0.0677*%
%ADD104C,0.0339*%
D102*
X137968Y585000D02*
X140000Y587032D01*
X142032Y585000D01*
X140000Y582968D01*
X137968Y585000D01*
Y735000D02*
X140000Y737032D01*
X142032Y735000D01*
X140000Y732968D01*
X137968Y735000D01*
X399004Y62484D02*
Y61468D01*
X401036D01*
Y62484D01*
X402052D01*
Y64516D01*
X401036D01*
Y65532D01*
X399004D01*
Y64516D01*
X397988D01*
Y62484D01*
X399004D01*
X173004D02*
Y61468D01*
X175036D01*
Y62484D01*
X176052D01*
Y64516D01*
X175036D01*
Y65532D01*
X173004D01*
Y64516D01*
X171988D01*
Y62484D01*
X173004D01*
X137968Y698000D02*
X140000Y700032D01*
X142032Y698000D01*
X140000Y695968D01*
X137968Y698000D01*
Y622000D02*
X140000Y624032D01*
X142032Y622000D01*
X140000Y619968D01*
X137968Y622000D01*
X307798Y659638D02*
X308814D01*
X309830Y660654D01*
X310846Y659638D01*
X311862D01*
Y660654D01*
X310846Y661670D01*
X311862Y662686D01*
Y663702D01*
X310846D01*
X309830Y662686D01*
X308814Y663702D01*
X307798D01*
Y662686D01*
X308814Y661670D01*
X307798Y660654D01*
Y659638D01*
Y634238D02*
X308814D01*
X309830Y635254D01*
X310846Y634238D01*
X311862D01*
Y635254D01*
X310846Y636270D01*
X311862Y637286D01*
Y638302D01*
X310846D01*
X309830Y637286D01*
X308814Y638302D01*
X307798D01*
Y637286D01*
X308814Y636270D01*
X307798Y635254D01*
Y634238D01*
Y608838D02*
X308814D01*
X309830Y609854D01*
X310846Y608838D01*
X311862D01*
Y609854D01*
X310846Y610870D01*
X311862Y611886D01*
Y612902D01*
X310846D01*
X309830Y611886D01*
X308814Y612902D01*
X307798D01*
Y611886D01*
X308814Y610870D01*
X307798Y609854D01*
Y608838D01*
X447968Y359868D02*
X448984Y361900D01*
X447968Y363932D01*
X450000Y362916D01*
X452032Y363932D01*
X451016Y361900D01*
X452032Y359868D01*
X450000Y360884D01*
X447968Y359868D01*
Y436068D02*
X448984Y438100D01*
X447968Y440132D01*
X450000Y439116D01*
X452032Y440132D01*
X451016Y438100D01*
X452032Y436068D01*
X450000Y437084D01*
X447968Y436068D01*
X747968D02*
X748984Y438100D01*
X747968Y440132D01*
X750000Y439116D01*
X752032Y440132D01*
X751016Y438100D01*
X752032Y436068D01*
X750000Y437084D01*
X747968Y436068D01*
Y359868D02*
X748984Y361900D01*
X747968Y363932D01*
X750000Y362916D01*
X752032Y363932D01*
X751016Y361900D01*
X752032Y359868D01*
X750000Y360884D01*
X747968Y359868D01*
X116840Y476758D02*
X114808Y480822D01*
X118872D01*
X116840Y476758D01*
Y438658D02*
X114808Y442722D01*
X118872D01*
X116840Y438658D01*
Y229108D02*
X114808Y233172D01*
X118872D01*
X116840Y229108D01*
Y191008D02*
X114808Y195072D01*
X118872D01*
X116840Y191008D01*
X539750Y72798D02*
X537718Y76862D01*
X541782D01*
X539750Y72798D01*
X501650D02*
X499618Y76862D01*
X503682D01*
X501650Y72798D01*
X239780Y432308D02*
X240796Y433324D01*
X241812D01*
X240796Y434340D01*
X241812Y435356D01*
X240796D01*
X239780Y436372D01*
X238764Y435356D01*
X237748D01*
X238764Y434340D01*
X237748Y433324D01*
X238764D01*
X239780Y432308D01*
Y457708D02*
X240796Y458724D01*
X241812D01*
X240796Y459740D01*
X241812Y460756D01*
X240796D01*
X239780Y461772D01*
X238764Y460756D01*
X237748D01*
X238764Y459740D01*
X237748Y458724D01*
X238764D01*
X239780Y457708D01*
Y483108D02*
X240796Y484124D01*
X241812D01*
X240796Y485140D01*
X241812Y486156D01*
X240796D01*
X239780Y487172D01*
X238764Y486156D01*
X237748D01*
X238764Y485140D01*
X237748Y484124D01*
X238764D01*
X239780Y483108D01*
Y308483D02*
X240796Y309499D01*
X241812D01*
X240796Y310515D01*
X241812Y311531D01*
X240796D01*
X239780Y312547D01*
X238764Y311531D01*
X237748D01*
X238764Y310515D01*
X237748Y309499D01*
X238764D01*
X239780Y308483D01*
Y333883D02*
X240796Y334899D01*
X241812D01*
X240796Y335915D01*
X241812Y336931D01*
X240796D01*
X239780Y337947D01*
X238764Y336931D01*
X237748D01*
X238764Y335915D01*
X237748Y334899D01*
X238764D01*
X239780Y333883D01*
Y359283D02*
X240796Y360299D01*
X241812D01*
X240796Y361315D01*
X241812Y362331D01*
X240796D01*
X239780Y363347D01*
X238764Y362331D01*
X237748D01*
X238764Y361315D01*
X237748Y360299D01*
X238764D01*
X239780Y359283D01*
Y184658D02*
X240796Y185674D01*
X241812D01*
X240796Y186690D01*
X241812Y187706D01*
X240796D01*
X239780Y188722D01*
X238764Y187706D01*
X237748D01*
X238764Y186690D01*
X237748Y185674D01*
X238764D01*
X239780Y184658D01*
Y210058D02*
X240796Y211074D01*
X241812D01*
X240796Y212090D01*
X241812Y213106D01*
X240796D01*
X239780Y214122D01*
X238764Y213106D01*
X237748D01*
X238764Y212090D01*
X237748Y211074D01*
X238764D01*
X239780Y210058D01*
Y235458D02*
X240796Y236474D01*
X241812D01*
X240796Y237490D01*
X241812Y238506D01*
X240796D01*
X239780Y239522D01*
X238764Y238506D01*
X237748D01*
X238764Y237490D01*
X237748Y236474D01*
X238764D01*
X239780Y235458D01*
X421640Y250948D02*
X422656Y251964D01*
X423672D01*
X422656Y252980D01*
X423672Y253996D01*
X422656D01*
X421640Y255012D01*
X420624Y253996D01*
X419608D01*
X420624Y252980D01*
X419608Y251964D01*
X420624D01*
X421640Y250948D01*
X447040D02*
X448056Y251964D01*
X449072D01*
X448056Y252980D01*
X449072Y253996D01*
X448056D01*
X447040Y255012D01*
X446024Y253996D01*
X445008D01*
X446024Y252980D01*
X445008Y251964D01*
X446024D01*
X447040Y250948D01*
X472440D02*
X473456Y251964D01*
X474472D01*
X473456Y252980D01*
X474472Y253996D01*
X473456D01*
X472440Y255012D01*
X471424Y253996D01*
X470408D01*
X471424Y252980D01*
X470408Y251964D01*
X471424D01*
X472440Y250948D01*
X116840Y352933D02*
X114808Y356997D01*
X118872D01*
X116840Y352933D01*
Y314833D02*
X114808Y318897D01*
X118872D01*
X116840Y314833D01*
X1167968Y767968D02*
Y772032D01*
X1172032D01*
Y767968D01*
X1167968D01*
X27968D02*
Y772032D01*
X32032D01*
Y767968D01*
X27968D01*
Y28448D02*
Y32512D01*
X32032D01*
Y28448D01*
X27968D01*
X597968Y397968D02*
Y402032D01*
X602032D01*
Y397968D01*
X597968D01*
X1167968Y27968D02*
Y32032D01*
X1172032D01*
Y27968D01*
X1167968D01*
X1085088Y626618D02*
X1086104D01*
X1087120Y627634D01*
X1088136Y626618D01*
X1089152D01*
Y627634D01*
X1088136Y628650D01*
X1089152Y629666D01*
Y630682D01*
X1088136D01*
X1087120Y629666D01*
X1086104Y630682D01*
X1085088D01*
Y629666D01*
X1086104Y628650D01*
X1085088Y627634D01*
Y626618D01*
X1111758D02*
X1112774D01*
X1113790Y627634D01*
X1114806Y626618D01*
X1115822D01*
Y627634D01*
X1114806Y628650D01*
X1115822Y629666D01*
Y630682D01*
X1114806D01*
X1113790Y629666D01*
X1112774Y630682D01*
X1111758D01*
Y629666D01*
X1112774Y628650D01*
X1111758Y627634D01*
Y626618D01*
X1038098Y569468D02*
X1039114D01*
X1040130Y570484D01*
X1041146Y569468D01*
X1042162D01*
Y570484D01*
X1041146Y571500D01*
X1042162Y572516D01*
Y573532D01*
X1041146D01*
X1040130Y572516D01*
X1039114Y573532D01*
X1038098D01*
Y572516D01*
X1039114Y571500D01*
X1038098Y570484D01*
Y569468D01*
X1035558Y589788D02*
X1036574D01*
X1037590Y590804D01*
X1038606Y589788D01*
X1039622D01*
Y590804D01*
X1038606Y591820D01*
X1039622Y592836D01*
Y593852D01*
X1038606D01*
X1037590Y592836D01*
X1036574Y593852D01*
X1035558D01*
Y592836D01*
X1036574Y591820D01*
X1035558Y590804D01*
Y589788D01*
X1036828Y677418D02*
X1037844D01*
X1038860Y678434D01*
X1039876Y677418D01*
X1040892D01*
Y678434D01*
X1039876Y679450D01*
X1040892Y680466D01*
Y681482D01*
X1039876D01*
X1038860Y680466D01*
X1037844Y681482D01*
X1036828D01*
Y680466D01*
X1037844Y679450D01*
X1036828Y678434D01*
Y677418D01*
X988568Y570738D02*
X989584D01*
X990600Y571754D01*
X991616Y570738D01*
X992632D01*
Y571754D01*
X991616Y572770D01*
X992632Y573786D01*
Y574802D01*
X991616D01*
X990600Y573786D01*
X989584Y574802D01*
X988568D01*
Y573786D01*
X989584Y572770D01*
X988568Y571754D01*
Y570738D01*
X1088898Y452628D02*
X1089914D01*
X1090930Y453644D01*
X1091946Y452628D01*
X1092962D01*
Y453644D01*
X1091946Y454660D01*
X1092962Y455676D01*
Y456692D01*
X1091946D01*
X1090930Y455676D01*
X1089914Y456692D01*
X1088898D01*
Y455676D01*
X1089914Y454660D01*
X1088898Y453644D01*
Y452628D01*
X1001268Y730758D02*
X1002284D01*
X1003300Y731774D01*
X1004316Y730758D01*
X1005332D01*
Y731774D01*
X1004316Y732790D01*
X1005332Y733806D01*
Y734822D01*
X1004316D01*
X1003300Y733806D01*
X1002284Y734822D01*
X1001268D01*
Y733806D01*
X1002284Y732790D01*
X1001268Y731774D01*
Y730758D01*
X923798Y612988D02*
X924814D01*
X925830Y614004D01*
X926846Y612988D01*
X927862D01*
Y614004D01*
X926846Y615020D01*
X927862Y616036D01*
Y617052D01*
X926846D01*
X925830Y616036D01*
X924814Y617052D01*
X923798D01*
Y616036D01*
X924814Y615020D01*
X923798Y614004D01*
Y612988D01*
X909828Y629158D02*
X910844D01*
X911860Y630174D01*
X912876Y629158D01*
X913892D01*
Y630174D01*
X912876Y631190D01*
X913892Y632206D01*
Y633222D01*
X912876D01*
X911860Y632206D01*
X910844Y633222D01*
X909828D01*
Y632206D01*
X910844Y631190D01*
X909828Y630174D01*
Y629158D01*
X1085088Y669798D02*
X1086104D01*
X1087120Y670814D01*
X1088136Y669798D01*
X1089152D01*
Y670814D01*
X1088136Y671830D01*
X1089152Y672846D01*
Y673862D01*
X1088136D01*
X1087120Y672846D01*
X1086104Y673862D01*
X1085088D01*
Y672846D01*
X1086104Y671830D01*
X1085088Y670814D01*
Y669798D01*
Y370078D02*
X1086104D01*
X1087120Y371094D01*
X1088136Y370078D01*
X1089152D01*
Y371094D01*
X1088136Y372110D01*
X1089152Y373126D01*
Y374142D01*
X1088136D01*
X1087120Y373126D01*
X1086104Y374142D01*
X1085088D01*
Y373126D01*
X1086104Y372110D01*
X1085088Y371094D01*
Y370078D01*
X411988Y542798D02*
X413004D01*
X414020Y543814D01*
X415036Y542798D01*
X416052D01*
Y543814D01*
X415036Y544830D01*
X416052Y545846D01*
Y546862D01*
X415036D01*
X414020Y545846D01*
X413004Y546862D01*
X411988D01*
Y545846D01*
X413004Y544830D01*
X411988Y543814D01*
Y542798D01*
D103*
X1124862Y753110D02*
X1123458Y755043D01*
X1121186Y754304D01*
Y751916D01*
X1123458Y751177D01*
X1124862Y753110D01*
X1099462D02*
X1098058Y755043D01*
X1095786Y754304D01*
Y751916D01*
X1098058Y751177D01*
X1099462Y753110D01*
X1074062D02*
X1072658Y755043D01*
X1070386Y754304D01*
Y751916D01*
X1072658Y751177D01*
X1074062Y753110D01*
X1048662D02*
X1047258Y755043D01*
X1044986Y754304D01*
Y751916D01*
X1047258Y751177D01*
X1048662Y753110D01*
X1023262D02*
X1021858Y755043D01*
X1019586Y754304D01*
Y751916D01*
X1021858Y751177D01*
X1023262Y753110D01*
X997862D02*
X996458Y755043D01*
X994186Y754304D01*
Y751916D01*
X996458Y751177D01*
X997862Y753110D01*
X972462D02*
X971058Y755043D01*
X968786Y754304D01*
Y751916D01*
X971058Y751177D01*
X972462Y753110D01*
X947062D02*
X945658Y755043D01*
X943386Y754304D01*
Y751916D01*
X945658Y751177D01*
X947062Y753110D01*
X921662D02*
X920258Y755043D01*
X917986Y754304D01*
Y751916D01*
X920258Y751177D01*
X921662Y753110D01*
X896262D02*
X894858Y755043D01*
X892586Y754304D01*
Y751916D01*
X894858Y751177D01*
X896262Y753110D01*
X870862D02*
X869458Y755043D01*
X867186Y754304D01*
Y751916D01*
X869458Y751177D01*
X870862Y753110D01*
X845462D02*
X844058Y755043D01*
X841786Y754304D01*
Y751916D01*
X844058Y751177D01*
X845462Y753110D01*
X947062Y46990D02*
X945658Y48923D01*
X943386Y48184D01*
Y45796D01*
X945658Y45057D01*
X947062Y46990D01*
X1124862D02*
X1123458Y48923D01*
X1121186Y48184D01*
Y45796D01*
X1123458Y45057D01*
X1124862Y46990D01*
X845462D02*
X844058Y48923D01*
X841786Y48184D01*
Y45796D01*
X844058Y45057D01*
X845462Y46990D01*
X870862D02*
X869458Y48923D01*
X867186Y48184D01*
Y45796D01*
X869458Y45057D01*
X870862Y46990D01*
X896262D02*
X894858Y48923D01*
X892586Y48184D01*
Y45796D01*
X894858Y45057D01*
X896262Y46990D01*
X997862D02*
X996458Y48923D01*
X994186Y48184D01*
Y45796D01*
X996458Y45057D01*
X997862Y46990D01*
X1023262D02*
X1021858Y48923D01*
X1019586Y48184D01*
Y45796D01*
X1021858Y45057D01*
X1023262Y46990D01*
X1048662D02*
X1047258Y48923D01*
X1044986Y48184D01*
Y45796D01*
X1047258Y45057D01*
X1048662Y46990D01*
X1074062D02*
X1072658Y48923D01*
X1070386Y48184D01*
Y45796D01*
X1072658Y45057D01*
X1074062Y46990D01*
X1099462D02*
X1098058Y48923D01*
X1095786Y48184D01*
Y45796D01*
X1098058Y45057D01*
X1099462Y46990D01*
X972462D02*
X971058Y48923D01*
X968786Y48184D01*
Y45796D01*
X971058Y45057D01*
X972462Y46990D01*
X921662D02*
X920258Y48923D01*
X917986Y48184D01*
Y45796D01*
X920258Y45057D01*
X921662Y46990D01*
X775462D02*
X774058Y48923D01*
X771786Y48184D01*
Y45796D01*
X774058Y45057D01*
X775462Y46990D01*
X800862D02*
X799458Y48923D01*
X797186Y48184D01*
Y45796D01*
X799458Y45057D01*
X800862Y46990D01*
X541782Y618490D02*
X540378Y620423D01*
X538106Y619684D01*
Y617296D01*
X540378Y616557D01*
X541782Y618490D01*
X516382D02*
X514978Y620423D01*
X512706Y619684D01*
Y617296D01*
X514978Y616557D01*
X516382Y618490D01*
X478282D02*
X476878Y620423D01*
X474606Y619684D01*
Y617296D01*
X476878Y616557D01*
X478282Y618490D01*
X452882D02*
X451478Y620423D01*
X449206Y619684D01*
Y617296D01*
X451478Y616557D01*
X452882Y618490D01*
X924052Y185420D02*
X922648Y187353D01*
X920376Y186614D01*
Y184226D01*
X922648Y183487D01*
X924052Y185420D01*
X949452D02*
X948048Y187353D01*
X945776Y186614D01*
Y184226D01*
X948048Y183487D01*
X949452Y185420D01*
X987552D02*
X986148Y187353D01*
X983876Y186614D01*
Y184226D01*
X986148Y183487D01*
X987552Y185420D01*
X1012952D02*
X1011548Y187353D01*
X1009276Y186614D01*
Y184226D01*
X1011548Y183487D01*
X1012952Y185420D01*
X518922Y754380D02*
X517518Y756313D01*
X515246Y755574D01*
Y753186D01*
X517518Y752447D01*
X518922Y754380D01*
X544322D02*
X542918Y756313D01*
X540646Y755574D01*
Y753186D01*
X542918Y752447D01*
X544322Y754380D01*
X569722D02*
X568318Y756313D01*
X566046Y755574D01*
Y753186D01*
X568318Y752447D01*
X569722Y754380D01*
X595122D02*
X593718Y756313D01*
X591446Y755574D01*
Y753186D01*
X593718Y752447D01*
X595122Y754380D01*
X399542D02*
X398138Y756313D01*
X395866Y755574D01*
Y753186D01*
X398138Y752447D01*
X399542Y754380D01*
X424942D02*
X423538Y756313D01*
X421266Y755574D01*
Y753186D01*
X423538Y752447D01*
X424942Y754380D01*
X450342D02*
X448938Y756313D01*
X446666Y755574D01*
Y753186D01*
X448938Y752447D01*
X450342Y754380D01*
X475742D02*
X474338Y756313D01*
X472066Y755574D01*
Y753186D01*
X474338Y752447D01*
X475742Y754380D01*
X1141730Y660400D02*
X1140326Y662333D01*
X1138054Y661594D01*
Y659206D01*
X1140326Y658467D01*
X1141730Y660400D01*
X1141476Y503936D02*
X1140072Y505869D01*
X1137800Y505130D01*
Y502742D01*
X1140072Y502003D01*
X1141476Y503936D01*
X1122172Y176784D02*
X1120768Y178717D01*
X1118496Y177978D01*
Y175590D01*
X1120768Y174851D01*
X1122172Y176784D01*
X815086Y786384D02*
X813682Y788317D01*
X811410Y787578D01*
Y785190D01*
X813682Y784451D01*
X815086Y786384D01*
X658368Y782828D02*
X656964Y784761D01*
X654692Y784022D01*
Y781634D01*
X656964Y780895D01*
X658368Y782828D01*
X1037082Y250190D02*
X1035678Y252123D01*
X1033406Y251384D01*
Y248996D01*
X1035678Y248257D01*
X1037082Y250190D01*
X508762Y157480D02*
X507358Y159413D01*
X505086Y158674D01*
Y156286D01*
X507358Y155547D01*
X508762Y157480D01*
X1012222Y467690D02*
X1010818Y469623D01*
X1008546Y468884D01*
Y466496D01*
X1010818Y465757D01*
X1012222Y467690D01*
X854202Y655320D02*
X852798Y657253D01*
X850526Y656514D01*
Y654126D01*
X852798Y653387D01*
X854202Y655320D01*
X845692Y625220D02*
X844288Y627153D01*
X842016Y626414D01*
Y624026D01*
X844288Y623288D01*
X845692Y625220D01*
X892302Y544830D02*
X890898Y546763D01*
X888626Y546024D01*
Y543636D01*
X890898Y542897D01*
X892302Y544830D01*
X1000252Y467360D02*
X998848Y469293D01*
X996576Y468554D01*
Y466166D01*
X998848Y465427D01*
X1000252Y467360D01*
X984072Y468690D02*
X982668Y470623D01*
X980396Y469884D01*
Y467496D01*
X982668Y466757D01*
X984072Y468690D01*
X1076452Y331470D02*
X1075048Y333403D01*
X1072776Y332664D01*
Y330276D01*
X1075048Y329537D01*
X1076452Y331470D01*
X991362Y435610D02*
X989958Y437543D01*
X987686Y436804D01*
Y434416D01*
X989958Y433677D01*
X991362Y435610D01*
X962152Y326646D02*
X960748Y328578D01*
X958476Y327840D01*
Y325451D01*
X960748Y324713D01*
X962152Y326646D01*
X917702Y342900D02*
X916298Y344833D01*
X914026Y344094D01*
Y341706D01*
X916298Y340967D01*
X917702Y342900D01*
X957072Y355600D02*
X955668Y357533D01*
X953396Y356794D01*
Y354406D01*
X955668Y353667D01*
X957072Y355600D01*
X1063752Y331470D02*
X1062348Y333403D01*
X1060076Y332664D01*
Y330276D01*
X1062348Y329537D01*
X1063752Y331470D01*
X869353Y518249D02*
X867949Y520182D01*
X865677Y519443D01*
Y517055D01*
X867949Y516316D01*
X869353Y518249D01*
X869442Y508000D02*
X868038Y509933D01*
X865766Y509194D01*
Y506806D01*
X868038Y506067D01*
X869442Y508000D01*
X869531Y497929D02*
X868127Y499861D01*
X865855Y499123D01*
Y496735D01*
X868127Y495996D01*
X869531Y497929D01*
X833882Y478790D02*
X832478Y480723D01*
X830206Y479984D01*
Y477596D01*
X832478Y476857D01*
X833882Y478790D01*
X567182Y623570D02*
X565778Y625503D01*
X563506Y624764D01*
Y622376D01*
X565778Y621637D01*
X567182Y623570D01*
Y601980D02*
X565778Y603913D01*
X563506Y603174D01*
Y600786D01*
X565778Y600047D01*
X567182Y601980D01*
X625602Y623570D02*
X624198Y625503D01*
X621926Y624764D01*
Y622376D01*
X624198Y621637D01*
X625602Y623570D01*
X569722Y495300D02*
X568318Y497233D01*
X566046Y496494D01*
Y494106D01*
X568318Y493367D01*
X569722Y495300D01*
X394462Y520700D02*
X393058Y522633D01*
X390786Y521894D01*
Y519506D01*
X393058Y518767D01*
X394462Y520700D01*
X416052Y586740D02*
X414648Y588673D01*
X412376Y587934D01*
Y585546D01*
X414648Y584807D01*
X416052Y586740D01*
X869442Y487680D02*
X868038Y489613D01*
X865766Y488874D01*
Y486486D01*
X868038Y485747D01*
X869442Y487680D01*
X917702Y323850D02*
X916298Y325783D01*
X914026Y325044D01*
Y322656D01*
X916298Y321917D01*
X917702Y323850D01*
X987632Y326970D02*
X986228Y328903D01*
X983956Y328164D01*
Y325776D01*
X986228Y325037D01*
X987632Y326970D01*
X1000332D02*
X998928Y328903D01*
X996656Y328164D01*
Y325776D01*
X998928Y325037D01*
X1000332Y326970D01*
X974932D02*
X973528Y328903D01*
X971256Y328164D01*
Y325776D01*
X973528Y325037D01*
X974932Y326970D01*
X917702Y304800D02*
X916298Y306733D01*
X914026Y305994D01*
Y303606D01*
X916298Y302867D01*
X917702Y304800D01*
X1101852Y332740D02*
X1100448Y334673D01*
X1098176Y333934D01*
Y331546D01*
X1100448Y330807D01*
X1101852Y332740D01*
X625602Y601980D02*
X624198Y603913D01*
X621926Y603174D01*
Y600786D01*
X624198Y600047D01*
X625602Y601980D01*
X570992Y171450D02*
X569588Y173383D01*
X567316Y172644D01*
Y170256D01*
X569588Y169517D01*
X570992Y171450D01*
X431292Y601980D02*
X429888Y603913D01*
X427616Y603174D01*
Y600786D01*
X429888Y600047D01*
X431292Y601980D01*
X424942Y577850D02*
X423538Y579783D01*
X421266Y579044D01*
Y576656D01*
X423538Y575917D01*
X424942Y577850D01*
X266192Y436880D02*
X264788Y438813D01*
X262516Y438074D01*
Y435686D01*
X264788Y434947D01*
X266192Y436880D01*
X325882Y238760D02*
X324478Y240693D01*
X322206Y239954D01*
Y237566D01*
X324478Y236827D01*
X325882Y238760D01*
X1072422Y214740D02*
X1071018Y216673D01*
X1068746Y215934D01*
Y213546D01*
X1071018Y212807D01*
X1072422Y214740D01*
X957072Y393700D02*
X955668Y395633D01*
X953396Y394894D01*
Y392506D01*
X955668Y391767D01*
X957072Y393700D01*
X889762Y190500D02*
X888358Y192433D01*
X886086Y191694D01*
Y189306D01*
X888358Y188567D01*
X889762Y190500D01*
X864362D02*
X862958Y192433D01*
X860686Y191694D01*
Y189306D01*
X862958Y188567D01*
X864362Y190500D01*
X838962D02*
X837558Y192433D01*
X835286Y191694D01*
Y189306D01*
X837558Y188567D01*
X838962Y190500D01*
X428752Y194310D02*
X427348Y196243D01*
X425076Y195504D01*
Y193116D01*
X427348Y192377D01*
X428752Y194310D01*
X565912Y585160D02*
X564508Y587093D01*
X562236Y586354D01*
Y583966D01*
X564508Y583228D01*
X565912Y585160D01*
X572262Y576580D02*
X570858Y578513D01*
X568586Y577774D01*
Y575386D01*
X570858Y574647D01*
X572262Y576580D01*
D104*
X1140714Y660400D02*
X1139190Y661280D01*
Y659520D01*
X1140714Y660400D01*
X1140460Y503936D02*
X1138936Y504816D01*
Y503056D01*
X1140460Y503936D01*
X1121156Y176784D02*
X1119632Y177664D01*
Y175904D01*
X1121156Y176784D01*
X814070Y786384D02*
X812546Y787264D01*
Y785504D01*
X814070Y786384D01*
X657352Y782828D02*
X655828Y783708D01*
Y781948D01*
X657352Y782828D01*
X1036066Y250190D02*
X1034542Y251070D01*
Y249310D01*
X1036066Y250190D01*
X507746Y157480D02*
X506222Y158360D01*
Y156600D01*
X507746Y157480D01*
X1011206Y467690D02*
X1009682Y468570D01*
Y466810D01*
X1011206Y467690D01*
X853186Y655320D02*
X851662Y656200D01*
Y654440D01*
X853186Y655320D01*
X844676Y625220D02*
X843152Y626100D01*
Y624340D01*
X844676Y625220D01*
X891286Y544830D02*
X889762Y545710D01*
Y543950D01*
X891286Y544830D01*
X999236Y467360D02*
X997712Y468240D01*
Y466480D01*
X999236Y467360D01*
X983056Y468690D02*
X981532Y469570D01*
Y467810D01*
X983056Y468690D01*
X1075436Y331470D02*
X1073912Y332350D01*
Y330590D01*
X1075436Y331470D01*
X990346Y435610D02*
X988822Y436490D01*
Y434730D01*
X990346Y435610D01*
X961136Y326646D02*
X959612Y327525D01*
Y325766D01*
X961136Y326646D01*
X916686Y342900D02*
X915162Y343780D01*
Y342020D01*
X916686Y342900D01*
X956056Y355600D02*
X954532Y356480D01*
Y354720D01*
X956056Y355600D01*
X1062736Y331470D02*
X1061212Y332350D01*
Y330590D01*
X1062736Y331470D01*
X868337Y518249D02*
X866813Y519129D01*
Y517369D01*
X868337Y518249D01*
X868426Y508000D02*
X866902Y508880D01*
Y507120D01*
X868426Y508000D01*
X868515Y497929D02*
X866991Y498809D01*
Y497049D01*
X868515Y497929D01*
X832866Y478790D02*
X831342Y479670D01*
Y477910D01*
X832866Y478790D01*
X566166Y623570D02*
X564642Y624450D01*
Y622690D01*
X566166Y623570D01*
Y601980D02*
X564642Y602860D01*
Y601100D01*
X566166Y601980D01*
X624586Y623570D02*
X623062Y624450D01*
Y622690D01*
X624586Y623570D01*
X568706Y495300D02*
X567182Y496180D01*
Y494420D01*
X568706Y495300D01*
X393446Y520700D02*
X391922Y521580D01*
Y519820D01*
X393446Y520700D01*
X415036Y586740D02*
X413512Y587620D01*
Y585860D01*
X415036Y586740D01*
X868426Y487680D02*
X866902Y488560D01*
Y486800D01*
X868426Y487680D01*
X916686Y323850D02*
X915162Y324730D01*
Y322970D01*
X916686Y323850D01*
X986616Y326970D02*
X985092Y327850D01*
Y326090D01*
X986616Y326970D01*
X999316D02*
X997792Y327850D01*
Y326090D01*
X999316Y326970D01*
X973916D02*
X972392Y327850D01*
Y326090D01*
X973916Y326970D01*
X916686Y304800D02*
X915162Y305680D01*
Y303920D01*
X916686Y304800D01*
X1100836Y332740D02*
X1099312Y333620D01*
Y331860D01*
X1100836Y332740D01*
X624586Y601980D02*
X623062Y602860D01*
Y601100D01*
X624586Y601980D01*
X569976Y171450D02*
X568452Y172330D01*
Y170570D01*
X569976Y171450D01*
X430276Y601980D02*
X428752Y602860D01*
Y601100D01*
X430276Y601980D01*
X423926Y577850D02*
X422402Y578730D01*
Y576970D01*
X423926Y577850D01*
X265176Y436880D02*
X263652Y437760D01*
Y436000D01*
X265176Y436880D01*
X324866Y238760D02*
X323342Y239640D01*
Y237880D01*
X324866Y238760D01*
X1071406Y214740D02*
X1069882Y215620D01*
Y213860D01*
X1071406Y214740D01*
X956056Y393700D02*
X954532Y394580D01*
Y392820D01*
X956056Y393700D01*
X888746Y190500D02*
X887222Y191380D01*
Y189620D01*
X888746Y190500D01*
X863346D02*
X861822Y191380D01*
Y189620D01*
X863346Y190500D01*
X837946D02*
X836422Y191380D01*
Y189620D01*
X837946Y190500D01*
X427736Y194310D02*
X426212Y195190D01*
Y193430D01*
X427736Y194310D01*
X564896Y585160D02*
X563372Y586040D01*
Y584280D01*
X564896Y585160D01*
X571246Y576580D02*
X569722Y577460D01*
Y575700D01*
X571246Y576580D01*
M02*
