G04*
G04 #@! TF.GenerationSoftware,Altium Limited,Altium Designer,22.7.1 (60)*
G04*
G04 Layer_Color=32896*
%FSLAX44Y44*%
%MOMM*%
G71*
G04*
G04 #@! TF.SameCoordinates,0E519C92-87A3-47E9-A83B-F09A3FC6FE1E*
G04*
G04*
G04 #@! TF.FilePolarity,Positive*
G04*
G01*
G75*
%ADD13C,0.2000*%
G36*
X851103Y224068D02*
X850974Y223883D01*
X850853Y223717D01*
X850733Y223578D01*
X850631Y223448D01*
X850539Y223356D01*
X850465Y223282D01*
X850419Y223236D01*
X850400Y223217D01*
X850326Y223162D01*
X850243Y223097D01*
X850077Y222995D01*
X850003Y222958D01*
X849947Y222921D01*
X849910Y222903D01*
X849892Y222894D01*
X850058Y222866D01*
X850215Y222838D01*
X850354Y222792D01*
X850493Y222755D01*
X850613Y222709D01*
X850724Y222653D01*
X850826Y222607D01*
X850918Y222561D01*
X850992Y222505D01*
X851066Y222459D01*
X851121Y222422D01*
X851168Y222385D01*
X851205Y222358D01*
X851232Y222330D01*
X851242Y222320D01*
X851251Y222311D01*
X851325Y222219D01*
X851399Y222126D01*
X851510Y221932D01*
X851584Y221738D01*
X851639Y221553D01*
X851676Y221396D01*
X851685Y221331D01*
Y221266D01*
X851695Y221220D01*
Y221183D01*
Y221165D01*
Y221155D01*
X851685Y220961D01*
X851658Y220786D01*
X851611Y220619D01*
X851565Y220481D01*
X851510Y220360D01*
X851473Y220268D01*
X851436Y220212D01*
X851426Y220203D01*
Y220194D01*
X851316Y220046D01*
X851205Y219917D01*
X851084Y219806D01*
X850974Y219722D01*
X850872Y219658D01*
X850789Y219621D01*
X850733Y219593D01*
X850724Y219584D01*
X850715D01*
X850631Y219556D01*
X850530Y219528D01*
X850326Y219482D01*
X850104Y219454D01*
X849901Y219427D01*
X849707Y219417D01*
X849624D01*
X849550Y219408D01*
X846582D01*
Y225806D01*
X847432D01*
Y222968D01*
X848523D01*
X848625Y222977D01*
X848699D01*
X848764Y222986D01*
X848810Y222995D01*
X848847D01*
X848866Y223005D01*
X848875D01*
X849023Y223051D01*
X849087Y223079D01*
X849143Y223106D01*
X849198Y223134D01*
X849235Y223153D01*
X849254Y223162D01*
X849263Y223171D01*
X849337Y223227D01*
X849411Y223291D01*
X849550Y223430D01*
X849614Y223495D01*
X849661Y223550D01*
X849688Y223587D01*
X849698Y223596D01*
X849790Y223726D01*
X849892Y223864D01*
X849993Y224012D01*
X850095Y224151D01*
X850178Y224281D01*
X850243Y224382D01*
X850271Y224419D01*
X850289Y224447D01*
X850308Y224466D01*
Y224475D01*
X851149Y225806D01*
X852203D01*
X851103Y224068D01*
D02*
G37*
G36*
X855661Y219380D02*
X855153D01*
X855060Y219538D01*
X854958Y219685D01*
X854838Y219833D01*
X854727Y219963D01*
X854616Y220074D01*
X854533Y220166D01*
X854496Y220194D01*
X854468Y220222D01*
X854459Y220231D01*
X854450Y220240D01*
X854256Y220397D01*
X854062Y220545D01*
X853877Y220675D01*
X853692Y220777D01*
X853534Y220869D01*
X853470Y220906D01*
X853414Y220934D01*
X853368Y220961D01*
X853331Y220971D01*
X853313Y220989D01*
X853303D01*
Y221747D01*
X853442Y221692D01*
X853581Y221627D01*
X853719Y221562D01*
X853849Y221498D01*
X853960Y221442D01*
X854052Y221396D01*
X854108Y221359D01*
X854117Y221350D01*
X854126D01*
X854293Y221248D01*
X854441Y221146D01*
X854570Y221054D01*
X854672Y220971D01*
X854764Y220906D01*
X854820Y220850D01*
X854866Y220814D01*
X854875Y220804D01*
Y225806D01*
X855661D01*
Y219380D01*
D02*
G37*
G36*
X860977Y224271D02*
X861846D01*
Y223550D01*
X860977D01*
Y219408D01*
X860339D01*
X857408Y223550D01*
Y224271D01*
X860191D01*
Y225806D01*
X860977D01*
Y224271D01*
D02*
G37*
G36*
X850341Y170617D02*
X850211Y170432D01*
X850091Y170266D01*
X849971Y170127D01*
X849869Y169998D01*
X849777Y169905D01*
X849703Y169831D01*
X849657Y169785D01*
X849638Y169766D01*
X849564Y169711D01*
X849481Y169646D01*
X849315Y169545D01*
X849241Y169508D01*
X849185Y169471D01*
X849148Y169452D01*
X849130Y169443D01*
X849296Y169415D01*
X849453Y169387D01*
X849592Y169341D01*
X849731Y169304D01*
X849851Y169258D01*
X849962Y169202D01*
X850064Y169156D01*
X850156Y169110D01*
X850230Y169054D01*
X850304Y169008D01*
X850359Y168971D01*
X850406Y168934D01*
X850443Y168906D01*
X850470Y168879D01*
X850480Y168869D01*
X850489Y168860D01*
X850563Y168768D01*
X850637Y168675D01*
X850748Y168481D01*
X850822Y168287D01*
X850877Y168102D01*
X850914Y167945D01*
X850923Y167880D01*
Y167815D01*
X850933Y167769D01*
Y167732D01*
Y167714D01*
Y167705D01*
X850923Y167510D01*
X850896Y167335D01*
X850849Y167168D01*
X850803Y167030D01*
X850748Y166910D01*
X850711Y166817D01*
X850674Y166761D01*
X850665Y166752D01*
Y166743D01*
X850554Y166595D01*
X850443Y166466D01*
X850322Y166355D01*
X850211Y166271D01*
X850110Y166207D01*
X850027Y166170D01*
X849971Y166142D01*
X849962Y166133D01*
X849953D01*
X849869Y166105D01*
X849768Y166077D01*
X849564Y166031D01*
X849342Y166003D01*
X849139Y165976D01*
X848945Y165966D01*
X848862D01*
X848788Y165957D01*
X845820D01*
Y172355D01*
X846670D01*
Y169517D01*
X847761D01*
X847863Y169526D01*
X847937D01*
X848002Y169535D01*
X848048Y169545D01*
X848085D01*
X848103Y169554D01*
X848113D01*
X848261Y169600D01*
X848325Y169628D01*
X848381Y169655D01*
X848436Y169683D01*
X848473Y169702D01*
X848492Y169711D01*
X848501Y169720D01*
X848575Y169776D01*
X848649Y169840D01*
X848788Y169979D01*
X848852Y170044D01*
X848899Y170099D01*
X848926Y170136D01*
X848936Y170145D01*
X849028Y170275D01*
X849130Y170414D01*
X849231Y170562D01*
X849333Y170700D01*
X849416Y170830D01*
X849481Y170931D01*
X849509Y170968D01*
X849527Y170996D01*
X849546Y171014D01*
Y171024D01*
X850387Y172355D01*
X851441D01*
X850341Y170617D01*
D02*
G37*
G36*
X856073Y171597D02*
X852920D01*
X853031Y171440D01*
X853087Y171375D01*
X853133Y171310D01*
X853179Y171255D01*
X853216Y171218D01*
X853244Y171190D01*
X853253Y171181D01*
X853299Y171135D01*
X853355Y171089D01*
X853484Y170968D01*
X853632Y170830D01*
X853790Y170691D01*
X853938Y170571D01*
X854002Y170515D01*
X854058Y170460D01*
X854104Y170423D01*
X854141Y170395D01*
X854159Y170377D01*
X854169Y170367D01*
X854316Y170238D01*
X854464Y170118D01*
X854594Y169998D01*
X854714Y169896D01*
X854825Y169794D01*
X854918Y169702D01*
X855010Y169618D01*
X855084Y169545D01*
X855158Y169471D01*
X855213Y169415D01*
X855260Y169369D01*
X855306Y169323D01*
X855352Y169267D01*
X855370Y169249D01*
X855500Y169091D01*
X855611Y168953D01*
X855703Y168814D01*
X855777Y168703D01*
X855833Y168601D01*
X855870Y168528D01*
X855888Y168481D01*
X855898Y168463D01*
X855953Y168324D01*
X855990Y168185D01*
X856027Y168056D01*
X856046Y167945D01*
X856055Y167843D01*
X856064Y167769D01*
Y167723D01*
Y167705D01*
X856055Y167566D01*
X856036Y167437D01*
X856018Y167307D01*
X855981Y167196D01*
X855888Y166974D01*
X855796Y166798D01*
X855740Y166715D01*
X855694Y166651D01*
X855648Y166586D01*
X855602Y166540D01*
X855565Y166503D01*
X855546Y166466D01*
X855528Y166456D01*
X855518Y166447D01*
X855417Y166355D01*
X855306Y166271D01*
X855186Y166207D01*
X855065Y166151D01*
X854825Y166059D01*
X854585Y165994D01*
X854483Y165976D01*
X854381Y165957D01*
X854289Y165948D01*
X854215Y165939D01*
X854150Y165929D01*
X854058D01*
X853891Y165939D01*
X853734Y165948D01*
X853586Y165976D01*
X853447Y166003D01*
X853318Y166040D01*
X853198Y166077D01*
X853087Y166124D01*
X852985Y166170D01*
X852893Y166216D01*
X852819Y166262D01*
X852754Y166299D01*
X852699Y166336D01*
X852652Y166364D01*
X852625Y166392D01*
X852606Y166401D01*
X852597Y166410D01*
X852504Y166503D01*
X852421Y166604D01*
X852338Y166715D01*
X852273Y166826D01*
X852162Y167048D01*
X852088Y167270D01*
X852061Y167372D01*
X852033Y167474D01*
X852014Y167557D01*
X851996Y167631D01*
X851987Y167695D01*
Y167742D01*
X851977Y167769D01*
Y167779D01*
X852782Y167862D01*
X852800Y167649D01*
X852837Y167464D01*
X852893Y167298D01*
X852957Y167168D01*
X853013Y167057D01*
X853068Y166983D01*
X853105Y166937D01*
X853124Y166919D01*
X853262Y166808D01*
X853410Y166725D01*
X853568Y166660D01*
X853706Y166623D01*
X853836Y166595D01*
X853947Y166586D01*
X853984Y166577D01*
X854039D01*
X854233Y166586D01*
X854409Y166623D01*
X854557Y166678D01*
X854686Y166734D01*
X854788Y166798D01*
X854853Y166845D01*
X854899Y166882D01*
X854918Y166900D01*
X855028Y167030D01*
X855112Y167159D01*
X855176Y167288D01*
X855213Y167418D01*
X855241Y167520D01*
X855250Y167612D01*
X855260Y167668D01*
Y167677D01*
Y167686D01*
X855241Y167852D01*
X855204Y168028D01*
X855139Y168185D01*
X855075Y168333D01*
X855001Y168454D01*
X854936Y168555D01*
X854918Y168592D01*
X854899Y168620D01*
X854881Y168629D01*
Y168638D01*
X854807Y168740D01*
X854714Y168842D01*
X854612Y168953D01*
X854501Y169064D01*
X854270Y169286D01*
X854039Y169508D01*
X853919Y169609D01*
X853817Y169702D01*
X853716Y169785D01*
X853632Y169859D01*
X853568Y169914D01*
X853512Y169960D01*
X853475Y169988D01*
X853466Y169998D01*
X853235Y170192D01*
X853022Y170377D01*
X852847Y170543D01*
X852708Y170682D01*
X852588Y170802D01*
X852504Y170885D01*
X852458Y170941D01*
X852440Y170950D01*
Y170959D01*
X852310Y171116D01*
X852208Y171264D01*
X852116Y171412D01*
X852042Y171542D01*
X851987Y171653D01*
X851950Y171736D01*
X851931Y171791D01*
X851922Y171800D01*
Y171810D01*
X851885Y171911D01*
X851866Y172004D01*
X851848Y172096D01*
X851839Y172180D01*
X851830Y172253D01*
Y172309D01*
Y172346D01*
Y172355D01*
X856073D01*
Y171597D01*
D02*
G37*
G36*
X859254Y172448D02*
X859485Y172411D01*
X859679Y172346D01*
X859845Y172281D01*
X859984Y172216D01*
X860030Y172180D01*
X860077Y172152D01*
X860114Y172133D01*
X860141Y172115D01*
X860151Y172096D01*
X860160D01*
X860326Y171939D01*
X860465Y171773D01*
X860585Y171588D01*
X860677Y171421D01*
X860751Y171264D01*
X860788Y171199D01*
X860807Y171135D01*
X860825Y171089D01*
X860844Y171052D01*
X860853Y171033D01*
Y171024D01*
X860899Y170885D01*
X860936Y170746D01*
X860992Y170450D01*
X861038Y170145D01*
X861066Y169850D01*
X861075Y169720D01*
X861084Y169600D01*
Y169489D01*
X861094Y169387D01*
Y169313D01*
Y169249D01*
Y169212D01*
Y169202D01*
Y169027D01*
X861084Y168860D01*
Y168712D01*
X861075Y168564D01*
X861057Y168435D01*
X861047Y168306D01*
X861038Y168195D01*
X861020Y168093D01*
X861010Y168001D01*
X860992Y167917D01*
X860983Y167852D01*
X860973Y167797D01*
X860964Y167751D01*
X860955Y167723D01*
X860946Y167705D01*
Y167695D01*
X860890Y167492D01*
X860825Y167307D01*
X860751Y167150D01*
X860696Y167011D01*
X860631Y166891D01*
X860594Y166808D01*
X860557Y166761D01*
X860548Y166743D01*
X860446Y166604D01*
X860345Y166484D01*
X860234Y166383D01*
X860132Y166290D01*
X860040Y166225D01*
X859966Y166179D01*
X859919Y166151D01*
X859910Y166142D01*
X859901D01*
X859753Y166068D01*
X859596Y166022D01*
X859448Y165985D01*
X859309Y165957D01*
X859189Y165939D01*
X859087Y165929D01*
X859004D01*
X858754Y165948D01*
X858523Y165985D01*
X858329Y166050D01*
X858163Y166114D01*
X858024Y166188D01*
X857969Y166216D01*
X857922Y166253D01*
X857885Y166271D01*
X857858Y166290D01*
X857848Y166308D01*
X857839D01*
X857673Y166456D01*
X857534Y166632D01*
X857414Y166808D01*
X857321Y166974D01*
X857247Y167131D01*
X857210Y167196D01*
X857192Y167261D01*
X857173Y167307D01*
X857155Y167344D01*
X857146Y167362D01*
Y167372D01*
X857109Y167510D01*
X857072Y167649D01*
X857016Y167954D01*
X856970Y168259D01*
X856942Y168546D01*
X856933Y168685D01*
X856924Y168805D01*
Y168916D01*
X856915Y169018D01*
Y169091D01*
Y169156D01*
Y169193D01*
Y169202D01*
X856924Y169526D01*
X856942Y169831D01*
X856970Y170108D01*
X857016Y170367D01*
X857063Y170608D01*
X857118Y170820D01*
X857173Y171014D01*
X857229Y171181D01*
X857284Y171329D01*
X857349Y171458D01*
X857395Y171569D01*
X857441Y171653D01*
X857488Y171726D01*
X857515Y171773D01*
X857534Y171800D01*
X857543Y171810D01*
X857645Y171921D01*
X857756Y172022D01*
X857876Y172115D01*
X857996Y172189D01*
X858117Y172253D01*
X858237Y172309D01*
X858357Y172346D01*
X858468Y172383D01*
X858579Y172411D01*
X858680Y172429D01*
X858773Y172448D01*
X858847Y172457D01*
X858912Y172466D01*
X859004D01*
X859254Y172448D01*
D02*
G37*
G36*
X849833Y189413D02*
X849704Y189228D01*
X849583Y189062D01*
X849463Y188923D01*
X849361Y188794D01*
X849269Y188701D01*
X849195Y188627D01*
X849149Y188581D01*
X849130Y188562D01*
X849056Y188507D01*
X848973Y188442D01*
X848807Y188340D01*
X848733Y188304D01*
X848677Y188267D01*
X848640Y188248D01*
X848622Y188239D01*
X848788Y188211D01*
X848945Y188183D01*
X849084Y188137D01*
X849223Y188100D01*
X849343Y188054D01*
X849454Y187998D01*
X849556Y187952D01*
X849648Y187906D01*
X849722Y187850D01*
X849796Y187804D01*
X849851Y187767D01*
X849898Y187730D01*
X849935Y187703D01*
X849962Y187675D01*
X849972Y187666D01*
X849981Y187656D01*
X850055Y187564D01*
X850129Y187471D01*
X850240Y187277D01*
X850314Y187083D01*
X850369Y186898D01*
X850406Y186741D01*
X850415Y186676D01*
Y186611D01*
X850425Y186565D01*
Y186528D01*
Y186510D01*
Y186501D01*
X850415Y186306D01*
X850388Y186131D01*
X850341Y185964D01*
X850295Y185826D01*
X850240Y185706D01*
X850203Y185613D01*
X850166Y185557D01*
X850156Y185548D01*
Y185539D01*
X850046Y185391D01*
X849935Y185262D01*
X849814Y185151D01*
X849704Y185068D01*
X849602Y185003D01*
X849519Y184966D01*
X849463Y184938D01*
X849454Y184929D01*
X849445D01*
X849361Y184901D01*
X849260Y184873D01*
X849056Y184827D01*
X848834Y184799D01*
X848631Y184772D01*
X848437Y184762D01*
X848354D01*
X848280Y184753D01*
X845312D01*
Y191151D01*
X846162D01*
Y188313D01*
X847253D01*
X847355Y188322D01*
X847429D01*
X847494Y188331D01*
X847540Y188340D01*
X847577D01*
X847596Y188350D01*
X847605D01*
X847753Y188396D01*
X847817Y188424D01*
X847873Y188451D01*
X847928Y188479D01*
X847965Y188498D01*
X847984Y188507D01*
X847993Y188516D01*
X848067Y188572D01*
X848141Y188636D01*
X848280Y188775D01*
X848344Y188840D01*
X848391Y188895D01*
X848418Y188932D01*
X848428Y188941D01*
X848520Y189071D01*
X848622Y189210D01*
X848723Y189357D01*
X848825Y189496D01*
X848908Y189626D01*
X848973Y189727D01*
X849001Y189764D01*
X849019Y189792D01*
X849038Y189811D01*
Y189820D01*
X849879Y191151D01*
X850933D01*
X849833Y189413D01*
D02*
G37*
G36*
X858579Y191244D02*
X858810Y191207D01*
X859023Y191142D01*
X859199Y191068D01*
X859273Y191040D01*
X859347Y191003D01*
X859402Y190966D01*
X859458Y190938D01*
X859495Y190920D01*
X859522Y190902D01*
X859541Y190883D01*
X859550D01*
X859735Y190726D01*
X859901Y190550D01*
X860031Y190365D01*
X860142Y190190D01*
X860234Y190032D01*
X860271Y189958D01*
X860299Y189903D01*
X860317Y189848D01*
X860336Y189811D01*
X860345Y189792D01*
Y189783D01*
X860391Y189644D01*
X860438Y189487D01*
X860502Y189173D01*
X860549Y188840D01*
X860576Y188525D01*
X860595Y188387D01*
X860604Y188248D01*
Y188128D01*
X860613Y188026D01*
Y187943D01*
Y187878D01*
Y187832D01*
Y187823D01*
Y187610D01*
X860604Y187407D01*
X860586Y187222D01*
X860567Y187046D01*
X860549Y186889D01*
X860530Y186741D01*
X860502Y186602D01*
X860475Y186482D01*
X860447Y186380D01*
X860428Y186288D01*
X860401Y186205D01*
X860382Y186140D01*
X860364Y186094D01*
X860345Y186057D01*
X860336Y186038D01*
Y186029D01*
X860225Y185807D01*
X860105Y185613D01*
X859966Y185447D01*
X859846Y185308D01*
X859726Y185206D01*
X859633Y185132D01*
X859596Y185105D01*
X859568Y185086D01*
X859559Y185068D01*
X859550D01*
X859356Y184957D01*
X859162Y184873D01*
X858968Y184809D01*
X858792Y184772D01*
X858635Y184744D01*
X858570Y184735D01*
X858524D01*
X858478Y184725D01*
X858413D01*
X858256Y184735D01*
X858108Y184753D01*
X857960Y184781D01*
X857830Y184818D01*
X857581Y184920D01*
X857470Y184966D01*
X857377Y185021D01*
X857285Y185086D01*
X857211Y185132D01*
X857137Y185188D01*
X857082Y185234D01*
X857035Y185271D01*
X857008Y185299D01*
X856989Y185317D01*
X856980Y185326D01*
X856878Y185437D01*
X856795Y185567D01*
X856712Y185687D01*
X856647Y185816D01*
X856591Y185955D01*
X856545Y186084D01*
X856480Y186325D01*
X856453Y186445D01*
X856434Y186547D01*
X856425Y186649D01*
X856416Y186732D01*
X856406Y186796D01*
Y186843D01*
Y186880D01*
Y186889D01*
X856416Y187065D01*
X856434Y187222D01*
X856453Y187379D01*
X856490Y187527D01*
X856536Y187656D01*
X856582Y187786D01*
X856628Y187897D01*
X856684Y187998D01*
X856730Y188091D01*
X856776Y188174D01*
X856823Y188239D01*
X856869Y188304D01*
X856906Y188350D01*
X856924Y188377D01*
X856943Y188396D01*
X856952Y188405D01*
X857054Y188507D01*
X857165Y188590D01*
X857276Y188673D01*
X857396Y188738D01*
X857507Y188794D01*
X857618Y188840D01*
X857830Y188904D01*
X857923Y188932D01*
X858015Y188951D01*
X858089Y188960D01*
X858163Y188969D01*
X858219Y188978D01*
X858293D01*
X858468Y188969D01*
X858635Y188941D01*
X858783Y188904D01*
X858921Y188858D01*
X859023Y188821D01*
X859106Y188784D01*
X859162Y188757D01*
X859180Y188747D01*
X859328Y188655D01*
X859458Y188553D01*
X859568Y188451D01*
X859661Y188359D01*
X859726Y188267D01*
X859781Y188202D01*
X859818Y188156D01*
X859827Y188137D01*
Y188211D01*
Y188257D01*
Y188285D01*
Y188294D01*
X859818Y188479D01*
X859809Y188655D01*
X859790Y188812D01*
X859772Y188960D01*
X859744Y189080D01*
X859726Y189173D01*
X859716Y189210D01*
Y189237D01*
X859707Y189247D01*
Y189256D01*
X859661Y189422D01*
X859615Y189570D01*
X859568Y189700D01*
X859522Y189811D01*
X859485Y189894D01*
X859448Y189958D01*
X859430Y190005D01*
X859421Y190014D01*
X859347Y190116D01*
X859273Y190199D01*
X859199Y190273D01*
X859125Y190338D01*
X859069Y190393D01*
X859014Y190430D01*
X858977Y190448D01*
X858968Y190458D01*
X858866Y190513D01*
X858755Y190550D01*
X858653Y190578D01*
X858551Y190596D01*
X858468Y190606D01*
X858404Y190615D01*
X858339D01*
X858191Y190606D01*
X858052Y190578D01*
X857932Y190541D01*
X857830Y190495D01*
X857756Y190458D01*
X857692Y190421D01*
X857655Y190393D01*
X857645Y190384D01*
X857553Y190282D01*
X857479Y190162D01*
X857414Y190032D01*
X857368Y189903D01*
X857331Y189792D01*
X857303Y189690D01*
X857294Y189653D01*
Y189635D01*
X857285Y189616D01*
Y189607D01*
X856527Y189672D01*
X856582Y189940D01*
X856656Y190171D01*
X856749Y190375D01*
X856841Y190541D01*
X856934Y190670D01*
X856980Y190726D01*
X857017Y190772D01*
X857045Y190800D01*
X857072Y190828D01*
X857082Y190837D01*
X857091Y190846D01*
X857183Y190920D01*
X857285Y190985D01*
X857488Y191086D01*
X857692Y191160D01*
X857886Y191207D01*
X858062Y191244D01*
X858136Y191253D01*
X858200D01*
X858246Y191262D01*
X858320D01*
X858579Y191244D01*
D02*
G37*
G36*
X854391Y184725D02*
X853883D01*
X853790Y184883D01*
X853688Y185030D01*
X853568Y185179D01*
X853457Y185308D01*
X853346Y185419D01*
X853263Y185511D01*
X853226Y185539D01*
X853198Y185567D01*
X853189Y185576D01*
X853180Y185585D01*
X852986Y185742D01*
X852792Y185890D01*
X852607Y186020D01*
X852422Y186122D01*
X852264Y186214D01*
X852200Y186251D01*
X852144Y186279D01*
X852098Y186306D01*
X852061Y186316D01*
X852043Y186334D01*
X852033D01*
Y187092D01*
X852172Y187037D01*
X852311Y186972D01*
X852449Y186907D01*
X852579Y186843D01*
X852690Y186787D01*
X852782Y186741D01*
X852838Y186704D01*
X852847Y186695D01*
X852856D01*
X853023Y186593D01*
X853171Y186491D01*
X853300Y186399D01*
X853402Y186316D01*
X853494Y186251D01*
X853550Y186196D01*
X853596Y186159D01*
X853605Y186149D01*
Y191151D01*
X854391D01*
Y184725D01*
D02*
G37*
G36*
X1000649Y104813D02*
X997811D01*
Y103723D01*
X997820Y103621D01*
Y103547D01*
X997829Y103482D01*
X997839Y103436D01*
Y103399D01*
X997848Y103380D01*
Y103371D01*
X997894Y103223D01*
X997922Y103159D01*
X997949Y103103D01*
X997977Y103048D01*
X997996Y103011D01*
X998005Y102992D01*
X998014Y102983D01*
X998070Y102909D01*
X998134Y102835D01*
X998273Y102696D01*
X998338Y102632D01*
X998393Y102585D01*
X998430Y102558D01*
X998439Y102548D01*
X998569Y102456D01*
X998708Y102354D01*
X998856Y102253D01*
X998994Y102151D01*
X999124Y102068D01*
X999225Y102003D01*
X999262Y101975D01*
X999290Y101957D01*
X999308Y101938D01*
X999318D01*
X1000649Y101097D01*
Y100043D01*
X998911Y101143D01*
X998726Y101272D01*
X998560Y101393D01*
X998421Y101513D01*
X998291Y101615D01*
X998199Y101707D01*
X998125Y101781D01*
X998079Y101827D01*
X998060Y101846D01*
X998005Y101920D01*
X997940Y102003D01*
X997839Y102169D01*
X997802Y102243D01*
X997765Y102299D01*
X997746Y102336D01*
X997737Y102354D01*
X997709Y102188D01*
X997681Y102031D01*
X997635Y101892D01*
X997598Y101753D01*
X997552Y101633D01*
X997496Y101522D01*
X997450Y101420D01*
X997404Y101328D01*
X997348Y101254D01*
X997302Y101180D01*
X997265Y101124D01*
X997228Y101078D01*
X997200Y101041D01*
X997173Y101014D01*
X997163Y101004D01*
X997154Y100995D01*
X997062Y100921D01*
X996969Y100847D01*
X996775Y100736D01*
X996581Y100662D01*
X996396Y100607D01*
X996239Y100570D01*
X996174Y100561D01*
X996109D01*
X996063Y100551D01*
X996026D01*
X996008D01*
X995999D01*
X995804Y100561D01*
X995629Y100588D01*
X995462Y100634D01*
X995324Y100681D01*
X995203Y100736D01*
X995111Y100773D01*
X995055Y100810D01*
X995046Y100819D01*
X995037D01*
X994889Y100930D01*
X994760Y101041D01*
X994649Y101161D01*
X994566Y101272D01*
X994501Y101374D01*
X994464Y101457D01*
X994436Y101513D01*
X994427Y101522D01*
Y101531D01*
X994399Y101615D01*
X994371Y101716D01*
X994325Y101920D01*
X994297Y102142D01*
X994270Y102345D01*
X994260Y102539D01*
Y102622D01*
X994251Y102696D01*
Y105664D01*
X1000649D01*
Y104813D01*
D02*
G37*
G36*
X996535Y98804D02*
X996470Y98665D01*
X996405Y98526D01*
X996341Y98397D01*
X996285Y98286D01*
X996239Y98194D01*
X996202Y98138D01*
X996193Y98129D01*
Y98120D01*
X996091Y97953D01*
X995989Y97805D01*
X995897Y97676D01*
X995814Y97574D01*
X995749Y97482D01*
X995694Y97426D01*
X995657Y97380D01*
X995647Y97371D01*
X1000649D01*
Y96585D01*
X994223D01*
Y97093D01*
X994381Y97186D01*
X994529Y97288D01*
X994677Y97408D01*
X994806Y97519D01*
X994917Y97630D01*
X995009Y97713D01*
X995037Y97750D01*
X995065Y97778D01*
X995074Y97787D01*
X995083Y97796D01*
X995240Y97990D01*
X995388Y98184D01*
X995518Y98369D01*
X995620Y98554D01*
X995712Y98711D01*
X995749Y98776D01*
X995777Y98832D01*
X995804Y98878D01*
X995814Y98915D01*
X995832Y98933D01*
Y98943D01*
X996590D01*
X996535Y98804D01*
D02*
G37*
G36*
X997959Y94597D02*
X998236Y94579D01*
X998495Y94551D01*
X998735Y94505D01*
X998948Y94459D01*
X999142Y94412D01*
X999318Y94357D01*
X999475Y94292D01*
X999604Y94237D01*
X999725Y94181D01*
X999817Y94135D01*
X999900Y94079D01*
X999965Y94042D01*
X1000002Y94015D01*
X1000030Y93996D01*
X1000039Y93987D01*
X1000168Y93867D01*
X1000279Y93737D01*
X1000372Y93608D01*
X1000455Y93478D01*
X1000529Y93340D01*
X1000584Y93210D01*
X1000631Y93081D01*
X1000668Y92951D01*
X1000695Y92840D01*
X1000723Y92730D01*
X1000742Y92637D01*
X1000751Y92554D01*
Y92480D01*
X1000760Y92434D01*
Y92387D01*
X1000751Y92175D01*
X1000714Y91981D01*
X1000677Y91805D01*
X1000621Y91648D01*
X1000575Y91528D01*
X1000529Y91435D01*
X1000520Y91398D01*
X1000501Y91370D01*
X1000492Y91361D01*
Y91352D01*
X1000381Y91195D01*
X1000252Y91047D01*
X1000122Y90927D01*
X999993Y90825D01*
X999873Y90742D01*
X999780Y90686D01*
X999743Y90668D01*
X999715Y90649D01*
X999706Y90640D01*
X999697D01*
X999503Y90548D01*
X999299Y90483D01*
X999114Y90437D01*
X998939Y90409D01*
X998791Y90381D01*
X998735D01*
X998680Y90372D01*
X998634D01*
X998606D01*
X998587D01*
X998578D01*
X998412Y90381D01*
X998254Y90400D01*
X998097Y90427D01*
X997959Y90455D01*
X997829Y90501D01*
X997700Y90548D01*
X997589Y90594D01*
X997487Y90649D01*
X997395Y90705D01*
X997311Y90751D01*
X997247Y90797D01*
X997182Y90843D01*
X997136Y90871D01*
X997108Y90899D01*
X997090Y90917D01*
X997080Y90927D01*
X996979Y91028D01*
X996886Y91139D01*
X996812Y91259D01*
X996748Y91370D01*
X996683Y91481D01*
X996637Y91592D01*
X996572Y91805D01*
X996544Y91897D01*
X996526Y91990D01*
X996516Y92064D01*
X996507Y92138D01*
X996498Y92193D01*
Y92267D01*
X996507Y92434D01*
X996535Y92591D01*
X996563Y92739D01*
X996600Y92868D01*
X996646Y92979D01*
X996674Y93062D01*
X996701Y93118D01*
X996711Y93127D01*
Y93136D01*
X996803Y93284D01*
X996905Y93414D01*
X997006Y93534D01*
X997117Y93626D01*
X997210Y93710D01*
X997284Y93774D01*
X997339Y93811D01*
X997348Y93820D01*
X997182D01*
X997016Y93811D01*
X996868Y93802D01*
X996720Y93784D01*
X996590Y93774D01*
X996470Y93756D01*
X996359Y93737D01*
X996257Y93710D01*
X996165Y93691D01*
X996091Y93673D01*
X996026Y93654D01*
X995971Y93645D01*
X995934Y93626D01*
X995906Y93617D01*
X995888Y93608D01*
X995878D01*
X995694Y93515D01*
X995527Y93423D01*
X995398Y93321D01*
X995287Y93229D01*
X995194Y93146D01*
X995129Y93081D01*
X995092Y93035D01*
X995083Y93016D01*
X995009Y92905D01*
X994963Y92794D01*
X994926Y92683D01*
X994898Y92572D01*
X994880Y92489D01*
X994871Y92415D01*
Y92351D01*
X994889Y92184D01*
X994926Y92027D01*
X994982Y91897D01*
X995037Y91777D01*
X995102Y91685D01*
X995157Y91620D01*
X995194Y91583D01*
X995213Y91565D01*
X995296Y91500D01*
X995398Y91435D01*
X995509Y91380D01*
X995620Y91343D01*
X995721Y91306D01*
X995804Y91278D01*
X995860Y91269D01*
X995869Y91259D01*
X995878D01*
X995814Y90474D01*
X995555Y90529D01*
X995324Y90612D01*
X995120Y90705D01*
X994954Y90806D01*
X994824Y90908D01*
X994769Y90945D01*
X994723Y90991D01*
X994695Y91019D01*
X994667Y91047D01*
X994658Y91056D01*
X994649Y91065D01*
X994575Y91158D01*
X994510Y91259D01*
X994399Y91463D01*
X994325Y91666D01*
X994279Y91860D01*
X994242Y92036D01*
X994233Y92110D01*
Y92175D01*
X994223Y92230D01*
Y92304D01*
X994233Y92489D01*
X994251Y92665D01*
X994288Y92831D01*
X994334Y92988D01*
X994399Y93127D01*
X994455Y93266D01*
X994529Y93386D01*
X994593Y93497D01*
X994658Y93589D01*
X994732Y93682D01*
X994787Y93756D01*
X994843Y93811D01*
X994898Y93857D01*
X994935Y93895D01*
X994954Y93913D01*
X994963Y93922D01*
X995129Y94042D01*
X995324Y94144D01*
X995527Y94237D01*
X995740Y94320D01*
X995962Y94384D01*
X996183Y94440D01*
X996415Y94486D01*
X996627Y94523D01*
X996840Y94551D01*
X997034Y94569D01*
X997210Y94588D01*
X997358Y94597D01*
X997487D01*
X997580Y94606D01*
X997617D01*
X997644D01*
X997654D01*
X997663D01*
X997959Y94597D01*
D02*
G37*
G36*
X1153363Y443413D02*
X1153233Y443228D01*
X1153113Y443062D01*
X1152993Y442923D01*
X1152891Y442794D01*
X1152799Y442701D01*
X1152725Y442627D01*
X1152679Y442581D01*
X1152660Y442562D01*
X1152586Y442507D01*
X1152503Y442442D01*
X1152337Y442340D01*
X1152263Y442303D01*
X1152207Y442267D01*
X1152170Y442248D01*
X1152152Y442239D01*
X1152318Y442211D01*
X1152475Y442183D01*
X1152614Y442137D01*
X1152753Y442100D01*
X1152873Y442054D01*
X1152984Y441998D01*
X1153086Y441952D01*
X1153178Y441906D01*
X1153252Y441850D01*
X1153326Y441804D01*
X1153381Y441767D01*
X1153428Y441730D01*
X1153465Y441702D01*
X1153492Y441675D01*
X1153502Y441665D01*
X1153511Y441656D01*
X1153585Y441564D01*
X1153659Y441471D01*
X1153770Y441277D01*
X1153844Y441083D01*
X1153899Y440898D01*
X1153936Y440741D01*
X1153945Y440676D01*
Y440611D01*
X1153955Y440565D01*
Y440528D01*
Y440510D01*
Y440500D01*
X1153945Y440306D01*
X1153918Y440131D01*
X1153871Y439964D01*
X1153825Y439826D01*
X1153770Y439705D01*
X1153733Y439613D01*
X1153696Y439557D01*
X1153687Y439548D01*
Y439539D01*
X1153576Y439391D01*
X1153465Y439262D01*
X1153344Y439151D01*
X1153233Y439067D01*
X1153132Y439003D01*
X1153049Y438966D01*
X1152993Y438938D01*
X1152984Y438929D01*
X1152975D01*
X1152891Y438901D01*
X1152790Y438873D01*
X1152586Y438827D01*
X1152364Y438799D01*
X1152161Y438772D01*
X1151967Y438762D01*
X1151884D01*
X1151810Y438753D01*
X1148842D01*
Y445151D01*
X1149692D01*
Y442313D01*
X1150783D01*
X1150885Y442322D01*
X1150959D01*
X1151024Y442331D01*
X1151070Y442340D01*
X1151107D01*
X1151125Y442350D01*
X1151135D01*
X1151283Y442396D01*
X1151347Y442424D01*
X1151403Y442451D01*
X1151458Y442479D01*
X1151495Y442498D01*
X1151514Y442507D01*
X1151523Y442516D01*
X1151597Y442572D01*
X1151671Y442636D01*
X1151810Y442775D01*
X1151874Y442840D01*
X1151921Y442895D01*
X1151948Y442932D01*
X1151958Y442941D01*
X1152050Y443071D01*
X1152152Y443209D01*
X1152253Y443357D01*
X1152355Y443496D01*
X1152438Y443626D01*
X1152503Y443727D01*
X1152531Y443764D01*
X1152549Y443792D01*
X1152568Y443811D01*
Y443820D01*
X1153409Y445151D01*
X1154463D01*
X1153363Y443413D01*
D02*
G37*
G36*
X1157357Y445253D02*
X1157551Y445216D01*
X1157727Y445179D01*
X1157884Y445123D01*
X1158004Y445077D01*
X1158097Y445031D01*
X1158134Y445022D01*
X1158161Y445003D01*
X1158171Y444994D01*
X1158180D01*
X1158337Y444883D01*
X1158485Y444753D01*
X1158605Y444624D01*
X1158707Y444495D01*
X1158790Y444374D01*
X1158846Y444282D01*
X1158864Y444245D01*
X1158883Y444217D01*
X1158892Y444208D01*
Y444199D01*
X1158984Y444005D01*
X1159049Y443801D01*
X1159095Y443616D01*
X1159123Y443441D01*
X1159151Y443293D01*
Y443237D01*
X1159160Y443182D01*
Y443135D01*
Y443108D01*
Y443089D01*
Y443080D01*
X1159151Y442914D01*
X1159132Y442757D01*
X1159104Y442599D01*
X1159077Y442461D01*
X1159031Y442331D01*
X1158984Y442202D01*
X1158938Y442091D01*
X1158883Y441989D01*
X1158827Y441897D01*
X1158781Y441813D01*
X1158735Y441749D01*
X1158688Y441684D01*
X1158661Y441638D01*
X1158633Y441610D01*
X1158614Y441591D01*
X1158605Y441582D01*
X1158503Y441481D01*
X1158392Y441388D01*
X1158272Y441314D01*
X1158161Y441249D01*
X1158050Y441185D01*
X1157940Y441138D01*
X1157727Y441074D01*
X1157634Y441046D01*
X1157542Y441027D01*
X1157468Y441018D01*
X1157394Y441009D01*
X1157338Y441000D01*
X1157265D01*
X1157098Y441009D01*
X1156941Y441037D01*
X1156793Y441064D01*
X1156664Y441101D01*
X1156553Y441148D01*
X1156469Y441175D01*
X1156414Y441203D01*
X1156405Y441213D01*
X1156395D01*
X1156247Y441305D01*
X1156118Y441407D01*
X1155998Y441508D01*
X1155906Y441619D01*
X1155822Y441712D01*
X1155758Y441786D01*
X1155721Y441841D01*
X1155711Y441850D01*
Y441684D01*
X1155721Y441518D01*
X1155730Y441370D01*
X1155748Y441222D01*
X1155758Y441092D01*
X1155776Y440972D01*
X1155795Y440861D01*
X1155822Y440759D01*
X1155841Y440667D01*
X1155859Y440593D01*
X1155878Y440528D01*
X1155887Y440473D01*
X1155906Y440436D01*
X1155915Y440408D01*
X1155924Y440390D01*
Y440380D01*
X1156016Y440195D01*
X1156109Y440029D01*
X1156211Y439900D01*
X1156303Y439789D01*
X1156386Y439696D01*
X1156451Y439632D01*
X1156497Y439594D01*
X1156516Y439585D01*
X1156627Y439511D01*
X1156738Y439465D01*
X1156849Y439428D01*
X1156960Y439400D01*
X1157043Y439382D01*
X1157117Y439373D01*
X1157181D01*
X1157348Y439391D01*
X1157505Y439428D01*
X1157634Y439483D01*
X1157755Y439539D01*
X1157847Y439604D01*
X1157912Y439659D01*
X1157949Y439696D01*
X1157967Y439715D01*
X1158032Y439798D01*
X1158097Y439900D01*
X1158152Y440010D01*
X1158189Y440121D01*
X1158226Y440223D01*
X1158254Y440306D01*
X1158263Y440362D01*
X1158272Y440371D01*
Y440380D01*
X1159058Y440316D01*
X1159003Y440057D01*
X1158920Y439826D01*
X1158827Y439622D01*
X1158725Y439456D01*
X1158624Y439326D01*
X1158587Y439271D01*
X1158540Y439225D01*
X1158513Y439197D01*
X1158485Y439169D01*
X1158476Y439160D01*
X1158466Y439151D01*
X1158374Y439077D01*
X1158272Y439012D01*
X1158069Y438901D01*
X1157866Y438827D01*
X1157671Y438781D01*
X1157496Y438744D01*
X1157422Y438735D01*
X1157357D01*
X1157301Y438725D01*
X1157228D01*
X1157043Y438735D01*
X1156867Y438753D01*
X1156701Y438790D01*
X1156543Y438836D01*
X1156405Y438901D01*
X1156266Y438956D01*
X1156146Y439030D01*
X1156035Y439095D01*
X1155942Y439160D01*
X1155850Y439234D01*
X1155776Y439289D01*
X1155721Y439345D01*
X1155674Y439400D01*
X1155637Y439437D01*
X1155619Y439456D01*
X1155610Y439465D01*
X1155489Y439632D01*
X1155388Y439826D01*
X1155295Y440029D01*
X1155212Y440242D01*
X1155147Y440464D01*
X1155092Y440686D01*
X1155046Y440917D01*
X1155009Y441129D01*
X1154981Y441342D01*
X1154962Y441536D01*
X1154944Y441712D01*
X1154935Y441860D01*
Y441989D01*
X1154925Y442081D01*
Y442118D01*
Y442146D01*
Y442155D01*
Y442165D01*
X1154935Y442461D01*
X1154953Y442738D01*
X1154981Y442997D01*
X1155027Y443237D01*
X1155073Y443450D01*
X1155120Y443644D01*
X1155175Y443820D01*
X1155240Y443977D01*
X1155295Y444106D01*
X1155351Y444226D01*
X1155397Y444319D01*
X1155452Y444402D01*
X1155489Y444467D01*
X1155517Y444504D01*
X1155536Y444532D01*
X1155545Y444541D01*
X1155665Y444670D01*
X1155795Y444781D01*
X1155924Y444874D01*
X1156053Y444957D01*
X1156192Y445031D01*
X1156321Y445086D01*
X1156451Y445133D01*
X1156580Y445170D01*
X1156691Y445197D01*
X1156802Y445225D01*
X1156895Y445243D01*
X1156978Y445253D01*
X1157052D01*
X1157098Y445262D01*
X1157144D01*
X1157357Y445253D01*
D02*
G37*
G36*
X1153363Y421511D02*
X1153233Y421326D01*
X1153113Y421159D01*
X1152993Y421021D01*
X1152891Y420891D01*
X1152799Y420799D01*
X1152725Y420725D01*
X1152679Y420678D01*
X1152660Y420660D01*
X1152586Y420605D01*
X1152503Y420540D01*
X1152337Y420438D01*
X1152263Y420401D01*
X1152207Y420364D01*
X1152170Y420346D01*
X1152152Y420336D01*
X1152318Y420309D01*
X1152475Y420281D01*
X1152614Y420235D01*
X1152753Y420198D01*
X1152873Y420151D01*
X1152984Y420096D01*
X1153086Y420050D01*
X1153178Y420004D01*
X1153252Y419948D01*
X1153326Y419902D01*
X1153381Y419865D01*
X1153428Y419828D01*
X1153465Y419800D01*
X1153492Y419772D01*
X1153502Y419763D01*
X1153511Y419754D01*
X1153585Y419661D01*
X1153659Y419569D01*
X1153770Y419375D01*
X1153844Y419181D01*
X1153899Y418996D01*
X1153936Y418839D01*
X1153945Y418774D01*
Y418709D01*
X1153955Y418663D01*
Y418626D01*
Y418607D01*
Y418598D01*
X1153945Y418404D01*
X1153918Y418228D01*
X1153871Y418062D01*
X1153825Y417923D01*
X1153770Y417803D01*
X1153733Y417711D01*
X1153696Y417655D01*
X1153687Y417646D01*
Y417637D01*
X1153576Y417489D01*
X1153465Y417359D01*
X1153344Y417248D01*
X1153233Y417165D01*
X1153132Y417100D01*
X1153049Y417063D01*
X1152993Y417036D01*
X1152984Y417026D01*
X1152975D01*
X1152891Y416999D01*
X1152790Y416971D01*
X1152586Y416925D01*
X1152364Y416897D01*
X1152161Y416869D01*
X1151967Y416860D01*
X1151884D01*
X1151810Y416851D01*
X1148842D01*
Y423249D01*
X1149692D01*
Y420410D01*
X1150783D01*
X1150885Y420420D01*
X1150959D01*
X1151024Y420429D01*
X1151070Y420438D01*
X1151107D01*
X1151125Y420447D01*
X1151135D01*
X1151283Y420494D01*
X1151347Y420521D01*
X1151403Y420549D01*
X1151458Y420577D01*
X1151495Y420595D01*
X1151514Y420605D01*
X1151523Y420614D01*
X1151597Y420669D01*
X1151671Y420734D01*
X1151810Y420873D01*
X1151874Y420937D01*
X1151921Y420993D01*
X1151948Y421030D01*
X1151958Y421039D01*
X1152050Y421168D01*
X1152152Y421307D01*
X1152253Y421455D01*
X1152355Y421594D01*
X1152438Y421723D01*
X1152503Y421825D01*
X1152531Y421862D01*
X1152549Y421890D01*
X1152568Y421908D01*
Y421917D01*
X1153409Y423249D01*
X1154463D01*
X1153363Y421511D01*
D02*
G37*
G36*
X1156747Y422897D02*
X1156793Y422574D01*
X1156839Y422278D01*
X1156867Y422139D01*
X1156895Y422010D01*
X1156913Y421899D01*
X1156941Y421797D01*
X1156960Y421705D01*
X1156978Y421631D01*
X1156996Y421575D01*
X1157006Y421529D01*
X1157015Y421501D01*
Y421492D01*
X1157154Y421067D01*
X1157301Y420669D01*
X1157375Y420475D01*
X1157449Y420290D01*
X1157533Y420124D01*
X1157607Y419957D01*
X1157671Y419809D01*
X1157736Y419680D01*
X1157792Y419569D01*
X1157838Y419467D01*
X1157884Y419384D01*
X1157912Y419329D01*
X1157930Y419292D01*
X1157940Y419282D01*
X1158050Y419088D01*
X1158161Y418894D01*
X1158272Y418718D01*
X1158383Y418552D01*
X1158485Y418404D01*
X1158587Y418256D01*
X1158688Y418127D01*
X1158772Y418016D01*
X1158855Y417905D01*
X1158929Y417812D01*
X1159003Y417738D01*
X1159058Y417674D01*
X1159095Y417618D01*
X1159132Y417581D01*
X1159151Y417563D01*
X1159160Y417553D01*
Y416934D01*
X1155018D01*
Y417692D01*
X1158152D01*
X1157930Y417960D01*
X1157718Y418247D01*
X1157533Y418524D01*
X1157357Y418792D01*
X1157283Y418913D01*
X1157218Y419024D01*
X1157154Y419125D01*
X1157107Y419208D01*
X1157070Y419282D01*
X1157043Y419329D01*
X1157024Y419366D01*
X1157015Y419375D01*
X1156830Y419745D01*
X1156664Y420115D01*
X1156525Y420466D01*
X1156469Y420623D01*
X1156414Y420780D01*
X1156358Y420919D01*
X1156321Y421048D01*
X1156284Y421159D01*
X1156257Y421252D01*
X1156229Y421335D01*
X1156211Y421390D01*
X1156201Y421427D01*
Y421437D01*
X1156109Y421816D01*
X1156072Y422001D01*
X1156044Y422167D01*
X1156016Y422324D01*
X1155989Y422481D01*
X1155970Y422611D01*
X1155952Y422740D01*
X1155942Y422851D01*
X1155933Y422953D01*
X1155924Y423045D01*
Y423119D01*
X1155915Y423175D01*
Y423212D01*
Y423240D01*
Y423249D01*
X1156719D01*
X1156747Y422897D01*
D02*
G37*
G36*
X1153363Y399471D02*
X1153233Y399286D01*
X1153113Y399120D01*
X1152993Y398981D01*
X1152891Y398852D01*
X1152799Y398759D01*
X1152725Y398685D01*
X1152679Y398639D01*
X1152660Y398620D01*
X1152586Y398565D01*
X1152503Y398500D01*
X1152337Y398399D01*
X1152263Y398362D01*
X1152207Y398325D01*
X1152170Y398306D01*
X1152152Y398297D01*
X1152318Y398269D01*
X1152475Y398241D01*
X1152614Y398195D01*
X1152753Y398158D01*
X1152873Y398112D01*
X1152984Y398056D01*
X1153086Y398010D01*
X1153178Y397964D01*
X1153252Y397908D01*
X1153326Y397862D01*
X1153381Y397825D01*
X1153428Y397788D01*
X1153465Y397761D01*
X1153492Y397733D01*
X1153502Y397724D01*
X1153511Y397714D01*
X1153585Y397622D01*
X1153659Y397529D01*
X1153770Y397335D01*
X1153844Y397141D01*
X1153899Y396956D01*
X1153936Y396799D01*
X1153945Y396734D01*
Y396670D01*
X1153955Y396623D01*
Y396586D01*
Y396568D01*
Y396559D01*
X1153945Y396364D01*
X1153918Y396189D01*
X1153871Y396022D01*
X1153825Y395884D01*
X1153770Y395764D01*
X1153733Y395671D01*
X1153696Y395616D01*
X1153687Y395606D01*
Y395597D01*
X1153576Y395449D01*
X1153465Y395320D01*
X1153344Y395209D01*
X1153233Y395126D01*
X1153132Y395061D01*
X1153049Y395024D01*
X1152993Y394996D01*
X1152984Y394987D01*
X1152975D01*
X1152891Y394959D01*
X1152790Y394931D01*
X1152586Y394885D01*
X1152364Y394857D01*
X1152161Y394830D01*
X1151967Y394820D01*
X1151884D01*
X1151810Y394811D01*
X1148842D01*
Y401209D01*
X1149692D01*
Y398371D01*
X1150783D01*
X1150885Y398380D01*
X1150959D01*
X1151024Y398389D01*
X1151070Y398399D01*
X1151107D01*
X1151125Y398408D01*
X1151135D01*
X1151283Y398454D01*
X1151347Y398482D01*
X1151403Y398509D01*
X1151458Y398537D01*
X1151495Y398556D01*
X1151514Y398565D01*
X1151523Y398574D01*
X1151597Y398630D01*
X1151671Y398694D01*
X1151810Y398833D01*
X1151874Y398898D01*
X1151921Y398953D01*
X1151948Y398990D01*
X1151958Y398999D01*
X1152050Y399129D01*
X1152152Y399268D01*
X1152253Y399416D01*
X1152355Y399554D01*
X1152438Y399684D01*
X1152503Y399785D01*
X1152531Y399822D01*
X1152549Y399850D01*
X1152568Y399869D01*
Y399878D01*
X1153409Y401209D01*
X1154463D01*
X1153363Y399471D01*
D02*
G37*
G36*
X1157237Y401311D02*
X1157394Y401292D01*
X1157551Y401265D01*
X1157699Y401237D01*
X1157829Y401191D01*
X1157958Y401144D01*
X1158078Y401098D01*
X1158180Y401043D01*
X1158272Y400987D01*
X1158355Y400941D01*
X1158420Y400895D01*
X1158485Y400849D01*
X1158531Y400821D01*
X1158559Y400793D01*
X1158577Y400775D01*
X1158587Y400765D01*
X1158688Y400654D01*
X1158781Y400543D01*
X1158855Y400433D01*
X1158920Y400312D01*
X1158984Y400201D01*
X1159031Y400081D01*
X1159095Y399869D01*
X1159123Y399767D01*
X1159141Y399674D01*
X1159151Y399591D01*
X1159160Y399526D01*
X1159169Y399471D01*
Y399425D01*
Y399397D01*
Y399388D01*
X1159160Y399175D01*
X1159123Y398981D01*
X1159068Y398805D01*
X1159012Y398657D01*
X1158957Y398537D01*
X1158901Y398445D01*
X1158864Y398389D01*
X1158855Y398380D01*
Y398371D01*
X1158725Y398223D01*
X1158587Y398093D01*
X1158439Y397992D01*
X1158300Y397899D01*
X1158171Y397835D01*
X1158060Y397788D01*
X1158023Y397770D01*
X1157995Y397761D01*
X1157977Y397751D01*
X1157967D01*
X1158134Y397677D01*
X1158272Y397594D01*
X1158392Y397511D01*
X1158494Y397428D01*
X1158568Y397354D01*
X1158624Y397298D01*
X1158661Y397261D01*
X1158670Y397243D01*
X1158753Y397113D01*
X1158809Y396984D01*
X1158855Y396855D01*
X1158883Y396725D01*
X1158901Y396623D01*
X1158910Y396540D01*
Y396485D01*
Y396475D01*
Y396466D01*
X1158901Y396337D01*
X1158892Y396217D01*
X1158827Y395985D01*
X1158744Y395782D01*
X1158651Y395606D01*
X1158559Y395468D01*
X1158513Y395412D01*
X1158476Y395357D01*
X1158439Y395320D01*
X1158411Y395292D01*
X1158402Y395283D01*
X1158392Y395274D01*
X1158291Y395190D01*
X1158189Y395107D01*
X1158078Y395042D01*
X1157967Y394987D01*
X1157745Y394904D01*
X1157523Y394848D01*
X1157431Y394820D01*
X1157338Y394811D01*
X1157255Y394802D01*
X1157181Y394793D01*
X1157126Y394783D01*
X1157043D01*
X1156895Y394793D01*
X1156747Y394802D01*
X1156488Y394857D01*
X1156368Y394894D01*
X1156257Y394931D01*
X1156155Y394978D01*
X1156063Y395024D01*
X1155989Y395070D01*
X1155915Y395116D01*
X1155850Y395153D01*
X1155804Y395190D01*
X1155767Y395218D01*
X1155739Y395246D01*
X1155721Y395255D01*
X1155711Y395264D01*
X1155628Y395357D01*
X1155545Y395449D01*
X1155480Y395551D01*
X1155425Y395653D01*
X1155332Y395847D01*
X1155277Y396032D01*
X1155240Y396189D01*
X1155230Y396263D01*
X1155221Y396318D01*
X1155212Y396374D01*
Y396411D01*
Y396429D01*
Y396438D01*
X1155221Y396605D01*
X1155249Y396762D01*
X1155286Y396901D01*
X1155332Y397021D01*
X1155369Y397113D01*
X1155406Y397187D01*
X1155434Y397224D01*
X1155443Y397243D01*
X1155545Y397354D01*
X1155656Y397455D01*
X1155776Y397548D01*
X1155896Y397622D01*
X1156007Y397677D01*
X1156090Y397714D01*
X1156127Y397733D01*
X1156155Y397742D01*
X1156164Y397751D01*
X1156174D01*
X1155961Y397816D01*
X1155785Y397899D01*
X1155628Y398001D01*
X1155499Y398093D01*
X1155397Y398186D01*
X1155323Y398260D01*
X1155286Y398306D01*
X1155267Y398315D01*
Y398325D01*
X1155166Y398491D01*
X1155083Y398667D01*
X1155027Y398833D01*
X1154990Y398999D01*
X1154972Y399147D01*
X1154962Y399212D01*
Y399268D01*
X1154953Y399305D01*
Y399342D01*
Y399360D01*
Y399369D01*
X1154962Y399517D01*
X1154981Y399665D01*
X1155009Y399804D01*
X1155046Y399943D01*
X1155138Y400174D01*
X1155184Y400285D01*
X1155240Y400377D01*
X1155295Y400470D01*
X1155341Y400543D01*
X1155397Y400608D01*
X1155434Y400664D01*
X1155471Y400710D01*
X1155499Y400738D01*
X1155517Y400756D01*
X1155526Y400765D01*
X1155637Y400867D01*
X1155758Y400950D01*
X1155887Y401024D01*
X1156016Y401089D01*
X1156137Y401135D01*
X1156266Y401181D01*
X1156516Y401246D01*
X1156627Y401274D01*
X1156728Y401292D01*
X1156821Y401302D01*
X1156904Y401311D01*
X1156969Y401320D01*
X1157061D01*
X1157237Y401311D01*
D02*
G37*
G36*
X1128471Y377119D02*
X1128342Y376934D01*
X1128221Y376768D01*
X1128101Y376629D01*
X1127999Y376499D01*
X1127907Y376407D01*
X1127833Y376333D01*
X1127787Y376287D01*
X1127768Y376268D01*
X1127694Y376213D01*
X1127611Y376148D01*
X1127445Y376046D01*
X1127371Y376009D01*
X1127315Y375973D01*
X1127278Y375954D01*
X1127260Y375945D01*
X1127426Y375917D01*
X1127583Y375889D01*
X1127722Y375843D01*
X1127861Y375806D01*
X1127981Y375760D01*
X1128092Y375704D01*
X1128194Y375658D01*
X1128286Y375612D01*
X1128360Y375556D01*
X1128434Y375510D01*
X1128489Y375473D01*
X1128536Y375436D01*
X1128573Y375409D01*
X1128600Y375381D01*
X1128610Y375372D01*
X1128619Y375362D01*
X1128693Y375270D01*
X1128767Y375177D01*
X1128878Y374983D01*
X1128952Y374789D01*
X1129007Y374604D01*
X1129044Y374447D01*
X1129053Y374382D01*
Y374318D01*
X1129063Y374271D01*
Y374234D01*
Y374216D01*
Y374207D01*
X1129053Y374012D01*
X1129026Y373837D01*
X1128979Y373670D01*
X1128933Y373532D01*
X1128878Y373411D01*
X1128841Y373319D01*
X1128804Y373264D01*
X1128794Y373254D01*
Y373245D01*
X1128684Y373097D01*
X1128573Y372968D01*
X1128452Y372857D01*
X1128342Y372774D01*
X1128240Y372709D01*
X1128157Y372672D01*
X1128101Y372644D01*
X1128092Y372635D01*
X1128083D01*
X1127999Y372607D01*
X1127898Y372579D01*
X1127694Y372533D01*
X1127472Y372505D01*
X1127269Y372478D01*
X1127075Y372468D01*
X1126992D01*
X1126918Y372459D01*
X1123950D01*
Y378857D01*
X1124800D01*
Y376019D01*
X1125891D01*
X1125993Y376028D01*
X1126067D01*
X1126132Y376037D01*
X1126178Y376046D01*
X1126215D01*
X1126234Y376056D01*
X1126243D01*
X1126391Y376102D01*
X1126455Y376130D01*
X1126511Y376157D01*
X1126566Y376185D01*
X1126603Y376204D01*
X1126622Y376213D01*
X1126631Y376222D01*
X1126705Y376278D01*
X1126779Y376342D01*
X1126918Y376481D01*
X1126982Y376546D01*
X1127029Y376601D01*
X1127056Y376638D01*
X1127066Y376647D01*
X1127158Y376777D01*
X1127260Y376916D01*
X1127361Y377063D01*
X1127463Y377202D01*
X1127546Y377332D01*
X1127611Y377433D01*
X1127639Y377470D01*
X1127657Y377498D01*
X1127676Y377517D01*
Y377526D01*
X1128517Y378857D01*
X1129571D01*
X1128471Y377119D01*
D02*
G37*
G36*
X1132243Y378950D02*
X1132474Y378913D01*
X1132687Y378848D01*
X1132863Y378774D01*
X1132936Y378746D01*
X1133010Y378709D01*
X1133066Y378672D01*
X1133121Y378644D01*
X1133158Y378626D01*
X1133186Y378607D01*
X1133205Y378589D01*
X1133214D01*
X1133399Y378432D01*
X1133565Y378256D01*
X1133695Y378071D01*
X1133806Y377896D01*
X1133898Y377738D01*
X1133935Y377664D01*
X1133963Y377609D01*
X1133981Y377553D01*
X1134000Y377517D01*
X1134009Y377498D01*
Y377489D01*
X1134055Y377350D01*
X1134101Y377193D01*
X1134166Y376879D01*
X1134212Y376546D01*
X1134240Y376231D01*
X1134259Y376093D01*
X1134268Y375954D01*
Y375834D01*
X1134277Y375732D01*
Y375649D01*
Y375584D01*
Y375538D01*
Y375529D01*
Y375316D01*
X1134268Y375113D01*
X1134249Y374928D01*
X1134231Y374752D01*
X1134212Y374595D01*
X1134194Y374447D01*
X1134166Y374308D01*
X1134138Y374188D01*
X1134111Y374086D01*
X1134092Y373994D01*
X1134064Y373911D01*
X1134046Y373846D01*
X1134027Y373800D01*
X1134009Y373763D01*
X1134000Y373744D01*
Y373735D01*
X1133889Y373513D01*
X1133769Y373319D01*
X1133630Y373153D01*
X1133510Y373014D01*
X1133390Y372912D01*
X1133297Y372838D01*
X1133260Y372811D01*
X1133232Y372792D01*
X1133223Y372774D01*
X1133214D01*
X1133020Y372663D01*
X1132826Y372579D01*
X1132631Y372515D01*
X1132456Y372478D01*
X1132299Y372450D01*
X1132234Y372441D01*
X1132188D01*
X1132141Y372431D01*
X1132077D01*
X1131919Y372441D01*
X1131772Y372459D01*
X1131624Y372487D01*
X1131494Y372524D01*
X1131245Y372626D01*
X1131134Y372672D01*
X1131041Y372727D01*
X1130949Y372792D01*
X1130875Y372838D01*
X1130801Y372894D01*
X1130745Y372940D01*
X1130699Y372977D01*
X1130671Y373005D01*
X1130653Y373023D01*
X1130644Y373032D01*
X1130542Y373143D01*
X1130459Y373273D01*
X1130376Y373393D01*
X1130311Y373522D01*
X1130255Y373661D01*
X1130209Y373791D01*
X1130144Y374031D01*
X1130117Y374151D01*
X1130098Y374253D01*
X1130089Y374355D01*
X1130080Y374438D01*
X1130070Y374502D01*
Y374549D01*
Y374586D01*
Y374595D01*
X1130080Y374771D01*
X1130098Y374928D01*
X1130117Y375085D01*
X1130154Y375233D01*
X1130200Y375362D01*
X1130246Y375492D01*
X1130292Y375603D01*
X1130348Y375704D01*
X1130394Y375797D01*
X1130440Y375880D01*
X1130487Y375945D01*
X1130533Y376009D01*
X1130570Y376056D01*
X1130588Y376083D01*
X1130607Y376102D01*
X1130616Y376111D01*
X1130718Y376213D01*
X1130828Y376296D01*
X1130939Y376379D01*
X1131060Y376444D01*
X1131171Y376499D01*
X1131282Y376546D01*
X1131494Y376610D01*
X1131587Y376638D01*
X1131679Y376657D01*
X1131753Y376666D01*
X1131827Y376675D01*
X1131882Y376684D01*
X1131956D01*
X1132132Y376675D01*
X1132299Y376647D01*
X1132447Y376610D01*
X1132585Y376564D01*
X1132687Y376527D01*
X1132770Y376490D01*
X1132826Y376463D01*
X1132844Y376453D01*
X1132992Y376361D01*
X1133121Y376259D01*
X1133232Y376157D01*
X1133325Y376065D01*
X1133390Y375973D01*
X1133445Y375908D01*
X1133482Y375862D01*
X1133491Y375843D01*
Y375917D01*
Y375963D01*
Y375991D01*
Y376000D01*
X1133482Y376185D01*
X1133473Y376361D01*
X1133454Y376518D01*
X1133436Y376666D01*
X1133408Y376786D01*
X1133390Y376879D01*
X1133380Y376916D01*
Y376943D01*
X1133371Y376953D01*
Y376962D01*
X1133325Y377128D01*
X1133279Y377276D01*
X1133232Y377406D01*
X1133186Y377517D01*
X1133149Y377600D01*
X1133112Y377664D01*
X1133094Y377711D01*
X1133084Y377720D01*
X1133010Y377822D01*
X1132936Y377905D01*
X1132863Y377979D01*
X1132789Y378044D01*
X1132733Y378099D01*
X1132678Y378136D01*
X1132641Y378154D01*
X1132631Y378164D01*
X1132530Y378219D01*
X1132419Y378256D01*
X1132317Y378284D01*
X1132215Y378302D01*
X1132132Y378312D01*
X1132067Y378321D01*
X1132003D01*
X1131855Y378312D01*
X1131716Y378284D01*
X1131596Y378247D01*
X1131494Y378201D01*
X1131420Y378164D01*
X1131356Y378127D01*
X1131319Y378099D01*
X1131309Y378090D01*
X1131217Y377988D01*
X1131143Y377868D01*
X1131078Y377738D01*
X1131032Y377609D01*
X1130995Y377498D01*
X1130967Y377396D01*
X1130958Y377359D01*
Y377341D01*
X1130949Y377322D01*
Y377313D01*
X1130191Y377378D01*
X1130246Y377646D01*
X1130320Y377877D01*
X1130413Y378080D01*
X1130505Y378247D01*
X1130597Y378376D01*
X1130644Y378432D01*
X1130681Y378478D01*
X1130708Y378506D01*
X1130736Y378534D01*
X1130745Y378543D01*
X1130755Y378552D01*
X1130847Y378626D01*
X1130949Y378691D01*
X1131152Y378792D01*
X1131356Y378866D01*
X1131550Y378913D01*
X1131725Y378950D01*
X1131799Y378959D01*
X1131864D01*
X1131910Y378968D01*
X1131984D01*
X1132243Y378950D01*
D02*
G37*
G36*
X847994Y258159D02*
X848169Y258141D01*
X848336Y258122D01*
X848493Y258085D01*
X848641Y258039D01*
X848780Y257993D01*
X848909Y257947D01*
X849029Y257891D01*
X849131Y257845D01*
X849233Y257799D01*
X849307Y257752D01*
X849381Y257706D01*
X849427Y257669D01*
X849473Y257651D01*
X849492Y257632D01*
X849501Y257623D01*
X849630Y257512D01*
X849741Y257401D01*
X849843Y257272D01*
X849945Y257142D01*
X850111Y256883D01*
X850240Y256624D01*
X850296Y256504D01*
X850342Y256393D01*
X850379Y256292D01*
X850407Y256208D01*
X850435Y256134D01*
X850453Y256079D01*
X850462Y256042D01*
Y256033D01*
X849612Y255820D01*
X849575Y255968D01*
X849529Y256107D01*
X849482Y256236D01*
X849436Y256356D01*
X849381Y256467D01*
X849325Y256560D01*
X849260Y256652D01*
X849205Y256735D01*
X849159Y256809D01*
X849103Y256865D01*
X849057Y256920D01*
X849020Y256966D01*
X848983Y256994D01*
X848955Y257022D01*
X848946Y257031D01*
X848937Y257041D01*
X848844Y257114D01*
X848743Y257170D01*
X848539Y257272D01*
X848345Y257346D01*
X848151Y257392D01*
X847984Y257429D01*
X847920Y257438D01*
X847855D01*
X847800Y257447D01*
X847735D01*
X847522Y257438D01*
X847319Y257401D01*
X847134Y257355D01*
X846967Y257299D01*
X846838Y257244D01*
X846783Y257216D01*
X846736Y257198D01*
X846699Y257179D01*
X846672Y257161D01*
X846653Y257151D01*
X846644D01*
X846468Y257022D01*
X846320Y256883D01*
X846191Y256726D01*
X846089Y256578D01*
X846006Y256449D01*
X845950Y256338D01*
X845932Y256292D01*
X845913Y256264D01*
X845904Y256245D01*
Y256236D01*
X845830Y255996D01*
X845775Y255755D01*
X845729Y255515D01*
X845701Y255293D01*
X845692Y255191D01*
X845682Y255099D01*
Y255016D01*
X845673Y254951D01*
Y254895D01*
Y254849D01*
Y254821D01*
Y254812D01*
X845682Y254572D01*
X845701Y254350D01*
X845738Y254147D01*
X845775Y253962D01*
X845803Y253804D01*
X845821Y253740D01*
X845839Y253684D01*
X845849Y253638D01*
X845858Y253610D01*
X845867Y253592D01*
Y253583D01*
X845960Y253370D01*
X846061Y253176D01*
X846172Y253019D01*
X846292Y252880D01*
X846394Y252769D01*
X846478Y252695D01*
X846542Y252649D01*
X846551Y252630D01*
X846561D01*
X846755Y252510D01*
X846967Y252418D01*
X847171Y252353D01*
X847365Y252316D01*
X847541Y252288D01*
X847615Y252279D01*
X847679D01*
X847726Y252270D01*
X847800D01*
X848031Y252279D01*
X848243Y252316D01*
X848419Y252372D01*
X848576Y252427D01*
X848696Y252492D01*
X848789Y252538D01*
X848844Y252575D01*
X848863Y252593D01*
X849011Y252732D01*
X849149Y252889D01*
X849260Y253056D01*
X849353Y253222D01*
X849427Y253370D01*
X849454Y253444D01*
X849473Y253499D01*
X849492Y253546D01*
X849510Y253583D01*
X849519Y253601D01*
Y253610D01*
X850351Y253416D01*
X850296Y253250D01*
X850240Y253102D01*
X850166Y252963D01*
X850102Y252824D01*
X850028Y252704D01*
X849945Y252593D01*
X849871Y252482D01*
X849797Y252390D01*
X849723Y252316D01*
X849658Y252242D01*
X849593Y252177D01*
X849547Y252131D01*
X849501Y252085D01*
X849464Y252057D01*
X849445Y252048D01*
X849436Y252039D01*
X849307Y251955D01*
X849177Y251872D01*
X849048Y251807D01*
X848909Y251752D01*
X848632Y251669D01*
X848382Y251613D01*
X848262Y251586D01*
X848160Y251576D01*
X848058Y251567D01*
X847975Y251558D01*
X847911Y251549D01*
X847818D01*
X847513Y251567D01*
X847217Y251613D01*
X846958Y251669D01*
X846838Y251706D01*
X846727Y251743D01*
X846625Y251780D01*
X846533Y251817D01*
X846459Y251845D01*
X846385Y251872D01*
X846339Y251900D01*
X846302Y251918D01*
X846274Y251928D01*
X846265Y251937D01*
X846015Y252094D01*
X845803Y252279D01*
X845618Y252464D01*
X845460Y252649D01*
X845340Y252815D01*
X845294Y252889D01*
X845257Y252954D01*
X845220Y253000D01*
X845202Y253037D01*
X845192Y253065D01*
X845183Y253074D01*
X845054Y253361D01*
X844961Y253657D01*
X844896Y253953D01*
X844850Y254221D01*
X844832Y254341D01*
X844822Y254461D01*
X844813Y254553D01*
Y254646D01*
X844804Y254711D01*
Y254766D01*
Y254803D01*
Y254812D01*
X844822Y255145D01*
X844859Y255469D01*
X844906Y255755D01*
X844943Y255894D01*
X844970Y256014D01*
X844998Y256125D01*
X845035Y256227D01*
X845063Y256319D01*
X845081Y256393D01*
X845109Y256449D01*
X845118Y256495D01*
X845137Y256523D01*
Y256532D01*
X845275Y256809D01*
X845433Y257059D01*
X845599Y257272D01*
X845682Y257355D01*
X845756Y257438D01*
X845830Y257512D01*
X845904Y257577D01*
X845969Y257632D01*
X846024Y257669D01*
X846061Y257706D01*
X846098Y257734D01*
X846117Y257743D01*
X846126Y257752D01*
X846256Y257826D01*
X846385Y257891D01*
X846662Y257993D01*
X846940Y258067D01*
X847208Y258113D01*
X847337Y258132D01*
X847448Y258150D01*
X847550Y258159D01*
X847633D01*
X847707Y258168D01*
X847809D01*
X847994Y258159D01*
D02*
G37*
G36*
X853356Y258150D02*
X853587Y258113D01*
X853800Y258048D01*
X853976Y257974D01*
X854050Y257947D01*
X854124Y257910D01*
X854179Y257873D01*
X854234Y257845D01*
X854271Y257826D01*
X854299Y257808D01*
X854318Y257789D01*
X854327D01*
X854512Y257632D01*
X854678Y257456D01*
X854808Y257272D01*
X854919Y257096D01*
X855011Y256939D01*
X855048Y256865D01*
X855076Y256809D01*
X855094Y256754D01*
X855113Y256717D01*
X855122Y256698D01*
Y256689D01*
X855168Y256551D01*
X855214Y256393D01*
X855279Y256079D01*
X855325Y255746D01*
X855353Y255432D01*
X855372Y255293D01*
X855381Y255154D01*
Y255034D01*
X855390Y254932D01*
Y254849D01*
Y254785D01*
Y254738D01*
Y254729D01*
Y254516D01*
X855381Y254313D01*
X855362Y254128D01*
X855344Y253953D01*
X855325Y253795D01*
X855307Y253647D01*
X855279Y253509D01*
X855251Y253389D01*
X855224Y253287D01*
X855205Y253194D01*
X855178Y253111D01*
X855159Y253046D01*
X855141Y253000D01*
X855122Y252963D01*
X855113Y252945D01*
Y252935D01*
X855002Y252714D01*
X854882Y252519D01*
X854743Y252353D01*
X854623Y252214D01*
X854503Y252113D01*
X854410Y252039D01*
X854373Y252011D01*
X854345Y251992D01*
X854336Y251974D01*
X854327D01*
X854133Y251863D01*
X853939Y251780D01*
X853745Y251715D01*
X853569Y251678D01*
X853412Y251650D01*
X853347Y251641D01*
X853301D01*
X853254Y251632D01*
X853190D01*
X853033Y251641D01*
X852885Y251660D01*
X852737Y251687D01*
X852607Y251724D01*
X852358Y251826D01*
X852247Y251872D01*
X852154Y251928D01*
X852062Y251992D01*
X851988Y252039D01*
X851914Y252094D01*
X851858Y252140D01*
X851812Y252177D01*
X851784Y252205D01*
X851766Y252223D01*
X851757Y252233D01*
X851655Y252344D01*
X851572Y252473D01*
X851489Y252593D01*
X851424Y252723D01*
X851368Y252861D01*
X851322Y252991D01*
X851257Y253231D01*
X851230Y253351D01*
X851211Y253453D01*
X851202Y253555D01*
X851193Y253638D01*
X851183Y253703D01*
Y253749D01*
Y253786D01*
Y253795D01*
X851193Y253971D01*
X851211Y254128D01*
X851230Y254285D01*
X851267Y254433D01*
X851313Y254563D01*
X851359Y254692D01*
X851405Y254803D01*
X851461Y254905D01*
X851507Y254997D01*
X851553Y255080D01*
X851600Y255145D01*
X851646Y255210D01*
X851683Y255256D01*
X851701Y255284D01*
X851720Y255302D01*
X851729Y255312D01*
X851831Y255413D01*
X851942Y255497D01*
X852053Y255580D01*
X852173Y255644D01*
X852284Y255700D01*
X852395Y255746D01*
X852607Y255811D01*
X852700Y255839D01*
X852792Y255857D01*
X852866Y255866D01*
X852940Y255875D01*
X852996Y255885D01*
X853070D01*
X853245Y255875D01*
X853412Y255848D01*
X853560Y255811D01*
X853698Y255765D01*
X853800Y255728D01*
X853883Y255691D01*
X853939Y255663D01*
X853957Y255654D01*
X854105Y255561D01*
X854234Y255459D01*
X854345Y255358D01*
X854438Y255265D01*
X854503Y255173D01*
X854558Y255108D01*
X854595Y255062D01*
X854604Y255043D01*
Y255117D01*
Y255164D01*
Y255191D01*
Y255201D01*
X854595Y255385D01*
X854586Y255561D01*
X854567Y255718D01*
X854549Y255866D01*
X854521Y255986D01*
X854503Y256079D01*
X854493Y256116D01*
Y256144D01*
X854484Y256153D01*
Y256162D01*
X854438Y256329D01*
X854392Y256476D01*
X854345Y256606D01*
X854299Y256717D01*
X854262Y256800D01*
X854225Y256865D01*
X854207Y256911D01*
X854197Y256920D01*
X854124Y257022D01*
X854050Y257105D01*
X853976Y257179D01*
X853902Y257244D01*
X853846Y257299D01*
X853791Y257336D01*
X853754Y257355D01*
X853745Y257364D01*
X853643Y257420D01*
X853532Y257456D01*
X853430Y257484D01*
X853328Y257503D01*
X853245Y257512D01*
X853180Y257521D01*
X853116D01*
X852968Y257512D01*
X852829Y257484D01*
X852709Y257447D01*
X852607Y257401D01*
X852533Y257364D01*
X852469Y257327D01*
X852432Y257299D01*
X852422Y257290D01*
X852330Y257188D01*
X852256Y257068D01*
X852191Y256939D01*
X852145Y256809D01*
X852108Y256698D01*
X852080Y256597D01*
X852071Y256560D01*
Y256541D01*
X852062Y256523D01*
Y256514D01*
X851304Y256578D01*
X851359Y256846D01*
X851433Y257078D01*
X851526Y257281D01*
X851618Y257447D01*
X851711Y257577D01*
X851757Y257632D01*
X851794Y257678D01*
X851821Y257706D01*
X851849Y257734D01*
X851858Y257743D01*
X851868Y257752D01*
X851960Y257826D01*
X852062Y257891D01*
X852265Y257993D01*
X852469Y258067D01*
X852663Y258113D01*
X852838Y258150D01*
X852912Y258159D01*
X852977D01*
X853023Y258168D01*
X853097D01*
X853356Y258150D01*
D02*
G37*
G36*
X1038759Y116003D02*
X1038861Y115855D01*
X1038981Y115707D01*
X1039092Y115578D01*
X1039203Y115467D01*
X1039286Y115374D01*
X1039323Y115347D01*
X1039351Y115319D01*
X1039360Y115310D01*
X1039369Y115300D01*
X1039563Y115143D01*
X1039757Y114995D01*
X1039942Y114866D01*
X1040127Y114764D01*
X1040284Y114672D01*
X1040349Y114635D01*
X1040405Y114607D01*
X1040451Y114579D01*
X1040488Y114570D01*
X1040506Y114551D01*
X1040516D01*
Y113793D01*
X1040377Y113849D01*
X1040238Y113913D01*
X1040099Y113978D01*
X1039970Y114043D01*
X1039859Y114098D01*
X1039767Y114145D01*
X1039711Y114182D01*
X1039702Y114191D01*
X1039693D01*
X1039526Y114293D01*
X1039378Y114394D01*
X1039249Y114487D01*
X1039147Y114570D01*
X1039055Y114635D01*
X1038999Y114690D01*
X1038953Y114727D01*
X1038944Y114736D01*
Y109734D01*
X1038158D01*
Y116160D01*
X1038667D01*
X1038759Y116003D01*
D02*
G37*
G36*
X1044787Y116225D02*
X1045083Y116179D01*
X1045342Y116123D01*
X1045462Y116086D01*
X1045573Y116049D01*
X1045675Y116012D01*
X1045767Y115975D01*
X1045841Y115948D01*
X1045915Y115920D01*
X1045961Y115892D01*
X1045998Y115874D01*
X1046026Y115864D01*
X1046035Y115855D01*
X1046285Y115698D01*
X1046497Y115513D01*
X1046682Y115328D01*
X1046840Y115143D01*
X1046960Y114977D01*
X1047006Y114903D01*
X1047043Y114838D01*
X1047080Y114792D01*
X1047098Y114755D01*
X1047108Y114727D01*
X1047117Y114718D01*
X1047246Y114431D01*
X1047339Y114135D01*
X1047403Y113840D01*
X1047450Y113571D01*
X1047468Y113451D01*
X1047477Y113331D01*
X1047487Y113239D01*
Y113146D01*
X1047496Y113081D01*
Y113026D01*
Y112989D01*
Y112980D01*
X1047477Y112647D01*
X1047440Y112323D01*
X1047394Y112037D01*
X1047357Y111898D01*
X1047330Y111778D01*
X1047302Y111667D01*
X1047265Y111565D01*
X1047237Y111473D01*
X1047219Y111399D01*
X1047191Y111343D01*
X1047182Y111297D01*
X1047163Y111269D01*
Y111260D01*
X1047025Y110983D01*
X1046867Y110733D01*
X1046701Y110520D01*
X1046618Y110437D01*
X1046544Y110354D01*
X1046470Y110280D01*
X1046396Y110215D01*
X1046331Y110160D01*
X1046276Y110123D01*
X1046239Y110086D01*
X1046202Y110058D01*
X1046183Y110049D01*
X1046174Y110040D01*
X1046044Y109966D01*
X1045915Y109901D01*
X1045638Y109799D01*
X1045360Y109725D01*
X1045092Y109679D01*
X1044963Y109661D01*
X1044852Y109642D01*
X1044750Y109633D01*
X1044667D01*
X1044593Y109624D01*
X1044491D01*
X1044306Y109633D01*
X1044131Y109651D01*
X1043964Y109670D01*
X1043807Y109707D01*
X1043659Y109753D01*
X1043520Y109799D01*
X1043391Y109845D01*
X1043271Y109901D01*
X1043169Y109947D01*
X1043067Y109993D01*
X1042993Y110040D01*
X1042919Y110086D01*
X1042873Y110123D01*
X1042827Y110141D01*
X1042809Y110160D01*
X1042799Y110169D01*
X1042670Y110280D01*
X1042559Y110391D01*
X1042457Y110520D01*
X1042355Y110650D01*
X1042189Y110909D01*
X1042060Y111168D01*
X1042004Y111288D01*
X1041958Y111399D01*
X1041921Y111500D01*
X1041893Y111584D01*
X1041865Y111658D01*
X1041847Y111713D01*
X1041838Y111750D01*
Y111759D01*
X1042688Y111972D01*
X1042725Y111824D01*
X1042772Y111685D01*
X1042818Y111556D01*
X1042864Y111436D01*
X1042919Y111325D01*
X1042975Y111232D01*
X1043040Y111140D01*
X1043095Y111057D01*
X1043141Y110983D01*
X1043197Y110927D01*
X1043243Y110872D01*
X1043280Y110826D01*
X1043317Y110798D01*
X1043345Y110770D01*
X1043354Y110761D01*
X1043363Y110751D01*
X1043456Y110678D01*
X1043557Y110622D01*
X1043761Y110520D01*
X1043955Y110446D01*
X1044149Y110400D01*
X1044315Y110363D01*
X1044380Y110354D01*
X1044445D01*
X1044500Y110345D01*
X1044565D01*
X1044778Y110354D01*
X1044981Y110391D01*
X1045166Y110437D01*
X1045332Y110493D01*
X1045462Y110548D01*
X1045517Y110576D01*
X1045564Y110594D01*
X1045601Y110613D01*
X1045628Y110631D01*
X1045647Y110641D01*
X1045656D01*
X1045832Y110770D01*
X1045980Y110909D01*
X1046109Y111066D01*
X1046211Y111214D01*
X1046294Y111343D01*
X1046349Y111454D01*
X1046368Y111500D01*
X1046386Y111528D01*
X1046396Y111547D01*
Y111556D01*
X1046470Y111796D01*
X1046525Y112037D01*
X1046571Y112277D01*
X1046599Y112499D01*
X1046608Y112601D01*
X1046618Y112693D01*
Y112776D01*
X1046627Y112841D01*
Y112896D01*
Y112943D01*
Y112971D01*
Y112980D01*
X1046618Y113220D01*
X1046599Y113442D01*
X1046562Y113645D01*
X1046525Y113830D01*
X1046497Y113988D01*
X1046479Y114052D01*
X1046460Y114108D01*
X1046451Y114154D01*
X1046442Y114182D01*
X1046433Y114200D01*
Y114209D01*
X1046340Y114422D01*
X1046239Y114616D01*
X1046128Y114773D01*
X1046008Y114912D01*
X1045906Y115023D01*
X1045823Y115097D01*
X1045758Y115143D01*
X1045749Y115162D01*
X1045739D01*
X1045545Y115282D01*
X1045332Y115374D01*
X1045129Y115439D01*
X1044935Y115476D01*
X1044759Y115504D01*
X1044685Y115513D01*
X1044621D01*
X1044574Y115522D01*
X1044500D01*
X1044269Y115513D01*
X1044057Y115476D01*
X1043881Y115421D01*
X1043724Y115365D01*
X1043604Y115300D01*
X1043511Y115254D01*
X1043456Y115217D01*
X1043437Y115199D01*
X1043289Y115060D01*
X1043151Y114903D01*
X1043040Y114736D01*
X1042947Y114570D01*
X1042873Y114422D01*
X1042846Y114348D01*
X1042827Y114293D01*
X1042809Y114246D01*
X1042790Y114209D01*
X1042781Y114191D01*
Y114182D01*
X1041949Y114376D01*
X1042004Y114542D01*
X1042060Y114690D01*
X1042134Y114829D01*
X1042198Y114967D01*
X1042272Y115088D01*
X1042355Y115199D01*
X1042429Y115310D01*
X1042503Y115402D01*
X1042577Y115476D01*
X1042642Y115550D01*
X1042707Y115615D01*
X1042753Y115661D01*
X1042799Y115707D01*
X1042836Y115735D01*
X1042855Y115744D01*
X1042864Y115753D01*
X1042993Y115837D01*
X1043123Y115920D01*
X1043252Y115984D01*
X1043391Y116040D01*
X1043668Y116123D01*
X1043918Y116179D01*
X1044038Y116206D01*
X1044140Y116216D01*
X1044241Y116225D01*
X1044325Y116234D01*
X1044389Y116243D01*
X1044482D01*
X1044787Y116225D01*
D02*
G37*
G36*
X1034303Y116142D02*
X1034534Y116105D01*
X1034728Y116040D01*
X1034894Y115975D01*
X1035033Y115901D01*
X1035088Y115874D01*
X1035135Y115837D01*
X1035172Y115818D01*
X1035199Y115800D01*
X1035209Y115781D01*
X1035218D01*
X1035384Y115633D01*
X1035523Y115457D01*
X1035643Y115282D01*
X1035736Y115115D01*
X1035810Y114958D01*
X1035846Y114894D01*
X1035865Y114829D01*
X1035883Y114783D01*
X1035902Y114746D01*
X1035911Y114727D01*
Y114718D01*
X1035948Y114579D01*
X1035985Y114440D01*
X1036041Y114135D01*
X1036087Y113830D01*
X1036115Y113544D01*
X1036124Y113405D01*
X1036133Y113285D01*
Y113174D01*
X1036142Y113072D01*
Y112998D01*
Y112934D01*
Y112896D01*
Y112887D01*
X1036133Y112564D01*
X1036115Y112259D01*
X1036087Y111981D01*
X1036041Y111722D01*
X1035994Y111482D01*
X1035939Y111269D01*
X1035883Y111075D01*
X1035828Y110909D01*
X1035773Y110761D01*
X1035708Y110631D01*
X1035662Y110520D01*
X1035615Y110437D01*
X1035569Y110363D01*
X1035541Y110317D01*
X1035523Y110289D01*
X1035514Y110280D01*
X1035412Y110169D01*
X1035301Y110067D01*
X1035181Y109975D01*
X1035061Y109901D01*
X1034940Y109836D01*
X1034820Y109781D01*
X1034700Y109744D01*
X1034589Y109707D01*
X1034478Y109679D01*
X1034377Y109661D01*
X1034284Y109642D01*
X1034210Y109633D01*
X1034145Y109624D01*
X1034053D01*
X1033803Y109642D01*
X1033572Y109679D01*
X1033378Y109744D01*
X1033212Y109809D01*
X1033073Y109873D01*
X1033027Y109910D01*
X1032980Y109938D01*
X1032943Y109956D01*
X1032916Y109975D01*
X1032906Y109993D01*
X1032897D01*
X1032731Y110151D01*
X1032592Y110317D01*
X1032472Y110502D01*
X1032379Y110668D01*
X1032306Y110826D01*
X1032269Y110890D01*
X1032250Y110955D01*
X1032232Y111001D01*
X1032213Y111038D01*
X1032204Y111057D01*
Y111066D01*
X1032158Y111205D01*
X1032121Y111343D01*
X1032065Y111639D01*
X1032019Y111944D01*
X1031991Y112240D01*
X1031982Y112369D01*
X1031973Y112490D01*
Y112601D01*
X1031963Y112702D01*
Y112776D01*
Y112841D01*
Y112878D01*
Y112887D01*
Y113063D01*
X1031973Y113229D01*
Y113377D01*
X1031982Y113525D01*
X1032000Y113655D01*
X1032010Y113784D01*
X1032019Y113895D01*
X1032037Y113997D01*
X1032047Y114089D01*
X1032065Y114172D01*
X1032074Y114237D01*
X1032084Y114293D01*
X1032093Y114339D01*
X1032102Y114367D01*
X1032111Y114385D01*
Y114394D01*
X1032167Y114598D01*
X1032232Y114783D01*
X1032306Y114940D01*
X1032361Y115078D01*
X1032426Y115199D01*
X1032463Y115282D01*
X1032500Y115328D01*
X1032509Y115347D01*
X1032611Y115485D01*
X1032712Y115605D01*
X1032823Y115707D01*
X1032925Y115800D01*
X1033017Y115864D01*
X1033091Y115911D01*
X1033138Y115938D01*
X1033147Y115948D01*
X1033156D01*
X1033304Y116021D01*
X1033461Y116068D01*
X1033609Y116105D01*
X1033748Y116132D01*
X1033868Y116151D01*
X1033970Y116160D01*
X1034053D01*
X1034303Y116142D01*
D02*
G37*
%LPC*%
G36*
X849337Y222237D02*
X847432D01*
Y220120D01*
X849448D01*
X849698Y220129D01*
X849910Y220166D01*
X850095Y220212D01*
X850234Y220268D01*
X850354Y220323D01*
X850428Y220370D01*
X850474Y220407D01*
X850493Y220416D01*
X850604Y220536D01*
X850687Y220656D01*
X850742Y220786D01*
X850789Y220897D01*
X850807Y221008D01*
X850816Y221091D01*
X850826Y221146D01*
Y221155D01*
Y221165D01*
X850816Y221276D01*
X850798Y221387D01*
X850770Y221479D01*
X850742Y221562D01*
X850705Y221636D01*
X850678Y221692D01*
X850659Y221729D01*
X850650Y221738D01*
X850585Y221831D01*
X850502Y221914D01*
X850419Y221978D01*
X850335Y222034D01*
X850262Y222071D01*
X850206Y222099D01*
X850169Y222117D01*
X850151Y222126D01*
X850021Y222163D01*
X849873Y222191D01*
X849725Y222209D01*
X849577Y222219D01*
X849448Y222228D01*
X849337Y222237D01*
D02*
G37*
G36*
X860191Y223550D02*
X858176D01*
X860191Y220684D01*
Y223550D01*
D02*
G37*
G36*
X848575Y168786D02*
X846670D01*
Y166669D01*
X848686D01*
X848936Y166678D01*
X849148Y166715D01*
X849333Y166761D01*
X849472Y166817D01*
X849592Y166873D01*
X849666Y166919D01*
X849712Y166956D01*
X849731Y166965D01*
X849842Y167085D01*
X849925Y167205D01*
X849980Y167335D01*
X850027Y167446D01*
X850045Y167557D01*
X850054Y167640D01*
X850064Y167695D01*
Y167705D01*
Y167714D01*
X850054Y167825D01*
X850036Y167936D01*
X850008Y168028D01*
X849980Y168111D01*
X849943Y168185D01*
X849916Y168241D01*
X849897Y168278D01*
X849888Y168287D01*
X849823Y168379D01*
X849740Y168463D01*
X849657Y168528D01*
X849574Y168583D01*
X849500Y168620D01*
X849444Y168648D01*
X849407Y168666D01*
X849389Y168675D01*
X849259Y168712D01*
X849111Y168740D01*
X848963Y168759D01*
X848815Y168768D01*
X848686Y168777D01*
X848575Y168786D01*
D02*
G37*
G36*
X859060Y171819D02*
X859004D01*
X858902Y171810D01*
X858810Y171800D01*
X858634Y171736D01*
X858477Y171653D01*
X858338Y171560D01*
X858237Y171468D01*
X858154Y171384D01*
X858107Y171320D01*
X858089Y171310D01*
Y171301D01*
X858024Y171190D01*
X857969Y171061D01*
X857913Y170913D01*
X857876Y170756D01*
X857839Y170589D01*
X857811Y170414D01*
X857765Y170053D01*
X857747Y169887D01*
X857737Y169729D01*
X857728Y169581D01*
Y169461D01*
X857719Y169350D01*
Y169267D01*
Y169221D01*
Y169202D01*
X857728Y168916D01*
X857737Y168657D01*
X857756Y168417D01*
X857784Y168195D01*
X857811Y168001D01*
X857848Y167825D01*
X857885Y167668D01*
X857922Y167529D01*
X857959Y167409D01*
X857987Y167307D01*
X858024Y167224D01*
X858052Y167150D01*
X858080Y167104D01*
X858098Y167067D01*
X858117Y167048D01*
Y167039D01*
X858181Y166956D01*
X858246Y166882D01*
X858320Y166826D01*
X858394Y166771D01*
X858542Y166688D01*
X858680Y166632D01*
X858801Y166604D01*
X858902Y166586D01*
X858939Y166577D01*
X858995D01*
X859097Y166586D01*
X859198Y166595D01*
X859291Y166623D01*
X859374Y166660D01*
X859531Y166743D01*
X859670Y166835D01*
X859771Y166937D01*
X859855Y167020D01*
X859882Y167057D01*
X859901Y167085D01*
X859919Y167094D01*
Y167104D01*
X859984Y167215D01*
X860040Y167344D01*
X860095Y167492D01*
X860132Y167649D01*
X860169Y167815D01*
X860197Y167991D01*
X860243Y168342D01*
X860261Y168518D01*
X860271Y168675D01*
X860280Y168823D01*
Y168944D01*
X860289Y169054D01*
Y169138D01*
Y169184D01*
Y169193D01*
Y169202D01*
Y169489D01*
X860271Y169748D01*
X860252Y169979D01*
X860234Y170201D01*
X860206Y170386D01*
X860169Y170562D01*
X860132Y170709D01*
X860104Y170848D01*
X860067Y170959D01*
X860030Y171052D01*
X860003Y171135D01*
X859966Y171199D01*
X859947Y171246D01*
X859929Y171273D01*
X859910Y171292D01*
Y171301D01*
X859836Y171394D01*
X859762Y171468D01*
X859688Y171542D01*
X859614Y171597D01*
X859457Y171689D01*
X859318Y171754D01*
X859189Y171791D01*
X859097Y171810D01*
X859060Y171819D01*
D02*
G37*
G36*
X848067Y187582D02*
X846162D01*
Y185465D01*
X848178D01*
X848428Y185474D01*
X848640Y185511D01*
X848825Y185557D01*
X848964Y185613D01*
X849084Y185669D01*
X849158Y185715D01*
X849204Y185752D01*
X849223Y185761D01*
X849334Y185881D01*
X849417Y186001D01*
X849472Y186131D01*
X849519Y186242D01*
X849537Y186353D01*
X849546Y186436D01*
X849556Y186491D01*
Y186501D01*
Y186510D01*
X849546Y186621D01*
X849528Y186732D01*
X849500Y186824D01*
X849472Y186907D01*
X849435Y186981D01*
X849408Y187037D01*
X849389Y187074D01*
X849380Y187083D01*
X849315Y187176D01*
X849232Y187259D01*
X849149Y187323D01*
X849065Y187379D01*
X848992Y187416D01*
X848936Y187444D01*
X848899Y187462D01*
X848881Y187471D01*
X848751Y187508D01*
X848603Y187536D01*
X848455Y187555D01*
X848307Y187564D01*
X848178Y187573D01*
X848067Y187582D01*
D02*
G37*
G36*
X858542Y188285D02*
X858487D01*
X858293Y188267D01*
X858117Y188230D01*
X857960Y188165D01*
X857821Y188091D01*
X857719Y188026D01*
X857636Y187961D01*
X857590Y187924D01*
X857571Y187906D01*
X857451Y187758D01*
X857359Y187592D01*
X857303Y187425D01*
X857257Y187268D01*
X857229Y187129D01*
X857220Y187074D01*
Y187018D01*
X857211Y186972D01*
Y186944D01*
Y186926D01*
Y186917D01*
X857229Y186676D01*
X857266Y186454D01*
X857331Y186260D01*
X857405Y186103D01*
X857470Y185974D01*
X857534Y185881D01*
X857553Y185853D01*
X857571Y185826D01*
X857590Y185816D01*
Y185807D01*
X857664Y185733D01*
X857738Y185659D01*
X857895Y185557D01*
X858052Y185474D01*
X858200Y185428D01*
X858320Y185391D01*
X858422Y185382D01*
X858459Y185373D01*
X858607D01*
X858699Y185391D01*
X858866Y185437D01*
X859014Y185502D01*
X859143Y185567D01*
X859245Y185641D01*
X859319Y185706D01*
X859365Y185752D01*
X859384Y185761D01*
Y185770D01*
X859504Y185927D01*
X859596Y186103D01*
X859661Y186288D01*
X859698Y186464D01*
X859726Y186611D01*
X859735Y186676D01*
Y186741D01*
X859744Y186787D01*
Y186824D01*
Y186843D01*
Y186852D01*
X859726Y187092D01*
X859689Y187305D01*
X859633Y187481D01*
X859568Y187629D01*
X859495Y187749D01*
X859439Y187832D01*
X859402Y187887D01*
X859384Y187906D01*
X859245Y188035D01*
X859097Y188128D01*
X858949Y188193D01*
X858801Y188239D01*
X858681Y188267D01*
X858579Y188276D01*
X858542Y188285D01*
D02*
G37*
G36*
X997080Y104813D02*
X994963D01*
Y102798D01*
X994972Y102548D01*
X995009Y102336D01*
X995055Y102151D01*
X995111Y102012D01*
X995166Y101892D01*
X995213Y101818D01*
X995250Y101772D01*
X995259Y101753D01*
X995379Y101642D01*
X995499Y101559D01*
X995629Y101504D01*
X995740Y101457D01*
X995851Y101439D01*
X995934Y101430D01*
X995989Y101420D01*
X995999D01*
X996008D01*
X996119Y101430D01*
X996230Y101448D01*
X996322Y101476D01*
X996405Y101504D01*
X996479Y101541D01*
X996535Y101568D01*
X996572Y101587D01*
X996581Y101596D01*
X996674Y101661D01*
X996757Y101744D01*
X996822Y101827D01*
X996877Y101910D01*
X996914Y101984D01*
X996942Y102040D01*
X996960Y102077D01*
X996969Y102095D01*
X997006Y102225D01*
X997034Y102373D01*
X997053Y102521D01*
X997062Y102669D01*
X997071Y102798D01*
X997080Y102909D01*
Y104813D01*
D02*
G37*
G36*
X998643Y93700D02*
X998597D01*
X998578D01*
X998356Y93682D01*
X998162Y93645D01*
X997986Y93580D01*
X997848Y93515D01*
X997728Y93451D01*
X997644Y93386D01*
X997598Y93349D01*
X997580Y93330D01*
X997450Y93183D01*
X997358Y93035D01*
X997284Y92878D01*
X997237Y92739D01*
X997210Y92609D01*
X997200Y92517D01*
X997191Y92480D01*
Y92424D01*
X997210Y92230D01*
X997256Y92055D01*
X997311Y91907D01*
X997385Y91777D01*
X997459Y91676D01*
X997515Y91602D01*
X997561Y91555D01*
X997580Y91537D01*
X997737Y91417D01*
X997903Y91324D01*
X998079Y91259D01*
X998245Y91222D01*
X998393Y91195D01*
X998458Y91186D01*
X998513D01*
X998560Y91176D01*
X998597D01*
X998615D01*
X998624D01*
X998874Y91195D01*
X999087Y91232D01*
X999271Y91287D01*
X999429Y91352D01*
X999549Y91426D01*
X999641Y91481D01*
X999697Y91518D01*
X999706Y91537D01*
X999715D01*
X999789Y91602D01*
X999845Y91676D01*
X999947Y91824D01*
X1000011Y91971D01*
X1000067Y92101D01*
X1000094Y92221D01*
X1000104Y92313D01*
X1000113Y92351D01*
Y92397D01*
X1000104Y92526D01*
X1000085Y92646D01*
X1000048Y92757D01*
X1000011Y92850D01*
X999983Y92933D01*
X999947Y92998D01*
X999928Y93035D01*
X999919Y93053D01*
X999836Y93164D01*
X999752Y93257D01*
X999651Y93340D01*
X999567Y93405D01*
X999484Y93460D01*
X999419Y93497D01*
X999373Y93525D01*
X999355Y93534D01*
X999216Y93589D01*
X999077Y93626D01*
X998948Y93663D01*
X998828Y93682D01*
X998726Y93691D01*
X998643Y93700D01*
D02*
G37*
G36*
X1151597Y441582D02*
X1149692D01*
Y439465D01*
X1151708D01*
X1151958Y439474D01*
X1152170Y439511D01*
X1152355Y439557D01*
X1152494Y439613D01*
X1152614Y439668D01*
X1152688Y439715D01*
X1152734Y439752D01*
X1152753Y439761D01*
X1152864Y439881D01*
X1152947Y440001D01*
X1153002Y440131D01*
X1153049Y440242D01*
X1153067Y440353D01*
X1153076Y440436D01*
X1153086Y440491D01*
Y440500D01*
Y440510D01*
X1153076Y440621D01*
X1153058Y440732D01*
X1153030Y440824D01*
X1153002Y440907D01*
X1152965Y440981D01*
X1152938Y441037D01*
X1152919Y441074D01*
X1152910Y441083D01*
X1152845Y441175D01*
X1152762Y441259D01*
X1152679Y441323D01*
X1152596Y441379D01*
X1152522Y441416D01*
X1152466Y441444D01*
X1152429Y441462D01*
X1152411Y441471D01*
X1152281Y441508D01*
X1152133Y441536D01*
X1151985Y441554D01*
X1151837Y441564D01*
X1151708Y441573D01*
X1151597Y441582D01*
D02*
G37*
G36*
X1157181Y444615D02*
X1157135D01*
X1157006Y444606D01*
X1156886Y444587D01*
X1156775Y444550D01*
X1156682Y444513D01*
X1156599Y444485D01*
X1156534Y444448D01*
X1156497Y444430D01*
X1156479Y444421D01*
X1156368Y444338D01*
X1156275Y444254D01*
X1156192Y444153D01*
X1156127Y444069D01*
X1156072Y443986D01*
X1156035Y443921D01*
X1156007Y443875D01*
X1155998Y443857D01*
X1155942Y443718D01*
X1155906Y443579D01*
X1155869Y443450D01*
X1155850Y443330D01*
X1155841Y443228D01*
X1155832Y443145D01*
Y443099D01*
Y443080D01*
X1155850Y442858D01*
X1155887Y442664D01*
X1155952Y442488D01*
X1156016Y442350D01*
X1156081Y442229D01*
X1156146Y442146D01*
X1156183Y442100D01*
X1156201Y442081D01*
X1156349Y441952D01*
X1156497Y441860D01*
X1156654Y441786D01*
X1156793Y441740D01*
X1156923Y441712D01*
X1157015Y441702D01*
X1157052Y441693D01*
X1157107D01*
X1157301Y441712D01*
X1157477Y441758D01*
X1157625Y441813D01*
X1157755Y441887D01*
X1157856Y441961D01*
X1157930Y442017D01*
X1157977Y442063D01*
X1157995Y442081D01*
X1158115Y442239D01*
X1158208Y442405D01*
X1158272Y442581D01*
X1158309Y442747D01*
X1158337Y442895D01*
X1158346Y442960D01*
Y443015D01*
X1158355Y443062D01*
Y443099D01*
Y443117D01*
Y443126D01*
X1158337Y443376D01*
X1158300Y443589D01*
X1158245Y443773D01*
X1158180Y443931D01*
X1158106Y444051D01*
X1158050Y444143D01*
X1158014Y444199D01*
X1157995Y444208D01*
Y444217D01*
X1157930Y444291D01*
X1157856Y444347D01*
X1157708Y444448D01*
X1157560Y444513D01*
X1157431Y444569D01*
X1157311Y444596D01*
X1157218Y444606D01*
X1157181Y444615D01*
D02*
G37*
G36*
X1151597Y419680D02*
X1149692D01*
Y417563D01*
X1151708D01*
X1151958Y417572D01*
X1152170Y417609D01*
X1152355Y417655D01*
X1152494Y417711D01*
X1152614Y417766D01*
X1152688Y417812D01*
X1152734Y417849D01*
X1152753Y417859D01*
X1152864Y417979D01*
X1152947Y418099D01*
X1153002Y418228D01*
X1153049Y418339D01*
X1153067Y418450D01*
X1153076Y418534D01*
X1153086Y418589D01*
Y418598D01*
Y418607D01*
X1153076Y418718D01*
X1153058Y418829D01*
X1153030Y418922D01*
X1153002Y419005D01*
X1152965Y419079D01*
X1152938Y419134D01*
X1152919Y419171D01*
X1152910Y419181D01*
X1152845Y419273D01*
X1152762Y419356D01*
X1152679Y419421D01*
X1152596Y419477D01*
X1152522Y419514D01*
X1152466Y419541D01*
X1152429Y419560D01*
X1152411Y419569D01*
X1152281Y419606D01*
X1152133Y419634D01*
X1151985Y419652D01*
X1151837Y419661D01*
X1151708Y419671D01*
X1151597Y419680D01*
D02*
G37*
G36*
Y397640D02*
X1149692D01*
Y395523D01*
X1151708D01*
X1151958Y395532D01*
X1152170Y395569D01*
X1152355Y395616D01*
X1152494Y395671D01*
X1152614Y395727D01*
X1152688Y395773D01*
X1152734Y395810D01*
X1152753Y395819D01*
X1152864Y395939D01*
X1152947Y396059D01*
X1153002Y396189D01*
X1153049Y396300D01*
X1153067Y396411D01*
X1153076Y396494D01*
X1153086Y396549D01*
Y396559D01*
Y396568D01*
X1153076Y396679D01*
X1153058Y396790D01*
X1153030Y396882D01*
X1153002Y396965D01*
X1152965Y397039D01*
X1152938Y397095D01*
X1152919Y397132D01*
X1152910Y397141D01*
X1152845Y397234D01*
X1152762Y397317D01*
X1152679Y397382D01*
X1152596Y397437D01*
X1152522Y397474D01*
X1152466Y397502D01*
X1152429Y397520D01*
X1152411Y397529D01*
X1152281Y397566D01*
X1152133Y397594D01*
X1151985Y397613D01*
X1151837Y397622D01*
X1151708Y397631D01*
X1151597Y397640D01*
D02*
G37*
G36*
X1157117Y400673D02*
X1157061D01*
X1156932Y400664D01*
X1156802Y400645D01*
X1156682Y400617D01*
X1156580Y400590D01*
X1156497Y400562D01*
X1156432Y400534D01*
X1156395Y400516D01*
X1156377Y400507D01*
X1156266Y400433D01*
X1156174Y400359D01*
X1156090Y400275D01*
X1156026Y400192D01*
X1155970Y400127D01*
X1155933Y400072D01*
X1155915Y400026D01*
X1155906Y400016D01*
X1155859Y399896D01*
X1155822Y399785D01*
X1155795Y399674D01*
X1155776Y399573D01*
X1155767Y399489D01*
X1155758Y399425D01*
Y399388D01*
Y399369D01*
X1155776Y399175D01*
X1155813Y398999D01*
X1155869Y398842D01*
X1155942Y398704D01*
X1156007Y398602D01*
X1156063Y398519D01*
X1156100Y398472D01*
X1156118Y398454D01*
X1156257Y398334D01*
X1156414Y398241D01*
X1156562Y398177D01*
X1156710Y398130D01*
X1156839Y398103D01*
X1156941Y398093D01*
X1156978Y398084D01*
X1157033D01*
X1157237Y398103D01*
X1157422Y398140D01*
X1157588Y398204D01*
X1157727Y398269D01*
X1157838Y398343D01*
X1157921Y398408D01*
X1157967Y398445D01*
X1157986Y398463D01*
X1158115Y398611D01*
X1158208Y398768D01*
X1158272Y398926D01*
X1158319Y399064D01*
X1158346Y399203D01*
X1158355Y399305D01*
X1158365Y399342D01*
Y399369D01*
Y399388D01*
Y399397D01*
X1158346Y399591D01*
X1158309Y399776D01*
X1158245Y399933D01*
X1158180Y400063D01*
X1158115Y400164D01*
X1158050Y400248D01*
X1158014Y400294D01*
X1157995Y400312D01*
X1157847Y400433D01*
X1157699Y400525D01*
X1157542Y400580D01*
X1157394Y400627D01*
X1157265Y400654D01*
X1157154Y400664D01*
X1157117Y400673D01*
D02*
G37*
G36*
X1157080Y397446D02*
X1157061D01*
X1156895Y397437D01*
X1156747Y397400D01*
X1156617Y397354D01*
X1156506Y397298D01*
X1156423Y397252D01*
X1156358Y397206D01*
X1156312Y397169D01*
X1156303Y397160D01*
X1156211Y397049D01*
X1156137Y396919D01*
X1156090Y396799D01*
X1156053Y396679D01*
X1156035Y396577D01*
X1156026Y396494D01*
X1156016Y396438D01*
Y396429D01*
Y396420D01*
X1156026Y396272D01*
X1156063Y396143D01*
X1156109Y396022D01*
X1156164Y395921D01*
X1156211Y395837D01*
X1156257Y395773D01*
X1156294Y395736D01*
X1156303Y395727D01*
X1156423Y395625D01*
X1156543Y395551D01*
X1156673Y395505D01*
X1156793Y395468D01*
X1156904Y395449D01*
X1156987Y395431D01*
X1157061D01*
X1157218Y395440D01*
X1157366Y395477D01*
X1157486Y395523D01*
X1157597Y395579D01*
X1157681Y395634D01*
X1157745Y395680D01*
X1157792Y395717D01*
X1157801Y395727D01*
X1157903Y395847D01*
X1157977Y395967D01*
X1158032Y396087D01*
X1158069Y396198D01*
X1158087Y396300D01*
X1158106Y396383D01*
Y396438D01*
Y396448D01*
Y396457D01*
X1158097Y396605D01*
X1158060Y396744D01*
X1158014Y396864D01*
X1157958Y396965D01*
X1157903Y397049D01*
X1157856Y397104D01*
X1157819Y397150D01*
X1157810Y397160D01*
X1157699Y397252D01*
X1157570Y397326D01*
X1157449Y397372D01*
X1157329Y397409D01*
X1157218Y397428D01*
X1157135Y397437D01*
X1157080Y397446D01*
D02*
G37*
G36*
X1126705Y375288D02*
X1124800D01*
Y373171D01*
X1126816D01*
X1127066Y373180D01*
X1127278Y373217D01*
X1127463Y373264D01*
X1127602Y373319D01*
X1127722Y373374D01*
X1127796Y373421D01*
X1127842Y373458D01*
X1127861Y373467D01*
X1127972Y373587D01*
X1128055Y373707D01*
X1128110Y373837D01*
X1128157Y373948D01*
X1128175Y374059D01*
X1128184Y374142D01*
X1128194Y374197D01*
Y374207D01*
Y374216D01*
X1128184Y374327D01*
X1128166Y374438D01*
X1128138Y374530D01*
X1128110Y374613D01*
X1128073Y374687D01*
X1128046Y374743D01*
X1128027Y374780D01*
X1128018Y374789D01*
X1127953Y374882D01*
X1127870Y374965D01*
X1127787Y375029D01*
X1127703Y375085D01*
X1127630Y375122D01*
X1127574Y375150D01*
X1127537Y375168D01*
X1127519Y375177D01*
X1127389Y375214D01*
X1127241Y375242D01*
X1127093Y375261D01*
X1126945Y375270D01*
X1126816Y375279D01*
X1126705Y375288D01*
D02*
G37*
G36*
X1132206Y375991D02*
X1132151D01*
X1131956Y375973D01*
X1131781Y375936D01*
X1131624Y375871D01*
X1131485Y375797D01*
X1131383Y375732D01*
X1131300Y375667D01*
X1131254Y375630D01*
X1131235Y375612D01*
X1131115Y375464D01*
X1131023Y375298D01*
X1130967Y375131D01*
X1130921Y374974D01*
X1130893Y374835D01*
X1130884Y374780D01*
Y374724D01*
X1130875Y374678D01*
Y374650D01*
Y374632D01*
Y374623D01*
X1130893Y374382D01*
X1130930Y374160D01*
X1130995Y373966D01*
X1131069Y373809D01*
X1131134Y373680D01*
X1131198Y373587D01*
X1131217Y373559D01*
X1131235Y373532D01*
X1131254Y373522D01*
Y373513D01*
X1131328Y373439D01*
X1131402Y373365D01*
X1131559Y373264D01*
X1131716Y373180D01*
X1131864Y373134D01*
X1131984Y373097D01*
X1132086Y373088D01*
X1132123Y373079D01*
X1132271D01*
X1132363Y373097D01*
X1132530Y373143D01*
X1132678Y373208D01*
X1132807Y373273D01*
X1132909Y373347D01*
X1132983Y373411D01*
X1133029Y373458D01*
X1133047Y373467D01*
Y373476D01*
X1133168Y373633D01*
X1133260Y373809D01*
X1133325Y373994D01*
X1133362Y374170D01*
X1133390Y374318D01*
X1133399Y374382D01*
Y374447D01*
X1133408Y374493D01*
Y374530D01*
Y374549D01*
Y374558D01*
X1133390Y374798D01*
X1133353Y375011D01*
X1133297Y375187D01*
X1133232Y375335D01*
X1133158Y375455D01*
X1133103Y375538D01*
X1133066Y375593D01*
X1133047Y375612D01*
X1132909Y375741D01*
X1132761Y375834D01*
X1132613Y375899D01*
X1132465Y375945D01*
X1132345Y375973D01*
X1132243Y375982D01*
X1132206Y375991D01*
D02*
G37*
G36*
X853319Y255191D02*
X853264D01*
X853070Y255173D01*
X852894Y255136D01*
X852737Y255071D01*
X852598Y254997D01*
X852496Y254932D01*
X852413Y254868D01*
X852367Y254831D01*
X852348Y254812D01*
X852228Y254664D01*
X852136Y254498D01*
X852080Y254331D01*
X852034Y254174D01*
X852006Y254036D01*
X851997Y253980D01*
Y253925D01*
X851988Y253878D01*
Y253851D01*
Y253832D01*
Y253823D01*
X852006Y253583D01*
X852043Y253361D01*
X852108Y253167D01*
X852182Y253009D01*
X852247Y252880D01*
X852311Y252787D01*
X852330Y252760D01*
X852348Y252732D01*
X852367Y252723D01*
Y252714D01*
X852441Y252640D01*
X852515Y252566D01*
X852672Y252464D01*
X852829Y252381D01*
X852977Y252334D01*
X853097Y252297D01*
X853199Y252288D01*
X853236Y252279D01*
X853384D01*
X853476Y252297D01*
X853643Y252344D01*
X853791Y252408D01*
X853920Y252473D01*
X854022Y252547D01*
X854096Y252612D01*
X854142Y252658D01*
X854161Y252667D01*
Y252677D01*
X854281Y252834D01*
X854373Y253009D01*
X854438Y253194D01*
X854475Y253370D01*
X854503Y253518D01*
X854512Y253583D01*
Y253647D01*
X854521Y253694D01*
Y253731D01*
Y253749D01*
Y253758D01*
X854503Y253999D01*
X854466Y254211D01*
X854410Y254387D01*
X854345Y254535D01*
X854271Y254655D01*
X854216Y254738D01*
X854179Y254794D01*
X854161Y254812D01*
X854022Y254942D01*
X853874Y255034D01*
X853726Y255099D01*
X853578Y255145D01*
X853458Y255173D01*
X853356Y255182D01*
X853319Y255191D01*
D02*
G37*
G36*
X1034118Y115513D02*
X1034062D01*
X1033960Y115504D01*
X1033859Y115494D01*
X1033766Y115467D01*
X1033683Y115430D01*
X1033526Y115347D01*
X1033387Y115254D01*
X1033286Y115152D01*
X1033202Y115069D01*
X1033175Y115032D01*
X1033156Y115005D01*
X1033138Y114995D01*
Y114986D01*
X1033073Y114875D01*
X1033017Y114746D01*
X1032962Y114598D01*
X1032925Y114440D01*
X1032888Y114274D01*
X1032860Y114098D01*
X1032814Y113747D01*
X1032795Y113571D01*
X1032786Y113414D01*
X1032777Y113266D01*
Y113146D01*
X1032768Y113035D01*
Y112952D01*
Y112906D01*
Y112896D01*
Y112887D01*
Y112601D01*
X1032786Y112342D01*
X1032805Y112111D01*
X1032823Y111889D01*
X1032851Y111704D01*
X1032888Y111528D01*
X1032925Y111380D01*
X1032953Y111242D01*
X1032990Y111131D01*
X1033027Y111038D01*
X1033054Y110955D01*
X1033091Y110890D01*
X1033110Y110844D01*
X1033128Y110816D01*
X1033147Y110798D01*
Y110788D01*
X1033221Y110696D01*
X1033295Y110622D01*
X1033369Y110548D01*
X1033443Y110493D01*
X1033600Y110400D01*
X1033738Y110336D01*
X1033868Y110299D01*
X1033960Y110280D01*
X1033997Y110271D01*
X1034053D01*
X1034155Y110280D01*
X1034247Y110289D01*
X1034423Y110354D01*
X1034580Y110437D01*
X1034719Y110530D01*
X1034820Y110622D01*
X1034903Y110705D01*
X1034950Y110770D01*
X1034968Y110779D01*
Y110788D01*
X1035033Y110899D01*
X1035088Y111029D01*
X1035144Y111177D01*
X1035181Y111334D01*
X1035218Y111500D01*
X1035246Y111676D01*
X1035292Y112037D01*
X1035310Y112203D01*
X1035320Y112360D01*
X1035329Y112508D01*
Y112628D01*
X1035338Y112739D01*
Y112823D01*
Y112869D01*
Y112887D01*
X1035329Y113174D01*
X1035320Y113433D01*
X1035301Y113673D01*
X1035273Y113895D01*
X1035246Y114089D01*
X1035209Y114265D01*
X1035172Y114422D01*
X1035135Y114561D01*
X1035098Y114681D01*
X1035070Y114783D01*
X1035033Y114866D01*
X1035005Y114940D01*
X1034977Y114986D01*
X1034959Y115023D01*
X1034940Y115042D01*
Y115051D01*
X1034876Y115134D01*
X1034811Y115208D01*
X1034737Y115263D01*
X1034663Y115319D01*
X1034515Y115402D01*
X1034377Y115457D01*
X1034256Y115485D01*
X1034155Y115504D01*
X1034118Y115513D01*
D02*
G37*
%LPD*%
D13*
X825041Y213265D02*
X868123D01*
Y238347D01*
X825041D02*
X868123D01*
X825041Y213265D02*
Y238347D01*
X824279Y159925D02*
Y185007D01*
X867361D01*
Y159925D02*
Y185007D01*
X824279Y159925D02*
X867361D01*
X823771Y178721D02*
Y203803D01*
X866853D01*
Y178721D02*
Y203803D01*
X823771Y178721D02*
X866853D01*
X988219Y84123D02*
Y127205D01*
Y84123D02*
X1013301D01*
Y127205D01*
X988219D02*
X1013301D01*
X1133342Y437012D02*
X1164342D01*
Y453512D01*
X1133342D02*
X1164342D01*
X1133342Y437012D02*
Y453512D01*
Y414999D02*
X1164342D01*
Y431499D01*
X1133342D02*
X1164342D01*
X1133342Y414999D02*
Y431499D01*
Y393070D02*
X1164342D01*
Y409570D01*
X1133342D02*
X1164342D01*
X1133342Y393070D02*
Y409570D01*
X1108450Y370718D02*
X1139450D01*
Y387218D01*
X1108450D02*
X1139450D01*
X1108450Y370718D02*
Y387218D01*
X823804Y246286D02*
X865804D01*
Y266286D01*
X823804D02*
X865804D01*
X823804Y246286D02*
Y266286D01*
X1026496Y121506D02*
X1068496D01*
X1026496Y101506D02*
Y121506D01*
Y101506D02*
X1068496D01*
Y121506D01*
M02*
