G04*
G04 #@! TF.GenerationSoftware,Altium Limited,Altium Designer,22.7.1 (60)*
G04*
G04 Layer_Color=12632256*
%FSLAX44Y44*%
%MOMM*%
G71*
G04*
G04 #@! TF.SameCoordinates,C135ED8F-C31E-46FA-BF74-57CE0E3476C4*
G04*
G04*
G04 #@! TF.FilePolarity,Positive*
G04*
G01*
G75*
%ADD63R,2.5000X2.5000*%
%ADD64C,2.5000*%
%ADD65C,1.5406*%
%ADD66R,1.5406X1.5406*%
%ADD67C,1.2000*%
%ADD68R,1.2000X1.2000*%
%ADD69R,1.7500X1.7500*%
%ADD70C,1.7500*%
%ADD71C,1.8400*%
%ADD72R,1.8400X1.8400*%
%ADD76R,2.0000X2.0000*%
%ADD77C,2.0000*%
%ADD78R,2.0000X2.0000*%
%ADD89C,1.7000*%
%ADD90R,1.7000X1.7000*%
%ADD91R,1.7000X1.7000*%
%ADD92C,4.0000*%
D63*
X450000Y361900D02*
D03*
X750000D02*
D03*
D64*
X450000Y438100D02*
D03*
X750000D02*
D03*
D65*
X1124981Y550000D02*
D03*
X1122441Y250000D02*
D03*
D66*
X1175019Y550000D02*
D03*
X1172479Y250000D02*
D03*
D67*
X309830Y610870D02*
D03*
Y636270D02*
D03*
D68*
Y661670D02*
D03*
D69*
X140000Y585000D02*
D03*
D70*
Y735000D02*
D03*
D71*
X1122830Y753110D02*
D03*
X1097430D02*
D03*
X1072030D02*
D03*
X1046630D02*
D03*
X1021230D02*
D03*
X995830D02*
D03*
X970430D02*
D03*
X945030D02*
D03*
X919630D02*
D03*
X894230D02*
D03*
X868830D02*
D03*
X938530Y46990D02*
D03*
X836930D02*
D03*
X862330D02*
D03*
X887730D02*
D03*
X989330D02*
D03*
X1014730D02*
D03*
X1040130D02*
D03*
X1065530D02*
D03*
X1090930D02*
D03*
X963930D02*
D03*
X913130D02*
D03*
D72*
X843430Y753110D02*
D03*
X1116330Y46990D02*
D03*
D76*
X239780Y434340D02*
D03*
Y310515D02*
D03*
Y186690D02*
D03*
X374320Y43580D02*
D03*
D77*
X239780Y459740D02*
D03*
Y485140D02*
D03*
Y335915D02*
D03*
Y361315D02*
D03*
Y212090D02*
D03*
Y237490D02*
D03*
X447040Y252980D02*
D03*
X472440D02*
D03*
X174320Y93580D02*
D03*
Y43580D02*
D03*
X374320Y93580D02*
D03*
D78*
X421640Y252980D02*
D03*
D89*
X116840Y478790D02*
D03*
Y231140D02*
D03*
X501650Y74830D02*
D03*
X798830Y46990D02*
D03*
X514350Y618490D02*
D03*
X450850D02*
D03*
X947420Y185420D02*
D03*
X1010920D02*
D03*
X542290Y754380D02*
D03*
X567690D02*
D03*
X593090D02*
D03*
X422910D02*
D03*
X448310D02*
D03*
X473710D02*
D03*
X116840Y354965D02*
D03*
D90*
Y440690D02*
D03*
Y193040D02*
D03*
Y316865D02*
D03*
D91*
X539750Y74830D02*
D03*
X773430Y46990D02*
D03*
X539750Y618490D02*
D03*
X476250D02*
D03*
X922020Y185420D02*
D03*
X985520D02*
D03*
X516890Y754380D02*
D03*
X397510D02*
D03*
D92*
X1170000Y770000D02*
D03*
X30000D02*
D03*
Y30480D02*
D03*
X600000Y400000D02*
D03*
X1170000Y30000D02*
D03*
M02*
